<svg viewBox="0 0 263 112" fill="none" xmlns="http://www.w3.org/2000/svg">
<path d="M48.8378 0.808889C49.5696 0.808889 50.1467 0.94963 50.5689 1.23111C50.9911 1.48444 51.2022 1.80815 51.2022 2.20222C51.2022 2.82148 50.6674 3.39852 49.5978 3.93333C48.5563 4.44 47.0504 4.69333 45.08 4.69333C43.3911 4.69333 41.5193 4.58074 39.4644 4.35555C37.86 5.39704 36.5089 6.56518 35.4111 7.86C34.2007 9.23926 32.5259 11.463 30.3867 14.5311H31.78C32.1459 14.5311 32.4274 14.517 32.6244 14.4889C33.103 13.757 33.6237 13.3911 34.1867 13.3911C34.4119 13.3911 34.5807 13.4474 34.6933 13.56C34.8059 13.6726 34.82 13.7993 34.7356 13.94C34.5667 14.3904 33.877 14.6296 32.6667 14.6578C32.2163 15.3615 31.8926 16.3467 31.6956 17.6133H31.6111C31.8081 16.3748 32.1178 15.3896 32.54 14.6578C32.343 14.6859 32.0896 14.7 31.78 14.7H30.26C30.2037 14.7563 30.1193 14.8689 30.0067 15.0378C29.1622 16.2481 28.5148 17.177 28.0644 17.8244C27.6141 18.4437 26.9526 19.3304 26.08 20.4844C25.2356 21.6104 24.5319 22.497 23.9689 23.1444C23.4059 23.7637 22.66 24.5519 21.7311 25.5089C20.8304 26.4378 20.0141 27.1837 19.2822 27.7467C18.5504 28.2815 17.6778 28.8585 16.6644 29.4778C15.6793 30.1252 14.7081 30.6178 13.7511 30.9556C12.8222 31.2933 11.7807 31.5748 10.6267 31.8C9.50074 32.0252 8.34667 32.1378 7.16444 32.1378C4.94074 32.1378 3.26593 31.603 2.14 30.5333C1.04222 29.4637 0.493333 28.0704 0.493333 26.3533C0.493333 24.1296 1.35185 21.7793 3.06889 19.3022C4.81407 16.797 7.10815 14.8126 9.95111 13.3489C9.61333 12.5889 9.44444 11.7726 9.44444 10.9C9.44444 9.83037 9.6837 8.76074 10.1622 7.69111C10.6689 6.59333 11.4148 5.55185 12.4 4.56667C13.3852 3.55333 14.7363 2.73704 16.4533 2.11778C18.1985 1.49852 20.1689 1.18889 22.3644 1.18889C24.1659 1.18889 27.3326 1.44222 31.8644 1.94889C36.3963 2.45555 39.4222 2.75111 40.9422 2.83555C43.5881 1.48444 46.22 0.808889 48.8378 0.808889ZM42.4622 2.87778C47.3882 2.87778 49.8511 2.52593 49.8511 1.82222C49.8511 1.68148 49.7244 1.56889 49.4711 1.48444C49.2459 1.37185 49.0067 1.31556 48.7533 1.31556C46.6422 1.31556 44.4467 1.82222 42.1667 2.83555C42.3074 2.8637 42.4059 2.87778 42.4622 2.87778ZM34.8622 7.52222C35.8756 6.31185 37.1 5.21407 38.5356 4.22889C37.1281 4.06 35.2704 3.80667 32.9622 3.46889C30.6822 3.10296 28.6696 2.80741 26.9244 2.58222C25.1793 2.35704 23.6311 2.24444 22.28 2.24444C20.1689 2.24444 18.283 2.49778 16.6222 3.00444C14.9615 3.51111 13.6385 4.18667 12.6533 5.03111C11.6963 5.87555 10.9644 6.79037 10.4578 7.77556C9.97926 8.76074 9.74 9.77407 9.74 10.8156C9.74 11.66 9.92296 12.4341 10.2889 13.1378C12.9067 11.8711 15.6652 11.2378 18.5644 11.2378C20.2815 11.2378 21.5622 11.5615 22.4067 12.2089C23.2511 12.8563 23.6733 13.7289 23.6733 14.8267C23.6733 15.7837 23.3496 16.8252 22.7022 17.9511C22.0548 19.0489 21.1963 20.0763 20.1267 21.0333C19.057 21.9904 17.7481 22.7926 16.2 23.44C14.68 24.0593 13.1319 24.3689 11.5556 24.3689C10.5704 24.3689 9.69778 24.1859 8.93778 23.82C8.17778 23.4541 7.85407 22.9193 7.96667 22.2156L8.09333 22.1733C8.12148 22.483 8.23407 22.7222 8.43111 22.8911C8.6563 23.06 8.95185 23.1867 9.31778 23.2711C9.71185 23.3274 10.0356 23.3696 10.2889 23.3978C10.5422 23.3978 10.8941 23.3978 11.3444 23.3978C11.4289 23.3978 11.4852 23.3978 11.5133 23.3978C13.0896 23.3978 14.6378 23.1163 16.1578 22.5533C17.6778 21.9622 18.9585 21.2304 20 20.3578C21.0696 19.4852 21.9141 18.5422 22.5333 17.5289C23.1807 16.5156 23.5044 15.5585 23.5044 14.6578C23.5044 13.6726 23.0963 12.8844 22.28 12.2933C21.4637 11.7022 20.2252 11.4067 18.5644 11.4067C15.7215 11.4067 12.9911 12.0541 10.3733 13.3489C11.5556 15.46 13.8637 16.5156 17.2978 16.5156C18.2267 16.5156 19.2259 16.4311 20.2956 16.2622V16.3044C18.8881 16.6704 17.6074 16.8674 16.4533 16.8956C16.397 16.8956 16.3267 16.8956 16.2422 16.8956C13.1459 16.8956 11.077 15.7837 10.0356 13.56C7.41778 14.9393 5.29259 16.7548 3.66 19.0067C2.02741 21.2304 1.21111 23.3274 1.21111 25.2978C1.21111 26.7896 1.73185 27.9859 2.77333 28.8867C3.81481 29.8156 5.39111 30.28 7.50222 30.28C9.38815 30.28 11.2037 29.9985 12.9489 29.4356C14.6941 28.9007 16.2281 28.2252 17.5511 27.4089C18.9022 26.5644 20.2674 25.4807 21.6467 24.1578C23.0541 22.8348 24.2363 21.5963 25.1933 20.4422C26.1785 19.26 27.2622 17.8385 28.4444 16.1778C28.5007 16.0089 28.5289 15.8541 28.5289 15.7133C28.5289 15.0378 28.0222 14.7 27.0089 14.7H26.2489C26.1081 14.7 25.883 14.7422 25.5733 14.8267C25.2637 14.883 25.0526 14.9111 24.94 14.9111C24.6585 14.9111 24.5178 14.8126 24.5178 14.6156C24.5178 14.4185 24.6726 14.32 24.9822 14.32C25.0948 14.32 25.3059 14.3622 25.6156 14.4467C25.9252 14.503 26.1363 14.5311 26.2489 14.5311H29.6689C32.1741 11.0126 33.9052 8.6763 34.8622 7.52222ZM28.74 15.84C28.9933 15.4741 29.2607 15.0941 29.5422 14.7H28.0644C28.5711 14.897 28.7963 15.277 28.74 15.84ZM46.6448 1.096C47.1768 1.12133 47.8735 1.14667 48.7348 1.172C49.5962 1.19733 50.4448 1.21 51.2808 1.21C52.4715 1.21 53.6115 1.19733 54.7008 1.172C55.7902 1.14667 56.5628 1.134 57.0188 1.134C59.0708 1.134 60.7682 1.42533 62.1108 2.008C63.4788 2.59067 64.4922 3.38867 65.1508 4.402C65.8348 5.39 66.1768 6.50467 66.1768 7.746C66.1768 8.506 66.0248 9.31667 65.7208 10.178C65.4168 11.0393 64.8848 11.85 64.1248 12.61C63.3902 13.37 62.3768 14.0033 61.0848 14.51C59.7928 14.9913 58.1588 15.232 56.1828 15.232H52.5348V14.472H55.8028C57.6015 14.472 58.9695 14.1933 59.9068 13.636C60.8695 13.0533 61.5155 12.2933 61.8448 11.356C62.1995 10.3933 62.3768 9.32933 62.3768 8.164C62.3768 6.16267 61.8955 4.61733 60.9328 3.528C59.9955 2.41333 58.3742 1.856 56.0688 1.856C54.9035 1.856 54.1435 2.07133 53.7888 2.502C53.4342 2.93267 53.2568 3.80666 53.2568 5.124V23.972C53.2568 24.884 53.3328 25.568 53.4848 26.024C53.6368 26.48 53.9282 26.784 54.3588 26.936C54.8148 27.088 55.4735 27.1893 56.3348 27.24V28C55.7522 27.9493 55.0175 27.924 54.1308 27.924C53.2695 27.8987 52.3955 27.886 51.5088 27.886C50.5208 27.886 49.5962 27.8987 48.7348 27.924C47.8735 27.924 47.1768 27.9493 46.6448 28V27.24C47.5062 27.1893 48.1522 27.088 48.5828 26.936C49.0388 26.784 49.3428 26.48 49.4948 26.024C49.6468 25.568 49.7228 24.884 49.7228 23.972V5.124C49.7228 4.18666 49.6468 3.50266 49.4948 3.072C49.3428 2.616 49.0388 2.312 48.5828 2.16C48.1522 1.98267 47.5062 1.88133 46.6448 1.856V1.096ZM52.6868 14.586C54.0548 14.6367 55.1315 14.7 55.9168 14.776C56.7022 14.8267 57.3355 14.8773 57.8168 14.928C58.3235 14.9787 58.8048 15.042 59.2608 15.118C60.9582 15.3967 62.1742 15.916 62.9088 16.676C63.6688 17.4107 64.2262 18.5633 64.5808 20.134L65.5308 24.01C65.7842 25.1247 66.0375 25.9353 66.2908 26.442C66.5695 26.9233 66.9875 27.1513 67.5448 27.126C67.9755 27.1007 68.3302 26.9613 68.6088 26.708C68.9128 26.4547 69.2295 26.1127 69.5588 25.682L70.1288 26.1C69.5968 26.8853 69.0395 27.4933 68.4568 27.924C67.8995 28.3293 67.1015 28.532 66.0628 28.532C65.1255 28.532 64.3022 28.2533 63.5928 27.696C62.8835 27.1387 62.3515 26.0493 61.9968 24.428L61.1608 20.628C60.9328 19.5387 60.6668 18.6013 60.3628 17.816C60.0842 17.0053 59.6788 16.372 59.1468 15.916C58.6402 15.46 57.8802 15.232 56.8668 15.232H52.7628L52.6868 14.586ZM90.2475 1.096C90.1461 1.98267 90.0701 2.844 90.0195 3.68C89.9941 4.516 89.9815 5.14933 89.9815 5.58C89.9815 6.036 89.9941 6.47933 90.0195 6.91C90.0448 7.31533 90.0701 7.65733 90.0955 7.936H89.2215C89.0695 6.44133 88.8541 5.26333 88.5755 4.402C88.2968 3.51533 87.8155 2.89467 87.1315 2.54C86.4728 2.16 85.4721 1.97 84.1295 1.97H80.9755C80.1141 1.97 79.4555 2.046 78.9995 2.198C78.5688 2.32467 78.2775 2.616 78.1255 3.072C77.9735 3.50266 77.8975 4.18666 77.8975 5.124V23.972C77.8975 24.884 77.9735 25.568 78.1255 26.024C78.2775 26.48 78.5688 26.784 78.9995 26.936C79.4555 27.0627 80.1141 27.126 80.9755 27.126H83.7495C85.3455 27.126 86.5488 26.9107 87.3595 26.48C88.1955 26.0493 88.7908 25.3527 89.1455 24.39C89.5255 23.402 89.8041 22.072 89.9815 20.4H90.8555C90.7795 21.084 90.7415 21.996 90.7415 23.136C90.7415 23.6173 90.7541 24.314 90.7795 25.226C90.8301 26.1127 90.9061 27.0373 91.0075 28C89.7155 27.9493 88.2588 27.924 86.6375 27.924C85.0161 27.8987 83.5721 27.886 82.3055 27.886C81.7481 27.886 81.0261 27.886 80.1395 27.886C79.2781 27.886 78.3408 27.8987 77.3275 27.924C76.3141 27.924 75.2881 27.9367 74.2495 27.962C73.2108 27.962 72.2228 27.9747 71.2855 28V27.24C72.1468 27.1893 72.7928 27.088 73.2235 26.936C73.6795 26.784 73.9835 26.48 74.1355 26.024C74.2875 25.568 74.3635 24.884 74.3635 23.972V5.124C74.3635 4.18666 74.2875 3.50266 74.1355 3.072C73.9835 2.616 73.6795 2.312 73.2235 2.16C72.7928 1.98267 72.1468 1.88133 71.2855 1.856V1.096C72.2228 1.12133 73.2108 1.14667 74.2495 1.172C75.2881 1.172 76.3141 1.18467 77.3275 1.21C78.3408 1.21 79.2781 1.21 80.1395 1.21C81.0261 1.21 81.7481 1.21 82.3055 1.21C83.4708 1.21 84.7881 1.21 86.2575 1.21C87.7521 1.18467 89.0821 1.14667 90.2475 1.096ZM83.7115 14.092C83.7115 14.092 83.7115 14.2187 83.7115 14.472C83.7115 14.7253 83.7115 14.852 83.7115 14.852H76.7575C76.7575 14.852 76.7575 14.7253 76.7575 14.472C76.7575 14.2187 76.7575 14.092 76.7575 14.092H83.7115ZM84.8135 9.076C84.7121 10.52 84.6615 11.622 84.6615 12.382C84.6868 13.142 84.6995 13.8387 84.6995 14.472C84.6995 15.1053 84.7121 15.802 84.7375 16.562C84.7628 17.322 84.8261 18.424 84.9275 19.868H84.0535C83.9521 19.0573 83.8255 18.272 83.6735 17.512C83.5468 16.7267 83.2428 16.0933 82.7615 15.612C82.3055 15.1053 81.5201 14.852 80.4055 14.852V14.092C81.2415 14.092 81.8748 13.9273 82.3055 13.598C82.7615 13.2433 83.0908 12.8 83.2935 12.268C83.4961 11.736 83.6355 11.1913 83.7115 10.634C83.7875 10.0513 83.8635 9.532 83.9395 9.076H84.8135ZM121.27 28.874L121.84 29.102C121.536 30.1407 121.181 31.002 120.776 31.686C120.396 32.3953 119.952 32.978 119.446 33.434C118.964 33.8647 118.306 34.2573 117.47 34.612C116.659 34.9667 115.608 35.144 114.316 35.144C112.973 35.144 111.668 34.916 110.402 34.46C109.16 34.0293 107.868 33.4973 106.526 32.864C105.183 32.2307 103.701 31.648 102.08 31.116C101.902 31.0653 101.738 31.0147 101.586 30.964C101.434 30.9133 101.294 30.8753 101.168 30.85C100.686 31.0273 100.167 31.1667 99.6097 31.268C99.0524 31.3693 98.5204 31.42 98.0137 31.42C97.507 31.42 97.089 31.3567 96.7597 31.23C96.4304 31.1033 96.2657 30.9133 96.2657 30.66C96.2657 30.128 96.9497 29.862 98.3177 29.862C99.2044 29.862 100.154 29.9633 101.168 30.166C102.08 29.9127 102.865 29.6213 103.524 29.292C104.182 28.988 104.854 28.6967 105.538 28.418C106.247 28.1393 107.096 27.962 108.084 27.886L108.122 28.494C107.362 28.57 106.703 28.7093 106.146 28.912C105.588 29.14 105.031 29.3807 104.474 29.634C103.916 29.8873 103.258 30.128 102.498 30.356C103.764 30.6093 105.145 30.8753 106.64 31.154C108.134 31.4327 109.578 31.6733 110.972 31.876C112.365 32.0787 113.556 32.18 114.544 32.18C116.368 32.18 117.799 31.914 118.838 31.382C119.902 30.85 120.712 30.014 121.27 28.874ZM106.944 0.563998C109.35 0.563998 111.453 1.10866 113.252 2.198C115.076 3.28733 116.482 4.858 117.47 6.91C118.483 8.93667 118.99 11.4067 118.99 14.32C118.99 17.1573 118.47 19.64 117.432 21.768C116.418 23.896 115 25.5553 113.176 26.746C111.352 27.9367 109.262 28.532 106.906 28.532C104.499 28.532 102.384 27.9873 100.56 26.898C98.761 25.8087 97.355 24.238 96.3417 22.186C95.3537 20.134 94.8597 17.664 94.8597 14.776C94.8597 11.9387 95.379 9.456 96.4177 7.328C97.4564 5.2 98.875 3.54067 100.674 2.35C102.498 1.15933 104.588 0.563998 106.944 0.563998ZM106.792 1.248C105.145 1.248 103.714 1.818 102.498 2.958C101.282 4.098 100.332 5.66867 99.6477 7.67C98.989 9.67133 98.6597 11.9893 98.6597 14.624C98.6597 17.3093 99.027 19.6527 99.7617 21.654C100.522 23.63 101.535 25.1627 102.802 26.252C104.094 27.316 105.512 27.848 107.058 27.848C108.704 27.848 110.136 27.278 111.352 26.138C112.568 24.998 113.505 23.4273 114.164 21.426C114.848 19.3993 115.19 17.0813 115.19 14.472C115.19 11.7613 114.81 9.418 114.05 7.442C113.315 5.466 112.314 3.946 111.048 2.882C109.781 1.79267 108.362 1.248 106.792 1.248ZM145.679 1.096V1.856C144.818 1.88133 144.159 2.008 143.703 2.236C143.272 2.464 142.981 2.83133 142.829 3.338C142.677 3.84467 142.601 4.56667 142.601 5.504V16.942C142.601 18.7153 142.487 20.2607 142.259 21.578C142.031 22.8953 141.626 24.0353 141.043 24.998C140.41 26.062 139.485 26.9233 138.269 27.582C137.053 28.2153 135.66 28.532 134.089 28.532C132.873 28.532 131.708 28.38 130.593 28.076C129.504 27.7973 128.541 27.2653 127.705 26.48C126.97 25.7707 126.388 25.0233 125.957 24.238C125.552 23.4527 125.273 22.49 125.121 21.35C124.969 20.21 124.893 18.7787 124.893 17.056V5.124C124.893 4.18666 124.817 3.50266 124.665 3.072C124.513 2.616 124.209 2.312 123.753 2.16C123.322 1.98267 122.676 1.88133 121.815 1.856V1.096C122.347 1.12133 123.044 1.14667 123.905 1.172C124.766 1.19733 125.691 1.21 126.679 1.21C127.566 1.21 128.44 1.19733 129.301 1.172C130.188 1.14667 130.922 1.12133 131.505 1.096V1.856C130.644 1.88133 129.985 1.98267 129.529 2.16C129.098 2.312 128.807 2.616 128.655 3.072C128.503 3.50266 128.427 4.18666 128.427 5.124V17.702C128.427 18.994 128.49 20.2227 128.617 21.388C128.744 22.528 128.997 23.5413 129.377 24.428C129.782 25.2893 130.39 25.9733 131.201 26.48C132.012 26.9613 133.088 27.202 134.431 27.202C136.356 27.202 137.838 26.784 138.877 25.948C139.941 25.0867 140.676 23.9087 141.081 22.414C141.512 20.9193 141.727 19.2347 141.727 17.36V5.504C141.727 4.56667 141.613 3.84467 141.385 3.338C141.182 2.83133 140.828 2.464 140.321 2.236C139.814 2.008 139.13 1.88133 138.269 1.856V1.096C138.725 1.12133 139.32 1.14667 140.055 1.172C140.815 1.19733 141.512 1.21 142.145 1.21C142.804 1.21 143.45 1.19733 144.083 1.172C144.742 1.14667 145.274 1.12133 145.679 1.096ZM167.249 1.096C167.148 1.98267 167.072 2.844 167.021 3.68C166.996 4.516 166.983 5.14933 166.983 5.58C166.983 6.036 166.996 6.47933 167.021 6.91C167.047 7.31533 167.072 7.65733 167.097 7.936H166.223C166.071 6.44133 165.856 5.26333 165.577 4.402C165.299 3.51533 164.817 2.89467 164.133 2.54C163.475 2.16 162.474 1.97 161.131 1.97H157.977C157.116 1.97 156.457 2.046 156.001 2.198C155.571 2.32467 155.279 2.616 155.127 3.072C154.975 3.50266 154.899 4.18666 154.899 5.124V23.972C154.899 24.884 154.975 25.568 155.127 26.024C155.279 26.48 155.571 26.784 156.001 26.936C156.457 27.0627 157.116 27.126 157.977 27.126H160.751C162.347 27.126 163.551 26.9107 164.361 26.48C165.197 26.0493 165.793 25.3527 166.147 24.39C166.527 23.402 166.806 22.072 166.983 20.4H167.857C167.781 21.084 167.743 21.996 167.743 23.136C167.743 23.6173 167.756 24.314 167.781 25.226C167.832 26.1127 167.908 27.0373 168.009 28C166.717 27.9493 165.261 27.924 163.639 27.924C162.018 27.8987 160.574 27.886 159.307 27.886C158.75 27.886 158.028 27.886 157.141 27.886C156.28 27.886 155.343 27.8987 154.329 27.924C153.316 27.924 152.29 27.9367 151.251 27.962C150.213 27.962 149.225 27.9747 148.287 28V27.24C149.149 27.1893 149.795 27.088 150.225 26.936C150.681 26.784 150.985 26.48 151.137 26.024C151.289 25.568 151.365 24.884 151.365 23.972V5.124C151.365 4.18666 151.289 3.50266 151.137 3.072C150.985 2.616 150.681 2.312 150.225 2.16C149.795 1.98267 149.149 1.88133 148.287 1.856V1.096C149.225 1.12133 150.213 1.14667 151.251 1.172C152.29 1.172 153.316 1.18467 154.329 1.21C155.343 1.21 156.28 1.21 157.141 1.21C158.028 1.21 158.75 1.21 159.307 1.21C160.473 1.21 161.79 1.21 163.259 1.21C164.754 1.18467 166.084 1.14667 167.249 1.096ZM160.713 14.092C160.713 14.092 160.713 14.2187 160.713 14.472C160.713 14.7253 160.713 14.852 160.713 14.852H153.759C153.759 14.852 153.759 14.7253 153.759 14.472C153.759 14.2187 153.759 14.092 153.759 14.092H160.713ZM161.815 9.076C161.714 10.52 161.663 11.622 161.663 12.382C161.689 13.142 161.701 13.8387 161.701 14.472C161.701 15.1053 161.714 15.802 161.739 16.562C161.765 17.322 161.828 18.424 161.929 19.868H161.055C160.954 19.0573 160.827 18.272 160.675 17.512C160.549 16.7267 160.245 16.0933 159.763 15.612C159.307 15.1053 158.522 14.852 157.407 14.852V14.092C158.243 14.092 158.877 13.9273 159.307 13.598C159.763 13.2433 160.093 12.8 160.295 12.268C160.498 11.736 160.637 11.1913 160.713 10.634C160.789 10.0513 160.865 9.532 160.941 9.076H161.815ZM195.308 1.096V1.856C194.446 1.88133 193.788 2.008 193.332 2.236C192.901 2.464 192.61 2.83133 192.458 3.338C192.306 3.84467 192.23 4.56667 192.23 5.504V28.19C192.078 28.19 191.926 28.19 191.774 28.19C191.647 28.19 191.508 28.19 191.356 28.19L175.396 3.528V23.592C175.396 24.504 175.472 25.226 175.624 25.758C175.801 26.2647 176.13 26.632 176.612 26.86C177.118 27.0627 177.866 27.1893 178.854 27.24V28C178.398 27.9493 177.802 27.924 177.068 27.924C176.333 27.8987 175.636 27.886 174.978 27.886C174.344 27.886 173.698 27.8987 173.04 27.924C172.406 27.924 171.874 27.9493 171.444 28V27.24C172.305 27.1893 172.951 27.0627 173.382 26.86C173.838 26.632 174.142 26.2647 174.294 25.758C174.446 25.226 174.522 24.504 174.522 23.592V5.124C174.522 4.18666 174.446 3.50266 174.294 3.072C174.142 2.616 173.838 2.312 173.382 2.16C172.951 1.98267 172.305 1.88133 171.444 1.856V1.096C171.874 1.12133 172.406 1.14667 173.04 1.172C173.698 1.19733 174.344 1.21 174.978 1.21C175.535 1.21 176.067 1.19733 176.574 1.172C177.08 1.14667 177.536 1.12133 177.942 1.096L191.356 21.768V5.504C191.356 4.56667 191.267 3.84467 191.09 3.338C190.938 2.83133 190.608 2.464 190.102 2.236C189.62 2.008 188.886 1.88133 187.898 1.856V1.096C188.354 1.12133 188.949 1.14667 189.684 1.172C190.444 1.19733 191.14 1.21 191.774 1.21C192.432 1.21 193.078 1.19733 193.712 1.172C194.37 1.14667 194.902 1.12133 195.308 1.096ZM219.174 1.096C219.072 2.05867 218.996 2.996 218.946 3.908C218.92 4.79467 218.908 5.47867 218.908 5.96C218.908 6.568 218.92 7.138 218.946 7.67C218.971 8.202 218.996 8.67067 219.022 9.076H218.148C217.97 7.30267 217.73 5.90933 217.426 4.896C217.122 3.85733 216.59 3.11 215.83 2.654C215.07 2.198 213.892 1.97 212.296 1.97H210.244V23.592C210.244 24.6053 210.332 25.3653 210.51 25.872C210.712 26.3787 211.092 26.7207 211.65 26.898C212.207 27.0753 213.018 27.1893 214.082 27.24V28C213.423 27.9493 212.587 27.924 211.574 27.924C210.56 27.8987 209.534 27.886 208.496 27.886C207.356 27.886 206.279 27.8987 205.266 27.924C204.278 27.924 203.48 27.9493 202.872 28V27.24C203.936 27.1893 204.746 27.0753 205.304 26.898C205.861 26.7207 206.228 26.3787 206.406 25.872C206.608 25.3653 206.71 24.6053 206.71 23.592V1.97H204.658C203.087 1.97 201.909 2.198 201.124 2.654C200.364 3.11 199.832 3.85733 199.528 4.896C199.224 5.90933 198.983 7.30267 198.806 9.076H197.932C197.982 8.67067 198.008 8.202 198.008 7.67C198.033 7.138 198.046 6.568 198.046 5.96C198.046 5.47867 198.02 4.79467 197.97 3.908C197.944 2.996 197.881 2.05867 197.78 1.096C198.844 1.12133 199.996 1.14667 201.238 1.172C202.504 1.19733 203.771 1.21 205.038 1.21C206.304 1.21 207.457 1.21 208.496 1.21C209.534 1.21 210.674 1.21 211.916 1.21C213.182 1.21 214.449 1.19733 215.716 1.172C216.982 1.14667 218.135 1.12133 219.174 1.096ZM231.565 1.096V1.856C230.704 1.88133 230.045 1.98267 229.589 2.16C229.159 2.312 228.867 2.616 228.715 3.072C228.563 3.50266 228.487 4.18666 228.487 5.124V23.972C228.487 24.884 228.563 25.568 228.715 26.024C228.867 26.48 229.159 26.784 229.589 26.936C230.045 27.0627 230.704 27.126 231.565 27.126H234.339C235.53 27.126 236.493 26.9993 237.227 26.746C237.987 26.4927 238.583 26.1 239.013 25.568C239.469 25.0107 239.811 24.276 240.039 23.364C240.267 22.452 240.445 21.3373 240.571 20.02H241.445C241.369 20.8053 241.331 21.844 241.331 23.136C241.331 23.6173 241.344 24.314 241.369 25.226C241.42 26.1127 241.496 27.0373 241.597 28C240.305 27.9493 238.849 27.924 237.227 27.924C235.606 27.8987 234.162 27.886 232.895 27.886C232.338 27.886 231.616 27.886 230.729 27.886C229.868 27.886 228.931 27.8987 227.917 27.924C226.904 27.924 225.878 27.9367 224.839 27.962C223.801 27.962 222.813 27.9747 221.875 28V27.24C222.737 27.1893 223.383 27.088 223.813 26.936C224.269 26.784 224.573 26.48 224.725 26.024C224.877 25.568 224.953 24.884 224.953 23.972V5.124C224.953 4.18666 224.877 3.50266 224.725 3.072C224.573 2.616 224.269 2.312 223.813 2.16C223.383 1.98267 222.737 1.88133 221.875 1.856V1.096C222.407 1.12133 223.104 1.14667 223.965 1.172C224.827 1.19733 225.751 1.21 226.739 1.21C227.626 1.21 228.5 1.19733 229.361 1.172C230.248 1.14667 230.983 1.12133 231.565 1.096ZM262.291 1.096V1.856C261.81 1.95733 261.329 2.274 260.847 2.806C260.366 3.31267 259.834 4.12333 259.251 5.238L251.575 20.438H250.929L242.037 4.022C241.531 3.08467 241.1 2.502 240.745 2.274C240.416 2.02067 240.112 1.894 239.833 1.894V1.096C240.34 1.12133 240.859 1.14667 241.391 1.172C241.949 1.19733 242.544 1.21 243.177 1.21C244.013 1.21 244.9 1.21 245.837 1.21C246.8 1.18467 247.687 1.14667 248.497 1.096V1.894C247.864 1.894 247.307 1.97 246.825 2.122C246.344 2.274 246.027 2.55267 245.875 2.958C245.723 3.36333 245.837 3.93333 246.217 4.668L252.639 16.98L252.335 17.208L257.389 7.138C258.099 5.74467 258.441 4.668 258.415 3.908C258.415 3.148 258.124 2.62867 257.541 2.35C256.959 2.046 256.135 1.88133 255.071 1.856V1.096C255.806 1.12133 256.553 1.14667 257.313 1.172C258.073 1.19733 258.783 1.21 259.441 1.21C260.1 1.21 260.645 1.19733 261.075 1.172C261.506 1.14667 261.911 1.12133 262.291 1.096ZM253.285 16.448V23.972C253.285 24.884 253.361 25.568 253.513 26.024C253.665 26.48 253.957 26.784 254.387 26.936C254.843 27.088 255.502 27.1893 256.363 27.24V28C255.781 27.9493 255.046 27.924 254.159 27.924C253.298 27.8987 252.424 27.886 251.537 27.886C250.549 27.886 249.625 27.8987 248.763 27.924C247.902 27.924 247.205 27.9493 246.673 28V27.24C247.535 27.1893 248.181 27.088 248.611 26.936C249.067 26.784 249.371 26.48 249.523 26.024C249.675 25.568 249.751 24.884 249.751 23.972V16.182L251.803 18.538L253.285 16.448ZM13.274 38.906L22.546 62.808C22.926 63.7707 23.3567 64.4167 23.838 64.746C24.3193 65.05 24.7627 65.2147 25.168 65.24V66C24.6613 65.9493 24.0407 65.924 23.306 65.924C22.5713 65.8987 21.8367 65.886 21.102 65.886C20.114 65.886 19.1893 65.8987 18.328 65.924C17.4667 65.924 16.77 65.9493 16.238 66V65.24C17.53 65.1893 18.3533 64.974 18.708 64.594C19.0627 64.1887 18.9867 63.34 18.48 62.048L11.412 43.162L12.02 42.668L5.408 59.844C5.00267 60.8573 4.762 61.7187 4.686 62.428C4.61 63.112 4.67333 63.6567 4.876 64.062C5.104 64.4673 5.47133 64.7587 5.978 64.936C6.51 65.1133 7.16867 65.2147 7.954 65.24V66C7.24467 65.9493 6.49733 65.924 5.712 65.924C4.952 65.8987 4.24267 65.886 3.584 65.886C2.95067 65.886 2.406 65.8987 1.95 65.924C1.51933 65.924 1.114 65.9493 0.734 66V65.24C1.24067 65.1133 1.76 64.822 2.292 64.366C2.824 63.8847 3.30533 63.074 3.736 61.934L12.666 38.906C12.7673 38.906 12.8687 38.906 12.97 38.906C13.0713 38.906 13.1727 38.906 13.274 38.906ZM17.91 55.056V55.816H6.586L6.966 55.056H17.91ZM34.6635 38.678C35.9302 38.678 36.8929 38.83 37.5515 39.134C38.2102 39.4127 38.7929 39.7293 39.2995 40.084C39.6035 40.2613 39.8442 40.4007 40.0215 40.502C40.2242 40.578 40.4142 40.616 40.5915 40.616C40.8449 40.616 41.0222 40.4767 41.1235 40.198C41.2502 39.9193 41.3515 39.5013 41.4275 38.944H42.3015C42.2762 39.3747 42.2382 39.894 42.1875 40.502C42.1622 41.0847 42.1369 41.87 42.1115 42.858C42.1115 43.8207 42.1115 45.1 42.1115 46.696H41.2375C41.1615 45.48 40.8955 44.3147 40.4395 43.2C39.9835 42.0853 39.3122 41.1733 38.4255 40.464C37.5642 39.7547 36.4242 39.4 35.0055 39.4C33.6629 39.4 32.5482 39.8053 31.6615 40.616C30.8002 41.4267 30.3695 42.4907 30.3695 43.808C30.3695 44.948 30.6609 45.9107 31.2435 46.696C31.8262 47.456 32.5989 48.1527 33.5615 48.786C34.5495 49.394 35.6135 50.0527 36.7535 50.762C38.0709 51.5727 39.2362 52.3833 40.2495 53.194C41.2882 53.9793 42.0989 54.8533 42.6815 55.816C43.2895 56.7787 43.5935 57.944 43.5935 59.312C43.5935 60.9333 43.2262 62.276 42.4915 63.34C41.7569 64.404 40.7815 65.202 39.5655 65.734C38.3495 66.266 37.0069 66.532 35.5375 66.532C34.1949 66.532 33.1309 66.38 32.3455 66.076C31.5602 65.772 30.8889 65.4553 30.3315 65.126C29.7742 64.7713 29.3435 64.594 29.0395 64.594C28.7862 64.594 28.5962 64.7333 28.4695 65.012C28.3682 65.2907 28.2795 65.7087 28.2035 66.266H27.3295C27.3802 65.734 27.4055 65.1133 27.4055 64.404C27.4309 63.6693 27.4435 62.7193 27.4435 61.554C27.4689 60.3887 27.4815 58.9193 27.4815 57.146H28.3555C28.4569 58.666 28.7355 60.0847 29.1915 61.402C29.6729 62.7193 30.3949 63.7833 31.3575 64.594C32.3455 65.3793 33.6502 65.772 35.2715 65.772C36.1075 65.772 36.8929 65.6073 37.6275 65.278C38.3875 64.9233 39.0082 64.3787 39.4895 63.644C39.9709 62.884 40.2115 61.9087 40.2115 60.718C40.2115 59.6793 39.9582 58.78 39.4515 58.02C38.9702 57.2347 38.2862 56.5127 37.3995 55.854C36.5129 55.17 35.4742 54.4733 34.2835 53.764C33.0929 53.0293 31.9782 52.282 30.9395 51.522C29.9009 50.762 29.0649 49.888 28.4315 48.9C27.8235 47.8867 27.5195 46.6707 27.5195 45.252C27.5195 43.7573 27.8489 42.5287 28.5075 41.566C29.1915 40.578 30.0782 39.856 31.1675 39.4C32.2569 38.9187 33.4222 38.678 34.6635 38.678ZM68.827 39.096V39.856C68.0417 39.9573 67.2817 40.2107 66.547 40.616C65.8124 41.0213 65.0777 41.6927 64.343 42.63L57.009 52.016L57.845 50.154L66.965 62.922C67.3957 63.5553 67.8644 64.0493 68.371 64.404C68.8777 64.7587 69.5237 65.0373 70.309 65.24V66C69.701 65.9493 68.941 65.924 68.029 65.924C67.1424 65.8987 66.3824 65.886 65.749 65.886C65.3184 65.886 64.7864 65.8987 64.153 65.924C63.545 65.924 62.7724 65.9493 61.835 66V65.24C62.6964 65.1893 63.241 65.0373 63.469 64.784C63.697 64.5307 63.6084 64.1127 63.203 63.53L57.655 55.17C57.1484 54.3847 56.6924 53.802 56.287 53.422C55.907 53.0167 55.5017 52.7507 55.071 52.624C54.6657 52.4973 54.1464 52.4213 53.513 52.396V51.636C54.577 51.6107 55.4637 51.408 56.173 51.028C56.9077 50.6227 57.5157 50.116 57.997 49.508L61.645 44.872C62.481 43.808 63.051 42.9087 63.355 42.174C63.659 41.4393 63.6464 40.882 63.317 40.502C62.9877 40.0967 62.291 39.8813 61.227 39.856V39.096C61.7084 39.1213 62.2024 39.1467 62.709 39.172C63.2157 39.172 63.7097 39.1847 64.191 39.21C64.6977 39.21 65.1664 39.21 65.597 39.21C66.2557 39.21 66.8637 39.1973 67.421 39.172C67.9784 39.1467 68.447 39.1213 68.827 39.096ZM56.743 39.096V39.856C55.8817 39.8813 55.223 39.9827 54.767 40.16C54.3364 40.312 54.045 40.616 53.893 41.072C53.741 41.5027 53.665 42.1867 53.665 43.124V61.972C53.665 62.884 53.741 63.568 53.893 64.024C54.045 64.48 54.3364 64.784 54.767 64.936C55.223 65.088 55.8817 65.1893 56.743 65.24V66C56.1604 65.9493 55.4257 65.924 54.539 65.924C53.6777 65.8987 52.8037 65.886 51.917 65.886C50.929 65.886 50.0044 65.8987 49.143 65.924C48.2817 65.924 47.585 65.9493 47.053 66V65.24C47.9144 65.1893 48.5604 65.088 48.991 64.936C49.447 64.784 49.751 64.48 49.903 64.024C50.055 63.568 50.131 62.884 50.131 61.972V43.124C50.131 42.1867 50.055 41.5027 49.903 41.072C49.751 40.616 49.447 40.312 48.991 40.16C48.5604 39.9827 47.9144 39.8813 47.053 39.856V39.096C47.585 39.1213 48.2817 39.1467 49.143 39.172C50.0044 39.1973 50.929 39.21 51.917 39.21C52.8037 39.21 53.6777 39.1973 54.539 39.172C55.4257 39.1467 56.1604 39.1213 56.743 39.096ZM90.9154 39.096C90.8141 39.9827 90.7381 40.844 90.6874 41.68C90.6621 42.516 90.6494 43.1493 90.6494 43.58C90.6494 44.036 90.6621 44.4793 90.6874 44.91C90.7128 45.3153 90.7381 45.6573 90.7634 45.936H89.8894C89.7374 44.4413 89.5221 43.2633 89.2434 42.402C88.9648 41.5153 88.4834 40.8947 87.7994 40.54C87.1408 40.16 86.1401 39.97 84.7974 39.97H81.6434C80.7821 39.97 80.1234 40.046 79.6674 40.198C79.2368 40.3247 78.9454 40.616 78.7934 41.072C78.6414 41.5027 78.5654 42.1867 78.5654 43.124V61.972C78.5654 62.884 78.6414 63.568 78.7934 64.024C78.9454 64.48 79.2368 64.784 79.6674 64.936C80.1234 65.0627 80.7821 65.126 81.6434 65.126H84.4174C86.0134 65.126 87.2168 64.9107 88.0274 64.48C88.8634 64.0493 89.4588 63.3527 89.8134 62.39C90.1934 61.402 90.4721 60.072 90.6494 58.4H91.5234C91.4474 59.084 91.4094 59.996 91.4094 61.136C91.4094 61.6173 91.4221 62.314 91.4474 63.226C91.4981 64.1127 91.5741 65.0373 91.6754 66C90.3834 65.9493 88.9268 65.924 87.3054 65.924C85.6841 65.8987 84.2401 65.886 82.9734 65.886C82.4161 65.886 81.6941 65.886 80.8074 65.886C79.9461 65.886 79.0088 65.8987 77.9954 65.924C76.9821 65.924 75.9561 65.9367 74.9174 65.962C73.8788 65.962 72.8908 65.9747 71.9534 66V65.24C72.8148 65.1893 73.4608 65.088 73.8914 64.936C74.3474 64.784 74.6514 64.48 74.8034 64.024C74.9554 63.568 75.0314 62.884 75.0314 61.972V43.124C75.0314 42.1867 74.9554 41.5027 74.8034 41.072C74.6514 40.616 74.3474 40.312 73.8914 40.16C73.4608 39.9827 72.8148 39.8813 71.9534 39.856V39.096C72.8908 39.1213 73.8788 39.1467 74.9174 39.172C75.9561 39.172 76.9821 39.1847 77.9954 39.21C79.0088 39.21 79.9461 39.21 80.8074 39.21C81.6941 39.21 82.4161 39.21 82.9734 39.21C84.1388 39.21 85.4561 39.21 86.9254 39.21C88.4201 39.1847 89.7501 39.1467 90.9154 39.096ZM84.3794 52.092C84.3794 52.092 84.3794 52.2187 84.3794 52.472C84.3794 52.7253 84.3794 52.852 84.3794 52.852H77.4254C77.4254 52.852 77.4254 52.7253 77.4254 52.472C77.4254 52.2187 77.4254 52.092 77.4254 52.092H84.3794ZM85.4814 47.076C85.3801 48.52 85.3294 49.622 85.3294 50.382C85.3548 51.142 85.3674 51.8387 85.3674 52.472C85.3674 53.1053 85.3801 53.802 85.4054 54.562C85.4308 55.322 85.4941 56.424 85.5954 57.868H84.7214C84.6201 57.0573 84.4934 56.272 84.3414 55.512C84.2148 54.7267 83.9108 54.0933 83.4294 53.612C82.9734 53.1053 82.1881 52.852 81.0734 52.852V52.092C81.9094 52.092 82.5428 51.9273 82.9734 51.598C83.4294 51.2433 83.7588 50.8 83.9614 50.268C84.1641 49.736 84.3034 49.1913 84.3794 48.634C84.4554 48.0513 84.5314 47.532 84.6074 47.076H85.4814ZM105.484 39.096C110.018 39.096 113.388 40.236 115.592 42.516C117.796 44.7707 118.898 48.0133 118.898 52.244C118.898 55.0053 118.353 57.4247 117.264 59.502C116.2 61.554 114.642 63.15 112.59 64.29C110.538 65.43 108.055 66 105.142 66C104.762 66 104.255 65.9873 103.622 65.962C102.988 65.9367 102.33 65.924 101.646 65.924C100.987 65.8987 100.379 65.886 99.8217 65.886C98.935 65.886 98.061 65.8987 97.1997 65.924C96.3383 65.924 95.6417 65.9493 95.1097 66V65.24C95.971 65.1893 96.617 65.088 97.0477 64.936C97.5037 64.784 97.8077 64.48 97.9597 64.024C98.1117 63.568 98.1877 62.884 98.1877 61.972V43.124C98.1877 42.1867 98.1117 41.5027 97.9597 41.072C97.8077 40.616 97.5037 40.312 97.0477 40.16C96.617 39.9827 95.971 39.8813 95.1097 39.856V39.096C95.6417 39.1213 96.3383 39.1593 97.1997 39.21C98.061 39.2353 98.9097 39.2353 99.7457 39.21C100.632 39.1847 101.633 39.1593 102.748 39.134C103.862 39.1087 104.774 39.096 105.484 39.096ZM104.534 39.78C103.368 39.78 102.608 39.9953 102.254 40.426C101.899 40.8567 101.722 41.7307 101.722 43.048V62.048C101.722 63.3653 101.899 64.2393 102.254 64.67C102.634 65.1007 103.406 65.316 104.572 65.316C107.333 65.316 109.474 64.822 110.994 63.834C112.514 62.8207 113.578 61.3513 114.186 59.426C114.794 57.5007 115.098 55.1573 115.098 52.396C115.098 49.5587 114.756 47.2153 114.072 45.366C113.413 43.4913 112.311 42.098 110.766 41.186C109.246 40.2487 107.168 39.78 104.534 39.78ZM29.424 104.874L29.994 105.102C29.69 106.141 29.3353 107.002 28.93 107.686C28.55 108.395 28.1067 108.978 27.6 109.434C27.1187 109.865 26.46 110.257 25.624 110.612C24.8133 110.967 23.762 111.144 22.47 111.144C21.1273 111.144 19.8227 110.916 18.556 110.46C17.3147 110.029 16.0227 109.497 14.68 108.864C13.3373 108.231 11.8553 107.648 10.234 107.116C10.0567 107.065 9.892 107.015 9.74 106.964C9.588 106.913 9.44867 106.875 9.322 106.85C8.84067 107.027 8.32133 107.167 7.764 107.268C7.20667 107.369 6.67467 107.42 6.168 107.42C5.66133 107.42 5.24333 107.357 4.914 107.23C4.58467 107.103 4.42 106.913 4.42 106.66C4.42 106.128 5.104 105.862 6.472 105.862C7.35867 105.862 8.30867 105.963 9.322 106.166C10.234 105.913 11.0193 105.621 11.678 105.292C12.3367 104.988 13.008 104.697 13.692 104.418C14.4013 104.139 15.25 103.962 16.238 103.886L16.276 104.494C15.516 104.57 14.8573 104.709 14.3 104.912C13.7427 105.14 13.1853 105.381 12.628 105.634C12.0707 105.887 11.412 106.128 10.652 106.356C11.9187 106.609 13.2993 106.875 14.794 107.154C16.2887 107.433 17.7327 107.673 19.126 107.876C20.5193 108.079 21.71 108.18 22.698 108.18C24.522 108.18 25.9533 107.914 26.992 107.382C28.056 106.85 28.8667 106.014 29.424 104.874ZM15.098 76.564C17.5047 76.564 19.6073 77.1087 21.406 78.198C23.23 79.2873 24.636 80.858 25.624 82.91C26.6373 84.9367 27.144 87.4067 27.144 90.32C27.144 93.1573 26.6247 95.64 25.586 97.768C24.5727 99.896 23.154 101.555 21.33 102.746C19.506 103.937 17.416 104.532 15.06 104.532C12.6533 104.532 10.538 103.987 8.714 102.898C6.91533 101.809 5.50933 100.238 4.496 98.186C3.508 96.134 3.014 93.664 3.014 90.776C3.014 87.9387 3.53333 85.456 4.572 83.328C5.61067 81.2 7.02933 79.5407 8.828 78.35C10.652 77.1593 12.742 76.564 15.098 76.564ZM14.946 77.248C13.2993 77.248 11.868 77.818 10.652 78.958C9.436 80.098 8.486 81.6687 7.802 83.67C7.14333 85.6713 6.814 87.9893 6.814 90.624C6.814 93.3093 7.18133 95.6527 7.916 97.654C8.676 99.63 9.68933 101.163 10.956 102.252C12.248 103.316 13.6667 103.848 15.212 103.848C16.8587 103.848 18.29 103.278 19.506 102.138C20.722 100.998 21.6593 99.4273 22.318 97.426C23.002 95.3993 23.344 93.0813 23.344 90.472C23.344 87.7613 22.964 85.418 22.204 83.442C21.4693 81.466 20.4687 79.946 19.202 78.882C17.9353 77.7927 16.5167 77.248 14.946 77.248ZM53.8334 77.096V77.856C52.972 77.8813 52.3134 78.008 51.8574 78.236C51.4267 78.464 51.1354 78.8313 50.9834 79.338C50.8314 79.8447 50.7554 80.5667 50.7554 81.504V92.942C50.7554 94.7153 50.6414 96.2607 50.4134 97.578C50.1854 98.8953 49.78 100.035 49.1974 100.998C48.564 102.062 47.6394 102.923 46.4234 103.582C45.2074 104.215 43.814 104.532 42.2434 104.532C41.0274 104.532 39.862 104.38 38.7474 104.076C37.658 103.797 36.6954 103.265 35.8594 102.48C35.1247 101.771 34.542 101.023 34.1114 100.238C33.706 99.4527 33.4274 98.49 33.2754 97.35C33.1234 96.21 33.0474 94.7787 33.0474 93.056V81.124C33.0474 80.1867 32.9714 79.5027 32.8194 79.072C32.6674 78.616 32.3634 78.312 31.9074 78.16C31.4767 77.9827 30.8307 77.8813 29.9694 77.856V77.096C30.5014 77.1213 31.198 77.1467 32.0594 77.172C32.9207 77.1973 33.8454 77.21 34.8334 77.21C35.72 77.21 36.594 77.1973 37.4554 77.172C38.342 77.1467 39.0767 77.1213 39.6594 77.096V77.856C38.798 77.8813 38.1394 77.9827 37.6834 78.16C37.2527 78.312 36.9614 78.616 36.8094 79.072C36.6574 79.5027 36.5814 80.1867 36.5814 81.124V93.702C36.5814 94.994 36.6447 96.2227 36.7714 97.388C36.898 98.528 37.1514 99.5413 37.5314 100.428C37.9367 101.289 38.5447 101.973 39.3554 102.48C40.166 102.961 41.2427 103.202 42.5854 103.202C44.5107 103.202 45.9927 102.784 47.0314 101.948C48.0954 101.087 48.83 99.9087 49.2354 98.414C49.666 96.9193 49.8814 95.2347 49.8814 93.36V81.504C49.8814 80.5667 49.7674 79.8447 49.5394 79.338C49.3367 78.8313 48.982 78.464 48.4754 78.236C47.9687 78.008 47.2847 77.8813 46.4234 77.856V77.096C46.8794 77.1213 47.4747 77.1467 48.2094 77.172C48.9694 77.1973 49.666 77.21 50.2994 77.21C50.958 77.21 51.604 77.1973 52.2374 77.172C52.896 77.1467 53.428 77.1213 53.8334 77.096ZM75.4037 77.096C75.3024 77.9827 75.2264 78.844 75.1757 79.68C75.1504 80.516 75.1377 81.1493 75.1377 81.58C75.1377 82.036 75.1504 82.4793 75.1757 82.91C75.201 83.3153 75.2264 83.6573 75.2517 83.936H74.3777C74.2257 82.4413 74.0104 81.2633 73.7317 80.402C73.453 79.5153 72.9717 78.8947 72.2877 78.54C71.629 78.16 70.6284 77.97 69.2857 77.97H66.1317C65.2704 77.97 64.6117 78.046 64.1557 78.198C63.725 78.3247 63.4337 78.616 63.2817 79.072C63.1297 79.5027 63.0537 80.1867 63.0537 81.124V99.972C63.0537 100.884 63.1297 101.568 63.2817 102.024C63.4337 102.48 63.725 102.784 64.1557 102.936C64.6117 103.063 65.2704 103.126 66.1317 103.126H68.9057C70.5017 103.126 71.705 102.911 72.5157 102.48C73.3517 102.049 73.947 101.353 74.3017 100.39C74.6817 99.402 74.9604 98.072 75.1377 96.4H76.0117C75.9357 97.084 75.8977 97.996 75.8977 99.136C75.8977 99.6173 75.9104 100.314 75.9357 101.226C75.9864 102.113 76.0624 103.037 76.1637 104C74.8717 103.949 73.415 103.924 71.7937 103.924C70.1724 103.899 68.7284 103.886 67.4617 103.886C66.9044 103.886 66.1824 103.886 65.2957 103.886C64.4344 103.886 63.497 103.899 62.4837 103.924C61.4704 103.924 60.4444 103.937 59.4057 103.962C58.367 103.962 57.379 103.975 56.4417 104V103.24C57.303 103.189 57.949 103.088 58.3797 102.936C58.8357 102.784 59.1397 102.48 59.2917 102.024C59.4437 101.568 59.5197 100.884 59.5197 99.972V81.124C59.5197 80.1867 59.4437 79.5027 59.2917 79.072C59.1397 78.616 58.8357 78.312 58.3797 78.16C57.949 77.9827 57.303 77.8813 56.4417 77.856V77.096C57.379 77.1213 58.367 77.1467 59.4057 77.172C60.4444 77.172 61.4704 77.1847 62.4837 77.21C63.497 77.21 64.4344 77.21 65.2957 77.21C66.1824 77.21 66.9044 77.21 67.4617 77.21C68.627 77.21 69.9444 77.21 71.4137 77.21C72.9084 77.1847 74.2384 77.1467 75.4037 77.096ZM68.8677 90.092C68.8677 90.092 68.8677 90.2187 68.8677 90.472C68.8677 90.7253 68.8677 90.852 68.8677 90.852H61.9137C61.9137 90.852 61.9137 90.7253 61.9137 90.472C61.9137 90.2187 61.9137 90.092 61.9137 90.092H68.8677ZM69.9697 85.076C69.8684 86.52 69.8177 87.622 69.8177 88.382C69.843 89.142 69.8557 89.8387 69.8557 90.472C69.8557 91.1053 69.8684 91.802 69.8937 92.562C69.919 93.322 69.9824 94.424 70.0837 95.868H69.2097C69.1084 95.0573 68.9817 94.272 68.8297 93.512C68.703 92.7267 68.399 92.0933 67.9177 91.612C67.4617 91.1053 66.6764 90.852 65.5617 90.852V90.092C66.3977 90.092 67.031 89.9273 67.4617 89.598C67.9177 89.2433 68.247 88.8 68.4497 88.268C68.6524 87.736 68.7917 87.1913 68.8677 86.634C68.9437 86.0513 69.0197 85.532 69.0957 85.076H69.9697ZM87.73 76.678C88.9966 76.678 89.9593 76.83 90.618 77.134C91.2766 77.4127 91.8593 77.7293 92.366 78.084C92.67 78.2613 92.9106 78.4007 93.088 78.502C93.2906 78.578 93.4806 78.616 93.658 78.616C93.9113 78.616 94.0886 78.4767 94.19 78.198C94.3166 77.9193 94.418 77.5013 94.494 76.944H95.368C95.3426 77.3747 95.3046 77.894 95.254 78.502C95.2286 79.0847 95.2033 79.87 95.178 80.858C95.178 81.8207 95.178 83.1 95.178 84.696H94.304C94.228 83.48 93.962 82.3147 93.506 81.2C93.05 80.0853 92.3786 79.1733 91.492 78.464C90.6306 77.7547 89.4906 77.4 88.072 77.4C86.7293 77.4 85.6146 77.8053 84.728 78.616C83.8666 79.4267 83.436 80.4907 83.436 81.808C83.436 82.948 83.7273 83.9107 84.31 84.696C84.8926 85.456 85.6653 86.1527 86.628 86.786C87.616 87.394 88.68 88.0527 89.82 88.762C91.1373 89.5727 92.3026 90.3833 93.316 91.194C94.3546 91.9793 95.1653 92.8533 95.748 93.816C96.356 94.7787 96.66 95.944 96.66 97.312C96.66 98.9333 96.2926 100.276 95.558 101.34C94.8233 102.404 93.848 103.202 92.632 103.734C91.416 104.266 90.0733 104.532 88.604 104.532C87.2613 104.532 86.1973 104.38 85.412 104.076C84.6266 103.772 83.9553 103.455 83.398 103.126C82.8406 102.771 82.41 102.594 82.106 102.594C81.8526 102.594 81.6626 102.733 81.536 103.012C81.4346 103.291 81.346 103.709 81.27 104.266H80.396C80.4466 103.734 80.472 103.113 80.472 102.404C80.4973 101.669 80.51 100.719 80.51 99.554C80.5353 98.3887 80.548 96.9193 80.548 95.146H81.422C81.5233 96.666 81.802 98.0847 82.258 99.402C82.7393 100.719 83.4613 101.783 84.424 102.594C85.412 103.379 86.7166 103.772 88.338 103.772C89.174 103.772 89.9593 103.607 90.694 103.278C91.454 102.923 92.0746 102.379 92.556 101.644C93.0373 100.884 93.278 99.9087 93.278 98.718C93.278 97.6793 93.0246 96.78 92.518 96.02C92.0366 95.2347 91.3526 94.5127 90.466 93.854C89.5793 93.17 88.5406 92.4733 87.35 91.764C86.1593 91.0293 85.0446 90.282 84.006 89.522C82.9673 88.762 82.1313 87.888 81.498 86.9C80.89 85.8867 80.586 84.6707 80.586 83.252C80.586 81.7573 80.9153 80.5287 81.574 79.566C82.258 78.578 83.1446 77.856 84.234 77.4C85.3233 76.9187 86.4886 76.678 87.73 76.678ZM121.019 77.096C120.918 78.0587 120.842 78.996 120.791 79.908C120.766 80.7947 120.753 81.4787 120.753 81.96C120.753 82.568 120.766 83.138 120.791 83.67C120.817 84.202 120.842 84.6707 120.867 85.076H119.993C119.816 83.3027 119.575 81.9093 119.271 80.896C118.967 79.8573 118.435 79.11 117.675 78.654C116.915 78.198 115.737 77.97 114.141 77.97H112.089V99.592C112.089 100.605 112.178 101.365 112.355 101.872C112.558 102.379 112.938 102.721 113.495 102.898C114.053 103.075 114.863 103.189 115.927 103.24V104C115.269 103.949 114.433 103.924 113.419 103.924C112.406 103.899 111.38 103.886 110.341 103.886C109.201 103.886 108.125 103.899 107.111 103.924C106.123 103.924 105.325 103.949 104.717 104V103.24C105.781 103.189 106.592 103.075 107.149 102.898C107.707 102.721 108.074 102.379 108.251 101.872C108.454 101.365 108.555 100.605 108.555 99.592V77.97H106.503C104.933 77.97 103.755 78.198 102.969 78.654C102.209 79.11 101.677 79.8573 101.373 80.896C101.069 81.9093 100.829 83.3027 100.651 85.076H99.7774C99.8281 84.6707 99.8534 84.202 99.8534 83.67C99.8788 83.138 99.8914 82.568 99.8914 81.96C99.8914 81.4787 99.8661 80.7947 99.8154 79.908C99.7901 78.996 99.7268 78.0587 99.6254 77.096C100.689 77.1213 101.842 77.1467 103.083 77.172C104.35 77.1973 105.617 77.21 106.883 77.21C108.15 77.21 109.303 77.21 110.341 77.21C111.38 77.21 112.52 77.21 113.761 77.21C115.028 77.21 116.295 77.1973 117.561 77.172C118.828 77.1467 119.981 77.1213 121.019 77.096ZM133.411 77.096V77.856C132.55 77.8813 131.891 77.9827 131.435 78.16C131.004 78.312 130.713 78.616 130.561 79.072C130.409 79.5027 130.333 80.1867 130.333 81.124V99.972C130.333 100.884 130.409 101.568 130.561 102.024C130.713 102.48 131.004 102.784 131.435 102.936C131.891 103.088 132.55 103.189 133.411 103.24V104C132.828 103.949 132.094 103.924 131.207 103.924C130.346 103.899 129.472 103.886 128.585 103.886C127.597 103.886 126.672 103.899 125.811 103.924C124.95 103.924 124.253 103.949 123.721 104V103.24C124.582 103.189 125.228 103.088 125.659 102.936C126.115 102.784 126.419 102.48 126.571 102.024C126.723 101.568 126.799 100.884 126.799 99.972V81.124C126.799 80.1867 126.723 79.5027 126.571 79.072C126.419 78.616 126.115 78.312 125.659 78.16C125.228 77.9827 124.582 77.8813 123.721 77.856V77.096C124.253 77.1213 124.95 77.1467 125.811 77.172C126.672 77.1973 127.597 77.21 128.585 77.21C129.472 77.21 130.346 77.1973 131.207 77.172C132.094 77.1467 132.828 77.1213 133.411 77.096ZM160.589 81.9178C161.32 82.5933 161.686 83.6489 161.686 85.0844C161.686 86.52 161.32 88.1807 160.589 90.0667C159.885 91.9526 158.858 93.8667 157.506 95.8089C156.183 97.723 154.678 99.4963 152.989 101.129C151.3 102.761 149.358 104.099 147.162 105.14C144.995 106.181 142.813 106.702 140.618 106.702C138.703 106.702 137.254 106.125 136.269 104.971C135.312 103.845 134.833 102.297 134.833 100.327C134.833 98.6096 135.185 96.7237 135.889 94.6689C136.62 92.6141 137.662 90.5733 139.013 88.5467C140.392 86.52 141.955 84.6763 143.7 83.0156C145.473 81.3267 147.514 79.9756 149.822 78.9622C152.158 77.9207 154.537 77.4 156.958 77.4C158.224 77.4 159.181 77.6956 159.829 78.2867C160.504 78.8778 160.842 79.6378 160.842 80.5667C160.842 81.017 160.758 81.4674 160.589 81.9178ZM140.66 106.28C142.349 106.28 144.052 105.886 145.769 105.098C147.514 104.31 149.104 103.282 150.54 102.016C151.975 100.749 153.326 99.3133 154.593 97.7089C155.86 96.1044 156.915 94.4859 157.76 92.8533C158.632 91.2207 159.322 89.6585 159.829 88.1667C160.335 86.6467 160.589 85.3378 160.589 84.24C160.589 83.5926 160.49 83.0437 160.293 82.5933C159.758 83.6911 158.872 84.6059 157.633 85.3378C156.395 86.0415 154.931 86.3933 153.242 86.3933C152.088 86.3933 151.103 86.2104 150.286 85.8444C148.766 87.3644 147.514 89.0111 146.529 90.7844C145.543 92.5296 145.051 93.9652 145.051 95.0911C145.051 96.3578 145.614 97.0052 146.74 97.0333C147.472 97.0333 148.161 96.7096 148.809 96.0622C149.456 95.3867 149.822 94.697 149.906 93.9933C149.935 93.9089 149.949 93.8385 149.949 93.7822C149.949 93.5852 149.991 93.5007 150.075 93.5289C150.132 93.5289 150.174 93.557 150.202 93.6133C150.202 93.6978 150.16 93.7822 150.075 93.8667C150.019 93.9511 149.991 93.9933 149.991 93.9933C149.935 94.7533 149.583 95.457 148.935 96.1044C148.288 96.7519 147.556 97.0896 146.74 97.1178H146.698C145.825 97.0896 145.163 96.8222 144.713 96.3156C144.291 95.8089 144.08 95.1052 144.08 94.2044C144.08 92.8815 144.53 91.3615 145.431 89.6444C146.36 87.8993 147.57 86.3511 149.062 85C148.415 84.3526 148.133 83.5081 148.218 82.4667H148.26C148.175 83.5081 148.457 84.3385 149.104 84.9578C150.033 84.1415 151.004 83.4659 152.018 82.9311C154.269 81.7489 156.366 81.1578 158.309 81.1578C159.069 81.1578 159.716 81.3267 160.251 81.6644C160.363 81.2422 160.42 80.8341 160.42 80.44C160.42 79.6237 160.124 78.9481 159.533 78.4133C158.942 77.8785 158.069 77.6111 156.915 77.6111C154.804 77.6111 152.679 78.16 150.54 79.2578C148.429 80.3556 146.543 81.7911 144.882 83.5644C143.249 85.3096 141.772 87.2237 140.449 89.3067C139.154 91.3896 138.155 93.4726 137.451 95.5556C136.775 97.6385 136.438 99.5104 136.438 101.171C136.438 102.747 136.775 103.986 137.451 104.887C138.155 105.816 139.224 106.28 140.66 106.28ZM160.04 82.1711C159.674 81.6363 159.139 81.3689 158.435 81.3689C155.93 81.3689 153.228 82.8326 150.329 85.76C151.06 86.0696 151.933 86.2244 152.946 86.2244C154.663 86.2244 156.155 85.8304 157.422 85.0422C158.689 84.2541 159.561 83.297 160.04 82.1711ZM183.804 77.096V77.856C182.942 77.8813 182.284 78.008 181.828 78.236C181.397 78.464 181.106 78.8313 180.954 79.338C180.802 79.8447 180.726 80.5667 180.726 81.504V104.19C180.574 104.19 180.422 104.19 180.27 104.19C180.143 104.19 180.004 104.19 179.852 104.19L163.892 79.528V99.592C163.892 100.504 163.968 101.226 164.12 101.758C164.297 102.265 164.626 102.632 165.108 102.86C165.614 103.063 166.362 103.189 167.35 103.24V104C166.894 103.949 166.298 103.924 165.564 103.924C164.829 103.899 164.132 103.886 163.474 103.886C162.84 103.886 162.194 103.899 161.536 103.924C160.902 103.924 160.37 103.949 159.94 104V103.24C160.801 103.189 161.447 103.063 161.878 102.86C162.334 102.632 162.638 102.265 162.79 101.758C162.942 101.226 163.018 100.504 163.018 99.592V81.124C163.018 80.1867 162.942 79.5027 162.79 79.072C162.638 78.616 162.334 78.312 161.878 78.16C161.447 77.9827 160.801 77.8813 159.94 77.856V77.096C160.37 77.1213 160.902 77.1467 161.536 77.172C162.194 77.1973 162.84 77.21 163.474 77.21C164.031 77.21 164.563 77.1973 165.07 77.172C165.576 77.1467 166.032 77.1213 166.438 77.096L179.852 97.768V81.504C179.852 80.5667 179.763 79.8447 179.586 79.338C179.434 78.8313 179.104 78.464 178.598 78.236C178.116 78.008 177.382 77.8813 176.394 77.856V77.096C176.85 77.1213 177.445 77.1467 178.18 77.172C178.94 77.1973 179.636 77.21 180.27 77.21C180.928 77.21 181.574 77.1973 182.208 77.172C182.866 77.1467 183.398 77.1213 183.804 77.096ZM194.902 76.678C196.168 76.678 197.131 76.83 197.79 77.134C198.448 77.4127 199.031 77.7293 199.538 78.084C199.842 78.2613 200.082 78.4007 200.26 78.502C200.462 78.578 200.652 78.616 200.83 78.616C201.083 78.616 201.26 78.4767 201.362 78.198C201.488 77.9193 201.59 77.5013 201.666 76.944H202.54C202.514 77.3747 202.476 77.894 202.426 78.502C202.4 79.0847 202.375 79.87 202.35 80.858C202.35 81.8207 202.35 83.1 202.35 84.696H201.476C201.4 83.48 201.134 82.3147 200.678 81.2C200.222 80.0853 199.55 79.1733 198.664 78.464C197.802 77.7547 196.662 77.4 195.244 77.4C193.901 77.4 192.786 77.8053 191.9 78.616C191.038 79.4267 190.608 80.4907 190.608 81.808C190.608 82.948 190.899 83.9107 191.482 84.696C192.064 85.456 192.837 86.1527 193.8 86.786C194.788 87.394 195.852 88.0527 196.992 88.762C198.309 89.5727 199.474 90.3833 200.488 91.194C201.526 91.9793 202.337 92.8533 202.92 93.816C203.528 94.7787 203.832 95.944 203.832 97.312C203.832 98.9333 203.464 100.276 202.73 101.34C201.995 102.404 201.02 103.202 199.804 103.734C198.588 104.266 197.245 104.532 195.776 104.532C194.433 104.532 193.369 104.38 192.584 104.076C191.798 103.772 191.127 103.455 190.57 103.126C190.012 102.771 189.582 102.594 189.278 102.594C189.024 102.594 188.834 102.733 188.708 103.012C188.606 103.291 188.518 103.709 188.442 104.266H187.568C187.618 103.734 187.644 103.113 187.644 102.404C187.669 101.669 187.682 100.719 187.682 99.554C187.707 98.3887 187.72 96.9193 187.72 95.146H188.594C188.695 96.666 188.974 98.0847 189.43 99.402C189.911 100.719 190.633 101.783 191.596 102.594C192.584 103.379 193.888 103.772 195.51 103.772C196.346 103.772 197.131 103.607 197.866 103.278C198.626 102.923 199.246 102.379 199.728 101.644C200.209 100.884 200.45 99.9087 200.45 98.718C200.45 97.6793 200.196 96.78 199.69 96.02C199.208 95.2347 198.524 94.5127 197.638 93.854C196.751 93.17 195.712 92.4733 194.522 91.764C193.331 91.0293 192.216 90.282 191.178 89.522C190.139 88.762 189.303 87.888 188.67 86.9C188.062 85.8867 187.758 84.6707 187.758 83.252C187.758 81.7573 188.087 80.5287 188.746 79.566C189.43 78.578 190.316 77.856 191.406 77.4C192.495 76.9187 193.66 76.678 194.902 76.678Z" fill="#161616"/>
</svg>
