<svg viewBox="0 0 184 112" fill="none" xmlns="http://www.w3.org/2000/svg">
<path d="M16.9877 3.264V4.104C16.0357 4.132 15.3077 4.244 14.8037 4.44C14.3277 4.608 14.0057 4.944 13.8377 5.448C13.6697 5.924 13.5857 6.68 13.5857 7.716V28.548C13.5857 29.556 13.6697 30.312 13.8377 30.816C14.0057 31.32 14.3277 31.656 14.8037 31.824C15.3077 31.964 16.0357 32.034 16.9877 32.034H20.0537C21.8177 32.034 23.1477 31.782 24.0437 31.278C24.9677 30.774 25.6257 29.948 26.0177 28.8C26.4377 27.652 26.7457 26.112 26.9417 24.18H27.9077C27.8237 25.048 27.7817 26.196 27.7817 27.624C27.7817 28.156 27.7957 28.926 27.8237 29.934C27.8797 30.914 27.9637 31.936 28.0757 33C26.6477 32.944 25.0377 32.916 23.2457 32.916C21.4537 32.888 19.8577 32.874 18.4577 32.874C17.6177 32.874 16.4977 32.874 15.0977 32.874C13.7257 32.874 12.2557 32.888 10.6877 32.916C9.11967 32.916 7.64967 32.944 6.27767 33V32.16C7.22967 32.104 7.94367 31.992 8.41967 31.824C8.92367 31.656 9.25967 31.32 9.42767 30.816C9.59567 30.312 9.67967 29.556 9.67967 28.548V7.716C9.67967 6.68 9.59567 5.924 9.42767 5.448C9.25967 4.944 8.92367 4.608 8.41967 4.44C7.94367 4.244 7.22967 4.132 6.27767 4.104V3.264C6.86567 3.292 7.63567 3.32 8.58767 3.348C9.53967 3.376 10.5617 3.39 11.6537 3.39C12.6337 3.39 13.5997 3.376 14.5517 3.348C15.5317 3.32 16.3437 3.292 16.9877 3.264ZM51.9271 3.264C51.8151 4.244 51.7311 5.196 51.6751 6.12C51.6471 7.044 51.6331 7.744 51.6331 8.22C51.6331 8.724 51.6471 9.214 51.6751 9.69C51.7031 10.138 51.7311 10.516 51.7591 10.824H50.7931C50.6251 9.172 50.3871 7.87 50.0791 6.918C49.7711 5.938 49.2391 5.252 48.4831 4.86C47.7551 4.44 46.6491 4.23 45.1651 4.23H41.6791C40.7271 4.23 39.9991 4.314 39.4951 4.482C39.0191 4.622 38.6971 4.944 38.5291 5.448C38.3611 5.924 38.2771 6.68 38.2771 7.716V28.548C38.2771 29.556 38.3611 30.312 38.5291 30.816C38.6971 31.32 39.0191 31.656 39.4951 31.824C39.9991 31.964 40.7271 32.034 41.6791 32.034H44.7451C46.5091 32.034 47.8391 31.796 48.7351 31.32C49.6591 30.844 50.3171 30.074 50.7091 29.01C51.1291 27.918 51.4371 26.448 51.6331 24.6H52.5991C52.5151 25.356 52.4731 26.364 52.4731 27.624C52.4731 28.156 52.4871 28.926 52.5151 29.934C52.5711 30.914 52.6551 31.936 52.7671 33C51.3391 32.944 49.7291 32.916 47.9371 32.916C46.1451 32.888 44.5491 32.874 43.1491 32.874C42.3091 32.874 41.1891 32.874 39.7891 32.874C38.4171 32.874 36.9471 32.888 35.3791 32.916C33.8111 32.916 32.3411 32.944 30.9691 33V32.16C31.9211 32.104 32.6351 31.992 33.1111 31.824C33.6151 31.656 33.9511 31.32 34.1191 30.816C34.2871 30.312 34.3711 29.556 34.3711 28.548V7.716C34.3711 6.68 34.2871 5.924 34.1191 5.448C33.9511 4.944 33.6151 4.608 33.1111 4.44C32.6351 4.244 31.9211 4.132 30.9691 4.104V3.264C32.3411 3.292 33.8111 3.32 35.3791 3.348C36.9471 3.376 38.4171 3.39 39.7891 3.39C41.1891 3.39 42.3091 3.39 43.1491 3.39C44.4371 3.39 45.8931 3.39 47.5171 3.39C49.1691 3.362 50.6391 3.32 51.9271 3.264ZM44.7031 17.628C44.7031 17.628 44.7031 17.768 44.7031 18.048C44.7031 18.328 44.7031 18.468 44.7031 18.468H37.0171C37.0171 18.468 37.0171 18.328 37.0171 18.048C37.0171 17.768 37.0171 17.628 37.0171 17.628H44.7031ZM45.9211 12.084C45.8091 13.68 45.7531 14.898 45.7531 15.738C45.7811 16.578 45.7951 17.348 45.7951 18.048C45.7951 18.748 45.8091 19.518 45.8371 20.358C45.8651 21.198 45.9351 22.416 46.0471 24.012H45.0811C44.9691 23.116 44.8291 22.248 44.6611 21.408C44.5211 20.54 44.1851 19.84 43.6531 19.308C43.1491 18.748 42.2811 18.468 41.0491 18.468V17.628C42.2811 17.628 43.1351 17.306 43.6111 16.662C44.1151 16.018 44.4371 15.262 44.5771 14.394C44.7171 13.526 44.8431 12.756 44.9551 12.084H45.9211ZM70.5908 2.676C72.4108 2.676 73.8808 2.956 75.0008 3.516C76.1208 4.048 77.1708 4.678 78.1508 5.406C78.5148 5.686 78.7948 5.826 78.9908 5.826C79.5228 5.826 79.8728 4.972 80.0408 3.264H81.0068C80.9508 4.3 80.9088 5.56 80.8808 7.044C80.8528 8.528 80.8388 10.488 80.8388 12.924H79.8728C79.6768 11.748 79.4388 10.614 79.1588 9.522C78.8788 8.43 78.4168 7.492 77.7728 6.708C76.9608 5.672 75.8968 4.874 74.5808 4.314C73.2648 3.726 71.9068 3.432 70.5068 3.432C69.1068 3.432 67.8328 3.782 66.6848 4.482C65.5648 5.154 64.5988 6.134 63.7868 7.422C62.9748 8.71 62.3448 10.264 61.8968 12.084C61.4768 13.876 61.2668 15.906 61.2668 18.174C61.2668 23.214 62.0788 26.91 63.7028 29.262C65.3268 31.586 67.8468 32.748 71.2628 32.748C72.2708 32.748 73.1388 32.608 73.8668 32.328C74.6228 32.02 75.2108 31.726 75.6308 31.446C76.1628 31.082 76.4988 30.746 76.6388 30.438C76.7788 30.102 76.8488 29.668 76.8488 29.136V25.104C76.8488 23.956 76.7368 23.102 76.5128 22.542C76.2888 21.982 75.8688 21.604 75.2528 21.408C74.6648 21.212 73.7828 21.1 72.6068 21.072V20.232C73.1108 20.26 73.6988 20.288 74.3708 20.316C75.0428 20.316 75.7428 20.33 76.4708 20.358C77.2268 20.358 77.9128 20.358 78.5288 20.358C79.4528 20.358 80.2788 20.344 81.0068 20.316C81.7628 20.288 82.3928 20.26 82.8968 20.232V21.072C81.9728 21.128 81.3848 21.352 81.1328 21.744C80.8808 22.136 80.7548 23.116 80.7548 24.684V33H79.9148C79.8868 32.524 79.7748 32.006 79.5788 31.446C79.4108 30.886 79.1448 30.606 78.7808 30.606C78.6128 30.606 78.4448 30.648 78.2768 30.732C78.1088 30.816 77.8148 31.012 77.3948 31.32C76.4708 32.02 75.4908 32.58 74.4548 33C73.4188 33.392 72.2148 33.588 70.8428 33.588C66.5028 33.588 63.1148 32.272 60.6788 29.64C58.2708 26.98 57.0668 23.312 57.0668 18.636C57.0668 15.36 57.6548 12.532 58.8308 10.152C60.0068 7.772 61.6028 5.938 63.6188 4.65C65.6628 3.334 67.9868 2.676 70.5908 2.676ZM97.8961 3.054L108.144 29.472C108.564 30.536 109.04 31.25 109.572 31.614C110.104 31.95 110.594 32.132 111.042 32.16V33C110.482 32.944 109.796 32.916 108.984 32.916C108.172 32.888 107.36 32.874 106.548 32.874C105.456 32.874 104.434 32.888 103.482 32.916C102.53 32.916 101.76 32.944 101.172 33V32.16C102.6 32.104 103.51 31.866 103.902 31.446C104.294 30.998 104.21 30.06 103.65 28.632L95.8381 7.758L96.5101 7.212L89.2021 26.196C88.6141 27.708 88.3341 28.898 88.3621 29.766C88.3901 30.606 88.7121 31.208 89.3281 31.572C89.9441 31.936 90.8401 32.132 92.0161 32.16V33C91.2321 32.944 90.4061 32.916 89.5381 32.916C88.6981 32.888 87.9141 32.874 87.1861 32.874C86.4861 32.874 85.8841 32.888 85.3801 32.916C84.9041 32.916 84.4561 32.944 84.0361 33V32.16C84.5961 32.02 85.1701 31.698 85.7581 31.194C86.3461 30.662 86.8781 29.766 87.3541 28.506L97.2241 3.054C97.3361 3.054 97.4481 3.054 97.5601 3.054C97.6721 3.054 97.7841 3.054 97.8961 3.054ZM103.02 20.904V21.744H90.5041L90.9241 20.904H103.02ZM125.957 2.676C127.805 2.676 129.317 2.956 130.493 3.516C131.697 4.048 132.761 4.678 133.685 5.406C134.245 5.826 134.665 5.882 134.945 5.574C135.253 5.238 135.463 4.468 135.575 3.264H136.541C136.485 4.3 136.443 5.56 136.415 7.044C136.387 8.528 136.373 10.488 136.373 12.924H135.407C135.211 11.72 135.029 10.768 134.861 10.068C134.693 9.34 134.483 8.724 134.231 8.22C134.007 7.716 133.699 7.212 133.307 6.708C132.439 5.56 131.347 4.734 130.031 4.23C128.715 3.698 127.329 3.432 125.873 3.432C124.501 3.432 123.255 3.782 122.135 4.482C121.043 5.154 120.091 6.134 119.279 7.422C118.495 8.71 117.879 10.264 117.431 12.084C117.011 13.904 116.801 15.948 116.801 18.216C116.801 20.568 117.039 22.654 117.515 24.474C117.991 26.266 118.649 27.778 119.489 29.01C120.357 30.242 121.365 31.18 122.513 31.824C123.689 32.44 124.949 32.748 126.293 32.748C127.553 32.748 128.869 32.496 130.241 31.992C131.613 31.488 132.691 30.676 133.475 29.556C134.091 28.744 134.511 27.862 134.735 26.91C134.987 25.958 135.211 24.628 135.407 22.92H136.373C136.373 25.468 136.387 27.526 136.415 29.094C136.443 30.634 136.485 31.936 136.541 33H135.575C135.463 31.796 135.267 31.04 134.987 30.732C134.735 30.424 134.301 30.466 133.685 30.858C132.649 31.586 131.543 32.23 130.367 32.79C129.219 33.322 127.735 33.588 125.915 33.588C123.255 33.588 120.917 32.986 118.901 31.782C116.913 30.578 115.359 28.842 114.239 26.574C113.147 24.306 112.601 21.576 112.601 18.384C112.601 15.248 113.175 12.504 114.323 10.152C115.471 7.8 117.039 5.966 119.027 4.65C121.043 3.334 123.353 2.676 125.957 2.676ZM182.551 6.72667C182.8 6.72667 183.002 6.80444 183.158 6.96C183.313 7.11556 183.391 7.31778 183.391 7.56667C183.391 7.94 183.173 8.31333 182.738 8.68667C182.333 9.06 181.82 9.43333 181.198 9.80667C180.607 10.18 180.202 10.4756 179.984 10.6933C178.273 12.9644 175.644 17.2578 172.098 23.5733C168.582 29.8578 165.798 34.4467 163.744 37.34C166.327 38.0244 168.395 39.02 169.951 40.3267C171.507 41.6333 172.284 43.1889 172.284 44.9933C172.284 45.3356 172.238 45.5067 172.144 45.5067C172.051 45.5067 172.004 45.3044 172.004 44.9C172.004 43.22 171.211 41.7889 169.624 40.6067C168.069 39.4244 165.984 38.5222 163.371 37.9C160.54 41.8511 157.615 44.9311 154.598 47.14C151.58 49.38 148.329 50.5 144.844 50.5C142.853 50.5 141.251 50.0333 140.038 49.1C138.855 48.1667 138.264 46.8133 138.264 45.04C138.264 43.2044 139.104 41.6022 140.784 40.2333C142.495 38.8644 144.611 37.8689 147.131 37.2467C149.651 36.6244 152.389 36.3133 155.344 36.3133C157.833 36.3133 160.182 36.5467 162.391 37.0133C164.195 34.8356 165.938 32.4556 167.618 29.8733C169.329 27.2911 171.258 24.1956 173.404 20.5867C175.582 16.9778 176.889 14.8311 177.324 14.1467C175.862 16.0133 174.618 17.6 173.591 18.9067C172.564 20.1822 171.258 21.7067 169.671 23.48C168.115 25.2533 166.747 26.6844 165.564 27.7733C164.382 28.8622 163.138 29.8111 161.831 30.62C160.555 31.3978 159.435 31.7867 158.471 31.7867C158.035 31.7867 157.647 31.6 157.304 31.2267C156.962 30.8533 156.791 30.3711 156.791 29.78C156.791 28.6911 157.102 27.5556 157.724 26.3733C158.347 25.16 159.124 24.04 160.058 23.0133C160.991 21.9867 162.002 20.8667 163.091 19.6533C164.211 18.4089 165.238 17.2111 166.171 16.06C167.104 14.8778 167.882 13.54 168.504 12.0467C169.127 10.5533 169.438 9.06 169.438 7.56667C169.438 3.21111 166.7 1.03333 161.224 1.03333C158.984 1.03333 156.884 1.5 154.924 2.43333C152.995 3.33556 151.409 4.48667 150.164 5.88667C148.92 7.25555 147.94 8.74889 147.224 10.3667C146.54 11.9533 146.198 13.4778 146.198 14.94C146.198 16.5578 146.633 17.8644 147.504 18.86C148.375 19.8556 149.667 20.3533 151.378 20.3533C154.458 20.3533 156.9 19.4978 158.704 17.7867C160.54 16.0756 161.458 14.1467 161.458 12C161.458 10.8178 161.1 9.91555 160.384 9.29333C159.669 8.67111 158.751 8.36 157.631 8.36C156.013 8.36 154.489 8.88889 153.058 9.94667L152.964 9.80667C154.427 8.71778 156.138 8.17333 158.098 8.17333C159.498 8.17333 160.664 8.51556 161.598 9.2C162.562 9.85333 163.044 10.7867 163.044 12C163.044 14.0844 161.893 16.0289 159.591 17.8333C157.289 19.6378 154.551 20.54 151.378 20.54C149.107 20.54 147.364 19.9178 146.151 18.6733C144.938 17.3978 144.331 15.7956 144.331 13.8667C144.331 12.3733 144.689 10.88 145.404 9.38667C146.151 7.89333 147.193 6.50889 148.531 5.23333C149.869 3.92667 151.642 2.86889 153.851 2.06C156.091 1.25111 158.549 0.846666 161.224 0.846666C164.398 0.846666 166.809 1.51556 168.458 2.85333C170.107 4.19111 170.931 5.76222 170.931 7.56667C170.931 9.30889 170.604 11.0511 169.951 12.7933C169.298 14.5356 168.473 16.0911 167.478 17.46C166.513 18.7978 165.455 20.1356 164.304 21.4733C163.184 22.8111 162.142 23.9933 161.178 25.02C160.213 26.0156 159.404 27.0111 158.751 28.0067C158.098 28.9711 157.771 29.8111 157.771 30.5267C157.771 31.2422 158.004 31.6 158.471 31.6C159.155 31.6 159.933 31.3822 160.804 30.9467C161.707 30.5111 162.578 29.9667 163.418 29.3133C164.258 28.66 165.207 27.8044 166.264 26.7467C167.353 25.6578 168.318 24.6467 169.158 23.7133C169.998 22.78 170.978 21.6133 172.098 20.2133C173.249 18.8133 174.167 17.6622 174.851 16.76C175.567 15.8578 176.453 14.7222 177.511 13.3533C178.569 11.9844 179.315 11.02 179.751 10.46C179.875 10.3044 180.062 9.88444 180.311 9.2C180.591 8.51556 180.902 7.94 181.244 7.47333C181.618 6.97556 182.053 6.72667 182.551 6.72667ZM145.171 48.0733C150.522 48.0733 156.122 44.5733 161.971 37.5733C159.793 37.1689 157.475 36.9667 155.018 36.9667C152.218 36.9667 149.604 37.2156 147.178 37.7133C144.782 38.2422 142.791 39.0511 141.204 40.14C139.618 41.2289 138.824 42.52 138.824 44.0133C138.824 44.9156 139.384 45.8178 140.504 46.72C141.655 47.6222 143.211 48.0733 145.171 48.0733ZM0.514977 41.264C1.10298 41.292 1.87298 41.32 2.82498 41.348C3.77698 41.376 4.71498 41.39 5.63898 41.39C6.95498 41.39 8.21498 41.376 9.41898 41.348C10.623 41.32 11.477 41.306 11.981 41.306C14.921 41.306 17.133 41.922 18.617 43.154C20.101 44.386 20.843 45.968 20.843 47.9C20.843 48.88 20.633 49.846 20.213 50.798C19.821 51.722 19.149 52.576 18.197 53.36C17.273 54.116 16.027 54.732 14.459 55.208V55.292C16.671 55.572 18.393 56.104 19.625 56.888C20.885 57.644 21.767 58.54 22.271 59.576C22.775 60.612 23.027 61.704 23.027 62.852C23.027 65.232 22.131 67.192 20.339 68.732C18.575 70.244 16.111 71 12.947 71C12.331 71 11.407 70.986 10.175 70.958C8.94298 70.902 7.45898 70.874 5.72298 70.874C4.74298 70.874 3.77698 70.888 2.82498 70.916C1.87298 70.916 1.10298 70.944 0.514977 71V70.16C1.46698 70.104 2.18098 69.992 2.65698 69.824C3.16098 69.656 3.49698 69.32 3.66498 68.816C3.83298 68.312 3.91698 67.556 3.91698 66.548V45.716C3.91698 44.68 3.83298 43.924 3.66498 43.448C3.49698 42.944 3.16098 42.608 2.65698 42.44C2.18098 42.244 1.46698 42.132 0.514977 42.104V41.264ZM10.931 42.104C9.64298 42.104 8.80298 42.342 8.41098 42.818C8.01898 43.294 7.82298 44.26 7.82298 45.716V66.548C7.82298 68.004 8.01898 68.956 8.41098 69.404C8.83098 69.824 9.68498 70.034 10.973 70.034C13.717 70.034 15.705 69.404 16.937 68.144C18.197 66.856 18.827 65.036 18.827 62.684C18.827 60.528 18.239 58.862 17.063 57.686C15.915 56.51 14.011 55.922 11.351 55.922H7.02498C7.02498 55.922 7.02498 55.81 7.02498 55.586C7.02498 55.334 7.02498 55.208 7.02498 55.208H10.637C12.289 55.208 13.563 54.9 14.459 54.284C15.355 53.64 15.971 52.8 16.307 51.764C16.643 50.7 16.811 49.566 16.811 48.362C16.811 46.29 16.349 44.736 15.425 43.7C14.529 42.636 13.031 42.104 10.931 42.104ZM52.1829 41.264V42.104C51.2309 42.132 50.5029 42.272 49.9989 42.524C49.5229 42.776 49.2009 43.182 49.0329 43.742C48.8649 44.302 48.7809 45.1 48.7809 46.136V58.778C48.7809 60.738 48.6549 62.446 48.4029 63.902C48.1509 65.358 47.7029 66.618 47.0589 67.682C46.3589 68.858 45.3369 69.81 43.9929 70.538C42.6489 71.238 41.1089 71.588 39.3729 71.588C38.0289 71.588 36.7409 71.42 35.5089 71.084C34.3049 70.776 33.2409 70.188 32.3169 69.32C31.5049 68.536 30.8609 67.71 30.3849 66.842C29.9369 65.974 29.6289 64.91 29.4609 63.65C29.2929 62.39 29.2089 60.808 29.2089 58.904V45.716C29.2089 44.68 29.1249 43.924 28.9569 43.448C28.7889 42.944 28.4529 42.608 27.9489 42.44C27.4729 42.244 26.7589 42.132 25.8069 42.104V41.264C26.3949 41.292 27.1649 41.32 28.1169 41.348C29.0689 41.376 30.0909 41.39 31.1829 41.39C32.1629 41.39 33.1289 41.376 34.0809 41.348C35.0609 41.32 35.8729 41.292 36.5169 41.264V42.104C35.5649 42.132 34.8369 42.244 34.3329 42.44C33.8569 42.608 33.5349 42.944 33.3669 43.448C33.1989 43.924 33.1149 44.68 33.1149 45.716V59.618C33.1149 61.522 33.2549 63.272 33.5349 64.868C33.8149 66.464 34.4169 67.738 35.3409 68.69C36.2929 69.642 37.7629 70.118 39.7509 70.118C41.8789 70.118 43.5169 69.656 44.6649 68.732C45.8409 67.78 46.6529 66.478 47.1009 64.826C47.5769 63.174 47.8149 61.312 47.8149 59.24V46.136C47.8149 45.1 47.6889 44.302 47.4369 43.742C47.2129 43.182 46.8209 42.776 46.2609 42.524C45.7009 42.272 44.9449 42.132 43.9929 42.104V41.264C44.4969 41.292 45.1549 41.32 45.9669 41.348C46.8069 41.376 47.5769 41.39 48.2769 41.39C49.0049 41.39 49.7189 41.376 50.4189 41.348C51.1469 41.32 51.7349 41.292 52.1829 41.264ZM65.7758 41.264V42.104C64.8238 42.132 64.0958 42.244 63.5918 42.44C63.1158 42.608 62.7938 42.944 62.6258 43.448C62.4578 43.924 62.3738 44.68 62.3738 45.716V66.548C62.3738 67.556 62.4578 68.312 62.6258 68.816C62.7938 69.32 63.1158 69.656 63.5918 69.824C64.0958 69.992 64.8238 70.104 65.7758 70.16V71C65.1318 70.944 64.3198 70.916 63.3398 70.916C62.3878 70.888 61.4218 70.874 60.4418 70.874C59.3498 70.874 58.3278 70.888 57.3758 70.916C56.4238 70.916 55.6538 70.944 55.0658 71V70.16C56.0178 70.104 56.7318 69.992 57.2078 69.824C57.7118 69.656 58.0478 69.32 58.2158 68.816C58.3838 68.312 58.4678 67.556 58.4678 66.548V45.716C58.4678 44.68 58.3838 43.924 58.2158 43.448C58.0478 42.944 57.7118 42.608 57.2078 42.44C56.7318 42.244 56.0178 42.132 55.0658 42.104V41.264C55.6538 41.292 56.4238 41.32 57.3758 41.348C58.3278 41.376 59.3498 41.39 60.4418 41.39C61.4218 41.39 62.3878 41.376 63.3398 41.348C64.3198 41.32 65.1318 41.292 65.7758 41.264ZM80.0082 41.264V42.104C79.0562 42.132 78.3282 42.244 77.8242 42.44C77.3482 42.608 77.0262 42.944 76.8582 43.448C76.6902 43.924 76.6062 44.68 76.6062 45.716V66.548C76.6062 67.556 76.6902 68.312 76.8582 68.816C77.0262 69.32 77.3482 69.656 77.8242 69.824C78.3282 69.964 79.0562 70.034 80.0082 70.034H83.0742C84.8382 70.034 86.1682 69.782 87.0642 69.278C87.9882 68.774 88.6462 67.948 89.0382 66.8C89.4582 65.652 89.7662 64.112 89.9622 62.18H90.9282C90.8442 63.048 90.8022 64.196 90.8022 65.624C90.8022 66.156 90.8162 66.926 90.8442 67.934C90.9002 68.914 90.9842 69.936 91.0962 71C89.6682 70.944 88.0582 70.916 86.2662 70.916C84.4742 70.888 82.8782 70.874 81.4782 70.874C80.6382 70.874 79.5182 70.874 78.1182 70.874C76.7462 70.874 75.2762 70.888 73.7082 70.916C72.1402 70.916 70.6702 70.944 69.2982 71V70.16C70.2502 70.104 70.9642 69.992 71.4402 69.824C71.9442 69.656 72.2802 69.32 72.4482 68.816C72.6162 68.312 72.7002 67.556 72.7002 66.548V45.716C72.7002 44.68 72.6162 43.924 72.4482 43.448C72.2802 42.944 71.9442 42.608 71.4402 42.44C70.9642 42.244 70.2502 42.132 69.2982 42.104V41.264C69.8862 41.292 70.6562 41.32 71.6082 41.348C72.5602 41.376 73.5822 41.39 74.6742 41.39C75.6542 41.39 76.6202 41.376 77.5722 41.348C78.5522 41.32 79.3642 41.292 80.0082 41.264ZM114.136 41.264C114.024 42.328 113.94 43.364 113.884 44.372C113.856 45.352 113.842 46.108 113.842 46.64C113.842 47.312 113.856 47.942 113.884 48.53C113.912 49.118 113.94 49.636 113.968 50.084H113.002C112.806 48.124 112.54 46.584 112.204 45.464C111.868 44.316 111.28 43.49 110.44 42.986C109.6 42.482 108.298 42.23 106.534 42.23H104.266V66.128C104.266 67.248 104.364 68.088 104.56 68.648C104.784 69.208 105.204 69.586 105.82 69.782C106.436 69.978 107.332 70.104 108.508 70.16V71C107.78 70.944 106.856 70.916 105.736 70.916C104.616 70.888 103.482 70.874 102.334 70.874C101.074 70.874 99.8845 70.888 98.7645 70.916C97.6725 70.916 96.7905 70.944 96.1185 71V70.16C97.2945 70.104 98.1905 69.978 98.8065 69.782C99.4225 69.586 99.8285 69.208 100.024 68.648C100.248 68.088 100.36 67.248 100.36 66.128V42.23H98.0925C96.3565 42.23 95.0545 42.482 94.1865 42.986C93.3465 43.49 92.7585 44.316 92.4225 45.464C92.0865 46.584 91.8205 48.124 91.6245 50.084H90.6585C90.7145 49.636 90.7425 49.118 90.7425 48.53C90.7705 47.942 90.7845 47.312 90.7845 46.64C90.7845 46.108 90.7565 45.352 90.7005 44.372C90.6725 43.364 90.6025 42.328 90.4905 41.264C91.6665 41.292 92.9405 41.32 94.3125 41.348C95.7125 41.376 97.1125 41.39 98.5125 41.39C99.9125 41.39 101.186 41.39 102.334 41.39C103.482 41.39 104.742 41.39 106.114 41.39C107.514 41.39 108.914 41.376 110.314 41.348C111.714 41.32 112.988 41.292 114.136 41.264ZM140.374 40.676C143.034 40.676 145.358 41.278 147.346 42.482C149.362 43.686 150.916 45.422 152.008 47.69C153.128 49.93 153.688 52.66 153.688 55.88C153.688 59.016 153.114 61.76 151.966 64.112C150.846 66.464 149.278 68.298 147.262 69.614C145.246 70.93 142.936 71.588 140.332 71.588C137.672 71.588 135.334 70.986 133.318 69.782C131.33 68.578 129.776 66.842 128.656 64.574C127.564 62.306 127.018 59.576 127.018 56.384C127.018 53.248 127.592 50.504 128.74 48.152C129.888 45.8 131.456 43.966 133.444 42.65C135.46 41.334 137.77 40.676 140.374 40.676ZM140.206 41.432C138.386 41.432 136.804 42.062 135.46 43.322C134.116 44.582 133.066 46.318 132.31 48.53C131.582 50.742 131.218 53.304 131.218 56.216C131.218 59.184 131.624 61.774 132.436 63.986C133.276 66.17 134.396 67.864 135.796 69.068C137.224 70.244 138.792 70.832 140.5 70.832C142.32 70.832 143.902 70.202 145.246 68.942C146.59 67.682 147.626 65.946 148.354 63.734C149.11 61.494 149.488 58.932 149.488 56.048C149.488 53.052 149.068 50.462 148.228 48.278C147.416 46.094 146.31 44.414 144.91 43.238C143.51 42.034 141.942 41.432 140.206 41.432ZM183.735 41.264V42.104C182.783 42.132 182.055 42.272 181.551 42.524C181.075 42.776 180.753 43.182 180.585 43.742C180.417 44.302 180.333 45.1 180.333 46.136V71.21C180.165 71.21 179.997 71.21 179.829 71.21C179.689 71.21 179.535 71.21 179.367 71.21L161.727 43.952V66.128C161.727 67.136 161.811 67.934 161.979 68.522C162.175 69.082 162.539 69.488 163.071 69.74C163.631 69.964 164.457 70.104 165.549 70.16V71C165.045 70.944 164.387 70.916 163.575 70.916C162.763 70.888 161.993 70.874 161.265 70.874C160.565 70.874 159.851 70.888 159.123 70.916C158.423 70.916 157.835 70.944 157.359 71V70.16C158.311 70.104 159.025 69.964 159.501 69.74C160.005 69.488 160.341 69.082 160.509 68.522C160.677 67.934 160.761 67.136 160.761 66.128V45.716C160.761 44.68 160.677 43.924 160.509 43.448C160.341 42.944 160.005 42.608 159.501 42.44C159.025 42.244 158.311 42.132 157.359 42.104V41.264C157.835 41.292 158.423 41.32 159.123 41.348C159.851 41.376 160.565 41.39 161.265 41.39C161.881 41.39 162.469 41.376 163.029 41.348C163.589 41.32 164.093 41.292 164.541 41.264L179.367 64.112V46.136C179.367 45.1 179.269 44.302 179.073 43.742C178.905 43.182 178.541 42.776 177.981 42.524C177.449 42.272 176.637 42.132 175.545 42.104V41.264C176.049 41.292 176.707 41.32 177.519 41.348C178.359 41.376 179.129 41.39 179.829 41.39C180.557 41.39 181.271 41.376 181.971 41.348C182.699 41.32 183.287 41.292 183.735 41.264ZM11.5892 79.264C12.1772 79.292 12.9472 79.32 13.8992 79.348C14.8512 79.376 15.7892 79.39 16.7132 79.39C18.0292 79.39 19.2892 79.376 20.4932 79.348C21.6972 79.32 22.5512 79.306 23.0552 79.306C26.4432 79.306 28.9772 80.076 30.6572 81.616C32.3372 83.156 33.1772 85.144 33.1772 87.58C33.1772 88.588 33.0092 89.652 32.6732 90.772C32.3372 91.864 31.7492 92.886 30.9092 93.838C30.0972 94.762 28.9772 95.518 27.5492 96.106C26.1212 96.694 24.3152 96.988 22.1312 96.988H18.0992V96.148H21.7112C23.6992 96.148 25.2112 95.77 26.2472 95.014C27.3112 94.258 28.0252 93.264 28.3892 92.032C28.7812 90.8 28.9772 89.47 28.9772 88.042C28.9772 85.382 28.4452 83.394 27.3812 82.078C26.3452 80.762 24.5532 80.104 22.0052 80.104C20.7172 80.104 19.8772 80.342 19.4852 80.818C19.0932 81.294 18.8972 82.26 18.8972 83.716V104.548C18.8972 105.556 18.9952 106.312 19.1912 106.816C19.4152 107.32 19.8352 107.656 20.4512 107.824C21.0672 107.992 21.9632 108.104 23.1392 108.16V109C22.4112 108.944 21.4872 108.916 20.3672 108.916C19.2472 108.888 18.1132 108.874 16.9652 108.874C15.8732 108.874 14.8512 108.888 13.8992 108.916C12.9472 108.916 12.1772 108.944 11.5892 109V108.16C12.5412 108.104 13.2552 107.992 13.7312 107.824C14.2352 107.656 14.5712 107.32 14.7392 106.816C14.9072 106.312 14.9912 105.556 14.9912 104.548V83.716C14.9912 82.68 14.9072 81.924 14.7392 81.448C14.5712 80.944 14.2352 80.608 13.7312 80.44C13.2552 80.244 12.5412 80.132 11.5892 80.104V79.264ZM46.2369 79.054L56.4849 105.472C56.9049 106.536 57.3809 107.25 57.9129 107.614C58.4449 107.95 58.9349 108.132 59.3829 108.16V109C58.8229 108.944 58.1369 108.916 57.3249 108.916C56.5129 108.888 55.7009 108.874 54.8889 108.874C53.7969 108.874 52.7749 108.888 51.8229 108.916C50.8709 108.916 50.1009 108.944 49.5129 109V108.16C50.9409 108.104 51.8509 107.866 52.2429 107.446C52.6349 106.998 52.5509 106.06 51.9909 104.632L44.1789 83.758L44.8509 83.212L37.5429 102.196C36.9549 103.708 36.6749 104.898 36.7029 105.766C36.7309 106.606 37.0529 107.208 37.6689 107.572C38.2849 107.936 39.1809 108.132 40.3569 108.16V109C39.5729 108.944 38.7469 108.916 37.8789 108.916C37.0389 108.888 36.2549 108.874 35.5269 108.874C34.8269 108.874 34.2249 108.888 33.7209 108.916C33.2449 108.916 32.7969 108.944 32.3769 109V108.16C32.9369 108.02 33.5109 107.698 34.0989 107.194C34.6869 106.662 35.2189 105.766 35.6949 104.506L45.5649 79.054C45.6769 79.054 45.7889 79.054 45.9009 79.054C46.0129 79.054 46.1249 79.054 46.2369 79.054ZM51.3609 96.904V97.744H38.8449L39.2649 96.904H51.3609ZM69.878 78.802C71.278 78.802 72.342 78.97 73.07 79.306C73.798 79.614 74.442 79.964 75.002 80.356C75.338 80.552 75.604 80.706 75.8 80.818C76.024 80.902 76.234 80.944 76.43 80.944C76.878 80.944 77.186 80.328 77.354 79.096H78.32C78.292 79.572 78.25 80.146 78.194 80.818C78.166 81.462 78.138 82.33 78.11 83.422C78.11 84.486 78.11 85.9 78.11 87.664H77.144C77.06 86.32 76.766 85.032 76.262 83.8C75.758 82.568 75.016 81.56 74.036 80.776C73.084 79.992 71.824 79.6 70.256 79.6C68.772 79.6 67.54 80.048 66.56 80.944C65.608 81.84 65.132 83.016 65.132 84.472C65.132 85.732 65.454 86.796 66.098 87.664C66.742 88.504 67.596 89.274 68.66 89.974C69.752 90.646 70.928 91.374 72.188 92.158C73.644 93.054 74.932 93.95 76.052 94.846C77.2 95.714 78.096 96.68 78.74 97.744C79.412 98.808 79.748 100.096 79.748 101.608C79.748 103.4 79.342 104.884 78.53 106.06C77.718 107.236 76.64 108.118 75.296 108.706C73.952 109.294 72.468 109.588 70.844 109.588C69.36 109.588 68.184 109.42 67.316 109.084C66.448 108.748 65.706 108.398 65.09 108.034C64.474 107.642 63.998 107.446 63.662 107.446C63.214 107.446 62.906 108.062 62.738 109.294H61.772C61.828 108.706 61.856 108.02 61.856 107.236C61.884 106.424 61.898 105.374 61.898 104.086C61.926 102.798 61.94 101.174 61.94 99.214H62.906C63.018 100.894 63.326 102.462 63.83 103.918C64.362 105.374 65.16 106.55 66.224 107.446C67.316 108.314 68.758 108.748 70.55 108.748C71.922 108.748 73.168 108.314 74.288 107.446C75.436 106.55 76.01 105.122 76.01 103.162C76.01 101.454 75.408 100.04 74.204 98.92C73 97.8 71.418 96.652 69.458 95.476C68.142 94.664 66.91 93.838 65.762 92.998C64.614 92.158 63.69 91.192 62.99 90.1C62.318 88.98 61.982 87.636 61.982 86.068C61.982 84.416 62.346 83.058 63.074 81.994C63.83 80.902 64.81 80.104 66.014 79.6C67.218 79.068 68.506 78.802 69.878 78.802ZM92.5596 78.802C93.9596 78.802 95.0236 78.97 95.7516 79.306C96.4796 79.614 97.1236 79.964 97.6836 80.356C98.0196 80.552 98.2856 80.706 98.4816 80.818C98.7056 80.902 98.9156 80.944 99.1116 80.944C99.5596 80.944 99.8676 80.328 100.036 79.096H101.002C100.974 79.572 100.932 80.146 100.876 80.818C100.848 81.462 100.82 82.33 100.792 83.422C100.792 84.486 100.792 85.9 100.792 87.664H99.8256C99.7416 86.32 99.4476 85.032 98.9436 83.8C98.4396 82.568 97.6976 81.56 96.7176 80.776C95.7656 79.992 94.5056 79.6 92.9376 79.6C91.4536 79.6 90.2216 80.048 89.2416 80.944C88.2896 81.84 87.8136 83.016 87.8136 84.472C87.8136 85.732 88.1356 86.796 88.7796 87.664C89.4236 88.504 90.2776 89.274 91.3416 89.974C92.4336 90.646 93.6096 91.374 94.8696 92.158C96.3256 93.054 97.6136 93.95 98.7336 94.846C99.8816 95.714 100.778 96.68 101.422 97.744C102.094 98.808 102.43 100.096 102.43 101.608C102.43 103.4 102.024 104.884 101.212 106.06C100.4 107.236 99.3216 108.118 97.9776 108.706C96.6336 109.294 95.1496 109.588 93.5256 109.588C92.0416 109.588 90.8656 109.42 89.9976 109.084C89.1296 108.748 88.3876 108.398 87.7716 108.034C87.1556 107.642 86.6796 107.446 86.3436 107.446C85.8956 107.446 85.5876 108.062 85.4196 109.294H84.4536C84.5096 108.706 84.5376 108.02 84.5376 107.236C84.5656 106.424 84.5796 105.374 84.5796 104.086C84.6076 102.798 84.6216 101.174 84.6216 99.214H85.5876C85.6996 100.894 86.0076 102.462 86.5116 103.918C87.0436 105.374 87.8416 106.55 88.9056 107.446C89.9976 108.314 91.4396 108.748 93.2316 108.748C94.6036 108.748 95.8496 108.314 96.9696 107.446C98.1176 106.55 98.6916 105.122 98.6916 103.162C98.6916 101.454 98.0896 100.04 96.8856 98.92C95.6816 97.8 94.0996 96.652 92.1396 95.476C90.8236 94.664 89.5916 93.838 88.4436 92.998C87.2956 92.158 86.3716 91.192 85.6716 90.1C84.9996 88.98 84.6636 87.636 84.6636 86.068C84.6636 84.416 85.0276 83.058 85.7556 81.994C86.5116 80.902 87.4916 80.104 88.6956 79.6C89.8996 79.068 91.1876 78.802 92.5596 78.802ZM116.963 79.264V80.104C116.011 80.132 115.283 80.244 114.779 80.44C114.303 80.608 113.981 80.944 113.813 81.448C113.645 81.924 113.561 82.68 113.561 83.716V104.548C113.561 105.556 113.645 106.312 113.813 106.816C113.981 107.32 114.303 107.656 114.779 107.824C115.283 107.992 116.011 108.104 116.963 108.16V109C116.319 108.944 115.507 108.916 114.527 108.916C113.575 108.888 112.609 108.874 111.629 108.874C110.537 108.874 109.515 108.888 108.563 108.916C107.611 108.916 106.841 108.944 106.253 109V108.16C107.205 108.104 107.919 107.992 108.395 107.824C108.899 107.656 109.235 107.32 109.403 106.816C109.571 106.312 109.655 105.556 109.655 104.548V83.716C109.655 82.68 109.571 81.924 109.403 81.448C109.235 80.944 108.899 80.608 108.395 80.44C107.919 80.244 107.205 80.132 106.253 80.104V79.264C106.841 79.292 107.611 79.32 108.563 79.348C109.515 79.376 110.537 79.39 111.629 79.39C112.609 79.39 113.575 79.376 114.527 79.348C115.507 79.32 116.319 79.292 116.963 79.264ZM147.002 84.5933C147.811 85.34 148.215 86.5067 148.215 88.0933C148.215 89.68 147.811 91.5156 147.002 93.6C146.224 95.6844 145.088 97.8 143.595 99.9467C142.133 102.062 140.468 104.022 138.602 105.827C136.735 107.631 134.588 109.109 132.162 110.26C129.766 111.411 127.355 111.987 124.928 111.987C122.813 111.987 121.211 111.349 120.122 110.073C119.064 108.829 118.535 107.118 118.535 104.94C118.535 103.042 118.924 100.958 119.702 98.6867C120.511 96.4156 121.662 94.16 123.155 91.92C124.679 89.68 126.406 87.6422 128.335 85.8067C130.295 83.94 132.551 82.4467 135.102 81.3267C137.684 80.1756 140.313 79.6 142.988 79.6C144.388 79.6 145.446 79.9267 146.162 80.58C146.908 81.2333 147.282 82.0733 147.282 83.1C147.282 83.5978 147.188 84.0956 147.002 84.5933ZM124.975 111.52C126.842 111.52 128.724 111.084 130.622 110.213C132.551 109.342 134.308 108.207 135.895 106.807C137.482 105.407 138.975 103.82 140.375 102.047C141.775 100.273 142.942 98.4844 143.875 96.68C144.839 94.8756 145.602 93.1489 146.162 91.5C146.722 89.82 147.002 88.3733 147.002 87.16C147.002 86.4444 146.893 85.8378 146.675 85.34C146.084 86.5533 145.104 87.5644 143.735 88.3733C142.366 89.1511 140.748 89.54 138.882 89.54C137.606 89.54 136.517 89.3378 135.615 88.9333C133.935 90.6133 132.551 92.4333 131.462 94.3933C130.373 96.3222 129.828 97.9089 129.828 99.1533C129.828 100.553 130.451 101.269 131.695 101.3C132.504 101.3 133.266 100.942 133.982 100.227C134.697 99.48 135.102 98.7178 135.195 97.94C135.226 97.8467 135.242 97.7689 135.242 97.7067C135.242 97.4889 135.288 97.3956 135.382 97.4267C135.444 97.4267 135.491 97.4578 135.522 97.52C135.522 97.6133 135.475 97.7067 135.382 97.8C135.319 97.8933 135.288 97.94 135.288 97.94C135.226 98.78 134.837 99.5578 134.122 100.273C133.406 100.989 132.597 101.362 131.695 101.393H131.648C130.684 101.362 129.953 101.067 129.455 100.507C128.988 99.9467 128.755 99.1689 128.755 98.1733C128.755 96.7111 129.253 95.0311 130.248 93.1333C131.275 91.2044 132.613 89.4933 134.262 88C133.546 87.2844 133.235 86.3511 133.328 85.2H133.375C133.282 86.3511 133.593 87.2689 134.308 87.9533C135.335 87.0511 136.408 86.3044 137.528 85.7133C140.017 84.4067 142.335 83.7533 144.482 83.7533C145.322 83.7533 146.037 83.94 146.628 84.3133C146.753 83.8467 146.815 83.3956 146.815 82.96C146.815 82.0578 146.488 81.3111 145.835 80.72C145.182 80.1289 144.217 79.8333 142.942 79.8333C140.608 79.8333 138.259 80.44 135.895 81.6533C133.562 82.8667 131.477 84.4533 129.642 86.4133C127.837 88.3422 126.204 90.4578 124.742 92.76C123.311 95.0622 122.206 97.3644 121.428 99.6667C120.682 101.969 120.308 104.038 120.308 105.873C120.308 107.616 120.682 108.984 121.428 109.98C122.206 111.007 123.388 111.52 124.975 111.52ZM146.395 84.8733C145.991 84.2822 145.399 83.9867 144.622 83.9867C141.853 83.9867 138.866 85.6044 135.662 88.84C136.471 89.1822 137.435 89.3533 138.555 89.3533C140.453 89.3533 142.102 88.9178 143.502 88.0467C144.902 87.1756 145.866 86.1178 146.395 84.8733ZM172.661 79.264V80.104C171.709 80.132 170.981 80.272 170.477 80.524C170.001 80.776 169.679 81.182 169.511 81.742C169.343 82.302 169.259 83.1 169.259 84.136V109.21C169.091 109.21 168.923 109.21 168.755 109.21C168.615 109.21 168.461 109.21 168.293 109.21L150.653 81.952V104.128C150.653 105.136 150.737 105.934 150.905 106.522C151.101 107.082 151.465 107.488 151.997 107.74C152.557 107.964 153.383 108.104 154.475 108.16V109C153.971 108.944 153.313 108.916 152.501 108.916C151.689 108.888 150.919 108.874 150.191 108.874C149.491 108.874 148.777 108.888 148.049 108.916C147.349 108.916 146.761 108.944 146.285 109V108.16C147.237 108.104 147.951 107.964 148.427 107.74C148.931 107.488 149.267 107.082 149.435 106.522C149.603 105.934 149.687 105.136 149.687 104.128V83.716C149.687 82.68 149.603 81.924 149.435 81.448C149.267 80.944 148.931 80.608 148.427 80.44C147.951 80.244 147.237 80.132 146.285 80.104V79.264C146.761 79.292 147.349 79.32 148.049 79.348C148.777 79.376 149.491 79.39 150.191 79.39C150.807 79.39 151.395 79.376 151.955 79.348C152.515 79.32 153.019 79.292 153.467 79.264L168.293 102.112V84.136C168.293 83.1 168.195 82.302 167.999 81.742C167.831 81.182 167.467 80.776 166.907 80.524C166.375 80.272 165.563 80.132 164.471 80.104V79.264C164.975 79.292 165.633 79.32 166.445 79.348C167.285 79.376 168.055 79.39 168.755 79.39C169.483 79.39 170.197 79.376 170.897 79.348C171.625 79.32 172.213 79.292 172.661 79.264Z" fill="#A77E3D"/>
</svg>
