<svg viewBox="0 0 279 71" fill="none" xmlns="http://www.w3.org/2000/svg">
<path d="M43.4489 3.52667C43.4489 3.80815 43.3081 3.94889 43.0267 3.94889C42.8015 3.94889 42.5763 3.85037 42.3511 3.65333C42.1541 3.42815 42.0415 3.14667 42.0133 2.80889C41.9007 2.80889 41.7741 2.80889 41.6333 2.80889C39.9444 2.80889 37.8756 4.01926 35.4267 6.44C36.7496 8.18519 37.4111 10.3385 37.4111 12.9C37.4111 14.5607 37.0874 16.2778 36.44 18.0511C35.8207 19.7963 34.9059 21.4711 33.6956 23.0756C32.5133 24.6519 31.12 26.0733 29.5156 27.34C27.9393 28.5785 26.0956 29.5778 23.9844 30.3378C21.9015 31.0978 19.7341 31.4778 17.4822 31.4778C15.5119 31.4778 12.5 31.2526 8.44667 30.8022C6.58889 31.2526 4.61852 31.4778 2.53556 31.4778C1.83185 31.4778 1.29704 31.3793 0.931111 31.1822C0.565185 31.0133 0.382222 30.8022 0.382222 30.5489C0.382222 30.2393 0.607407 29.9578 1.05778 29.7044C1.48 29.4511 2.01481 29.3244 2.66222 29.3244C3.84444 29.3244 5.91333 29.62 8.86889 30.2111C11.74 29.1415 14.5407 27.3259 17.2711 24.7644C20.0015 22.203 23.1541 18.6704 26.7289 14.1667C29.2904 10.8733 31.8096 8.22741 34.2867 6.22889C32.7104 3.94889 30.2193 2.80889 26.8133 2.80889C26.5037 2.80889 26.1659 2.80889 25.8 2.80889C25.9126 3.28741 25.9689 3.80815 25.9689 4.37111C25.9689 6.53852 25.2793 9.07185 23.9 11.9711C22.5207 14.8704 20.7756 17.3474 18.6644 19.4022C18.9459 19.5993 19.2556 19.7822 19.5933 19.9511L19.5511 20.0356C19.2133 19.8667 18.8896 19.6696 18.58 19.4444C15.8496 22.0341 13.063 23.3289 10.22 23.3289C8.98148 23.3289 7.96815 22.9348 7.18 22.1467C6.42 21.3304 6.04 20.2889 6.04 19.0222C6.04 15.9259 7.02519 13.1393 8.99556 10.6622C10.9941 8.18518 13.5556 6.22889 16.68 4.79333C18.0593 2.14741 19.9874 0.697777 22.4644 0.444444C24.1815 0.275555 25.2793 0.979258 25.7578 2.55555C25.9548 2.55555 26.1659 2.55555 26.3911 2.55555C30.1067 2.55555 32.9356 3.62518 34.8778 5.76444C37.6081 3.68148 39.86 2.64 41.6333 2.64C42.8437 2.64 43.4489 2.93555 43.4489 3.52667ZM22.8444 0.739998C20.7333 0.965184 18.9741 2.18963 17.5667 4.41333C20.2126 3.28741 22.8726 2.66815 25.5467 2.55555C25.1526 1.17629 24.2519 0.57111 22.8444 0.739998ZM25.7578 4.16C25.7578 3.68148 25.7156 3.24518 25.6311 2.85111C22.6193 3.0763 19.6778 4.04741 16.8067 5.76444C15.8778 7.67852 15.4133 9.71926 15.4133 11.8867C15.4133 15.2081 16.4267 17.657 18.4533 19.2333C20.5644 17.1785 22.3096 14.6874 23.6889 11.76C25.0681 8.80444 25.7578 6.27111 25.7578 4.16ZM10.22 23.16C12.9785 23.16 15.6948 21.8793 18.3689 19.3178C17.2993 18.5015 16.483 17.3896 15.92 15.9822C15.3852 14.5467 15.1178 12.9844 15.1178 11.2956C15.1178 9.52222 15.4133 7.83333 16.0044 6.22889C13.5274 7.83333 11.5148 9.83185 9.96667 12.2244C8.44667 14.5889 7.68667 17.1644 7.68667 19.9511C7.68667 20.88 7.89778 21.6541 8.32 22.2733C8.74222 22.8644 9.37556 23.16 10.22 23.16ZM17.5244 31.3089C19.523 31.3089 21.4793 30.9148 23.3933 30.1267C25.3356 29.3385 27.0385 28.283 28.5022 26.96C29.9941 25.637 31.303 24.1593 32.4289 22.5267C33.5548 20.8659 34.4133 19.1489 35.0044 17.3756C35.6237 15.5741 35.9333 13.843 35.9333 12.1822C35.9333 10.2119 35.5533 8.50889 34.7933 7.07333C33.8081 8.08667 32.837 9.21259 31.88 10.4511C30.1067 12.8156 28.6148 14.7578 27.4044 16.2778C26.1941 17.7978 24.8148 19.4163 23.2667 21.1333C21.7185 22.8222 20.297 24.2015 19.0022 25.2711C17.7356 26.3407 16.3141 27.34 14.7378 28.2689C13.1896 29.1978 11.5993 29.9156 9.96667 30.4222C13.0911 31.0133 15.6104 31.3089 17.5244 31.3089ZM2.57778 31.3089C4.18222 31.3089 5.74444 31.0978 7.26444 30.6756C4.64667 30.4222 2.77481 30.2956 1.64889 30.2956C0.973333 30.2956 0.635555 30.4363 0.635555 30.7178C0.635555 30.8022 0.705926 30.8867 0.846667 30.9711C0.959259 31.0556 1.17037 31.1259 1.48 31.1822C1.78963 31.2667 2.15556 31.3089 2.57778 31.3089ZM47.3876 3.096V3.856C46.5262 3.88133 45.8676 3.98267 45.4116 4.16C44.9809 4.312 44.6896 4.616 44.5376 5.072C44.3856 5.50266 44.3096 6.18666 44.3096 7.124V25.972C44.3096 26.884 44.3856 27.568 44.5376 28.024C44.6896 28.48 44.9809 28.784 45.4116 28.936C45.8676 29.088 46.5262 29.1893 47.3876 29.24V30C46.8049 29.9493 46.0702 29.924 45.1836 29.924C44.3222 29.8987 43.4482 29.886 42.5616 29.886C41.5736 29.886 40.6489 29.8987 39.7876 29.924C38.9262 29.924 38.2296 29.9493 37.6976 30V29.24C38.5589 29.1893 39.2049 29.088 39.6356 28.936C40.0916 28.784 40.3956 28.48 40.5476 28.024C40.6996 27.568 40.7756 26.884 40.7756 25.972V7.124C40.7756 6.18666 40.6996 5.50266 40.5476 5.072C40.3956 4.616 40.0916 4.312 39.6356 4.16C39.2049 3.98267 38.5589 3.88133 37.6976 3.856V3.096C38.2296 3.12133 38.9262 3.14667 39.7876 3.172C40.6489 3.19733 41.5736 3.21 42.5616 3.21C43.4482 3.21 44.3222 3.19733 45.1836 3.172C46.0702 3.14667 46.8049 3.12133 47.3876 3.096ZM58.7065 2.678C59.9732 2.678 60.9358 2.83 61.5945 3.134C62.2532 3.41267 62.8358 3.72933 63.3425 4.084C63.6465 4.26133 63.8872 4.40067 64.0645 4.502C64.2672 4.578 64.4572 4.616 64.6345 4.616C64.8878 4.616 65.0652 4.47667 65.1665 4.198C65.2932 3.91933 65.3945 3.50133 65.4705 2.944H66.3445C66.3192 3.37467 66.2812 3.894 66.2305 4.502C66.2052 5.08467 66.1798 5.87 66.1545 6.858C66.1545 7.82067 66.1545 9.1 66.1545 10.696H65.2805C65.2045 9.48 64.9385 8.31466 64.4825 7.2C64.0265 6.08533 63.3552 5.17333 62.4685 4.464C61.6072 3.75466 60.4672 3.4 59.0485 3.4C57.7058 3.4 56.5912 3.80533 55.7045 4.616C54.8432 5.42667 54.4125 6.49067 54.4125 7.808C54.4125 8.948 54.7038 9.91067 55.2865 10.696C55.8692 11.456 56.6418 12.1527 57.6045 12.786C58.5925 13.394 59.6565 14.0527 60.7965 14.762C62.1138 15.5727 63.2792 16.3833 64.2925 17.194C65.3312 17.9793 66.1418 18.8533 66.7245 19.816C67.3325 20.7787 67.6365 21.944 67.6365 23.312C67.6365 24.9333 67.2692 26.276 66.5345 27.34C65.7998 28.404 64.8245 29.202 63.6085 29.734C62.3925 30.266 61.0498 30.532 59.5805 30.532C58.2378 30.532 57.1738 30.38 56.3885 30.076C55.6032 29.772 54.9318 29.4553 54.3745 29.126C53.8172 28.7713 53.3865 28.594 53.0825 28.594C52.8292 28.594 52.6392 28.7333 52.5125 29.012C52.4112 29.2907 52.3225 29.7087 52.2465 30.266H51.3725C51.4232 29.734 51.4485 29.1133 51.4485 28.404C51.4738 27.6693 51.4865 26.7193 51.4865 25.554C51.5118 24.3887 51.5245 22.9193 51.5245 21.146H52.3985C52.4998 22.666 52.7785 24.0847 53.2345 25.402C53.7158 26.7193 54.4378 27.7833 55.4005 28.594C56.3885 29.3793 57.6932 29.772 59.3145 29.772C60.1505 29.772 60.9358 29.6073 61.6705 29.278C62.4305 28.9233 63.0512 28.3787 63.5325 27.644C64.0138 26.884 64.2545 25.9087 64.2545 24.718C64.2545 23.6793 64.0012 22.78 63.4945 22.02C63.0132 21.2347 62.3292 20.5127 61.4425 19.854C60.5558 19.17 59.5172 18.4733 58.3265 17.764C57.1358 17.0293 56.0212 16.282 54.9825 15.522C53.9438 14.762 53.1078 13.888 52.4745 12.9C51.8665 11.8867 51.5625 10.6707 51.5625 9.252C51.5625 7.75733 51.8918 6.52867 52.5505 5.566C53.2345 4.578 54.1212 3.856 55.2105 3.4C56.2998 2.91867 57.4652 2.678 58.7065 2.678ZM83.598 2.564C85.27 2.564 86.638 2.81733 87.702 3.324C88.7913 3.80533 89.754 4.37533 90.59 5.034C91.0967 5.414 91.4767 5.46467 91.73 5.186C92.0087 4.882 92.1987 4.18533 92.3 3.096H93.174C93.1233 4.03333 93.0853 5.17333 93.06 6.516C93.0347 7.85867 93.022 9.632 93.022 11.836H92.148C91.9707 10.7467 91.806 9.88533 91.654 9.252C91.502 8.59333 91.312 8.036 91.084 7.58C90.8813 7.124 90.6027 6.668 90.248 6.212C89.4627 5.17333 88.4747 4.426 87.284 3.97C86.0933 3.48866 84.8393 3.248 83.522 3.248C82.2807 3.248 81.1533 3.56466 80.14 4.198C79.152 4.806 78.2907 5.69267 77.556 6.858C76.8467 8.02333 76.2893 9.42933 75.884 11.076C75.504 12.7227 75.314 14.572 75.314 16.624C75.314 18.752 75.5293 20.6393 75.96 22.286C76.3907 23.9073 76.986 25.2753 77.746 26.39C78.5313 27.5047 79.4433 28.3533 80.482 28.936C81.546 29.4933 82.686 29.772 83.902 29.772C85.042 29.772 86.2327 29.544 87.474 29.088C88.7153 28.632 89.6907 27.8973 90.4 26.884C90.9573 26.1493 91.3373 25.3513 91.54 24.49C91.768 23.6287 91.9707 22.4253 92.148 20.88H93.022C93.022 23.1853 93.0347 25.0473 93.06 26.466C93.0853 27.8593 93.1233 29.0373 93.174 30H92.3C92.1987 28.9107 92.0213 28.2267 91.768 27.948C91.54 27.6693 91.1473 27.7073 90.59 28.062C89.6527 28.7207 88.652 29.3033 87.588 29.81C86.5493 30.2913 85.2067 30.532 83.56 30.532C81.1533 30.532 79.038 29.9873 77.214 28.898C75.4153 27.8087 74.0093 26.238 72.996 24.186C72.008 22.134 71.514 19.664 71.514 16.776C71.514 13.9387 72.0333 11.456 73.072 9.328C74.1107 7.2 75.5293 5.54067 77.328 4.35C79.152 3.15933 81.242 2.564 83.598 2.564ZM109.76 2.564C112.167 2.564 114.269 3.10866 116.068 4.198C117.892 5.28733 119.298 6.858 120.286 8.91C121.299 10.9367 121.806 13.4067 121.806 16.32C121.806 19.1573 121.287 21.64 120.248 23.768C119.235 25.896 117.816 27.5553 115.992 28.746C114.168 29.9367 112.078 30.532 109.722 30.532C107.315 30.532 105.2 29.9873 103.376 28.898C101.577 27.8087 100.171 26.238 99.1581 24.186C98.1701 22.134 97.6761 19.664 97.6761 16.776C97.6761 13.9387 98.1954 11.456 99.2341 9.328C100.273 7.2 101.691 5.54067 103.49 4.35C105.314 3.15933 107.404 2.564 109.76 2.564ZM109.608 3.248C107.961 3.248 106.53 3.818 105.314 4.958C104.098 6.098 103.148 7.66867 102.464 9.67C101.805 11.6713 101.476 13.9893 101.476 16.624C101.476 19.3093 101.843 21.6527 102.578 23.654C103.338 25.63 104.351 27.1627 105.618 28.252C106.91 29.316 108.329 29.848 109.874 29.848C111.521 29.848 112.952 29.278 114.168 28.138C115.384 26.998 116.321 25.4273 116.98 23.426C117.664 21.3993 118.006 19.0813 118.006 16.472C118.006 13.7613 117.626 11.418 116.866 9.442C116.131 7.466 115.131 5.946 113.864 4.882C112.597 3.79267 111.179 3.248 109.608 3.248ZM147.515 3.096V3.856C147.033 3.95733 146.514 4.24867 145.957 4.73C145.425 5.21133 144.943 6.022 144.513 7.162L135.583 30.19C135.532 30.19 135.481 30.19 135.431 30.19C135.38 30.19 135.329 30.19 135.279 30.19C135.228 30.19 135.177 30.19 135.127 30.19C135.076 30.19 135.025 30.19 134.975 30.19L125.703 6.288C125.323 5.32533 124.892 4.692 124.411 4.388C123.929 4.05867 123.486 3.88133 123.081 3.856V3.096C123.587 3.12133 124.208 3.14667 124.943 3.172C125.703 3.19733 126.437 3.21 127.147 3.21C128.135 3.21 129.059 3.19733 129.921 3.172C130.782 3.14667 131.479 3.12133 132.011 3.096V3.856C131.149 3.88133 130.491 3.98267 130.035 4.16C129.604 4.33733 129.363 4.654 129.313 5.11C129.287 5.54067 129.439 6.18667 129.769 7.048L136.837 25.782L136.229 26.428L142.841 9.252C143.373 7.884 143.626 6.82 143.601 6.06C143.575 5.27467 143.284 4.71733 142.727 4.388C142.169 4.05867 141.359 3.88133 140.295 3.856V3.096C141.029 3.12133 141.777 3.14667 142.537 3.172C143.297 3.19733 144.006 3.21 144.665 3.21C145.323 3.21 145.868 3.19733 146.299 3.172C146.729 3.14667 147.135 3.12133 147.515 3.096ZM167.802 3.096C167.701 3.98267 167.625 4.844 167.574 5.68C167.549 6.516 167.536 7.14933 167.536 7.58C167.536 8.036 167.549 8.47933 167.574 8.91C167.599 9.31533 167.625 9.65733 167.65 9.936H166.776C166.624 8.44133 166.409 7.26333 166.13 6.402C165.851 5.51533 165.37 4.89467 164.686 4.54C164.027 4.16 163.027 3.97 161.684 3.97H158.53C157.669 3.97 157.01 4.046 156.554 4.198C156.123 4.32467 155.832 4.616 155.68 5.072C155.528 5.50266 155.452 6.18666 155.452 7.124V25.972C155.452 26.884 155.528 27.568 155.68 28.024C155.832 28.48 156.123 28.784 156.554 28.936C157.01 29.0627 157.669 29.126 158.53 29.126H161.304C162.9 29.126 164.103 28.9107 164.914 28.48C165.75 28.0493 166.345 27.3527 166.7 26.39C167.08 25.402 167.359 24.072 167.536 22.4H168.41C168.334 23.084 168.296 23.996 168.296 25.136C168.296 25.6173 168.309 26.314 168.334 27.226C168.385 28.1127 168.461 29.0373 168.562 30C167.27 29.9493 165.813 29.924 164.192 29.924C162.571 29.8987 161.127 29.886 159.86 29.886C159.303 29.886 158.581 29.886 157.694 29.886C156.833 29.886 155.895 29.8987 154.882 29.924C153.869 29.924 152.843 29.9367 151.804 29.962C150.765 29.962 149.777 29.9747 148.84 30V29.24C149.701 29.1893 150.347 29.088 150.778 28.936C151.234 28.784 151.538 28.48 151.69 28.024C151.842 27.568 151.918 26.884 151.918 25.972V7.124C151.918 6.18666 151.842 5.50266 151.69 5.072C151.538 4.616 151.234 4.312 150.778 4.16C150.347 3.98267 149.701 3.88133 148.84 3.856V3.096C149.777 3.12133 150.765 3.14667 151.804 3.172C152.843 3.172 153.869 3.18467 154.882 3.21C155.895 3.21 156.833 3.21 157.694 3.21C158.581 3.21 159.303 3.21 159.86 3.21C161.025 3.21 162.343 3.21 163.812 3.21C165.307 3.18467 166.637 3.14667 167.802 3.096ZM161.266 16.092C161.266 16.092 161.266 16.2187 161.266 16.472C161.266 16.7253 161.266 16.852 161.266 16.852H154.312C154.312 16.852 154.312 16.7253 154.312 16.472C154.312 16.2187 154.312 16.092 154.312 16.092H161.266ZM162.368 11.076C162.267 12.52 162.216 13.622 162.216 14.382C162.241 15.142 162.254 15.8387 162.254 16.472C162.254 17.1053 162.267 17.802 162.292 18.562C162.317 19.322 162.381 20.424 162.482 21.868H161.608C161.507 21.0573 161.38 20.272 161.228 19.512C161.101 18.7267 160.797 18.0933 160.316 17.612C159.86 17.1053 159.075 16.852 157.96 16.852V16.092C158.796 16.092 159.429 15.9273 159.86 15.598C160.316 15.2433 160.645 14.8 160.848 14.268C161.051 13.736 161.19 13.1913 161.266 12.634C161.342 12.0513 161.418 11.532 161.494 11.076H162.368ZM171.996 3.096C172.528 3.12133 173.225 3.14667 174.086 3.172C174.948 3.19733 175.796 3.21 176.632 3.21C177.823 3.21 178.963 3.19733 180.052 3.172C181.142 3.14667 181.914 3.134 182.37 3.134C184.422 3.134 186.12 3.42533 187.462 4.008C188.83 4.59067 189.844 5.38867 190.502 6.402C191.186 7.39 191.528 8.50467 191.528 9.746C191.528 10.506 191.376 11.3167 191.072 12.178C190.768 13.0393 190.236 13.85 189.476 14.61C188.742 15.37 187.728 16.0033 186.436 16.51C185.144 16.9913 183.51 17.232 181.534 17.232H177.886V16.472H181.154C182.953 16.472 184.321 16.1933 185.258 15.636C186.221 15.0533 186.867 14.2933 187.196 13.356C187.551 12.3933 187.728 11.3293 187.728 10.164C187.728 8.16267 187.247 6.61733 186.284 5.528C185.347 4.41333 183.726 3.856 181.42 3.856C180.255 3.856 179.495 4.07133 179.14 4.502C178.786 4.93267 178.608 5.80666 178.608 7.124V25.972C178.608 26.884 178.684 27.568 178.836 28.024C178.988 28.48 179.28 28.784 179.71 28.936C180.166 29.088 180.825 29.1893 181.686 29.24V30C181.104 29.9493 180.369 29.924 179.482 29.924C178.621 29.8987 177.747 29.886 176.86 29.886C175.872 29.886 174.948 29.8987 174.086 29.924C173.225 29.924 172.528 29.9493 171.996 30V29.24C172.858 29.1893 173.504 29.088 173.934 28.936C174.39 28.784 174.694 28.48 174.846 28.024C174.998 27.568 175.074 26.884 175.074 25.972V7.124C175.074 6.18666 174.998 5.50266 174.846 5.072C174.694 4.616 174.39 4.312 173.934 4.16C173.504 3.98267 172.858 3.88133 171.996 3.856V3.096ZM178.038 16.586C179.406 16.6367 180.483 16.7 181.268 16.776C182.054 16.8267 182.687 16.8773 183.168 16.928C183.675 16.9787 184.156 17.042 184.612 17.118C186.31 17.3967 187.526 17.916 188.26 18.676C189.02 19.4107 189.578 20.5633 189.932 22.134L190.882 26.01C191.136 27.1247 191.389 27.9353 191.642 28.442C191.921 28.9233 192.339 29.1513 192.896 29.126C193.327 29.1007 193.682 28.9613 193.96 28.708C194.264 28.4547 194.581 28.1127 194.91 27.682L195.48 28.1C194.948 28.8853 194.391 29.4933 193.808 29.924C193.251 30.3293 192.453 30.532 191.414 30.532C190.477 30.532 189.654 30.2533 188.944 29.696C188.235 29.1387 187.703 28.0493 187.348 26.428L186.512 22.628C186.284 21.5387 186.018 20.6013 185.714 19.816C185.436 19.0053 185.03 18.372 184.498 17.916C183.992 17.46 183.232 17.232 182.218 17.232H178.114L178.038 16.586ZM229.645 7.91778C230.377 8.59333 230.743 9.64889 230.743 11.0844C230.743 12.52 230.377 14.1807 229.645 16.0667C228.942 17.9526 227.914 19.8667 226.563 21.8089C225.24 23.723 223.734 25.4963 222.045 27.1289C220.356 28.7615 218.414 30.0985 216.219 31.14C214.051 32.1815 211.87 32.7022 209.674 32.7022C207.76 32.7022 206.31 32.1252 205.325 30.9711C204.368 29.8452 203.89 28.297 203.89 26.3267C203.89 24.6096 204.242 22.7237 204.945 20.6689C205.677 18.6141 206.719 16.5733 208.07 14.5467C209.449 12.52 211.011 10.6763 212.756 9.01555C214.53 7.32667 216.57 5.97556 218.879 4.96222C221.215 3.92074 223.593 3.4 226.014 3.4C227.281 3.4 228.238 3.69556 228.885 4.28667C229.561 4.87778 229.899 5.63778 229.899 6.56667C229.899 7.01704 229.814 7.46741 229.645 7.91778ZM209.716 32.28C211.405 32.28 213.108 31.8859 214.825 31.0978C216.57 30.3096 218.161 29.2822 219.596 28.0156C221.032 26.7489 222.383 25.3133 223.65 23.7089C224.916 22.1044 225.972 20.4859 226.816 18.8533C227.689 17.2207 228.379 15.6585 228.885 14.1667C229.392 12.6467 229.645 11.3378 229.645 10.24C229.645 9.59259 229.547 9.0437 229.35 8.59333C228.815 9.69111 227.928 10.6059 226.69 11.3378C225.451 12.0415 223.987 12.3933 222.299 12.3933C221.145 12.3933 220.159 12.2104 219.343 11.8444C217.823 13.3644 216.57 15.0111 215.585 16.7844C214.6 18.5296 214.107 19.9652 214.107 21.0911C214.107 22.3578 214.67 23.0052 215.796 23.0333C216.528 23.0333 217.218 22.7096 217.865 22.0622C218.513 21.3867 218.879 20.697 218.963 19.9933C218.991 19.9089 219.005 19.8385 219.005 19.7822C219.005 19.5852 219.047 19.5007 219.132 19.5289C219.188 19.5289 219.23 19.557 219.259 19.6133C219.259 19.6978 219.216 19.7822 219.132 19.8667C219.076 19.9511 219.047 19.9933 219.047 19.9933C218.991 20.7533 218.639 21.457 217.992 22.1044C217.345 22.7519 216.613 23.0896 215.796 23.1178H215.754C214.882 23.0896 214.22 22.8222 213.77 22.3156C213.347 21.8089 213.136 21.1052 213.136 20.2044C213.136 18.8815 213.587 17.3615 214.487 15.6444C215.416 13.8993 216.627 12.3511 218.119 11C217.471 10.3526 217.19 9.50815 217.274 8.46667H217.316C217.232 9.50815 217.513 10.3385 218.161 10.9578C219.09 10.1415 220.061 9.46593 221.074 8.93111C223.326 7.74889 225.423 7.15778 227.365 7.15778C228.125 7.15778 228.773 7.32667 229.307 7.66444C229.42 7.24222 229.476 6.83407 229.476 6.44C229.476 5.6237 229.181 4.94815 228.59 4.41333C227.999 3.87852 227.126 3.61111 225.972 3.61111C223.861 3.61111 221.736 4.16 219.596 5.25778C217.485 6.35556 215.599 7.79111 213.939 9.56444C212.306 11.3096 210.828 13.2237 209.505 15.3067C208.21 17.3896 207.211 19.4726 206.507 21.5556C205.832 23.6385 205.494 25.5104 205.494 27.1711C205.494 28.7474 205.832 29.9859 206.507 30.8867C207.211 31.8156 208.281 32.28 209.716 32.28ZM229.096 8.17111C228.73 7.6363 228.196 7.36889 227.492 7.36889C224.987 7.36889 222.285 8.83259 219.385 11.76C220.117 12.0696 220.99 12.2244 222.003 12.2244C223.72 12.2244 225.212 11.8304 226.479 11.0422C227.745 10.2541 228.618 9.29704 229.096 8.17111ZM252.29 3.096V3.856C251.429 3.88133 250.77 4.008 250.314 4.236C249.884 4.464 249.592 4.83133 249.44 5.338C249.288 5.84467 249.212 6.56667 249.212 7.504V18.942C249.212 20.7153 249.098 22.2607 248.87 23.578C248.642 24.8953 248.237 26.0353 247.654 26.998C247.021 28.062 246.096 28.9233 244.88 29.582C243.664 30.2153 242.271 30.532 240.7 30.532C239.484 30.532 238.319 30.38 237.204 30.076C236.115 29.7973 235.152 29.2653 234.316 28.48C233.582 27.7707 232.999 27.0233 232.568 26.238C232.163 25.4527 231.884 24.49 231.732 23.35C231.58 22.21 231.504 20.7787 231.504 19.056V7.124C231.504 6.18666 231.428 5.50266 231.276 5.072C231.124 4.616 230.82 4.312 230.364 4.16C229.934 3.98267 229.288 3.88133 228.426 3.856V3.096C228.958 3.12133 229.655 3.14667 230.516 3.172C231.378 3.19733 232.302 3.21 233.29 3.21C234.177 3.21 235.051 3.19733 235.912 3.172C236.799 3.14667 237.534 3.12133 238.116 3.096V3.856C237.255 3.88133 236.596 3.98267 236.14 4.16C235.71 4.312 235.418 4.616 235.266 5.072C235.114 5.50266 235.038 6.18666 235.038 7.124V19.702C235.038 20.994 235.102 22.2227 235.228 23.388C235.355 24.528 235.608 25.5413 235.988 26.428C236.394 27.2893 237.002 27.9733 237.812 28.48C238.623 28.9613 239.7 29.202 241.042 29.202C242.968 29.202 244.45 28.784 245.488 27.948C246.552 27.0867 247.287 25.9087 247.692 24.414C248.123 22.9193 248.338 21.2347 248.338 19.36V7.504C248.338 6.56667 248.224 5.84467 247.996 5.338C247.794 4.83133 247.439 4.464 246.932 4.236C246.426 4.008 245.742 3.88133 244.88 3.856V3.096C245.336 3.12133 245.932 3.14667 246.666 3.172C247.426 3.19733 248.123 3.21 248.756 3.21C249.415 3.21 250.061 3.19733 250.694 3.172C251.353 3.14667 251.885 3.12133 252.29 3.096ZM254.899 3.096C255.431 3.12133 256.127 3.14667 256.989 3.172C257.85 3.19733 258.699 3.21 259.535 3.21C260.725 3.21 261.865 3.19733 262.955 3.172C264.044 3.14667 264.817 3.134 265.273 3.134C267.325 3.134 269.022 3.42533 270.365 4.008C271.733 4.59067 272.746 5.38867 273.405 6.402C274.089 7.39 274.431 8.50467 274.431 9.746C274.431 10.506 274.279 11.3167 273.975 12.178C273.671 13.0393 273.139 13.85 272.379 14.61C271.644 15.37 270.631 16.0033 269.339 16.51C268.047 16.9913 266.413 17.232 264.437 17.232H260.789V16.472H264.057C265.855 16.472 267.223 16.1933 268.161 15.636C269.123 15.0533 269.769 14.2933 270.099 13.356C270.453 12.3933 270.631 11.3293 270.631 10.164C270.631 8.16267 270.149 6.61733 269.187 5.528C268.249 4.41333 266.628 3.856 264.323 3.856C263.157 3.856 262.397 4.07133 262.043 4.502C261.688 4.93267 261.511 5.80666 261.511 7.124V25.972C261.511 26.884 261.587 27.568 261.739 28.024C261.891 28.48 262.182 28.784 262.613 28.936C263.069 29.088 263.727 29.1893 264.589 29.24V30C264.006 29.9493 263.271 29.924 262.385 29.924C261.523 29.8987 260.649 29.886 259.763 29.886C258.775 29.886 257.85 29.8987 256.989 29.924C256.127 29.924 255.431 29.9493 254.899 30V29.24C255.76 29.1893 256.406 29.088 256.837 28.936C257.293 28.784 257.597 28.48 257.749 28.024C257.901 27.568 257.977 26.884 257.977 25.972V7.124C257.977 6.18666 257.901 5.50266 257.749 5.072C257.597 4.616 257.293 4.312 256.837 4.16C256.406 3.98267 255.76 3.88133 254.899 3.856V3.096ZM260.941 16.586C262.309 16.6367 263.385 16.7 264.171 16.776C264.956 16.8267 265.589 16.8773 266.071 16.928C266.577 16.9787 267.059 17.042 267.515 17.118C269.212 17.3967 270.428 17.916 271.163 18.676C271.923 19.4107 272.48 20.5633 272.835 22.134L273.785 26.01C274.038 27.1247 274.291 27.9353 274.545 28.442C274.823 28.9233 275.241 29.1513 275.799 29.126C276.229 29.1007 276.584 28.9613 276.863 28.708C277.167 28.4547 277.483 28.1127 277.813 27.682L278.383 28.1C277.851 28.8853 277.293 29.4933 276.711 29.924C276.153 30.3293 275.355 30.532 274.317 30.532C273.379 30.532 272.556 30.2533 271.847 29.696C271.137 29.1387 270.605 28.0493 270.251 26.428L269.415 22.628C269.187 21.5387 268.921 20.6013 268.617 19.816C268.338 19.0053 267.933 18.372 267.401 17.916C266.894 17.46 266.134 17.232 265.121 17.232H261.017L260.941 16.586ZM4.596 41.096C5.128 41.1213 5.82467 41.1467 6.686 41.172C7.54733 41.1973 8.396 41.21 9.232 41.21C10.4227 41.21 11.5627 41.1973 12.652 41.172C13.7413 41.1467 14.514 41.134 14.97 41.134C18.0353 41.134 20.328 41.8307 21.848 43.224C23.368 44.6173 24.128 46.416 24.128 48.62C24.128 49.532 23.976 50.4947 23.672 51.508C23.368 52.496 22.836 53.4207 22.076 54.282C21.3413 55.118 20.328 55.802 19.036 56.334C17.744 56.866 16.11 57.132 14.134 57.132H10.486V56.372H13.754C15.5527 56.372 16.9207 56.03 17.858 55.346C18.8207 54.662 19.4667 53.7627 19.796 52.648C20.1507 51.5333 20.328 50.33 20.328 49.038C20.328 46.6313 19.8467 44.8327 18.884 43.642C17.9467 42.4513 16.3253 41.856 14.02 41.856C12.8547 41.856 12.0947 42.0713 11.74 42.502C11.3853 42.9327 11.208 43.8067 11.208 45.124V63.972C11.208 64.884 11.2967 65.568 11.474 66.024C11.6767 66.48 12.0567 66.784 12.614 66.936C13.1713 67.088 13.982 67.1893 15.046 67.24V68C14.3873 67.9493 13.5513 67.924 12.538 67.924C11.5247 67.8987 10.4987 67.886 9.46 67.886C8.472 67.886 7.54733 67.8987 6.686 67.924C5.82467 67.924 5.128 67.9493 4.596 68V67.24C5.45733 67.1893 6.10333 67.088 6.534 66.936C6.99 66.784 7.294 66.48 7.446 66.024C7.598 65.568 7.674 64.884 7.674 63.972V45.124C7.674 44.1867 7.598 43.5027 7.446 43.072C7.294 42.616 6.99 42.312 6.534 42.16C6.10333 41.9827 5.45733 41.8813 4.596 41.856V41.096ZM26.8245 41.096C27.3565 41.1213 28.0532 41.1467 28.9145 41.172C29.7758 41.1973 30.6245 41.21 31.4605 41.21C32.6512 41.21 33.7912 41.1973 34.8805 41.172C35.9698 41.1467 36.7425 41.134 37.1985 41.134C39.2505 41.134 40.9479 41.4253 42.2905 42.008C43.6585 42.5907 44.6719 43.3887 45.3305 44.402C46.0145 45.39 46.3565 46.5047 46.3565 47.746C46.3565 48.506 46.2045 49.3167 45.9005 50.178C45.5965 51.0393 45.0645 51.85 44.3045 52.61C43.5698 53.37 42.5565 54.0033 41.2645 54.51C39.9725 54.9913 38.3385 55.232 36.3625 55.232H32.7145V54.472H35.9825C37.7812 54.472 39.1492 54.1933 40.0865 53.636C41.0492 53.0533 41.6952 52.2933 42.0245 51.356C42.3792 50.3933 42.5565 49.3293 42.5565 48.164C42.5565 46.1627 42.0752 44.6173 41.1125 43.528C40.1752 42.4133 38.5538 41.856 36.2485 41.856C35.0832 41.856 34.3232 42.0713 33.9685 42.502C33.6138 42.9327 33.4365 43.8067 33.4365 45.124V63.972C33.4365 64.884 33.5125 65.568 33.6645 66.024C33.8165 66.48 34.1078 66.784 34.5385 66.936C34.9945 67.088 35.6532 67.1893 36.5145 67.24V68C35.9318 67.9493 35.1972 67.924 34.3105 67.924C33.4492 67.8987 32.5752 67.886 31.6885 67.886C30.7005 67.886 29.7758 67.8987 28.9145 67.924C28.0532 67.924 27.3565 67.9493 26.8245 68V67.24C27.6858 67.1893 28.3318 67.088 28.7625 66.936C29.2185 66.784 29.5225 66.48 29.6745 66.024C29.8265 65.568 29.9025 64.884 29.9025 63.972V45.124C29.9025 44.1867 29.8265 43.5027 29.6745 43.072C29.5225 42.616 29.2185 42.312 28.7625 42.16C28.3318 41.9827 27.6858 41.8813 26.8245 41.856V41.096ZM32.8665 54.586C34.2345 54.6367 35.3112 54.7 36.0965 54.776C36.8818 54.8267 37.5152 54.8773 37.9965 54.928C38.5032 54.9787 38.9845 55.042 39.4405 55.118C41.1378 55.3967 42.3538 55.916 43.0885 56.676C43.8485 57.4107 44.4058 58.5633 44.7605 60.134L45.7105 64.01C45.9639 65.1247 46.2172 65.9353 46.4705 66.442C46.7492 66.9233 47.1672 67.1513 47.7245 67.126C48.1552 67.1007 48.5098 66.9613 48.7885 66.708C49.0925 66.4547 49.4092 66.1127 49.7385 65.682L50.3085 66.1C49.7765 66.8853 49.2192 67.4933 48.6365 67.924C48.0792 68.3293 47.2812 68.532 46.2425 68.532C45.3052 68.532 44.4819 68.2533 43.7725 67.696C43.0632 67.1387 42.5312 66.0493 42.1765 64.428L41.3405 60.628C41.1125 59.5387 40.8465 58.6013 40.5425 57.816C40.2638 57.0053 39.8585 56.372 39.3265 55.916C38.8198 55.46 38.0598 55.232 37.0465 55.232H32.9425L32.8665 54.586ZM75.4558 45.9178C76.1877 46.5933 76.5536 47.6489 76.5536 49.0844C76.5536 50.52 76.1877 52.1807 75.4558 54.0667C74.7521 55.9526 73.7247 57.8667 72.3736 59.8089C71.0506 61.723 69.5447 63.4963 67.8558 65.1289C66.1669 66.7615 64.2247 68.0985 62.0291 69.14C59.8617 70.1815 57.6803 70.7022 55.4847 70.7022C53.5706 70.7022 52.121 70.1252 51.1358 68.9711C50.1788 67.8452 49.7003 66.297 49.7003 64.3267C49.7003 62.6096 50.0521 60.7237 50.7558 58.6689C51.4877 56.6141 52.5291 54.5733 53.8803 52.5467C55.2595 50.52 56.8217 48.6763 58.5669 47.0156C60.3403 45.3267 62.381 43.9756 64.6891 42.9622C67.0254 41.9207 69.404 41.4 71.8247 41.4C73.0914 41.4 74.0484 41.6956 74.6958 42.2867C75.3714 42.8778 75.7091 43.6378 75.7091 44.5667C75.7091 45.017 75.6247 45.4674 75.4558 45.9178ZM55.5269 70.28C57.2158 70.28 58.9188 69.8859 60.6358 69.0978C62.381 68.3096 63.9714 67.2822 65.4069 66.0156C66.8425 64.7489 68.1936 63.3133 69.4603 61.7089C70.7269 60.1044 71.7825 58.4859 72.6269 56.8533C73.4995 55.2207 74.1891 53.6585 74.6958 52.1667C75.2025 50.6467 75.4558 49.3378 75.4558 48.24C75.4558 47.5926 75.3573 47.0437 75.1603 46.5933C74.6254 47.6911 73.7388 48.6059 72.5003 49.3378C71.2617 50.0415 69.798 50.3933 68.1091 50.3933C66.9551 50.3933 65.9699 50.2104 65.1536 49.8444C63.6336 51.3644 62.381 53.0111 61.3958 54.7844C60.4106 56.5296 59.918 57.9652 59.918 59.0911C59.918 60.3578 60.481 61.0052 61.6069 61.0333C62.3388 61.0333 63.0284 60.7096 63.6758 60.0622C64.3232 59.3867 64.6891 58.697 64.7736 57.9933C64.8017 57.9089 64.8158 57.8385 64.8158 57.7822C64.8158 57.5852 64.858 57.5007 64.9425 57.5289C64.9988 57.5289 65.041 57.557 65.0691 57.6133C65.0691 57.6978 65.0269 57.7822 64.9425 57.8667C64.8862 57.9511 64.858 57.9933 64.858 57.9933C64.8017 58.7533 64.4499 59.457 63.8025 60.1044C63.1551 60.7519 62.4232 61.0896 61.6069 61.1178H61.5647C60.6921 61.0896 60.0306 60.8222 59.5803 60.3156C59.158 59.8089 58.9469 59.1052 58.9469 58.2044C58.9469 56.8815 59.3973 55.3615 60.298 53.6444C61.2269 51.8993 62.4373 50.3511 63.9291 49C63.2817 48.3526 63.0003 47.5081 63.0847 46.4667H63.1269C63.0425 47.5081 63.324 48.3385 63.9714 48.9578C64.9003 48.1415 65.8714 47.4659 66.8847 46.9311C69.1365 45.7489 71.2336 45.1578 73.1758 45.1578C73.9358 45.1578 74.5832 45.3267 75.118 45.6644C75.2306 45.2422 75.2869 44.8341 75.2869 44.44C75.2869 43.6237 74.9914 42.9481 74.4003 42.4133C73.8091 41.8785 72.9365 41.6111 71.7825 41.6111C69.6714 41.6111 67.5462 42.16 65.4069 43.2578C63.2958 44.3556 61.4099 45.7911 59.7491 47.5644C58.1165 49.3096 56.6388 51.2237 55.3158 53.3067C54.021 55.3896 53.0217 57.4726 52.318 59.5556C51.6425 61.6385 51.3047 63.5104 51.3047 65.1711C51.3047 66.7474 51.6425 67.9859 52.318 68.8867C53.0217 69.8156 54.0914 70.28 55.5269 70.28ZM74.9069 46.1711C74.541 45.6363 74.0062 45.3689 73.3025 45.3689C70.7973 45.3689 68.0951 46.8326 65.1958 49.76C65.9277 50.0696 66.8003 50.2244 67.8136 50.2244C69.5306 50.2244 71.0225 49.8304 72.2891 49.0422C73.5558 48.2541 74.4284 47.297 74.9069 46.1711ZM85.1809 41.096C89.7156 41.096 93.0849 42.236 95.2889 44.516C97.4929 46.7707 98.5949 50.0133 98.5949 54.244C98.5949 57.0053 98.0503 59.4247 96.9609 61.502C95.8969 63.554 94.3389 65.15 92.2869 66.29C90.2349 67.43 87.7523 68 84.8389 68C84.4589 68 83.9523 67.9873 83.3189 67.962C82.6856 67.9367 82.0269 67.924 81.3429 67.924C80.6843 67.8987 80.0763 67.886 79.5189 67.886C78.6323 67.886 77.7583 67.8987 76.8969 67.924C76.0356 67.924 75.3389 67.9493 74.8069 68V67.24C75.6683 67.1893 76.3143 67.088 76.7449 66.936C77.2009 66.784 77.5049 66.48 77.6569 66.024C77.8089 65.568 77.8849 64.884 77.8849 63.972V45.124C77.8849 44.1867 77.8089 43.5027 77.6569 43.072C77.5049 42.616 77.2009 42.312 76.7449 42.16C76.3143 41.9827 75.6683 41.8813 74.8069 41.856V41.096C75.3389 41.1213 76.0356 41.1593 76.8969 41.21C77.7583 41.2353 78.6069 41.2353 79.4429 41.21C80.3296 41.1847 81.3303 41.1593 82.4449 41.134C83.5596 41.1087 84.4716 41.096 85.1809 41.096ZM84.2309 41.78C83.0656 41.78 82.3056 41.9953 81.9509 42.426C81.5963 42.8567 81.4189 43.7307 81.4189 45.048V64.048C81.4189 65.3653 81.5963 66.2393 81.9509 66.67C82.3309 67.1007 83.1036 67.316 84.2689 67.316C87.0303 67.316 89.1709 66.822 90.6909 65.834C92.2109 64.8207 93.2749 63.3513 93.8829 61.426C94.4909 59.5007 94.7949 57.1573 94.7949 54.396C94.7949 51.5587 94.4529 49.2153 93.7689 47.366C93.1103 45.4913 92.0083 44.098 90.4629 43.186C88.9429 42.2487 86.8656 41.78 84.2309 41.78ZM125.302 41.096V41.856C124.441 41.8813 123.782 42.008 123.326 42.236C122.895 42.464 122.604 42.8313 122.452 43.338C122.3 43.8447 122.224 44.5667 122.224 45.504V56.942C122.224 58.7153 122.11 60.2607 121.882 61.578C121.654 62.8953 121.249 64.0353 120.666 64.998C120.033 66.062 119.108 66.9233 117.892 67.582C116.676 68.2153 115.283 68.532 113.712 68.532C112.496 68.532 111.331 68.38 110.216 68.076C109.127 67.7973 108.164 67.2653 107.328 66.48C106.593 65.7707 106.011 65.0233 105.58 64.238C105.175 63.4527 104.896 62.49 104.744 61.35C104.592 60.21 104.516 58.7787 104.516 57.056V45.124C104.516 44.1867 104.44 43.5027 104.288 43.072C104.136 42.616 103.832 42.312 103.376 42.16C102.945 41.9827 102.299 41.8813 101.438 41.856V41.096C101.97 41.1213 102.667 41.1467 103.528 41.172C104.389 41.1973 105.314 41.21 106.302 41.21C107.189 41.21 108.063 41.1973 108.924 41.172C109.811 41.1467 110.545 41.1213 111.128 41.096V41.856C110.267 41.8813 109.608 41.9827 109.152 42.16C108.721 42.312 108.43 42.616 108.278 43.072C108.126 43.5027 108.05 44.1867 108.05 45.124V57.702C108.05 58.994 108.113 60.2227 108.24 61.388C108.367 62.528 108.62 63.5413 109 64.428C109.405 65.2893 110.013 65.9733 110.824 66.48C111.635 66.9613 112.711 67.202 114.054 67.202C115.979 67.202 117.461 66.784 118.5 65.948C119.564 65.0867 120.299 63.9087 120.704 62.414C121.135 60.9193 121.35 59.2347 121.35 57.36V45.504C121.35 44.5667 121.236 43.8447 121.008 43.338C120.805 42.8313 120.451 42.464 119.944 42.236C119.437 42.008 118.753 41.8813 117.892 41.856V41.096C118.348 41.1213 118.943 41.1467 119.678 41.172C120.438 41.1973 121.135 41.21 121.768 41.21C122.427 41.21 123.073 41.1973 123.706 41.172C124.365 41.1467 124.897 41.1213 125.302 41.096ZM140.19 40.564C141.862 40.564 143.23 40.8173 144.294 41.324C145.383 41.8053 146.346 42.3753 147.182 43.034C147.688 43.414 148.068 43.4647 148.322 43.186C148.6 42.882 148.79 42.1853 148.892 41.096H149.766C149.715 42.0333 149.677 43.1733 149.652 44.516C149.626 45.8587 149.614 47.632 149.614 49.836H148.74C148.562 48.7467 148.398 47.8853 148.246 47.252C148.094 46.5933 147.904 46.036 147.676 45.58C147.473 45.124 147.194 44.668 146.84 44.212C146.054 43.1733 145.066 42.426 143.876 41.97C142.685 41.4887 141.431 41.248 140.114 41.248C138.872 41.248 137.745 41.5647 136.732 42.198C135.744 42.806 134.882 43.6927 134.148 44.858C133.438 46.0233 132.881 47.4293 132.476 49.076C132.096 50.7227 131.906 52.572 131.906 54.624C131.906 56.752 132.121 58.6393 132.552 60.286C132.982 61.9073 133.578 63.2753 134.338 64.39C135.123 65.5047 136.035 66.3533 137.074 66.936C138.138 67.4933 139.278 67.772 140.494 67.772C141.634 67.772 142.824 67.544 144.066 67.088C145.307 66.632 146.282 65.8973 146.992 64.884C147.549 64.1493 147.929 63.3513 148.132 62.49C148.36 61.6287 148.562 60.4253 148.74 58.88H149.614C149.614 61.1853 149.626 63.0473 149.652 64.466C149.677 65.8593 149.715 67.0373 149.766 68H148.892C148.79 66.9107 148.613 66.2267 148.36 65.948C148.132 65.6693 147.739 65.7073 147.182 66.062C146.244 66.7207 145.244 67.3033 144.18 67.81C143.141 68.2913 141.798 68.532 140.152 68.532C137.745 68.532 135.63 67.9873 133.806 66.898C132.007 65.8087 130.601 64.238 129.588 62.186C128.6 60.134 128.106 57.664 128.106 54.776C128.106 51.9387 128.625 49.456 129.664 47.328C130.702 45.2 132.121 43.5407 133.92 42.35C135.744 41.1593 137.834 40.564 140.19 40.564ZM174.75 41.096C174.649 42.0587 174.573 42.996 174.522 43.908C174.497 44.7947 174.484 45.4787 174.484 45.96C174.484 46.568 174.497 47.138 174.522 47.67C174.547 48.202 174.573 48.6707 174.598 49.076H173.724C173.547 47.3027 173.306 45.9093 173.002 44.896C172.698 43.8573 172.166 43.11 171.406 42.654C170.646 42.198 169.468 41.97 167.872 41.97H165.82V63.592C165.82 64.6053 165.909 65.3653 166.086 65.872C166.289 66.3787 166.669 66.7207 167.226 66.898C167.783 67.0753 168.594 67.1893 169.658 67.24V68C168.999 67.9493 168.163 67.924 167.15 67.924C166.137 67.8987 165.111 67.886 164.072 67.886C162.932 67.886 161.855 67.8987 160.842 67.924C159.854 67.924 159.056 67.9493 158.448 68V67.24C159.512 67.1893 160.323 67.0753 160.88 66.898C161.437 66.7207 161.805 66.3787 161.982 65.872C162.185 65.3653 162.286 64.6053 162.286 63.592V41.97H160.234C158.663 41.97 157.485 42.198 156.7 42.654C155.94 43.11 155.408 43.8573 155.104 44.896C154.8 45.9093 154.559 47.3027 154.382 49.076H153.508C153.559 48.6707 153.584 48.202 153.584 47.67C153.609 47.138 153.622 46.568 153.622 45.96C153.622 45.4787 153.597 44.7947 153.546 43.908C153.521 42.996 153.457 42.0587 153.356 41.096C154.42 41.1213 155.573 41.1467 156.814 41.172C158.081 41.1973 159.347 41.21 160.614 41.21C161.881 41.21 163.033 41.21 164.072 41.21C165.111 41.21 166.251 41.21 167.492 41.21C168.759 41.21 170.025 41.1973 171.292 41.172C172.559 41.1467 173.711 41.1213 174.75 41.096ZM185.583 40.678C186.85 40.678 187.813 40.83 188.471 41.134C189.13 41.4127 189.713 41.7293 190.219 42.084C190.523 42.2613 190.764 42.4007 190.941 42.502C191.144 42.578 191.334 42.616 191.511 42.616C191.765 42.616 191.942 42.4767 192.043 42.198C192.17 41.9193 192.271 41.5013 192.347 40.944H193.221C193.196 41.3747 193.158 41.894 193.107 42.502C193.082 43.0847 193.057 43.87 193.031 44.858C193.031 45.8207 193.031 47.1 193.031 48.696H192.157C192.081 47.48 191.815 46.3147 191.359 45.2C190.903 44.0853 190.232 43.1733 189.345 42.464C188.484 41.7547 187.344 41.4 185.925 41.4C184.583 41.4 183.468 41.8053 182.581 42.616C181.72 43.4267 181.289 44.4907 181.289 45.808C181.289 46.948 181.581 47.9107 182.163 48.696C182.746 49.456 183.519 50.1527 184.481 50.786C185.469 51.394 186.533 52.0527 187.673 52.762C188.991 53.5727 190.156 54.3833 191.169 55.194C192.208 55.9793 193.019 56.8533 193.601 57.816C194.209 58.7787 194.513 59.944 194.513 61.312C194.513 62.9333 194.146 64.276 193.411 65.34C192.677 66.404 191.701 67.202 190.485 67.734C189.269 68.266 187.927 68.532 186.457 68.532C185.115 68.532 184.051 68.38 183.265 68.076C182.48 67.772 181.809 67.4553 181.251 67.126C180.694 66.7713 180.263 66.594 179.959 66.594C179.706 66.594 179.516 66.7333 179.389 67.012C179.288 67.2907 179.199 67.7087 179.123 68.266H178.249C178.3 67.734 178.325 67.1133 178.325 66.404C178.351 65.6693 178.363 64.7193 178.363 63.554C178.389 62.3887 178.401 60.9193 178.401 59.146H179.275C179.377 60.666 179.655 62.0847 180.111 63.402C180.593 64.7193 181.315 65.7833 182.277 66.594C183.265 67.3793 184.57 67.772 186.191 67.772C187.027 67.772 187.813 67.6073 188.547 67.278C189.307 66.9233 189.928 66.3787 190.409 65.644C190.891 64.884 191.131 63.9087 191.131 62.718C191.131 61.6793 190.878 60.78 190.371 60.02C189.89 59.2347 189.206 58.5127 188.319 57.854C187.433 57.17 186.394 56.4733 185.203 55.764C184.013 55.0293 182.898 54.282 181.859 53.522C180.821 52.762 179.985 51.888 179.351 50.9C178.743 49.8867 178.439 48.6707 178.439 47.252C178.439 45.7573 178.769 44.5287 179.427 43.566C180.111 42.578 180.998 41.856 182.087 41.4C183.177 40.9187 184.342 40.678 185.583 40.678Z" fill="#161616"/>
</svg>
