<svg width="432" height="247" viewBox="0 0 432 247" fill="none" xmlns="http://www.w3.org/2000/svg">
<path d="M58.8111 0.42222C61.5593 0.42222 63.8407 1.3037 65.6556 3.06666C67.5222 4.77778 68.4556 7.26667 68.4556 10.5333C68.4556 14.4222 67.237 17.8963 64.8 20.9556C62.4148 23.963 59.2778 25.4667 55.3889 25.4667C53.1593 25.4667 51.3963 24.7926 50.1 23.4444C48.8037 22.0963 48.1556 20.5926 48.1556 18.9333C48.1556 17.4815 48.6222 16.263 49.5556 15.2778C50.5407 14.2926 51.8889 13.8 53.6 13.8C54.4815 13.8 55.1296 14.0074 55.5444 14.4222C56.0111 14.7852 56.2444 15.2519 56.2444 15.8222C56.2444 16.237 56.0889 16.6259 55.7778 16.9889C55.4667 17.3 55.0259 17.4556 54.4556 17.4556C55.0259 17.2481 55.3111 16.7556 55.3111 15.9778C55.3111 15.4074 55.1296 14.9407 54.7667 14.5778C54.4037 14.2148 53.8333 14.0333 53.0556 14.0333C51.7074 14.0333 50.6185 14.4741 49.7889 15.3556C48.9593 16.237 48.5444 17.2741 48.5444 18.4667C48.5444 19.9185 49.063 21.0074 50.1 21.7333C51.137 22.4593 52.4852 22.8222 54.1444 22.8222C57.6704 22.8222 60.8852 21.6815 63.7889 19.4C66.6926 17.1185 68.1444 14.2148 68.1444 10.6889C68.1444 7.94074 67.3148 5.94444 65.6556 4.7C64.0482 3.45555 61.9481 2.83333 59.3556 2.83333C57.0222 2.83333 54.7407 3.3 52.5111 4.23333C50.3333 5.16667 48.4667 6.61852 46.9111 8.58889C45.4074 10.5074 44.6556 12.737 44.6556 15.2778C44.6556 18.6481 45.2519 22.7185 46.4444 27.4889C47.637 32.2593 48.2333 36.4333 48.2333 40.0111C48.2333 44.0556 47.1444 47.8667 44.9667 51.4444C42.8407 55.0222 39.963 57.8741 36.3333 60C32.7037 62.1778 28.7889 63.2667 24.5889 63.2667C19.5074 63.2667 15.5926 61.8148 12.8444 58.9111C10.1481 56.0593 8.8 52.5593 8.8 48.4111C8.8 46.1296 9.24074 43.8741 10.1222 41.6444C11.0037 39.4148 12.2481 37.3926 13.8556 35.5778C15.5148 33.7111 17.6407 32.2333 20.2333 31.1444C22.8778 30.0037 25.7815 29.4333 28.9444 29.4333C31.9519 29.4333 34.2593 30.0815 35.8667 31.3778C37.4741 32.6741 38.3556 34.3074 38.5111 36.2778C38.5111 36.4333 38.5111 36.5889 38.5111 36.7444C38.5111 39.4926 37.2407 42.0074 34.7 44.2889C32.1593 46.5185 28.8667 47.6333 24.8222 47.6333C24.2 47.6333 23.5778 47.6074 22.9556 47.5556V47.3222C23.5259 47.3741 24.1222 47.4 24.7444 47.4C28.5815 47.4 31.6407 46.2593 33.9222 43.9778C36.2037 41.6444 37.2667 39.1037 37.1111 36.3556C37.0074 34.437 36.2556 32.8556 34.8556 31.6111C33.4556 30.3667 31.4852 29.7444 28.9444 29.7444C26.0407 29.7444 23.3704 30.263 20.9333 31.3C18.5481 32.337 16.6037 33.6852 15.1 35.3444C13.5963 37.0037 12.4296 38.8444 11.6 40.8667C10.7704 42.837 10.3556 44.8593 10.3556 46.9333C10.3556 50.5111 11.5222 53.4926 13.8556 55.8778C16.1889 58.3148 19.5593 59.5333 23.9667 59.5333C26.6111 59.5333 29.2815 59.0667 31.9778 58.1333C34.6741 57.2 37.137 55.8778 39.3667 54.1667C41.6481 52.5074 43.4889 50.3296 44.8889 47.6333C46.2889 44.937 46.9889 41.9815 46.9889 38.7667C46.9889 36.2259 46.4963 32.3111 45.5111 27.0222C44.5778 21.7333 44.1111 17.8963 44.1111 15.5111C44.1111 12.4519 44.863 9.75556 46.3667 7.42222C47.9222 5.03704 49.7889 3.27407 51.9667 2.13333C54.1963 0.99259 56.4778 0.42222 58.8111 0.42222ZM109.715 3.44C109.529 5.21333 109.389 6.94 109.295 8.62C109.249 10.2533 109.225 11.5133 109.225 12.4C109.225 13.52 109.249 14.57 109.295 15.55C109.342 16.53 109.389 17.3933 109.435 18.14H107.825C107.499 14.8733 107.055 12.3067 106.495 10.44C105.935 8.52666 104.955 7.15 103.555 6.31C102.155 5.47 99.9854 5.05 97.0454 5.05H93.2654V44.88C93.2654 46.7467 93.4287 48.1467 93.7554 49.08C94.1287 50.0133 94.8287 50.6433 95.8554 50.97C96.8821 51.2967 98.3754 51.5067 100.335 51.6V53C99.1221 52.9067 97.5821 52.86 95.7154 52.86C93.8487 52.8133 91.9587 52.79 90.0454 52.79C87.9454 52.79 85.9621 52.8133 84.0954 52.86C82.2754 52.86 80.8054 52.9067 79.6854 53V51.6C81.6454 51.5067 83.1387 51.2967 84.1654 50.97C85.1921 50.6433 85.8687 50.0133 86.1954 49.08C86.5687 48.1467 86.7554 46.7467 86.7554 44.88V5.05H82.9754C80.0821 5.05 77.9121 5.47 76.4654 6.31C75.0654 7.15 74.0854 8.52666 73.5254 10.44C72.9654 12.3067 72.5221 14.8733 72.1954 18.14H70.5854C70.6787 17.3933 70.7254 16.53 70.7254 15.55C70.7721 14.57 70.7954 13.52 70.7954 12.4C70.7954 11.5133 70.7487 10.2533 70.6554 8.62C70.6087 6.94 70.4921 5.21333 70.3054 3.44C72.2654 3.48667 74.3887 3.53333 76.6754 3.58C79.0087 3.62666 81.3421 3.65 83.6754 3.65C86.0087 3.65 88.1321 3.65 90.0454 3.65C91.9587 3.65 94.0587 3.65 96.3454 3.65C98.6787 3.65 101.012 3.62666 103.345 3.58C105.679 3.53333 107.802 3.48667 109.715 3.44ZM131.081 3.09L148.161 47.12C148.861 48.8933 149.654 50.0833 150.541 50.69C151.427 51.25 152.244 51.5533 152.991 51.6V53C152.057 52.9067 150.914 52.86 149.561 52.86C148.207 52.8133 146.854 52.79 145.501 52.79C143.681 52.79 141.977 52.8133 140.391 52.86C138.804 52.86 137.521 52.9067 136.541 53V51.6C138.921 51.5067 140.437 51.11 141.091 50.41C141.744 49.6633 141.604 48.1 140.671 45.72L127.651 10.93L128.771 10.02L116.591 41.66C115.611 44.18 115.144 46.1633 115.191 47.61C115.237 49.01 115.774 50.0133 116.801 50.62C117.827 51.2267 119.321 51.5533 121.281 51.6V53C119.974 52.9067 118.597 52.86 117.151 52.86C115.751 52.8133 114.444 52.79 113.231 52.79C112.064 52.79 111.061 52.8133 110.221 52.86C109.427 52.86 108.681 52.9067 107.981 53V51.6C108.914 51.3667 109.871 50.83 110.851 49.99C111.831 49.1033 112.717 47.61 113.511 45.51L129.961 3.09C130.147 3.09 130.334 3.09 130.521 3.09C130.707 3.09 130.894 3.09 131.081 3.09ZM139.621 32.84V34.24H118.761L119.461 32.84H139.621ZM154.135 3.44C155.115 3.48667 156.399 3.53333 157.985 3.58C159.572 3.62666 161.135 3.65 162.675 3.65C164.869 3.65 166.969 3.62666 168.975 3.58C170.982 3.53333 172.405 3.51 173.245 3.51C178.892 3.51 183.115 4.67667 185.915 7.01C188.715 9.34333 190.115 12.2367 190.115 15.69C190.115 17.09 189.835 18.5833 189.275 20.17C188.715 21.7567 187.735 23.25 186.335 24.65C184.982 26.05 183.115 27.2167 180.735 28.15C178.355 29.0367 175.345 29.48 171.705 29.48H164.985V28.08H171.005C174.319 28.08 176.839 27.5667 178.565 26.54C180.339 25.4667 181.529 24.0667 182.135 22.34C182.789 20.5667 183.115 18.6067 183.115 16.46C183.115 12.7733 182.229 9.92666 180.455 7.92C178.729 5.86666 175.742 4.84 171.495 4.84C169.349 4.84 167.949 5.23667 167.295 6.03C166.642 6.82333 166.315 8.43333 166.315 10.86V45.58C166.315 47.26 166.455 48.52 166.735 49.36C167.015 50.2 167.552 50.76 168.345 51.04C169.185 51.32 170.399 51.5067 171.985 51.6V53C170.912 52.9067 169.559 52.86 167.925 52.86C166.339 52.8133 164.729 52.79 163.095 52.79C161.275 52.79 159.572 52.8133 157.985 52.86C156.399 52.86 155.115 52.9067 154.135 53V51.6C155.722 51.5067 156.912 51.32 157.705 51.04C158.545 50.76 159.105 50.2 159.385 49.36C159.665 48.52 159.805 47.26 159.805 45.58V10.86C159.805 9.13333 159.665 7.87333 159.385 7.08C159.105 6.24 158.545 5.68 157.705 5.4C156.912 5.07333 155.722 4.88666 154.135 4.84V3.44ZM165.265 28.29C167.785 28.3833 169.769 28.5 171.215 28.64C172.662 28.7333 173.829 28.8267 174.715 28.92C175.649 29.0133 176.535 29.13 177.375 29.27C180.502 29.7833 182.742 30.74 184.095 32.14C185.495 33.4933 186.522 35.6167 187.175 38.51L188.925 45.65C189.392 47.7033 189.859 49.1967 190.325 50.13C190.839 51.0167 191.609 51.4367 192.635 51.39C193.429 51.3433 194.082 51.0867 194.595 50.62C195.155 50.1533 195.739 49.5233 196.345 48.73L197.395 49.5C196.415 50.9467 195.389 52.0667 194.315 52.86C193.289 53.6067 191.819 53.98 189.905 53.98C188.179 53.98 186.662 53.4667 185.355 52.44C184.049 51.4133 183.069 49.4067 182.415 46.42L180.875 39.42C180.455 37.4133 179.965 35.6867 179.405 34.24C178.892 32.7467 178.145 31.58 177.165 30.74C176.232 29.9 174.832 29.48 172.965 29.48H165.405L165.265 28.29ZM237.547 3.44C237.361 5.21333 237.221 6.94 237.127 8.62C237.081 10.2533 237.057 11.5133 237.057 12.4C237.057 13.52 237.081 14.57 237.127 15.55C237.174 16.53 237.221 17.3933 237.267 18.14H235.657C235.331 14.8733 234.887 12.3067 234.327 10.44C233.767 8.52666 232.787 7.15 231.387 6.31C229.987 5.47 227.817 5.05 224.877 5.05H221.097V44.88C221.097 46.7467 221.261 48.1467 221.587 49.08C221.961 50.0133 222.661 50.6433 223.687 50.97C224.714 51.2967 226.207 51.5067 228.167 51.6V53C226.954 52.9067 225.414 52.86 223.547 52.86C221.681 52.8133 219.791 52.79 217.877 52.79C215.777 52.79 213.794 52.8133 211.927 52.86C210.107 52.86 208.637 52.9067 207.517 53V51.6C209.477 51.5067 210.971 51.2967 211.997 50.97C213.024 50.6433 213.701 50.0133 214.027 49.08C214.401 48.1467 214.587 46.7467 214.587 44.88V5.05H210.807C207.914 5.05 205.744 5.47 204.297 6.31C202.897 7.15 201.917 8.52666 201.357 10.44C200.797 12.3067 200.354 14.8733 200.027 18.14H198.417C198.511 17.3933 198.557 16.53 198.557 15.55C198.604 14.57 198.627 13.52 198.627 12.4C198.627 11.5133 198.581 10.2533 198.487 8.62C198.441 6.94 198.324 5.21333 198.137 3.44C200.097 3.48667 202.221 3.53333 204.507 3.58C206.841 3.62666 209.174 3.65 211.507 3.65C213.841 3.65 215.964 3.65 217.877 3.65C219.791 3.65 221.891 3.65 224.177 3.65C226.511 3.65 228.844 3.62666 231.177 3.58C233.511 3.53333 235.634 3.48667 237.547 3.44ZM294.142 3.44V4.84C293.256 5.02667 292.369 5.61 291.482 6.59C290.596 7.52333 289.616 9.01667 288.542 11.07L274.402 39.07H273.212L256.832 8.83C255.899 7.10333 255.106 6.03 254.452 5.61C253.846 5.14333 253.286 4.91 252.772 4.91V3.44C253.706 3.48667 254.662 3.53333 255.642 3.58C256.669 3.62666 257.766 3.65 258.932 3.65C260.472 3.65 262.106 3.65 263.832 3.65C265.606 3.60333 267.239 3.53333 268.732 3.44V4.91C267.566 4.91 266.539 5.05 265.652 5.33C264.766 5.61 264.182 6.12333 263.902 6.87C263.622 7.61667 263.832 8.66667 264.532 10.02L276.362 32.7L275.802 33.12L285.112 14.57C286.419 12.0033 287.049 10.02 287.002 8.62C287.002 7.22 286.466 6.26333 285.392 5.75C284.319 5.19 282.802 4.88666 280.842 4.84V3.44C282.196 3.48667 283.572 3.53333 284.972 3.58C286.372 3.62666 287.679 3.65 288.892 3.65C290.106 3.65 291.109 3.62666 291.902 3.58C292.696 3.53333 293.442 3.48667 294.142 3.44ZM277.552 31.72V45.58C277.552 47.26 277.692 48.52 277.972 49.36C278.252 50.2 278.789 50.76 279.582 51.04C280.422 51.32 281.636 51.5067 283.222 51.6V53C282.149 52.9067 280.796 52.86 279.162 52.86C277.576 52.8133 275.966 52.79 274.332 52.79C272.512 52.79 270.809 52.8133 269.222 52.86C267.636 52.86 266.352 52.9067 265.372 53V51.6C266.959 51.5067 268.149 51.32 268.942 51.04C269.782 50.76 270.342 50.2 270.622 49.36C270.902 48.52 271.042 47.26 271.042 45.58V31.23L274.822 35.57L277.552 31.72ZM341.473 12.3222C342.821 13.5667 343.495 15.5111 343.495 18.1556C343.495 20.8 342.821 23.8593 341.473 27.3333C340.177 30.8074 338.284 34.3333 335.795 37.9111C333.358 41.437 330.584 44.7037 327.473 47.7111C324.362 50.7185 320.784 53.1815 316.74 55.1C312.747 57.0185 308.729 57.9778 304.684 57.9778C301.158 57.9778 298.488 56.9148 296.673 54.7889C294.91 52.7148 294.029 49.863 294.029 46.2333C294.029 43.0704 294.677 39.5963 295.973 35.8111C297.321 32.0259 299.24 28.2667 301.729 24.5333C304.269 20.8 307.147 17.4037 310.362 14.3444C313.629 11.2333 317.388 8.74444 321.64 6.87778C325.944 4.95926 330.325 4 334.784 4C337.118 4 338.881 4.54444 340.073 5.63333C341.318 6.72222 341.94 8.12222 341.94 9.83333C341.94 10.663 341.784 11.4926 341.473 12.3222ZM304.762 57.2C307.873 57.2 311.01 56.4741 314.173 55.0222C317.388 53.5704 320.318 51.6778 322.962 49.3444C325.607 47.0111 328.095 44.3667 330.429 41.4111C332.762 38.4556 334.707 35.4741 336.262 32.4667C337.869 29.4593 339.14 26.5815 340.073 23.8333C341.007 21.0333 341.473 18.6222 341.473 16.6C341.473 15.4074 341.292 14.3963 340.929 13.5667C339.944 15.5889 338.31 17.2741 336.029 18.6222C333.747 19.9185 331.051 20.5667 327.94 20.5667C325.814 20.5667 323.999 20.2296 322.495 19.5556C319.695 22.3556 317.388 25.3889 315.573 28.6556C313.758 31.8704 312.851 34.5148 312.851 36.5889C312.851 38.9222 313.888 40.1148 315.962 40.1667C317.31 40.1667 318.581 39.5704 319.773 38.3778C320.966 37.1333 321.64 35.863 321.795 34.5667C321.847 34.4111 321.873 34.2815 321.873 34.1778C321.873 33.8148 321.951 33.6593 322.107 33.7111C322.21 33.7111 322.288 33.763 322.34 33.8667C322.34 34.0222 322.262 34.1778 322.107 34.3333C322.003 34.4889 321.951 34.5667 321.951 34.5667C321.847 35.9667 321.199 37.263 320.007 38.4556C318.814 39.6481 317.466 40.2704 315.962 40.3222H315.884C314.277 40.2704 313.058 39.7778 312.229 38.8444C311.451 37.9111 311.062 36.6148 311.062 34.9556C311.062 32.5185 311.892 29.7185 313.551 26.5556C315.262 23.3407 317.492 20.4889 320.24 18C319.047 16.8074 318.529 15.2519 318.684 13.3333H318.762C318.607 15.2519 319.125 16.7815 320.318 17.9222C322.029 16.4185 323.818 15.1741 325.684 14.1889C329.832 12.0111 333.695 10.9222 337.273 10.9222C338.673 10.9222 339.866 11.2333 340.851 11.8556C341.058 11.0778 341.162 10.3259 341.162 9.6C341.162 8.0963 340.618 6.85185 339.529 5.86667C338.44 4.88148 336.832 4.38889 334.707 4.38889C330.818 4.38889 326.903 5.4 322.962 7.42222C319.073 9.44444 315.599 12.0889 312.54 15.3556C309.532 18.5704 306.81 22.0963 304.373 25.9333C301.988 29.7704 300.147 33.6074 298.851 37.4444C297.607 41.2815 296.984 44.7296 296.984 47.7889C296.984 50.6926 297.607 52.9741 298.851 54.6333C300.147 56.3444 302.118 57.2 304.762 57.2ZM340.462 12.7889C339.788 11.8037 338.803 11.3111 337.507 11.3111C332.892 11.3111 327.914 14.0074 322.573 19.4C323.921 19.9704 325.529 20.2556 327.395 20.2556C330.558 20.2556 333.307 19.5296 335.64 18.0778C337.973 16.6259 339.581 14.863 340.462 12.7889ZM383.188 3.44V4.84C381.601 4.88666 380.388 5.12 379.548 5.54C378.755 5.96 378.218 6.63666 377.938 7.57C377.658 8.50333 377.518 9.83333 377.518 11.56V32.63C377.518 35.8967 377.308 38.7433 376.888 41.17C376.468 43.5967 375.721 45.6967 374.648 47.47C373.481 49.43 371.778 51.0167 369.538 52.23C367.298 53.3967 364.731 53.98 361.838 53.98C359.598 53.98 357.451 53.7 355.398 53.14C353.391 52.6267 351.618 51.6467 350.078 50.2C348.725 48.8933 347.651 47.5167 346.858 46.07C346.111 44.6233 345.598 42.85 345.318 40.75C345.038 38.65 344.898 36.0133 344.898 32.84V10.86C344.898 9.13333 344.758 7.87333 344.478 7.08C344.198 6.24 343.638 5.68 342.798 5.4C342.005 5.07333 340.815 4.88666 339.228 4.84V3.44C340.208 3.48667 341.491 3.53333 343.078 3.58C344.665 3.62666 346.368 3.65 348.188 3.65C349.821 3.65 351.431 3.62666 353.018 3.58C354.651 3.53333 356.005 3.48667 357.078 3.44V4.84C355.491 4.88666 354.278 5.07333 353.438 5.4C352.645 5.68 352.108 6.24 351.828 7.08C351.548 7.87333 351.408 9.13333 351.408 10.86V34.03C351.408 37.2033 351.641 40.12 352.108 42.78C352.575 45.44 353.578 47.5633 355.118 49.15C356.705 50.7367 359.155 51.53 362.468 51.53C366.015 51.53 368.745 50.76 370.658 49.22C372.618 47.6333 373.971 45.4633 374.718 42.71C375.511 39.9567 375.908 36.8533 375.908 33.4V11.56C375.908 9.83333 375.698 8.50333 375.278 7.57C374.905 6.63666 374.251 5.96 373.318 5.54C372.385 5.12 371.125 4.88666 369.538 4.84V3.44C370.378 3.48667 371.475 3.53333 372.828 3.58C374.228 3.62666 375.511 3.65 376.678 3.65C377.891 3.65 379.081 3.62666 380.248 3.58C381.461 3.53333 382.441 3.48667 383.188 3.44ZM387.993 3.44C388.973 3.48667 390.256 3.53333 391.843 3.58C393.429 3.62666 394.993 3.65 396.533 3.65C398.726 3.65 400.826 3.62666 402.833 3.58C404.839 3.53333 406.263 3.51 407.103 3.51C412.749 3.51 416.973 4.67667 419.773 7.01C422.573 9.34333 423.973 12.2367 423.973 15.69C423.973 17.09 423.693 18.5833 423.133 20.17C422.573 21.7567 421.593 23.25 420.193 24.65C418.839 26.05 416.973 27.2167 414.593 28.15C412.213 29.0367 409.203 29.48 405.563 29.48H398.843V28.08H404.863C408.176 28.08 410.696 27.5667 412.423 26.54C414.196 25.4667 415.386 24.0667 415.993 22.34C416.646 20.5667 416.973 18.6067 416.973 16.46C416.973 12.7733 416.086 9.92666 414.313 7.92C412.586 5.86666 409.599 4.84 405.353 4.84C403.206 4.84 401.806 5.23667 401.153 6.03C400.499 6.82333 400.173 8.43333 400.173 10.86V45.58C400.173 47.26 400.313 48.52 400.593 49.36C400.873 50.2 401.409 50.76 402.203 51.04C403.043 51.32 404.256 51.5067 405.843 51.6V53C404.769 52.9067 403.416 52.86 401.783 52.86C400.196 52.8133 398.586 52.79 396.953 52.79C395.133 52.79 393.429 52.8133 391.843 52.86C390.256 52.86 388.973 52.9067 387.993 53V51.6C389.579 51.5067 390.769 51.32 391.563 51.04C392.403 50.76 392.963 50.2 393.243 49.36C393.523 48.52 393.663 47.26 393.663 45.58V10.86C393.663 9.13333 393.523 7.87333 393.243 7.08C392.963 6.24 392.403 5.68 391.563 5.4C390.769 5.07333 389.579 4.88666 387.993 4.84V3.44ZM399.123 28.29C401.643 28.3833 403.626 28.5 405.073 28.64C406.519 28.7333 407.686 28.8267 408.573 28.92C409.506 29.0133 410.393 29.13 411.233 29.27C414.359 29.7833 416.599 30.74 417.953 32.14C419.353 33.4933 420.379 35.6167 421.033 38.51L422.783 45.65C423.249 47.7033 423.716 49.1967 424.183 50.13C424.696 51.0167 425.466 51.4367 426.493 51.39C427.286 51.3433 427.939 51.0867 428.453 50.62C429.013 50.1533 429.596 49.5233 430.203 48.73L431.253 49.5C430.273 50.9467 429.246 52.0667 428.173 52.86C427.146 53.6067 425.676 53.98 423.763 53.98C422.036 53.98 420.519 53.4667 419.213 52.44C417.906 51.4133 416.926 49.4067 416.273 46.42L414.733 39.42C414.313 37.4133 413.823 35.6867 413.263 34.24C412.749 32.7467 412.003 31.58 411.023 30.74C410.089 29.9 408.689 29.48 406.823 29.48H399.263L399.123 28.29ZM101.589 66.2222C102.211 66.2222 102.704 66.4296 103.067 66.8444C103.43 67.2593 103.559 67.9333 103.456 68.8667C103.352 69.8519 102.367 71.7185 100.5 74.4667C98.6333 77.2148 96.4037 80.3519 93.8111 83.8778C91.2185 87.3519 88.6259 90.9296 86.0333 94.6111C83.4407 98.2926 81.1593 101.948 79.1889 105.578C77.2185 109.156 76.1037 112.033 75.8444 114.211C75.7407 115.093 75.6889 115.922 75.6889 116.7C75.6889 120.744 77.1407 122.767 80.0444 122.767C81.6519 122.767 83.1815 122.274 84.6333 121.289C86.0852 120.356 87.2259 118.981 88.0556 117.167H88.1333C86.7333 121.004 84.037 122.922 80.0444 122.922C78.7481 122.922 77.6074 122.611 76.6222 121.989C75.6889 121.419 74.9889 120.641 74.5222 119.656C74.0556 118.722 73.7185 117.789 73.5111 116.856C73.3037 115.922 73.2 114.989 73.2 114.056C73.2 113.589 73.2259 113.148 73.2778 112.733C73.5889 109.985 74.7815 106.693 76.8556 102.856C78.9296 99.0185 81.3148 95.2593 84.0111 91.5778C86.7074 87.8963 89.4037 84.3704 92.1 81C94.7963 77.6296 97.0778 74.6741 98.9445 72.1333C100.863 69.5926 101.874 67.8815 101.978 67C102.03 66.637 101.9 66.4556 101.589 66.4556C100.344 66.4556 97.3889 69.0222 92.7222 74.1556C88.1074 79.2889 83.337 84.9407 78.4111 91.1111C73.537 97.2296 68.9222 102.856 64.5667 107.989C60.2111 113.07 57.6704 115.611 56.9444 115.611C56.6333 115.611 56.3222 115.404 56.0111 114.989C55.7519 114.574 55.6222 114.03 55.6222 113.356C55.6222 111.748 56.737 109.233 58.9667 105.811C61.1963 102.337 63.9185 98.6556 67.1333 94.7667C70.3481 90.8778 73.563 87.0667 76.7778 83.3333C79.9926 79.5481 82.7667 76.1519 85.1 73.1444C87.4333 70.137 88.6519 68.1148 88.7556 67.0778C88.8074 66.663 88.6519 66.4556 88.2889 66.4556C87.4593 66.4556 86.163 67.2852 84.4 68.9444C82.6889 70.5518 80.7185 72.7037 78.4889 75.4C76.2593 78.0963 73.6667 81.1556 70.7111 84.5778C67.8074 87.9481 64.8 91.4222 61.6889 95C58.5778 98.5778 55.1815 102.078 51.5 105.5C47.8704 108.87 44.2667 111.904 40.6889 114.6C37.163 117.244 33.4296 119.37 29.4889 120.978C25.6 122.637 21.9185 123.467 18.4444 123.467C14.1926 123.467 11.0037 122.456 8.87778 120.433C6.8037 118.411 5.76667 115.767 5.76667 112.5C5.76667 110.219 6.23333 107.833 7.16667 105.344C8.15185 102.804 9.6037 100.341 11.5222 97.9556C13.4926 95.5704 15.7481 93.4185 18.2889 91.5C20.8296 89.5815 23.8111 88.0519 27.2333 86.9111C30.7074 85.7185 34.3111 85.1222 38.0444 85.1222C41.3111 85.1222 43.7481 85.7444 45.3556 86.9889C46.963 88.2333 47.7667 89.8926 47.7667 91.9667C47.7667 93.7815 47.1704 95.7 45.9778 97.7222C44.837 99.7444 43.3074 101.611 41.3889 103.322C39.5222 105.033 37.2148 106.459 34.4667 107.6C31.7185 108.741 28.8926 109.311 25.9889 109.311C24.1741 109.311 22.5667 108.974 21.1667 108.3C19.7667 107.574 19.1444 106.589 19.3 105.344L19.4556 105.267C19.5593 105.837 19.8185 106.278 20.2333 106.589C20.6481 106.9 21.1926 107.133 21.8667 107.289C22.5926 107.393 23.1889 107.47 23.6556 107.522C24.1222 107.522 24.7444 107.522 25.5222 107.522C25.6778 107.522 25.8074 107.522 25.9111 107.522C28.763 107.522 31.537 107.004 34.2333 105.967C36.9815 104.93 39.2889 103.633 41.1556 102.078C43.0741 100.47 44.6037 98.7593 45.7444 96.9444C46.8852 95.0778 47.4556 93.3148 47.4556 91.6556C47.4556 89.7889 46.6778 88.2852 45.1222 87.1444C43.5667 86.0037 41.2074 85.4333 38.0444 85.4333C33.7407 85.4333 29.5926 86.263 25.6 87.9222C21.6074 89.5815 18.2889 91.6815 15.6444 94.2222C13 96.7111 10.9 99.4074 9.34444 102.311C7.78889 105.215 7.01111 107.989 7.01111 110.633C7.01111 113.485 7.9963 115.793 9.96667 117.556C11.937 119.319 14.9185 120.2 18.9111 120.2C23.163 120.2 27.5704 119.189 32.1333 117.167C36.7481 115.196 41.0519 112.63 45.0444 109.467C49.0889 106.304 53.0556 102.804 56.9444 98.9667C60.8852 95.1296 64.4889 91.2926 67.7556 87.4556C71.0741 83.6185 74.0556 80.1185 76.7 76.9556C79.3963 73.7407 81.7556 71.1481 83.7778 69.1778C85.8 67.2074 87.3037 66.2222 88.2889 66.2222C88.6 66.2222 88.8852 66.3519 89.1444 66.6111C89.4556 66.8185 89.6111 67.1815 89.6111 67.7C89.6111 68.9963 88.5222 71.3296 86.3444 74.7C84.1667 78.0185 81.4963 81.7259 78.3333 85.8222C75.2222 89.8667 72.0852 93.8852 68.9222 97.8778C65.7593 101.87 62.9852 105.448 60.6 108.611C58.2148 111.774 56.8926 113.822 56.6333 114.756C56.5815 115.119 56.6852 115.3 56.9444 115.3C57.6185 115.3 60.1074 112.759 64.4111 107.678C68.7667 102.544 73.3815 96.9185 78.2556 90.8C83.1815 84.6296 87.9778 79.0037 92.6444 73.9222C97.3111 68.7889 100.293 66.2222 101.589 66.2222ZM139.368 66.44C139.181 68.0733 139.041 69.66 138.948 71.2C138.901 72.74 138.878 73.9067 138.878 74.7C138.878 75.54 138.901 76.3567 138.948 77.15C138.995 77.8967 139.041 78.5267 139.088 79.04H137.478C137.198 76.2867 136.801 74.1167 136.288 72.53C135.775 70.8967 134.888 69.7533 133.628 69.1C132.415 68.4 130.571 68.05 128.098 68.05H122.288C120.701 68.05 119.488 68.19 118.648 68.47C117.855 68.7033 117.318 69.24 117.038 70.08C116.758 70.8733 116.618 72.1333 116.618 73.86V108.58C116.618 110.26 116.758 111.52 117.038 112.36C117.318 113.2 117.855 113.76 118.648 114.04C119.488 114.273 120.701 114.39 122.288 114.39H127.398C130.338 114.39 132.555 113.993 134.048 113.2C135.588 112.407 136.685 111.123 137.338 109.35C138.038 107.53 138.551 105.08 138.878 102H140.488C140.348 103.26 140.278 104.94 140.278 107.04C140.278 107.927 140.301 109.21 140.348 110.89C140.441 112.523 140.581 114.227 140.768 116C138.388 115.907 135.705 115.86 132.718 115.86C129.731 115.813 127.071 115.79 124.738 115.79C123.338 115.79 121.471 115.79 119.138 115.79C116.851 115.79 114.401 115.813 111.788 115.86C109.175 115.86 106.725 115.907 104.438 116V114.6C106.025 114.507 107.215 114.32 108.008 114.04C108.848 113.76 109.408 113.2 109.688 112.36C109.968 111.52 110.108 110.26 110.108 108.58V73.86C110.108 72.1333 109.968 70.8733 109.688 70.08C109.408 69.24 108.848 68.68 108.008 68.4C107.215 68.0733 106.025 67.8867 104.438 67.84V66.44C106.725 66.4867 109.175 66.5333 111.788 66.58C114.401 66.6267 116.851 66.65 119.138 66.65C121.471 66.65 123.338 66.65 124.738 66.65C126.885 66.65 129.311 66.65 132.018 66.65C134.771 66.6033 137.221 66.5333 139.368 66.44ZM127.328 90.38C127.328 90.38 127.328 90.6133 127.328 91.08C127.328 91.5467 127.328 91.78 127.328 91.78H114.518C114.518 91.78 114.518 91.5467 114.518 91.08C114.518 90.6133 114.518 90.38 114.518 90.38H127.328ZM129.358 81.14C129.171 83.8 129.078 85.83 129.078 87.23C129.125 88.63 129.148 89.9133 129.148 91.08C129.148 92.2467 129.171 93.53 129.218 94.93C129.265 96.33 129.381 98.36 129.568 101.02H127.958C127.771 99.5267 127.538 98.08 127.258 96.68C127.025 95.2333 126.465 94.0667 125.578 93.18C124.738 92.2467 123.291 91.78 121.238 91.78V90.38C123.291 90.38 124.715 89.8433 125.508 88.77C126.348 87.6967 126.885 86.4367 127.118 84.99C127.351 83.5433 127.561 82.26 127.748 81.14H129.358ZM164.944 66.44V67.84C163.358 67.8867 162.144 68.0733 161.304 68.4C160.511 68.68 159.974 69.24 159.694 70.08C159.414 70.8733 159.274 72.1333 159.274 73.86V108.58C159.274 110.26 159.414 111.52 159.694 112.36C159.974 113.2 160.511 113.76 161.304 114.04C162.144 114.273 163.358 114.39 164.944 114.39H170.054C172.994 114.39 175.211 113.97 176.704 113.13C178.244 112.29 179.341 110.913 179.994 109C180.694 107.087 181.208 104.52 181.534 101.3H183.144C183.004 102.747 182.934 104.66 182.934 107.04C182.934 107.927 182.958 109.21 183.004 110.89C183.098 112.523 183.238 114.227 183.424 116C181.044 115.907 178.361 115.86 175.374 115.86C172.388 115.813 169.728 115.79 167.394 115.79C165.994 115.79 164.128 115.79 161.794 115.79C159.508 115.79 157.058 115.813 154.444 115.86C151.831 115.86 149.381 115.907 147.094 116V114.6C148.681 114.507 149.871 114.32 150.664 114.04C151.504 113.76 152.064 113.2 152.344 112.36C152.624 111.52 152.764 110.26 152.764 108.58V73.86C152.764 72.1333 152.624 70.8733 152.344 70.08C152.064 69.24 151.504 68.68 150.664 68.4C149.871 68.0733 148.681 67.8867 147.094 67.84V66.44C148.074 66.4867 149.358 66.5333 150.944 66.58C152.531 66.6267 154.234 66.65 156.054 66.65C157.688 66.65 159.298 66.6267 160.884 66.58C162.518 66.5333 163.871 66.4867 164.944 66.44ZM211.277 65.46C215.71 65.46 219.583 66.4633 222.897 68.47C226.257 70.4767 228.847 73.37 230.667 77.15C232.533 80.8833 233.467 85.4333 233.467 90.8C233.467 96.0267 232.51 100.6 230.597 104.52C228.73 108.44 226.117 111.497 222.757 113.69C219.397 115.883 215.547 116.98 211.207 116.98C206.773 116.98 202.877 115.977 199.517 113.97C196.203 111.963 193.613 109.07 191.747 105.29C189.927 101.51 189.017 96.96 189.017 91.64C189.017 86.4133 189.973 81.84 191.887 77.92C193.8 74 196.413 70.9433 199.727 68.75C203.087 66.5567 206.937 65.46 211.277 65.46ZM210.997 66.72C207.963 66.72 205.327 67.77 203.087 69.87C200.847 71.97 199.097 74.8633 197.837 78.55C196.623 82.2367 196.017 86.5067 196.017 91.36C196.017 96.3067 196.693 100.623 198.047 104.31C199.447 107.95 201.313 110.773 203.647 112.78C206.027 114.74 208.64 115.72 211.487 115.72C214.52 115.72 217.157 114.67 219.397 112.57C221.637 110.47 223.363 107.577 224.577 103.89C225.837 100.157 226.467 95.8867 226.467 91.08C226.467 86.0867 225.767 81.77 224.367 78.13C223.013 74.49 221.17 71.69 218.837 69.73C216.503 67.7233 213.89 66.72 210.997 66.72ZM258.695 66.44C267.048 66.44 273.255 68.54 277.315 72.74C281.375 76.8933 283.405 82.8667 283.405 90.66C283.405 95.7467 282.401 100.203 280.395 104.03C278.435 107.81 275.565 110.75 271.785 112.85C268.005 114.95 263.431 116 258.065 116C257.038 116 255.521 115.977 253.515 115.93C251.508 115.837 249.758 115.79 248.265 115.79C246.631 115.79 245.021 115.813 243.435 115.86C241.848 115.86 240.565 115.907 239.585 116V114.6C241.171 114.507 242.361 114.32 243.155 114.04C243.995 113.76 244.555 113.2 244.835 112.36C245.115 111.52 245.255 110.26 245.255 108.58V73.86C245.255 72.1333 245.115 70.8733 244.835 70.08C244.555 69.24 243.995 68.68 243.155 68.4C242.361 68.0733 241.171 67.8867 239.585 67.84V66.44C240.565 66.4867 241.848 66.5567 243.435 66.65C245.021 66.6967 246.585 66.6967 248.125 66.65C249.758 66.6033 251.601 66.5567 253.655 66.51C255.708 66.4633 257.388 66.44 258.695 66.44ZM256.945 67.7C254.798 67.7 253.398 68.0967 252.745 68.89C252.091 69.6833 251.765 71.2933 251.765 73.72V108.72C251.765 111.147 252.091 112.757 252.745 113.55C253.445 114.343 254.868 114.74 257.015 114.74C262.101 114.74 266.045 113.83 268.845 112.01C271.645 110.143 273.605 107.437 274.725 103.89C275.845 100.343 276.405 96.0267 276.405 90.94C276.405 83.1 274.958 77.2667 272.065 73.44C269.218 69.6133 264.178 67.7 256.945 67.7ZM307.405 66.44V67.84C305.819 67.8867 304.605 68.0733 303.765 68.4C302.972 68.68 302.435 69.24 302.155 70.08C301.875 70.8733 301.735 72.1333 301.735 73.86V108.58C301.735 110.26 301.875 111.52 302.155 112.36C302.435 113.2 302.972 113.76 303.765 114.04C304.605 114.32 305.819 114.507 307.405 114.6V116C306.332 115.907 304.979 115.86 303.345 115.86C301.759 115.813 300.149 115.79 298.515 115.79C296.695 115.79 294.992 115.813 293.405 115.86C291.819 115.86 290.535 115.907 289.555 116V114.6C291.142 114.507 292.332 114.32 293.125 114.04C293.965 113.76 294.525 113.2 294.805 112.36C295.085 111.52 295.225 110.26 295.225 108.58V73.86C295.225 72.1333 295.085 70.8733 294.805 70.08C294.525 69.24 293.965 68.68 293.125 68.4C292.332 68.0733 291.142 67.8867 289.555 67.84V66.44C290.535 66.4867 291.819 66.5333 293.405 66.58C294.992 66.6267 296.695 66.65 298.515 66.65C300.149 66.65 301.759 66.6267 303.345 66.58C304.979 66.5333 306.332 66.4867 307.405 66.44ZM335.759 65.46C338.839 65.46 341.359 65.9267 343.319 66.86C345.326 67.7467 347.099 68.7967 348.639 70.01C349.572 70.71 350.272 70.8033 350.739 70.29C351.252 69.73 351.602 68.4467 351.789 66.44H353.399C353.306 68.1667 353.236 70.2667 353.189 72.74C353.142 75.2133 353.119 78.48 353.119 82.54H351.509C351.182 80.5333 350.879 78.9467 350.599 77.78C350.319 76.5667 349.969 75.54 349.549 74.7C349.176 73.86 348.662 73.02 348.009 72.18C346.562 70.2667 344.742 68.89 342.549 68.05C340.356 67.1633 338.046 66.72 335.619 66.72C333.332 66.72 331.256 67.3033 329.389 68.47C327.569 69.59 325.982 71.2233 324.629 73.37C323.322 75.5167 322.296 78.1067 321.549 81.14C320.849 84.1733 320.499 87.58 320.499 91.36C320.499 95.28 320.896 98.7567 321.689 101.79C322.482 104.777 323.579 107.297 324.979 109.35C326.426 111.403 328.106 112.967 330.019 114.04C331.979 115.067 334.079 115.58 336.319 115.58C338.419 115.58 340.612 115.16 342.899 114.32C345.186 113.48 346.982 112.127 348.289 110.26C349.316 108.907 350.016 107.437 350.389 105.85C350.809 104.263 351.182 102.047 351.509 99.2H353.119C353.119 103.447 353.142 106.877 353.189 109.49C353.236 112.057 353.306 114.227 353.399 116H351.789C351.602 113.993 351.276 112.733 350.809 112.22C350.389 111.707 349.666 111.777 348.639 112.43C346.912 113.643 345.069 114.717 343.109 115.65C341.196 116.537 338.722 116.98 335.689 116.98C331.256 116.98 327.359 115.977 323.999 113.97C320.686 111.963 318.096 109.07 316.229 105.29C314.409 101.51 313.499 96.96 313.499 91.64C313.499 86.4133 314.456 81.84 316.369 77.92C318.282 74 320.896 70.9433 324.209 68.75C327.569 66.5567 331.419 65.46 335.759 65.46ZM77.3222 131.944C78.5667 131.944 79.163 132.152 79.1111 132.567C79.1111 132.67 79.0593 132.748 78.9556 132.8C78.6963 133.059 78.2556 133.189 77.6333 133.189C77.063 133.189 76.4667 133.059 75.8444 132.8C75.3778 132.644 74.7556 132.67 73.9778 132.878C73.2519 133.033 72.137 133.759 70.6333 135.056C69.1296 136.352 67.5741 138.167 65.9667 140.5C65.6037 141.07 64.7222 142.704 63.3222 145.4C63.8926 145.4 64.7222 145.374 65.8111 145.322C66.8481 145.219 67.6778 145.167 68.3 145.167C68.663 145.167 68.8444 145.296 68.8444 145.556C68.8444 145.763 68.663 145.867 68.3 145.867C67.5741 145.867 66.9 145.867 66.2778 145.867C66.1222 145.867 65.6815 145.867 64.9556 145.867C64.2296 145.815 63.6074 145.789 63.0889 145.789C60.4444 150.819 58.0852 155.07 56.0111 158.544C57.9296 158.493 59.9519 158.259 62.0778 157.844C63.7889 157.533 65.6037 157.041 67.5222 156.367V156.522C65.0333 157.663 62.7259 158.441 60.6 158.856C60.4963 158.907 60.3667 158.933 60.2111 158.933C58.5519 159.244 56.9444 159.426 55.3889 159.478C41.0259 183.07 26.5333 194.867 11.9111 194.867C8.02222 194.867 5.11852 193.985 3.2 192.222C1.28148 190.511 0.322222 188.204 0.322222 185.3C0.322222 183.019 0.892593 180.556 2.03333 177.911C3.17407 175.267 4.80741 172.674 6.93333 170.133C9.11111 167.593 11.6 165.285 14.4 163.211C17.2 161.085 20.4667 159.374 24.2 158.078C27.9333 156.781 31.7444 156.133 35.6333 156.133C38.6407 156.133 40.8963 156.73 42.4 157.922C43.9037 159.115 44.6556 160.67 44.6556 162.589C44.6556 164.352 43.9815 166.296 42.6333 168.422C41.337 170.548 39.6259 172.519 37.5 174.333C35.4259 176.148 32.9111 177.652 29.9556 178.844C27 180.037 24.0185 180.633 21.0111 180.633C19.1963 180.633 17.6148 180.296 16.2667 179.622C14.9185 178.948 14.4 177.989 14.7111 176.744L14.8667 176.667C14.9185 177.185 15.1259 177.626 15.4889 177.989C15.8519 178.3 16.3704 178.533 17.0444 178.689C17.7704 178.793 18.3667 178.87 18.8333 178.922C19.3 178.922 19.9222 178.922 20.7 178.922C20.9074 178.922 21.037 178.922 21.0889 178.922C24.0444 178.922 26.9741 178.378 29.8778 177.289C32.8333 176.148 35.3222 174.748 37.3444 173.089C39.4185 171.43 41.1037 169.641 42.4 167.722C43.6963 165.804 44.3444 164.015 44.3444 162.356C44.3444 160.696 43.6185 159.374 42.1667 158.389C40.7148 157.352 38.5111 156.833 35.5556 156.833C31.0444 156.833 26.637 157.741 22.3333 159.556C18.0815 161.319 14.4778 163.522 11.5222 166.167C8.61852 168.811 6.28519 171.663 4.52222 174.722C2.70741 177.781 1.8 180.607 1.8 183.2C1.8 185.741 2.70741 187.763 4.52222 189.267C6.33704 190.77 9.08519 191.522 12.7667 191.522C26.7667 191.522 40.6111 180.841 54.3 159.478C49.1667 159.478 45.2 158.181 42.4 155.589C39.6519 152.944 38.2778 149.756 38.2778 146.022C38.2778 143.948 38.6926 141.952 39.5222 140.033C40.3519 138.115 41.5444 136.352 43.1 134.744C44.7074 133.137 46.7556 131.867 49.2444 130.933C51.7333 129.948 54.5074 129.456 57.5667 129.456C59.2259 129.456 62 129.922 65.8889 130.856C69.7778 131.789 72.7333 132.256 74.7556 132.256C75.7407 132.048 76.5963 131.944 77.3222 131.944ZM65.6556 140.267C68.5074 136.222 70.9185 133.707 72.8889 132.722C71.3333 132.67 68.8444 132.567 65.4222 132.411C62.0519 132.256 59.4852 132.178 57.7222 132.178C51.863 132.178 47.2222 133.63 43.8 136.533C40.4296 139.385 38.7444 142.678 38.7444 146.411C38.7444 149.781 40.1444 152.659 42.9444 155.044C45.7444 157.378 49.763 158.544 55 158.544C57.1778 155.07 59.6667 150.819 62.4667 145.789C62 145.789 61.5852 145.789 61.2222 145.789C60.4444 145.789 59.2519 145.815 57.6444 145.867C56.3481 145.919 55.5185 145.944 55.1556 145.944C54.7407 145.944 54.5333 145.841 54.5333 145.633C54.5333 145.374 54.7407 145.244 55.1556 145.244C55.6222 145.244 56.5037 145.27 57.8 145.322C59.3556 145.374 60.4963 145.4 61.2222 145.4C61.7407 145.4 62.2074 145.4 62.6222 145.4C64.2296 142.496 65.2407 140.785 65.6556 140.267ZM91.3743 128.46C95.8076 128.46 99.681 129.463 102.994 131.47C106.354 133.477 108.944 136.37 110.764 140.15C112.631 143.883 113.564 148.433 113.564 153.8C113.564 159.027 112.608 163.6 110.694 167.52C108.828 171.44 106.214 174.497 102.854 176.69C99.4943 178.883 95.6443 179.98 91.3043 179.98C86.871 179.98 82.9743 178.977 79.6143 176.97C76.301 174.963 73.711 172.07 71.8443 168.29C70.0243 164.51 69.1143 159.96 69.1143 154.64C69.1143 149.413 70.071 144.84 71.9843 140.92C73.8976 137 76.511 133.943 79.8243 131.75C83.1843 129.557 87.0343 128.46 91.3743 128.46ZM91.0943 129.72C88.061 129.72 85.4243 130.77 83.1843 132.87C80.9443 134.97 79.1943 137.863 77.9343 141.55C76.721 145.237 76.1143 149.507 76.1143 154.36C76.1143 159.307 76.791 163.623 78.1443 167.31C79.5443 170.95 81.411 173.773 83.7443 175.78C86.1243 177.74 88.7376 178.72 91.5843 178.72C94.6176 178.72 97.2543 177.67 99.4943 175.57C101.734 173.47 103.461 170.577 104.674 166.89C105.934 163.157 106.564 158.887 106.564 154.08C106.564 149.087 105.864 144.77 104.464 141.13C103.111 137.49 101.268 134.69 98.9343 132.73C96.601 130.723 93.9876 129.72 91.0943 129.72ZM162.729 129.44V130.84C161.142 130.887 159.929 131.12 159.089 131.54C158.296 131.96 157.759 132.637 157.479 133.57C157.199 134.503 157.059 135.833 157.059 137.56V158.63C157.059 161.897 156.849 164.743 156.429 167.17C156.009 169.597 155.262 171.697 154.189 173.47C153.022 175.43 151.319 177.017 149.079 178.23C146.839 179.397 144.272 179.98 141.379 179.98C139.139 179.98 136.992 179.7 134.939 179.14C132.932 178.627 131.159 177.647 129.619 176.2C128.266 174.893 127.192 173.517 126.399 172.07C125.652 170.623 125.139 168.85 124.859 166.75C124.579 164.65 124.439 162.013 124.439 158.84V136.86C124.439 135.133 124.299 133.873 124.019 133.08C123.739 132.24 123.179 131.68 122.339 131.4C121.546 131.073 120.356 130.887 118.769 130.84V129.44C119.749 129.487 121.032 129.533 122.619 129.58C124.206 129.627 125.909 129.65 127.729 129.65C129.362 129.65 130.972 129.627 132.559 129.58C134.192 129.533 135.546 129.487 136.619 129.44V130.84C135.032 130.887 133.819 131.073 132.979 131.4C132.186 131.68 131.649 132.24 131.369 133.08C131.089 133.873 130.949 135.133 130.949 136.86V160.03C130.949 163.203 131.182 166.12 131.649 168.78C132.116 171.44 133.119 173.563 134.659 175.15C136.246 176.737 138.696 177.53 142.009 177.53C145.556 177.53 148.286 176.76 150.199 175.22C152.159 173.633 153.512 171.463 154.259 168.71C155.052 165.957 155.449 162.853 155.449 159.4V137.56C155.449 135.833 155.239 134.503 154.819 133.57C154.446 132.637 153.792 131.96 152.859 131.54C151.926 131.12 150.666 130.887 149.079 130.84V129.44C149.919 129.487 151.016 129.533 152.369 129.58C153.769 129.627 155.052 129.65 156.219 129.65C157.432 129.65 158.622 129.627 159.789 129.58C161.002 129.533 161.982 129.487 162.729 129.44ZM167.534 129.44C168.514 129.487 169.797 129.533 171.384 129.58C172.97 129.627 174.534 129.65 176.074 129.65C178.267 129.65 180.367 129.627 182.374 129.58C184.38 129.533 185.804 129.51 186.644 129.51C192.29 129.51 196.514 130.677 199.314 133.01C202.114 135.343 203.514 138.237 203.514 141.69C203.514 143.09 203.234 144.583 202.674 146.17C202.114 147.757 201.134 149.25 199.734 150.65C198.38 152.05 196.514 153.217 194.134 154.15C191.754 155.037 188.744 155.48 185.104 155.48H178.384V154.08H184.404C187.717 154.08 190.237 153.567 191.964 152.54C193.737 151.467 194.927 150.067 195.534 148.34C196.187 146.567 196.514 144.607 196.514 142.46C196.514 138.773 195.627 135.927 193.854 133.92C192.127 131.867 189.14 130.84 184.894 130.84C182.747 130.84 181.347 131.237 180.694 132.03C180.04 132.823 179.714 134.433 179.714 136.86V171.58C179.714 173.26 179.854 174.52 180.134 175.36C180.414 176.2 180.95 176.76 181.744 177.04C182.584 177.32 183.797 177.507 185.384 177.6V179C184.31 178.907 182.957 178.86 181.324 178.86C179.737 178.813 178.127 178.79 176.494 178.79C174.674 178.79 172.97 178.813 171.384 178.86C169.797 178.86 168.514 178.907 167.534 179V177.6C169.12 177.507 170.31 177.32 171.104 177.04C171.944 176.76 172.504 176.2 172.784 175.36C173.064 174.52 173.204 173.26 173.204 171.58V136.86C173.204 135.133 173.064 133.873 172.784 133.08C172.504 132.24 171.944 131.68 171.104 131.4C170.31 131.073 169.12 130.887 167.534 130.84V129.44ZM178.664 154.29C181.184 154.383 183.167 154.5 184.614 154.64C186.06 154.733 187.227 154.827 188.114 154.92C189.047 155.013 189.934 155.13 190.774 155.27C193.9 155.783 196.14 156.74 197.494 158.14C198.894 159.493 199.92 161.617 200.574 164.51L202.324 171.65C202.79 173.703 203.257 175.197 203.724 176.13C204.237 177.017 205.007 177.437 206.034 177.39C206.827 177.343 207.48 177.087 207.994 176.62C208.554 176.153 209.137 175.523 209.744 174.73L210.794 175.5C209.814 176.947 208.787 178.067 207.714 178.86C206.687 179.607 205.217 179.98 203.304 179.98C201.577 179.98 200.06 179.467 198.754 178.44C197.447 177.413 196.467 175.407 195.814 172.42L194.274 165.42C193.854 163.413 193.364 161.687 192.804 160.24C192.29 158.747 191.544 157.58 190.564 156.74C189.63 155.9 188.23 155.48 186.364 155.48H178.804L178.664 154.29ZM256.884 129.44V130.84C255.298 130.887 254.084 131.12 253.244 131.54C252.451 131.96 251.914 132.637 251.634 133.57C251.354 134.503 251.214 135.833 251.214 137.56V179.35C250.934 179.35 250.654 179.35 250.374 179.35C250.141 179.35 249.884 179.35 249.604 179.35L220.204 133.92V170.88C220.204 172.56 220.344 173.89 220.624 174.87C220.951 175.803 221.558 176.48 222.444 176.9C223.378 177.273 224.754 177.507 226.574 177.6V179C225.734 178.907 224.638 178.86 223.284 178.86C221.931 178.813 220.648 178.79 219.434 178.79C218.268 178.79 217.078 178.813 215.864 178.86C214.698 178.86 213.718 178.907 212.924 179V177.6C214.511 177.507 215.701 177.273 216.494 176.9C217.334 176.48 217.894 175.803 218.174 174.87C218.454 173.89 218.594 172.56 218.594 170.88V136.86C218.594 135.133 218.454 133.873 218.174 133.08C217.894 132.24 217.334 131.68 216.494 131.4C215.701 131.073 214.511 130.887 212.924 130.84V129.44C213.718 129.487 214.698 129.533 215.864 129.58C217.078 129.627 218.268 129.65 219.434 129.65C220.461 129.65 221.441 129.627 222.374 129.58C223.308 129.533 224.148 129.487 224.894 129.44L249.604 167.52V137.56C249.604 135.833 249.441 134.503 249.114 133.57C248.834 132.637 248.228 131.96 247.294 131.54C246.408 131.12 245.054 130.887 243.234 130.84V129.44C244.074 129.487 245.171 129.533 246.524 129.58C247.924 129.627 249.208 129.65 250.374 129.65C251.588 129.65 252.778 129.627 253.944 129.58C255.158 129.533 256.138 129.487 256.884 129.44ZM297.278 129.44C297.092 131.073 296.952 132.66 296.858 134.2C296.812 135.74 296.788 136.907 296.788 137.7C296.788 138.54 296.812 139.357 296.858 140.15C296.905 140.897 296.952 141.527 296.998 142.04H295.388C295.108 139.287 294.712 137.117 294.198 135.53C293.685 133.897 292.798 132.753 291.538 132.1C290.325 131.4 288.482 131.05 286.008 131.05H280.198C278.612 131.05 277.398 131.19 276.558 131.47C275.765 131.703 275.228 132.24 274.948 133.08C274.668 133.873 274.528 135.133 274.528 136.86V171.58C274.528 173.26 274.668 174.52 274.948 175.36C275.228 176.2 275.765 176.76 276.558 177.04C277.398 177.273 278.612 177.39 280.198 177.39H285.308C288.248 177.39 290.465 176.993 291.958 176.2C293.498 175.407 294.595 174.123 295.248 172.35C295.948 170.53 296.462 168.08 296.788 165H298.398C298.258 166.26 298.188 167.94 298.188 170.04C298.188 170.927 298.212 172.21 298.258 173.89C298.352 175.523 298.492 177.227 298.678 179C296.298 178.907 293.615 178.86 290.628 178.86C287.642 178.813 284.982 178.79 282.648 178.79C281.248 178.79 279.382 178.79 277.048 178.79C274.762 178.79 272.312 178.813 269.698 178.86C267.085 178.86 264.635 178.907 262.348 179V177.6C263.935 177.507 265.125 177.32 265.918 177.04C266.758 176.76 267.318 176.2 267.598 175.36C267.878 174.52 268.018 173.26 268.018 171.58V136.86C268.018 135.133 267.878 133.873 267.598 133.08C267.318 132.24 266.758 131.68 265.918 131.4C265.125 131.073 263.935 130.887 262.348 130.84V129.44C264.635 129.487 267.085 129.533 269.698 129.58C272.312 129.627 274.762 129.65 277.048 129.65C279.382 129.65 281.248 129.65 282.648 129.65C284.795 129.65 287.222 129.65 289.928 129.65C292.682 129.603 295.132 129.533 297.278 129.44ZM285.238 153.38C285.238 153.38 285.238 153.613 285.238 154.08C285.238 154.547 285.238 154.78 285.238 154.78H272.428C272.428 154.78 272.428 154.547 272.428 154.08C272.428 153.613 272.428 153.38 272.428 153.38H285.238ZM287.268 144.14C287.082 146.8 286.988 148.83 286.988 150.23C287.035 151.63 287.058 152.913 287.058 154.08C287.058 155.247 287.082 156.53 287.128 157.93C287.175 159.33 287.292 161.36 287.478 164.02H285.868C285.682 162.527 285.448 161.08 285.168 159.68C284.935 158.233 284.375 157.067 283.488 156.18C282.648 155.247 281.202 154.78 279.148 154.78V153.38C281.202 153.38 282.625 152.843 283.418 151.77C284.258 150.697 284.795 149.437 285.028 147.99C285.262 146.543 285.472 145.26 285.658 144.14H287.268ZM343.224 129.44V130.84C342.338 131.027 341.451 131.61 340.564 132.59C339.678 133.523 338.698 135.017 337.624 137.07L323.484 165.07H322.294L305.914 134.83C304.981 133.103 304.188 132.03 303.534 131.61C302.928 131.143 302.368 130.91 301.854 130.91V129.44C302.788 129.487 303.744 129.533 304.724 129.58C305.751 129.627 306.848 129.65 308.014 129.65C309.554 129.65 311.188 129.65 312.914 129.65C314.688 129.603 316.321 129.533 317.814 129.44V130.91C316.648 130.91 315.621 131.05 314.734 131.33C313.848 131.61 313.264 132.123 312.984 132.87C312.704 133.617 312.914 134.667 313.614 136.02L325.444 158.7L324.884 159.12L334.194 140.57C335.501 138.003 336.131 136.02 336.084 134.62C336.084 133.22 335.548 132.263 334.474 131.75C333.401 131.19 331.884 130.887 329.924 130.84V129.44C331.278 129.487 332.654 129.533 334.054 129.58C335.454 129.627 336.761 129.65 337.974 129.65C339.188 129.65 340.191 129.627 340.984 129.58C341.778 129.533 342.524 129.487 343.224 129.44ZM326.634 157.72V171.58C326.634 173.26 326.774 174.52 327.054 175.36C327.334 176.2 327.871 176.76 328.664 177.04C329.504 177.32 330.718 177.507 332.304 177.6V179C331.231 178.907 329.878 178.86 328.244 178.86C326.658 178.813 325.048 178.79 323.414 178.79C321.594 178.79 319.891 178.813 318.304 178.86C316.718 178.86 315.434 178.907 314.454 179V177.6C316.041 177.507 317.231 177.32 318.024 177.04C318.864 176.76 319.424 176.2 319.704 175.36C319.984 174.52 320.124 173.26 320.124 171.58V157.23L323.904 161.57L326.634 157.72ZM47.44 192.44C47.2533 194.213 47.1133 195.94 47.02 197.62C46.9733 199.253 46.95 200.513 46.95 201.4C46.95 202.52 46.9733 203.57 47.02 204.55C47.0667 205.53 47.1133 206.393 47.16 207.14H45.55C45.2233 203.873 44.78 201.307 44.22 199.44C43.66 197.527 42.68 196.15 41.28 195.31C39.88 194.47 37.71 194.05 34.77 194.05H30.99V233.88C30.99 235.747 31.1533 237.147 31.48 238.08C31.8533 239.013 32.5533 239.643 33.58 239.97C34.6067 240.297 36.1 240.507 38.06 240.6V242C36.8467 241.907 35.3067 241.86 33.44 241.86C31.5733 241.813 29.6833 241.79 27.77 241.79C25.67 241.79 23.6867 241.813 21.82 241.86C20 241.86 18.53 241.907 17.41 242V240.6C19.37 240.507 20.8633 240.297 21.89 239.97C22.9167 239.643 23.5933 239.013 23.92 238.08C24.2933 237.147 24.48 235.747 24.48 233.88V194.05H20.7C17.8067 194.05 15.6367 194.47 14.19 195.31C12.79 196.15 11.81 197.527 11.25 199.44C10.69 201.307 10.2467 203.873 9.92 207.14H8.31C8.40333 206.393 8.45 205.53 8.45 204.55C8.49667 203.57 8.52 202.52 8.52 201.4C8.52 200.513 8.47333 199.253 8.38 197.62C8.33333 195.94 8.21667 194.213 8.03 192.44C9.99 192.487 12.1133 192.533 14.4 192.58C16.7333 192.627 19.0667 192.65 21.4 192.65C23.7333 192.65 25.8567 192.65 27.77 192.65C29.6833 192.65 31.7833 192.65 34.07 192.65C36.4033 192.65 38.7367 192.627 41.07 192.58C43.4033 192.533 45.5267 192.487 47.44 192.44ZM96.6099 201.322C97.958 202.567 98.6321 204.511 98.6321 207.156C98.6321 209.8 97.958 212.859 96.6099 216.333C95.3136 219.807 93.421 223.333 90.9321 226.911C88.4951 230.437 85.721 233.704 82.6099 236.711C79.4988 239.719 75.921 242.181 71.8766 244.1C67.884 246.019 63.8655 246.978 59.821 246.978C56.2951 246.978 53.6247 245.915 51.8099 243.789C50.0469 241.715 49.1655 238.863 49.1655 235.233C49.1655 232.07 49.8136 228.596 51.1099 224.811C52.458 221.026 54.3766 217.267 56.8655 213.533C59.4062 209.8 62.284 206.404 65.4988 203.344C68.7655 200.233 72.5247 197.744 76.7766 195.878C81.0803 193.959 85.4617 193 89.921 193C92.2543 193 94.0173 193.544 95.2099 194.633C96.4543 195.722 97.0766 197.122 97.0766 198.833C97.0766 199.663 96.921 200.493 96.6099 201.322ZM59.8988 246.2C63.0099 246.2 66.1469 245.474 69.3099 244.022C72.5247 242.57 75.4543 240.678 78.0988 238.344C80.7432 236.011 83.2321 233.367 85.5655 230.411C87.8988 227.456 89.8432 224.474 91.3988 221.467C93.0062 218.459 94.2766 215.581 95.2099 212.833C96.1432 210.033 96.6099 207.622 96.6099 205.6C96.6099 204.407 96.4284 203.396 96.0655 202.567C95.0803 204.589 93.4469 206.274 91.1655 207.622C88.884 208.919 86.1877 209.567 83.0766 209.567C80.9506 209.567 79.1358 209.23 77.6321 208.556C74.8321 211.356 72.5247 214.389 70.7099 217.656C68.8951 220.87 67.9877 223.515 67.9877 225.589C67.9877 227.922 69.0247 229.115 71.0988 229.167C72.4469 229.167 73.7173 228.57 74.9099 227.378C76.1025 226.133 76.7766 224.863 76.9321 223.567C76.984 223.411 77.0099 223.281 77.0099 223.178C77.0099 222.815 77.0877 222.659 77.2432 222.711C77.3469 222.711 77.4247 222.763 77.4766 222.867C77.4766 223.022 77.3988 223.178 77.2432 223.333C77.1395 223.489 77.0877 223.567 77.0877 223.567C76.984 224.967 76.3358 226.263 75.1432 227.456C73.9506 228.648 72.6025 229.27 71.0988 229.322H71.021C69.4136 229.27 68.1951 228.778 67.3655 227.844C66.5877 226.911 66.1988 225.615 66.1988 223.956C66.1988 221.519 67.0284 218.719 68.6877 215.556C70.3988 212.341 72.6284 209.489 75.3766 207C74.184 205.807 73.6655 204.252 73.821 202.333H73.8988C73.7432 204.252 74.2617 205.781 75.4543 206.922C77.1655 205.419 78.9543 204.174 80.821 203.189C84.9692 201.011 88.8321 199.922 92.4099 199.922C93.8099 199.922 95.0025 200.233 95.9877 200.856C96.1951 200.078 96.2988 199.326 96.2988 198.6C96.2988 197.096 95.7543 195.852 94.6655 194.867C93.5766 193.881 91.9692 193.389 89.8432 193.389C85.9543 193.389 82.0395 194.4 78.0988 196.422C74.2099 198.444 70.7358 201.089 67.6766 204.356C64.6692 207.57 61.9469 211.096 59.5099 214.933C57.1247 218.77 55.284 222.607 53.9877 226.444C52.7432 230.281 52.121 233.73 52.121 236.789C52.121 239.693 52.7432 241.974 53.9877 243.633C55.284 245.344 57.2543 246.2 59.8988 246.2ZM95.5988 201.789C94.9247 200.804 93.9395 200.311 92.6432 200.311C88.0284 200.311 83.0506 203.007 77.7099 208.4C79.058 208.97 80.6655 209.256 82.5321 209.256C85.6951 209.256 88.4432 208.53 90.7766 207.078C93.1099 205.626 94.7173 203.863 95.5988 201.789ZM114.525 192.44C122.878 192.44 129.085 194.54 133.145 198.74C137.205 202.893 139.235 208.867 139.235 216.66C139.235 221.747 138.231 226.203 136.225 230.03C134.265 233.81 131.395 236.75 127.615 238.85C123.835 240.95 119.261 242 113.895 242C112.868 242 111.351 241.977 109.345 241.93C107.338 241.837 105.588 241.79 104.095 241.79C102.461 241.79 100.851 241.813 99.2646 241.86C97.6779 241.86 96.3946 241.907 95.4146 242V240.6C97.0013 240.507 98.1913 240.32 98.9846 240.04C99.8246 239.76 100.385 239.2 100.665 238.36C100.945 237.52 101.085 236.26 101.085 234.58V199.86C101.085 198.133 100.945 196.873 100.665 196.08C100.385 195.24 99.8246 194.68 98.9846 194.4C98.1913 194.073 97.0013 193.887 95.4146 193.84V192.44C96.3946 192.487 97.6779 192.557 99.2646 192.65C100.851 192.697 102.415 192.697 103.955 192.65C105.588 192.603 107.431 192.557 109.485 192.51C111.538 192.463 113.218 192.44 114.525 192.44ZM112.775 193.7C110.628 193.7 109.228 194.097 108.575 194.89C107.921 195.683 107.595 197.293 107.595 199.72V234.72C107.595 237.147 107.921 238.757 108.575 239.55C109.275 240.343 110.698 240.74 112.845 240.74C117.931 240.74 121.875 239.83 124.675 238.01C127.475 236.143 129.435 233.437 130.555 229.89C131.675 226.343 132.235 222.027 132.235 216.94C132.235 209.1 130.788 203.267 127.895 199.44C125.048 195.613 120.008 193.7 112.775 193.7ZM164.167 192.09L181.247 236.12C181.947 237.893 182.74 239.083 183.627 239.69C184.513 240.25 185.33 240.553 186.077 240.6V242C185.143 241.907 184 241.86 182.647 241.86C181.293 241.813 179.94 241.79 178.587 241.79C176.767 241.79 175.063 241.813 173.477 241.86C171.89 241.86 170.607 241.907 169.627 242V240.6C172.007 240.507 173.523 240.11 174.177 239.41C174.83 238.663 174.69 237.1 173.757 234.72L160.737 199.93L161.857 199.02L149.677 230.66C148.697 233.18 148.23 235.163 148.277 236.61C148.323 238.01 148.86 239.013 149.887 239.62C150.913 240.227 152.407 240.553 154.367 240.6V242C153.06 241.907 151.683 241.86 150.237 241.86C148.837 241.813 147.53 241.79 146.317 241.79C145.15 241.79 144.147 241.813 143.307 241.86C142.513 241.86 141.767 241.907 141.067 242V240.6C142 240.367 142.957 239.83 143.937 238.99C144.917 238.103 145.803 236.61 146.597 234.51L163.047 192.09C163.233 192.09 163.42 192.09 163.607 192.09C163.793 192.09 163.98 192.09 164.167 192.09ZM172.707 221.84V223.24H151.847L152.547 221.84H172.707ZM223.322 192.44V193.84C222.435 194.027 221.549 194.61 220.662 195.59C219.775 196.523 218.795 198.017 217.722 200.07L203.582 228.07H202.392L186.012 197.83C185.079 196.103 184.285 195.03 183.632 194.61C183.025 194.143 182.465 193.91 181.952 193.91V192.44C182.885 192.487 183.842 192.533 184.822 192.58C185.849 192.627 186.945 192.65 188.112 192.65C189.652 192.65 191.285 192.65 193.012 192.65C194.785 192.603 196.419 192.533 197.912 192.44V193.91C196.745 193.91 195.719 194.05 194.832 194.33C193.945 194.61 193.362 195.123 193.082 195.87C192.802 196.617 193.012 197.667 193.712 199.02L205.542 221.7L204.982 222.12L214.292 203.57C215.599 201.003 216.229 199.02 216.182 197.62C216.182 196.22 215.645 195.263 214.572 194.75C213.499 194.19 211.982 193.887 210.022 193.84V192.44C211.375 192.487 212.752 192.533 214.152 192.58C215.552 192.627 216.859 192.65 218.072 192.65C219.285 192.65 220.289 192.627 221.082 192.58C221.875 192.533 222.622 192.487 223.322 192.44ZM206.732 220.72V234.58C206.732 236.26 206.872 237.52 207.152 238.36C207.432 239.2 207.969 239.76 208.762 240.04C209.602 240.32 210.815 240.507 212.402 240.6V242C211.329 241.907 209.975 241.86 208.342 241.86C206.755 241.813 205.145 241.79 203.512 241.79C201.692 241.79 199.989 241.813 198.402 241.86C196.815 241.86 195.532 241.907 194.552 242V240.6C196.139 240.507 197.329 240.32 198.122 240.04C198.962 239.76 199.522 239.2 199.802 238.36C200.082 237.52 200.222 236.26 200.222 234.58V220.23L204.002 224.57L206.732 220.72Z" fill="#A77E3D"/>
</svg>
