<svg viewBox="0 0 281 119" fill="none" xmlns="http://www.w3.org/2000/svg">
<path d="M56.1519 2.34667C56.743 2.34667 57.0385 2.47111 57.0385 2.72C57.0385 2.93778 56.8519 3.04666 56.4785 3.04666C56.3852 3.04666 56.183 3 55.8719 2.90667C55.5607 2.78222 55.3274 2.72 55.1719 2.72C53.803 2.81333 52.1852 3.45111 50.3185 4.63333C48.4518 5.81556 46.6163 7.23111 44.8119 8.88C43.0385 10.4978 41.0163 12.5356 38.7452 14.9933C36.5052 17.4511 34.5296 19.6911 32.8185 21.7133C31.1385 23.7044 29.2096 26.0067 27.0318 28.62C24.8541 31.2333 23.1896 33.1933 22.0385 34.5L21.8985 34.4067C23.5785 31.6067 25.2274 28.5578 26.8452 25.26C28.4941 21.9622 29.6607 19.5511 30.3452 18.0267C31.0296 16.4711 32.0407 14.1378 33.3785 11.0267C31.8852 12.6444 29.5518 15.1178 26.3785 18.4467C23.2052 21.7756 20.3585 24.8089 17.8385 27.5467C15.3185 30.2844 13.3118 32.6022 11.8185 34.5L11.6785 34.4067C15.4741 28.5267 18.7096 22.8956 21.3852 17.5133C24.0607 12.1 25.3985 8.24222 25.3985 5.94C25.3985 4.19778 24.7763 2.82889 23.5318 1.83333C22.3185 0.837777 20.7007 0.339999 18.6785 0.339999C17.4652 0.339999 16.1741 0.573332 14.8052 1.04C13.4363 1.47555 12.083 2.12889 10.7452 3C9.43852 3.84 8.24074 4.83556 7.15185 5.98667C6.09407 7.13778 5.22296 8.50667 4.53852 10.0933C3.88518 11.68 3.55852 13.3133 3.55852 14.9933C3.55852 16.3933 3.97852 17.4511 4.81852 18.1667C5.68963 18.8511 6.82518 19.1933 8.22518 19.1933C9.78074 19.1933 11.2896 18.8044 12.7518 18.0267C14.2452 17.2489 15.4896 16.2844 16.4852 15.1333C17.4807 13.9822 18.2741 12.7689 18.8652 11.4933C19.4874 10.1867 19.7985 9.02 19.7985 7.99333C19.7985 7.15333 19.5807 6.48444 19.1452 5.98667C18.7096 5.48889 18.0407 5.24 17.1385 5.24C15.8007 5.24 14.3541 5.73778 12.7985 6.73333C11.243 7.69778 9.92074 9.05111 8.83185 10.7933L8.69185 10.7C9.78074 8.92667 11.1185 7.54222 12.7052 6.54667C14.2918 5.55111 15.7696 5.05333 17.1385 5.05333C18.0718 5.05333 18.8185 5.31778 19.3785 5.84667C19.9696 6.34444 20.2652 7.10667 20.2652 8.13333C20.2652 10 19.8918 11.7733 19.1452 13.4533C18.3985 15.1022 17.4341 16.4867 16.2518 17.6067C15.1007 18.6956 13.8252 19.5511 12.4252 20.1733C11.0563 20.7956 9.73407 21.1067 8.45852 21.1067C6.87185 21.1067 5.58074 20.6089 4.58518 19.6133C3.58963 18.6178 3.09185 17.14 3.09185 15.18C3.09185 13.4689 3.43407 11.82 4.11852 10.2333C4.80296 8.61555 5.70518 7.21555 6.82518 6.03333C7.94518 4.85111 9.18963 3.80889 10.5585 2.90667C11.9274 2.00444 13.3118 1.32 14.7118 0.853333C16.143 0.386667 17.4652 0.153334 18.6785 0.153334C20.8874 0.153334 22.7696 0.728889 24.3252 1.88C25.8807 3 26.6585 4.68 26.6585 6.92C26.6585 9.50222 25.9119 12.3178 24.4185 15.3667C22.9563 18.4156 20.5918 22.5067 17.3252 27.64C17.1696 27.8889 16.9674 28.1689 16.7185 28.48C18.5852 26.4267 21.4785 23.3311 25.3985 19.1933C29.3496 15.0556 32.0719 12.1778 33.5652 10.56C34.8407 7.60444 35.8363 5.48889 36.5518 4.21333C37.2674 2.93778 37.9518 2.3 38.6052 2.3C39.103 2.3 39.3519 2.51778 39.3519 2.95333C39.3519 3.7 38.3407 5.27111 36.3185 7.66667C36.0074 8.44444 35.4163 9.89111 34.5452 12.0067C33.6741 14.1222 32.9585 15.8333 32.3985 17.14C31.8696 18.4156 31.2474 19.8933 30.5319 21.5733C29.8163 23.2533 29.1785 24.6378 28.6185 25.7267C28.0896 26.7844 27.6385 27.5622 27.2652 28.06C27.483 27.8111 27.7941 27.4378 28.1985 26.94C29.5674 25.2911 30.6096 24.0311 31.3252 23.16C32.0718 22.2889 33.1296 21.0444 34.4985 19.4267C35.8674 17.8089 36.9719 16.5333 37.8119 15.6C38.683 14.6667 39.7718 13.5311 41.0785 12.1933C42.3852 10.8244 43.4896 9.73556 44.3919 8.92667C45.3252 8.11778 46.3674 7.24667 47.5185 6.31333C48.7007 5.34889 49.743 4.61778 50.6452 4.12C51.5474 3.62222 52.4807 3.20222 53.4452 2.86C54.4096 2.51778 55.3119 2.34667 56.1519 2.34667ZM38.7452 2.53333C38.5585 2.53333 37.8274 4.07333 36.5518 7.15333C38.2941 5.03778 39.1652 3.63778 39.1652 2.95333C39.1652 2.67333 39.0252 2.53333 38.7452 2.53333ZM66.9095 1.264C66.7975 2.244 66.7135 3.196 66.6575 4.12C66.6295 5.044 66.6155 5.744 66.6155 6.22C66.6155 6.724 66.6295 7.214 66.6575 7.69C66.6855 8.138 66.7135 8.516 66.7415 8.824H65.7755C65.6075 7.172 65.3695 5.87 65.0615 4.918C64.7535 3.938 64.2215 3.252 63.4655 2.86C62.7375 2.44 61.6315 2.23 60.1475 2.23H56.6615C55.7095 2.23 54.9815 2.314 54.4775 2.482C54.0015 2.622 53.6795 2.944 53.5115 3.448C53.3435 3.924 53.2595 4.68 53.2595 5.716V26.548C53.2595 27.556 53.3435 28.312 53.5115 28.816C53.6795 29.32 54.0015 29.656 54.4775 29.824C54.9815 29.964 55.7095 30.034 56.6615 30.034H59.7275C61.4915 30.034 62.8215 29.796 63.7175 29.32C64.6415 28.844 65.2995 28.074 65.6915 27.01C66.1115 25.918 66.4195 24.448 66.6155 22.6H67.5815C67.4975 23.356 67.4555 24.364 67.4555 25.624C67.4555 26.156 67.4695 26.926 67.4975 27.934C67.5535 28.914 67.6375 29.936 67.7495 31C66.3215 30.944 64.7115 30.916 62.9195 30.916C61.1275 30.888 59.5315 30.874 58.1315 30.874C57.2915 30.874 56.1715 30.874 54.7715 30.874C53.3995 30.874 51.9295 30.888 50.3615 30.916C48.7935 30.916 47.3235 30.944 45.9515 31V30.16C46.9035 30.104 47.6175 29.992 48.0935 29.824C48.5975 29.656 48.9335 29.32 49.1015 28.816C49.2695 28.312 49.3535 27.556 49.3535 26.548V5.716C49.3535 4.68 49.2695 3.924 49.1015 3.448C48.9335 2.944 48.5975 2.608 48.0935 2.44C47.6175 2.244 46.9035 2.132 45.9515 2.104V1.264C47.3235 1.292 48.7935 1.32 50.3615 1.348C51.9295 1.376 53.3995 1.39 54.7715 1.39C56.1715 1.39 57.2915 1.39 58.1315 1.39C59.4195 1.39 60.8755 1.39 62.4995 1.39C64.1515 1.362 65.6215 1.32 66.9095 1.264ZM59.6855 15.628C59.6855 15.628 59.6855 15.768 59.6855 16.048C59.6855 16.328 59.6855 16.468 59.6855 16.468H51.9995C51.9995 16.468 51.9995 16.328 51.9995 16.048C51.9995 15.768 51.9995 15.628 51.9995 15.628H59.6855ZM60.9035 10.084C60.7915 11.68 60.7355 12.898 60.7355 13.738C60.7635 14.578 60.7775 15.348 60.7775 16.048C60.7775 16.748 60.7915 17.518 60.8195 18.358C60.8475 19.198 60.9175 20.416 61.0295 22.012H60.0635C59.9515 21.116 59.8115 20.248 59.6435 19.408C59.5035 18.54 59.1675 17.84 58.6355 17.308C58.1315 16.748 57.2635 16.468 56.0315 16.468V15.628C57.2635 15.628 58.1175 15.306 58.5935 14.662C59.0975 14.018 59.4195 13.262 59.5595 12.394C59.6995 11.526 59.8255 10.756 59.9375 10.084H60.9035ZM82.2553 1.264V2.104C81.3033 2.132 80.5753 2.244 80.0713 2.44C79.5953 2.608 79.2733 2.944 79.1053 3.448C78.9373 3.924 78.8533 4.68 78.8533 5.716V26.548C78.8533 27.556 78.9373 28.312 79.1053 28.816C79.2733 29.32 79.5953 29.656 80.0713 29.824C80.5753 29.964 81.3033 30.034 82.2553 30.034H85.3213C87.0853 30.034 88.4153 29.782 89.3113 29.278C90.2353 28.774 90.8933 27.948 91.2853 26.8C91.7053 25.652 92.0133 24.112 92.2093 22.18H93.1753C93.0913 23.048 93.0493 24.196 93.0493 25.624C93.0493 26.156 93.0633 26.926 93.0913 27.934C93.1473 28.914 93.2313 29.936 93.3433 31C91.9153 30.944 90.3053 30.916 88.5133 30.916C86.7213 30.888 85.1253 30.874 83.7253 30.874C82.8853 30.874 81.7653 30.874 80.3653 30.874C78.9933 30.874 77.5233 30.888 75.9552 30.916C74.3873 30.916 72.9173 30.944 71.5453 31V30.16C72.4973 30.104 73.2113 29.992 73.6873 29.824C74.1913 29.656 74.5273 29.32 74.6953 28.816C74.8633 28.312 74.9473 27.556 74.9473 26.548V5.716C74.9473 4.68 74.8633 3.924 74.6953 3.448C74.5273 2.944 74.1913 2.608 73.6873 2.44C73.2113 2.244 72.4973 2.132 71.5453 2.104V1.264C72.1333 1.292 72.9033 1.32 73.8553 1.348C74.8073 1.376 75.8293 1.39 76.9213 1.39C77.9013 1.39 78.8673 1.376 79.8193 1.348C80.7993 1.32 81.6113 1.292 82.2553 1.264ZM110.055 0.675997C111.903 0.675997 113.415 0.955998 114.591 1.516C115.795 2.048 116.859 2.678 117.783 3.406C118.343 3.826 118.763 3.882 119.043 3.574C119.351 3.238 119.561 2.468 119.673 1.264H120.639C120.583 2.3 120.541 3.56 120.513 5.044C120.485 6.528 120.471 8.488 120.471 10.924H119.505C119.309 9.72 119.127 8.768 118.959 8.068C118.791 7.34 118.581 6.724 118.329 6.22C118.105 5.716 117.797 5.212 117.405 4.708C116.537 3.56 115.445 2.734 114.129 2.23C112.813 1.698 111.427 1.432 109.971 1.432C108.599 1.432 107.353 1.782 106.233 2.482C105.141 3.154 104.189 4.134 103.377 5.422C102.593 6.71 101.977 8.264 101.529 10.084C101.109 11.904 100.899 13.948 100.899 16.216C100.899 18.568 101.137 20.654 101.613 22.474C102.089 24.266 102.747 25.778 103.587 27.01C104.455 28.242 105.463 29.18 106.611 29.824C107.787 30.44 109.047 30.748 110.391 30.748C111.651 30.748 112.967 30.496 114.339 29.992C115.711 29.488 116.789 28.676 117.573 27.556C118.189 26.744 118.609 25.862 118.833 24.91C119.085 23.958 119.309 22.628 119.505 20.92H120.471C120.471 23.468 120.485 25.526 120.513 27.094C120.541 28.634 120.583 29.936 120.639 31H119.673C119.561 29.796 119.365 29.04 119.085 28.732C118.833 28.424 118.399 28.466 117.783 28.858C116.747 29.586 115.641 30.23 114.465 30.79C113.317 31.322 111.833 31.588 110.013 31.588C107.353 31.588 105.015 30.986 102.999 29.782C101.011 28.578 99.4567 26.842 98.3367 24.574C97.2447 22.306 96.6987 19.576 96.6987 16.384C96.6987 13.248 97.2727 10.504 98.4207 8.152C99.5687 5.8 101.137 3.966 103.125 2.65C105.141 1.334 107.451 0.675997 110.055 0.675997ZM138.971 0.675997C141.631 0.675997 143.955 1.278 145.943 2.482C147.959 3.686 149.513 5.422 150.605 7.69C151.725 9.93 152.285 12.66 152.285 15.88C152.285 19.016 151.711 21.76 150.563 24.112C149.443 26.464 147.875 28.298 145.859 29.614C143.843 30.93 141.533 31.588 138.929 31.588C136.269 31.588 133.931 30.986 131.915 29.782C129.927 28.578 128.373 26.842 127.253 24.574C126.161 22.306 125.615 19.576 125.615 16.384C125.615 13.248 126.189 10.504 127.337 8.152C128.485 5.8 130.053 3.966 132.041 2.65C134.057 1.334 136.367 0.675997 138.971 0.675997ZM138.803 1.432C136.983 1.432 135.401 2.062 134.057 3.322C132.713 4.582 131.663 6.318 130.907 8.53C130.179 10.742 129.815 13.304 129.815 16.216C129.815 19.184 130.221 21.774 131.033 23.986C131.873 26.17 132.993 27.864 134.393 29.068C135.821 30.244 137.389 30.832 139.097 30.832C140.917 30.832 142.499 30.202 143.843 28.942C145.187 27.682 146.223 25.946 146.951 23.734C147.707 21.494 148.085 18.932 148.085 16.048C148.085 13.052 147.665 10.462 146.825 8.278C146.013 6.094 144.907 4.414 143.507 3.238C142.107 2.034 140.539 1.432 138.803 1.432ZM189.009 1.264V2.104C188.057 2.132 187.329 2.244 186.825 2.44C186.349 2.608 186.027 2.944 185.859 3.448C185.691 3.924 185.607 4.68 185.607 5.716V26.548C185.607 27.556 185.691 28.312 185.859 28.816C186.027 29.32 186.349 29.656 186.825 29.824C187.329 29.992 188.057 30.104 189.009 30.16V31C188.365 30.944 187.553 30.916 186.573 30.916C185.621 30.888 184.655 30.874 183.675 30.874C182.583 30.874 181.561 30.888 180.609 30.916C179.657 30.916 178.887 30.944 178.299 31V30.16C179.251 30.104 179.965 29.992 180.441 29.824C180.945 29.656 181.281 29.32 181.449 28.816C181.617 28.312 181.701 27.556 181.701 26.548V3.448L181.869 3.574L171.579 31.21H170.907L160.323 3.952V26.128C160.323 27.136 160.407 27.934 160.575 28.522C160.771 29.082 161.135 29.488 161.667 29.74C162.227 29.964 163.053 30.104 164.145 30.16V31C163.641 30.944 162.983 30.916 162.171 30.916C161.359 30.888 160.589 30.874 159.861 30.874C159.161 30.874 158.447 30.888 157.719 30.916C157.019 30.916 156.431 30.944 155.955 31V30.16C156.907 30.104 157.621 29.964 158.097 29.74C158.601 29.488 158.937 29.082 159.105 28.522C159.273 27.934 159.357 27.136 159.357 26.128V5.716C159.357 4.68 159.273 3.924 159.105 3.448C158.937 2.944 158.601 2.608 158.097 2.44C157.621 2.244 156.907 2.132 155.955 2.104V1.264C156.431 1.292 157.019 1.32 157.719 1.348C158.447 1.376 159.161 1.39 159.861 1.39C160.477 1.39 161.107 1.376 161.751 1.348C162.423 1.32 162.983 1.292 163.431 1.264L172.965 26.38L172.251 26.716L181.701 1.39C182.037 1.39 182.359 1.39 182.667 1.39C183.003 1.39 183.339 1.39 183.675 1.39C184.655 1.39 185.621 1.376 186.573 1.348C187.553 1.32 188.365 1.292 189.009 1.264ZM213.499 1.264C213.387 2.244 213.303 3.196 213.247 4.12C213.219 5.044 213.205 5.744 213.205 6.22C213.205 6.724 213.219 7.214 213.247 7.69C213.275 8.138 213.303 8.516 213.331 8.824H212.365C212.197 7.172 211.959 5.87 211.651 4.918C211.343 3.938 210.811 3.252 210.055 2.86C209.327 2.44 208.221 2.23 206.737 2.23H203.251C202.299 2.23 201.571 2.314 201.067 2.482C200.591 2.622 200.269 2.944 200.101 3.448C199.933 3.924 199.849 4.68 199.849 5.716V26.548C199.849 27.556 199.933 28.312 200.101 28.816C200.269 29.32 200.591 29.656 201.067 29.824C201.571 29.964 202.299 30.034 203.251 30.034H206.317C208.081 30.034 209.411 29.796 210.307 29.32C211.231 28.844 211.889 28.074 212.281 27.01C212.701 25.918 213.009 24.448 213.205 22.6H214.171C214.087 23.356 214.045 24.364 214.045 25.624C214.045 26.156 214.059 26.926 214.087 27.934C214.143 28.914 214.227 29.936 214.339 31C212.911 30.944 211.301 30.916 209.509 30.916C207.717 30.888 206.121 30.874 204.721 30.874C203.881 30.874 202.761 30.874 201.361 30.874C199.989 30.874 198.519 30.888 196.951 30.916C195.383 30.916 193.913 30.944 192.541 31V30.16C193.493 30.104 194.207 29.992 194.683 29.824C195.187 29.656 195.523 29.32 195.691 28.816C195.859 28.312 195.943 27.556 195.943 26.548V5.716C195.943 4.68 195.859 3.924 195.691 3.448C195.523 2.944 195.187 2.608 194.683 2.44C194.207 2.244 193.493 2.132 192.541 2.104V1.264C193.913 1.292 195.383 1.32 196.951 1.348C198.519 1.376 199.989 1.39 201.361 1.39C202.761 1.39 203.881 1.39 204.721 1.39C206.009 1.39 207.465 1.39 209.089 1.39C210.741 1.362 212.211 1.32 213.499 1.264ZM206.275 15.628C206.275 15.628 206.275 15.768 206.275 16.048C206.275 16.328 206.275 16.468 206.275 16.468H198.589C198.589 16.468 198.589 16.328 198.589 16.048C198.589 15.768 198.589 15.628 198.589 15.628H206.275ZM207.493 10.084C207.381 11.68 207.325 12.898 207.325 13.738C207.353 14.578 207.367 15.348 207.367 16.048C207.367 16.748 207.381 17.518 207.409 18.358C207.437 19.198 207.507 20.416 207.619 22.012H206.653C206.541 21.116 206.401 20.248 206.233 19.408C206.093 18.54 205.757 17.84 205.225 17.308C204.721 16.748 203.853 16.468 202.621 16.468V15.628C203.853 15.628 204.707 15.306 205.183 14.662C205.687 14.018 206.009 13.262 206.149 12.394C206.289 11.526 206.415 10.756 206.527 10.084H207.493ZM250.669 1.264C250.557 2.328 250.473 3.364 250.417 4.372C250.389 5.352 250.375 6.108 250.375 6.64C250.375 7.312 250.389 7.942 250.417 8.53C250.445 9.118 250.473 9.636 250.501 10.084H249.535C249.339 8.124 249.073 6.584 248.737 5.464C248.401 4.316 247.813 3.49 246.973 2.986C246.133 2.482 244.831 2.23 243.067 2.23H240.799V26.128C240.799 27.248 240.897 28.088 241.093 28.648C241.317 29.208 241.737 29.586 242.353 29.782C242.969 29.978 243.865 30.104 245.041 30.16V31C244.313 30.944 243.389 30.916 242.269 30.916C241.149 30.888 240.015 30.874 238.867 30.874C237.607 30.874 236.417 30.888 235.297 30.916C234.205 30.916 233.323 30.944 232.651 31V30.16C233.827 30.104 234.723 29.978 235.339 29.782C235.955 29.586 236.361 29.208 236.557 28.648C236.781 28.088 236.893 27.248 236.893 26.128V2.23H234.625C232.889 2.23 231.587 2.482 230.719 2.986C229.879 3.49 229.291 4.316 228.955 5.464C228.619 6.584 228.353 8.124 228.157 10.084H227.191C227.247 9.636 227.275 9.118 227.275 8.53C227.303 7.942 227.317 7.312 227.317 6.64C227.317 6.108 227.289 5.352 227.233 4.372C227.205 3.364 227.135 2.328 227.023 1.264C228.199 1.292 229.473 1.32 230.845 1.348C232.245 1.376 233.645 1.39 235.045 1.39C236.445 1.39 237.719 1.39 238.867 1.39C240.015 1.39 241.275 1.39 242.647 1.39C244.047 1.39 245.447 1.376 246.847 1.348C248.247 1.32 249.521 1.292 250.669 1.264ZM267.473 0.675997C270.133 0.675997 272.457 1.278 274.445 2.482C276.461 3.686 278.015 5.422 279.107 7.69C280.227 9.93 280.787 12.66 280.787 15.88C280.787 19.016 280.213 21.76 279.065 24.112C277.945 26.464 276.377 28.298 274.361 29.614C272.345 30.93 270.035 31.588 267.431 31.588C264.771 31.588 262.433 30.986 260.417 29.782C258.429 28.578 256.875 26.842 255.755 24.574C254.663 22.306 254.117 19.576 254.117 16.384C254.117 13.248 254.691 10.504 255.839 8.152C256.987 5.8 258.555 3.966 260.543 2.65C262.559 1.334 264.869 0.675997 267.473 0.675997ZM267.305 1.432C265.485 1.432 263.903 2.062 262.559 3.322C261.215 4.582 260.165 6.318 259.409 8.53C258.681 10.742 258.317 13.304 258.317 16.216C258.317 19.184 258.723 21.774 259.535 23.986C260.375 26.17 261.495 27.864 262.895 29.068C264.323 30.244 265.891 30.832 267.599 30.832C269.419 30.832 271.001 30.202 272.345 28.942C273.689 27.682 274.725 25.946 275.453 23.734C276.209 21.494 276.587 18.932 276.587 16.048C276.587 13.052 276.167 10.462 275.327 8.278C274.515 6.094 273.409 4.414 272.009 3.238C270.609 2.034 269.041 1.432 267.305 1.432ZM37.9984 72.6267C37.9362 72.7511 37.9206 72.8756 37.9518 73H29.5051C29.5673 72.8756 29.5829 72.7511 29.5518 72.6267H33.4251C33.1762 72.3156 33.0829 71.9422 33.1451 71.5067C33.4873 69.2356 35.6495 65.2844 39.6318 59.6533C39.3206 59.6533 38.8695 59.6533 38.2784 59.6533C37.4073 59.6533 36.4584 59.6378 35.4318 59.6067C33.1295 62.0644 30.9206 64.2578 28.8051 66.1867C26.6895 68.0844 24.4029 69.9511 21.9451 71.7867C19.4873 73.5911 17.014 74.9911 14.5251 75.9867C12.0673 76.9822 9.73398 77.48 7.52509 77.48C5.8762 77.48 4.4762 77.2 3.32509 76.64C2.20509 76.08 1.3962 75.3333 0.898424 74.4C0.400647 73.4978 0.151758 72.4244 0.151758 71.18C0.151758 69.0333 0.882869 66.7622 2.34509 64.3667C3.80731 61.9711 5.78287 59.9178 8.27176 58.2067C7.33842 57.0244 6.87176 55.6556 6.87176 54.1C6.87176 52.9178 7.15176 51.7356 7.71176 50.5533C8.27176 49.34 9.0962 48.1889 10.1851 47.1C11.274 45.98 12.7673 45.0778 14.6651 44.3933C16.594 43.7089 18.7718 43.3667 21.1984 43.3667C22.8784 43.3667 24.7451 43.6622 26.7984 44.2533C28.8518 44.8444 30.874 45.4356 32.8651 46.0267C34.8562 46.6178 36.6295 46.9133 38.1851 46.9133C41.1718 46.9133 44.2829 46.2289 47.5184 44.86L47.5651 44.9533C44.2362 46.3533 41.1095 47.0533 38.1851 47.0533C36.3184 47.0533 33.5029 46.6333 29.7384 45.7933C26.0051 44.9533 23.1273 44.5333 21.1051 44.5333C18.6473 44.5333 16.4695 44.8444 14.5718 45.4667C12.674 46.0578 11.1962 46.8356 10.1384 47.8C9.11176 48.7644 8.33398 49.7756 7.80509 50.8333C7.2762 51.8911 7.01176 52.9489 7.01176 54.0067C7.01176 55.5 7.5562 56.8067 8.64509 57.9267C12.1606 55.6244 15.9873 54.4733 20.1251 54.4733C22.0229 54.4733 23.4384 54.8311 24.3718 55.5467C25.3051 56.2622 25.7718 57.2267 25.7718 58.44C25.7718 59.4978 25.414 60.6489 24.6984 61.8933C23.9829 63.1067 23.034 64.2422 21.8518 65.3C20.6695 66.3578 19.2229 67.2444 17.5118 67.96C15.8318 68.6444 14.1206 68.9867 12.3784 68.9867C11.414 68.9867 10.5429 68.7378 9.76509 68.24C8.98731 67.7111 8.5362 67.0733 8.41176 66.3267H8.50509C8.84731 67.3844 10.1384 67.9133 12.3784 67.9133C14.1206 67.9133 15.8162 67.6022 17.4651 66.98C19.1451 66.3267 20.5606 65.5178 21.7118 64.5533C22.894 63.5889 23.8273 62.5467 24.5118 61.4267C25.2273 60.3067 25.5851 59.2489 25.5851 58.2533C25.5851 57.1644 25.134 56.2933 24.2318 55.64C23.3295 54.9867 21.9606 54.66 20.1251 54.66C16.0806 54.66 12.3162 55.8111 8.83176 58.1133C10.3873 59.5756 12.6429 60.3067 15.5984 60.3067C16.6251 60.3067 17.7295 60.1978 18.9118 59.98V60.0733C17.294 60.5089 15.8006 60.7267 14.4318 60.7267C11.7873 60.7267 9.78065 59.9489 8.41176 58.3933C6.14065 59.9489 4.32065 61.8 2.95176 63.9467C1.61398 66.0622 0.945091 68.0378 0.945091 69.8733C0.945091 71.5222 1.52065 72.8444 2.67176 73.84C3.82287 74.8356 5.56509 75.3333 7.89842 75.3333C14.3384 75.3333 21.7429 71.6 30.1118 64.1333C30.7651 63.1067 31.0918 62.1422 31.0918 61.24C31.0918 60.4311 30.7962 59.9178 30.2051 59.7C29.9562 59.7 29.6918 59.7 29.4118 59.7C29.1629 59.7 29.0384 59.6378 29.0384 59.5133C29.0384 59.3578 29.1784 59.28 29.4584 59.28C30.0184 59.28 30.6873 59.2956 31.4651 59.3267C31.9318 59.3578 32.694 59.3733 33.7518 59.3733C34.1873 59.3733 34.654 59.3733 35.1518 59.3733C37.0806 57.4133 39.2895 55.0489 41.7784 52.28C44.2673 49.5111 46.1495 47.4733 47.4251 46.1667C48.7318 44.8289 49.6184 44.16 50.0851 44.16C50.2718 44.16 50.4429 44.2222 50.5984 44.3467C50.754 44.4711 50.8318 44.6889 50.8318 45C50.8318 45.8711 50.0073 47.66 48.3584 50.3667C46.7406 53.0733 44.9362 55.8422 42.9451 58.6733C40.9851 61.5044 39.0718 64.32 37.2051 67.12C35.3695 69.92 34.2806 71.7556 33.9384 72.6267H37.9984ZM38.9784 59.3267C39.0095 59.3267 39.134 59.3267 39.3518 59.3267C39.6006 59.2956 39.7873 59.28 39.9118 59.28C41.0318 57.7556 42.5406 55.7489 44.4384 53.26C46.3362 50.74 47.7673 48.7956 48.7318 47.4267C49.6962 46.0578 50.2251 45.14 50.3184 44.6733C50.3806 44.4244 50.3029 44.3 50.0851 44.3C49.6495 44.3 48.8251 44.9378 47.6118 46.2133C46.3984 47.4578 44.5473 49.4956 42.0584 52.3267C39.5695 55.1578 37.454 57.5067 35.7118 59.3733C36.9251 59.3422 38.014 59.3267 38.9784 59.3267ZM30.3451 63.9467C31.8073 62.64 33.3318 61.1933 34.9184 59.6067H34.4984C32.9429 59.6067 31.8695 59.6222 31.2784 59.6533C30.9051 59.6844 30.6095 59.7 30.3918 59.7C30.8895 59.98 31.1384 60.4933 31.1384 61.24C31.1384 62.08 30.874 62.9822 30.3451 63.9467ZM55.6927 43.264C56.2807 43.292 57.0507 43.32 58.0027 43.348C58.9547 43.376 59.8927 43.39 60.8167 43.39C62.1327 43.39 63.3927 43.376 64.5967 43.348C65.8007 43.32 66.6547 43.306 67.1587 43.306C70.5467 43.306 73.0807 44.006 74.7607 45.406C76.4407 46.806 77.2807 48.542 77.2807 50.614C77.2807 51.454 77.1127 52.35 76.7767 53.302C76.4407 54.254 75.8527 55.15 75.0127 55.99C74.2007 56.83 73.0807 57.53 71.6527 58.09C70.2247 58.622 68.4187 58.888 66.2347 58.888H62.2027V58.048H65.8147C67.8027 58.048 69.3147 57.74 70.3507 57.124C71.4147 56.48 72.1287 55.64 72.4927 54.604C72.8847 53.54 73.0807 52.364 73.0807 51.076C73.0807 48.864 72.5487 47.156 71.4847 45.952C70.4487 44.72 68.6567 44.104 66.1087 44.104C64.8207 44.104 63.9807 44.342 63.5887 44.818C63.1967 45.294 63.0007 46.26 63.0007 47.716V68.548C63.0007 69.556 63.0847 70.312 63.2527 70.816C63.4207 71.32 63.7427 71.656 64.2187 71.824C64.7227 71.992 65.4507 72.104 66.4027 72.16V73C65.7587 72.944 64.9467 72.916 63.9667 72.916C63.0147 72.888 62.0487 72.874 61.0687 72.874C59.9767 72.874 58.9547 72.888 58.0027 72.916C57.0507 72.916 56.2807 72.944 55.6927 73V72.16C56.6447 72.104 57.3587 71.992 57.8347 71.824C58.3387 71.656 58.6747 71.32 58.8427 70.816C59.0107 70.312 59.0947 69.556 59.0947 68.548V47.716C59.0947 46.68 59.0107 45.924 58.8427 45.448C58.6747 44.944 58.3387 44.608 57.8347 44.44C57.3587 44.244 56.6447 44.132 55.6927 44.104V43.264ZM62.3707 58.174C63.8827 58.23 65.0727 58.3 65.9407 58.384C66.8087 58.44 67.5087 58.496 68.0407 58.552C68.6007 58.608 69.1327 58.678 69.6367 58.762C71.5127 59.07 72.8567 59.644 73.6687 60.484C74.5087 61.296 75.1247 62.57 75.5167 64.306L76.5667 68.59C76.8467 69.822 77.1267 70.718 77.4067 71.278C77.7147 71.81 78.1767 72.062 78.7927 72.034C79.2687 72.006 79.6607 71.852 79.9687 71.572C80.3047 71.292 80.6547 70.914 81.0187 70.438L81.6487 70.9C81.0607 71.768 80.4447 72.44 79.8007 72.916C79.1847 73.364 78.3027 73.588 77.1547 73.588C76.1187 73.588 75.2087 73.28 74.4247 72.664C73.6407 72.048 73.0527 70.844 72.6607 69.052L71.7367 64.852C71.4847 63.648 71.1907 62.612 70.8547 61.744C70.5467 60.848 70.0987 60.148 69.5107 59.644C68.9507 59.14 68.1107 58.888 66.9907 58.888H62.4547L62.3707 58.174ZM115.981 43.264V44.104C115.029 44.132 114.301 44.244 113.797 44.44C113.321 44.608 112.999 44.944 112.831 45.448C112.663 45.924 112.579 46.68 112.579 47.716V68.548C112.579 69.556 112.663 70.312 112.831 70.816C112.999 71.32 113.321 71.656 113.797 71.824C114.301 71.992 115.029 72.104 115.981 72.16V73C115.337 72.944 114.525 72.916 113.545 72.916C112.593 72.888 111.627 72.874 110.647 72.874C109.555 72.874 108.533 72.888 107.581 72.916C106.629 72.916 105.859 72.944 105.271 73V72.16C106.223 72.104 106.937 71.992 107.413 71.824C107.917 71.656 108.253 71.32 108.421 70.816C108.589 70.312 108.673 69.556 108.673 68.548V45.448L108.841 45.574L98.5511 73.21H97.8791L87.2951 45.952V68.128C87.2951 69.136 87.3791 69.934 87.5471 70.522C87.7431 71.082 88.1071 71.488 88.6391 71.74C89.1991 71.964 90.0251 72.104 91.1171 72.16V73C90.6131 72.944 89.9551 72.916 89.1431 72.916C88.3311 72.888 87.5611 72.874 86.8331 72.874C86.1331 72.874 85.4191 72.888 84.6911 72.916C83.9911 72.916 83.4031 72.944 82.9271 73V72.16C83.8791 72.104 84.5931 71.964 85.0691 71.74C85.5731 71.488 85.9091 71.082 86.0771 70.522C86.2451 69.934 86.3291 69.136 86.3291 68.128V47.716C86.3291 46.68 86.2451 45.924 86.0771 45.448C85.9091 44.944 85.5731 44.608 85.0691 44.44C84.5931 44.244 83.8791 44.132 82.9271 44.104V43.264C83.4031 43.292 83.9911 43.32 84.6911 43.348C85.4191 43.376 86.1331 43.39 86.8331 43.39C87.4491 43.39 88.0791 43.376 88.7231 43.348C89.3951 43.32 89.9551 43.292 90.4031 43.264L99.9371 68.38L99.2231 68.716L108.673 43.39C109.009 43.39 109.331 43.39 109.639 43.39C109.975 43.39 110.311 43.39 110.647 43.39C111.627 43.39 112.593 43.376 113.545 43.348C114.525 43.32 115.337 43.292 115.981 43.264ZM128.501 42.802C129.901 42.802 130.965 42.97 131.693 43.306C132.421 43.614 133.065 43.964 133.625 44.356C133.961 44.552 134.227 44.706 134.423 44.818C134.647 44.902 134.857 44.944 135.053 44.944C135.501 44.944 135.809 44.328 135.977 43.096H136.943C136.915 43.572 136.873 44.146 136.817 44.818C136.789 45.462 136.761 46.33 136.733 47.422C136.733 48.486 136.733 49.9 136.733 51.664H135.767C135.683 50.32 135.389 49.032 134.885 47.8C134.381 46.568 133.639 45.56 132.659 44.776C131.707 43.992 130.447 43.6 128.879 43.6C127.395 43.6 126.163 44.048 125.183 44.944C124.231 45.84 123.755 47.016 123.755 48.472C123.755 49.732 124.077 50.796 124.721 51.664C125.365 52.504 126.219 53.274 127.283 53.974C128.375 54.646 129.551 55.374 130.811 56.158C132.267 57.054 133.555 57.95 134.675 58.846C135.823 59.714 136.719 60.68 137.363 61.744C138.035 62.808 138.371 64.096 138.371 65.608C138.371 67.4 137.965 68.884 137.153 70.06C136.341 71.236 135.263 72.118 133.919 72.706C132.575 73.294 131.091 73.588 129.467 73.588C127.983 73.588 126.807 73.42 125.939 73.084C125.071 72.748 124.329 72.398 123.713 72.034C123.097 71.642 122.621 71.446 122.285 71.446C121.837 71.446 121.529 72.062 121.361 73.294H120.395C120.451 72.706 120.479 72.02 120.479 71.236C120.507 70.424 120.521 69.374 120.521 68.086C120.549 66.798 120.563 65.174 120.563 63.214H121.529C121.641 64.894 121.949 66.462 122.453 67.918C122.985 69.374 123.783 70.55 124.847 71.446C125.939 72.314 127.381 72.748 129.173 72.748C130.545 72.748 131.791 72.314 132.911 71.446C134.059 70.55 134.633 69.122 134.633 67.162C134.633 65.454 134.031 64.04 132.827 62.92C131.623 61.8 130.041 60.652 128.081 59.476C126.765 58.664 125.533 57.838 124.385 56.998C123.237 56.158 122.313 55.192 121.613 54.1C120.941 52.98 120.605 51.636 120.605 50.068C120.605 48.416 120.969 47.058 121.697 45.994C122.453 44.902 123.433 44.104 124.637 43.6C125.841 43.068 127.129 42.802 128.501 42.802ZM165.295 43.264C165.183 44.328 165.099 45.364 165.043 46.372C165.015 47.352 165.001 48.108 165.001 48.64C165.001 49.312 165.015 49.942 165.043 50.53C165.071 51.118 165.099 51.636 165.127 52.084H164.161C163.965 50.124 163.699 48.584 163.363 47.464C163.027 46.316 162.439 45.49 161.599 44.986C160.759 44.482 159.457 44.23 157.693 44.23H155.425V68.128C155.425 69.248 155.523 70.088 155.719 70.648C155.943 71.208 156.363 71.586 156.979 71.782C157.595 71.978 158.491 72.104 159.667 72.16V73C158.939 72.944 158.015 72.916 156.895 72.916C155.775 72.888 154.641 72.874 153.493 72.874C152.233 72.874 151.043 72.888 149.923 72.916C148.831 72.916 147.949 72.944 147.277 73V72.16C148.453 72.104 149.349 71.978 149.965 71.782C150.581 71.586 150.987 71.208 151.183 70.648C151.407 70.088 151.519 69.248 151.519 68.128V44.23H149.251C147.515 44.23 146.213 44.482 145.345 44.986C144.505 45.49 143.917 46.316 143.581 47.464C143.245 48.584 142.979 50.124 142.783 52.084H141.817C141.873 51.636 141.901 51.118 141.901 50.53C141.929 49.942 141.943 49.312 141.943 48.64C141.943 48.108 141.915 47.352 141.859 46.372C141.831 45.364 141.761 44.328 141.649 43.264C142.825 43.292 144.099 43.32 145.471 43.348C146.871 43.376 148.271 43.39 149.671 43.39C151.071 43.39 152.345 43.39 153.493 43.39C154.641 43.39 155.901 43.39 157.273 43.39C158.673 43.39 160.073 43.376 161.473 43.348C162.873 43.32 164.147 43.292 165.295 43.264ZM168.281 43.264C168.869 43.292 169.639 43.32 170.591 43.348C171.543 43.376 172.481 43.39 173.405 43.39C174.721 43.39 175.981 43.376 177.185 43.348C178.389 43.32 179.243 43.306 179.747 43.306C183.135 43.306 185.669 44.006 187.349 45.406C189.029 46.806 189.869 48.542 189.869 50.614C189.869 51.454 189.701 52.35 189.365 53.302C189.029 54.254 188.441 55.15 187.601 55.99C186.789 56.83 185.669 57.53 184.241 58.09C182.813 58.622 181.007 58.888 178.823 58.888H174.791V58.048H178.403C180.391 58.048 181.903 57.74 182.939 57.124C184.003 56.48 184.717 55.64 185.081 54.604C185.473 53.54 185.669 52.364 185.669 51.076C185.669 48.864 185.137 47.156 184.073 45.952C183.037 44.72 181.245 44.104 178.697 44.104C177.409 44.104 176.569 44.342 176.177 44.818C175.785 45.294 175.589 46.26 175.589 47.716V68.548C175.589 69.556 175.673 70.312 175.841 70.816C176.009 71.32 176.331 71.656 176.807 71.824C177.311 71.992 178.039 72.104 178.991 72.16V73C178.347 72.944 177.535 72.916 176.555 72.916C175.603 72.888 174.637 72.874 173.657 72.874C172.565 72.874 171.543 72.888 170.591 72.916C169.639 72.916 168.869 72.944 168.281 73V72.16C169.233 72.104 169.947 71.992 170.423 71.824C170.927 71.656 171.263 71.32 171.431 70.816C171.599 70.312 171.683 69.556 171.683 68.548V47.716C171.683 46.68 171.599 45.924 171.431 45.448C171.263 44.944 170.927 44.608 170.423 44.44C169.947 44.244 169.233 44.132 168.281 44.104V43.264ZM174.959 58.174C176.471 58.23 177.661 58.3 178.529 58.384C179.397 58.44 180.097 58.496 180.629 58.552C181.189 58.608 181.721 58.678 182.225 58.762C184.101 59.07 185.445 59.644 186.257 60.484C187.097 61.296 187.713 62.57 188.105 64.306L189.155 68.59C189.435 69.822 189.715 70.718 189.995 71.278C190.303 71.81 190.765 72.062 191.381 72.034C191.857 72.006 192.249 71.852 192.557 71.572C192.893 71.292 193.243 70.914 193.607 70.438L194.237 70.9C193.649 71.768 193.033 72.44 192.389 72.916C191.773 73.364 190.891 73.588 189.743 73.588C188.707 73.588 187.797 73.28 187.013 72.664C186.229 72.048 185.641 70.844 185.249 69.052L184.325 64.852C184.073 63.648 183.779 62.612 183.443 61.744C183.135 60.848 182.687 60.148 182.099 59.644C181.539 59.14 180.699 58.888 179.579 58.888H175.043L174.959 58.174ZM222.031 48.5933C222.84 49.34 223.244 50.5067 223.244 52.0933C223.244 53.68 222.84 55.5156 222.031 57.6C221.253 59.6844 220.118 61.8 218.624 63.9467C217.162 66.0622 215.498 68.0222 213.631 69.8267C211.764 71.6311 209.618 73.1089 207.191 74.26C204.795 75.4111 202.384 75.9867 199.958 75.9867C197.842 75.9867 196.24 75.3489 195.151 74.0733C194.093 72.8289 193.564 71.1178 193.564 68.94C193.564 67.0422 193.953 64.9578 194.731 62.6867C195.54 60.4156 196.691 58.16 198.184 55.92C199.709 53.68 201.435 51.6422 203.364 49.8067C205.324 47.94 207.58 46.4467 210.131 45.3267C212.713 44.1756 215.342 43.6 218.018 43.6C219.418 43.6 220.475 43.9267 221.191 44.58C221.938 45.2333 222.311 46.0733 222.311 47.1C222.311 47.5978 222.218 48.0956 222.031 48.5933ZM200.004 75.52C201.871 75.52 203.753 75.0844 205.651 74.2133C207.58 73.3422 209.338 72.2067 210.924 70.8067C212.511 69.4067 214.004 67.82 215.404 66.0467C216.804 64.2733 217.971 62.4844 218.904 60.68C219.869 58.8756 220.631 57.1489 221.191 55.5C221.751 53.82 222.031 52.3733 222.031 51.16C222.031 50.4444 221.922 49.8378 221.704 49.34C221.113 50.5533 220.133 51.5644 218.764 52.3733C217.395 53.1511 215.778 53.54 213.911 53.54C212.635 53.54 211.547 53.3378 210.644 52.9333C208.964 54.6133 207.58 56.4333 206.491 58.3933C205.402 60.3222 204.858 61.9089 204.858 63.1533C204.858 64.5533 205.48 65.2689 206.724 65.3C207.533 65.3 208.295 64.9422 209.011 64.2267C209.727 63.48 210.131 62.7178 210.224 61.94C210.255 61.8467 210.271 61.7689 210.271 61.7067C210.271 61.4889 210.318 61.3956 210.411 61.4267C210.473 61.4267 210.52 61.4578 210.551 61.52C210.551 61.6133 210.504 61.7067 210.411 61.8C210.349 61.8933 210.318 61.94 210.318 61.94C210.255 62.78 209.867 63.5578 209.151 64.2733C208.435 64.9889 207.627 65.3622 206.724 65.3933H206.678C205.713 65.3622 204.982 65.0667 204.484 64.5067C204.018 63.9467 203.784 63.1689 203.784 62.1733C203.784 60.7111 204.282 59.0311 205.278 57.1333C206.304 55.2044 207.642 53.4933 209.291 52C208.575 51.2844 208.264 50.3511 208.358 49.2H208.404C208.311 50.3511 208.622 51.2689 209.338 51.9533C210.364 51.0511 211.438 50.3044 212.558 49.7133C215.047 48.4067 217.364 47.7533 219.511 47.7533C220.351 47.7533 221.067 47.94 221.658 48.3133C221.782 47.8467 221.844 47.3956 221.844 46.96C221.844 46.0578 221.518 45.3111 220.864 44.72C220.211 44.1289 219.247 43.8333 217.971 43.8333C215.638 43.8333 213.289 44.44 210.924 45.6533C208.591 46.8667 206.507 48.4533 204.671 50.4133C202.867 52.3422 201.233 54.4578 199.771 56.76C198.34 59.0622 197.235 61.3644 196.458 63.6667C195.711 65.9689 195.338 68.0378 195.338 69.8733C195.338 71.6156 195.711 72.9844 196.458 73.98C197.235 75.0067 198.418 75.52 200.004 75.52ZM221.424 48.8733C221.02 48.2822 220.429 47.9867 219.651 47.9867C216.882 47.9867 213.895 49.6044 210.691 52.84C211.5 53.1822 212.464 53.3533 213.584 53.3533C215.482 53.3533 217.131 52.9178 218.531 52.0467C219.931 51.1756 220.895 50.1178 221.424 48.8733ZM247.69 43.264V44.104C246.738 44.132 246.01 44.272 245.506 44.524C245.03 44.776 244.708 45.182 244.54 45.742C244.372 46.302 244.288 47.1 244.288 48.136V73.21C244.12 73.21 243.952 73.21 243.784 73.21C243.644 73.21 243.49 73.21 243.322 73.21L225.682 45.952V68.128C225.682 69.136 225.766 69.934 225.934 70.522C226.13 71.082 226.494 71.488 227.026 71.74C227.586 71.964 228.412 72.104 229.504 72.16V73C229 72.944 228.342 72.916 227.53 72.916C226.718 72.888 225.948 72.874 225.22 72.874C224.52 72.874 223.806 72.888 223.078 72.916C222.378 72.916 221.79 72.944 221.314 73V72.16C222.266 72.104 222.98 71.964 223.456 71.74C223.96 71.488 224.296 71.082 224.464 70.522C224.632 69.934 224.716 69.136 224.716 68.128V47.716C224.716 46.68 224.632 45.924 224.464 45.448C224.296 44.944 223.96 44.608 223.456 44.44C222.98 44.244 222.266 44.132 221.314 44.104V43.264C221.79 43.292 222.378 43.32 223.078 43.348C223.806 43.376 224.52 43.39 225.22 43.39C225.836 43.39 226.424 43.376 226.984 43.348C227.544 43.32 228.048 43.292 228.496 43.264L243.322 66.112V48.136C243.322 47.1 243.224 46.302 243.028 45.742C242.86 45.182 242.496 44.776 241.936 44.524C241.404 44.272 240.592 44.132 239.5 44.104V43.264C240.004 43.292 240.662 43.32 241.474 43.348C242.314 43.376 243.084 43.39 243.784 43.39C244.512 43.39 245.226 43.376 245.926 43.348C246.654 43.32 247.242 43.292 247.69 43.264ZM264.709 42.676C266.529 42.676 267.999 42.956 269.119 43.516C270.239 44.048 271.289 44.678 272.269 45.406C272.633 45.686 272.913 45.826 273.109 45.826C273.641 45.826 273.991 44.972 274.159 43.264H275.125C275.069 44.3 275.027 45.56 274.999 47.044C274.971 48.528 274.957 50.488 274.957 52.924H273.991C273.795 51.748 273.557 50.614 273.277 49.522C272.997 48.43 272.535 47.492 271.891 46.708C271.079 45.672 270.015 44.874 268.699 44.314C267.383 43.726 266.025 43.432 264.625 43.432C263.225 43.432 261.951 43.782 260.803 44.482C259.683 45.154 258.717 46.134 257.905 47.422C257.093 48.71 256.463 50.264 256.015 52.084C255.595 53.876 255.385 55.906 255.385 58.174C255.385 63.214 256.197 66.91 257.821 69.262C259.445 71.586 261.965 72.748 265.381 72.748C266.389 72.748 267.257 72.608 267.985 72.328C268.741 72.02 269.329 71.726 269.749 71.446C270.281 71.082 270.617 70.746 270.757 70.438C270.897 70.102 270.967 69.668 270.967 69.136V65.104C270.967 63.956 270.855 63.102 270.631 62.542C270.407 61.982 269.987 61.604 269.371 61.408C268.783 61.212 267.901 61.1 266.725 61.072V60.232C267.229 60.26 267.817 60.288 268.489 60.316C269.161 60.316 269.861 60.33 270.589 60.358C271.345 60.358 272.031 60.358 272.647 60.358C273.571 60.358 274.397 60.344 275.125 60.316C275.881 60.288 276.511 60.26 277.015 60.232V61.072C276.091 61.128 275.503 61.352 275.251 61.744C274.999 62.136 274.873 63.116 274.873 64.684V73H274.033C274.005 72.524 273.893 72.006 273.697 71.446C273.529 70.886 273.263 70.606 272.899 70.606C272.731 70.606 272.563 70.648 272.395 70.732C272.227 70.816 271.933 71.012 271.513 71.32C270.589 72.02 269.609 72.58 268.573 73C267.537 73.392 266.333 73.588 264.961 73.588C260.621 73.588 257.233 72.272 254.797 69.64C252.389 66.98 251.185 63.312 251.185 58.636C251.185 55.36 251.773 52.532 252.949 50.152C254.125 47.772 255.721 45.938 257.737 44.65C259.781 43.334 262.105 42.676 264.709 42.676ZM120.362 86.3467C120.953 86.3467 121.248 86.4711 121.248 86.72C121.248 86.9378 121.062 87.0467 120.688 87.0467C120.595 87.0467 120.393 87 120.082 86.9067C119.771 86.7822 119.537 86.72 119.382 86.72C118.013 86.8133 116.395 87.4511 114.528 88.6333C112.662 89.8156 110.826 91.2311 109.022 92.88C107.248 94.4978 105.226 96.5356 102.955 98.9933C100.715 101.451 98.7396 103.691 97.0285 105.713C95.3485 107.704 93.4196 110.007 91.2418 112.62C89.064 115.233 87.3996 117.193 86.2485 118.5L86.1085 118.407C87.7885 115.607 89.4374 112.558 91.0551 109.26C92.704 105.962 93.8707 103.551 94.5551 102.027C95.2396 100.471 96.2507 98.1378 97.5885 95.0267C96.0951 96.6444 93.7618 99.1178 90.5885 102.447C87.4151 105.776 84.5685 108.809 82.0485 111.547C79.5285 114.284 77.5218 116.602 76.0285 118.5L75.8885 118.407C79.684 112.527 82.9196 106.896 85.5951 101.513C88.2707 96.1 89.6085 92.2422 89.6085 89.94C89.6085 88.1978 88.9863 86.8289 87.7418 85.8333C86.5285 84.8378 84.9107 84.34 82.8885 84.34C81.6751 84.34 80.384 84.5733 79.0151 85.04C77.6463 85.4756 76.2929 86.1289 74.9551 87C73.6485 87.84 72.4507 88.8356 71.3618 89.9867C70.304 91.1378 69.4329 92.5067 68.7485 94.0933C68.0951 95.68 67.7685 97.3133 67.7685 98.9933C67.7685 100.393 68.1885 101.451 69.0285 102.167C69.8996 102.851 71.0351 103.193 72.4351 103.193C73.9907 103.193 75.4996 102.804 76.9618 102.027C78.4551 101.249 79.6996 100.284 80.6951 99.1333C81.6907 97.9822 82.484 96.7689 83.0751 95.4933C83.6974 94.1867 84.0085 93.02 84.0085 91.9933C84.0085 91.1533 83.7907 90.4844 83.3551 89.9867C82.9196 89.4889 82.2507 89.24 81.3485 89.24C80.0107 89.24 78.564 89.7378 77.0085 90.7333C75.4529 91.6978 74.1307 93.0511 73.0418 94.7933L72.9018 94.7C73.9907 92.9267 75.3285 91.5422 76.9151 90.5467C78.5018 89.5511 79.9796 89.0533 81.3485 89.0533C82.2818 89.0533 83.0285 89.3178 83.5885 89.8467C84.1796 90.3444 84.4751 91.1067 84.4751 92.1333C84.4751 94 84.1018 95.7733 83.3551 97.4533C82.6085 99.1022 81.644 100.487 80.4618 101.607C79.3107 102.696 78.0351 103.551 76.6351 104.173C75.2663 104.796 73.944 105.107 72.6685 105.107C71.0818 105.107 69.7907 104.609 68.7951 103.613C67.7996 102.618 67.3018 101.14 67.3018 99.18C67.3018 97.4689 67.644 95.82 68.3285 94.2333C69.0129 92.6156 69.9151 91.2156 71.0351 90.0333C72.1551 88.8511 73.3996 87.8089 74.7685 86.9067C76.1374 86.0044 77.5218 85.32 78.9218 84.8533C80.3529 84.3867 81.6751 84.1533 82.8885 84.1533C85.0974 84.1533 86.9796 84.7289 88.5351 85.88C90.0907 87 90.8685 88.68 90.8685 90.92C90.8685 93.5022 90.1218 96.3178 88.6285 99.3667C87.1663 102.416 84.8018 106.507 81.5351 111.64C81.3796 111.889 81.1774 112.169 80.9285 112.48C82.7951 110.427 85.6885 107.331 89.6085 103.193C93.5596 99.0556 96.2818 96.1778 97.7751 94.56C99.0507 91.6044 100.046 89.4889 100.762 88.2133C101.477 86.9378 102.162 86.3 102.815 86.3C103.313 86.3 103.562 86.5178 103.562 86.9533C103.562 87.7 102.551 89.2711 100.528 91.6667C100.217 92.4444 99.6263 93.8911 98.7551 96.0067C97.884 98.1222 97.1685 99.8333 96.6085 101.14C96.0796 102.416 95.4574 103.893 94.7418 105.573C94.0263 107.253 93.3885 108.638 92.8285 109.727C92.2996 110.784 91.8485 111.562 91.4751 112.06C91.6929 111.811 92.004 111.438 92.4085 110.94C93.7774 109.291 94.8196 108.031 95.5351 107.16C96.2818 106.289 97.3396 105.044 98.7085 103.427C100.077 101.809 101.182 100.533 102.022 99.6C102.893 98.6667 103.982 97.5311 105.288 96.1933C106.595 94.8244 107.7 93.7356 108.602 92.9267C109.535 92.1178 110.577 91.2467 111.728 90.3133C112.911 89.3489 113.953 88.6178 114.855 88.12C115.757 87.6222 116.691 87.2022 117.655 86.86C118.62 86.5178 119.522 86.3467 120.362 86.3467ZM102.955 86.5333C102.768 86.5333 102.037 88.0733 100.762 91.1533C102.504 89.0378 103.375 87.6378 103.375 86.9533C103.375 86.6733 103.235 86.5333 102.955 86.5333ZM131.119 85.264C131.007 86.244 130.923 87.196 130.867 88.12C130.839 89.044 130.825 89.744 130.825 90.22C130.825 90.724 130.839 91.214 130.867 91.69C130.895 92.138 130.923 92.516 130.951 92.824H129.985C129.817 91.172 129.579 89.87 129.271 88.918C128.963 87.938 128.431 87.252 127.675 86.86C126.947 86.44 125.841 86.23 124.357 86.23H120.871C119.919 86.23 119.191 86.314 118.687 86.482C118.211 86.622 117.889 86.944 117.721 87.448C117.553 87.924 117.469 88.68 117.469 89.716V110.548C117.469 111.556 117.553 112.312 117.721 112.816C117.889 113.32 118.211 113.656 118.687 113.824C119.191 113.964 119.919 114.034 120.871 114.034H123.937C125.701 114.034 127.031 113.796 127.927 113.32C128.851 112.844 129.509 112.074 129.901 111.01C130.321 109.918 130.629 108.448 130.825 106.6H131.791C131.707 107.356 131.665 108.364 131.665 109.624C131.665 110.156 131.679 110.926 131.707 111.934C131.763 112.914 131.847 113.936 131.959 115C130.531 114.944 128.921 114.916 127.129 114.916C125.337 114.888 123.741 114.874 122.341 114.874C121.501 114.874 120.381 114.874 118.981 114.874C117.609 114.874 116.139 114.888 114.571 114.916C113.003 114.916 111.533 114.944 110.161 115V114.16C111.113 114.104 111.827 113.992 112.303 113.824C112.807 113.656 113.143 113.32 113.311 112.816C113.479 112.312 113.563 111.556 113.563 110.548V89.716C113.563 88.68 113.479 87.924 113.311 87.448C113.143 86.944 112.807 86.608 112.303 86.44C111.827 86.244 111.113 86.132 110.161 86.104V85.264C111.533 85.292 113.003 85.32 114.571 85.348C116.139 85.376 117.609 85.39 118.981 85.39C120.381 85.39 121.501 85.39 122.341 85.39C123.629 85.39 125.085 85.39 126.709 85.39C128.361 85.362 129.831 85.32 131.119 85.264ZM123.895 99.628C123.895 99.628 123.895 99.768 123.895 100.048C123.895 100.328 123.895 100.468 123.895 100.468H116.209C116.209 100.468 116.209 100.328 116.209 100.048C116.209 99.768 116.209 99.628 116.209 99.628H123.895ZM125.113 94.084C125.001 95.68 124.945 96.898 124.945 97.738C124.973 98.578 124.987 99.348 124.987 100.048C124.987 100.748 125.001 101.518 125.029 102.358C125.057 103.198 125.127 104.416 125.239 106.012H124.273C124.161 105.116 124.021 104.248 123.853 103.408C123.713 102.54 123.377 101.84 122.845 101.308C122.341 100.748 121.473 100.468 120.241 100.468V99.628C121.473 99.628 122.327 99.306 122.803 98.662C123.307 98.018 123.629 97.262 123.769 96.394C123.909 95.526 124.035 94.756 124.147 94.084H125.113ZM135.755 85.264C136.343 85.292 137.113 85.32 138.065 85.348C139.017 85.376 139.955 85.39 140.879 85.39C142.195 85.39 143.455 85.376 144.659 85.348C145.863 85.32 146.717 85.306 147.221 85.306C150.609 85.306 153.143 86.006 154.823 87.406C156.503 88.806 157.343 90.542 157.343 92.614C157.343 93.454 157.175 94.35 156.839 95.302C156.503 96.254 155.915 97.15 155.075 97.99C154.263 98.83 153.143 99.53 151.715 100.09C150.287 100.622 148.481 100.888 146.297 100.888H142.265V100.048H145.877C147.865 100.048 149.377 99.74 150.413 99.124C151.477 98.48 152.191 97.64 152.555 96.604C152.947 95.54 153.143 94.364 153.143 93.076C153.143 90.864 152.611 89.156 151.547 87.952C150.511 86.72 148.719 86.104 146.171 86.104C144.883 86.104 144.043 86.342 143.651 86.818C143.259 87.294 143.063 88.26 143.063 89.716V110.548C143.063 111.556 143.147 112.312 143.315 112.816C143.483 113.32 143.805 113.656 144.281 113.824C144.785 113.992 145.513 114.104 146.465 114.16V115C145.821 114.944 145.009 114.916 144.029 114.916C143.077 114.888 142.111 114.874 141.131 114.874C140.039 114.874 139.017 114.888 138.065 114.916C137.113 114.916 136.343 114.944 135.755 115V114.16C136.707 114.104 137.421 113.992 137.897 113.824C138.401 113.656 138.737 113.32 138.905 112.816C139.073 112.312 139.157 111.556 139.157 110.548V89.716C139.157 88.68 139.073 87.924 138.905 87.448C138.737 86.944 138.401 86.608 137.897 86.44C137.421 86.244 136.707 86.132 135.755 86.104V85.264ZM142.433 100.174C143.945 100.23 145.135 100.3 146.003 100.384C146.871 100.44 147.571 100.496 148.103 100.552C148.663 100.608 149.195 100.678 149.699 100.762C151.575 101.07 152.919 101.644 153.731 102.484C154.571 103.296 155.187 104.57 155.579 106.306L156.629 110.59C156.909 111.822 157.189 112.718 157.469 113.278C157.777 113.81 158.239 114.062 158.855 114.034C159.331 114.006 159.723 113.852 160.031 113.572C160.367 113.292 160.717 112.914 161.081 112.438L161.711 112.9C161.123 113.768 160.507 114.44 159.863 114.916C159.247 115.364 158.365 115.588 157.217 115.588C156.181 115.588 155.271 115.28 154.487 114.664C153.703 114.048 153.115 112.844 152.723 111.052L151.799 106.852C151.547 105.648 151.253 104.612 150.917 103.744C150.609 102.848 150.161 102.148 149.573 101.644C149.013 101.14 148.173 100.888 147.053 100.888H142.517L142.433 100.174ZM185.802 85.264C185.69 86.328 185.606 87.364 185.55 88.372C185.522 89.352 185.508 90.108 185.508 90.64C185.508 91.312 185.522 91.942 185.55 92.53C185.578 93.118 185.606 93.636 185.634 94.084H184.668C184.472 92.124 184.206 90.584 183.87 89.464C183.534 88.316 182.946 87.49 182.106 86.986C181.266 86.482 179.964 86.23 178.2 86.23H175.932V110.128C175.932 111.248 176.03 112.088 176.226 112.648C176.45 113.208 176.87 113.586 177.486 113.782C178.102 113.978 178.998 114.104 180.174 114.16V115C179.446 114.944 178.522 114.916 177.402 114.916C176.282 114.888 175.148 114.874 174 114.874C172.74 114.874 171.55 114.888 170.43 114.916C169.338 114.916 168.456 114.944 167.784 115V114.16C168.96 114.104 169.856 113.978 170.472 113.782C171.088 113.586 171.494 113.208 171.69 112.648C171.914 112.088 172.026 111.248 172.026 110.128V86.23H169.758C168.022 86.23 166.72 86.482 165.852 86.986C165.012 87.49 164.424 88.316 164.088 89.464C163.752 90.584 163.486 92.124 163.29 94.084H162.324C162.38 93.636 162.408 93.118 162.408 92.53C162.436 91.942 162.45 91.312 162.45 90.64C162.45 90.108 162.422 89.352 162.366 88.372C162.338 87.364 162.268 86.328 162.156 85.264C163.332 85.292 164.606 85.32 165.978 85.348C167.378 85.376 168.778 85.39 170.178 85.39C171.578 85.39 172.852 85.39 174 85.39C175.148 85.39 176.408 85.39 177.78 85.39C179.18 85.39 180.58 85.376 181.98 85.348C183.38 85.32 184.654 85.292 185.802 85.264ZM206.344 115V114.16C207.296 114.104 208.01 113.992 208.486 113.824C208.99 113.656 209.326 113.32 209.494 112.816C209.662 112.312 209.746 111.556 209.746 110.548V89.716C209.746 88.68 209.662 87.924 209.494 87.448C209.326 86.944 208.99 86.608 208.486 86.44C208.01 86.244 207.296 86.132 206.344 86.104V85.264C206.988 85.292 207.8 85.32 208.78 85.348C209.76 85.376 210.726 85.39 211.678 85.39C212.77 85.39 213.792 85.376 214.744 85.348C215.696 85.32 216.466 85.292 217.054 85.264V86.104C216.102 86.132 215.374 86.244 214.87 86.44C214.394 86.608 214.072 86.944 213.904 87.448C213.736 87.924 213.652 88.68 213.652 89.716V110.548C213.652 111.556 213.736 112.312 213.904 112.816C214.072 113.32 214.394 113.656 214.87 113.824C215.374 113.992 216.102 114.104 217.054 114.16V115C216.466 114.944 215.696 114.916 214.744 114.916C213.792 114.888 212.77 114.874 211.678 114.874C210.726 114.874 209.76 114.888 208.78 114.916C207.8 114.916 206.988 114.944 206.344 115ZM188.788 115V114.16C189.74 114.104 190.454 113.992 190.93 113.824C191.434 113.656 191.77 113.32 191.938 112.816C192.106 112.312 192.19 111.556 192.19 110.548V89.716C192.19 88.68 192.106 87.924 191.938 87.448C191.77 86.944 191.434 86.608 190.93 86.44C190.454 86.244 189.74 86.132 188.788 86.104V85.264C189.376 85.292 190.146 85.32 191.098 85.348C192.05 85.376 193.072 85.39 194.164 85.39C195.144 85.39 196.11 85.376 197.062 85.348C198.042 85.32 198.854 85.292 199.498 85.264V86.104C198.546 86.132 197.818 86.244 197.314 86.44C196.838 86.608 196.516 86.944 196.348 87.448C196.18 87.924 196.096 88.68 196.096 89.716V110.548C196.096 111.556 196.18 112.312 196.348 112.816C196.516 113.32 196.838 113.656 197.314 113.824C197.818 113.992 198.546 114.104 199.498 114.16V115C198.854 114.944 198.042 114.916 197.062 114.916C196.11 114.888 195.144 114.874 194.164 114.874C193.072 114.874 192.05 114.888 191.098 114.916C190.146 114.916 189.376 114.944 188.788 115ZM194.626 100.468V99.628H211.216V100.468H194.626Z" fill="#A77E3D"/>
</svg>
