<svg  viewBox="0 0 1306 265" fill="none" xmlns="http://www.w3.org/2000/svg">
<path d="M441.604 0.959999C441.258 3.99333 440.998 6.93999 440.824 9.79999C440.738 12.66 440.694 14.8267 440.694 16.3C440.694 17.86 440.738 19.3767 440.824 20.85C440.911 22.2367 440.998 23.4067 441.084 24.36H438.094C437.574 19.2467 436.838 15.2167 435.884 12.27C434.931 9.23666 433.284 7.11333 430.944 5.9C428.691 4.59999 425.268 3.94999 420.674 3.94999H409.884C406.938 3.94999 404.684 4.20999 403.124 4.73C401.651 5.16333 400.654 6.16 400.134 7.72C399.614 9.19333 399.354 11.5333 399.354 14.74V79.22C399.354 82.34 399.614 84.68 400.134 86.24C400.654 87.8 401.651 88.84 403.124 89.36C404.684 89.7933 406.938 90.01 409.884 90.01H419.374C424.834 90.01 428.951 89.2733 431.724 87.8C434.584 86.3267 436.621 83.9433 437.834 80.65C439.134 77.27 440.088 72.72 440.694 67H443.684C443.424 69.34 443.294 72.46 443.294 76.36C443.294 78.0067 443.338 80.39 443.424 83.51C443.598 86.5433 443.858 89.7067 444.204 93C439.784 92.8267 434.801 92.74 429.254 92.74C423.708 92.6533 418.768 92.61 414.434 92.61C411.834 92.61 408.368 92.61 404.034 92.61C399.788 92.61 395.238 92.6533 390.384 92.74C385.531 92.74 380.981 92.8267 376.734 93V90.4C379.681 90.2267 381.891 89.88 383.364 89.36C384.924 88.84 385.964 87.8 386.484 86.24C387.004 84.68 387.264 82.34 387.264 79.22V14.74C387.264 11.5333 387.004 9.19333 386.484 7.72C385.964 6.16 384.924 5.12 383.364 4.6C381.891 3.99333 379.681 3.64666 376.734 3.56V0.959999C380.981 1.04666 385.531 1.13333 390.384 1.22C395.238 1.30666 399.788 1.34999 404.034 1.34999C408.368 1.34999 411.834 1.34999 414.434 1.34999C418.421 1.34999 422.928 1.34999 427.954 1.34999C433.068 1.26333 437.618 1.13333 441.604 0.959999ZM419.244 45.42C419.244 45.42 419.244 45.8533 419.244 46.72C419.244 47.5867 419.244 48.02 419.244 48.02H395.454C395.454 48.02 395.454 47.5867 395.454 46.72C395.454 45.8533 395.454 45.42 395.454 45.42H419.244ZM423.014 28.26C422.668 33.2 422.494 36.97 422.494 39.57C422.581 42.17 422.624 44.5533 422.624 46.72C422.624 48.8867 422.668 51.27 422.754 53.87C422.841 56.47 423.058 60.24 423.404 65.18H420.414C420.068 62.4067 419.634 59.72 419.114 57.12C418.681 54.4333 417.641 52.2667 415.994 50.62C414.434 48.8867 411.748 48.02 407.934 48.02V45.42C411.748 45.42 414.391 44.4233 415.864 42.43C417.424 40.4367 418.421 38.0967 418.854 35.41C419.288 32.7233 419.678 30.34 420.024 28.26H423.014ZM482.213 0.959999V3.69C477.88 3.69 475.236 4.16666 474.283 5.11999C473.33 5.98666 473.46 7.41667 474.673 9.41L523.293 83.77C524.94 86.2833 526.327 87.9733 527.453 88.84C528.58 89.62 530.097 90.0967 532.003 90.27V93C530.877 92.9133 529.273 92.8267 527.193 92.74C525.2 92.5667 523.077 92.48 520.823 92.48C517.357 92.48 513.847 92.5667 510.293 92.74C506.826 92.8267 504.226 92.9133 502.493 93V90.27C506.826 90.27 509.6 90.01 510.813 89.49C512.026 88.97 512.026 87.7567 510.813 85.85L461.413 10.19C459.766 7.67666 458.38 5.98666 457.253 5.11999C456.213 4.25333 454.696 3.77666 452.703 3.69V0.959999C453.83 1.04666 455.433 1.17666 457.513 1.34999C459.593 1.43666 461.716 1.47999 463.883 1.47999C467.436 1.47999 470.773 1.43666 473.893 1.34999C477.013 1.17666 479.786 1.04666 482.213 0.959999ZM489.363 45.55C489.363 45.55 489.536 46.1133 489.883 47.24C490.316 48.3667 490.533 48.93 490.533 48.93L474.543 72.72C471.423 77.4 469.776 80.9967 469.603 83.51C469.516 86.0233 470.513 87.8 472.593 88.84C474.673 89.7933 477.533 90.3133 481.173 90.4V93C479.526 92.9133 477.62 92.87 475.453 92.87C473.286 92.7833 471.163 92.74 469.083 92.74C467.003 92.6533 465.183 92.61 463.623 92.61C458.856 92.61 455.173 92.74 452.573 93V90.4C455.26 89.9667 457.773 88.7533 460.113 86.76C462.453 84.7667 464.836 81.9933 467.263 78.44L489.363 45.55ZM529.273 0.959999V3.56C526.587 3.90666 524.073 5.12 521.733 7.2C519.393 9.19333 517.01 11.9667 514.583 15.52L493.653 46.72C493.653 46.72 493.523 46.1567 493.263 45.03C493.003 43.9033 492.873 43.34 492.873 43.34L507.693 21.24C512.373 14.22 514.15 9.54 513.023 7.2C511.983 4.86 508.733 3.64666 503.273 3.56V0.959999C505.787 1.04666 508.343 1.13333 510.943 1.22C513.543 1.30666 515.97 1.34999 518.223 1.34999C522.99 1.34999 526.673 1.22 529.273 0.959999ZM538.346 0.959999C540.166 1.04666 542.549 1.13333 545.496 1.22C548.442 1.30666 551.346 1.34999 554.206 1.34999C558.279 1.34999 562.179 1.30666 565.906 1.22C569.632 1.13333 572.276 1.09 573.836 1.09C584.322 1.09 592.166 3.47333 597.366 8.24C602.566 13.0067 605.166 19.16 605.166 26.7C605.166 29.82 604.646 33.1133 603.606 36.58C602.566 39.96 600.746 43.1233 598.146 46.07C595.632 48.93 592.166 51.27 587.746 53.09C583.326 54.91 577.736 55.82 570.976 55.82H558.496V53.22H569.676C575.829 53.22 580.509 52.05 583.716 49.71C587.009 47.37 589.219 44.2933 590.346 40.48C591.559 36.6667 592.166 32.55 592.166 28.13C592.166 19.8967 590.519 13.7433 587.226 9.67C584.019 5.59666 578.472 3.56 570.586 3.56C566.599 3.56 563.999 4.29666 562.786 5.77C561.572 7.24333 560.966 10.2333 560.966 14.74V79.22C560.966 82.34 561.269 84.68 561.876 86.24C562.569 87.8 563.869 88.84 565.776 89.36C567.682 89.88 570.456 90.2267 574.096 90.4V93C571.842 92.8267 568.982 92.74 565.516 92.74C562.049 92.6533 558.539 92.61 554.986 92.61C551.606 92.61 548.442 92.6533 545.496 92.74C542.549 92.74 540.166 92.8267 538.346 93V90.4C541.292 90.2267 543.502 89.88 544.976 89.36C546.536 88.84 547.576 87.8 548.096 86.24C548.616 84.68 548.876 82.34 548.876 79.22V14.74C548.876 11.5333 548.616 9.19333 548.096 7.72C547.576 6.16 546.536 5.12 544.976 4.6C543.502 3.99333 541.292 3.64666 538.346 3.56V0.959999ZM647.541 0.959999V3.56C644.594 3.64666 642.341 3.99333 640.781 4.6C639.307 5.12 638.311 6.16 637.791 7.72C637.271 9.19333 637.011 11.5333 637.011 14.74V79.22C637.011 82.34 637.271 84.68 637.791 86.24C638.311 87.8 639.307 88.84 640.781 89.36C642.341 89.7933 644.594 90.01 647.541 90.01H657.031C662.491 90.01 666.607 89.23 669.381 87.67C672.241 86.11 674.277 83.5533 675.491 80C676.791 76.4467 677.744 71.68 678.351 65.7H681.341C681.081 68.3867 680.951 71.94 680.951 76.36C680.951 78.0067 680.994 80.39 681.081 83.51C681.254 86.5433 681.514 89.7067 681.861 93C677.441 92.8267 672.457 92.74 666.911 92.74C661.364 92.6533 656.424 92.61 652.091 92.61C649.491 92.61 646.024 92.61 641.691 92.61C637.444 92.61 632.894 92.6533 628.041 92.74C623.187 92.74 618.637 92.8267 614.391 93V90.4C617.337 90.2267 619.547 89.88 621.021 89.36C622.581 88.84 623.621 87.8 624.141 86.24C624.661 84.68 624.921 82.34 624.921 79.22V14.74C624.921 11.5333 624.661 9.19333 624.141 7.72C623.621 6.16 622.581 5.12 621.021 4.6C619.547 3.99333 617.337 3.64666 614.391 3.56V0.959999C616.211 1.04666 618.594 1.13333 621.541 1.22C624.487 1.30666 627.651 1.34999 631.031 1.34999C634.064 1.34999 637.054 1.30666 640.001 1.22C643.034 1.13333 645.547 1.04666 647.541 0.959999ZM772.89 17.4556C775.393 19.7667 776.645 23.3778 776.645 28.2889C776.645 33.2 775.393 38.8815 772.89 45.3333C770.482 51.7852 766.968 58.3333 762.345 64.9778C757.819 71.5259 752.668 77.5926 746.89 83.1778C741.112 88.763 734.468 93.337 726.956 96.9C719.542 100.463 712.079 102.244 704.568 102.244C698.019 102.244 693.06 100.27 689.69 96.3222C686.416 92.4704 684.779 87.1741 684.779 80.4333C684.779 74.5593 685.982 68.1074 688.39 61.0778C690.893 54.0481 694.456 47.0667 699.079 40.1333C703.797 33.2 709.142 26.8926 715.112 21.2111C721.179 15.4333 728.16 10.8111 736.056 7.34445C744.049 3.78148 752.186 2 760.468 2C764.801 2 768.075 3.01111 770.29 5.03333C772.601 7.05555 773.756 9.65555 773.756 12.8333C773.756 14.3741 773.468 15.9148 772.89 17.4556ZM704.712 100.8C710.49 100.8 716.316 99.4519 722.19 96.7556C728.16 94.0593 733.601 90.5444 738.512 86.2111C743.423 81.8778 748.045 76.9667 752.379 71.4778C756.712 65.9889 760.323 60.4519 763.212 54.8667C766.197 49.2815 768.556 43.937 770.29 38.8333C772.023 33.6333 772.89 29.1556 772.89 25.4C772.89 23.1852 772.553 21.3074 771.879 19.7667C770.049 23.5222 767.016 26.6518 762.779 29.1556C758.542 31.563 753.534 32.7667 747.756 32.7667C743.808 32.7667 740.438 32.1407 737.645 30.8889C732.445 36.0889 728.16 41.7222 724.79 47.7889C721.419 53.7593 719.734 58.6704 719.734 62.5222C719.734 66.8556 721.66 69.0704 725.512 69.1667C728.016 69.1667 730.375 68.0593 732.59 65.8444C734.805 63.5333 736.056 61.1741 736.345 58.7667C736.442 58.4778 736.49 58.237 736.49 58.0444C736.49 57.3704 736.634 57.0815 736.923 57.1778C737.116 57.1778 737.26 57.2741 737.356 57.4667C737.356 57.7556 737.212 58.0444 736.923 58.3333C736.731 58.6222 736.634 58.7667 736.634 58.7667C736.442 61.3667 735.238 63.7741 733.023 65.9889C730.808 68.2037 728.305 69.3593 725.512 69.4556H725.368C722.382 69.3593 720.119 68.4444 718.579 66.7111C717.134 64.9778 716.412 62.5704 716.412 59.4889C716.412 54.963 717.953 49.763 721.034 43.8889C724.212 37.9185 728.353 32.6222 733.456 28C731.242 25.7852 730.279 22.8963 730.568 19.3333H730.712C730.423 22.8963 731.386 25.737 733.601 27.8556C736.779 25.063 740.101 22.7518 743.568 20.9222C751.271 16.8778 758.445 14.8556 765.09 14.8556C767.69 14.8556 769.905 15.4333 771.734 16.5889C772.119 15.1444 772.312 13.7481 772.312 12.4C772.312 9.60741 771.301 7.2963 769.279 5.46666C767.256 3.63703 764.271 2.72222 760.323 2.72222C753.101 2.72222 745.831 4.6 738.512 8.35555C731.29 12.1111 724.838 17.0222 719.156 23.0889C713.571 29.0593 708.516 35.6074 703.99 42.7333C699.56 49.8593 696.142 56.9852 693.734 64.1111C691.423 71.237 690.268 77.6407 690.268 83.3222C690.268 88.7148 691.423 92.9519 693.734 96.0333C696.142 99.2111 699.801 100.8 704.712 100.8ZM771.012 18.3222C769.76 16.4926 767.931 15.5778 765.523 15.5778C756.953 15.5778 747.708 20.5852 737.79 30.6C740.293 31.6593 743.279 32.1889 746.745 32.1889C752.619 32.1889 757.723 30.8407 762.056 28.1444C766.39 25.4481 769.375 22.1741 771.012 18.3222ZM770.67 0.959999C772.49 1.04666 774.873 1.13333 777.82 1.22C780.767 1.30666 783.67 1.34999 786.53 1.34999C790.603 1.34999 794.503 1.30666 798.23 1.22C801.957 1.13333 804.6 1.09 806.16 1.09C816.647 1.09 824.49 3.25666 829.69 7.59C834.89 11.9233 837.49 17.2967 837.49 23.71C837.49 26.31 836.97 29.0833 835.93 32.03C834.89 34.9767 833.07 37.75 830.47 40.35C827.957 42.95 824.49 45.1167 820.07 46.85C815.65 48.4967 810.06 49.32 803.3 49.32H790.82V46.72H802C808.153 46.72 812.833 45.7667 816.04 43.86C819.333 41.8667 821.543 39.2667 822.67 36.06C823.883 32.7667 824.49 29.1267 824.49 25.14C824.49 18.2933 822.843 13.0067 819.55 9.27999C816.343 5.46666 810.797 3.56 802.91 3.56C798.923 3.56 796.323 4.29666 795.11 5.77C793.897 7.24333 793.29 10.2333 793.29 14.74V79.22C793.29 82.34 793.55 84.68 794.07 86.24C794.59 87.8 795.587 88.84 797.06 89.36C798.62 89.88 800.873 90.2267 803.82 90.4V93C801.827 92.8267 799.313 92.74 796.28 92.74C793.333 92.6533 790.343 92.61 787.31 92.61C783.93 92.61 780.767 92.6533 777.82 92.74C774.873 92.74 772.49 92.8267 770.67 93V90.4C773.617 90.2267 775.827 89.88 777.3 89.36C778.86 88.84 779.9 87.8 780.42 86.24C780.94 84.68 781.2 82.34 781.2 79.22V14.74C781.2 11.5333 780.94 9.19333 780.42 7.72C779.9 6.16 778.86 5.12 777.3 4.6C775.827 3.99333 773.617 3.64666 770.67 3.56V0.959999ZM791.34 47.11C796.02 47.2833 799.703 47.5 802.39 47.76C805.077 47.9333 807.243 48.1067 808.89 48.28C810.623 48.4533 812.27 48.67 813.83 48.93C819.637 49.8833 823.797 51.66 826.31 54.26C828.91 56.7733 830.817 60.7167 832.03 66.09L835.28 79.35C836.147 83.1633 837.013 85.9367 837.88 87.67C838.833 89.3167 840.263 90.0967 842.17 90.01C843.643 89.9233 844.857 89.4467 845.81 88.58C846.85 87.7133 847.933 86.5433 849.06 85.07L851.01 86.5C849.19 89.1867 847.283 91.2667 845.29 92.74C843.383 94.1267 840.653 94.82 837.1 94.82C833.893 94.82 831.077 93.8667 828.65 91.96C826.223 90.0533 824.403 86.3267 823.19 80.78L820.33 67.78C819.55 64.0533 818.64 60.8467 817.6 58.16C816.647 55.3867 815.26 53.22 813.44 51.66C811.707 50.1 809.107 49.32 805.64 49.32H791.6L791.34 47.11ZM919.837 0.959999C919.49 3.99333 919.23 6.93999 919.057 9.79999C918.97 12.66 918.927 14.8267 918.927 16.3C918.927 17.86 918.97 19.3767 919.057 20.85C919.144 22.2367 919.23 23.4067 919.317 24.36H916.327C915.807 19.2467 915.07 15.2167 914.117 12.27C913.164 9.23666 911.517 7.11333 909.177 5.9C906.924 4.59999 903.5 3.94999 898.907 3.94999H888.117C885.17 3.94999 882.917 4.20999 881.357 4.73C879.884 5.16333 878.887 6.16 878.367 7.72C877.847 9.19333 877.587 11.5333 877.587 14.74V79.22C877.587 82.34 877.847 84.68 878.367 86.24C878.887 87.8 879.884 88.84 881.357 89.36C882.917 89.7933 885.17 90.01 888.117 90.01H897.607C903.067 90.01 907.184 89.2733 909.957 87.8C912.817 86.3267 914.854 83.9433 916.067 80.65C917.367 77.27 918.32 72.72 918.927 67H921.917C921.657 69.34 921.527 72.46 921.527 76.36C921.527 78.0067 921.57 80.39 921.657 83.51C921.83 86.5433 922.09 89.7067 922.437 93C918.017 92.8267 913.034 92.74 907.487 92.74C901.94 92.6533 897 92.61 892.667 92.61C890.067 92.61 886.6 92.61 882.267 92.61C878.02 92.61 873.47 92.6533 868.617 92.74C863.764 92.74 859.214 92.8267 854.967 93V90.4C857.914 90.2267 860.124 89.88 861.597 89.36C863.157 88.84 864.197 87.8 864.717 86.24C865.237 84.68 865.497 82.34 865.497 79.22V14.74C865.497 11.5333 865.237 9.19333 864.717 7.72C864.197 6.16 863.157 5.12 861.597 4.6C860.124 3.99333 857.914 3.64666 854.967 3.56V0.959999C859.214 1.04666 863.764 1.13333 868.617 1.22C873.47 1.30666 878.02 1.34999 882.267 1.34999C886.6 1.34999 890.067 1.34999 892.667 1.34999C896.654 1.34999 901.16 1.34999 906.187 1.34999C911.3 1.26333 915.85 1.13333 919.837 0.959999ZM897.477 45.42C897.477 45.42 897.477 45.8533 897.477 46.72C897.477 47.5867 897.477 48.02 897.477 48.02H873.687C873.687 48.02 873.687 47.5867 873.687 46.72C873.687 45.8533 873.687 45.42 873.687 45.42H897.477ZM901.247 28.26C900.9 33.2 900.727 36.97 900.727 39.57C900.814 42.17 900.857 44.5533 900.857 46.72C900.857 48.8867 900.9 51.27 900.987 53.87C901.074 56.47 901.29 60.24 901.637 65.18H898.647C898.3 62.4067 897.867 59.72 897.347 57.12C896.914 54.4333 895.874 52.2667 894.227 50.62C892.667 48.8867 889.98 48.02 886.167 48.02V45.42C889.98 45.42 892.624 44.4233 894.097 42.43C895.657 40.4367 896.654 38.0967 897.087 35.41C897.52 32.7233 897.91 30.34 898.257 28.26H901.247ZM178.543 122.611C179.891 122.611 180.95 122.948 181.721 123.622C182.491 124.296 182.876 125.115 182.876 126.078C182.876 128.1 181.336 129.978 178.254 131.711C175.269 133.348 170.791 134.167 164.821 134.167V133.589C170.021 133.589 174.113 132.722 177.098 130.989C180.084 129.159 181.576 127.33 181.576 125.5C181.576 123.959 180.517 123.189 178.398 123.189C172.91 123.189 165.736 126.944 156.876 134.456C148.113 141.967 139.784 150.778 131.887 160.889C123.991 171 117.154 181.496 111.376 192.378C105.598 203.163 102.71 211.637 102.71 217.8C102.71 220.978 103.239 223.337 104.298 224.878C105.454 226.419 107.573 227.189 110.654 227.189C111.81 227.189 113.061 226.996 114.41 226.611C115.854 226.322 117.395 225.793 119.032 225.022C120.669 224.252 122.065 223.048 123.221 221.411C124.473 219.87 125.243 217.993 125.532 215.778C125.821 216.548 125.965 217.367 125.965 218.233C125.965 220.93 124.521 223.193 121.632 225.022C118.743 226.948 115.036 227.911 110.51 227.911C101.554 227.911 97.0763 223.722 97.0763 215.344C97.0763 210.048 98.8577 203.5 102.421 195.7C105.984 187.9 110.75 179.811 116.721 171.433C115.854 171.433 114.987 171.433 114.121 171.433C109.113 171.337 104.78 171.289 101.121 171.289C99.8689 171.289 97.9429 171.289 95.3429 171.289C85.8096 187.467 74.5911 200.274 61.6874 209.711C48.88 219.148 36.0726 223.867 23.2651 223.867C16.717 223.867 11.2763 221.989 6.94293 218.233C2.60959 214.574 0.442925 209.952 0.442925 204.367C0.442925 196.759 3.33181 188.719 9.10959 180.244C14.9837 171.77 22.7355 165.03 32.3651 160.022C31.017 157.326 30.3429 154.437 30.3429 151.356C30.3429 147.696 31.2096 144.037 32.9429 140.378C34.7726 136.622 37.4207 133.059 40.8874 129.689C44.354 126.319 49.0726 123.574 55.0429 121.456C61.0133 119.337 67.754 118.278 75.2651 118.278C81.6207 118.278 90.1429 119.819 100.832 122.9C111.617 125.981 119.85 127.522 125.532 127.522C125.628 127.522 125.724 127.522 125.821 127.522C126.591 127.522 127.506 127.426 128.565 127.233C129.721 127.041 130.587 126.944 131.165 126.944C132.995 126.944 133.91 127.281 133.91 127.956C133.91 128.244 133.621 128.533 133.043 128.822C132.561 129.111 131.984 129.256 131.31 129.256C130.347 129.256 129.336 129.111 128.276 128.822C127.313 128.437 126.639 128.244 126.254 128.244C125.58 128.244 124.761 128.533 123.798 129.111C122.932 129.689 121.68 130.796 120.043 132.433C118.502 134.07 116.769 136.189 114.843 138.789C112.917 141.293 110.558 144.807 107.765 149.333C105.069 153.859 102.132 159.011 98.954 164.789C97.9911 166.715 96.98 168.641 95.9207 170.567C98.2318 170.567 100.013 170.567 101.265 170.567C105.984 170.567 109.98 170.47 113.254 170.278C115.084 170.181 116.576 170.133 117.732 170.133C127.265 157.037 137.713 145.867 149.076 136.622C160.439 127.281 170.261 122.611 178.543 122.611ZM24.4207 217.8C35.5911 217.8 46.8096 213.996 58.0763 206.389C69.4392 198.781 79.6948 188.815 88.8429 176.489C89.1318 175.719 89.2763 175.044 89.2763 174.467C89.2763 172.83 88.4577 171.867 86.8207 171.578C86.3392 171.578 85.8577 171.578 85.3763 171.578C84.6059 171.578 84.2207 171.385 84.2207 171C84.2207 170.519 84.6059 170.278 85.3763 170.278C86.7244 170.278 88.6503 170.326 91.154 170.422C91.6355 170.422 92.3096 170.422 93.1763 170.422C94.5244 168.4 95.7763 166.378 96.9318 164.356C109.258 143.748 118.117 131.711 123.51 128.244C118.31 128.052 110.461 126.944 99.9651 124.922C89.5651 122.9 81.2355 121.889 74.9763 121.889C67.754 121.889 61.254 122.756 55.4763 124.489C49.7948 126.222 45.2207 128.533 41.754 131.422C38.3837 134.215 35.7837 137.296 33.954 140.667C32.2207 144.037 31.354 147.552 31.354 151.211C31.354 154.1 32.0763 156.844 33.5207 159.444C42.5726 154.919 52.154 152.656 62.2651 152.656C68.1392 152.656 72.5207 153.763 75.4096 155.978C78.2985 158.193 79.7429 161.13 79.7429 164.789C79.7429 168.159 78.6355 171.77 76.4207 175.622C74.2059 179.378 71.2689 182.893 67.6096 186.167C63.9503 189.441 59.4726 192.185 54.1763 194.4C48.9763 196.519 43.68 197.578 38.2874 197.578C34.917 197.578 31.9318 196.952 29.3318 195.7C26.7318 194.352 25.6244 192.522 26.0096 190.211L26.4429 190.067C26.5392 191.126 26.9244 191.944 27.5985 192.522C28.3689 193.1 29.38 193.533 30.6318 193.822C31.98 194.015 33.0874 194.159 33.954 194.256C34.8207 194.256 36.0244 194.256 37.5651 194.256C37.854 194.256 38.0466 194.256 38.1429 194.256C43.5355 194.256 48.8318 193.293 54.0318 191.367C59.2318 189.344 63.6133 186.841 67.1763 183.856C70.8355 180.87 73.7244 177.644 75.8429 174.178C78.0577 170.711 79.1652 167.437 79.1652 164.356C79.1652 160.985 77.7689 158.289 74.9763 156.267C72.1837 154.244 67.9466 153.233 62.2651 153.233C52.3466 153.233 42.9096 155.496 33.954 160.022C38.1911 167.148 46.1837 170.711 57.9318 170.711C61.1096 170.711 64.5281 170.374 68.1874 169.7V169.989C63.3726 171.241 58.9429 171.915 54.8985 172.011C54.8022 172.011 54.6096 172.011 54.3207 172.011C43.8244 172.011 36.6022 168.256 32.654 160.744C23.7948 165.463 16.6207 171.626 11.1318 179.233C5.64293 186.841 2.89848 194.015 2.89848 200.756C2.89848 205.57 4.96885 209.615 9.10959 212.889C13.2503 216.163 18.354 217.8 24.4207 217.8ZM89.1318 176.056C90.2874 174.515 91.3948 172.974 92.454 171.433C91.78 171.433 91.2503 171.433 90.8651 171.433C89.517 171.53 88.4577 171.578 87.6874 171.578C88.8429 172.059 89.4207 172.974 89.4207 174.322C89.4207 174.9 89.3244 175.478 89.1318 176.056ZM187.351 117.31L219.071 199.08C220.371 202.373 221.845 204.583 223.491 205.71C225.138 206.75 226.655 207.313 228.041 207.4V210C226.308 209.827 224.185 209.74 221.671 209.74C219.158 209.653 216.645 209.61 214.131 209.61C210.751 209.61 207.588 209.653 204.641 209.74C201.695 209.74 199.311 209.827 197.491 210V207.4C201.911 207.227 204.728 206.49 205.941 205.19C207.155 203.803 206.895 200.9 205.161 196.48L180.981 131.87L183.061 130.18L160.441 188.94C158.621 193.62 157.755 197.303 157.841 199.99C157.928 202.59 158.925 204.453 160.831 205.58C162.738 206.707 165.511 207.313 169.151 207.4V210C166.725 209.827 164.168 209.74 161.481 209.74C158.881 209.653 156.455 209.61 154.201 209.61C152.035 209.61 150.171 209.653 148.611 209.74C147.138 209.74 145.751 209.827 144.451 210V207.4C146.185 206.967 147.961 205.97 149.781 204.41C151.601 202.763 153.248 199.99 154.721 196.09L185.271 117.31C185.618 117.31 185.965 117.31 186.311 117.31C186.658 117.31 187.005 117.31 187.351 117.31ZM203.211 172.56V175.16H164.471L165.771 172.56H203.211ZM230.167 117.96C231.987 118.047 234.37 118.133 237.317 118.22C240.264 118.307 243.167 118.35 246.027 118.35C250.1 118.35 254 118.307 257.727 118.22C261.454 118.133 264.097 118.09 265.657 118.09C276.144 118.09 283.987 120.257 289.187 124.59C294.387 128.923 296.987 134.297 296.987 140.71C296.987 143.31 296.467 146.083 295.427 149.03C294.387 151.977 292.567 154.75 289.967 157.35C287.454 159.95 283.987 162.117 279.567 163.85C275.147 165.497 269.557 166.32 262.797 166.32H250.317V163.72H261.497C267.65 163.72 272.33 162.767 275.537 160.86C278.83 158.867 281.04 156.267 282.167 153.06C283.38 149.767 283.987 146.127 283.987 142.14C283.987 135.293 282.34 130.007 279.047 126.28C275.84 122.467 270.294 120.56 262.407 120.56C258.42 120.56 255.82 121.297 254.607 122.77C253.394 124.243 252.787 127.233 252.787 131.74V196.22C252.787 199.34 253.047 201.68 253.567 203.24C254.087 204.8 255.084 205.84 256.557 206.36C258.117 206.88 260.37 207.227 263.317 207.4V210C261.324 209.827 258.81 209.74 255.777 209.74C252.83 209.653 249.84 209.61 246.807 209.61C243.427 209.61 240.264 209.653 237.317 209.74C234.37 209.74 231.987 209.827 230.167 210V207.4C233.114 207.227 235.324 206.88 236.797 206.36C238.357 205.84 239.397 204.8 239.917 203.24C240.437 201.68 240.697 199.34 240.697 196.22V131.74C240.697 128.533 240.437 126.193 239.917 124.72C239.397 123.16 238.357 122.12 236.797 121.6C235.324 120.993 233.114 120.647 230.167 120.56V117.96ZM250.837 164.11C255.517 164.283 259.2 164.5 261.887 164.76C264.574 164.933 266.74 165.107 268.387 165.28C270.12 165.453 271.767 165.67 273.327 165.93C279.134 166.883 283.294 168.66 285.807 171.26C288.407 173.773 290.314 177.717 291.527 183.09L294.777 196.35C295.644 200.163 296.51 202.937 297.377 204.67C298.33 206.317 299.76 207.097 301.667 207.01C303.14 206.923 304.354 206.447 305.307 205.58C306.347 204.713 307.43 203.543 308.557 202.07L310.507 203.5C308.687 206.187 306.78 208.267 304.787 209.74C302.88 211.127 300.15 211.82 296.597 211.82C293.39 211.82 290.574 210.867 288.147 208.96C285.72 207.053 283.9 203.327 282.687 197.78L279.827 184.78C279.047 181.053 278.137 177.847 277.097 175.16C276.144 172.387 274.757 170.22 272.937 168.66C271.204 167.1 268.604 166.32 265.137 166.32H251.097L250.837 164.11ZM416.774 117.96V120.56C413.827 120.647 411.574 120.993 410.014 121.6C408.541 122.12 407.544 123.16 407.024 124.72C406.504 126.193 406.244 128.533 406.244 131.74V196.22C406.244 199.34 406.504 201.68 407.024 203.24C407.544 204.8 408.541 205.84 410.014 206.36C411.574 206.88 413.827 207.227 416.774 207.4V210C414.781 209.827 412.267 209.74 409.234 209.74C406.287 209.653 403.297 209.61 400.264 209.61C396.884 209.61 393.721 209.653 390.774 209.74C387.827 209.74 385.444 209.827 383.624 210V207.4C386.571 207.227 388.781 206.88 390.254 206.36C391.814 205.84 392.854 204.8 393.374 203.24C393.894 201.68 394.154 199.34 394.154 196.22V124.72L394.674 125.11L362.824 210.65H360.744L327.984 126.28V194.92C327.984 198.04 328.244 200.51 328.764 202.33C329.371 204.063 330.497 205.32 332.144 206.1C333.877 206.793 336.434 207.227 339.814 207.4V210C338.254 209.827 336.217 209.74 333.704 209.74C331.191 209.653 328.807 209.61 326.554 209.61C324.387 209.61 322.177 209.653 319.924 209.74C317.757 209.74 315.937 209.827 314.464 210V207.4C317.411 207.227 319.621 206.793 321.094 206.1C322.654 205.32 323.694 204.063 324.214 202.33C324.734 200.51 324.994 198.04 324.994 194.92V131.74C324.994 128.533 324.734 126.193 324.214 124.72C323.694 123.16 322.654 122.12 321.094 121.6C319.621 120.993 317.411 120.647 314.464 120.56V117.96C315.937 118.047 317.757 118.133 319.924 118.22C322.177 118.307 324.387 118.35 326.554 118.35C328.461 118.35 330.411 118.307 332.404 118.22C334.484 118.133 336.217 118.047 337.604 117.96L367.114 195.7L364.904 196.74L394.154 118.35C395.194 118.35 396.191 118.35 397.144 118.35C398.184 118.35 399.224 118.35 400.264 118.35C403.297 118.35 406.287 118.307 409.234 118.22C412.267 118.133 414.781 118.047 416.774 117.96ZM509.779 134.456C512.283 136.767 513.535 140.378 513.535 145.289C513.535 150.2 512.283 155.881 509.779 162.333C507.372 168.785 503.857 175.333 499.235 181.978C494.709 188.526 489.557 194.593 483.779 200.178C478.002 205.763 471.357 210.337 463.846 213.9C456.431 217.463 448.968 219.244 441.457 219.244C434.909 219.244 429.95 217.27 426.579 213.322C423.305 209.47 421.668 204.174 421.668 197.433C421.668 191.559 422.872 185.107 425.279 178.078C427.783 171.048 431.346 164.067 435.968 157.133C440.687 150.2 446.031 143.893 452.002 138.211C458.068 132.433 465.05 127.811 472.946 124.344C480.939 120.781 489.076 119 497.357 119C501.691 119 504.965 120.011 507.179 122.033C509.491 124.056 510.646 126.656 510.646 129.833C510.646 131.374 510.357 132.915 509.779 134.456ZM441.602 217.8C447.379 217.8 453.205 216.452 459.079 213.756C465.05 211.059 470.491 207.544 475.402 203.211C480.313 198.878 484.935 193.967 489.268 188.478C493.602 182.989 497.213 177.452 500.102 171.867C503.087 166.281 505.446 160.937 507.179 155.833C508.913 150.633 509.779 146.156 509.779 142.4C509.779 140.185 509.442 138.307 508.768 136.767C506.939 140.522 503.905 143.652 499.668 146.156C495.431 148.563 490.424 149.767 484.646 149.767C480.698 149.767 477.328 149.141 474.535 147.889C469.335 153.089 465.05 158.722 461.679 164.789C458.309 170.759 456.624 175.67 456.624 179.522C456.624 183.856 458.55 186.07 462.402 186.167C464.905 186.167 467.265 185.059 469.479 182.844C471.694 180.533 472.946 178.174 473.235 175.767C473.331 175.478 473.379 175.237 473.379 175.044C473.379 174.37 473.524 174.081 473.813 174.178C474.005 174.178 474.15 174.274 474.246 174.467C474.246 174.756 474.102 175.044 473.813 175.333C473.62 175.622 473.524 175.767 473.524 175.767C473.331 178.367 472.128 180.774 469.913 182.989C467.698 185.204 465.194 186.359 462.402 186.456H462.257C459.272 186.359 457.009 185.444 455.468 183.711C454.024 181.978 453.302 179.57 453.302 176.489C453.302 171.963 454.842 166.763 457.924 160.889C461.102 154.919 465.242 149.622 470.346 145C468.131 142.785 467.168 139.896 467.457 136.333H467.602C467.313 139.896 468.276 142.737 470.491 144.856C473.668 142.063 476.991 139.752 480.457 137.922C488.161 133.878 495.335 131.856 501.979 131.856C504.579 131.856 506.794 132.433 508.624 133.589C509.009 132.144 509.202 130.748 509.202 129.4C509.202 126.607 508.191 124.296 506.168 122.467C504.146 120.637 501.161 119.722 497.213 119.722C489.991 119.722 482.72 121.6 475.402 125.356C468.179 129.111 461.728 134.022 456.046 140.089C450.461 146.059 445.405 152.607 440.879 159.733C436.45 166.859 433.031 173.985 430.624 181.111C428.313 188.237 427.157 194.641 427.157 200.322C427.157 205.715 428.313 209.952 430.624 213.033C433.031 216.211 436.691 217.8 441.602 217.8ZM507.902 135.322C506.65 133.493 504.82 132.578 502.413 132.578C493.842 132.578 484.598 137.585 474.679 147.6C477.183 148.659 480.168 149.189 483.635 149.189C489.509 149.189 494.613 147.841 498.946 145.144C503.279 142.448 506.265 139.174 507.902 135.322ZM589.2 117.96V120.56C586.253 120.647 584 121.08 582.44 121.86C580.966 122.64 579.97 123.897 579.45 125.63C578.93 127.363 578.67 129.833 578.67 133.04V210.65C578.15 210.65 577.63 210.65 577.11 210.65C576.676 210.65 576.2 210.65 575.68 210.65L521.08 126.28V194.92C521.08 198.04 521.34 200.51 521.86 202.33C522.466 204.063 523.593 205.32 525.24 206.1C526.973 206.793 529.53 207.227 532.91 207.4V210C531.35 209.827 529.313 209.74 526.8 209.74C524.286 209.653 521.903 209.61 519.65 209.61C517.483 209.61 515.273 209.653 513.02 209.74C510.853 209.74 509.033 209.827 507.56 210V207.4C510.506 207.227 512.716 206.793 514.19 206.1C515.75 205.32 516.79 204.063 517.31 202.33C517.83 200.51 518.09 198.04 518.09 194.92V131.74C518.09 128.533 517.83 126.193 517.31 124.72C516.79 123.16 515.75 122.12 514.19 121.6C512.716 120.993 510.506 120.647 507.56 120.56V117.96C509.033 118.047 510.853 118.133 513.02 118.22C515.273 118.307 517.483 118.35 519.65 118.35C521.556 118.35 523.376 118.307 525.11 118.22C526.843 118.133 528.403 118.047 529.79 117.96L575.68 188.68V133.04C575.68 129.833 575.376 127.363 574.77 125.63C574.25 123.897 573.123 122.64 571.39 121.86C569.743 121.08 567.23 120.647 563.85 120.56V117.96C565.41 118.047 567.446 118.133 569.96 118.22C572.56 118.307 574.943 118.35 577.11 118.35C579.363 118.35 581.573 118.307 583.74 118.22C585.993 118.133 587.813 118.047 589.2 117.96ZM632.497 117.96V120.56C629.55 120.647 627.297 120.993 625.737 121.6C624.263 122.12 623.267 123.16 622.747 124.72C622.227 126.193 621.967 128.533 621.967 131.74V196.22C621.967 199.34 622.227 201.68 622.747 203.24C623.267 204.8 624.263 205.84 625.737 206.36C627.297 206.88 629.55 207.227 632.497 207.4V210C630.503 209.827 627.99 209.74 624.957 209.74C622.01 209.653 619.02 209.61 615.987 209.61C612.607 209.61 609.443 209.653 606.497 209.74C603.55 209.74 601.167 209.827 599.347 210V207.4C602.293 207.227 604.503 206.88 605.977 206.36C607.537 205.84 608.577 204.8 609.097 203.24C609.617 201.68 609.877 199.34 609.877 196.22V131.74C609.877 128.533 609.617 126.193 609.097 124.72C608.577 123.16 607.537 122.12 605.977 121.6C604.503 120.993 602.293 120.647 599.347 120.56V117.96C601.167 118.047 603.55 118.133 606.497 118.22C609.443 118.307 612.607 118.35 615.987 118.35C619.02 118.35 622.01 118.307 624.957 118.22C627.99 118.133 630.503 118.047 632.497 117.96ZM685.154 116.14C690.874 116.14 695.554 117.007 699.194 118.74C702.92 120.387 706.214 122.337 709.074 124.59C710.807 125.89 712.107 126.063 712.974 125.11C713.927 124.07 714.577 121.687 714.924 117.96H717.914C717.741 121.167 717.61 125.067 717.524 129.66C717.437 134.253 717.394 140.32 717.394 147.86H714.404C713.797 144.133 713.234 141.187 712.714 139.02C712.194 136.767 711.544 134.86 710.764 133.3C710.07 131.74 709.117 130.18 707.904 128.62C705.217 125.067 701.837 122.51 697.764 120.95C693.69 119.303 689.4 118.48 684.894 118.48C680.647 118.48 676.79 119.563 673.324 121.73C669.944 123.81 666.997 126.843 664.484 130.83C662.057 134.817 660.15 139.627 658.764 145.26C657.464 150.893 656.814 157.22 656.814 164.24C656.814 171.52 657.55 177.977 659.024 183.61C660.497 189.157 662.534 193.837 665.134 197.65C667.82 201.463 670.94 204.367 674.494 206.36C678.134 208.267 682.034 209.22 686.194 209.22C690.094 209.22 694.167 208.44 698.414 206.88C702.66 205.32 705.997 202.807 708.424 199.34C710.33 196.827 711.63 194.097 712.324 191.15C713.104 188.203 713.797 184.087 714.404 178.8H717.394C717.394 186.687 717.437 193.057 717.524 197.91C717.61 202.677 717.741 206.707 717.914 210H714.924C714.577 206.273 713.97 203.933 713.104 202.98C712.324 202.027 710.98 202.157 709.074 203.37C705.867 205.623 702.444 207.617 698.804 209.35C695.25 210.997 690.657 211.82 685.024 211.82C676.79 211.82 669.554 209.957 663.314 206.23C657.16 202.503 652.35 197.13 648.884 190.11C645.504 183.09 643.814 174.64 643.814 164.76C643.814 155.053 645.59 146.56 649.144 139.28C652.697 132 657.55 126.323 663.704 122.25C669.944 118.177 677.094 116.14 685.154 116.14ZM764.259 117.96C766.079 118.047 768.462 118.133 771.409 118.22C774.355 118.307 777.259 118.35 780.119 118.35C784.192 118.35 788.092 118.307 791.819 118.22C795.545 118.133 798.189 118.09 799.749 118.09C808.849 118.09 815.695 119.997 820.289 123.81C824.882 127.623 827.179 132.52 827.179 138.5C827.179 141.533 826.529 144.523 825.229 147.47C824.015 150.33 821.935 152.973 818.989 155.4C816.129 157.74 812.272 159.647 807.419 161.12V161.38C814.265 162.247 819.595 163.893 823.409 166.32C827.309 168.66 830.039 171.433 831.599 174.64C833.159 177.847 833.939 181.227 833.939 184.78C833.939 192.147 831.165 198.213 825.619 202.98C820.159 207.66 812.532 210 802.739 210C800.832 210 797.972 209.957 794.159 209.87C790.345 209.697 785.752 209.61 780.379 209.61C777.345 209.61 774.355 209.653 771.409 209.74C768.462 209.74 766.079 209.827 764.259 210V207.4C767.205 207.227 769.415 206.88 770.889 206.36C772.449 205.84 773.489 204.8 774.009 203.24C774.529 201.68 774.789 199.34 774.789 196.22V131.74C774.789 128.533 774.529 126.193 774.009 124.72C773.489 123.16 772.449 122.12 770.889 121.6C769.415 120.993 767.205 120.647 764.259 120.56V117.96ZM796.499 120.56C792.512 120.56 789.912 121.297 788.699 122.77C787.485 124.243 786.879 127.233 786.879 131.74V196.22C786.879 200.727 787.485 203.673 788.699 205.06C789.999 206.36 792.642 207.01 796.629 207.01C805.122 207.01 811.275 205.06 815.089 201.16C818.989 197.173 820.939 191.54 820.939 184.26C820.939 177.587 819.119 172.43 815.479 168.79C811.925 165.15 806.032 163.33 797.799 163.33H784.409C784.409 163.33 784.409 162.983 784.409 162.29C784.409 161.51 784.409 161.12 784.409 161.12H795.589C800.702 161.12 804.645 160.167 807.419 158.26C810.192 156.267 812.099 153.667 813.139 150.46C814.179 147.167 814.699 143.657 814.699 139.93C814.699 133.517 813.269 128.707 810.409 125.5C807.635 122.207 802.999 120.56 796.499 120.56ZM909.236 117.96C908.89 120.993 908.63 123.94 908.456 126.8C908.37 129.66 908.326 131.827 908.326 133.3C908.326 134.86 908.37 136.377 908.456 137.85C908.543 139.237 908.63 140.407 908.716 141.36H905.726C905.206 136.247 904.47 132.217 903.516 129.27C902.563 126.237 900.916 124.113 898.576 122.9C896.323 121.6 892.9 120.95 888.306 120.95H877.516C874.57 120.95 872.316 121.21 870.756 121.73C869.283 122.163 868.286 123.16 867.766 124.72C867.246 126.193 866.986 128.533 866.986 131.74V196.22C866.986 199.34 867.246 201.68 867.766 203.24C868.286 204.8 869.283 205.84 870.756 206.36C872.316 206.793 874.57 207.01 877.516 207.01H887.006C892.466 207.01 896.583 206.273 899.356 204.8C902.216 203.327 904.253 200.943 905.466 197.65C906.766 194.27 907.72 189.72 908.326 184H911.316C911.056 186.34 910.926 189.46 910.926 193.36C910.926 195.007 910.97 197.39 911.056 200.51C911.23 203.543 911.49 206.707 911.836 210C907.416 209.827 902.433 209.74 896.886 209.74C891.34 209.653 886.4 209.61 882.066 209.61C879.466 209.61 876 209.61 871.666 209.61C867.42 209.61 862.87 209.653 858.016 209.74C853.163 209.74 848.613 209.827 844.366 210V207.4C847.313 207.227 849.523 206.88 850.996 206.36C852.556 205.84 853.596 204.8 854.116 203.24C854.636 201.68 854.896 199.34 854.896 196.22V131.74C854.896 128.533 854.636 126.193 854.116 124.72C853.596 123.16 852.556 122.12 850.996 121.6C849.523 120.993 847.313 120.647 844.366 120.56V117.96C848.613 118.047 853.163 118.133 858.016 118.22C862.87 118.307 867.42 118.35 871.666 118.35C876 118.35 879.466 118.35 882.066 118.35C886.053 118.35 890.56 118.35 895.586 118.35C900.7 118.263 905.25 118.133 909.236 117.96ZM886.876 162.42C886.876 162.42 886.876 162.853 886.876 163.72C886.876 164.587 886.876 165.02 886.876 165.02H863.086C863.086 165.02 863.086 164.587 863.086 163.72C863.086 162.853 863.086 162.42 863.086 162.42H886.876ZM890.646 145.26C890.3 150.2 890.126 153.97 890.126 156.57C890.213 159.17 890.256 161.553 890.256 163.72C890.256 165.887 890.3 168.27 890.386 170.87C890.473 173.47 890.69 177.24 891.036 182.18H888.046C887.7 179.407 887.266 176.72 886.746 174.12C886.313 171.433 885.273 169.267 883.626 167.62C882.066 165.887 879.38 165.02 875.566 165.02V162.42C879.38 162.42 882.023 161.423 883.496 159.43C885.056 157.437 886.053 155.097 886.486 152.41C886.92 149.723 887.31 147.34 887.656 145.26H890.646ZM960.115 117.31L991.835 199.08C993.135 202.373 994.608 204.583 996.255 205.71C997.902 206.75 999.418 207.313 1000.81 207.4V210C999.072 209.827 996.948 209.74 994.435 209.74C991.922 209.653 989.408 209.61 986.895 209.61C983.515 209.61 980.352 209.653 977.405 209.74C974.458 209.74 972.075 209.827 970.255 210V207.4C974.675 207.227 977.492 206.49 978.705 205.19C979.918 203.803 979.658 200.9 977.925 196.48L953.745 131.87L955.825 130.18L933.205 188.94C931.385 193.62 930.518 197.303 930.605 199.99C930.692 202.59 931.688 204.453 933.595 205.58C935.502 206.707 938.275 207.313 941.915 207.4V210C939.488 209.827 936.932 209.74 934.245 209.74C931.645 209.653 929.218 209.61 926.965 209.61C924.798 209.61 922.935 209.653 921.375 209.74C919.902 209.74 918.515 209.827 917.215 210V207.4C918.948 206.967 920.725 205.97 922.545 204.41C924.365 202.763 926.012 199.99 927.485 196.09L958.035 117.31C958.382 117.31 958.728 117.31 959.075 117.31C959.422 117.31 959.768 117.31 960.115 117.31ZM975.975 172.56V175.16H937.235L938.535 172.56H975.975ZM1085.16 117.96V120.56C1082.21 120.647 1079.96 121.08 1078.4 121.86C1076.93 122.64 1075.93 123.897 1075.41 125.63C1074.89 127.363 1074.63 129.833 1074.63 133.04V172.17C1074.63 178.237 1074.24 183.523 1073.46 188.03C1072.68 192.537 1071.29 196.437 1069.3 199.73C1067.13 203.37 1063.97 206.317 1059.81 208.57C1055.65 210.737 1050.88 211.82 1045.51 211.82C1041.35 211.82 1037.36 211.3 1033.55 210.26C1029.82 209.307 1026.53 207.487 1023.67 204.8C1021.16 202.373 1019.16 199.817 1017.69 197.13C1016.3 194.443 1015.35 191.15 1014.83 187.25C1014.31 183.35 1014.05 178.453 1014.05 172.56V131.74C1014.05 128.533 1013.79 126.193 1013.27 124.72C1012.75 123.16 1011.71 122.12 1010.15 121.6C1008.68 120.993 1006.47 120.647 1003.52 120.56V117.96C1005.34 118.047 1007.72 118.133 1010.67 118.22C1013.62 118.307 1016.78 118.35 1020.16 118.35C1023.19 118.35 1026.18 118.307 1029.13 118.22C1032.16 118.133 1034.68 118.047 1036.67 117.96V120.56C1033.72 120.647 1031.47 120.993 1029.91 121.6C1028.44 122.12 1027.44 123.16 1026.92 124.72C1026.4 126.193 1026.14 128.533 1026.14 131.74V174.77C1026.14 180.663 1026.57 186.08 1027.44 191.02C1028.31 195.96 1030.17 199.903 1033.03 202.85C1035.98 205.797 1040.53 207.27 1046.68 207.27C1053.27 207.27 1058.34 205.84 1061.89 202.98C1065.53 200.033 1068.04 196.003 1069.43 190.89C1070.9 185.777 1071.64 180.013 1071.64 173.6V133.04C1071.64 129.833 1071.25 127.363 1070.47 125.63C1069.78 123.897 1068.56 122.64 1066.83 121.86C1065.1 121.08 1062.76 120.647 1059.81 120.56V117.96C1061.37 118.047 1063.41 118.133 1065.92 118.22C1068.52 118.307 1070.9 118.35 1073.07 118.35C1075.32 118.35 1077.53 118.307 1079.7 118.22C1081.95 118.133 1083.77 118.047 1085.16 117.96ZM1165.58 117.96C1165.24 121.253 1164.98 124.46 1164.8 127.58C1164.72 130.613 1164.67 132.953 1164.67 134.6C1164.67 136.68 1164.72 138.63 1164.8 140.45C1164.89 142.27 1164.98 143.873 1165.06 145.26H1162.07C1161.47 139.193 1160.64 134.427 1159.6 130.96C1158.56 127.407 1156.74 124.85 1154.14 123.29C1151.54 121.73 1147.51 120.95 1142.05 120.95H1135.03V194.92C1135.03 198.387 1135.34 200.987 1135.94 202.72C1136.64 204.453 1137.94 205.623 1139.84 206.23C1141.75 206.837 1144.52 207.227 1148.16 207.4V210C1145.91 209.827 1143.05 209.74 1139.58 209.74C1136.12 209.653 1132.61 209.61 1129.05 209.61C1125.15 209.61 1121.47 209.653 1118 209.74C1114.62 209.74 1111.89 209.827 1109.81 210V207.4C1113.45 207.227 1116.23 206.837 1118.13 206.23C1120.04 205.623 1121.3 204.453 1121.9 202.72C1122.6 200.987 1122.94 198.387 1122.94 194.92V120.95H1115.92C1110.55 120.95 1106.52 121.73 1103.83 123.29C1101.23 124.85 1099.41 127.407 1098.37 130.96C1097.33 134.427 1096.51 139.193 1095.9 145.26H1092.91C1093.09 143.873 1093.17 142.27 1093.17 140.45C1093.26 138.63 1093.3 136.68 1093.3 134.6C1093.3 132.953 1093.22 130.613 1093.04 127.58C1092.96 124.46 1092.74 121.253 1092.39 117.96C1096.03 118.047 1099.98 118.133 1104.22 118.22C1108.56 118.307 1112.89 118.35 1117.22 118.35C1121.56 118.35 1125.5 118.35 1129.05 118.35C1132.61 118.35 1136.51 118.35 1140.75 118.35C1145.09 118.35 1149.42 118.307 1153.75 118.22C1158.09 118.133 1162.03 118.047 1165.58 117.96ZM1303.27 128.678C1304.04 128.678 1304.66 128.919 1305.14 129.4C1305.62 129.881 1305.87 130.507 1305.87 131.278C1305.87 132.433 1305.19 133.589 1303.84 134.744C1302.59 135.9 1301 137.056 1299.08 138.211C1297.25 139.367 1295.99 140.281 1295.32 140.956C1290.02 147.985 1281.89 161.274 1270.91 180.822C1260.03 200.274 1251.41 214.478 1245.05 223.433C1253.05 225.552 1259.45 228.633 1264.27 232.678C1269.08 236.722 1271.49 241.537 1271.49 247.122C1271.49 248.181 1271.34 248.711 1271.05 248.711C1270.77 248.711 1270.62 248.085 1270.62 246.833C1270.62 241.633 1268.17 237.204 1263.25 233.544C1258.44 229.885 1251.99 227.093 1243.9 225.167C1235.14 237.396 1226.08 246.93 1216.74 253.767C1207.4 260.7 1197.34 264.167 1186.55 264.167C1180.39 264.167 1175.43 262.722 1171.68 259.833C1168.02 256.944 1166.19 252.756 1166.19 247.267C1166.19 241.585 1168.79 236.626 1173.99 232.389C1179.28 228.152 1185.83 225.07 1193.63 223.144C1201.43 221.219 1209.91 220.256 1219.05 220.256C1226.76 220.256 1234.03 220.978 1240.87 222.422C1246.45 215.681 1251.84 208.315 1257.04 200.322C1262.34 192.33 1268.31 182.748 1274.95 171.578C1281.69 160.407 1285.74 153.763 1287.09 151.644C1282.56 157.422 1278.71 162.333 1275.53 166.378C1272.35 170.326 1268.31 175.044 1263.4 180.533C1258.58 186.022 1254.35 190.452 1250.69 193.822C1247.03 197.193 1243.18 200.13 1239.13 202.633C1235.18 205.041 1231.72 206.244 1228.73 206.244C1227.38 206.244 1226.18 205.667 1225.12 204.511C1224.06 203.356 1223.53 201.863 1223.53 200.033C1223.53 196.663 1224.49 193.148 1226.42 189.489C1228.35 185.733 1230.75 182.267 1233.64 179.089C1236.53 175.911 1239.66 172.444 1243.03 168.689C1246.5 164.837 1249.68 161.13 1252.57 157.567C1255.45 153.907 1257.86 149.767 1259.79 145.144C1261.71 140.522 1262.68 135.9 1262.68 131.278C1262.68 117.796 1254.2 111.056 1237.25 111.056C1230.32 111.056 1223.82 112.5 1217.75 115.389C1211.78 118.181 1206.87 121.744 1203.02 126.078C1199.17 130.315 1196.14 134.937 1193.92 139.944C1191.8 144.856 1190.74 149.574 1190.74 154.1C1190.74 159.107 1192.09 163.152 1194.79 166.233C1197.48 169.315 1201.48 170.856 1206.78 170.856C1216.31 170.856 1223.87 168.207 1229.45 162.911C1235.14 157.615 1237.98 151.644 1237.98 145C1237.98 141.341 1236.87 138.548 1234.65 136.622C1232.44 134.696 1229.6 133.733 1226.13 133.733C1221.12 133.733 1216.41 135.37 1211.98 138.644L1211.69 138.211C1216.21 134.841 1221.51 133.156 1227.58 133.156C1231.91 133.156 1235.52 134.215 1238.41 136.333C1241.39 138.356 1242.89 141.244 1242.89 145C1242.89 151.452 1239.32 157.47 1232.2 163.056C1225.07 168.641 1216.6 171.433 1206.78 171.433C1199.75 171.433 1194.35 169.507 1190.6 165.656C1186.84 161.707 1184.97 156.748 1184.97 150.778C1184.97 146.156 1186.07 141.533 1188.29 136.911C1190.6 132.289 1193.82 128.004 1197.97 124.056C1202.11 120.011 1207.59 116.737 1214.43 114.233C1221.37 111.73 1228.97 110.478 1237.25 110.478C1247.08 110.478 1254.54 112.548 1259.64 116.689C1264.75 120.83 1267.3 125.693 1267.3 131.278C1267.3 136.67 1266.29 142.063 1264.27 147.456C1262.24 152.848 1259.69 157.663 1256.61 161.9C1253.62 166.041 1250.35 170.181 1246.79 174.322C1243.32 178.463 1240.09 182.122 1237.11 185.3C1234.12 188.381 1231.62 191.463 1229.6 194.544C1227.58 197.53 1226.57 200.13 1226.57 202.344C1226.57 204.559 1227.29 205.667 1228.73 205.667C1230.85 205.667 1233.26 204.993 1235.95 203.644C1238.75 202.296 1241.44 200.611 1244.04 198.589C1246.64 196.567 1249.58 193.919 1252.85 190.644C1256.22 187.274 1259.21 184.144 1261.81 181.256C1264.41 178.367 1267.44 174.756 1270.91 170.422C1274.47 166.089 1277.31 162.526 1279.43 159.733C1281.65 156.941 1284.39 153.426 1287.67 149.189C1290.94 144.952 1293.25 141.967 1294.6 140.233C1294.98 139.752 1295.56 138.452 1296.33 136.333C1297.2 134.215 1298.16 132.433 1299.22 130.989C1300.38 129.448 1301.72 128.678 1303.27 128.678ZM1187.57 256.656C1204.13 256.656 1221.46 245.822 1239.57 224.156C1232.82 222.904 1225.65 222.278 1218.04 222.278C1209.38 222.278 1201.29 223.048 1193.78 224.589C1186.36 226.226 1180.2 228.73 1175.29 232.1C1170.38 235.47 1167.92 239.467 1167.92 244.089C1167.92 246.881 1169.65 249.674 1173.12 252.467C1176.68 255.259 1181.5 256.656 1187.57 256.656Z" fill="#A77E3D"/>
</svg>
