<svg viewBox="0 0 713 128" fill="none" xmlns="http://www.w3.org/2000/svg">
<path d="M89.1222 0.911112C90.4704 0.911112 91.5333 1.17037 92.3111 1.68889C93.0889 2.15555 93.4778 2.75185 93.4778 3.47778C93.4778 4.61852 92.4926 5.68148 90.5222 6.66667C88.6037 7.6 85.8296 8.06667 82.2 8.06667C79.0889 8.06667 75.6407 7.85926 71.8556 7.44444C68.9 9.36296 66.4111 11.5148 64.3889 13.9C62.1593 16.4407 59.0741 20.537 55.1333 26.1889H57.7C58.3741 26.1889 58.8926 26.163 59.2556 26.1111C60.137 24.763 61.0963 24.0889 62.1333 24.0889C62.5481 24.0889 62.8593 24.1926 63.0667 24.4C63.2741 24.6074 63.3 24.8407 63.1444 25.1C62.8333 25.9296 61.563 26.3704 59.3333 26.4222C58.5037 27.7185 57.9074 29.5333 57.5444 31.8667H57.3889C57.7519 29.5852 58.3222 27.7704 59.1 26.4222C58.737 26.4741 58.2704 26.5 57.7 26.5H54.9C54.7963 26.6037 54.6407 26.8111 54.4333 27.1222C52.8778 29.3519 51.6852 31.063 50.8556 32.2556C50.0259 33.3963 48.8074 35.0296 47.2 37.1556C45.6444 39.2296 44.3481 40.863 43.3111 42.0556C42.2741 43.1963 40.9 44.6481 39.1889 46.4111C37.5296 48.1222 36.0259 49.4963 34.6778 50.5333C33.3296 51.5185 31.7222 52.5815 29.8556 53.7222C28.0407 54.9148 26.2519 55.8222 24.4889 56.4444C22.7778 57.0667 20.8593 57.5852 18.7333 58C16.6593 58.4148 14.5333 58.6222 12.3556 58.6222C8.25926 58.6222 5.17407 57.637 3.1 55.6667C1.07778 53.6963 0.0666666 51.1296 0.0666666 47.9667C0.0666666 43.8704 1.64815 39.5407 4.81111 34.9778C8.02593 30.363 12.2519 26.7074 17.4889 24.0111C16.8667 22.6111 16.5556 21.1074 16.5556 19.5C16.5556 17.5296 16.9963 15.5593 17.8778 13.5889C18.8111 11.5667 20.1852 9.64815 22 7.83333C23.8148 5.96667 26.3037 4.46296 29.4667 3.32222C32.6815 2.18148 36.3111 1.61111 40.3556 1.61111C43.6741 1.61111 49.5074 2.07778 57.8556 3.01111C66.2037 3.94444 71.7778 4.48889 74.5778 4.64444C79.4519 2.15555 84.3 0.911112 89.1222 0.911112ZM77.3778 4.72222C86.4519 4.72222 90.9889 4.07407 90.9889 2.77778C90.9889 2.51852 90.7556 2.31111 90.2889 2.15555C89.8741 1.94815 89.4333 1.84444 88.9667 1.84444C85.0778 1.84444 81.0333 2.77778 76.8333 4.64444C77.0926 4.6963 77.2741 4.72222 77.3778 4.72222ZM63.3778 13.2778C65.2444 11.0481 67.5 9.02592 70.1444 7.21111C67.5519 6.9 64.1296 6.43333 59.8778 5.81111C55.6778 5.13704 51.9704 4.59259 48.7556 4.17778C45.5407 3.76296 42.6889 3.55556 40.2 3.55556C36.3111 3.55556 32.837 4.02222 29.7778 4.95555C26.7185 5.88889 24.2815 7.13333 22.4667 8.68889C20.7037 10.2444 19.3556 11.9296 18.4222 13.7444C17.5407 15.5593 17.1 17.4259 17.1 19.3444C17.1 20.9 17.437 22.3259 18.1111 23.6222C22.9333 21.2889 28.0148 20.1222 33.3556 20.1222C36.5185 20.1222 38.8778 20.7185 40.4333 21.9111C41.9889 23.1037 42.7667 24.7111 42.7667 26.7333C42.7667 28.4963 42.1704 30.4148 40.9778 32.4889C39.7852 34.5111 38.2037 36.4037 36.2333 38.1667C34.263 39.9296 31.8519 41.4074 29 42.6C26.2 43.7407 23.3481 44.3111 20.4444 44.3111C18.6296 44.3111 17.0222 43.9741 15.6222 43.3C14.2222 42.6259 13.6259 41.6407 13.8333 40.3444L14.0667 40.2667C14.1185 40.837 14.3259 41.2778 14.6889 41.5889C15.1037 41.9 15.6481 42.1333 16.3222 42.2889C17.0481 42.3926 17.6444 42.4704 18.1111 42.5222C18.5778 42.5222 19.2259 42.5222 20.0556 42.5222C20.2111 42.5222 20.3148 42.5222 20.3667 42.5222C23.2704 42.5222 26.1222 42.0037 28.9222 40.9667C31.7222 39.8778 34.0815 38.5296 36 36.9222C37.9704 35.3148 39.5259 33.5778 40.6667 31.7111C41.8593 29.8444 42.4556 28.0815 42.4556 26.4222C42.4556 24.6074 41.7037 23.1556 40.2 22.0667C38.6963 20.9778 36.4148 20.4333 33.3556 20.4333C28.1185 20.4333 23.0889 21.6259 18.2667 24.0111C20.4444 27.9 24.6963 29.8444 31.0222 29.8444C32.7333 29.8444 34.5741 29.6889 36.5444 29.3778V29.4556C33.9519 30.1296 31.5926 30.4926 29.4667 30.5444C29.363 30.5444 29.2333 30.5444 29.0778 30.5444C23.3741 30.5444 19.563 28.4963 17.6444 24.4C12.8222 26.9407 8.90741 30.2852 5.9 34.4333C2.89259 38.5296 1.38889 42.3926 1.38889 46.0222C1.38889 48.7704 2.34815 50.9741 4.26667 52.6333C6.18519 54.3444 9.08889 55.2 12.9778 55.2C16.4519 55.2 19.7963 54.6815 23.0111 53.6444C26.2259 52.6593 29.0519 51.4148 31.4889 49.9111C33.9778 48.3556 36.4926 46.3593 39.0333 43.9222C41.6259 41.4852 43.8037 39.2037 45.5667 37.0778C47.3815 34.9 49.3778 32.2815 51.5556 29.2222C51.6593 28.9111 51.7111 28.6259 51.7111 28.3667C51.7111 27.1222 50.7778 26.5 48.9111 26.5H47.5111C47.2519 26.5 46.837 26.5778 46.2667 26.7333C45.6963 26.837 45.3074 26.8889 45.1 26.8889C44.5815 26.8889 44.3222 26.7074 44.3222 26.3444C44.3222 25.9815 44.6074 25.8 45.1778 25.8C45.3852 25.8 45.7741 25.8778 46.3444 26.0333C46.9148 26.137 47.3037 26.1889 47.5111 26.1889H53.8111C58.4259 19.7074 61.6148 15.4037 63.3778 13.2778ZM52.1 28.6C52.5667 27.9259 53.0593 27.2259 53.5778 26.5H50.8556C51.7889 26.863 52.2037 27.563 52.1 28.6ZM85.0826 1.44C86.0626 1.48667 87.3459 1.53333 88.9326 1.58C90.5192 1.62666 92.0826 1.65 93.6226 1.65C95.8159 1.65 97.9159 1.62666 99.9226 1.58C101.929 1.53333 103.353 1.51 104.193 1.51C107.973 1.51 111.099 2.04667 113.573 3.12C116.093 4.19333 117.959 5.66333 119.173 7.53C120.433 9.35 121.063 11.4033 121.063 13.69C121.063 15.09 120.783 16.5833 120.223 18.17C119.663 19.7567 118.683 21.25 117.283 22.65C115.929 24.05 114.063 25.2167 111.683 26.15C109.303 27.0367 106.293 27.48 102.653 27.48H95.9326V26.08H101.953C105.266 26.08 107.786 25.5667 109.513 24.54C111.286 23.4667 112.476 22.0667 113.083 20.34C113.736 18.5667 114.063 16.6067 114.063 14.46C114.063 10.7733 113.176 7.92666 111.403 5.92C109.676 3.86666 106.689 2.84 102.443 2.84C100.296 2.84 98.8959 3.23667 98.2426 4.03C97.5892 4.82333 97.2626 6.43333 97.2626 8.86V43.58C97.2626 45.26 97.4026 46.52 97.6826 47.36C97.9626 48.2 98.4992 48.76 99.2926 49.04C100.133 49.32 101.346 49.5067 102.933 49.6V51C101.859 50.9067 100.506 50.86 98.8726 50.86C97.2859 50.8133 95.6759 50.79 94.0426 50.79C92.2226 50.79 90.5192 50.8133 88.9326 50.86C87.3459 50.86 86.0626 50.9067 85.0826 51V49.6C86.6692 49.5067 87.8592 49.32 88.6526 49.04C89.4926 48.76 90.0526 48.2 90.3326 47.36C90.6126 46.52 90.7526 45.26 90.7526 43.58V8.86C90.7526 7.13333 90.6126 5.87333 90.3326 5.08C90.0526 4.24 89.4926 3.68 88.6526 3.4C87.8592 3.07333 86.6692 2.88666 85.0826 2.84V1.44ZM96.2126 26.29C98.7326 26.3833 100.716 26.5 102.163 26.64C103.609 26.7333 104.776 26.8267 105.663 26.92C106.596 27.0133 107.483 27.13 108.323 27.27C111.449 27.7833 113.689 28.74 115.043 30.14C116.443 31.4933 117.469 33.6167 118.123 36.51L119.873 43.65C120.339 45.7033 120.806 47.1967 121.273 48.13C121.786 49.0167 122.556 49.4367 123.583 49.39C124.376 49.3433 125.029 49.0867 125.543 48.62C126.103 48.1533 126.686 47.5233 127.293 46.73L128.343 47.5C127.363 48.9467 126.336 50.0667 125.263 50.86C124.236 51.6067 122.766 51.98 120.853 51.98C119.126 51.98 117.609 51.4667 116.303 50.44C114.996 49.4133 114.016 47.4067 113.363 44.42L111.823 37.42C111.403 35.4133 110.913 33.6867 110.353 32.24C109.839 30.7467 109.093 29.58 108.113 28.74C107.179 27.9 105.779 27.48 103.913 27.48H96.3526L96.2126 26.29ZM165.403 1.44C165.217 3.07333 165.077 4.66 164.983 6.2C164.937 7.74 164.913 8.90666 164.913 9.7C164.913 10.54 164.937 11.3567 164.983 12.15C165.03 12.8967 165.077 13.5267 165.123 14.04H163.513C163.233 11.2867 162.837 9.11666 162.323 7.53C161.81 5.89666 160.923 4.75333 159.663 4.1C158.45 3.4 156.607 3.05 154.133 3.05H148.323C146.737 3.05 145.523 3.19 144.683 3.47C143.89 3.70333 143.353 4.24 143.073 5.08C142.793 5.87333 142.653 7.13333 142.653 8.86V43.58C142.653 45.26 142.793 46.52 143.073 47.36C143.353 48.2 143.89 48.76 144.683 49.04C145.523 49.2733 146.737 49.39 148.323 49.39H153.433C156.373 49.39 158.59 48.9933 160.083 48.2C161.623 47.4067 162.72 46.1233 163.373 44.35C164.073 42.53 164.587 40.08 164.913 37H166.523C166.383 38.26 166.313 39.94 166.313 42.04C166.313 42.9267 166.337 44.21 166.383 45.89C166.477 47.5233 166.617 49.2267 166.803 51C164.423 50.9067 161.74 50.86 158.753 50.86C155.767 50.8133 153.107 50.79 150.773 50.79C149.747 50.79 148.417 50.79 146.783 50.79C145.197 50.79 143.47 50.8133 141.603 50.86C139.737 50.86 137.847 50.8833 135.933 50.93C134.02 50.93 132.2 50.9533 130.473 51V49.6C132.06 49.5067 133.25 49.32 134.043 49.04C134.883 48.76 135.443 48.2 135.723 47.36C136.003 46.52 136.143 45.26 136.143 43.58V8.86C136.143 7.13333 136.003 5.87333 135.723 5.08C135.443 4.24 134.883 3.68 134.043 3.4C133.25 3.07333 132.06 2.88666 130.473 2.84V1.44C132.2 1.48667 134.02 1.53333 135.933 1.58C137.847 1.58 139.737 1.60333 141.603 1.65C143.47 1.65 145.197 1.65 146.783 1.65C148.417 1.65 149.747 1.65 150.773 1.65C152.92 1.65 155.347 1.65 158.053 1.65C160.807 1.60333 163.257 1.53333 165.403 1.44ZM153.363 25.38C153.363 25.38 153.363 25.6133 153.363 26.08C153.363 26.5467 153.363 26.78 153.363 26.78H140.553C140.553 26.78 140.553 26.5467 140.553 26.08C140.553 25.6133 140.553 25.38 140.553 25.38H153.363ZM155.393 16.14C155.207 18.8 155.113 20.83 155.113 22.23C155.16 23.63 155.183 24.9133 155.183 26.08C155.183 27.2467 155.207 28.53 155.253 29.93C155.3 31.33 155.417 33.36 155.603 36.02H153.993C153.807 34.5267 153.573 33.08 153.293 31.68C153.06 30.2333 152.5 29.0667 151.613 28.18C150.773 27.2467 149.327 26.78 147.273 26.78V25.38C148.813 25.38 149.98 25.0767 150.773 24.47C151.613 23.8167 152.22 23 152.593 22.02C152.967 21.04 153.223 20.0367 153.363 19.01C153.503 17.9367 153.643 16.98 153.783 16.14H155.393ZM222.549 52.61L223.599 53.03C223.039 54.9433 222.386 56.53 221.639 57.79C220.939 59.0967 220.123 60.17 219.189 61.01C218.303 61.8033 217.089 62.5267 215.549 63.18C214.056 63.8333 212.119 64.16 209.739 64.16C207.266 64.16 204.863 63.74 202.529 62.9C200.243 62.1067 197.863 61.1267 195.389 59.96C192.916 58.7933 190.186 57.72 187.199 56.74C186.873 56.6467 186.569 56.5533 186.289 56.46C186.009 56.3667 185.753 56.2967 185.519 56.25C184.633 56.5767 183.676 56.8333 182.649 57.02C181.623 57.2067 180.643 57.3 179.709 57.3C178.776 57.3 178.006 57.1833 177.399 56.95C176.793 56.7167 176.489 56.3667 176.489 55.9C176.489 54.92 177.749 54.43 180.269 54.43C181.903 54.43 183.653 54.6167 185.519 54.99C187.199 54.5233 188.646 53.9867 189.859 53.38C191.073 52.82 192.309 52.2833 193.569 51.77C194.876 51.2567 196.439 50.93 198.259 50.79L198.329 51.91C196.929 52.05 195.716 52.3067 194.689 52.68C193.663 53.1 192.636 53.5433 191.609 54.01C190.583 54.4767 189.369 54.92 187.969 55.34C190.303 55.8067 192.846 56.2967 195.599 56.81C198.353 57.3233 201.013 57.7667 203.579 58.14C206.146 58.5133 208.339 58.7 210.159 58.7C213.519 58.7 216.156 58.21 218.069 57.23C220.029 56.25 221.523 54.71 222.549 52.61ZM196.159 0.459996C200.593 0.459996 204.466 1.46333 207.779 3.47C211.139 5.47666 213.729 8.37 215.549 12.15C217.416 15.8833 218.349 20.4333 218.349 25.8C218.349 31.0267 217.393 35.6 215.479 39.52C213.613 43.44 210.999 46.4967 207.639 48.69C204.279 50.8833 200.429 51.98 196.089 51.98C191.656 51.98 187.759 50.9767 184.399 48.97C181.086 46.9633 178.496 44.07 176.629 40.29C174.809 36.51 173.899 31.96 173.899 26.64C173.899 21.4133 174.856 16.84 176.769 12.92C178.683 9 181.296 5.94333 184.609 3.75C187.969 1.55666 191.819 0.459996 196.159 0.459996ZM195.879 1.72C192.846 1.72 190.209 2.77 187.969 4.87C185.729 6.97 183.979 9.86333 182.719 13.55C181.506 17.2367 180.899 21.5067 180.899 26.36C180.899 31.3067 181.576 35.6233 182.929 39.31C184.329 42.95 186.196 45.7733 188.529 47.78C190.909 49.74 193.523 50.72 196.369 50.72C199.403 50.72 202.039 49.67 204.279 47.57C206.519 45.47 208.246 42.5767 209.459 38.89C210.719 35.1567 211.349 30.8867 211.349 26.08C211.349 21.0867 210.649 16.77 209.249 13.13C207.896 9.49 206.053 6.69 203.719 4.73C201.386 2.72333 198.773 1.72 195.879 1.72ZM267.514 1.44V2.84C265.927 2.88666 264.714 3.12 263.874 3.54C263.081 3.96 262.544 4.63666 262.264 5.57C261.984 6.50333 261.844 7.83333 261.844 9.56V30.63C261.844 33.8967 261.634 36.7433 261.214 39.17C260.794 41.5967 260.047 43.6967 258.974 45.47C257.807 47.43 256.104 49.0167 253.864 50.23C251.624 51.3967 249.057 51.98 246.164 51.98C243.924 51.98 241.777 51.7 239.724 51.14C237.717 50.6267 235.944 49.6467 234.404 48.2C233.051 46.8933 231.977 45.5167 231.184 44.07C230.437 42.6233 229.924 40.85 229.644 38.75C229.364 36.65 229.224 34.0133 229.224 30.84V8.86C229.224 7.13333 229.084 5.87333 228.804 5.08C228.524 4.24 227.964 3.68 227.124 3.4C226.331 3.07333 225.141 2.88666 223.554 2.84V1.44C224.534 1.48667 225.817 1.53333 227.404 1.58C228.991 1.62666 230.694 1.65 232.514 1.65C234.147 1.65 235.757 1.62666 237.344 1.58C238.977 1.53333 240.331 1.48667 241.404 1.44V2.84C239.817 2.88666 238.604 3.07333 237.764 3.4C236.971 3.68 236.434 4.24 236.154 5.08C235.874 5.87333 235.734 7.13333 235.734 8.86V32.03C235.734 34.41 235.851 36.6733 236.084 38.82C236.317 40.92 236.784 42.7867 237.484 44.42C238.231 46.0067 239.351 47.2667 240.844 48.2C242.337 49.0867 244.321 49.53 246.794 49.53C250.341 49.53 253.071 48.76 254.984 47.22C256.944 45.6333 258.297 43.4633 259.044 40.71C259.837 37.9567 260.234 34.8533 260.234 31.4V9.56C260.234 7.83333 260.024 6.50333 259.604 5.57C259.231 4.63666 258.577 3.96 257.644 3.54C256.711 3.12 255.451 2.88666 253.864 2.84V1.44C254.704 1.48667 255.801 1.53333 257.154 1.58C258.554 1.62666 259.837 1.65 261.004 1.65C262.217 1.65 263.407 1.62666 264.574 1.58C265.787 1.53333 266.767 1.48667 267.514 1.44ZM307.249 1.44C307.062 3.07333 306.922 4.66 306.829 6.2C306.782 7.74 306.759 8.90666 306.759 9.7C306.759 10.54 306.782 11.3567 306.829 12.15C306.876 12.8967 306.922 13.5267 306.969 14.04H305.359C305.079 11.2867 304.682 9.11666 304.169 7.53C303.656 5.89666 302.769 4.75333 301.509 4.1C300.296 3.4 298.452 3.05 295.979 3.05H290.169C288.582 3.05 287.369 3.19 286.529 3.47C285.736 3.70333 285.199 4.24 284.919 5.08C284.639 5.87333 284.499 7.13333 284.499 8.86V43.58C284.499 45.26 284.639 46.52 284.919 47.36C285.199 48.2 285.736 48.76 286.529 49.04C287.369 49.2733 288.582 49.39 290.169 49.39H295.279C298.219 49.39 300.436 48.9933 301.929 48.2C303.469 47.4067 304.566 46.1233 305.219 44.35C305.919 42.53 306.432 40.08 306.759 37H308.369C308.229 38.26 308.159 39.94 308.159 42.04C308.159 42.9267 308.182 44.21 308.229 45.89C308.322 47.5233 308.462 49.2267 308.649 51C306.269 50.9067 303.586 50.86 300.599 50.86C297.612 50.8133 294.952 50.79 292.619 50.79C291.592 50.79 290.262 50.79 288.629 50.79C287.042 50.79 285.316 50.8133 283.449 50.86C281.582 50.86 279.692 50.8833 277.779 50.93C275.866 50.93 274.046 50.9533 272.319 51V49.6C273.906 49.5067 275.096 49.32 275.889 49.04C276.729 48.76 277.289 48.2 277.569 47.36C277.849 46.52 277.989 45.26 277.989 43.58V8.86C277.989 7.13333 277.849 5.87333 277.569 5.08C277.289 4.24 276.729 3.68 275.889 3.4C275.096 3.07333 273.906 2.88666 272.319 2.84V1.44C274.046 1.48667 275.866 1.53333 277.779 1.58C279.692 1.58 281.582 1.60333 283.449 1.65C285.316 1.65 287.042 1.65 288.629 1.65C290.262 1.65 291.592 1.65 292.619 1.65C294.766 1.65 297.192 1.65 299.899 1.65C302.652 1.60333 305.102 1.53333 307.249 1.44ZM295.209 25.38C295.209 25.38 295.209 25.6133 295.209 26.08C295.209 26.5467 295.209 26.78 295.209 26.78H282.399C282.399 26.78 282.399 26.5467 282.399 26.08C282.399 25.6133 282.399 25.38 282.399 25.38H295.209ZM297.239 16.14C297.052 18.8 296.959 20.83 296.959 22.23C297.006 23.63 297.029 24.9133 297.029 26.08C297.029 27.2467 297.052 28.53 297.099 29.93C297.146 31.33 297.262 33.36 297.449 36.02H295.839C295.652 34.5267 295.419 33.08 295.139 31.68C294.906 30.2333 294.346 29.0667 293.459 28.18C292.619 27.2467 291.172 26.78 289.119 26.78V25.38C290.659 25.38 291.826 25.0767 292.619 24.47C293.459 23.8167 294.066 23 294.439 22.02C294.812 21.04 295.069 20.0367 295.209 19.01C295.349 17.9367 295.489 16.98 295.629 16.14H297.239ZM358.935 1.44V2.84C357.348 2.88666 356.135 3.12 355.295 3.54C354.502 3.96 353.965 4.63666 353.685 5.57C353.405 6.50333 353.265 7.83333 353.265 9.56V51.35C352.985 51.35 352.705 51.35 352.425 51.35C352.192 51.35 351.935 51.35 351.655 51.35L322.255 5.92V42.88C322.255 44.56 322.395 45.89 322.675 46.87C323.002 47.8033 323.608 48.48 324.495 48.9C325.428 49.2733 326.805 49.5067 328.625 49.6V51C327.785 50.9067 326.688 50.86 325.335 50.86C323.982 50.8133 322.698 50.79 321.485 50.79C320.318 50.79 319.128 50.8133 317.915 50.86C316.748 50.86 315.768 50.9067 314.975 51V49.6C316.562 49.5067 317.752 49.2733 318.545 48.9C319.385 48.48 319.945 47.8033 320.225 46.87C320.505 45.89 320.645 44.56 320.645 42.88V8.86C320.645 7.13333 320.505 5.87333 320.225 5.08C319.945 4.24 319.385 3.68 318.545 3.4C317.752 3.07333 316.562 2.88666 314.975 2.84V1.44C315.768 1.48667 316.748 1.53333 317.915 1.58C319.128 1.62666 320.318 1.65 321.485 1.65C322.512 1.65 323.492 1.62666 324.425 1.58C325.358 1.53333 326.198 1.48667 326.945 1.44L351.655 39.52V9.56C351.655 7.83333 351.492 6.50333 351.165 5.57C350.885 4.63666 350.278 3.96 349.345 3.54C348.458 3.12 347.105 2.88666 345.285 2.84V1.44C346.125 1.48667 347.222 1.53333 348.575 1.58C349.975 1.62666 351.258 1.65 352.425 1.65C353.638 1.65 354.828 1.62666 355.995 1.58C357.208 1.53333 358.188 1.48667 358.935 1.44ZM402.899 1.44C402.712 3.21333 402.572 4.94 402.479 6.62C402.432 8.25333 402.409 9.51333 402.409 10.4C402.409 11.52 402.432 12.57 402.479 13.55C402.526 14.53 402.572 15.3933 402.619 16.14H401.009C400.682 12.8733 400.239 10.3067 399.679 8.44C399.119 6.52666 398.139 5.15 396.739 4.31C395.339 3.47 393.169 3.05 390.229 3.05H386.449V42.88C386.449 44.7467 386.612 46.1467 386.939 47.08C387.312 48.0133 388.012 48.6433 389.039 48.97C390.066 49.2967 391.559 49.5067 393.519 49.6V51C392.306 50.9067 390.766 50.86 388.899 50.86C387.032 50.8133 385.142 50.79 383.229 50.79C381.129 50.79 379.146 50.8133 377.279 50.86C375.459 50.86 373.989 50.9067 372.869 51V49.6C374.829 49.5067 376.322 49.2967 377.349 48.97C378.376 48.6433 379.052 48.0133 379.379 47.08C379.752 46.1467 379.939 44.7467 379.939 42.88V3.05H376.159C373.266 3.05 371.096 3.47 369.649 4.31C368.249 5.15 367.269 6.52666 366.709 8.44C366.149 10.3067 365.706 12.8733 365.379 16.14H363.769C363.862 15.3933 363.909 14.53 363.909 13.55C363.956 12.57 363.979 11.52 363.979 10.4C363.979 9.51333 363.932 8.25333 363.839 6.62C363.792 4.94 363.676 3.21333 363.489 1.44C365.449 1.48667 367.572 1.53333 369.859 1.58C372.192 1.62666 374.526 1.65 376.859 1.65C379.192 1.65 381.316 1.65 383.229 1.65C385.142 1.65 387.242 1.65 389.529 1.65C391.862 1.65 394.196 1.62666 396.529 1.58C398.862 1.53333 400.986 1.48667 402.899 1.44ZM425.726 1.44V2.84C424.139 2.88666 422.926 3.07333 422.086 3.4C421.292 3.68 420.756 4.24 420.476 5.08C420.196 5.87333 420.056 7.13333 420.056 8.86V43.58C420.056 45.26 420.196 46.52 420.476 47.36C420.756 48.2 421.292 48.76 422.086 49.04C422.926 49.2733 424.139 49.39 425.726 49.39H430.836C433.029 49.39 434.802 49.1567 436.156 48.69C437.556 48.2233 438.652 47.5 439.446 46.52C440.286 45.4933 440.916 44.14 441.336 42.46C441.756 40.78 442.082 38.7267 442.316 36.3H443.926C443.786 37.7467 443.716 39.66 443.716 42.04C443.716 42.9267 443.739 44.21 443.786 45.89C443.879 47.5233 444.019 49.2267 444.206 51C441.826 50.9067 439.142 50.86 436.156 50.86C433.169 50.8133 430.509 50.79 428.176 50.79C427.149 50.79 425.819 50.79 424.186 50.79C422.599 50.79 420.872 50.8133 419.006 50.86C417.139 50.86 415.249 50.8833 413.336 50.93C411.422 50.93 409.602 50.9533 407.876 51V49.6C409.462 49.5067 410.652 49.32 411.446 49.04C412.286 48.76 412.846 48.2 413.126 47.36C413.406 46.52 413.546 45.26 413.546 43.58V8.86C413.546 7.13333 413.406 5.87333 413.126 5.08C412.846 4.24 412.286 3.68 411.446 3.4C410.652 3.07333 409.462 2.88666 407.876 2.84V1.44C408.856 1.48667 410.139 1.53333 411.726 1.58C413.312 1.62666 415.016 1.65 416.836 1.65C418.469 1.65 420.079 1.62666 421.666 1.58C423.299 1.53333 424.652 1.48667 425.726 1.44ZM482.326 1.44V2.84C481.439 3.02667 480.553 3.61 479.666 4.59C478.779 5.52333 477.799 7.01667 476.726 9.07L462.586 37.07H461.396L445.016 6.83C444.083 5.10333 443.289 4.03 442.636 3.61C442.029 3.14333 441.469 2.91 440.956 2.91V1.44C441.889 1.48667 442.846 1.53333 443.826 1.58C444.853 1.62666 445.949 1.65 447.116 1.65C448.656 1.65 450.289 1.65 452.016 1.65C453.789 1.60333 455.423 1.53333 456.916 1.44V2.91C455.749 2.91 454.723 3.05 453.836 3.33C452.949 3.61 452.366 4.12333 452.086 4.87C451.806 5.61667 452.016 6.66667 452.716 8.02L464.546 30.7L463.986 31.12L473.296 12.57C474.603 10.0033 475.233 8.02 475.186 6.62C475.186 5.22 474.649 4.26333 473.576 3.75C472.503 3.19 470.986 2.88666 469.026 2.84V1.44C470.379 1.48667 471.756 1.53333 473.156 1.58C474.556 1.62666 475.863 1.65 477.076 1.65C478.289 1.65 479.293 1.62666 480.086 1.58C480.879 1.53333 481.626 1.48667 482.326 1.44ZM465.736 29.72V43.58C465.736 45.26 465.876 46.52 466.156 47.36C466.436 48.2 466.973 48.76 467.766 49.04C468.606 49.32 469.819 49.5067 471.406 49.6V51C470.333 50.9067 468.979 50.86 467.346 50.86C465.759 50.8133 464.149 50.79 462.516 50.79C460.696 50.79 458.993 50.8133 457.406 50.86C455.819 50.86 454.536 50.9067 453.556 51V49.6C455.143 49.5067 456.333 49.32 457.126 49.04C457.966 48.76 458.526 48.2 458.806 47.36C459.086 46.52 459.226 45.26 459.226 43.58V29.23L463.006 33.57L465.736 29.72ZM517.917 1.09L534.997 45.12C535.697 46.8933 536.49 48.0833 537.377 48.69C538.263 49.25 539.08 49.5533 539.827 49.6V51C538.893 50.9067 537.75 50.86 536.397 50.86C535.043 50.8133 533.69 50.79 532.337 50.79C530.517 50.79 528.813 50.8133 527.227 50.86C525.64 50.86 524.357 50.9067 523.377 51V49.6C525.757 49.5067 527.273 49.11 527.927 48.41C528.58 47.6633 528.44 46.1 527.507 43.72L514.487 8.93L515.607 8.02L503.427 39.66C502.68 41.5267 502.237 43.1133 502.097 44.42C501.957 45.68 502.073 46.6833 502.447 47.43C502.867 48.1767 503.543 48.7133 504.477 49.04C505.457 49.3667 506.67 49.5533 508.117 49.6V51C506.81 50.9067 505.433 50.86 503.987 50.86C502.587 50.8133 501.28 50.79 500.067 50.79C498.9 50.79 497.897 50.8133 497.057 50.86C496.263 50.86 495.517 50.9067 494.817 51V49.6C495.75 49.3667 496.707 48.83 497.687 47.99C498.667 47.1033 499.553 45.61 500.347 43.51L516.797 1.09C516.983 1.09 517.17 1.09 517.357 1.09C517.543 1.09 517.73 1.09 517.917 1.09ZM526.457 30.84V32.24H505.597L506.297 30.84H526.457ZM557.318 0.669997C559.652 0.669997 561.425 0.949998 562.638 1.51C563.852 2.02333 564.925 2.60666 565.858 3.26C566.418 3.58667 566.862 3.84333 567.188 4.03C567.562 4.17 567.912 4.24 568.238 4.24C568.705 4.24 569.032 3.98333 569.218 3.47C569.452 2.95666 569.638 2.18666 569.778 1.16H571.388C571.342 1.95333 571.272 2.91 571.178 4.03C571.132 5.10333 571.085 6.55 571.038 8.37C571.038 10.1433 571.038 12.5 571.038 15.44H569.428C569.288 13.2 568.798 11.0533 567.958 9C567.118 6.94666 565.882 5.26666 564.248 3.96C562.662 2.65333 560.562 2 557.948 2C555.475 2 553.422 2.74666 551.788 4.24C550.202 5.73333 549.408 7.69333 549.408 10.12C549.408 12.22 549.945 13.9933 551.018 15.44C552.092 16.84 553.515 18.1233 555.288 19.29C557.108 20.41 559.068 21.6233 561.168 22.93C563.595 24.4233 565.742 25.9167 567.608 27.41C569.522 28.8567 571.015 30.4667 572.088 32.24C573.208 34.0133 573.768 36.16 573.768 38.68C573.768 41.6667 573.092 44.14 571.738 46.1C570.385 48.06 568.588 49.53 566.348 50.51C564.108 51.49 561.635 51.98 558.928 51.98C556.455 51.98 554.495 51.7 553.048 51.14C551.602 50.58 550.365 49.9967 549.338 49.39C548.312 48.7367 547.518 48.41 546.958 48.41C546.492 48.41 546.142 48.6667 545.908 49.18C545.722 49.6933 545.558 50.4633 545.418 51.49H543.808C543.902 50.51 543.948 49.3667 543.948 48.06C543.995 46.7067 544.018 44.9567 544.018 42.81C544.065 40.6633 544.088 37.9567 544.088 34.69H545.698C545.885 37.49 546.398 40.1033 547.238 42.53C548.125 44.9567 549.455 46.9167 551.228 48.41C553.048 49.8567 555.452 50.58 558.438 50.58C559.978 50.58 561.425 50.2767 562.778 49.67C564.178 49.0167 565.322 48.0133 566.208 46.66C567.095 45.26 567.538 43.4633 567.538 41.27C567.538 39.3567 567.072 37.7 566.138 36.3C565.252 34.8533 563.992 33.5233 562.358 32.31C560.725 31.05 558.812 29.7667 556.618 28.46C554.425 27.1067 552.372 25.73 550.458 24.33C548.545 22.93 547.005 21.32 545.838 19.5C544.718 17.6333 544.158 15.3933 544.158 12.78C544.158 10.0267 544.765 7.76333 545.978 5.99C547.238 4.17 548.872 2.84 550.878 2C552.885 1.11333 555.032 0.669997 557.318 0.669997ZM620.251 1.44V2.84C618.805 3.02667 617.405 3.49333 616.051 4.24C614.698 4.98667 613.345 6.22333 611.991 7.95L598.481 25.24L600.021 21.81L616.821 45.33C617.615 46.4967 618.478 47.4067 619.411 48.06C620.345 48.7133 621.535 49.2267 622.981 49.6V51C621.861 50.9067 620.461 50.86 618.781 50.86C617.148 50.8133 615.748 50.79 614.581 50.79C613.788 50.79 612.808 50.8133 611.641 50.86C610.521 50.86 609.098 50.9067 607.371 51V49.6C608.958 49.5067 609.961 49.2267 610.381 48.76C610.801 48.2933 610.638 47.5233 609.891 46.45L599.671 31.05C598.738 29.6033 597.898 28.53 597.151 27.83C596.451 27.0833 595.705 26.5933 594.911 26.36C594.165 26.1267 593.208 25.9867 592.041 25.94V24.54C594.001 24.4933 595.635 24.12 596.941 23.42C598.295 22.6733 599.415 21.74 600.301 20.62L607.021 12.08C608.561 10.12 609.611 8.46333 610.171 7.11C610.731 5.75667 610.708 4.73 610.101 4.03C609.495 3.28333 608.211 2.88666 606.251 2.84V1.44C607.138 1.48667 608.048 1.53333 608.981 1.58C609.915 1.58 610.825 1.60333 611.711 1.65C612.645 1.65 613.508 1.65 614.301 1.65C615.515 1.65 616.635 1.62666 617.661 1.58C618.688 1.53333 619.551 1.48667 620.251 1.44ZM597.991 1.44V2.84C596.405 2.88666 595.191 3.07333 594.351 3.4C593.558 3.68 593.021 4.24 592.741 5.08C592.461 5.87333 592.321 7.13333 592.321 8.86V43.58C592.321 45.26 592.461 46.52 592.741 47.36C593.021 48.2 593.558 48.76 594.351 49.04C595.191 49.32 596.405 49.5067 597.991 49.6V51C596.918 50.9067 595.565 50.86 593.931 50.86C592.345 50.8133 590.735 50.79 589.101 50.79C587.281 50.79 585.578 50.8133 583.991 50.86C582.405 50.86 581.121 50.9067 580.141 51V49.6C581.728 49.5067 582.918 49.32 583.711 49.04C584.551 48.76 585.111 48.2 585.391 47.36C585.671 46.52 585.811 45.26 585.811 43.58V8.86C585.811 7.13333 585.671 5.87333 585.391 5.08C585.111 4.24 584.551 3.68 583.711 3.4C582.918 3.07333 581.728 2.88666 580.141 2.84V1.44C581.121 1.48667 582.405 1.53333 583.991 1.58C585.578 1.62666 587.281 1.65 589.101 1.65C590.735 1.65 592.345 1.62666 593.931 1.58C595.565 1.53333 596.918 1.48667 597.991 1.44ZM660.94 1.44C660.754 3.07333 660.614 4.66 660.52 6.2C660.474 7.74 660.45 8.90666 660.45 9.7C660.45 10.54 660.474 11.3567 660.52 12.15C660.567 12.8967 660.614 13.5267 660.66 14.04H659.05C658.77 11.2867 658.374 9.11666 657.86 7.53C657.347 5.89666 656.46 4.75333 655.2 4.1C653.987 3.4 652.144 3.05 649.67 3.05H643.86C642.274 3.05 641.06 3.19 640.22 3.47C639.427 3.70333 638.89 4.24 638.61 5.08C638.33 5.87333 638.19 7.13333 638.19 8.86V43.58C638.19 45.26 638.33 46.52 638.61 47.36C638.89 48.2 639.427 48.76 640.22 49.04C641.06 49.2733 642.274 49.39 643.86 49.39H648.97C651.91 49.39 654.127 48.9933 655.62 48.2C657.16 47.4067 658.257 46.1233 658.91 44.35C659.61 42.53 660.124 40.08 660.45 37H662.06C661.92 38.26 661.85 39.94 661.85 42.04C661.85 42.9267 661.874 44.21 661.92 45.89C662.014 47.5233 662.154 49.2267 662.34 51C659.96 50.9067 657.277 50.86 654.29 50.86C651.304 50.8133 648.644 50.79 646.31 50.79C645.284 50.79 643.954 50.79 642.32 50.79C640.734 50.79 639.007 50.8133 637.14 50.86C635.274 50.86 633.384 50.8833 631.47 50.93C629.557 50.93 627.737 50.9533 626.01 51V49.6C627.597 49.5067 628.787 49.32 629.58 49.04C630.42 48.76 630.98 48.2 631.26 47.36C631.54 46.52 631.68 45.26 631.68 43.58V8.86C631.68 7.13333 631.54 5.87333 631.26 5.08C630.98 4.24 630.42 3.68 629.58 3.4C628.787 3.07333 627.597 2.88666 626.01 2.84V1.44C627.737 1.48667 629.557 1.53333 631.47 1.58C633.384 1.58 635.274 1.60333 637.14 1.65C639.007 1.65 640.734 1.65 642.32 1.65C643.954 1.65 645.284 1.65 646.31 1.65C648.457 1.65 650.884 1.65 653.59 1.65C656.344 1.60333 658.794 1.53333 660.94 1.44ZM648.9 25.38C648.9 25.38 648.9 25.6133 648.9 26.08C648.9 26.5467 648.9 26.78 648.9 26.78H636.09C636.09 26.78 636.09 26.5467 636.09 26.08C636.09 25.6133 636.09 25.38 636.09 25.38H648.9ZM650.93 16.14C650.744 18.8 650.65 20.83 650.65 22.23C650.697 23.63 650.72 24.9133 650.72 26.08C650.72 27.2467 650.744 28.53 650.79 29.93C650.837 31.33 650.954 33.36 651.14 36.02H649.53C649.344 34.5267 649.11 33.08 648.83 31.68C648.597 30.2333 648.037 29.0667 647.15 28.18C646.31 27.2467 644.864 26.78 642.81 26.78V25.38C644.35 25.38 645.517 25.0767 646.31 24.47C647.15 23.8167 647.757 23 648.13 22.02C648.504 21.04 648.76 20.0367 648.9 19.01C649.04 17.9367 649.18 16.98 649.32 16.14H650.93ZM687.777 1.44C696.13 1.44 702.337 3.54 706.397 7.74C710.457 11.8933 712.487 17.8667 712.487 25.66C712.487 30.7467 711.483 35.2033 709.477 39.03C707.517 42.81 704.647 45.75 700.867 47.85C697.087 49.95 692.513 51 687.147 51C686.447 51 685.513 50.9767 684.347 50.93C683.18 50.8833 681.967 50.86 680.707 50.86C679.493 50.8133 678.373 50.79 677.347 50.79C675.713 50.79 674.103 50.8133 672.517 50.86C670.93 50.86 669.647 50.9067 668.667 51V49.6C670.253 49.5067 671.443 49.32 672.237 49.04C673.077 48.76 673.637 48.2 673.917 47.36C674.197 46.52 674.337 45.26 674.337 43.58V8.86C674.337 7.13333 674.197 5.87333 673.917 5.08C673.637 4.24 673.077 3.68 672.237 3.4C671.443 3.07333 670.253 2.88666 668.667 2.84V1.44C669.647 1.48667 670.93 1.55666 672.517 1.65C674.103 1.69666 675.667 1.69666 677.207 1.65C678.84 1.60333 680.683 1.55666 682.737 1.51C684.79 1.46333 686.47 1.44 687.777 1.44ZM686.027 2.7C683.88 2.7 682.48 3.09666 681.827 3.89C681.173 4.68333 680.847 6.29333 680.847 8.72V43.72C680.847 46.1467 681.173 47.7567 681.827 48.55C682.527 49.3433 683.95 49.74 686.097 49.74C691.183 49.74 695.127 48.83 697.927 47.01C700.727 45.1433 702.687 42.4367 703.807 38.89C704.927 35.3433 705.487 31.0267 705.487 25.94C705.487 20.7133 704.857 16.3967 703.597 12.99C702.383 9.53666 700.353 6.97 697.507 5.29C694.707 3.56333 690.88 2.7 686.027 2.7ZM53.36 115.61L54.41 116.03C53.85 117.943 53.1967 119.53 52.45 120.79C51.75 122.097 50.9333 123.17 50 124.01C49.1133 124.803 47.9 125.527 46.36 126.18C44.8667 126.833 42.93 127.16 40.55 127.16C38.0767 127.16 35.6733 126.74 33.34 125.9C31.0533 125.107 28.6733 124.127 26.2 122.96C23.7267 121.793 20.9967 120.72 18.01 119.74C17.6833 119.647 17.38 119.553 17.1 119.46C16.82 119.367 16.5633 119.297 16.33 119.25C15.4433 119.577 14.4867 119.833 13.46 120.02C12.4333 120.207 11.4533 120.3 10.52 120.3C9.58667 120.3 8.81667 120.183 8.21 119.95C7.60333 119.717 7.3 119.367 7.3 118.9C7.3 117.92 8.56 117.43 11.08 117.43C12.7133 117.43 14.4633 117.617 16.33 117.99C18.01 117.523 19.4567 116.987 20.67 116.38C21.8833 115.82 23.12 115.283 24.38 114.77C25.6867 114.257 27.25 113.93 29.07 113.79L29.14 114.91C27.74 115.05 26.5267 115.307 25.5 115.68C24.4733 116.1 23.4467 116.543 22.42 117.01C21.3933 117.477 20.18 117.92 18.78 118.34C21.1133 118.807 23.6567 119.297 26.41 119.81C29.1633 120.323 31.8233 120.767 34.39 121.14C36.9567 121.513 39.15 121.7 40.97 121.7C44.33 121.7 46.9667 121.21 48.88 120.23C50.84 119.25 52.3333 117.71 53.36 115.61ZM26.97 63.46C31.4033 63.46 35.2767 64.4633 38.59 66.47C41.95 68.4767 44.54 71.37 46.36 75.15C48.2267 78.8833 49.16 83.4333 49.16 88.8C49.16 94.0267 48.2033 98.6 46.29 102.52C44.4233 106.44 41.81 109.497 38.45 111.69C35.09 113.883 31.24 114.98 26.9 114.98C22.4667 114.98 18.57 113.977 15.21 111.97C11.8967 109.963 9.30667 107.07 7.44 103.29C5.62 99.51 4.71 94.96 4.71 89.64C4.71 84.4133 5.66667 79.84 7.58 75.92C9.49333 72 12.1067 68.9433 15.42 66.75C18.78 64.5567 22.63 63.46 26.97 63.46ZM26.69 64.72C23.6567 64.72 21.02 65.77 18.78 67.87C16.54 69.97 14.79 72.8633 13.53 76.55C12.3167 80.2367 11.71 84.5067 11.71 89.36C11.71 94.3067 12.3867 98.6233 13.74 102.31C15.14 105.95 17.0067 108.773 19.34 110.78C21.72 112.74 24.3333 113.72 27.18 113.72C30.2133 113.72 32.85 112.67 35.09 110.57C37.33 108.47 39.0567 105.577 40.27 101.89C41.53 98.1567 42.16 93.8867 42.16 89.08C42.16 84.0867 41.46 79.77 40.06 76.13C38.7067 72.49 36.8633 69.69 34.53 67.73C32.1967 65.7233 29.5833 64.72 26.69 64.72ZM98.3246 64.44V65.84C96.7379 65.8867 95.5246 66.12 94.6846 66.54C93.8913 66.96 93.3546 67.6367 93.0746 68.57C92.7946 69.5033 92.6546 70.8333 92.6546 72.56V93.63C92.6546 96.8967 92.4446 99.7433 92.0246 102.17C91.6046 104.597 90.8579 106.697 89.7846 108.47C88.6179 110.43 86.9146 112.017 84.6746 113.23C82.4346 114.397 79.8679 114.98 76.9746 114.98C74.7346 114.98 72.5879 114.7 70.5346 114.14C68.5279 113.627 66.7546 112.647 65.2146 111.2C63.8613 109.893 62.7879 108.517 61.9946 107.07C61.2479 105.623 60.7346 103.85 60.4546 101.75C60.1746 99.65 60.0346 97.0133 60.0346 93.84V71.86C60.0346 70.1333 59.8946 68.8733 59.6146 68.08C59.3346 67.24 58.7746 66.68 57.9346 66.4C57.1413 66.0733 55.9513 65.8867 54.3646 65.84V64.44C55.3446 64.4867 56.6279 64.5333 58.2146 64.58C59.8013 64.6267 61.5046 64.65 63.3246 64.65C64.9579 64.65 66.5679 64.6267 68.1546 64.58C69.7879 64.5333 71.1413 64.4867 72.2146 64.44V65.84C70.6279 65.8867 69.4146 66.0733 68.5746 66.4C67.7813 66.68 67.2446 67.24 66.9646 68.08C66.6846 68.8733 66.5446 70.1333 66.5446 71.86V95.03C66.5446 97.41 66.6613 99.6733 66.8946 101.82C67.1279 103.92 67.5946 105.787 68.2946 107.42C69.0413 109.007 70.1613 110.267 71.6546 111.2C73.1479 112.087 75.1313 112.53 77.6046 112.53C81.1513 112.53 83.8813 111.76 85.7946 110.22C87.7546 108.633 89.1079 106.463 89.8546 103.71C90.6479 100.957 91.0446 97.8533 91.0446 94.4V72.56C91.0446 70.8333 90.8346 69.5033 90.4146 68.57C90.0413 67.6367 89.3879 66.96 88.4546 66.54C87.5213 66.12 86.2613 65.8867 84.6746 65.84V64.44C85.5146 64.4867 86.6113 64.5333 87.9646 64.58C89.3646 64.6267 90.6479 64.65 91.8146 64.65C93.0279 64.65 94.2179 64.6267 95.3846 64.58C96.5979 64.5333 97.5779 64.4867 98.3246 64.44ZM138.059 64.44C137.873 66.0733 137.733 67.66 137.639 69.2C137.593 70.74 137.569 71.9067 137.569 72.7C137.569 73.54 137.593 74.3567 137.639 75.15C137.686 75.8967 137.733 76.5267 137.779 77.04H136.169C135.889 74.2867 135.493 72.1167 134.979 70.53C134.466 68.8967 133.579 67.7533 132.319 67.1C131.106 66.4 129.263 66.05 126.789 66.05H120.979C119.393 66.05 118.179 66.19 117.339 66.47C116.546 66.7033 116.009 67.24 115.729 68.08C115.449 68.8733 115.309 70.1333 115.309 71.86V106.58C115.309 108.26 115.449 109.52 115.729 110.36C116.009 111.2 116.546 111.76 117.339 112.04C118.179 112.273 119.393 112.39 120.979 112.39H126.089C129.029 112.39 131.246 111.993 132.739 111.2C134.279 110.407 135.376 109.123 136.029 107.35C136.729 105.53 137.243 103.08 137.569 100H139.179C139.039 101.26 138.969 102.94 138.969 105.04C138.969 105.927 138.993 107.21 139.039 108.89C139.133 110.523 139.273 112.227 139.459 114C137.079 113.907 134.396 113.86 131.409 113.86C128.423 113.813 125.763 113.79 123.429 113.79C122.403 113.79 121.073 113.79 119.439 113.79C117.853 113.79 116.126 113.813 114.259 113.86C112.393 113.86 110.503 113.883 108.589 113.93C106.676 113.93 104.856 113.953 103.129 114V112.6C104.716 112.507 105.906 112.32 106.699 112.04C107.539 111.76 108.099 111.2 108.379 110.36C108.659 109.52 108.799 108.26 108.799 106.58V71.86C108.799 70.1333 108.659 68.8733 108.379 68.08C108.099 67.24 107.539 66.68 106.699 66.4C105.906 66.0733 104.716 65.8867 103.129 65.84V64.44C104.856 64.4867 106.676 64.5333 108.589 64.58C110.503 64.58 112.393 64.6033 114.259 64.65C116.126 64.65 117.853 64.65 119.439 64.65C121.073 64.65 122.403 64.65 123.429 64.65C125.576 64.65 128.003 64.65 130.709 64.65C133.463 64.6033 135.913 64.5333 138.059 64.44ZM126.019 88.38C126.019 88.38 126.019 88.6133 126.019 89.08C126.019 89.5467 126.019 89.78 126.019 89.78H113.209C113.209 89.78 113.209 89.5467 113.209 89.08C113.209 88.6133 113.209 88.38 113.209 88.38H126.019ZM128.049 79.14C127.863 81.8 127.769 83.83 127.769 85.23C127.816 86.63 127.839 87.9133 127.839 89.08C127.839 90.2467 127.863 91.53 127.909 92.93C127.956 94.33 128.073 96.36 128.259 99.02H126.649C126.463 97.5267 126.229 96.08 125.949 94.68C125.716 93.2333 125.156 92.0667 124.269 91.18C123.429 90.2467 121.983 89.78 119.929 89.78V88.38C121.469 88.38 122.636 88.0767 123.429 87.47C124.269 86.8167 124.876 86 125.249 85.02C125.623 84.04 125.879 83.0367 126.019 82.01C126.159 80.9367 126.299 79.98 126.439 79.14H128.049ZM160.766 63.67C163.099 63.67 164.872 63.95 166.086 64.51C167.299 65.0233 168.372 65.6067 169.306 66.26C169.866 66.5867 170.309 66.8433 170.636 67.03C171.009 67.17 171.359 67.24 171.686 67.24C172.152 67.24 172.479 66.9833 172.666 66.47C172.899 65.9567 173.086 65.1867 173.226 64.16H174.836C174.789 64.9533 174.719 65.91 174.626 67.03C174.579 68.1033 174.532 69.55 174.486 71.37C174.486 73.1433 174.486 75.5 174.486 78.44H172.876C172.736 76.2 172.246 74.0533 171.406 72C170.566 69.9467 169.329 68.2667 167.696 66.96C166.109 65.6533 164.009 65 161.396 65C158.922 65 156.869 65.7467 155.236 67.24C153.649 68.7333 152.856 70.6933 152.856 73.12C152.856 75.22 153.392 76.9933 154.466 78.44C155.539 79.84 156.962 81.1233 158.736 82.29C160.556 83.41 162.516 84.6233 164.616 85.93C167.042 87.4233 169.189 88.9167 171.056 90.41C172.969 91.8567 174.462 93.4667 175.536 95.24C176.656 97.0133 177.216 99.16 177.216 101.68C177.216 104.667 176.539 107.14 175.186 109.1C173.832 111.06 172.036 112.53 169.796 113.51C167.556 114.49 165.082 114.98 162.376 114.98C159.902 114.98 157.942 114.7 156.496 114.14C155.049 113.58 153.812 112.997 152.786 112.39C151.759 111.737 150.966 111.41 150.406 111.41C149.939 111.41 149.589 111.667 149.356 112.18C149.169 112.693 149.006 113.463 148.866 114.49H147.256C147.349 113.51 147.396 112.367 147.396 111.06C147.442 109.707 147.466 107.957 147.466 105.81C147.512 103.663 147.536 100.957 147.536 97.69H149.146C149.332 100.49 149.846 103.103 150.686 105.53C151.572 107.957 152.902 109.917 154.676 111.41C156.496 112.857 158.899 113.58 161.886 113.58C163.426 113.58 164.872 113.277 166.226 112.67C167.626 112.017 168.769 111.013 169.656 109.66C170.542 108.26 170.986 106.463 170.986 104.27C170.986 102.357 170.519 100.7 169.586 99.3C168.699 97.8533 167.439 96.5233 165.806 95.31C164.172 94.05 162.259 92.7667 160.066 91.46C157.872 90.1067 155.819 88.73 153.906 87.33C151.992 85.93 150.452 84.32 149.286 82.5C148.166 80.6333 147.606 78.3933 147.606 75.78C147.606 73.0267 148.212 70.7633 149.426 68.99C150.686 67.17 152.319 65.84 154.326 65C156.332 64.1133 158.479 63.67 160.766 63.67ZM222.088 64.44C221.902 66.2133 221.762 67.94 221.668 69.62C221.622 71.2533 221.598 72.5133 221.598 73.4C221.598 74.52 221.622 75.57 221.668 76.55C221.715 77.53 221.762 78.3933 221.808 79.14H220.198C219.872 75.8733 219.428 73.3067 218.868 71.44C218.308 69.5267 217.328 68.15 215.928 67.31C214.528 66.47 212.358 66.05 209.418 66.05H205.638V105.88C205.638 107.747 205.802 109.147 206.128 110.08C206.502 111.013 207.202 111.643 208.228 111.97C209.255 112.297 210.748 112.507 212.708 112.6V114C211.495 113.907 209.955 113.86 208.088 113.86C206.222 113.813 204.332 113.79 202.418 113.79C200.318 113.79 198.335 113.813 196.468 113.86C194.648 113.86 193.178 113.907 192.058 114V112.6C194.018 112.507 195.512 112.297 196.538 111.97C197.565 111.643 198.242 111.013 198.568 110.08C198.942 109.147 199.128 107.747 199.128 105.88V66.05H195.348C192.455 66.05 190.285 66.47 188.838 67.31C187.438 68.15 186.458 69.5267 185.898 71.44C185.338 73.3067 184.895 75.8733 184.568 79.14H182.958C183.052 78.3933 183.098 77.53 183.098 76.55C183.145 75.57 183.168 74.52 183.168 73.4C183.168 72.5133 183.122 71.2533 183.028 69.62C182.982 67.94 182.865 66.2133 182.678 64.44C184.638 64.4867 186.762 64.5333 189.048 64.58C191.382 64.6267 193.715 64.65 196.048 64.65C198.382 64.65 200.505 64.65 202.418 64.65C204.332 64.65 206.432 64.65 208.718 64.65C211.052 64.65 213.385 64.6267 215.718 64.58C218.052 64.5333 220.175 64.4867 222.088 64.44ZM244.915 64.44V65.84C243.328 65.8867 242.115 66.0733 241.275 66.4C240.482 66.68 239.945 67.24 239.665 68.08C239.385 68.8733 239.245 70.1333 239.245 71.86V106.58C239.245 108.26 239.385 109.52 239.665 110.36C239.945 111.2 240.482 111.76 241.275 112.04C242.115 112.32 243.328 112.507 244.915 112.6V114C243.842 113.907 242.488 113.86 240.855 113.86C239.268 113.813 237.658 113.79 236.025 113.79C234.205 113.79 232.502 113.813 230.915 113.86C229.328 113.86 228.045 113.907 227.065 114V112.6C228.652 112.507 229.842 112.32 230.635 112.04C231.475 111.76 232.035 111.2 232.315 110.36C232.595 109.52 232.735 108.26 232.735 106.58V71.86C232.735 70.1333 232.595 68.8733 232.315 68.08C232.035 67.24 231.475 66.68 230.635 66.4C229.842 66.0733 228.652 65.8867 227.065 65.84V64.44C228.045 64.4867 229.328 64.5333 230.915 64.58C232.502 64.6267 234.205 64.65 236.025 64.65C237.658 64.65 239.268 64.6267 240.855 64.58C242.488 64.5333 243.842 64.4867 244.915 64.44ZM294.979 73.3222C296.327 74.5667 297.001 76.5111 297.001 79.1556C297.001 81.8 296.327 84.8593 294.979 88.3333C293.683 91.8074 291.79 95.3333 289.301 98.9111C286.864 102.437 284.09 105.704 280.979 108.711C277.868 111.719 274.29 114.181 270.246 116.1C266.253 118.019 262.235 118.978 258.19 118.978C254.664 118.978 251.994 117.915 250.179 115.789C248.416 113.715 247.535 110.863 247.535 107.233C247.535 104.07 248.183 100.596 249.479 96.8111C250.827 93.0259 252.746 89.2667 255.235 85.5333C257.775 81.8 260.653 78.4037 263.868 75.3444C267.135 72.2333 270.894 69.7444 275.146 67.8778C279.449 65.9593 283.831 65 288.29 65C290.623 65 292.386 65.5444 293.579 66.6333C294.823 67.7222 295.446 69.1222 295.446 70.8333C295.446 71.663 295.29 72.4926 294.979 73.3222ZM258.268 118.2C261.379 118.2 264.516 117.474 267.679 116.022C270.894 114.57 273.823 112.678 276.468 110.344C279.112 108.011 281.601 105.367 283.935 102.411C286.268 99.4556 288.212 96.4741 289.768 93.4667C291.375 90.4593 292.646 87.5815 293.579 84.8333C294.512 82.0333 294.979 79.6222 294.979 77.6C294.979 76.4074 294.798 75.3963 294.435 74.5667C293.449 76.5889 291.816 78.2741 289.535 79.6222C287.253 80.9185 284.557 81.5667 281.446 81.5667C279.32 81.5667 277.505 81.2296 276.001 80.5556C273.201 83.3556 270.894 86.3889 269.079 89.6556C267.264 92.8704 266.357 95.5148 266.357 97.5889C266.357 99.9222 267.394 101.115 269.468 101.167C270.816 101.167 272.086 100.57 273.279 99.3778C274.472 98.1333 275.146 96.863 275.301 95.5667C275.353 95.4111 275.379 95.2815 275.379 95.1778C275.379 94.8148 275.457 94.6593 275.612 94.7111C275.716 94.7111 275.794 94.763 275.846 94.8667C275.846 95.0222 275.768 95.1778 275.612 95.3333C275.509 95.4889 275.457 95.5667 275.457 95.5667C275.353 96.9667 274.705 98.263 273.512 99.4556C272.32 100.648 270.972 101.27 269.468 101.322H269.39C267.783 101.27 266.564 100.778 265.735 99.8444C264.957 98.9111 264.568 97.6148 264.568 95.9556C264.568 93.5185 265.398 90.7185 267.057 87.5556C268.768 84.3407 270.998 81.4889 273.746 79C272.553 77.8074 272.035 76.2519 272.19 74.3333H272.268C272.112 76.2519 272.631 77.7815 273.823 78.9222C275.535 77.4185 277.323 76.1741 279.19 75.1889C283.338 73.0111 287.201 71.9222 290.779 71.9222C292.179 71.9222 293.372 72.2333 294.357 72.8556C294.564 72.0778 294.668 71.3259 294.668 70.6C294.668 69.0963 294.123 67.8519 293.035 66.8667C291.946 65.8815 290.338 65.3889 288.212 65.3889C284.323 65.3889 280.409 66.4 276.468 68.4222C272.579 70.4444 269.105 73.0889 266.046 76.3556C263.038 79.5704 260.316 83.0963 257.879 86.9333C255.494 90.7704 253.653 94.6074 252.357 98.4444C251.112 102.281 250.49 105.73 250.49 108.789C250.49 111.693 251.112 113.974 252.357 115.633C253.653 117.344 255.623 118.2 258.268 118.2ZM293.968 73.7889C293.294 72.8037 292.309 72.3111 291.012 72.3111C286.398 72.3111 281.42 75.0074 276.079 80.4C277.427 80.9704 279.035 81.2556 280.901 81.2556C284.064 81.2556 286.812 80.5296 289.146 79.0778C291.479 77.6259 293.086 75.863 293.968 73.7889ZM337.744 64.44V65.84C336.157 65.8867 334.944 66.12 334.104 66.54C333.31 66.96 332.774 67.6367 332.494 68.57C332.214 69.5033 332.074 70.8333 332.074 72.56V114.35C331.794 114.35 331.514 114.35 331.234 114.35C331 114.35 330.744 114.35 330.464 114.35L301.064 68.92V105.88C301.064 107.56 301.204 108.89 301.484 109.87C301.81 110.803 302.417 111.48 303.304 111.9C304.237 112.273 305.614 112.507 307.434 112.6V114C306.594 113.907 305.497 113.86 304.144 113.86C302.79 113.813 301.507 113.79 300.294 113.79C299.127 113.79 297.937 113.813 296.724 113.86C295.557 113.86 294.577 113.907 293.784 114V112.6C295.37 112.507 296.56 112.273 297.354 111.9C298.194 111.48 298.754 110.803 299.034 109.87C299.314 108.89 299.454 107.56 299.454 105.88V71.86C299.454 70.1333 299.314 68.8733 299.034 68.08C298.754 67.24 298.194 66.68 297.354 66.4C296.56 66.0733 295.37 65.8867 293.784 65.84V64.44C294.577 64.4867 295.557 64.5333 296.724 64.58C297.937 64.6267 299.127 64.65 300.294 64.65C301.32 64.65 302.3 64.6267 303.234 64.58C304.167 64.5333 305.007 64.4867 305.754 64.44L330.464 102.52V72.56C330.464 70.8333 330.3 69.5033 329.974 68.57C329.694 67.6367 329.087 66.96 328.154 66.54C327.267 66.12 325.914 65.8867 324.094 65.84V64.44C324.934 64.4867 326.03 64.5333 327.384 64.58C328.784 64.6267 330.067 64.65 331.234 64.65C332.447 64.65 333.637 64.6267 334.804 64.58C336.017 64.5333 336.997 64.4867 337.744 64.44ZM358.188 63.67C360.521 63.67 362.294 63.95 363.508 64.51C364.721 65.0233 365.794 65.6067 366.728 66.26C367.288 66.5867 367.731 66.8433 368.058 67.03C368.431 67.17 368.781 67.24 369.108 67.24C369.574 67.24 369.901 66.9833 370.088 66.47C370.321 65.9567 370.508 65.1867 370.648 64.16H372.258C372.211 64.9533 372.141 65.91 372.048 67.03C372.001 68.1033 371.954 69.55 371.908 71.37C371.908 73.1433 371.908 75.5 371.908 78.44H370.298C370.158 76.2 369.668 74.0533 368.828 72C367.988 69.9467 366.751 68.2667 365.118 66.96C363.531 65.6533 361.431 65 358.818 65C356.344 65 354.291 65.7467 352.658 67.24C351.071 68.7333 350.278 70.6933 350.278 73.12C350.278 75.22 350.814 76.9933 351.888 78.44C352.961 79.84 354.384 81.1233 356.158 82.29C357.978 83.41 359.938 84.6233 362.038 85.93C364.464 87.4233 366.611 88.9167 368.478 90.41C370.391 91.8567 371.884 93.4667 372.958 95.24C374.078 97.0133 374.638 99.16 374.638 101.68C374.638 104.667 373.961 107.14 372.608 109.1C371.254 111.06 369.458 112.53 367.218 113.51C364.978 114.49 362.504 114.98 359.798 114.98C357.324 114.98 355.364 114.7 353.918 114.14C352.471 113.58 351.234 112.997 350.208 112.39C349.181 111.737 348.388 111.41 347.828 111.41C347.361 111.41 347.011 111.667 346.778 112.18C346.591 112.693 346.428 113.463 346.288 114.49H344.678C344.771 113.51 344.818 112.367 344.818 111.06C344.864 109.707 344.888 107.957 344.888 105.81C344.934 103.663 344.958 100.957 344.958 97.69H346.568C346.754 100.49 347.268 103.103 348.108 105.53C348.994 107.957 350.324 109.917 352.098 111.41C353.918 112.857 356.321 113.58 359.308 113.58C360.848 113.58 362.294 113.277 363.648 112.67C365.048 112.017 366.191 111.013 367.078 109.66C367.964 108.26 368.408 106.463 368.408 104.27C368.408 102.357 367.941 100.7 367.008 99.3C366.121 97.8533 364.861 96.5233 363.228 95.31C361.594 94.05 359.681 92.7667 357.488 91.46C355.294 90.1067 353.241 88.73 351.328 87.33C349.414 85.93 347.874 84.32 346.708 82.5C345.588 80.6333 345.028 78.3933 345.028 75.78C345.028 73.0267 345.634 70.7633 346.848 68.99C348.108 67.17 349.741 65.84 351.748 65C353.754 64.1133 355.901 63.67 358.188 63.67Z" fill="#161616"/>
</svg>
