<svg viewBox="0 0 517 122" fill="none" xmlns="http://www.w3.org/2000/svg">
<path d="M18.2295 4.44V5.84C16.6428 5.88666 15.4295 6.07333 14.5895 6.4C13.7961 6.68 13.2595 7.24 12.9795 8.08C12.6995 8.87333 12.5595 10.1333 12.5595 11.86V46.58C12.5595 48.26 12.6995 49.52 12.9795 50.36C13.2595 51.2 13.7961 51.76 14.5895 52.04C15.4295 52.2733 16.6428 52.39 18.2295 52.39H23.3395C26.2795 52.39 28.4961 51.97 29.9895 51.13C31.5295 50.29 32.6261 48.9133 33.2795 47C33.9795 45.0867 34.4928 42.52 34.8195 39.3H36.4295C36.2895 40.7467 36.2195 42.66 36.2195 45.04C36.2195 45.9267 36.2428 47.21 36.2895 48.89C36.3828 50.5233 36.5228 52.2267 36.7095 54C34.3295 53.9067 31.6461 53.86 28.6595 53.86C25.6728 53.8133 23.0128 53.79 20.6795 53.79C19.2795 53.79 17.4128 53.79 15.0795 53.79C12.7928 53.79 10.3428 53.8133 7.72945 53.86C5.11612 53.86 2.66612 53.9067 0.379453 54V52.6C1.96612 52.5067 3.15612 52.32 3.94945 52.04C4.78945 51.76 5.34945 51.2 5.62945 50.36C5.90945 49.52 6.04945 48.26 6.04945 46.58V11.86C6.04945 10.1333 5.90945 8.87333 5.62945 8.08C5.34945 7.24 4.78945 6.68 3.94945 6.4C3.15612 6.07333 1.96612 5.88666 0.379453 5.84V4.44C1.35945 4.48667 2.64279 4.53333 4.22945 4.58C5.81612 4.62666 7.51945 4.65 9.33945 4.65C10.9728 4.65 12.5828 4.62666 14.1695 4.58C15.8028 4.53333 17.1561 4.48667 18.2295 4.44ZM76.4618 4.44C76.2751 6.07333 76.1351 7.66 76.0418 9.2C75.9951 10.74 75.9718 11.9067 75.9718 12.7C75.9718 13.54 75.9951 14.3567 76.0418 15.15C76.0885 15.8967 76.1351 16.5267 76.1818 17.04H74.5718C74.2918 14.2867 73.8951 12.1167 73.3818 10.53C72.8685 8.89666 71.9818 7.75333 70.7218 7.1C69.5085 6.4 67.6651 6.05 65.1918 6.05H59.3818C57.7951 6.05 56.5818 6.19 55.7418 6.47C54.9485 6.70333 54.4118 7.24 54.1318 8.08C53.8518 8.87333 53.7118 10.1333 53.7118 11.86V46.58C53.7118 48.26 53.8518 49.52 54.1318 50.36C54.4118 51.2 54.9485 51.76 55.7418 52.04C56.5818 52.2733 57.7951 52.39 59.3818 52.39H64.4918C67.4318 52.39 69.6485 51.9933 71.1418 51.2C72.6818 50.4067 73.7785 49.1233 74.4318 47.35C75.1318 45.53 75.6451 43.08 75.9718 40H77.5818C77.4418 41.26 77.3718 42.94 77.3718 45.04C77.3718 45.9267 77.3951 47.21 77.4418 48.89C77.5351 50.5233 77.6751 52.2267 77.8618 54C75.4818 53.9067 72.7985 53.86 69.8118 53.86C66.8251 53.8133 64.1651 53.79 61.8318 53.79C60.4318 53.79 58.5651 53.79 56.2318 53.79C53.9451 53.79 51.4951 53.8133 48.8818 53.86C46.2685 53.86 43.8185 53.9067 41.5318 54V52.6C43.1185 52.5067 44.3085 52.32 45.1018 52.04C45.9418 51.76 46.5018 51.2 46.7818 50.36C47.0618 49.52 47.2018 48.26 47.2018 46.58V11.86C47.2018 10.1333 47.0618 8.87333 46.7818 8.08C46.5018 7.24 45.9418 6.68 45.1018 6.4C44.3085 6.07333 43.1185 5.88666 41.5318 5.84V4.44C43.8185 4.48667 46.2685 4.53333 48.8818 4.58C51.4951 4.62666 53.9451 4.65 56.2318 4.65C58.5651 4.65 60.4318 4.65 61.8318 4.65C63.9785 4.65 66.4051 4.65 69.1118 4.65C71.8651 4.60333 74.3151 4.53333 76.4618 4.44ZM64.4218 28.38C64.4218 28.38 64.4218 28.6133 64.4218 29.08C64.4218 29.5467 64.4218 29.78 64.4218 29.78H51.6118C51.6118 29.78 51.6118 29.5467 51.6118 29.08C51.6118 28.6133 51.6118 28.38 51.6118 28.38H64.4218ZM66.4518 19.14C66.2651 21.8 66.1718 23.83 66.1718 25.23C66.2185 26.63 66.2418 27.9133 66.2418 29.08C66.2418 30.2467 66.2651 31.53 66.3118 32.93C66.3585 34.33 66.4751 36.36 66.6618 39.02H65.0518C64.8651 37.5267 64.6318 36.08 64.3518 34.68C64.1185 33.2333 63.5585 32.0667 62.6718 31.18C61.8318 30.2467 60.3851 29.78 58.3318 29.78V28.38C60.3851 28.38 61.8085 27.8433 62.6018 26.77C63.4418 25.6967 63.9785 24.4367 64.2118 22.99C64.4451 21.5433 64.6551 20.26 64.8418 19.14H66.4518ZM107.568 3.46C110.601 3.46 113.051 3.92666 114.918 4.86C116.785 5.74666 118.535 6.79667 120.168 8.01C120.775 8.47667 121.241 8.71 121.568 8.71C122.455 8.71 123.038 7.28667 123.318 4.44H124.928C124.835 6.16667 124.765 8.26667 124.718 10.74C124.671 13.2133 124.648 16.48 124.648 20.54H123.038C122.711 18.58 122.315 16.69 121.848 14.87C121.381 13.05 120.611 11.4867 119.538 10.18C118.185 8.45333 116.411 7.12333 114.218 6.19C112.025 5.21 109.761 4.72 107.428 4.72C105.095 4.72 102.971 5.30333 101.058 6.47C99.1914 7.59 97.5814 9.22333 96.228 11.37C94.8747 13.5167 93.8247 16.1067 93.078 19.14C92.378 22.1267 92.028 25.51 92.028 29.29C92.028 37.69 93.3814 43.85 96.088 47.77C98.7947 51.6433 102.995 53.58 108.688 53.58C110.368 53.58 111.815 53.3467 113.028 52.88C114.288 52.3667 115.268 51.8767 115.968 51.41C116.855 50.8033 117.415 50.2433 117.648 49.73C117.881 49.17 117.998 48.4467 117.998 47.56V40.84C117.998 38.9267 117.811 37.5033 117.438 36.57C117.065 35.6367 116.365 35.0067 115.338 34.68C114.358 34.3533 112.888 34.1667 110.928 34.12V32.72C111.768 32.7667 112.748 32.8133 113.868 32.86C114.988 32.86 116.155 32.8833 117.368 32.93C118.628 32.93 119.771 32.93 120.798 32.93C122.338 32.93 123.715 32.9067 124.928 32.86C126.188 32.8133 127.238 32.7667 128.078 32.72V34.12C126.538 34.2133 125.558 34.5867 125.138 35.24C124.718 35.8933 124.508 37.5267 124.508 40.14V54H123.108C123.061 53.2067 122.875 52.3433 122.548 51.41C122.268 50.4767 121.825 50.01 121.218 50.01C120.938 50.01 120.658 50.08 120.378 50.22C120.098 50.36 119.608 50.6867 118.908 51.2C117.368 52.3667 115.735 53.3 114.008 54C112.281 54.6533 110.275 54.98 107.988 54.98C100.755 54.98 95.108 52.7867 91.048 48.4C87.0347 43.9667 85.028 37.8533 85.028 30.06C85.028 24.6 86.008 19.8867 87.968 15.92C89.928 11.9533 92.588 8.89667 95.948 6.75C99.3547 4.55666 103.228 3.46 107.568 3.46ZM153.077 4.09L170.157 48.12C170.857 49.8933 171.65 51.0833 172.537 51.69C173.423 52.25 174.24 52.5533 174.987 52.6V54C174.053 53.9067 172.91 53.86 171.557 53.86C170.203 53.8133 168.85 53.79 167.497 53.79C165.677 53.79 163.973 53.8133 162.387 53.86C160.8 53.86 159.517 53.9067 158.537 54V52.6C160.917 52.5067 162.433 52.11 163.087 51.41C163.74 50.6633 163.6 49.1 162.667 46.72L149.647 11.93L150.767 11.02L138.587 42.66C137.607 45.18 137.14 47.1633 137.187 48.61C137.233 50.01 137.77 51.0133 138.797 51.62C139.823 52.2267 141.317 52.5533 143.277 52.6V54C141.97 53.9067 140.593 53.86 139.147 53.86C137.747 53.8133 136.44 53.79 135.227 53.79C134.06 53.79 133.057 53.8133 132.217 53.86C131.423 53.86 130.677 53.9067 129.977 54V52.6C130.91 52.3667 131.867 51.83 132.847 50.99C133.827 50.1033 134.713 48.61 135.507 46.51L151.957 4.09C152.143 4.09 152.33 4.09 152.517 4.09C152.703 4.09 152.89 4.09 153.077 4.09ZM161.617 33.84V35.24H140.757L141.457 33.84H161.617ZM199.845 3.46C202.925 3.46 205.445 3.92666 207.405 4.86C209.412 5.74666 211.185 6.79667 212.725 8.01C213.658 8.71 214.358 8.80333 214.825 8.29C215.338 7.73 215.688 6.44667 215.875 4.44H217.485C217.392 6.16667 217.322 8.26667 217.275 10.74C217.228 13.2133 217.205 16.48 217.205 20.54H215.595C215.268 18.5333 214.965 16.9467 214.685 15.78C214.405 14.5667 214.055 13.54 213.635 12.7C213.262 11.86 212.748 11.02 212.095 10.18C210.648 8.26666 208.828 6.89 206.635 6.05C204.442 5.16333 202.132 4.72 199.705 4.72C197.418 4.72 195.342 5.30333 193.475 6.47C191.655 7.59 190.068 9.22333 188.715 11.37C187.408 13.5167 186.382 16.1067 185.635 19.14C184.935 22.1733 184.585 25.58 184.585 29.36C184.585 33.28 184.982 36.7567 185.775 39.79C186.568 42.7767 187.665 45.2967 189.065 47.35C190.512 49.4033 192.192 50.9667 194.105 52.04C196.065 53.0667 198.165 53.58 200.405 53.58C202.505 53.58 204.698 53.16 206.985 52.32C209.272 51.48 211.068 50.1267 212.375 48.26C213.402 46.9067 214.102 45.4367 214.475 43.85C214.895 42.2633 215.268 40.0467 215.595 37.2H217.205C217.205 41.4467 217.228 44.8767 217.275 47.49C217.322 50.0567 217.392 52.2267 217.485 54H215.875C215.688 51.9933 215.362 50.7333 214.895 50.22C214.475 49.7067 213.752 49.7767 212.725 50.43C210.998 51.6433 209.155 52.7167 207.195 53.65C205.282 54.5367 202.808 54.98 199.775 54.98C195.342 54.98 191.445 53.9767 188.085 51.97C184.772 49.9633 182.182 47.07 180.315 43.29C178.495 39.51 177.585 34.96 177.585 29.64C177.585 24.4133 178.542 19.84 180.455 15.92C182.368 12 184.982 8.94333 188.295 6.75C191.655 4.55666 195.505 3.46 199.845 3.46ZM294.168 10.2111C294.583 10.2111 294.92 10.3407 295.179 10.6C295.439 10.8593 295.568 11.1963 295.568 11.6111C295.568 12.2333 295.205 12.8556 294.479 13.4778C293.805 14.1 292.95 14.7222 291.913 15.3444C290.928 15.9667 290.254 16.4593 289.891 16.8222C287.039 20.6074 282.657 27.763 276.746 38.2889C270.887 48.763 266.246 56.4111 262.824 61.2333C267.128 62.3741 270.576 64.0333 273.168 66.2111C275.761 68.3889 277.057 70.9815 277.057 73.9889C277.057 74.5593 276.979 74.8444 276.824 74.8444C276.668 74.8444 276.591 74.5074 276.591 73.8333C276.591 71.0333 275.268 68.6481 272.624 66.6778C270.031 64.7074 266.557 63.2037 262.202 62.1667C257.483 68.7519 252.609 73.8852 247.579 77.5667C242.55 81.3 237.131 83.1667 231.324 83.1667C228.005 83.1667 225.335 82.3889 223.313 80.8333C221.342 79.2778 220.357 77.0222 220.357 74.0667C220.357 71.0074 221.757 68.337 224.557 66.0556C227.409 63.7741 230.935 62.1148 235.135 61.0778C239.335 60.0407 243.898 59.5222 248.824 59.5222C252.972 59.5222 256.887 59.9111 260.568 60.6889C263.576 57.0593 266.479 53.0926 269.279 48.7889C272.131 44.4852 275.346 39.3259 278.924 33.3111C282.554 27.2963 284.731 23.7185 285.457 22.5778C283.02 25.6889 280.946 28.3333 279.235 30.5111C277.524 32.637 275.346 35.1778 272.702 38.1333C270.109 41.0889 267.828 43.4741 265.857 45.2889C263.887 47.1037 261.813 48.6852 259.635 50.0333C257.509 51.3296 255.642 51.9778 254.035 51.9778C253.309 51.9778 252.661 51.6667 252.091 51.0444C251.52 50.4222 251.235 49.6185 251.235 48.6333C251.235 46.8185 251.754 44.9259 252.791 42.9556C253.828 40.9333 255.124 39.0667 256.679 37.3556C258.235 35.6444 259.92 33.7778 261.735 31.7556C263.602 29.6815 265.313 27.6852 266.868 25.7667C268.424 23.7963 269.72 21.5667 270.757 19.0778C271.794 16.5889 272.313 14.1 272.313 11.6111C272.313 4.35185 267.75 0.72222 258.624 0.72222C254.891 0.72222 251.391 1.5 248.124 3.05556C244.909 4.55926 242.265 6.47778 240.191 8.81111C238.117 11.0926 236.483 13.5815 235.291 16.2778C234.15 18.9222 233.579 21.463 233.579 23.9C233.579 26.5963 234.305 28.7741 235.757 30.4333C237.209 32.0926 239.361 32.9222 242.213 32.9222C247.346 32.9222 251.417 31.4963 254.424 28.6444C257.483 25.7926 259.013 22.5778 259.013 19C259.013 17.0296 258.417 15.5259 257.224 14.4889C256.031 13.4518 254.502 12.9333 252.635 12.9333C249.939 12.9333 247.398 13.8148 245.013 15.5778L244.857 15.3444C247.294 13.5296 250.146 12.6222 253.413 12.6222C255.746 12.6222 257.691 13.1926 259.246 14.3333C260.854 15.4222 261.657 16.9778 261.657 19C261.657 22.4741 259.739 25.7148 255.902 28.7222C252.065 31.7296 247.502 33.2333 242.213 33.2333C238.428 33.2333 235.524 32.1963 233.502 30.1222C231.479 27.9963 230.468 25.3259 230.468 22.1111C230.468 19.6222 231.065 17.1333 232.257 14.6444C233.502 12.1556 235.239 9.84815 237.468 7.72222C239.698 5.54444 242.654 3.78148 246.335 2.43333C250.068 1.08518 254.165 0.411111 258.624 0.411111C263.913 0.411111 267.931 1.52593 270.679 3.75555C273.428 5.98518 274.802 8.6037 274.802 11.6111C274.802 14.5148 274.257 17.4185 273.168 20.3222C272.079 23.2259 270.705 25.8185 269.046 28.1C267.439 30.3296 265.676 32.5593 263.757 34.7889C261.891 37.0185 260.154 38.9889 258.546 40.7C256.939 42.3593 255.591 44.0185 254.502 45.6778C253.413 47.2852 252.868 48.6852 252.868 49.8778C252.868 51.0704 253.257 51.6667 254.035 51.6667C255.176 51.6667 256.472 51.3037 257.924 50.5778C259.428 49.8519 260.879 48.9444 262.279 47.8556C263.679 46.7667 265.261 45.3407 267.024 43.5778C268.839 41.763 270.446 40.0778 271.846 38.5222C273.246 36.9667 274.879 35.0222 276.746 32.6889C278.665 30.3556 280.194 28.437 281.335 26.9333C282.528 25.4296 284.005 23.537 285.768 21.2556C287.531 18.9741 288.776 17.3667 289.502 16.4333C289.709 16.1741 290.02 15.4741 290.435 14.3333C290.902 13.1926 291.42 12.2333 291.991 11.4556C292.613 10.6259 293.339 10.2111 294.168 10.2111ZM231.868 79.1222C240.787 79.1222 250.12 73.2889 259.868 61.6222C256.239 60.9481 252.376 60.6111 248.279 60.6111C243.613 60.6111 239.257 61.0259 235.213 61.8556C231.22 62.737 227.902 64.0852 225.257 65.9C222.613 67.7148 221.291 69.8667 221.291 72.3556C221.291 73.8593 222.224 75.363 224.091 76.8667C226.009 78.3704 228.602 79.1222 231.868 79.1222ZM326.864 4.44C327.844 4.48667 329.127 4.53333 330.714 4.58C332.3 4.62666 333.864 4.65 335.404 4.65C337.597 4.65 339.697 4.62666 341.704 4.58C343.71 4.53333 345.134 4.51 345.974 4.51C350.874 4.51 354.56 5.53666 357.034 7.59C359.507 9.64333 360.744 12.28 360.744 15.5C360.744 17.1333 360.394 18.7433 359.694 20.33C359.04 21.87 357.92 23.2933 356.334 24.6C354.794 25.86 352.717 26.8867 350.104 27.68V27.82C353.79 28.2867 356.66 29.1733 358.714 30.48C360.814 31.74 362.284 33.2333 363.124 34.96C363.964 36.6867 364.384 38.5067 364.384 40.42C364.384 44.3867 362.89 47.6533 359.904 50.22C356.964 52.74 352.857 54 347.584 54C346.557 54 345.017 53.9767 342.964 53.93C340.91 53.8367 338.437 53.79 335.544 53.79C333.91 53.79 332.3 53.8133 330.714 53.86C329.127 53.86 327.844 53.9067 326.864 54V52.6C328.45 52.5067 329.64 52.32 330.434 52.04C331.274 51.76 331.834 51.2 332.114 50.36C332.394 49.52 332.534 48.26 332.534 46.58V11.86C332.534 10.1333 332.394 8.87333 332.114 8.08C331.834 7.24 331.274 6.68 330.434 6.4C329.64 6.07333 328.45 5.88666 326.864 5.84V4.44ZM344.224 5.84C342.077 5.84 340.677 6.23667 340.024 7.03C339.37 7.82333 339.044 9.43333 339.044 11.86V46.58C339.044 49.0067 339.37 50.5933 340.024 51.34C340.724 52.04 342.147 52.39 344.294 52.39C348.867 52.39 352.18 51.34 354.234 49.24C356.334 47.0933 357.384 44.06 357.384 40.14C357.384 36.5467 356.404 33.77 354.444 31.81C352.53 29.85 349.357 28.87 344.924 28.87H337.714C337.714 28.87 337.714 28.6833 337.714 28.31C337.714 27.89 337.714 27.68 337.714 27.68H343.734C346.487 27.68 348.61 27.1667 350.104 26.14C351.597 25.0667 352.624 23.6667 353.184 21.94C353.744 20.1667 354.024 18.2767 354.024 16.27C354.024 12.8167 353.254 10.2267 351.714 8.5C350.22 6.72666 347.724 5.84 344.224 5.84ZM412.977 4.44V5.84C411.39 5.88666 410.177 6.12 409.337 6.54C408.544 6.96 408.007 7.63666 407.727 8.57C407.447 9.50333 407.307 10.8333 407.307 12.56V33.63C407.307 36.8967 407.097 39.7433 406.677 42.17C406.257 44.5967 405.51 46.6967 404.437 48.47C403.27 50.43 401.567 52.0167 399.327 53.23C397.087 54.3967 394.52 54.98 391.627 54.98C389.387 54.98 387.24 54.7 385.187 54.14C383.18 53.6267 381.407 52.6467 379.867 51.2C378.514 49.8933 377.44 48.5167 376.647 47.07C375.9 45.6233 375.387 43.85 375.107 41.75C374.827 39.65 374.687 37.0133 374.687 33.84V11.86C374.687 10.1333 374.547 8.87333 374.267 8.08C373.987 7.24 373.427 6.68 372.587 6.4C371.794 6.07333 370.604 5.88666 369.017 5.84V4.44C369.997 4.48667 371.28 4.53333 372.867 4.58C374.454 4.62666 376.157 4.65 377.977 4.65C379.61 4.65 381.22 4.62666 382.807 4.58C384.44 4.53333 385.794 4.48667 386.867 4.44V5.84C385.28 5.88666 384.067 6.07333 383.227 6.4C382.434 6.68 381.897 7.24 381.617 8.08C381.337 8.87333 381.197 10.1333 381.197 11.86V35.03C381.197 38.2033 381.43 41.12 381.897 43.78C382.364 46.44 383.367 48.5633 384.907 50.15C386.494 51.7367 388.944 52.53 392.257 52.53C395.804 52.53 398.534 51.76 400.447 50.22C402.407 48.6333 403.76 46.4633 404.507 43.71C405.3 40.9567 405.697 37.8533 405.697 34.4V12.56C405.697 10.8333 405.487 9.50333 405.067 8.57C404.694 7.63666 404.04 6.96 403.107 6.54C402.174 6.12 400.914 5.88666 399.327 5.84V4.44C400.167 4.48667 401.264 4.53333 402.617 4.58C404.017 4.62666 405.3 4.65 406.467 4.65C407.68 4.65 408.87 4.62666 410.037 4.58C411.25 4.53333 412.23 4.48667 412.977 4.44ZM435.632 4.44V5.84C434.045 5.88666 432.832 6.07333 431.992 6.4C431.198 6.68 430.662 7.24 430.382 8.08C430.102 8.87333 429.962 10.1333 429.962 11.86V46.58C429.962 48.26 430.102 49.52 430.382 50.36C430.662 51.2 431.198 51.76 431.992 52.04C432.832 52.32 434.045 52.5067 435.632 52.6V54C434.558 53.9067 433.205 53.86 431.572 53.86C429.985 53.8133 428.375 53.79 426.742 53.79C424.922 53.79 423.218 53.8133 421.632 53.86C420.045 53.86 418.762 53.9067 417.782 54V52.6C419.368 52.5067 420.558 52.32 421.352 52.04C422.192 51.76 422.752 51.2 423.032 50.36C423.312 49.52 423.452 48.26 423.452 46.58V11.86C423.452 10.1333 423.312 8.87333 423.032 8.08C422.752 7.24 422.192 6.68 421.352 6.4C420.558 6.07333 419.368 5.88666 417.782 5.84V4.44C418.762 4.48667 420.045 4.53333 421.632 4.58C423.218 4.62666 424.922 4.65 426.742 4.65C428.375 4.65 429.985 4.62666 431.572 4.58C433.205 4.53333 434.558 4.48667 435.632 4.44ZM459.353 4.44V5.84C457.766 5.88666 456.553 6.07333 455.713 6.4C454.919 6.68 454.383 7.24 454.103 8.08C453.823 8.87333 453.683 10.1333 453.683 11.86V46.58C453.683 48.26 453.823 49.52 454.103 50.36C454.383 51.2 454.919 51.76 455.713 52.04C456.553 52.2733 457.766 52.39 459.353 52.39H464.463C467.403 52.39 469.619 51.97 471.113 51.13C472.653 50.29 473.749 48.9133 474.403 47C475.103 45.0867 475.616 42.52 475.943 39.3H477.553C477.413 40.7467 477.343 42.66 477.343 45.04C477.343 45.9267 477.366 47.21 477.413 48.89C477.506 50.5233 477.646 52.2267 477.833 54C475.453 53.9067 472.769 53.86 469.783 53.86C466.796 53.8133 464.136 53.79 461.803 53.79C460.403 53.79 458.536 53.79 456.203 53.79C453.916 53.79 451.466 53.8133 448.852 53.86C446.239 53.86 443.789 53.9067 441.503 54V52.6C443.089 52.5067 444.279 52.32 445.073 52.04C445.913 51.76 446.473 51.2 446.753 50.36C447.033 49.52 447.173 48.26 447.173 46.58V11.86C447.173 10.1333 447.033 8.87333 446.753 8.08C446.473 7.24 445.913 6.68 445.073 6.4C444.279 6.07333 443.089 5.88666 441.503 5.84V4.44C442.483 4.48667 443.766 4.53333 445.353 4.58C446.939 4.62666 448.643 4.65 450.463 4.65C452.096 4.65 453.706 4.62666 455.293 4.58C456.926 4.53333 458.279 4.48667 459.353 4.44ZM516.233 4.44C516.046 6.21333 515.906 7.94 515.813 9.62C515.766 11.2533 515.743 12.5133 515.743 13.4C515.743 14.52 515.766 15.57 515.813 16.55C515.86 17.53 515.906 18.3933 515.953 19.14H514.343C514.016 15.8733 513.573 13.3067 513.013 11.44C512.453 9.52666 511.473 8.15 510.073 7.31C508.673 6.47 506.503 6.05 503.563 6.05H499.783V45.88C499.783 47.7467 499.946 49.1467 500.273 50.08C500.646 51.0133 501.346 51.6433 502.373 51.97C503.4 52.2967 504.893 52.5067 506.853 52.6V54C505.64 53.9067 504.1 53.86 502.233 53.86C500.366 53.8133 498.476 53.79 496.563 53.79C494.463 53.79 492.48 53.8133 490.613 53.86C488.793 53.86 487.323 53.9067 486.203 54V52.6C488.163 52.5067 489.656 52.2967 490.683 51.97C491.71 51.6433 492.386 51.0133 492.713 50.08C493.086 49.1467 493.273 47.7467 493.273 45.88V6.05H489.493C486.6 6.05 484.43 6.47 482.983 7.31C481.583 8.15 480.603 9.52666 480.043 11.44C479.483 13.3067 479.04 15.8733 478.713 19.14H477.103C477.196 18.3933 477.243 17.53 477.243 16.55C477.29 15.57 477.313 14.52 477.313 13.4C477.313 12.5133 477.266 11.2533 477.173 9.62C477.126 7.94 477.01 6.21333 476.823 4.44C478.783 4.48667 480.906 4.53333 483.193 4.58C485.526 4.62666 487.86 4.65 490.193 4.65C492.526 4.65 494.65 4.65 496.563 4.65C498.476 4.65 500.576 4.65 502.863 4.65C505.196 4.65 507.53 4.62666 509.863 4.58C512.196 4.53333 514.32 4.48667 516.233 4.44ZM86.9153 66.46C91.3486 66.46 95.222 67.4633 98.5353 69.47C101.895 71.4767 104.485 74.37 106.305 78.15C108.172 81.8833 109.105 86.4333 109.105 91.8C109.105 97.0267 108.149 101.6 106.235 105.52C104.369 109.44 101.755 112.497 98.3953 114.69C95.0353 116.883 91.1853 117.98 86.8453 117.98C82.412 117.98 78.5153 116.977 75.1553 114.97C71.842 112.963 69.252 110.07 67.3853 106.29C65.5653 102.51 64.6553 97.96 64.6553 92.64C64.6553 87.4133 65.612 82.84 67.5253 78.92C69.4386 75 72.052 71.9433 75.3653 69.75C78.7253 67.5567 82.5753 66.46 86.9153 66.46ZM86.6353 67.72C83.602 67.72 80.9653 68.77 78.7253 70.87C76.4853 72.97 74.7353 75.8633 73.4753 79.55C72.262 83.2367 71.6553 87.5067 71.6553 92.36C71.6553 97.3067 72.332 101.623 73.6853 105.31C75.0853 108.95 76.952 111.773 79.2853 113.78C81.6653 115.74 84.2786 116.72 87.1253 116.72C90.1586 116.72 92.7953 115.67 95.0353 113.57C97.2753 111.47 99.002 108.577 100.215 104.89C101.475 101.157 102.105 96.8867 102.105 92.08C102.105 87.0867 101.405 82.77 100.005 79.13C98.652 75.49 96.8086 72.69 94.4753 70.73C92.142 68.7233 89.5286 67.72 86.6353 67.72ZM159.183 67.44V68.84C157.597 68.8867 156.383 69.12 155.543 69.54C154.75 69.96 154.213 70.6367 153.933 71.57C153.653 72.5033 153.513 73.8333 153.513 75.56V117.35C153.233 117.35 152.953 117.35 152.673 117.35C152.44 117.35 152.183 117.35 151.903 117.35L122.503 71.92V108.88C122.503 110.56 122.643 111.89 122.923 112.87C123.25 113.803 123.857 114.48 124.743 114.9C125.677 115.273 127.053 115.507 128.873 115.6V117C128.033 116.907 126.937 116.86 125.583 116.86C124.23 116.813 122.947 116.79 121.733 116.79C120.567 116.79 119.377 116.813 118.163 116.86C116.997 116.86 116.017 116.907 115.223 117V115.6C116.81 115.507 118 115.273 118.793 114.9C119.633 114.48 120.193 113.803 120.473 112.87C120.753 111.89 120.893 110.56 120.893 108.88V74.86C120.893 73.1333 120.753 71.8733 120.473 71.08C120.193 70.24 119.633 69.68 118.793 69.4C118 69.0733 116.81 68.8867 115.223 68.84V67.44C116.017 67.4867 116.997 67.5333 118.163 67.58C119.377 67.6267 120.567 67.65 121.733 67.65C122.76 67.65 123.74 67.6267 124.673 67.58C125.607 67.5333 126.447 67.4867 127.193 67.44L151.903 105.52V75.56C151.903 73.8333 151.74 72.5033 151.413 71.57C151.133 70.6367 150.527 69.96 149.593 69.54C148.707 69.12 147.353 68.8867 145.533 68.84V67.44C146.373 67.4867 147.47 67.5333 148.823 67.58C150.223 67.6267 151.507 67.65 152.673 67.65C153.887 67.65 155.077 67.6267 156.243 67.58C157.457 67.5333 158.437 67.4867 159.183 67.44ZM182.079 67.44C183.059 67.4867 184.342 67.5333 185.929 67.58C187.515 67.6267 189.079 67.65 190.619 67.65C192.812 67.65 194.912 67.6267 196.919 67.58C198.925 67.5333 200.349 67.51 201.189 67.51C206.835 67.51 211.059 68.7933 213.859 71.36C216.659 73.9267 218.059 77.24 218.059 81.3C218.059 82.98 217.779 84.7533 217.219 86.62C216.659 88.44 215.679 90.1433 214.279 91.73C212.925 93.27 211.059 94.53 208.679 95.51C206.299 96.49 203.289 96.98 199.649 96.98H192.929V95.58H198.949C202.262 95.58 204.782 94.95 206.509 93.69C208.282 92.43 209.472 90.7733 210.079 88.72C210.732 86.6667 211.059 84.45 211.059 82.07C211.059 77.6367 210.172 74.3233 208.399 72.13C206.672 69.9367 203.685 68.84 199.439 68.84C197.292 68.84 195.892 69.2367 195.239 70.03C194.585 70.8233 194.259 72.4333 194.259 74.86V109.58C194.259 111.26 194.422 112.52 194.749 113.36C195.122 114.2 195.822 114.76 196.849 115.04C197.875 115.32 199.369 115.507 201.329 115.6V117C200.115 116.907 198.575 116.86 196.709 116.86C194.842 116.813 192.952 116.79 191.039 116.79C189.219 116.79 187.515 116.813 185.929 116.86C184.342 116.86 183.059 116.907 182.079 117V115.6C183.665 115.507 184.855 115.32 185.649 115.04C186.489 114.76 187.049 114.2 187.329 113.36C187.609 112.52 187.749 111.26 187.749 109.58V74.86C187.749 73.1333 187.609 71.8733 187.329 71.08C187.049 70.24 186.489 69.68 185.649 69.4C184.855 69.0733 183.665 68.8867 182.079 68.84V67.44ZM239.825 67.09L256.905 111.12C257.605 112.893 258.398 114.083 259.285 114.69C260.172 115.25 260.988 115.553 261.735 115.6V117C260.802 116.907 259.658 116.86 258.305 116.86C256.952 116.813 255.598 116.79 254.245 116.79C252.425 116.79 250.722 116.813 249.135 116.86C247.548 116.86 246.265 116.907 245.285 117V115.6C247.665 115.507 249.182 115.11 249.835 114.41C250.488 113.663 250.348 112.1 249.415 109.72L236.395 74.93L237.515 74.02L225.335 105.66C224.355 108.18 223.888 110.163 223.935 111.61C223.982 113.01 224.518 114.013 225.545 114.62C226.572 115.227 228.065 115.553 230.025 115.6V117C228.718 116.907 227.342 116.86 225.895 116.86C224.495 116.813 223.188 116.79 221.975 116.79C220.808 116.79 219.805 116.813 218.965 116.86C218.172 116.86 217.425 116.907 216.725 117V115.6C217.658 115.367 218.615 114.83 219.595 113.99C220.575 113.103 221.462 111.61 222.255 109.51L238.705 67.09C238.892 67.09 239.078 67.09 239.265 67.09C239.452 67.09 239.638 67.09 239.825 67.09ZM248.365 96.84V98.24H227.505L228.205 96.84H248.365ZM279.227 66.67C281.56 66.67 283.333 66.95 284.547 67.51C285.76 68.0233 286.833 68.6067 287.767 69.26C288.327 69.5867 288.77 69.8433 289.097 70.03C289.47 70.17 289.82 70.24 290.147 70.24C290.893 70.24 291.407 69.2133 291.687 67.16H293.297C293.25 67.9533 293.18 68.91 293.087 70.03C293.04 71.1033 292.993 72.55 292.947 74.37C292.947 76.1433 292.947 78.5 292.947 81.44H291.337C291.197 79.2 290.707 77.0533 289.867 75C289.027 72.9467 287.79 71.2667 286.157 69.96C284.57 68.6533 282.47 68 279.857 68C277.383 68 275.33 68.7467 273.697 70.24C272.11 71.7333 271.317 73.6933 271.317 76.12C271.317 78.22 271.853 79.9933 272.927 81.44C274 82.84 275.423 84.1233 277.197 85.29C279.017 86.41 280.977 87.6233 283.077 88.93C285.503 90.4233 287.65 91.9167 289.517 93.41C291.43 94.8567 292.923 96.4667 293.997 98.24C295.117 100.013 295.677 102.16 295.677 104.68C295.677 107.667 295 110.14 293.647 112.1C292.293 114.06 290.497 115.53 288.257 116.51C286.017 117.49 283.543 117.98 280.837 117.98C278.363 117.98 276.403 117.7 274.957 117.14C273.51 116.58 272.273 115.997 271.247 115.39C270.22 114.737 269.427 114.41 268.867 114.41C268.12 114.41 267.607 115.437 267.327 117.49H265.717C265.81 116.51 265.857 115.367 265.857 114.06C265.903 112.707 265.927 110.957 265.927 108.81C265.973 106.663 265.997 103.957 265.997 100.69H267.607C267.793 103.49 268.307 106.103 269.147 108.53C270.033 110.957 271.363 112.917 273.137 114.41C274.957 115.857 277.36 116.58 280.347 116.58C282.633 116.58 284.71 115.857 286.577 114.41C288.49 112.917 289.447 110.537 289.447 107.27C289.447 104.423 288.443 102.067 286.437 100.2C284.43 98.3333 281.793 96.42 278.527 94.46C276.333 93.1067 274.28 91.73 272.367 90.33C270.453 88.93 268.913 87.32 267.747 85.5C266.627 83.6333 266.067 81.3933 266.067 78.78C266.067 76.0267 266.673 73.7633 267.887 71.99C269.147 70.17 270.78 68.84 272.787 68C274.793 67.1133 276.94 66.67 279.227 66.67ZM317.029 66.67C319.363 66.67 321.136 66.95 322.349 67.51C323.563 68.0233 324.636 68.6067 325.569 69.26C326.129 69.5867 326.573 69.8433 326.899 70.03C327.273 70.17 327.623 70.24 327.949 70.24C328.696 70.24 329.209 69.2133 329.489 67.16H331.099C331.053 67.9533 330.983 68.91 330.889 70.03C330.843 71.1033 330.796 72.55 330.749 74.37C330.749 76.1433 330.749 78.5 330.749 81.44H329.139C328.999 79.2 328.509 77.0533 327.669 75C326.829 72.9467 325.593 71.2667 323.959 69.96C322.373 68.6533 320.273 68 317.659 68C315.186 68 313.133 68.7467 311.499 70.24C309.913 71.7333 309.119 73.6933 309.119 76.12C309.119 78.22 309.656 79.9933 310.729 81.44C311.803 82.84 313.226 84.1233 314.999 85.29C316.819 86.41 318.779 87.6233 320.879 88.93C323.306 90.4233 325.453 91.9167 327.319 93.41C329.233 94.8567 330.726 96.4667 331.799 98.24C332.919 100.013 333.479 102.16 333.479 104.68C333.479 107.667 332.803 110.14 331.449 112.1C330.096 114.06 328.299 115.53 326.059 116.51C323.819 117.49 321.346 117.98 318.639 117.98C316.166 117.98 314.206 117.7 312.759 117.14C311.313 116.58 310.076 115.997 309.049 115.39C308.023 114.737 307.229 114.41 306.669 114.41C305.923 114.41 305.409 115.437 305.129 117.49H303.519C303.613 116.51 303.659 115.367 303.659 114.06C303.706 112.707 303.729 110.957 303.729 108.81C303.776 106.663 303.799 103.957 303.799 100.69H305.409C305.596 103.49 306.109 106.103 306.949 108.53C307.836 110.957 309.166 112.917 310.939 114.41C312.759 115.857 315.163 116.58 318.149 116.58C320.436 116.58 322.513 115.857 324.379 114.41C326.293 112.917 327.249 110.537 327.249 107.27C327.249 104.423 326.246 102.067 324.239 100.2C322.233 98.3333 319.596 96.42 316.329 94.46C314.136 93.1067 312.083 91.73 310.169 90.33C308.256 88.93 306.716 87.32 305.549 85.5C304.429 83.6333 303.869 81.3933 303.869 78.78C303.869 76.0267 304.476 73.7633 305.689 71.99C306.949 70.17 308.583 68.84 310.589 68C312.596 67.1133 314.743 66.67 317.029 66.67ZM357.702 67.44V68.84C356.115 68.8867 354.902 69.0733 354.062 69.4C353.269 69.68 352.732 70.24 352.452 71.08C352.172 71.8733 352.032 73.1333 352.032 74.86V109.58C352.032 111.26 352.172 112.52 352.452 113.36C352.732 114.2 353.269 114.76 354.062 115.04C354.902 115.32 356.115 115.507 357.702 115.6V117C356.629 116.907 355.275 116.86 353.642 116.86C352.055 116.813 350.445 116.79 348.812 116.79C346.992 116.79 345.289 116.813 343.702 116.86C342.115 116.86 340.832 116.907 339.852 117V115.6C341.439 115.507 342.629 115.32 343.422 115.04C344.262 114.76 344.822 114.2 345.102 113.36C345.382 112.52 345.522 111.26 345.522 109.58V74.86C345.522 73.1333 345.382 71.8733 345.102 71.08C344.822 70.24 344.262 69.68 343.422 69.4C342.629 69.0733 341.439 68.8867 339.852 68.84V67.44C340.832 67.4867 342.115 67.5333 343.702 67.58C345.289 67.6267 346.992 67.65 348.812 67.65C350.445 67.65 352.055 67.6267 353.642 67.58C355.275 67.5333 356.629 67.4867 357.702 67.44ZM407.766 76.3222C409.114 77.5667 409.788 79.5111 409.788 82.1556C409.788 84.8 409.114 87.8593 407.766 91.3333C406.47 94.8074 404.577 98.3333 402.088 101.911C399.651 105.437 396.877 108.704 393.766 111.711C390.655 114.719 387.077 117.181 383.033 119.1C379.04 121.019 375.022 121.978 370.977 121.978C367.451 121.978 364.781 120.915 362.966 118.789C361.203 116.715 360.322 113.863 360.322 110.233C360.322 107.07 360.97 103.596 362.266 99.8111C363.614 96.0259 365.533 92.2667 368.022 88.5333C370.562 84.8 373.44 81.4037 376.655 78.3444C379.922 75.2333 383.681 72.7444 387.933 70.8778C392.237 68.9593 396.618 68 401.077 68C403.411 68 405.174 68.5444 406.366 69.6333C407.611 70.7222 408.233 72.1222 408.233 73.8333C408.233 74.663 408.077 75.4926 407.766 76.3222ZM371.055 121.2C374.166 121.2 377.303 120.474 380.466 119.022C383.681 117.57 386.611 115.678 389.255 113.344C391.899 111.011 394.388 108.367 396.722 105.411C399.055 102.456 400.999 99.4741 402.555 96.4667C404.162 93.4593 405.433 90.5815 406.366 87.8333C407.299 85.0333 407.766 82.6222 407.766 80.6C407.766 79.4074 407.585 78.3963 407.222 77.5667C406.237 79.5889 404.603 81.2741 402.322 82.6222C400.04 83.9185 397.344 84.5667 394.233 84.5667C392.107 84.5667 390.292 84.2296 388.788 83.5556C385.988 86.3556 383.681 89.3889 381.866 92.6556C380.051 95.8704 379.144 98.5148 379.144 100.589C379.144 102.922 380.181 104.115 382.255 104.167C383.603 104.167 384.874 103.57 386.066 102.378C387.259 101.133 387.933 99.863 388.088 98.5667C388.14 98.4111 388.166 98.2815 388.166 98.1778C388.166 97.8148 388.244 97.6593 388.399 97.7111C388.503 97.7111 388.581 97.763 388.633 97.8667C388.633 98.0222 388.555 98.1778 388.399 98.3333C388.296 98.4889 388.244 98.5667 388.244 98.5667C388.14 99.9667 387.492 101.263 386.299 102.456C385.107 103.648 383.759 104.27 382.255 104.322H382.177C380.57 104.27 379.351 103.778 378.522 102.844C377.744 101.911 377.355 100.615 377.355 98.9556C377.355 96.5185 378.185 93.7185 379.844 90.5556C381.555 87.3407 383.785 84.4889 386.533 82C385.34 80.8074 384.822 79.2519 384.977 77.3333H385.055C384.899 79.2519 385.418 80.7815 386.611 81.9222C388.322 80.4185 390.111 79.1741 391.977 78.1889C396.125 76.0111 399.988 74.9222 403.566 74.9222C404.966 74.9222 406.159 75.2333 407.144 75.8556C407.351 75.0778 407.455 74.3259 407.455 73.6C407.455 72.0963 406.911 70.8519 405.822 69.8667C404.733 68.8815 403.125 68.3889 400.999 68.3889C397.111 68.3889 393.196 69.4 389.255 71.4222C385.366 73.4444 381.892 76.0889 378.833 79.3556C375.825 82.5704 373.103 86.0963 370.666 89.9333C368.281 93.7704 366.44 97.6074 365.144 101.444C363.899 105.281 363.277 108.73 363.277 111.789C363.277 114.693 363.899 116.974 365.144 118.633C366.44 120.344 368.411 121.2 371.055 121.2ZM406.755 76.7889C406.081 75.8037 405.096 75.3111 403.799 75.3111C399.185 75.3111 394.207 78.0074 388.866 83.4C390.214 83.9704 391.822 84.2556 393.688 84.2556C396.851 84.2556 399.599 83.5296 401.933 82.0778C404.266 80.6259 405.874 78.863 406.755 76.7889ZM450.531 67.44V68.84C448.944 68.8867 447.731 69.12 446.891 69.54C446.098 69.96 445.561 70.6367 445.281 71.57C445.001 72.5033 444.861 73.8333 444.861 75.56V117.35C444.581 117.35 444.301 117.35 444.021 117.35C443.788 117.35 443.531 117.35 443.251 117.35L413.851 71.92V108.88C413.851 110.56 413.991 111.89 414.271 112.87C414.598 113.803 415.204 114.48 416.091 114.9C417.024 115.273 418.401 115.507 420.221 115.6V117C419.381 116.907 418.284 116.86 416.931 116.86C415.578 116.813 414.294 116.79 413.081 116.79C411.914 116.79 410.724 116.813 409.511 116.86C408.344 116.86 407.364 116.907 406.571 117V115.6C408.158 115.507 409.348 115.273 410.141 114.9C410.981 114.48 411.541 113.803 411.821 112.87C412.101 111.89 412.241 110.56 412.241 108.88V74.86C412.241 73.1333 412.101 71.8733 411.821 71.08C411.541 70.24 410.981 69.68 410.141 69.4C409.348 69.0733 408.158 68.8867 406.571 68.84V67.44C407.364 67.4867 408.344 67.5333 409.511 67.58C410.724 67.6267 411.914 67.65 413.081 67.65C414.108 67.65 415.088 67.6267 416.021 67.58C416.954 67.5333 417.794 67.4867 418.541 67.44L443.251 105.52V75.56C443.251 73.8333 443.088 72.5033 442.761 71.57C442.481 70.6367 441.874 69.96 440.941 69.54C440.054 69.12 438.701 68.8867 436.881 68.84V67.44C437.721 67.4867 438.818 67.5333 440.171 67.58C441.571 67.6267 442.854 67.65 444.021 67.65C445.234 67.65 446.424 67.6267 447.591 67.58C448.804 67.5333 449.784 67.4867 450.531 67.44Z" fill="#A77E3D"/>
</svg>
