<svg viewBox="0 0 189 67" fill="none" xmlns="http://www.w3.org/2000/svg">
<path d="M19.558 0.0959998C19.4567 0.982666 19.3807 1.844 19.33 2.68C19.3047 3.516 19.292 4.14933 19.292 4.58C19.292 5.036 19.3047 5.47933 19.33 5.91C19.3553 6.31533 19.3807 6.65733 19.406 6.936H18.532C18.38 5.44133 18.1647 4.26333 17.886 3.402C17.6073 2.51533 17.126 1.89467 16.442 1.54C15.7833 1.16 14.7827 0.969998 13.44 0.969998H10.286C9.42467 0.969998 8.766 1.046 8.31 1.198C7.87933 1.32467 7.588 1.616 7.436 2.072C7.284 2.50266 7.208 3.18666 7.208 4.124V22.972C7.208 23.884 7.284 24.568 7.436 25.024C7.588 25.48 7.87933 25.784 8.31 25.936C8.766 26.0627 9.42467 26.126 10.286 26.126H13.06C14.656 26.126 15.8593 25.9107 16.67 25.48C17.506 25.0493 18.1013 24.3527 18.456 23.39C18.836 22.402 19.1147 21.072 19.292 19.4H20.166C20.09 20.084 20.052 20.996 20.052 22.136C20.052 22.6173 20.0647 23.314 20.09 24.226C20.1407 25.1127 20.2167 26.0373 20.318 27C19.026 26.9493 17.5693 26.924 15.948 26.924C14.3267 26.8987 12.8827 26.886 11.616 26.886C11.0587 26.886 10.3367 26.886 9.45 26.886C8.58867 26.886 7.65133 26.8987 6.638 26.924C5.62467 26.924 4.59867 26.9367 3.56 26.962C2.52133 26.962 1.53333 26.9747 0.596 27V26.24C1.45733 26.1893 2.10333 26.088 2.534 25.936C2.99 25.784 3.294 25.48 3.446 25.024C3.598 24.568 3.674 23.884 3.674 22.972V4.124C3.674 3.18666 3.598 2.50266 3.446 2.072C3.294 1.616 2.99 1.312 2.534 1.16C2.10333 0.982666 1.45733 0.881332 0.596 0.855999V0.0959998C1.53333 0.121333 2.52133 0.146666 3.56 0.171999C4.59867 0.171999 5.62467 0.184665 6.638 0.209998C7.65133 0.209998 8.58867 0.209998 9.45 0.209998C10.3367 0.209998 11.0587 0.209998 11.616 0.209998C12.7813 0.209998 14.0987 0.209998 15.568 0.209998C17.0627 0.184665 18.3927 0.146666 19.558 0.0959998ZM13.022 13.092C13.022 13.092 13.022 13.2187 13.022 13.472C13.022 13.7253 13.022 13.852 13.022 13.852H6.068C6.068 13.852 6.068 13.7253 6.068 13.472C6.068 13.2187 6.068 13.092 6.068 13.092H13.022ZM14.124 8.076C14.0227 9.52 13.972 10.622 13.972 11.382C13.9973 12.142 14.01 12.8387 14.01 13.472C14.01 14.1053 14.0227 14.802 14.048 15.562C14.0733 16.322 14.1367 17.424 14.238 18.868H13.364C13.2627 18.0573 13.136 17.272 12.984 16.512C12.8573 15.7267 12.5533 15.0933 12.072 14.612C11.616 14.1053 10.8307 13.852 9.716 13.852V13.092C10.552 13.092 11.1853 12.9273 11.616 12.598C12.072 12.2433 12.4013 11.8 12.604 11.268C12.8067 10.736 12.946 10.1913 13.022 9.634C13.098 9.05133 13.174 8.532 13.25 8.076H14.124ZM47.6163 0.0959998V0.855999C46.7549 0.881332 46.0963 1.008 45.6403 1.236C45.2096 1.464 44.9183 1.83133 44.7663 2.338C44.6143 2.84467 44.5383 3.56667 44.5383 4.504V27.19C44.3863 27.19 44.2343 27.19 44.0823 27.19C43.9556 27.19 43.8163 27.19 43.6643 27.19L27.7043 2.528V22.592C27.7043 23.504 27.7803 24.226 27.9323 24.758C28.1096 25.2647 28.4389 25.632 28.9203 25.86C29.4269 26.0627 30.1743 26.1893 31.1623 26.24V27C30.7063 26.9493 30.1109 26.924 29.3763 26.924C28.6416 26.8987 27.9449 26.886 27.2863 26.886C26.6529 26.886 26.0069 26.8987 25.3483 26.924C24.7149 26.924 24.1829 26.9493 23.7523 27V26.24C24.6136 26.1893 25.2596 26.0627 25.6903 25.86C26.1463 25.632 26.4503 25.2647 26.6023 24.758C26.7543 24.226 26.8303 23.504 26.8303 22.592V4.124C26.8303 3.18666 26.7543 2.50266 26.6023 2.072C26.4503 1.616 26.1463 1.312 25.6903 1.16C25.2596 0.982666 24.6136 0.881332 23.7523 0.855999V0.0959998C24.1829 0.121333 24.7149 0.146666 25.3483 0.171999C26.0069 0.197332 26.6529 0.209998 27.2863 0.209998C27.8436 0.209998 28.3756 0.197332 28.8823 0.171999C29.3889 0.146666 29.8449 0.121333 30.2503 0.0959998L43.6643 20.768V4.504C43.6643 3.56667 43.5756 2.84467 43.3983 2.338C43.2463 1.83133 42.9169 1.464 42.4103 1.236C41.9289 1.008 41.1943 0.881332 40.2063 0.855999V0.0959998C40.6623 0.121333 41.2576 0.146666 41.9923 0.171999C42.7523 0.197332 43.4489 0.209998 44.0823 0.209998C44.7409 0.209998 45.3869 0.197332 46.0203 0.171999C46.6789 0.146666 47.2109 0.121333 47.6163 0.0959998ZM48.2263 34.144V33.422C49.3663 33.3967 50.3163 33.118 51.0763 32.586C51.8617 32.054 52.4443 31.1673 52.8243 29.926C53.2297 28.71 53.4323 27.076 53.4323 25.024V4.124C53.4323 3.18666 53.3563 2.50266 53.2043 2.072C53.0523 1.616 52.7483 1.312 52.2923 1.16C51.8617 0.982666 51.2157 0.881332 50.3543 0.855999V0.0959998C50.8863 0.121333 51.583 0.146666 52.4443 0.171999C53.3057 0.197332 54.205 0.209998 55.1423 0.209998C56.0797 0.209998 56.979 0.197332 57.8403 0.171999C58.727 0.146666 59.4617 0.121333 60.0443 0.0959998V0.855999C59.183 0.881332 58.5243 0.982666 58.0683 1.16C57.6377 1.312 57.3463 1.616 57.1943 2.072C57.0423 2.50266 56.9663 3.18666 56.9663 4.124V18.032C56.9663 19.0707 56.9537 20.198 56.9283 21.414C56.903 22.63 56.8397 23.808 56.7383 24.948C56.6623 26.088 56.523 27.0887 56.3203 27.95C55.8897 29.7233 54.9777 31.1927 53.5843 32.358C52.2163 33.5487 50.4303 34.144 48.2263 34.144ZM86.9675 4.91778C87.6994 5.59333 88.0653 6.64889 88.0653 8.08444C88.0653 9.52 87.6994 11.1807 86.9675 13.0667C86.2638 14.9526 85.2364 16.8667 83.8853 18.8089C82.5623 20.723 81.0564 22.4963 79.3675 24.1289C77.6786 25.7615 75.7364 27.0985 73.5409 28.14C71.3735 29.1815 69.192 29.7022 66.9964 29.7022C65.0823 29.7022 63.6327 29.1252 62.6475 27.9711C61.6905 26.8452 61.212 25.297 61.212 23.3267C61.212 21.6096 61.5638 19.7237 62.2675 17.6689C62.9994 15.6141 64.0409 13.5733 65.392 11.5467C66.7712 9.52 68.3335 7.6763 70.0786 6.01555C71.852 4.32667 73.8927 2.97556 76.2009 1.96222C78.5372 0.920741 80.9157 0.4 83.3364 0.4C84.6031 0.4 85.5601 0.695556 86.2075 1.28667C86.8831 1.87778 87.2209 2.63778 87.2209 3.56667C87.2209 4.01704 87.1364 4.46741 86.9675 4.91778ZM67.0386 29.28C68.7275 29.28 70.4305 28.8859 72.1475 28.0978C73.8927 27.3096 75.4831 26.2822 76.9186 25.0156C78.3542 23.7489 79.7053 22.3133 80.972 20.7089C82.2386 19.1044 83.2942 17.4859 84.1386 15.8533C85.0112 14.2207 85.7009 12.6585 86.2075 11.1667C86.7142 9.64667 86.9675 8.33778 86.9675 7.24C86.9675 6.59259 86.869 6.0437 86.672 5.59333C86.1372 6.69111 85.2505 7.60592 84.012 8.33778C82.7735 9.04148 81.3097 9.39333 79.6209 9.39333C78.4668 9.39333 77.4816 9.21037 76.6653 8.84444C75.1453 10.3644 73.8927 12.0111 72.9075 13.7844C71.9223 15.5296 71.4297 16.9652 71.4297 18.0911C71.4297 19.3578 71.9927 20.0052 73.1186 20.0333C73.8505 20.0333 74.5401 19.7096 75.1875 19.0622C75.8349 18.3867 76.2009 17.697 76.2853 16.9933C76.3135 16.9089 76.3275 16.8385 76.3275 16.7822C76.3275 16.5852 76.3697 16.5007 76.4542 16.5289C76.5105 16.5289 76.5527 16.557 76.5809 16.6133C76.5809 16.6978 76.5386 16.7822 76.4542 16.8667C76.3979 16.9511 76.3697 16.9933 76.3697 16.9933C76.3135 17.7533 75.9616 18.457 75.3142 19.1044C74.6668 19.7519 73.9349 20.0896 73.1186 20.1178H73.0764C72.2038 20.0896 71.5423 19.8222 71.092 19.3156C70.6697 18.8089 70.4586 18.1052 70.4586 17.2044C70.4586 15.8815 70.909 14.3615 71.8097 12.6444C72.7386 10.8993 73.949 9.35111 75.4409 8C74.7935 7.35259 74.512 6.50815 74.5964 5.46667H74.6386C74.5542 6.50815 74.8357 7.33852 75.4831 7.95778C76.412 7.14148 77.3831 6.46593 78.3964 5.93111C80.6483 4.74889 82.7453 4.15778 84.6875 4.15778C85.4475 4.15778 86.0949 4.32667 86.6297 4.66444C86.7423 4.24222 86.7986 3.83407 86.7986 3.44C86.7986 2.6237 86.5031 1.94815 85.912 1.41333C85.3209 0.878518 84.4483 0.61111 83.2942 0.61111C81.1831 0.61111 79.0579 1.16 76.9186 2.25778C74.8075 3.35556 72.9216 4.79111 71.2609 6.56444C69.6283 8.30963 68.1505 10.2237 66.8275 12.3067C65.5327 14.3896 64.5335 16.4726 63.8297 18.5556C63.1542 20.6385 62.8164 22.5104 62.8164 24.1711C62.8164 25.7474 63.1542 26.9859 63.8297 27.8867C64.5335 28.8156 65.6031 29.28 67.0386 29.28ZM86.4186 5.17111C86.0527 4.6363 85.5179 4.36889 84.8142 4.36889C82.309 4.36889 79.6068 5.83259 76.7075 8.76C77.4394 9.06963 78.312 9.22444 79.3253 9.22444C81.0423 9.22444 82.5342 8.83037 83.8009 8.04222C85.0675 7.25407 85.9401 6.29704 86.4186 5.17111ZM107.067 0.0959998V0.855999C106.585 0.957333 106.104 1.274 105.623 1.806C105.141 2.31267 104.609 3.12333 104.027 4.238L96.3507 19.438H95.7047L86.8127 3.022C86.306 2.08467 85.8753 1.502 85.5207 1.274C85.1913 1.02067 84.8873 0.893999 84.6087 0.893999V0.0959998C85.1153 0.121333 85.6347 0.146666 86.1667 0.171999C86.724 0.197332 87.3193 0.209998 87.9527 0.209998C88.7887 0.209998 89.6753 0.209998 90.6127 0.209998C91.5753 0.184665 92.462 0.146666 93.2727 0.0959998V0.893999C92.6393 0.893999 92.082 0.969998 91.6007 1.122C91.1193 1.274 90.8027 1.55267 90.6507 1.958C90.4987 2.36333 90.6127 2.93333 90.9927 3.668L97.4147 15.98L97.1107 16.208L102.165 6.138C102.874 4.74467 103.216 3.668 103.191 2.908C103.191 2.148 102.899 1.62867 102.317 1.35C101.734 1.046 100.911 0.881332 99.8467 0.855999V0.0959998C100.581 0.121333 101.329 0.146666 102.089 0.171999C102.849 0.197332 103.558 0.209998 104.217 0.209998C104.875 0.209998 105.42 0.197332 105.851 0.171999C106.281 0.146666 106.687 0.121333 107.067 0.0959998ZM98.0607 15.448V22.972C98.0607 23.884 98.1367 24.568 98.2887 25.024C98.4407 25.48 98.732 25.784 99.1627 25.936C99.6187 26.088 100.277 26.1893 101.139 26.24V27C100.556 26.9493 99.8213 26.924 98.9347 26.924C98.0733 26.8987 97.1993 26.886 96.3127 26.886C95.3247 26.886 94.4 26.8987 93.5387 26.924C92.6773 26.924 91.9807 26.9493 91.4487 27V26.24C92.31 26.1893 92.956 26.088 93.3867 25.936C93.8427 25.784 94.1467 25.48 94.2987 25.024C94.4507 24.568 94.5267 23.884 94.5267 22.972V15.182L96.5787 17.538L98.0607 15.448ZM136.98 0.0959998C136.879 1.05867 136.803 1.996 136.752 2.908C136.727 3.79467 136.714 4.47867 136.714 4.96C136.714 5.568 136.727 6.138 136.752 6.67C136.778 7.202 136.803 7.67067 136.828 8.076H135.954C135.777 6.30267 135.536 4.90933 135.232 3.896C134.928 2.85733 134.396 2.11 133.636 1.654C132.876 1.198 131.698 0.969998 130.102 0.969998H128.05V22.592C128.05 23.6053 128.139 24.3653 128.316 24.872C128.519 25.3787 128.899 25.7207 129.456 25.898C130.014 26.0753 130.824 26.1893 131.888 26.24V27C131.23 26.9493 130.394 26.924 129.38 26.924C128.367 26.8987 127.341 26.886 126.302 26.886C125.162 26.886 124.086 26.8987 123.072 26.924C122.084 26.924 121.286 26.9493 120.678 27V26.24C121.742 26.1893 122.553 26.0753 123.11 25.898C123.668 25.7207 124.035 25.3787 124.212 24.872C124.415 24.3653 124.516 23.6053 124.516 22.592V0.969998H122.464C120.894 0.969998 119.716 1.198 118.93 1.654C118.17 2.11 117.638 2.85733 117.334 3.896C117.03 4.90933 116.79 6.30267 116.612 8.076H115.738C115.789 7.67067 115.814 7.202 115.814 6.67C115.84 6.138 115.852 5.568 115.852 4.96C115.852 4.47867 115.827 3.79467 115.776 2.908C115.751 1.996 115.688 1.05867 115.586 0.0959998C116.65 0.121333 117.803 0.146666 119.044 0.171999C120.311 0.197332 121.578 0.209998 122.844 0.209998C124.111 0.209998 125.264 0.209998 126.302 0.209998C127.341 0.209998 128.481 0.209998 129.722 0.209998C130.989 0.209998 132.256 0.197332 133.522 0.171999C134.789 0.146666 135.942 0.121333 136.98 0.0959998ZM155.566 27V26.24C156.427 26.1893 157.073 26.088 157.504 25.936C157.96 25.784 158.264 25.48 158.416 25.024C158.568 24.568 158.644 23.884 158.644 22.972V4.124C158.644 3.18666 158.568 2.50266 158.416 2.072C158.264 1.616 157.96 1.312 157.504 1.16C157.073 0.982666 156.427 0.881332 155.566 0.855999V0.0959998C156.149 0.121333 156.883 0.146666 157.77 0.171999C158.657 0.197332 159.531 0.209998 160.392 0.209998C161.38 0.209998 162.305 0.197332 163.166 0.171999C164.027 0.146666 164.724 0.121333 165.256 0.0959998V0.855999C164.395 0.881332 163.736 0.982666 163.28 1.16C162.849 1.312 162.558 1.616 162.406 2.072C162.254 2.50266 162.178 3.18666 162.178 4.124V22.972C162.178 23.884 162.254 24.568 162.406 25.024C162.558 25.48 162.849 25.784 163.28 25.936C163.736 26.088 164.395 26.1893 165.256 26.24V27C164.724 26.9493 164.027 26.924 163.166 26.924C162.305 26.8987 161.38 26.886 160.392 26.886C159.531 26.886 158.657 26.8987 157.77 26.924C156.883 26.924 156.149 26.9493 155.566 27ZM139.682 27V26.24C140.543 26.1893 141.189 26.088 141.62 25.936C142.076 25.784 142.38 25.48 142.532 25.024C142.684 24.568 142.76 23.884 142.76 22.972V4.124C142.76 3.18666 142.684 2.50266 142.532 2.072C142.38 1.616 142.076 1.312 141.62 1.16C141.189 0.982666 140.543 0.881332 139.682 0.855999V0.0959998C140.214 0.121333 140.911 0.146666 141.772 0.171999C142.633 0.197332 143.558 0.209998 144.546 0.209998C145.433 0.209998 146.307 0.197332 147.168 0.171999C148.055 0.146666 148.789 0.121333 149.372 0.0959998V0.855999C148.511 0.881332 147.852 0.982666 147.396 1.16C146.965 1.312 146.674 1.616 146.522 2.072C146.37 2.50266 146.294 3.18666 146.294 4.124V22.972C146.294 23.884 146.37 24.568 146.522 25.024C146.674 25.48 146.965 25.784 147.396 25.936C147.852 26.088 148.511 26.1893 149.372 26.24V27C148.789 26.9493 148.055 26.924 147.168 26.924C146.307 26.8987 145.433 26.886 144.546 26.886C143.558 26.886 142.633 26.8987 141.772 26.924C140.911 26.924 140.214 26.9493 139.682 27ZM144.964 13.852V13.092H159.974V13.852H144.964ZM187.404 0.0959998C187.302 0.982666 187.226 1.844 187.176 2.68C187.15 3.516 187.138 4.14933 187.138 4.58C187.138 5.036 187.15 5.47933 187.176 5.91C187.201 6.31533 187.226 6.65733 187.252 6.936H186.378C186.226 5.44133 186.01 4.26333 185.732 3.402C185.453 2.51533 184.972 1.89467 184.288 1.54C183.629 1.16 182.628 0.969998 181.286 0.969998H178.132C177.27 0.969998 176.612 1.046 176.156 1.198C175.725 1.32467 175.434 1.616 175.282 2.072C175.13 2.50266 175.054 3.18666 175.054 4.124V22.972C175.054 23.884 175.13 24.568 175.282 25.024C175.434 25.48 175.725 25.784 176.156 25.936C176.612 26.0627 177.27 26.126 178.132 26.126H180.906C182.502 26.126 183.705 25.9107 184.516 25.48C185.352 25.0493 185.947 24.3527 186.302 23.39C186.682 22.402 186.96 21.072 187.138 19.4H188.012C187.936 20.084 187.898 20.996 187.898 22.136C187.898 22.6173 187.91 23.314 187.936 24.226C187.986 25.1127 188.062 26.0373 188.164 27C186.872 26.9493 185.415 26.924 183.794 26.924C182.172 26.8987 180.728 26.886 179.462 26.886C178.904 26.886 178.182 26.886 177.296 26.886C176.434 26.886 175.497 26.8987 174.484 26.924C173.47 26.924 172.444 26.9367 171.406 26.962C170.367 26.962 169.379 26.9747 168.442 27V26.24C169.303 26.1893 169.949 26.088 170.38 25.936C170.836 25.784 171.14 25.48 171.292 25.024C171.444 24.568 171.52 23.884 171.52 22.972V4.124C171.52 3.18666 171.444 2.50266 171.292 2.072C171.14 1.616 170.836 1.312 170.38 1.16C169.949 0.982666 169.303 0.881332 168.442 0.855999V0.0959998C169.379 0.121333 170.367 0.146666 171.406 0.171999C172.444 0.171999 173.47 0.184665 174.484 0.209998C175.497 0.209998 176.434 0.209998 177.296 0.209998C178.182 0.209998 178.904 0.209998 179.462 0.209998C180.627 0.209998 181.944 0.209998 183.414 0.209998C184.908 0.184665 186.238 0.146666 187.404 0.0959998ZM180.868 13.092C180.868 13.092 180.868 13.2187 180.868 13.472C180.868 13.7253 180.868 13.852 180.868 13.852H173.914C173.914 13.852 173.914 13.7253 173.914 13.472C173.914 13.2187 173.914 13.092 173.914 13.092H180.868ZM181.97 8.076C181.868 9.52 181.818 10.622 181.818 11.382C181.843 12.142 181.856 12.8387 181.856 13.472C181.856 14.1053 181.868 14.802 181.894 15.562C181.919 16.322 181.982 17.424 182.084 18.868H181.21C181.108 18.0573 180.982 17.272 180.83 16.512C180.703 15.7267 180.399 15.0933 179.918 14.612C179.462 14.1053 178.676 13.852 177.562 13.852V13.092C178.398 13.092 179.031 12.9273 179.462 12.598C179.918 12.2433 180.247 11.8 180.45 11.268C180.652 10.736 180.792 10.1913 180.868 9.634C180.944 9.05133 181.02 8.532 181.096 8.076H181.97ZM30.2867 36.5844C31.6659 36.5844 32.7356 36.8519 33.4956 37.3867C34.2837 37.9215 34.6778 38.6674 34.6778 39.6244C34.6778 40.6659 34.1852 41.8763 33.2 43.2556C32.2148 44.6067 30.7511 46.0281 28.8089 47.52C26.557 49.237 23.9393 50.6163 20.9556 51.6578C18 52.6993 14.8052 53.22 11.3711 53.22C10.2452 53.22 9.2037 53.1215 8.24667 52.9244C6.61407 56.1615 5.79778 59.1452 5.79778 61.8756C5.79778 63.3956 6.13556 64.5778 6.81111 65.4222C7.48667 66.2948 8.51407 66.7311 9.89333 66.7311C11.16 66.7311 12.3422 66.5059 13.44 66.0556C14.5659 65.6333 15.4948 65.0704 16.2267 64.3667C16.9867 63.663 17.6341 62.8889 18.1689 62.0444C18.7037 61.1719 19.0978 60.3274 19.3511 59.5111C19.6044 58.6948 19.7311 57.9348 19.7311 57.2311C19.7311 56.5556 19.5904 56.0489 19.3089 55.7111C19.0274 55.3733 18.6474 55.2044 18.1689 55.2044C17.4933 55.2044 16.8178 55.5141 16.1422 56.1333C15.4667 56.7244 15.0163 57.4844 14.7911 58.4133H14.6644C14.8615 57.3719 15.3822 56.5274 16.2267 55.88C17.0711 55.2326 17.9578 54.9089 18.8867 54.9089C19.7311 54.9089 20.3644 55.1341 20.7867 55.5844C21.237 56.0067 21.4622 56.5978 21.4622 57.3578C21.4622 58.2304 21.1667 59.2156 20.5756 60.3133C19.9844 61.4111 19.1963 62.4526 18.2111 63.4378C17.2259 64.423 15.9874 65.2533 14.4956 65.9289C13.0037 66.6044 11.4556 66.9422 9.85111 66.9422C7.74 66.9422 6.1637 66.4074 5.12222 65.3378C4.08074 64.2681 3.56 62.8185 3.56 60.9889C3.56 58.2867 4.48889 55.3874 6.34667 52.2911C4.48889 51.3904 3.56 50.1237 3.56 48.4911C3.56 47.0274 4.33407 45.7326 5.88222 44.6067C7.45852 43.4807 9.55556 42.9178 12.1733 42.9178C12.9896 42.9178 13.82 42.9741 14.6644 43.0867C17.0289 41.257 19.52 39.7652 22.1378 38.6111C24.1081 37.7667 25.9237 37.1896 27.5844 36.88C28.5696 36.683 29.4704 36.5844 30.2867 36.5844ZM33.3267 40.3844C33.58 39.8215 33.7067 39.3148 33.7067 38.8644C33.7067 37.5133 32.6793 36.8378 30.6244 36.8378C28.7385 36.8378 26.5007 37.3304 23.9111 38.3156C21.04 39.4415 18.3378 41.1022 15.8044 43.2978C17.6059 43.6919 19.2385 44.3252 20.7022 45.1978C22.1941 46.0704 23.3622 47.1259 24.2067 48.3644L24.1644 48.4067C23.2919 47.1681 22.1096 46.1267 20.6178 45.2822C19.1259 44.4096 17.4652 43.7904 15.6356 43.4244C12.5956 46.1267 10.1607 49.237 8.33111 52.7556C9.26 52.9807 10.2874 53.0933 11.4133 53.0933C14.2844 53.0933 17.1415 52.4881 19.9844 51.2778C22.8556 50.0674 25.4452 48.5333 27.7533 46.6756C30.6807 44.3111 32.5385 42.2141 33.3267 40.3844ZM3.81333 48.7444C3.81333 50.18 4.68593 51.3059 6.43111 52.1222C8.40148 48.8289 11.0615 45.8733 14.4111 43.2556C13.7074 43.1711 13.0178 43.1289 12.3422 43.1289C9.75259 43.1289 7.6837 43.72 6.13556 44.9022C4.58741 46.0844 3.81333 47.3652 3.81333 48.7444ZM39.5282 38.096V38.856C38.6669 38.8813 38.0082 38.9827 37.5522 39.16C37.1215 39.312 36.8302 39.616 36.6782 40.072C36.5262 40.5027 36.4502 41.1867 36.4502 42.124V60.972C36.4502 61.884 36.5262 62.568 36.6782 63.024C36.8302 63.48 37.1215 63.784 37.5522 63.936C38.0082 64.0627 38.6669 64.126 39.5282 64.126H42.3022C43.4929 64.126 44.4555 63.9993 45.1902 63.746C45.9502 63.4927 46.5455 63.1 46.9762 62.568C47.4322 62.0107 47.7742 61.276 48.0022 60.364C48.2302 59.452 48.4075 58.3373 48.5342 57.02H49.4082C49.3322 57.8053 49.2942 58.844 49.2942 60.136C49.2942 60.6173 49.3069 61.314 49.3322 62.226C49.3829 63.1127 49.4589 64.0373 49.5602 65C48.2682 64.9493 46.8115 64.924 45.1902 64.924C43.5689 64.8987 42.1249 64.886 40.8582 64.886C40.3009 64.886 39.5789 64.886 38.6922 64.886C37.8309 64.886 36.8935 64.8987 35.8802 64.924C34.8669 64.924 33.8409 64.9367 32.8022 64.962C31.7635 64.962 30.7755 64.9747 29.8382 65V64.24C30.6995 64.1893 31.3455 64.088 31.7762 63.936C32.2322 63.784 32.5362 63.48 32.6882 63.024C32.8402 62.568 32.9162 61.884 32.9162 60.972V42.124C32.9162 41.1867 32.8402 40.5027 32.6882 40.072C32.5362 39.616 32.2322 39.312 31.7762 39.16C31.3455 38.9827 30.6995 38.8813 29.8382 38.856V38.096C30.3702 38.1213 31.0669 38.1467 31.9282 38.172C32.7895 38.1973 33.7142 38.21 34.7022 38.21C35.5889 38.21 36.4629 38.1973 37.3242 38.172C38.2109 38.1467 38.9455 38.1213 39.5282 38.096ZM62.856 37.906L72.128 61.808C72.508 62.7707 72.9387 63.4167 73.42 63.746C73.9014 64.05 74.3447 64.2147 74.75 64.24V65C74.2434 64.9493 73.6227 64.924 72.888 64.924C72.1534 64.8987 71.4187 64.886 70.684 64.886C69.696 64.886 68.7714 64.8987 67.91 64.924C67.0487 64.924 66.352 64.9493 65.82 65V64.24C67.112 64.1893 67.9354 63.974 68.29 63.594C68.6447 63.1887 68.5687 62.34 68.062 61.048L60.994 42.162L61.602 41.668L54.99 58.844C54.5847 59.8573 54.344 60.7187 54.268 61.428C54.192 62.112 54.2554 62.6567 54.458 63.062C54.686 63.4673 55.0534 63.7587 55.56 63.936C56.092 64.1133 56.7507 64.2147 57.536 64.24V65C56.8267 64.9493 56.0794 64.924 55.294 64.924C54.534 64.8987 53.8247 64.886 53.166 64.886C52.5327 64.886 51.988 64.8987 51.532 64.924C51.1014 64.924 50.696 64.9493 50.316 65V64.24C50.8227 64.1133 51.342 63.822 51.874 63.366C52.406 62.8847 52.8874 62.074 53.318 60.934L62.248 37.906C62.3494 37.906 62.4507 37.906 62.552 37.906C62.6534 37.906 62.7547 37.906 62.856 37.906ZM67.492 54.056V54.816H56.168L56.548 54.056H67.492ZM84.2456 37.678C85.5122 37.678 86.4749 37.83 87.1336 38.134C87.7922 38.4127 88.3749 38.7293 88.8816 39.084C89.1856 39.2613 89.4262 39.4007 89.6036 39.502C89.8062 39.578 89.9962 39.616 90.1736 39.616C90.4269 39.616 90.6042 39.4767 90.7056 39.198C90.8322 38.9193 90.9336 38.5013 91.0096 37.944H91.8836C91.8582 38.3747 91.8202 38.894 91.7696 39.502C91.7442 40.0847 91.7189 40.87 91.6936 41.858C91.6936 42.8207 91.6936 44.1 91.6936 45.696H90.8196C90.7436 44.48 90.4776 43.3147 90.0216 42.2C89.5656 41.0853 88.8942 40.1733 88.0076 39.464C87.1462 38.7547 86.0062 38.4 84.5876 38.4C83.2449 38.4 82.1302 38.8053 81.2436 39.616C80.3822 40.4267 79.9516 41.4907 79.9516 42.808C79.9516 43.948 80.2429 44.9107 80.8256 45.696C81.4082 46.456 82.1809 47.1527 83.1436 47.786C84.1316 48.394 85.1956 49.0527 86.3356 49.762C87.6529 50.5727 88.8182 51.3833 89.8316 52.194C90.8702 52.9793 91.6809 53.8533 92.2636 54.816C92.8716 55.7787 93.1756 56.944 93.1756 58.312C93.1756 59.9333 92.8082 61.276 92.0736 62.34C91.3389 63.404 90.3636 64.202 89.1476 64.734C87.9316 65.266 86.5889 65.532 85.1196 65.532C83.7769 65.532 82.7129 65.38 81.9276 65.076C81.1422 64.772 80.4709 64.4553 79.9136 64.126C79.3562 63.7713 78.9256 63.594 78.6216 63.594C78.3682 63.594 78.1782 63.7333 78.0516 64.012C77.9502 64.2907 77.8616 64.7087 77.7856 65.266H76.9116C76.9622 64.734 76.9876 64.1133 76.9876 63.404C77.0129 62.6693 77.0256 61.7193 77.0256 60.554C77.0509 59.3887 77.0636 57.9193 77.0636 56.146H77.9376C78.0389 57.666 78.3176 59.0847 78.7736 60.402C79.2549 61.7193 79.9769 62.7833 80.9396 63.594C81.9276 64.3793 83.2322 64.772 84.8536 64.772C85.6896 64.772 86.4749 64.6073 87.2096 64.278C87.9696 63.9233 88.5902 63.3787 89.0716 62.644C89.5529 61.884 89.7936 60.9087 89.7936 59.718C89.7936 58.6793 89.5402 57.78 89.0336 57.02C88.5522 56.2347 87.8682 55.5127 86.9816 54.854C86.0949 54.17 85.0562 53.4733 83.8656 52.764C82.6749 52.0293 81.5602 51.282 80.5216 50.522C79.4829 49.762 78.6469 48.888 78.0136 47.9C77.4056 46.8867 77.1016 45.6707 77.1016 44.252C77.1016 42.7573 77.4309 41.5287 78.0896 40.566C78.7736 39.578 79.6602 38.856 80.7496 38.4C81.8389 37.9187 83.0042 37.678 84.2456 37.678ZM104.767 37.678C106.034 37.678 106.996 37.83 107.655 38.134C108.314 38.4127 108.896 38.7293 109.403 39.084C109.707 39.2613 109.948 39.4007 110.125 39.502C110.328 39.578 110.518 39.616 110.695 39.616C110.948 39.616 111.126 39.4767 111.227 39.198C111.354 38.9193 111.455 38.5013 111.531 37.944H112.405C112.38 38.3747 112.342 38.894 112.291 39.502C112.266 40.0847 112.24 40.87 112.215 41.858C112.215 42.8207 112.215 44.1 112.215 45.696H111.341C111.265 44.48 110.999 43.3147 110.543 42.2C110.087 41.0853 109.416 40.1733 108.529 39.464C107.668 38.7547 106.528 38.4 105.109 38.4C103.766 38.4 102.652 38.8053 101.765 39.616C100.904 40.4267 100.473 41.4907 100.473 42.808C100.473 43.948 100.764 44.9107 101.347 45.696C101.93 46.456 102.702 47.1527 103.665 47.786C104.653 48.394 105.717 49.0527 106.857 49.762C108.174 50.5727 109.34 51.3833 110.353 52.194C111.392 52.9793 112.202 53.8533 112.785 54.816C113.393 55.7787 113.697 56.944 113.697 58.312C113.697 59.9333 113.33 61.276 112.595 62.34C111.86 63.404 110.885 64.202 109.669 64.734C108.453 65.266 107.11 65.532 105.641 65.532C104.298 65.532 103.234 65.38 102.449 65.076C101.664 64.772 100.992 64.4553 100.435 64.126C99.8777 63.7713 99.4471 63.594 99.1431 63.594C98.8897 63.594 98.6997 63.7333 98.5731 64.012C98.4717 64.2907 98.3831 64.7087 98.3071 65.266H97.4331C97.4837 64.734 97.5091 64.1133 97.5091 63.404C97.5344 62.6693 97.5471 61.7193 97.5471 60.554C97.5724 59.3887 97.5851 57.9193 97.5851 56.146H98.4591C98.5604 57.666 98.8391 59.0847 99.2951 60.402C99.7764 61.7193 100.498 62.7833 101.461 63.594C102.449 64.3793 103.754 64.772 105.375 64.772C106.211 64.772 106.996 64.6073 107.731 64.278C108.491 63.9233 109.112 63.3787 109.593 62.644C110.074 61.884 110.315 60.9087 110.315 59.718C110.315 58.6793 110.062 57.78 109.555 57.02C109.074 56.2347 108.39 55.5127 107.503 54.854C106.616 54.17 105.578 53.4733 104.387 52.764C103.196 52.0293 102.082 51.282 101.043 50.522C100.004 49.762 99.1684 48.888 98.5351 47.9C97.9271 46.8867 97.6231 45.6707 97.6231 44.252C97.6231 42.7573 97.9524 41.5287 98.6111 40.566C99.2951 39.578 100.182 38.856 101.271 38.4C102.36 37.9187 103.526 37.678 104.767 37.678ZM126.847 38.096V38.856C125.985 38.8813 125.327 38.9827 124.871 39.16C124.44 39.312 124.149 39.616 123.997 40.072C123.845 40.5027 123.769 41.1867 123.769 42.124V60.972C123.769 61.884 123.845 62.568 123.997 63.024C124.149 63.48 124.44 63.784 124.871 63.936C125.327 64.088 125.985 64.1893 126.847 64.24V65C126.264 64.9493 125.529 64.924 124.643 64.924C123.781 64.8987 122.907 64.886 122.021 64.886C121.033 64.886 120.108 64.8987 119.247 64.924C118.385 64.924 117.689 64.9493 117.157 65V64.24C118.018 64.1893 118.664 64.088 119.095 63.936C119.551 63.784 119.855 63.48 120.007 63.024C120.159 62.568 120.235 61.884 120.235 60.972V42.124C120.235 41.1867 120.159 40.5027 120.007 40.072C119.855 39.616 119.551 39.312 119.095 39.16C118.664 38.9827 118.018 38.8813 117.157 38.856V38.096C117.689 38.1213 118.385 38.1467 119.247 38.172C120.108 38.1973 121.033 38.21 122.021 38.21C122.907 38.21 123.781 38.1973 124.643 38.172C125.529 38.1467 126.264 38.1213 126.847 38.096ZM142.239 37.564C143.911 37.564 145.279 37.8173 146.343 38.324C147.432 38.8053 148.395 39.3753 149.231 40.034C149.737 40.414 150.117 40.4647 150.371 40.186C150.649 39.882 150.839 39.1853 150.941 38.096H151.815C151.764 39.0333 151.726 40.1733 151.701 41.516C151.675 42.8587 151.663 44.632 151.663 46.836H150.789C150.611 45.7467 150.447 44.8853 150.295 44.252C150.143 43.5933 149.953 43.036 149.725 42.58C149.522 42.124 149.243 41.668 148.889 41.212C148.103 40.1733 147.115 39.426 145.925 38.97C144.734 38.4887 143.48 38.248 142.163 38.248C140.921 38.248 139.794 38.5647 138.781 39.198C137.793 39.806 136.931 40.6927 136.197 41.858C135.487 43.0233 134.93 44.4293 134.525 46.076C134.145 47.7227 133.955 49.572 133.955 51.624C133.955 53.752 134.17 55.6393 134.601 57.286C135.031 58.9073 135.627 60.2753 136.387 61.39C137.172 62.5047 138.084 63.3533 139.123 63.936C140.187 64.4933 141.327 64.772 142.543 64.772C143.683 64.772 144.873 64.544 146.115 64.088C147.356 63.632 148.331 62.8973 149.041 61.884C149.598 61.1493 149.978 60.3513 150.181 59.49C150.409 58.6287 150.611 57.4253 150.789 55.88H151.663C151.663 58.1853 151.675 60.0473 151.701 61.466C151.726 62.8593 151.764 64.0373 151.815 65H150.941C150.839 63.9107 150.662 63.2267 150.409 62.948C150.181 62.6693 149.788 62.7073 149.231 63.062C148.293 63.7207 147.293 64.3033 146.229 64.81C145.19 65.2913 143.847 65.532 142.201 65.532C139.794 65.532 137.679 64.9873 135.855 63.898C134.056 62.8087 132.65 61.238 131.637 59.186C130.649 57.134 130.155 54.664 130.155 51.776C130.155 48.9387 130.674 46.456 131.713 44.328C132.751 42.2 134.17 40.5407 135.969 39.35C137.793 38.1593 139.883 37.564 142.239 37.564Z" fill="#161616"/>
</svg>
