<svg viewBox="0 0 233 124" fill="none" xmlns="http://www.w3.org/2000/svg">
<path d="M51.6722 0.264C51.5602 1.244 51.4762 2.196 51.4202 3.12C51.3922 4.044 51.3782 4.744 51.3782 5.22C51.3782 5.724 51.3922 6.214 51.4202 6.69C51.4482 7.138 51.4762 7.516 51.5042 7.824H50.5382C50.3702 6.172 50.1322 4.87 49.8242 3.918C49.5162 2.938 48.9842 2.252 48.2282 1.86C47.5002 1.44 46.3942 1.23 44.9102 1.23H41.4242C40.4722 1.23 39.7442 1.314 39.2402 1.482C38.7642 1.622 38.4422 1.944 38.2742 2.448C38.1062 2.924 38.0222 3.68 38.0222 4.716V25.548C38.0222 26.556 38.1062 27.312 38.2742 27.816C38.4422 28.32 38.7642 28.656 39.2402 28.824C39.7442 28.964 40.4722 29.034 41.4242 29.034H44.4902C46.2542 29.034 47.5842 28.796 48.4802 28.32C49.4042 27.844 50.0622 27.074 50.4542 26.01C50.8742 24.918 51.1822 23.448 51.3782 21.6H52.3442C52.2602 22.356 52.2182 23.364 52.2182 24.624C52.2182 25.156 52.2322 25.926 52.2602 26.934C52.3162 27.914 52.4002 28.936 52.5122 30C51.0842 29.944 49.4742 29.916 47.6822 29.916C45.8902 29.888 44.2942 29.874 42.8942 29.874C42.0542 29.874 40.9342 29.874 39.5342 29.874C38.1622 29.874 36.6922 29.888 35.1242 29.916C33.5562 29.916 32.0862 29.944 30.7142 30V29.16C31.6662 29.104 32.3802 28.992 32.8562 28.824C33.3602 28.656 33.6962 28.32 33.8642 27.816C34.0322 27.312 34.1162 26.556 34.1162 25.548V4.716C34.1162 3.68 34.0322 2.924 33.8642 2.448C33.6962 1.944 33.3602 1.608 32.8562 1.44C32.3802 1.244 31.6662 1.132 30.7142 1.104V0.264C32.0862 0.291999 33.5562 0.319999 35.1242 0.347999C36.6922 0.375998 38.1622 0.389998 39.5342 0.389998C40.9342 0.389998 42.0542 0.389998 42.8942 0.389998C44.1822 0.389998 45.6382 0.389998 47.2622 0.389998C48.9142 0.361999 50.3842 0.319999 51.6722 0.264ZM44.4482 14.628C44.4482 14.628 44.4482 14.768 44.4482 15.048C44.4482 15.328 44.4482 15.468 44.4482 15.468H36.7622C36.7622 15.468 36.7622 15.328 36.7622 15.048C36.7622 14.768 36.7622 14.628 36.7622 14.628H44.4482ZM45.6662 9.084C45.5542 10.68 45.4982 11.898 45.4982 12.738C45.5262 13.578 45.5402 14.348 45.5402 15.048C45.5402 15.748 45.5542 16.518 45.5822 17.358C45.6102 18.198 45.6802 19.416 45.7922 21.012H44.8262C44.7142 20.116 44.5742 19.248 44.4062 18.408C44.2662 17.54 43.9302 16.84 43.3982 16.308C42.8942 15.748 42.0262 15.468 40.7942 15.468V14.628C42.0262 14.628 42.8802 14.306 43.3562 13.662C43.8602 13.018 44.1822 12.262 44.3222 11.394C44.4622 10.526 44.5882 9.756 44.7002 9.084H45.6662ZM64.7919 0.264V1.146C63.3919 1.146 62.5379 1.3 62.2299 1.608C61.9219 1.888 61.9639 2.35 62.3559 2.994L78.0639 27.018C78.5959 27.83 79.0439 28.376 79.4079 28.656C79.7719 28.908 80.2619 29.062 80.8779 29.118V30C80.5139 29.972 79.9959 29.944 79.3239 29.916C78.6799 29.86 77.9939 29.832 77.2659 29.832C76.1459 29.832 75.0119 29.86 73.8639 29.916C72.7439 29.944 71.9039 29.972 71.3439 30V29.118C72.7439 29.118 73.6399 29.034 74.0319 28.866C74.4239 28.698 74.4239 28.306 74.0319 27.69L58.0719 3.246C57.5399 2.434 57.0919 1.888 56.7279 1.608C56.3919 1.328 55.9019 1.174 55.2579 1.146V0.264C55.6219 0.291999 56.1399 0.333999 56.8119 0.389998C57.4839 0.417998 58.1699 0.431998 58.8699 0.431998C60.0179 0.431998 61.0959 0.417998 62.1039 0.389998C63.1119 0.333999 64.0079 0.291999 64.7919 0.264ZM67.1019 14.67C67.1019 14.67 67.1579 14.852 67.2699 15.216C67.4099 15.58 67.4799 15.762 67.4799 15.762L62.3139 23.448C61.3059 24.96 60.7739 26.122 60.7179 26.934C60.6899 27.746 61.0119 28.32 61.6839 28.656C62.3559 28.964 63.2799 29.132 64.4559 29.16V30C63.9239 29.972 63.3079 29.958 62.6079 29.958C61.9079 29.93 61.2219 29.916 60.5499 29.916C59.8779 29.888 59.2899 29.874 58.7859 29.874C57.2459 29.874 56.0559 29.916 55.2159 30V29.16C56.0839 29.02 56.8959 28.628 57.6519 27.984C58.4079 27.34 59.1779 26.444 59.9619 25.296L67.1019 14.67ZM79.9959 0.264V1.104C79.1279 1.216 78.3159 1.608 77.5599 2.28C76.8039 2.924 76.0339 3.82 75.2499 4.968L68.4879 15.048C68.4879 15.048 68.4459 14.866 68.3619 14.502C68.2779 14.138 68.2359 13.956 68.2359 13.956L73.0239 6.816C74.5359 4.548 75.1099 3.036 74.7459 2.28C74.4099 1.524 73.3599 1.132 71.5959 1.104V0.264C72.4079 0.291999 73.2339 0.319999 74.0739 0.347999C74.9139 0.375998 75.6979 0.389998 76.4259 0.389998C77.9659 0.389998 79.1559 0.347999 79.9959 0.264ZM82.9271 0.264C83.5151 0.291999 84.2851 0.319999 85.2371 0.347999C86.1891 0.375998 87.1271 0.389998 88.0511 0.389998C89.3671 0.389998 90.6271 0.375998 91.8311 0.347999C93.0351 0.319999 93.8891 0.305999 94.3931 0.305999C97.7811 0.305999 100.315 1.076 101.995 2.616C103.675 4.156 104.515 6.144 104.515 8.58C104.515 9.588 104.347 10.652 104.011 11.772C103.675 12.864 103.087 13.886 102.247 14.838C101.435 15.762 100.315 16.518 98.8871 17.106C97.4591 17.694 95.6531 17.988 93.4691 17.988H89.4371V17.148H93.0491C95.0371 17.148 96.5491 16.77 97.5851 16.014C98.6491 15.258 99.3631 14.264 99.7271 13.032C100.119 11.8 100.315 10.47 100.315 9.042C100.315 6.382 99.7831 4.394 98.7191 3.078C97.6831 1.762 95.8911 1.104 93.3431 1.104C92.0551 1.104 91.2151 1.342 90.8231 1.818C90.4311 2.294 90.2351 3.26 90.2351 4.716V25.548C90.2351 26.556 90.3331 27.312 90.5291 27.816C90.7531 28.32 91.1731 28.656 91.7891 28.824C92.4051 28.992 93.3011 29.104 94.4771 29.16V30C93.7491 29.944 92.8251 29.916 91.7051 29.916C90.5851 29.888 89.4511 29.874 88.3031 29.874C87.2111 29.874 86.1891 29.888 85.2371 29.916C84.2851 29.916 83.5151 29.944 82.9271 30V29.16C83.8791 29.104 84.5931 28.992 85.0691 28.824C85.5731 28.656 85.9091 28.32 86.0771 27.816C86.2451 27.312 86.3291 26.556 86.3291 25.548V4.716C86.3291 3.68 86.2451 2.924 86.0771 2.448C85.9091 1.944 85.5731 1.608 85.0691 1.44C84.5931 1.244 83.8791 1.132 82.9271 1.104V0.264ZM118.205 0.264V1.104C117.253 1.132 116.525 1.244 116.021 1.44C115.545 1.608 115.223 1.944 115.055 2.448C114.887 2.924 114.803 3.68 114.803 4.716V25.548C114.803 26.556 114.887 27.312 115.055 27.816C115.223 28.32 115.545 28.656 116.021 28.824C116.525 28.964 117.253 29.034 118.205 29.034H121.271C123.035 29.034 124.365 28.782 125.261 28.278C126.185 27.774 126.843 26.948 127.235 25.8C127.655 24.652 127.963 23.112 128.159 21.18H129.125C129.041 22.048 128.999 23.196 128.999 24.624C128.999 25.156 129.013 25.926 129.041 26.934C129.097 27.914 129.181 28.936 129.293 30C127.865 29.944 126.255 29.916 124.463 29.916C122.671 29.888 121.075 29.874 119.675 29.874C118.835 29.874 117.715 29.874 116.315 29.874C114.943 29.874 113.473 29.888 111.905 29.916C110.337 29.916 108.867 29.944 107.495 30V29.16C108.447 29.104 109.161 28.992 109.637 28.824C110.141 28.656 110.477 28.32 110.645 27.816C110.813 27.312 110.897 26.556 110.897 25.548V4.716C110.897 3.68 110.813 2.924 110.645 2.448C110.477 1.944 110.141 1.608 109.637 1.44C109.161 1.244 108.447 1.132 107.495 1.104V0.264C108.083 0.291999 108.853 0.319999 109.805 0.347999C110.757 0.375998 111.779 0.389998 112.871 0.389998C113.851 0.389998 114.817 0.375998 115.769 0.347999C116.749 0.319999 117.561 0.291999 118.205 0.264ZM158.703 5.59333C159.512 6.34 159.916 7.50667 159.916 9.09333C159.916 10.68 159.512 12.5156 158.703 14.6C157.925 16.6844 156.79 18.8 155.296 20.9467C153.834 23.0622 152.17 25.0222 150.303 26.8267C148.436 28.6311 146.29 30.1089 143.863 31.26C141.467 32.4111 139.056 32.9867 136.63 32.9867C134.514 32.9867 132.912 32.3489 131.823 31.0733C130.765 29.8289 130.236 28.1178 130.236 25.94C130.236 24.0422 130.625 21.9578 131.403 19.6867C132.212 17.4156 133.363 15.16 134.856 12.92C136.381 10.68 138.107 8.64222 140.036 6.80667C141.996 4.94 144.252 3.44667 146.803 2.32667C149.385 1.17556 152.014 0.600001 154.69 0.600001C156.09 0.600001 157.147 0.926667 157.863 1.58C158.61 2.23333 158.983 3.07333 158.983 4.1C158.983 4.59778 158.89 5.09556 158.703 5.59333ZM136.676 32.52C138.543 32.52 140.425 32.0844 142.323 31.2133C144.252 30.3422 146.01 29.2067 147.596 27.8067C149.183 26.4067 150.676 24.82 152.076 23.0467C153.476 21.2733 154.643 19.4844 155.576 17.68C156.541 15.8756 157.303 14.1489 157.863 12.5C158.423 10.82 158.703 9.37333 158.703 8.16C158.703 7.44444 158.594 6.83778 158.376 6.34C157.785 7.55333 156.805 8.56444 155.436 9.37333C154.067 10.1511 152.45 10.54 150.583 10.54C149.307 10.54 148.218 10.3378 147.316 9.93333C145.636 11.6133 144.252 13.4333 143.163 15.3933C142.074 17.3222 141.53 18.9089 141.53 20.1533C141.53 21.5533 142.152 22.2689 143.396 22.3C144.205 22.3 144.967 21.9422 145.683 21.2267C146.398 20.48 146.803 19.7178 146.896 18.94C146.927 18.8467 146.943 18.7689 146.943 18.7067C146.943 18.4889 146.99 18.3956 147.083 18.4267C147.145 18.4267 147.192 18.4578 147.223 18.52C147.223 18.6133 147.176 18.7067 147.083 18.8C147.021 18.8933 146.99 18.94 146.99 18.94C146.927 19.78 146.538 20.5578 145.823 21.2733C145.107 21.9889 144.298 22.3622 143.396 22.3933H143.35C142.385 22.3622 141.654 22.0667 141.156 21.5067C140.69 20.9467 140.456 20.1689 140.456 19.1733C140.456 17.7111 140.954 16.0311 141.95 14.1333C142.976 12.2044 144.314 10.4933 145.963 9C145.247 8.28444 144.936 7.35111 145.03 6.2H145.076C144.983 7.35111 145.294 8.26889 146.01 8.95333C147.036 8.05111 148.11 7.30444 149.23 6.71333C151.718 5.40667 154.036 4.75333 156.183 4.75333C157.023 4.75333 157.738 4.94 158.33 5.31333C158.454 4.84667 158.516 4.39556 158.516 3.96C158.516 3.05778 158.19 2.31111 157.536 1.72C156.883 1.12889 155.918 0.833332 154.643 0.833332C152.31 0.833332 149.961 1.44 147.596 2.65333C145.263 3.86667 143.178 5.45333 141.343 7.41333C139.538 9.34222 137.905 11.4578 136.443 13.76C135.012 16.0622 133.907 18.3644 133.13 20.6667C132.383 22.9689 132.01 25.0378 132.01 26.8733C132.01 28.6156 132.383 29.9844 133.13 30.98C133.907 32.0067 135.09 32.52 136.676 32.52ZM158.096 5.87333C157.692 5.28222 157.101 4.98667 156.323 4.98667C153.554 4.98667 150.567 6.60444 147.363 9.84C148.172 10.1822 149.136 10.3533 150.256 10.3533C152.154 10.3533 153.803 9.91778 155.203 9.04667C156.603 8.17555 157.567 7.11778 158.096 5.87333ZM157.986 0.264C158.574 0.291999 159.344 0.319999 160.296 0.347999C161.248 0.375998 162.186 0.389998 163.11 0.389998C164.426 0.389998 165.686 0.375998 166.89 0.347999C168.094 0.319999 168.948 0.305999 169.452 0.305999C172.84 0.305999 175.374 1.006 177.054 2.406C178.734 3.806 179.574 5.542 179.574 7.614C179.574 8.454 179.406 9.35 179.07 10.302C178.734 11.254 178.146 12.15 177.306 12.99C176.494 13.83 175.374 14.53 173.946 15.09C172.518 15.622 170.712 15.888 168.528 15.888H164.496V15.048H168.108C170.096 15.048 171.608 14.74 172.644 14.124C173.708 13.48 174.422 12.64 174.786 11.604C175.178 10.54 175.374 9.364 175.374 8.076C175.374 5.864 174.842 4.156 173.778 2.952C172.742 1.72 170.95 1.104 168.402 1.104C167.114 1.104 166.274 1.342 165.882 1.818C165.49 2.294 165.294 3.26 165.294 4.716V25.548C165.294 26.556 165.378 27.312 165.546 27.816C165.714 28.32 166.036 28.656 166.512 28.824C167.016 28.992 167.744 29.104 168.696 29.16V30C168.052 29.944 167.24 29.916 166.26 29.916C165.308 29.888 164.342 29.874 163.362 29.874C162.27 29.874 161.248 29.888 160.296 29.916C159.344 29.916 158.574 29.944 157.986 30V29.16C158.938 29.104 159.652 28.992 160.128 28.824C160.632 28.656 160.968 28.32 161.136 27.816C161.304 27.312 161.388 26.556 161.388 25.548V4.716C161.388 3.68 161.304 2.924 161.136 2.448C160.968 1.944 160.632 1.608 160.128 1.44C159.652 1.244 158.938 1.132 157.986 1.104V0.264ZM164.664 15.174C166.176 15.23 167.366 15.3 168.234 15.384C169.102 15.44 169.802 15.496 170.334 15.552C170.894 15.608 171.426 15.678 171.93 15.762C173.806 16.07 175.15 16.644 175.962 17.484C176.802 18.296 177.418 19.57 177.81 21.306L178.86 25.59C179.14 26.822 179.42 27.718 179.7 28.278C180.008 28.81 180.47 29.062 181.086 29.034C181.562 29.006 181.954 28.852 182.262 28.572C182.598 28.292 182.948 27.914 183.312 27.438L183.942 27.9C183.354 28.768 182.738 29.44 182.094 29.916C181.478 30.364 180.596 30.588 179.448 30.588C178.412 30.588 177.502 30.28 176.718 29.664C175.934 29.048 175.346 27.844 174.954 26.052L174.03 21.852C173.778 20.648 173.484 19.612 173.148 18.744C172.84 17.848 172.392 17.148 171.804 16.644C171.244 16.14 170.404 15.888 169.284 15.888H164.748L164.664 15.174ZM206.178 0.264C206.066 1.244 205.982 2.196 205.926 3.12C205.898 4.044 205.884 4.744 205.884 5.22C205.884 5.724 205.898 6.214 205.926 6.69C205.954 7.138 205.982 7.516 206.01 7.824H205.044C204.876 6.172 204.638 4.87 204.33 3.918C204.022 2.938 203.49 2.252 202.734 1.86C202.006 1.44 200.9 1.23 199.416 1.23H195.93C194.978 1.23 194.25 1.314 193.746 1.482C193.27 1.622 192.948 1.944 192.78 2.448C192.612 2.924 192.528 3.68 192.528 4.716V25.548C192.528 26.556 192.612 27.312 192.78 27.816C192.948 28.32 193.27 28.656 193.746 28.824C194.25 28.964 194.978 29.034 195.93 29.034H198.996C200.76 29.034 202.09 28.796 202.986 28.32C203.91 27.844 204.568 27.074 204.96 26.01C205.38 24.918 205.688 23.448 205.884 21.6H206.85C206.766 22.356 206.724 23.364 206.724 24.624C206.724 25.156 206.738 25.926 206.766 26.934C206.822 27.914 206.906 28.936 207.018 30C205.59 29.944 203.98 29.916 202.188 29.916C200.396 29.888 198.8 29.874 197.4 29.874C196.56 29.874 195.44 29.874 194.04 29.874C192.668 29.874 191.198 29.888 189.63 29.916C188.062 29.916 186.592 29.944 185.22 30V29.16C186.172 29.104 186.886 28.992 187.362 28.824C187.866 28.656 188.202 28.32 188.37 27.816C188.538 27.312 188.622 26.556 188.622 25.548V4.716C188.622 3.68 188.538 2.924 188.37 2.448C188.202 1.944 187.866 1.608 187.362 1.44C186.886 1.244 186.172 1.132 185.22 1.104V0.264C186.592 0.291999 188.062 0.319999 189.63 0.347999C191.198 0.375998 192.668 0.389998 194.04 0.389998C195.44 0.389998 196.56 0.389998 197.4 0.389998C198.688 0.389998 200.144 0.389998 201.768 0.389998C203.42 0.361999 204.89 0.319999 206.178 0.264ZM198.954 14.628C198.954 14.628 198.954 14.768 198.954 15.048C198.954 15.328 198.954 15.468 198.954 15.468H191.268C191.268 15.468 191.268 15.328 191.268 15.048C191.268 14.768 191.268 14.628 191.268 14.628H198.954ZM200.172 9.084C200.06 10.68 200.004 11.898 200.004 12.738C200.032 13.578 200.046 14.348 200.046 15.048C200.046 15.748 200.06 16.518 200.088 17.358C200.116 18.198 200.186 19.416 200.298 21.012H199.332C199.22 20.116 199.08 19.248 198.912 18.408C198.772 17.54 198.436 16.84 197.904 16.308C197.4 15.748 196.532 15.468 195.3 15.468V14.628C196.532 14.628 197.386 14.306 197.862 13.662C198.366 13.018 198.688 12.262 198.828 11.394C198.968 10.526 199.094 9.756 199.206 9.084H200.172ZM58.3325 39.7667C58.7681 39.7667 59.1103 39.8756 59.3592 40.0933C59.6081 40.3111 59.7325 40.5756 59.7325 40.8867C59.7325 41.54 59.2347 42.1467 58.2392 42.7067C57.2747 43.2356 55.8281 43.5 53.8992 43.5V43.3133C55.5792 43.3133 56.9014 43.0333 57.8658 42.4733C58.8303 41.8822 59.3125 41.2911 59.3125 40.7C59.3125 40.2022 58.9703 39.9533 58.2859 39.9533C56.5125 39.9533 54.1947 41.1667 51.3325 43.5933C48.5014 46.02 45.8103 48.8667 43.2592 52.1333C40.7081 55.4 38.4992 58.7911 36.6325 62.3067C34.7658 65.7911 33.8325 68.5289 33.8325 70.52C33.8325 71.5467 34.0036 72.3089 34.3458 72.8067C34.7192 73.3044 35.4036 73.5533 36.3992 73.5533C36.7725 73.5533 37.177 73.4911 37.6125 73.3667C38.0792 73.2733 38.577 73.1022 39.1058 72.8533C39.6347 72.6044 40.0858 72.2156 40.4592 71.6867C40.8636 71.1889 41.1125 70.5822 41.2058 69.8667C41.2992 70.1156 41.3458 70.38 41.3458 70.66C41.3458 71.5311 40.8792 72.2622 39.9458 72.8533C39.0125 73.4756 37.8147 73.7867 36.3525 73.7867C33.4592 73.7867 32.0125 72.4333 32.0125 69.7267C32.0125 68.0156 32.5881 65.9 33.7392 63.38C34.8903 60.86 36.4303 58.2467 38.3592 55.54C38.0792 55.54 37.7992 55.54 37.5192 55.54C35.9014 55.5089 34.5014 55.4933 33.3192 55.4933C32.9147 55.4933 32.2925 55.4933 31.4525 55.4933C28.3725 60.72 24.7481 64.8578 20.5792 67.9067C16.4414 70.9556 12.3036 72.48 8.16585 72.48C6.05029 72.48 4.29251 71.8733 2.89251 70.66C1.49251 69.4778 0.792513 67.9844 0.792513 66.18C0.792513 63.7222 1.72585 61.1244 3.59251 58.3867C5.49029 55.6489 7.99474 53.4711 11.1058 51.8533C10.6703 50.9822 10.4525 50.0489 10.4525 49.0533C10.4525 47.8711 10.7325 46.6889 11.2925 45.5067C11.8836 44.2933 12.7392 43.1422 13.8592 42.0533C14.9792 40.9644 16.5036 40.0778 18.4325 39.3933C20.3614 38.7089 22.5392 38.3667 24.9658 38.3667C27.0192 38.3667 29.7725 38.8644 33.2258 39.86C36.7103 40.8556 39.3703 41.3533 41.2058 41.3533C41.237 41.3533 41.2681 41.3533 41.2992 41.3533C41.5481 41.3533 41.8436 41.3222 42.1858 41.26C42.5592 41.1978 42.8392 41.1667 43.0258 41.1667C43.617 41.1667 43.9125 41.2756 43.9125 41.4933C43.9125 41.5867 43.8192 41.68 43.6325 41.7733C43.477 41.8667 43.2903 41.9133 43.0725 41.9133C42.7614 41.9133 42.4347 41.8667 42.0925 41.7733C41.7814 41.6489 41.5636 41.5867 41.4392 41.5867C41.2214 41.5867 40.957 41.68 40.6458 41.8667C40.3658 42.0533 39.9614 42.4111 39.4325 42.94C38.9347 43.4689 38.3747 44.1533 37.7525 44.9933C37.1303 45.8022 36.3681 46.9378 35.4658 48.4C34.5947 49.8622 33.6458 51.5267 32.6192 53.3933C32.3081 54.0156 31.9814 54.6378 31.6392 55.26C32.3858 55.26 32.9614 55.26 33.3658 55.26C34.8903 55.26 36.1814 55.2289 37.2392 55.1667C37.8303 55.1356 38.3125 55.12 38.6858 55.12C41.7658 50.8889 45.1414 47.28 48.8125 44.2933C52.4836 41.2756 55.657 39.7667 58.3325 39.7667ZM8.53918 70.52C12.1481 70.52 15.7725 69.2911 19.4125 66.8333C23.0836 64.3756 26.397 61.1556 29.3525 57.1733C29.4458 56.9244 29.4925 56.7067 29.4925 56.52C29.4925 55.9911 29.2281 55.68 28.6992 55.5867C28.5436 55.5867 28.3881 55.5867 28.2325 55.5867C27.9836 55.5867 27.8592 55.5244 27.8592 55.4C27.8592 55.2444 27.9836 55.1667 28.2325 55.1667C28.6681 55.1667 29.2903 55.1822 30.0992 55.2133C30.2547 55.2133 30.4725 55.2133 30.7525 55.2133C31.1881 54.56 31.5925 53.9067 31.9658 53.2533C35.9481 46.5956 38.8103 42.7067 40.5525 41.5867C38.8725 41.5244 36.337 41.1667 32.9458 40.5133C29.5858 39.86 26.8947 39.5333 24.8725 39.5333C22.5392 39.5333 20.4392 39.8133 18.5725 40.3733C16.737 40.9333 15.2592 41.68 14.1392 42.6133C13.0503 43.5156 12.2103 44.5111 11.6192 45.6C11.0592 46.6889 10.7792 47.8244 10.7792 49.0067C10.7792 49.94 11.0125 50.8267 11.4792 51.6667C14.4036 50.2044 17.4992 49.4733 20.7658 49.4733C22.6636 49.4733 24.0792 49.8311 25.0125 50.5467C25.9458 51.2622 26.4125 52.2111 26.4125 53.3933C26.4125 54.4822 26.0547 55.6489 25.3392 56.8933C24.6236 58.1067 23.6747 59.2422 22.4925 60.3C21.3103 61.3578 19.8636 62.2444 18.1525 62.96C16.4725 63.6444 14.7614 63.9867 13.0192 63.9867C11.9303 63.9867 10.9658 63.7844 10.1258 63.38C9.28585 62.9444 8.92807 62.3533 9.05251 61.6067L9.19251 61.56C9.22362 61.9022 9.34807 62.1667 9.56585 62.3533C9.81474 62.54 10.1414 62.68 10.5458 62.7733C10.9814 62.8356 11.3392 62.8822 11.6192 62.9133C11.8992 62.9133 12.2881 62.9133 12.7858 62.9133C12.8792 62.9133 12.9414 62.9133 12.9725 62.9133C14.7147 62.9133 16.4258 62.6022 18.1058 61.98C19.7858 61.3267 21.2014 60.5178 22.3525 59.5533C23.5347 58.5889 24.4681 57.5467 25.1525 56.4267C25.8681 55.3067 26.2258 54.2489 26.2258 53.2533C26.2258 52.1644 25.7747 51.2933 24.8725 50.64C23.9703 49.9867 22.6014 49.66 20.7658 49.66C17.5614 49.66 14.5125 50.3911 11.6192 51.8533C12.9881 54.1556 15.5703 55.3067 19.3658 55.3067C20.3925 55.3067 21.497 55.1978 22.6792 54.98V55.0733C21.1236 55.4778 19.6925 55.6956 18.3858 55.7267C18.3547 55.7267 18.2925 55.7267 18.1992 55.7267C14.8081 55.7267 12.4747 54.5133 11.1992 52.0867C8.33696 53.6111 6.01918 55.6022 4.24585 58.06C2.47251 60.5178 1.58585 62.8356 1.58585 65.0133C1.58585 66.5689 2.25474 67.8756 3.59251 68.9333C4.93029 69.9911 6.57918 70.52 8.53918 70.52ZM29.4458 57.0333C29.8192 56.5356 30.177 56.0378 30.5192 55.54C30.3014 55.54 30.1303 55.54 30.0058 55.54C29.5703 55.5711 29.2281 55.5867 28.9792 55.5867C29.3525 55.7422 29.5392 56.0378 29.5392 56.4733C29.5392 56.66 29.5081 56.8467 29.4458 57.0333ZM61.1783 38.054L71.4263 64.472C71.8463 65.536 72.3223 66.25 72.8543 66.614C73.3863 66.95 73.8763 67.132 74.3243 67.16V68C73.7643 67.944 73.0783 67.916 72.2663 67.916C71.4543 67.888 70.6423 67.874 69.8303 67.874C68.7383 67.874 67.7163 67.888 66.7643 67.916C65.8123 67.916 65.0423 67.944 64.4543 68V67.16C65.8823 67.104 66.7923 66.866 67.1843 66.446C67.5763 65.998 67.4923 65.06 66.9323 63.632L59.1203 42.758L59.7923 42.212L52.4843 61.196C51.8963 62.708 51.6163 63.898 51.6443 64.766C51.6723 65.606 51.9943 66.208 52.6103 66.572C53.2263 66.936 54.1223 67.132 55.2983 67.16V68C54.5143 67.944 53.6883 67.916 52.8203 67.916C51.9803 67.888 51.1963 67.874 50.4683 67.874C49.7683 67.874 49.1663 67.888 48.6623 67.916C48.1863 67.916 47.7383 67.944 47.3183 68V67.16C47.8783 67.02 48.4523 66.698 49.0403 66.194C49.6283 65.662 50.1603 64.766 50.6363 63.506L60.5063 38.054C60.6183 38.054 60.7303 38.054 60.8423 38.054C60.9543 38.054 61.0663 38.054 61.1783 38.054ZM66.3023 55.904V56.744H53.7863L54.2063 55.904H66.3023ZM75.0111 38.264C75.5991 38.292 76.3691 38.32 77.3211 38.348C78.2731 38.376 79.2111 38.39 80.1351 38.39C81.4511 38.39 82.7111 38.376 83.9151 38.348C85.1191 38.32 85.9731 38.306 86.4771 38.306C89.8651 38.306 92.3991 39.006 94.0791 40.406C95.7591 41.806 96.5991 43.542 96.5991 45.614C96.5991 46.454 96.4311 47.35 96.0951 48.302C95.7591 49.254 95.1711 50.15 94.3311 50.99C93.5191 51.83 92.3991 52.53 90.9711 53.09C89.5431 53.622 87.7371 53.888 85.5531 53.888H81.5211V53.048H85.1331C87.1211 53.048 88.6331 52.74 89.6691 52.124C90.7331 51.48 91.4471 50.64 91.8111 49.604C92.2031 48.54 92.3991 47.364 92.3991 46.076C92.3991 43.864 91.8671 42.156 90.8031 40.952C89.7671 39.72 87.9751 39.104 85.4271 39.104C84.1391 39.104 83.2991 39.342 82.9071 39.818C82.5151 40.294 82.3191 41.26 82.3191 42.716V63.548C82.3191 64.556 82.4031 65.312 82.5711 65.816C82.7391 66.32 83.0611 66.656 83.5371 66.824C84.0411 66.992 84.7691 67.104 85.7211 67.16V68C85.0771 67.944 84.2651 67.916 83.2851 67.916C82.3331 67.888 81.3671 67.874 80.3871 67.874C79.2951 67.874 78.2731 67.888 77.3211 67.916C76.3691 67.916 75.5991 67.944 75.0111 68V67.16C75.9631 67.104 76.6771 66.992 77.1531 66.824C77.6571 66.656 77.9931 66.32 78.1611 65.816C78.3291 65.312 78.4131 64.556 78.4131 63.548V42.716C78.4131 41.68 78.3291 40.924 78.1611 40.448C77.9931 39.944 77.6571 39.608 77.1531 39.44C76.6771 39.244 75.9631 39.132 75.0111 39.104V38.264ZM81.6891 53.174C83.2011 53.23 84.3911 53.3 85.2591 53.384C86.1271 53.44 86.8271 53.496 87.3591 53.552C87.9191 53.608 88.4511 53.678 88.9551 53.762C90.8311 54.07 92.1751 54.644 92.9871 55.484C93.8271 56.296 94.4431 57.57 94.8351 59.306L95.8851 63.59C96.1651 64.822 96.4451 65.718 96.7251 66.278C97.0331 66.81 97.4951 67.062 98.1111 67.034C98.5871 67.006 98.9791 66.852 99.2871 66.572C99.6231 66.292 99.9731 65.914 100.337 65.438L100.967 65.9C100.379 66.768 99.7631 67.44 99.1191 67.916C98.5031 68.364 97.6211 68.588 96.4731 68.588C95.4371 68.588 94.5271 68.28 93.7431 67.664C92.9591 67.048 92.3711 65.844 91.9791 64.052L91.0551 59.852C90.8031 58.648 90.5091 57.612 90.1731 56.744C89.8651 55.848 89.4171 55.148 88.8291 54.644C88.2691 54.14 87.4291 53.888 86.3091 53.888H81.7731L81.6891 53.174ZM135.299 38.264V39.104C134.347 39.132 133.619 39.244 133.115 39.44C132.639 39.608 132.317 39.944 132.149 40.448C131.981 40.924 131.897 41.68 131.897 42.716V63.548C131.897 64.556 131.981 65.312 132.149 65.816C132.317 66.32 132.639 66.656 133.115 66.824C133.619 66.992 134.347 67.104 135.299 67.16V68C134.655 67.944 133.843 67.916 132.863 67.916C131.911 67.888 130.945 67.874 129.965 67.874C128.873 67.874 127.851 67.888 126.899 67.916C125.947 67.916 125.177 67.944 124.589 68V67.16C125.541 67.104 126.255 66.992 126.731 66.824C127.235 66.656 127.571 66.32 127.739 65.816C127.907 65.312 127.991 64.556 127.991 63.548V40.448L128.159 40.574L117.869 68.21H117.197L106.613 40.952V63.128C106.613 64.136 106.697 64.934 106.865 65.522C107.061 66.082 107.425 66.488 107.957 66.74C108.517 66.964 109.343 67.104 110.435 67.16V68C109.931 67.944 109.273 67.916 108.461 67.916C107.649 67.888 106.879 67.874 106.151 67.874C105.451 67.874 104.737 67.888 104.009 67.916C103.309 67.916 102.721 67.944 102.245 68V67.16C103.197 67.104 103.911 66.964 104.387 66.74C104.891 66.488 105.227 66.082 105.395 65.522C105.563 64.934 105.647 64.136 105.647 63.128V42.716C105.647 41.68 105.563 40.924 105.395 40.448C105.227 39.944 104.891 39.608 104.387 39.44C103.911 39.244 103.197 39.132 102.245 39.104V38.264C102.721 38.292 103.309 38.32 104.009 38.348C104.737 38.376 105.451 38.39 106.151 38.39C106.767 38.39 107.397 38.376 108.041 38.348C108.713 38.32 109.273 38.292 109.721 38.264L119.255 63.38L118.541 63.716L127.991 38.39C128.327 38.39 128.649 38.39 128.957 38.39C129.293 38.39 129.629 38.39 129.965 38.39C130.945 38.39 131.911 38.376 132.863 38.348C133.843 38.32 134.655 38.292 135.299 38.264ZM165.347 43.5933C166.156 44.34 166.561 45.5067 166.561 47.0933C166.561 48.68 166.156 50.5156 165.347 52.6C164.57 54.6844 163.434 56.8 161.941 58.9467C160.478 61.0622 158.814 63.0222 156.947 64.8267C155.081 66.6311 152.934 68.1089 150.507 69.26C148.112 70.4111 145.701 70.9867 143.274 70.9867C141.158 70.9867 139.556 70.3489 138.467 69.0733C137.41 67.8289 136.881 66.1178 136.881 63.94C136.881 62.0422 137.27 59.9578 138.047 57.6867C138.856 55.4156 140.007 53.16 141.501 50.92C143.025 48.68 144.752 46.6422 146.681 44.8067C148.641 42.94 150.896 41.4467 153.447 40.3267C156.03 39.1756 158.658 38.6 161.334 38.6C162.734 38.6 163.792 38.9267 164.507 39.58C165.254 40.2333 165.627 41.0733 165.627 42.1C165.627 42.5978 165.534 43.0956 165.347 43.5933ZM143.321 70.52C145.187 70.52 147.07 70.0844 148.967 69.2133C150.896 68.3422 152.654 67.2067 154.241 65.8067C155.827 64.4067 157.321 62.82 158.721 61.0467C160.121 59.2733 161.287 57.4844 162.221 55.68C163.185 53.8756 163.947 52.1489 164.507 50.5C165.067 48.82 165.347 47.3733 165.347 46.16C165.347 45.4444 165.238 44.8378 165.021 44.34C164.43 45.5533 163.45 46.5644 162.081 47.3733C160.712 48.1511 159.094 48.54 157.227 48.54C155.952 48.54 154.863 48.3378 153.961 47.9333C152.281 49.6133 150.896 51.4333 149.807 53.3933C148.718 55.3222 148.174 56.9089 148.174 58.1533C148.174 59.5533 148.796 60.2689 150.041 60.3C150.85 60.3 151.612 59.9422 152.327 59.2267C153.043 58.48 153.447 57.7178 153.541 56.94C153.572 56.8467 153.587 56.7689 153.587 56.7067C153.587 56.4889 153.634 56.3956 153.727 56.4267C153.79 56.4267 153.836 56.4578 153.867 56.52C153.867 56.6133 153.821 56.7067 153.727 56.8C153.665 56.8933 153.634 56.94 153.634 56.94C153.572 57.78 153.183 58.5578 152.467 59.2733C151.752 59.9889 150.943 60.3622 150.041 60.3933H149.994C149.03 60.3622 148.298 60.0667 147.801 59.5067C147.334 58.9467 147.101 58.1689 147.101 57.1733C147.101 55.7111 147.598 54.0311 148.594 52.1333C149.621 50.2044 150.958 48.4933 152.607 47C151.892 46.2844 151.581 45.3511 151.674 44.2H151.721C151.627 45.3511 151.938 46.2689 152.654 46.9533C153.681 46.0511 154.754 45.3044 155.874 44.7133C158.363 43.4067 160.681 42.7533 162.827 42.7533C163.667 42.7533 164.383 42.94 164.974 43.3133C165.098 42.8467 165.161 42.3956 165.161 41.96C165.161 41.0578 164.834 40.3111 164.181 39.72C163.527 39.1289 162.563 38.8333 161.287 38.8333C158.954 38.8333 156.605 39.44 154.241 40.6533C151.907 41.8667 149.823 43.4533 147.987 45.4133C146.183 47.3422 144.55 49.4578 143.087 51.76C141.656 54.0622 140.552 56.3644 139.774 58.6667C139.027 60.9689 138.654 63.0378 138.654 64.8733C138.654 66.6156 139.027 67.9844 139.774 68.98C140.552 70.0067 141.734 70.52 143.321 70.52ZM164.741 43.8733C164.336 43.2822 163.745 42.9867 162.967 42.9867C160.198 42.9867 157.212 44.6044 154.007 47.84C154.816 48.1822 155.781 48.3533 156.901 48.3533C158.798 48.3533 160.447 47.9178 161.847 47.0467C163.247 46.1756 164.212 45.1178 164.741 43.8733ZM191.006 38.264V39.104C190.054 39.132 189.326 39.272 188.822 39.524C188.346 39.776 188.024 40.182 187.856 40.742C187.688 41.302 187.604 42.1 187.604 43.136V68.21C187.436 68.21 187.268 68.21 187.1 68.21C186.96 68.21 186.806 68.21 186.638 68.21L168.998 40.952V63.128C168.998 64.136 169.082 64.934 169.25 65.522C169.446 66.082 169.81 66.488 170.342 66.74C170.902 66.964 171.728 67.104 172.82 67.16V68C172.316 67.944 171.658 67.916 170.846 67.916C170.034 67.888 169.264 67.874 168.536 67.874C167.836 67.874 167.122 67.888 166.394 67.916C165.694 67.916 165.106 67.944 164.63 68V67.16C165.582 67.104 166.296 66.964 166.772 66.74C167.276 66.488 167.612 66.082 167.78 65.522C167.948 64.934 168.032 64.136 168.032 63.128V42.716C168.032 41.68 167.948 40.924 167.78 40.448C167.612 39.944 167.276 39.608 166.772 39.44C166.296 39.244 165.582 39.132 164.63 39.104V38.264C165.106 38.292 165.694 38.32 166.394 38.348C167.122 38.376 167.836 38.39 168.536 38.39C169.152 38.39 169.74 38.376 170.3 38.348C170.86 38.32 171.364 38.292 171.812 38.264L186.638 61.112V43.136C186.638 42.1 186.54 41.302 186.344 40.742C186.176 40.182 185.812 39.776 185.252 39.524C184.72 39.272 183.908 39.132 182.816 39.104V38.264C183.32 38.292 183.978 38.32 184.79 38.348C185.63 38.376 186.4 38.39 187.1 38.39C187.828 38.39 188.542 38.376 189.242 38.348C189.97 38.32 190.558 38.292 191.006 38.264ZM204.995 38.264V39.104C204.043 39.132 203.315 39.244 202.811 39.44C202.335 39.608 202.013 39.944 201.845 40.448C201.677 40.924 201.593 41.68 201.593 42.716V63.548C201.593 64.556 201.677 65.312 201.845 65.816C202.013 66.32 202.335 66.656 202.811 66.824C203.315 66.992 204.043 67.104 204.995 67.16V68C204.351 67.944 203.539 67.916 202.559 67.916C201.607 67.888 200.641 67.874 199.661 67.874C198.569 67.874 197.547 67.888 196.595 67.916C195.643 67.916 194.873 67.944 194.285 68V67.16C195.237 67.104 195.951 66.992 196.427 66.824C196.931 66.656 197.267 66.32 197.435 65.816C197.603 65.312 197.687 64.556 197.687 63.548V42.716C197.687 41.68 197.603 40.924 197.435 40.448C197.267 39.944 196.931 39.608 196.427 39.44C195.951 39.244 195.237 39.132 194.285 39.104V38.264C194.873 38.292 195.643 38.32 196.595 38.348C197.547 38.376 198.569 38.39 199.661 38.39C200.641 38.39 201.607 38.376 202.559 38.348C203.539 38.32 204.351 38.292 204.995 38.264ZM222.007 37.676C223.855 37.676 225.367 37.956 226.543 38.516C227.747 39.048 228.811 39.678 229.735 40.406C230.295 40.826 230.715 40.882 230.995 40.574C231.303 40.238 231.513 39.468 231.625 38.264H232.591C232.535 39.3 232.493 40.56 232.465 42.044C232.437 43.528 232.423 45.488 232.423 47.924H231.457C231.261 46.72 231.079 45.768 230.911 45.068C230.743 44.34 230.533 43.724 230.281 43.22C230.057 42.716 229.749 42.212 229.357 41.708C228.489 40.56 227.397 39.734 226.081 39.23C224.765 38.698 223.379 38.432 221.923 38.432C220.551 38.432 219.305 38.782 218.185 39.482C217.093 40.154 216.141 41.134 215.329 42.422C214.545 43.71 213.929 45.264 213.481 47.084C213.061 48.904 212.851 50.948 212.851 53.216C212.851 55.568 213.089 57.654 213.565 59.474C214.041 61.266 214.699 62.778 215.539 64.01C216.407 65.242 217.415 66.18 218.563 66.824C219.739 67.44 220.999 67.748 222.343 67.748C223.603 67.748 224.919 67.496 226.291 66.992C227.663 66.488 228.741 65.676 229.525 64.556C230.141 63.744 230.561 62.862 230.785 61.91C231.037 60.958 231.261 59.628 231.457 57.92H232.423C232.423 60.468 232.437 62.526 232.465 64.094C232.493 65.634 232.535 66.936 232.591 68H231.625C231.513 66.796 231.317 66.04 231.037 65.732C230.785 65.424 230.351 65.466 229.735 65.858C228.699 66.586 227.593 67.23 226.417 67.79C225.269 68.322 223.785 68.588 221.965 68.588C219.305 68.588 216.967 67.986 214.951 66.782C212.963 65.578 211.409 63.842 210.289 61.574C209.197 59.306 208.651 56.576 208.651 53.384C208.651 50.248 209.225 47.504 210.373 45.152C211.521 42.8 213.089 40.966 215.077 39.65C217.093 38.334 219.403 37.676 222.007 37.676ZM34.3441 76.264C34.9321 76.292 35.7021 76.32 36.6541 76.348C37.6061 76.376 38.5441 76.39 39.4681 76.39C40.7841 76.39 42.0441 76.376 43.2481 76.348C44.4521 76.32 45.3061 76.306 45.8101 76.306C48.7501 76.306 50.9621 76.922 52.4461 78.154C53.9301 79.386 54.6721 80.968 54.6721 82.9C54.6721 83.88 54.4621 84.846 54.0421 85.798C53.6501 86.722 52.9781 87.576 52.0261 88.36C51.1021 89.116 49.8561 89.732 48.2881 90.208V90.292C50.5001 90.572 52.2221 91.104 53.4541 91.888C54.7141 92.644 55.5961 93.54 56.1001 94.576C56.6041 95.612 56.8561 96.704 56.8561 97.852C56.8561 100.232 55.9601 102.192 54.1681 103.732C52.4041 105.244 49.9401 106 46.7761 106C46.1601 106 45.2361 105.986 44.0041 105.958C42.7721 105.902 41.2881 105.874 39.5521 105.874C38.5721 105.874 37.6061 105.888 36.6541 105.916C35.7021 105.916 34.9321 105.944 34.3441 106V105.16C35.2961 105.104 36.0101 104.992 36.4861 104.824C36.9901 104.656 37.3261 104.32 37.4941 103.816C37.6621 103.312 37.7461 102.556 37.7461 101.548V80.716C37.7461 79.68 37.6621 78.924 37.4941 78.448C37.3261 77.944 36.9901 77.608 36.4861 77.44C36.0101 77.244 35.2961 77.132 34.3441 77.104V76.264ZM44.7601 77.104C43.4721 77.104 42.6321 77.342 42.2401 77.818C41.8481 78.294 41.6521 79.26 41.6521 80.716V101.548C41.6521 103.004 41.8481 103.956 42.2401 104.404C42.6601 104.824 43.5141 105.034 44.8021 105.034C47.5461 105.034 49.5341 104.404 50.7661 103.144C52.0261 101.856 52.6561 100.036 52.6561 97.684C52.6561 95.528 52.0681 93.862 50.8921 92.686C49.7441 91.51 47.8401 90.922 45.1801 90.922H40.8541C40.8541 90.922 40.8541 90.81 40.8541 90.586C40.8541 90.334 40.8541 90.208 40.8541 90.208H44.4661C46.1181 90.208 47.3921 89.9 48.2881 89.284C49.1841 88.64 49.8001 87.8 50.1361 86.764C50.4721 85.7 50.6401 84.566 50.6401 83.362C50.6401 81.29 50.1781 79.736 49.2541 78.7C48.3581 77.636 46.8601 77.104 44.7601 77.104ZM81.1829 76.264C81.0709 77.244 80.9869 78.196 80.9309 79.12C80.9029 80.044 80.8889 80.744 80.8889 81.22C80.8889 81.724 80.9029 82.214 80.9309 82.69C80.9589 83.138 80.9869 83.516 81.0149 83.824H80.0489C79.8809 82.172 79.6429 80.87 79.3349 79.918C79.0269 78.938 78.4949 78.252 77.7389 77.86C77.0109 77.44 75.9049 77.23 74.4209 77.23H70.9349C69.9829 77.23 69.2549 77.314 68.7509 77.482C68.2749 77.622 67.9529 77.944 67.7849 78.448C67.6169 78.924 67.5329 79.68 67.5329 80.716V101.548C67.5329 102.556 67.6169 103.312 67.7849 103.816C67.9529 104.32 68.2749 104.656 68.7509 104.824C69.2549 104.964 69.9829 105.034 70.9349 105.034H74.0009C75.7649 105.034 77.0949 104.796 77.9909 104.32C78.9149 103.844 79.5729 103.074 79.9649 102.01C80.3849 100.918 80.6929 99.448 80.8889 97.6H81.8549C81.7709 98.356 81.7289 99.364 81.7289 100.624C81.7289 101.156 81.7429 101.926 81.7709 102.934C81.8269 103.914 81.9109 104.936 82.0229 106C80.5949 105.944 78.9849 105.916 77.1929 105.916C75.4009 105.888 73.8049 105.874 72.4049 105.874C71.5649 105.874 70.4449 105.874 69.0449 105.874C67.6729 105.874 66.2029 105.888 64.6349 105.916C63.0669 105.916 61.5969 105.944 60.2249 106V105.16C61.1769 105.104 61.8909 104.992 62.3669 104.824C62.8709 104.656 63.2069 104.32 63.3749 103.816C63.5429 103.312 63.6269 102.556 63.6269 101.548V80.716C63.6269 79.68 63.5429 78.924 63.3749 78.448C63.2069 77.944 62.8709 77.608 62.3669 77.44C61.8909 77.244 61.1769 77.132 60.2249 77.104V76.264C61.5969 76.292 63.0669 76.32 64.6349 76.348C66.2029 76.376 67.6729 76.39 69.0449 76.39C70.4449 76.39 71.5649 76.39 72.4049 76.39C73.6929 76.39 75.1489 76.39 76.7729 76.39C78.4249 76.362 79.8949 76.32 81.1829 76.264ZM73.9589 90.628C73.9589 90.628 73.9589 90.768 73.9589 91.048C73.9589 91.328 73.9589 91.468 73.9589 91.468H66.2729C66.2729 91.468 66.2729 91.328 66.2729 91.048C66.2729 90.768 66.2729 90.628 66.2729 90.628H73.9589ZM75.1769 85.084C75.0649 86.68 75.0089 87.898 75.0089 88.738C75.0369 89.578 75.0509 90.348 75.0509 91.048C75.0509 91.748 75.0649 92.518 75.0929 93.358C75.1209 94.198 75.1909 95.416 75.3029 97.012H74.3369C74.2249 96.116 74.0849 95.248 73.9169 94.408C73.7769 93.54 73.4409 92.84 72.9089 92.308C72.4049 91.748 71.5369 91.468 70.3049 91.468V90.628C71.5369 90.628 72.3909 90.306 72.8669 89.662C73.3709 89.018 73.6929 88.262 73.8329 87.394C73.9729 86.526 74.0989 85.756 74.2109 85.084H75.1769ZM97.6207 76.054L107.869 102.472C108.289 103.536 108.765 104.25 109.297 104.614C109.829 104.95 110.319 105.132 110.767 105.16V106C110.207 105.944 109.521 105.916 108.709 105.916C107.897 105.888 107.085 105.874 106.273 105.874C105.181 105.874 104.159 105.888 103.207 105.916C102.255 105.916 101.485 105.944 100.897 106V105.16C102.325 105.104 103.235 104.866 103.627 104.446C104.019 103.998 103.935 103.06 103.375 101.632L95.5627 80.758L96.2347 80.212L88.9267 99.196C88.3387 100.708 88.0587 101.898 88.0867 102.766C88.1147 103.606 88.4367 104.208 89.0527 104.572C89.6687 104.936 90.5647 105.132 91.7407 105.16V106C90.9567 105.944 90.1307 105.916 89.2627 105.916C88.4227 105.888 87.6387 105.874 86.9107 105.874C86.2107 105.874 85.6087 105.888 85.1047 105.916C84.6287 105.916 84.1807 105.944 83.7607 106V105.16C84.3207 105.02 84.8947 104.698 85.4827 104.194C86.0707 103.662 86.6027 102.766 87.0787 101.506L96.9487 76.054C97.0607 76.054 97.1727 76.054 97.2847 76.054C97.3967 76.054 97.5087 76.054 97.6207 76.054ZM102.745 93.904V94.744H90.2287L90.6487 93.904H102.745ZM138.02 76.264V77.104C137.068 77.132 136.34 77.272 135.836 77.524C135.36 77.776 135.038 78.182 134.87 78.742C134.702 79.302 134.618 80.1 134.618 81.136V93.778C134.618 95.738 134.492 97.446 134.24 98.902C133.988 100.358 133.54 101.618 132.896 102.682C132.196 103.858 131.174 104.81 129.83 105.538C128.486 106.238 126.946 106.588 125.21 106.588C123.866 106.588 122.578 106.42 121.346 106.084C120.142 105.776 119.078 105.188 118.154 104.32C117.342 103.536 116.698 102.71 116.222 101.842C115.774 100.974 115.466 99.91 115.298 98.65C115.13 97.39 115.046 95.808 115.046 93.904V80.716C115.046 79.68 114.962 78.924 114.794 78.448C114.626 77.944 114.29 77.608 113.786 77.44C113.31 77.244 112.596 77.132 111.644 77.104V76.264C112.232 76.292 113.002 76.32 113.954 76.348C114.906 76.376 115.928 76.39 117.02 76.39C118 76.39 118.966 76.376 119.918 76.348C120.898 76.32 121.71 76.292 122.354 76.264V77.104C121.402 77.132 120.674 77.244 120.17 77.44C119.694 77.608 119.372 77.944 119.204 78.448C119.036 78.924 118.952 79.68 118.952 80.716V94.618C118.952 96.522 119.092 98.272 119.372 99.868C119.652 101.464 120.254 102.738 121.178 103.69C122.13 104.642 123.6 105.118 125.588 105.118C127.716 105.118 129.354 104.656 130.502 103.732C131.678 102.78 132.49 101.478 132.938 99.826C133.414 98.174 133.652 96.312 133.652 94.24V81.136C133.652 80.1 133.526 79.302 133.274 78.742C133.05 78.182 132.658 77.776 132.098 77.524C131.538 77.272 130.782 77.132 129.83 77.104V76.264C130.334 76.292 130.992 76.32 131.804 76.348C132.644 76.376 133.414 76.39 134.114 76.39C134.842 76.39 135.556 76.376 136.256 76.348C136.984 76.32 137.572 76.292 138.02 76.264ZM164.003 76.264C163.891 77.328 163.807 78.364 163.751 79.372C163.723 80.352 163.709 81.108 163.709 81.64C163.709 82.312 163.723 82.942 163.751 83.53C163.779 84.118 163.807 84.636 163.835 85.084H162.869C162.673 83.124 162.407 81.584 162.071 80.464C161.735 79.316 161.147 78.49 160.307 77.986C159.467 77.482 158.165 77.23 156.401 77.23H154.133V101.128C154.133 102.248 154.231 103.088 154.427 103.648C154.651 104.208 155.071 104.586 155.687 104.782C156.303 104.978 157.199 105.104 158.375 105.16V106C157.647 105.944 156.723 105.916 155.603 105.916C154.483 105.888 153.349 105.874 152.201 105.874C150.941 105.874 149.751 105.888 148.631 105.916C147.539 105.916 146.657 105.944 145.985 106V105.16C147.161 105.104 148.057 104.978 148.673 104.782C149.289 104.586 149.695 104.208 149.891 103.648C150.115 103.088 150.227 102.248 150.227 101.128V77.23H147.959C146.223 77.23 144.921 77.482 144.053 77.986C143.213 78.49 142.625 79.316 142.289 80.464C141.953 81.584 141.687 83.124 141.491 85.084H140.525C140.581 84.636 140.609 84.118 140.609 83.53C140.637 82.942 140.651 82.312 140.651 81.64C140.651 81.108 140.623 80.352 140.567 79.372C140.539 78.364 140.469 77.328 140.357 76.264C141.533 76.292 142.807 76.32 144.179 76.348C145.579 76.376 146.979 76.39 148.379 76.39C149.779 76.39 151.053 76.39 152.201 76.39C153.349 76.39 154.609 76.39 155.981 76.39C157.381 76.39 158.781 76.376 160.181 76.348C161.581 76.32 162.855 76.292 164.003 76.264ZM208.485 79.7267C208.733 79.7267 208.936 79.8044 209.091 79.96C209.247 80.1156 209.325 80.3178 209.325 80.5667C209.325 80.94 209.107 81.3133 208.671 81.6867C208.267 82.06 207.753 82.4333 207.131 82.8067C206.54 83.18 206.136 83.4756 205.918 83.6933C204.207 85.9644 201.578 90.2578 198.031 96.5733C194.516 102.858 191.731 107.447 189.678 110.34C192.26 111.024 194.329 112.02 195.885 113.327C197.44 114.633 198.218 116.189 198.218 117.993C198.218 118.336 198.171 118.507 198.078 118.507C197.985 118.507 197.938 118.304 197.938 117.9C197.938 116.22 197.145 114.789 195.558 113.607C194.002 112.424 191.918 111.522 189.305 110.9C186.473 114.851 183.549 117.931 180.531 120.14C177.513 122.38 174.262 123.5 170.778 123.5C168.787 123.5 167.185 123.033 165.971 122.1C164.789 121.167 164.198 119.813 164.198 118.04C164.198 116.204 165.038 114.602 166.718 113.233C168.429 111.864 170.545 110.869 173.065 110.247C175.585 109.624 178.322 109.313 181.278 109.313C183.767 109.313 186.116 109.547 188.325 110.013C190.129 107.836 191.871 105.456 193.551 102.873C195.262 100.291 197.191 97.1956 199.338 93.5867C201.516 89.9778 202.822 87.8311 203.258 87.1467C201.796 89.0133 200.551 90.6 199.525 91.9067C198.498 93.1822 197.191 94.7067 195.605 96.48C194.049 98.2533 192.68 99.6844 191.498 100.773C190.316 101.862 189.071 102.811 187.765 103.62C186.489 104.398 185.369 104.787 184.405 104.787C183.969 104.787 183.58 104.6 183.238 104.227C182.896 103.853 182.725 103.371 182.725 102.78C182.725 101.691 183.036 100.556 183.658 99.3733C184.28 98.16 185.058 97.04 185.991 96.0133C186.925 94.9867 187.936 93.8667 189.025 92.6533C190.145 91.4089 191.171 90.2111 192.105 89.06C193.038 87.8778 193.816 86.54 194.438 85.0467C195.06 83.5533 195.371 82.06 195.371 80.5667C195.371 76.2111 192.633 74.0333 187.158 74.0333C184.918 74.0333 182.818 74.5 180.858 75.4333C178.929 76.3356 177.342 77.4867 176.098 78.8867C174.853 80.2556 173.873 81.7489 173.158 83.3667C172.473 84.9533 172.131 86.4778 172.131 87.94C172.131 89.5578 172.567 90.8644 173.438 91.86C174.309 92.8556 175.6 93.3533 177.311 93.3533C180.391 93.3533 182.833 92.4978 184.638 90.7867C186.473 89.0756 187.391 87.1467 187.391 85C187.391 83.8178 187.033 82.9156 186.318 82.2933C185.602 81.6711 184.685 81.36 183.565 81.36C181.947 81.36 180.422 81.8889 178.991 82.9467L178.898 82.8067C180.36 81.7178 182.071 81.1733 184.031 81.1733C185.431 81.1733 186.598 81.5156 187.531 82.2C188.496 82.8533 188.978 83.7867 188.978 85C188.978 87.0844 187.827 89.0289 185.525 90.8333C183.222 92.6378 180.485 93.54 177.311 93.54C175.04 93.54 173.298 92.9178 172.085 91.6733C170.871 90.3978 170.265 88.7956 170.265 86.8667C170.265 85.3733 170.622 83.88 171.338 82.3867C172.085 80.8933 173.127 79.5089 174.465 78.2333C175.802 76.9267 177.576 75.8689 179.785 75.06C182.025 74.2511 184.482 73.8467 187.158 73.8467C190.331 73.8467 192.742 74.5156 194.391 75.8533C196.04 77.1911 196.865 78.7622 196.865 80.5667C196.865 82.3089 196.538 84.0511 195.885 85.7933C195.231 87.5356 194.407 89.0911 193.411 90.46C192.447 91.7978 191.389 93.1356 190.238 94.4733C189.118 95.8111 188.076 96.9933 187.111 98.02C186.147 99.0156 185.338 100.011 184.685 101.007C184.031 101.971 183.705 102.811 183.705 103.527C183.705 104.242 183.938 104.6 184.405 104.6C185.089 104.6 185.867 104.382 186.738 103.947C187.64 103.511 188.511 102.967 189.351 102.313C190.191 101.66 191.14 100.804 192.198 99.7467C193.287 98.6578 194.251 97.6467 195.091 96.7133C195.931 95.78 196.911 94.6133 198.031 93.2133C199.182 91.8133 200.1 90.6622 200.785 89.76C201.5 88.8578 202.387 87.7222 203.445 86.3533C204.502 84.9844 205.249 84.02 205.685 83.46C205.809 83.3044 205.996 82.8844 206.245 82.2C206.525 81.5156 206.836 80.94 207.178 80.4733C207.551 79.9756 207.987 79.7267 208.485 79.7267ZM171.105 121.073C176.456 121.073 182.056 117.573 187.905 110.573C185.727 110.169 183.409 109.967 180.951 109.967C178.151 109.967 175.538 110.216 173.111 110.713C170.716 111.242 168.725 112.051 167.138 113.14C165.551 114.229 164.758 115.52 164.758 117.013C164.758 117.916 165.318 118.818 166.438 119.72C167.589 120.622 169.145 121.073 171.105 121.073Z" fill="#A77E3D"/>
</svg>
