<svg viewBox="0 0 255 149" fill="none" xmlns="http://www.w3.org/2000/svg">
<path d="M30.5587 0.453332C32.2076 0.453332 33.5765 0.982221 34.6654 2.04C35.7854 3.06667 36.3454 4.56 36.3454 6.52C36.3454 8.85333 35.6143 10.9378 34.1521 12.7733C32.721 14.5778 30.8387 15.48 28.5054 15.48C27.1676 15.48 26.1098 15.0756 25.3321 14.2667C24.5543 13.4578 24.1654 12.5556 24.1654 11.56C24.1654 10.6889 24.4454 9.95778 25.0054 9.36666C25.5965 8.77555 26.4054 8.48 27.4321 8.48C27.961 8.48 28.3498 8.60444 28.5987 8.85333C28.8787 9.07111 29.0187 9.35111 29.0187 9.69333C29.0187 9.94222 28.9254 10.1756 28.7387 10.3933C28.5521 10.58 28.2876 10.6733 27.9454 10.6733C28.2876 10.5489 28.4587 10.2533 28.4587 9.78667C28.4587 9.44444 28.3498 9.16444 28.1321 8.94667C27.9143 8.72889 27.5721 8.62 27.1054 8.62C26.2965 8.62 25.6432 8.88444 25.1454 9.41333C24.6476 9.94222 24.3987 10.5644 24.3987 11.28C24.3987 12.1511 24.7098 12.8044 25.3321 13.24C25.9543 13.6756 26.7632 13.8933 27.7587 13.8933C29.8743 13.8933 31.8032 13.2089 33.5454 11.84C35.2876 10.4711 36.1587 8.72889 36.1587 6.61333C36.1587 4.96444 35.661 3.76667 34.6654 3.02C33.701 2.27333 32.441 1.9 30.8854 1.9C29.4854 1.9 28.1165 2.18 26.7787 2.74C25.4721 3.3 24.3521 4.17111 23.4187 5.35333C22.5165 6.50444 22.0654 7.84222 22.0654 9.36666C22.0654 11.3889 22.4232 13.8311 23.1387 16.6933C23.8543 19.5556 24.2121 22.06 24.2121 24.2067C24.2121 26.6333 23.5587 28.92 22.2521 31.0667C20.9765 33.2133 19.2498 34.9244 17.0721 36.2C14.8943 37.5067 12.5454 38.16 10.0254 38.16C6.97651 38.16 4.62763 37.2889 2.97874 35.5467C1.36096 33.8356 0.55207 31.7356 0.55207 29.2467C0.55207 27.8778 0.816515 26.5244 1.3454 25.1867C1.87429 23.8489 2.62096 22.6356 3.5854 21.5467C4.58096 20.4267 5.85651 19.54 7.41207 18.8867C8.99874 18.2022 10.741 17.86 12.6387 17.86C14.4432 17.86 15.8276 18.2489 16.7921 19.0267C17.7565 19.8044 18.2854 20.7844 18.3787 21.9667C18.3787 22.06 18.3787 22.1533 18.3787 22.2467C18.3787 23.8956 17.6165 25.4044 16.0921 26.7733C14.5676 28.1111 12.5921 28.78 10.1654 28.78C9.79207 28.78 9.41874 28.7644 9.0454 28.7333V28.5933C9.38763 28.6244 9.7454 28.64 10.1187 28.64C12.421 28.64 14.2565 27.9556 15.6254 26.5867C16.9943 25.1867 17.6321 23.6622 17.5387 22.0133C17.4765 20.8622 17.0254 19.9133 16.1854 19.1667C15.3454 18.42 14.1632 18.0467 12.6387 18.0467C10.8965 18.0467 9.29429 18.3578 7.83207 18.98C6.40096 19.6022 5.23429 20.4111 4.33207 21.4067C3.42985 22.4022 2.72985 23.5067 2.23207 24.72C1.73429 25.9022 1.4854 27.1156 1.4854 28.36C1.4854 30.5067 2.1854 32.2956 3.5854 33.7267C4.9854 35.1889 7.00763 35.92 9.65207 35.92C11.2387 35.92 12.841 35.64 14.4587 35.08C16.0765 34.52 17.5543 33.7267 18.8921 32.7C20.261 31.7044 21.3654 30.3978 22.2054 28.78C23.0454 27.1622 23.4654 25.3889 23.4654 23.46C23.4654 21.9356 23.1698 19.5867 22.5787 16.4133C22.0187 13.24 21.7387 10.9378 21.7387 9.50667C21.7387 7.67111 22.1898 6.05333 23.0921 4.65333C24.0254 3.22222 25.1454 2.16444 26.4521 1.48C27.7898 0.795554 29.1587 0.453332 30.5587 0.453332ZM61.1833 2.264C61.0713 3.328 60.9873 4.364 60.9313 5.372C60.9033 6.352 60.8893 7.108 60.8893 7.64C60.8893 8.312 60.9033 8.942 60.9313 9.53C60.9593 10.118 60.9873 10.636 61.0153 11.084H60.0493C59.8533 9.124 59.5873 7.584 59.2513 6.464C58.9153 5.316 58.3273 4.49 57.4873 3.986C56.6473 3.482 55.3453 3.23 53.5813 3.23H51.3133V27.128C51.3133 28.248 51.4113 29.088 51.6073 29.648C51.8313 30.208 52.2513 30.586 52.8673 30.782C53.4833 30.978 54.3793 31.104 55.5553 31.16V32C54.8273 31.944 53.9033 31.916 52.7833 31.916C51.6633 31.888 50.5293 31.874 49.3813 31.874C48.1213 31.874 46.9313 31.888 45.8113 31.916C44.7193 31.916 43.8373 31.944 43.1653 32V31.16C44.3413 31.104 45.2373 30.978 45.8533 30.782C46.4693 30.586 46.8753 30.208 47.0713 29.648C47.2953 29.088 47.4073 28.248 47.4073 27.128V3.23H45.1393C43.4033 3.23 42.1013 3.482 41.2333 3.986C40.3933 4.49 39.8053 5.316 39.4693 6.464C39.1333 7.584 38.8673 9.124 38.6713 11.084H37.7053C37.7613 10.636 37.7893 10.118 37.7893 9.53C37.8173 8.942 37.8313 8.312 37.8313 7.64C37.8313 7.108 37.8033 6.352 37.7473 5.372C37.7193 4.364 37.6493 3.328 37.5373 2.264C38.7133 2.292 39.9873 2.32 41.3593 2.348C42.7593 2.376 44.1593 2.39 45.5593 2.39C46.9593 2.39 48.2333 2.39 49.3813 2.39C50.5293 2.39 51.7893 2.39 53.1613 2.39C54.5613 2.39 55.9613 2.376 57.3613 2.348C58.7613 2.32 60.0353 2.292 61.1833 2.264ZM74.0025 2.054L84.2505 28.472C84.6705 29.536 85.1465 30.25 85.6785 30.614C86.2105 30.95 86.7005 31.132 87.1485 31.16V32C86.5885 31.944 85.9025 31.916 85.0905 31.916C84.2785 31.888 83.4665 31.874 82.6545 31.874C81.5625 31.874 80.5405 31.888 79.5885 31.916C78.6365 31.916 77.8665 31.944 77.2785 32V31.16C78.7065 31.104 79.6165 30.866 80.0085 30.446C80.4005 29.998 80.3165 29.06 79.7565 27.632L71.9445 6.758L72.6165 6.212L65.3085 25.196C64.7205 26.708 64.4405 27.898 64.4685 28.766C64.4965 29.606 64.8185 30.208 65.4345 30.572C66.0505 30.936 66.9465 31.132 68.1225 31.16V32C67.3385 31.944 66.5125 31.916 65.6445 31.916C64.8045 31.888 64.0205 31.874 63.2925 31.874C62.5925 31.874 61.9905 31.888 61.4865 31.916C61.0105 31.916 60.5625 31.944 60.1425 32V31.16C60.7025 31.02 61.2765 30.698 61.8645 30.194C62.4525 29.662 62.9845 28.766 63.4605 27.506L73.3305 2.054C73.4425 2.054 73.5545 2.054 73.6665 2.054C73.7785 2.054 73.8905 2.054 74.0025 2.054ZM79.1265 19.904V20.744H66.6105L67.0305 19.904H79.1265ZM87.8353 2.264C88.4233 2.292 89.1933 2.32 90.1453 2.348C91.0973 2.376 92.0353 2.39 92.9593 2.39C94.2753 2.39 95.5353 2.376 96.7393 2.348C97.9433 2.32 98.7973 2.306 99.3013 2.306C102.689 2.306 105.223 3.006 106.903 4.406C108.583 5.806 109.423 7.542 109.423 9.614C109.423 10.454 109.255 11.35 108.919 12.302C108.583 13.254 107.995 14.15 107.155 14.99C106.343 15.83 105.223 16.53 103.795 17.09C102.367 17.622 100.561 17.888 98.3773 17.888H94.3453V17.048H97.9573C99.9453 17.048 101.457 16.74 102.493 16.124C103.557 15.48 104.271 14.64 104.635 13.604C105.027 12.54 105.223 11.364 105.223 10.076C105.223 7.864 104.691 6.156 103.627 4.952C102.591 3.72 100.799 3.104 98.2513 3.104C96.9633 3.104 96.1233 3.342 95.7313 3.818C95.3393 4.294 95.1433 5.26 95.1433 6.716V27.548C95.1433 28.556 95.2273 29.312 95.3953 29.816C95.5633 30.32 95.8853 30.656 96.3613 30.824C96.8653 30.992 97.5933 31.104 98.5453 31.16V32C97.9013 31.944 97.0893 31.916 96.1093 31.916C95.1573 31.888 94.1913 31.874 93.2113 31.874C92.1193 31.874 91.0973 31.888 90.1453 31.916C89.1933 31.916 88.4233 31.944 87.8353 32V31.16C88.7873 31.104 89.5013 30.992 89.9773 30.824C90.4813 30.656 90.8173 30.32 90.9853 29.816C91.1533 29.312 91.2373 28.556 91.2373 27.548V6.716C91.2373 5.68 91.1533 4.924 90.9853 4.448C90.8173 3.944 90.4813 3.608 89.9773 3.44C89.5013 3.244 88.7873 3.132 87.8353 3.104V2.264ZM94.5133 17.174C96.0253 17.23 97.2153 17.3 98.0833 17.384C98.9513 17.44 99.6513 17.496 100.183 17.552C100.743 17.608 101.275 17.678 101.779 17.762C103.655 18.07 104.999 18.644 105.811 19.484C106.651 20.296 107.267 21.57 107.659 23.306L108.709 27.59C108.989 28.822 109.269 29.718 109.549 30.278C109.857 30.81 110.319 31.062 110.935 31.034C111.411 31.006 111.803 30.852 112.111 30.572C112.447 30.292 112.797 29.914 113.161 29.438L113.791 29.9C113.203 30.768 112.587 31.44 111.943 31.916C111.327 32.364 110.445 32.588 109.297 32.588C108.261 32.588 107.351 32.28 106.567 31.664C105.783 31.048 105.195 29.844 104.803 28.052L103.879 23.852C103.627 22.648 103.333 21.612 102.997 20.744C102.689 19.848 102.241 19.148 101.653 18.644C101.093 18.14 100.253 17.888 99.1333 17.888H94.5973L94.5133 17.174ZM137.883 2.264C137.771 3.328 137.687 4.364 137.631 5.372C137.603 6.352 137.589 7.108 137.589 7.64C137.589 8.312 137.603 8.942 137.631 9.53C137.659 10.118 137.687 10.636 137.715 11.084H136.749C136.553 9.124 136.287 7.584 135.951 6.464C135.615 5.316 135.027 4.49 134.187 3.986C133.347 3.482 132.045 3.23 130.281 3.23H128.013V27.128C128.013 28.248 128.111 29.088 128.307 29.648C128.531 30.208 128.951 30.586 129.567 30.782C130.183 30.978 131.079 31.104 132.255 31.16V32C131.527 31.944 130.603 31.916 129.483 31.916C128.363 31.888 127.229 31.874 126.081 31.874C124.821 31.874 123.631 31.888 122.511 31.916C121.419 31.916 120.537 31.944 119.865 32V31.16C121.041 31.104 121.937 30.978 122.553 30.782C123.169 30.586 123.575 30.208 123.771 29.648C123.995 29.088 124.107 28.248 124.107 27.128V3.23H121.839C120.103 3.23 118.801 3.482 117.933 3.986C117.093 4.49 116.505 5.316 116.169 6.464C115.833 7.584 115.567 9.124 115.371 11.084H114.405C114.461 10.636 114.489 10.118 114.489 9.53C114.517 8.942 114.531 8.312 114.531 7.64C114.531 7.108 114.503 6.352 114.447 5.372C114.419 4.364 114.349 3.328 114.237 2.264C115.413 2.292 116.687 2.32 118.059 2.348C119.459 2.376 120.859 2.39 122.259 2.39C123.659 2.39 124.933 2.39 126.081 2.39C127.229 2.39 128.489 2.39 129.861 2.39C131.261 2.39 132.661 2.376 134.061 2.348C135.461 2.32 136.735 2.292 137.883 2.264ZM171.84 2.264V3.104C171.308 3.216 170.776 3.566 170.244 4.154C169.712 4.714 169.124 5.61 168.48 6.842L159.996 23.642H159.282L149.454 5.498C148.894 4.462 148.418 3.818 148.026 3.566C147.662 3.286 147.326 3.146 147.018 3.146V2.264C147.578 2.292 148.152 2.32 148.74 2.348C149.356 2.376 150.014 2.39 150.714 2.39C151.638 2.39 152.618 2.39 153.654 2.39C154.718 2.362 155.698 2.32 156.594 2.264V3.146C155.894 3.146 155.278 3.23 154.746 3.398C154.214 3.566 153.864 3.874 153.696 4.322C153.528 4.77 153.654 5.4 154.074 6.212L161.172 19.82L160.836 20.072L166.422 8.942C167.206 7.402 167.584 6.212 167.556 5.372C167.556 4.532 167.234 3.958 166.59 3.65C165.946 3.314 165.036 3.132 163.86 3.104V2.264C164.672 2.292 165.498 2.32 166.338 2.348C167.178 2.376 167.962 2.39 168.69 2.39C169.418 2.39 170.02 2.376 170.496 2.348C170.972 2.32 171.42 2.292 171.84 2.264ZM161.886 19.232V27.548C161.886 28.556 161.97 29.312 162.138 29.816C162.306 30.32 162.628 30.656 163.104 30.824C163.608 30.992 164.336 31.104 165.288 31.16V32C164.644 31.944 163.832 31.916 162.852 31.916C161.9 31.888 160.934 31.874 159.954 31.874C158.862 31.874 157.84 31.888 156.888 31.916C155.936 31.916 155.166 31.944 154.578 32V31.16C155.53 31.104 156.244 30.992 156.72 30.824C157.224 30.656 157.56 30.32 157.728 29.816C157.896 29.312 157.98 28.556 157.98 27.548V18.938L160.248 21.542L161.886 19.232ZM200.238 7.59333C201.047 8.34 201.451 9.50667 201.451 11.0933C201.451 12.68 201.047 14.5156 200.238 16.6C199.46 18.6844 198.325 20.8 196.831 22.9467C195.369 25.0622 193.705 27.0222 191.838 28.8267C189.971 30.6311 187.825 32.1089 185.398 33.26C183.002 34.4111 180.591 34.9867 178.165 34.9867C176.049 34.9867 174.447 34.3489 173.358 33.0733C172.3 31.8289 171.771 30.1178 171.771 27.94C171.771 26.0422 172.16 23.9578 172.938 21.6867C173.747 19.4156 174.898 17.16 176.391 14.92C177.916 12.68 179.642 10.6422 181.571 8.80667C183.531 6.94 185.787 5.44667 188.338 4.32667C190.92 3.17556 193.549 2.6 196.225 2.6C197.625 2.6 198.682 2.92667 199.398 3.58C200.145 4.23333 200.518 5.07333 200.518 6.1C200.518 6.59778 200.425 7.09556 200.238 7.59333ZM178.211 34.52C180.078 34.52 181.96 34.0844 183.858 33.2133C185.787 32.3422 187.545 31.2067 189.131 29.8067C190.718 28.4067 192.211 26.82 193.611 25.0467C195.011 23.2733 196.178 21.4844 197.111 19.68C198.076 17.8756 198.838 16.1489 199.398 14.5C199.958 12.82 200.238 11.3733 200.238 10.16C200.238 9.44444 200.129 8.83778 199.911 8.34C199.32 9.55333 198.34 10.5644 196.971 11.3733C195.602 12.1511 193.985 12.54 192.118 12.54C190.842 12.54 189.754 12.3378 188.851 11.9333C187.171 13.6133 185.787 15.4333 184.698 17.3933C183.609 19.3222 183.065 20.9089 183.065 22.1533C183.065 23.5533 183.687 24.2689 184.931 24.3C185.74 24.3 186.502 23.9422 187.218 23.2267C187.934 22.48 188.338 21.7178 188.431 20.94C188.462 20.8467 188.478 20.7689 188.478 20.7067C188.478 20.4889 188.525 20.3956 188.618 20.4267C188.68 20.4267 188.727 20.4578 188.758 20.52C188.758 20.6133 188.711 20.7067 188.618 20.8C188.556 20.8933 188.525 20.94 188.525 20.94C188.462 21.78 188.074 22.5578 187.358 23.2733C186.642 23.9889 185.834 24.3622 184.931 24.3933H184.885C183.92 24.3622 183.189 24.0667 182.691 23.5067C182.225 22.9467 181.991 22.1689 181.991 21.1733C181.991 19.7111 182.489 18.0311 183.485 16.1333C184.511 14.2044 185.849 12.4933 187.498 11C186.782 10.2844 186.471 9.35111 186.565 8.2H186.611C186.518 9.35111 186.829 10.2689 187.545 10.9533C188.571 10.0511 189.645 9.30444 190.765 8.71333C193.254 7.40667 195.571 6.75333 197.718 6.75333C198.558 6.75333 199.274 6.94 199.865 7.31333C199.989 6.84667 200.051 6.39556 200.051 5.96C200.051 5.05778 199.725 4.31111 199.071 3.72C198.418 3.12889 197.454 2.83333 196.178 2.83333C193.845 2.83333 191.496 3.44 189.131 4.65333C186.798 5.86667 184.714 7.45333 182.878 9.41333C181.074 11.3422 179.44 13.4578 177.978 15.76C176.547 18.0622 175.442 20.3644 174.665 22.6667C173.918 24.9689 173.545 27.0378 173.545 28.8733C173.545 30.6156 173.918 31.9844 174.665 32.98C175.442 34.0067 176.625 34.52 178.211 34.52ZM199.631 7.87333C199.227 7.28222 198.636 6.98667 197.858 6.98667C195.089 6.98667 192.102 8.60444 188.898 11.84C189.707 12.1822 190.671 12.3533 191.791 12.3533C193.689 12.3533 195.338 11.9178 196.738 11.0467C198.138 10.1756 199.102 9.11778 199.631 7.87333ZM225.267 2.264V3.104C224.315 3.132 223.587 3.272 223.083 3.524C222.607 3.776 222.285 4.182 222.117 4.742C221.949 5.302 221.865 6.1 221.865 7.136V19.778C221.865 21.738 221.739 23.446 221.487 24.902C221.235 26.358 220.787 27.618 220.143 28.682C219.443 29.858 218.421 30.81 217.077 31.538C215.733 32.238 214.193 32.588 212.457 32.588C211.113 32.588 209.825 32.42 208.593 32.084C207.389 31.776 206.325 31.188 205.401 30.32C204.589 29.536 203.945 28.71 203.469 27.842C203.021 26.974 202.713 25.91 202.545 24.65C202.377 23.39 202.293 21.808 202.293 19.904V6.716C202.293 5.68 202.209 4.924 202.041 4.448C201.873 3.944 201.537 3.608 201.033 3.44C200.557 3.244 199.843 3.132 198.891 3.104V2.264C199.479 2.292 200.249 2.32 201.201 2.348C202.153 2.376 203.175 2.39 204.267 2.39C205.247 2.39 206.213 2.376 207.165 2.348C208.145 2.32 208.957 2.292 209.601 2.264V3.104C208.649 3.132 207.921 3.244 207.417 3.44C206.941 3.608 206.619 3.944 206.451 4.448C206.283 4.924 206.199 5.68 206.199 6.716V20.618C206.199 22.522 206.339 24.272 206.619 25.868C206.899 27.464 207.501 28.738 208.425 29.69C209.377 30.642 210.847 31.118 212.835 31.118C214.963 31.118 216.601 30.656 217.749 29.732C218.925 28.78 219.737 27.478 220.185 25.826C220.661 24.174 220.899 22.312 220.899 20.24V7.136C220.899 6.1 220.773 5.302 220.521 4.742C220.297 4.182 219.905 3.776 219.345 3.524C218.785 3.272 218.029 3.132 217.077 3.104V2.264C217.581 2.292 218.239 2.32 219.051 2.348C219.891 2.376 220.661 2.39 221.361 2.39C222.089 2.39 222.803 2.376 223.503 2.348C224.231 2.32 224.819 2.292 225.267 2.264ZM228.15 2.264C228.738 2.292 229.508 2.32 230.46 2.348C231.412 2.376 232.35 2.39 233.274 2.39C234.59 2.39 235.85 2.376 237.054 2.348C238.258 2.32 239.112 2.306 239.616 2.306C243.004 2.306 245.538 3.006 247.218 4.406C248.898 5.806 249.738 7.542 249.738 9.614C249.738 10.454 249.57 11.35 249.234 12.302C248.898 13.254 248.31 14.15 247.47 14.99C246.658 15.83 245.538 16.53 244.11 17.09C242.682 17.622 240.876 17.888 238.692 17.888H234.66V17.048H238.272C240.26 17.048 241.772 16.74 242.808 16.124C243.872 15.48 244.586 14.64 244.95 13.604C245.342 12.54 245.538 11.364 245.538 10.076C245.538 7.864 245.006 6.156 243.942 4.952C242.906 3.72 241.114 3.104 238.566 3.104C237.278 3.104 236.438 3.342 236.046 3.818C235.654 4.294 235.458 5.26 235.458 6.716V27.548C235.458 28.556 235.542 29.312 235.71 29.816C235.878 30.32 236.2 30.656 236.676 30.824C237.18 30.992 237.908 31.104 238.86 31.16V32C238.216 31.944 237.404 31.916 236.424 31.916C235.472 31.888 234.506 31.874 233.526 31.874C232.434 31.874 231.412 31.888 230.46 31.916C229.508 31.916 228.738 31.944 228.15 32V31.16C229.102 31.104 229.816 30.992 230.292 30.824C230.796 30.656 231.132 30.32 231.3 29.816C231.468 29.312 231.552 28.556 231.552 27.548V6.716C231.552 5.68 231.468 4.924 231.3 4.448C231.132 3.944 230.796 3.608 230.292 3.44C229.816 3.244 229.102 3.132 228.15 3.104V2.264ZM234.828 17.174C236.34 17.23 237.53 17.3 238.398 17.384C239.266 17.44 239.966 17.496 240.498 17.552C241.058 17.608 241.59 17.678 242.094 17.762C243.97 18.07 245.314 18.644 246.126 19.484C246.966 20.296 247.582 21.57 247.974 23.306L249.024 27.59C249.304 28.822 249.584 29.718 249.864 30.278C250.172 30.81 250.634 31.062 251.25 31.034C251.726 31.006 252.118 30.852 252.426 30.572C252.762 30.292 253.112 29.914 253.476 29.438L254.106 29.9C253.518 30.768 252.902 31.44 252.258 31.916C251.642 32.364 250.76 32.588 249.612 32.588C248.576 32.588 247.666 32.28 246.882 31.664C246.098 31.048 245.51 29.844 245.118 28.052L244.194 23.852C243.942 22.648 243.648 21.612 243.312 20.744C243.004 19.848 242.556 19.148 241.968 18.644C241.408 18.14 240.568 17.888 239.448 17.888H234.912L234.828 17.174ZM72.5291 40.1333C72.9025 40.1333 73.198 40.2578 73.4158 40.5067C73.6336 40.7556 73.7113 41.16 73.6491 41.72C73.5869 42.3111 72.9958 43.4311 71.8758 45.08C70.7558 46.7289 69.418 48.6111 67.8624 50.7267C66.3069 52.8111 64.7513 54.9578 63.1958 57.1667C61.6402 59.3756 60.2713 61.5689 59.0891 63.7467C57.9069 65.8933 57.238 67.62 57.0824 68.9267C57.0202 69.4556 56.9891 69.9533 56.9891 70.42C56.9891 72.8467 57.8602 74.06 59.6024 74.06C60.5669 74.06 61.4847 73.7644 62.3558 73.1733C63.2269 72.6133 63.9113 71.7889 64.4091 70.7H64.4558C63.6158 73.0022 61.998 74.1533 59.6024 74.1533C58.8247 74.1533 58.1402 73.9667 57.5491 73.5933C56.9891 73.2511 56.5691 72.7844 56.2891 72.1933C56.0091 71.6333 55.8069 71.0733 55.6824 70.5133C55.558 69.9533 55.4958 69.3933 55.4958 68.8333C55.4958 68.5533 55.5113 68.2889 55.5424 68.04C55.7291 66.3911 56.4447 64.4156 57.6891 62.1133C58.9336 59.8111 60.3647 57.5556 61.9825 55.3467C63.6002 53.1378 65.218 51.0222 66.8358 49C68.4536 46.9778 69.8224 45.2044 70.9425 43.68C72.0936 42.1556 72.7002 41.1289 72.7624 40.6C72.7936 40.3822 72.7158 40.2733 72.5291 40.2733C71.7824 40.2733 70.0091 41.8133 67.2091 44.8933C64.4402 47.9733 61.578 51.3644 58.6224 55.0667C55.698 58.7378 52.9291 62.1133 50.3158 65.1933C47.7024 68.2422 46.178 69.7667 45.7424 69.7667C45.5558 69.7667 45.3691 69.6422 45.1824 69.3933C45.0269 69.1444 44.9491 68.8178 44.9491 68.4133C44.9491 67.4489 45.618 65.94 46.9558 63.8867C48.2936 61.8022 49.9269 59.5933 51.8558 57.26C53.7847 54.9267 55.7136 52.64 57.6424 50.4C59.5713 48.1289 61.2358 46.0911 62.6358 44.2867C64.0358 42.4822 64.7669 41.2689 64.8291 40.6467C64.8602 40.3978 64.7669 40.2733 64.5491 40.2733C64.0513 40.2733 63.2736 40.7711 62.2158 41.7667C61.1891 42.7311 60.0069 44.0222 58.6691 45.64C57.3313 47.2578 55.7758 49.0933 54.0024 51.1467C52.2602 53.1689 50.4558 55.2533 48.5891 57.4C46.7224 59.5467 44.6847 61.6467 42.4758 63.7C40.298 65.7222 38.1358 67.5422 35.9891 69.16C33.8736 70.7467 31.6336 72.0222 29.2691 72.9867C26.9358 73.9822 24.7269 74.48 22.6424 74.48C20.0913 74.48 18.178 73.8733 16.9024 72.66C15.658 71.4467 15.0358 69.86 15.0358 67.9C15.0358 66.5311 15.3158 65.1 15.8758 63.6067C16.4669 62.0822 17.338 60.6044 18.4891 59.1733C19.6713 57.7422 21.0247 56.4511 22.5491 55.3C24.0736 54.1489 25.8624 53.2311 27.9158 52.5467C30.0002 51.8311 32.1624 51.4733 34.4024 51.4733C36.3624 51.4733 37.8247 51.8467 38.7891 52.5933C39.7536 53.34 40.2358 54.3356 40.2358 55.58C40.2358 56.6689 39.878 57.82 39.1624 59.0333C38.478 60.2467 37.5602 61.3667 36.4091 62.3933C35.2891 63.42 33.9047 64.2756 32.2558 64.96C30.6069 65.6444 28.9113 65.9867 27.1691 65.9867C26.0802 65.9867 25.1158 65.7844 24.2758 65.38C23.4358 64.9444 23.0624 64.3533 23.1558 63.6067L23.2491 63.56C23.3113 63.9022 23.4669 64.1667 23.7158 64.3533C23.9647 64.54 24.2913 64.68 24.6958 64.7733C25.1313 64.8356 25.4891 64.8822 25.7691 64.9133C26.0491 64.9133 26.4224 64.9133 26.8891 64.9133C26.9824 64.9133 27.0602 64.9133 27.1224 64.9133C28.8336 64.9133 30.498 64.6022 32.1158 63.98C33.7647 63.3578 35.1491 62.58 36.2691 61.6467C37.4202 60.6822 38.338 59.6556 39.0224 58.5667C39.7069 57.4467 40.0491 56.3889 40.0491 55.3933C40.0491 54.2733 39.5824 53.3711 38.6491 52.6867C37.7158 52.0022 36.3002 51.66 34.4024 51.66C31.8202 51.66 29.3313 52.1578 26.9358 53.1533C24.5402 54.1489 22.5491 55.4089 20.9624 56.9333C19.3758 58.4267 18.1158 60.0444 17.1824 61.7867C16.2491 63.5289 15.7824 65.1933 15.7824 66.78C15.7824 68.4911 16.3736 69.8756 17.5558 70.9333C18.738 71.9911 20.5269 72.52 22.9224 72.52C25.4736 72.52 28.118 71.9133 30.8558 70.7C33.6247 69.5178 36.2069 67.9778 38.6024 66.08C41.0291 64.1822 43.4091 62.0822 45.7424 59.78C48.1069 57.4778 50.2691 55.1756 52.2291 52.8733C54.2202 50.5711 56.0091 48.4711 57.5958 46.5733C59.2136 44.6444 60.6291 43.0889 61.8425 41.9067C63.0558 40.7244 63.958 40.1333 64.5491 40.1333C64.7358 40.1333 64.9069 40.2111 65.0624 40.3667C65.2491 40.4911 65.3424 40.7089 65.3424 41.02C65.3424 41.7978 64.6891 43.1978 63.3824 45.22C62.0758 47.2111 60.4736 49.4356 58.5758 51.8933C56.7091 54.32 54.8269 56.7311 52.9291 59.1267C51.0313 61.5222 49.3669 63.6689 47.9358 65.5667C46.5047 67.4644 45.7113 68.6933 45.5558 69.2533C45.5247 69.4711 45.5869 69.58 45.7424 69.58C46.1469 69.58 47.6402 68.0556 50.2224 65.0067C52.8358 61.9267 55.6047 58.5511 58.5291 54.88C61.4847 51.1778 64.3624 47.8022 67.1625 44.7533C69.9625 41.6733 71.7513 40.1333 72.5291 40.1333ZM95.1966 40.264C95.0846 41.244 95.0006 42.196 94.9446 43.12C94.9166 44.044 94.9026 44.744 94.9026 45.22C94.9026 45.724 94.9166 46.214 94.9446 46.69C94.9726 47.138 95.0006 47.516 95.0286 47.824H94.0626C93.8946 46.172 93.6566 44.87 93.3486 43.918C93.0406 42.938 92.5086 42.252 91.7526 41.86C91.0246 41.44 89.9186 41.23 88.4346 41.23H84.9486C83.9966 41.23 83.2686 41.314 82.7646 41.482C82.2886 41.622 81.9666 41.944 81.7986 42.448C81.6306 42.924 81.5466 43.68 81.5466 44.716V65.548C81.5466 66.556 81.6306 67.312 81.7986 67.816C81.9666 68.32 82.2886 68.656 82.7646 68.824C83.2686 68.964 83.9966 69.034 84.9486 69.034H88.0146C89.7786 69.034 91.1086 68.796 92.0046 68.32C92.9286 67.844 93.5866 67.074 93.9786 66.01C94.3986 64.918 94.7066 63.448 94.9026 61.6H95.8686C95.7846 62.356 95.7426 63.364 95.7426 64.624C95.7426 65.156 95.7566 65.926 95.7846 66.934C95.8406 67.914 95.9246 68.936 96.0366 70C94.6086 69.944 92.9986 69.916 91.2066 69.916C89.4146 69.888 87.8186 69.874 86.4186 69.874C85.5786 69.874 84.4586 69.874 83.0586 69.874C81.6866 69.874 80.2166 69.888 78.6486 69.916C77.0806 69.916 75.6106 69.944 74.2386 70V69.16C75.1906 69.104 75.9046 68.992 76.3806 68.824C76.8846 68.656 77.2206 68.32 77.3886 67.816C77.5566 67.312 77.6406 66.556 77.6406 65.548V44.716C77.6406 43.68 77.5566 42.924 77.3886 42.448C77.2206 41.944 76.8846 41.608 76.3806 41.44C75.9046 41.244 75.1906 41.132 74.2386 41.104V40.264C75.6106 40.292 77.0806 40.32 78.6486 40.348C80.2166 40.376 81.6866 40.39 83.0586 40.39C84.4586 40.39 85.5786 40.39 86.4186 40.39C87.7066 40.39 89.1626 40.39 90.7866 40.39C92.4386 40.362 93.9086 40.32 95.1966 40.264ZM87.9726 54.628C87.9726 54.628 87.9726 54.768 87.9726 55.048C87.9726 55.328 87.9726 55.468 87.9726 55.468H80.2866C80.2866 55.468 80.2866 55.328 80.2866 55.048C80.2866 54.768 80.2866 54.628 80.2866 54.628H87.9726ZM89.1906 49.084C89.0786 50.68 89.0226 51.898 89.0226 52.738C89.0506 53.578 89.0646 54.348 89.0646 55.048C89.0646 55.748 89.0786 56.518 89.1066 57.358C89.1346 58.198 89.2046 59.416 89.3166 61.012H88.3506C88.2386 60.116 88.0986 59.248 87.9306 58.408C87.7906 57.54 87.4546 56.84 86.9226 56.308C86.4186 55.748 85.5506 55.468 84.3186 55.468V54.628C85.5506 54.628 86.4046 54.306 86.8806 53.662C87.3846 53.018 87.7066 52.262 87.8466 51.394C87.9866 50.526 88.1126 49.756 88.2246 49.084H89.1906ZM110.542 40.264V41.104C109.59 41.132 108.862 41.244 108.358 41.44C107.882 41.608 107.56 41.944 107.392 42.448C107.224 42.924 107.14 43.68 107.14 44.716V65.548C107.14 66.556 107.224 67.312 107.392 67.816C107.56 68.32 107.882 68.656 108.358 68.824C108.862 68.964 109.59 69.034 110.542 69.034H113.608C115.372 69.034 116.702 68.782 117.598 68.278C118.522 67.774 119.18 66.948 119.572 65.8C119.992 64.652 120.3 63.112 120.496 61.18H121.462C121.378 62.048 121.336 63.196 121.336 64.624C121.336 65.156 121.35 65.926 121.378 66.934C121.434 67.914 121.518 68.936 121.63 70C120.202 69.944 118.592 69.916 116.8 69.916C115.008 69.888 113.412 69.874 112.012 69.874C111.172 69.874 110.052 69.874 108.652 69.874C107.28 69.874 105.81 69.888 104.242 69.916C102.674 69.916 101.204 69.944 99.8324 70V69.16C100.784 69.104 101.498 68.992 101.974 68.824C102.478 68.656 102.814 68.32 102.982 67.816C103.15 67.312 103.234 66.556 103.234 65.548V44.716C103.234 43.68 103.15 42.924 102.982 42.448C102.814 41.944 102.478 41.608 101.974 41.44C101.498 41.244 100.784 41.132 99.8324 41.104V40.264C100.42 40.292 101.19 40.32 102.142 40.348C103.094 40.376 104.116 40.39 105.208 40.39C106.188 40.39 107.154 40.376 108.106 40.348C109.086 40.32 109.898 40.292 110.542 40.264ZM138.342 39.676C141.002 39.676 143.326 40.278 145.314 41.482C147.33 42.686 148.884 44.422 149.976 46.69C151.096 48.93 151.656 51.66 151.656 54.88C151.656 58.016 151.082 60.76 149.934 63.112C148.814 65.464 147.246 67.298 145.23 68.614C143.214 69.93 140.904 70.588 138.3 70.588C135.64 70.588 133.302 69.986 131.286 68.782C129.298 67.578 127.744 65.842 126.624 63.574C125.532 61.306 124.986 58.576 124.986 55.384C124.986 52.248 125.56 49.504 126.708 47.152C127.856 44.8 129.424 42.966 131.412 41.65C133.428 40.334 135.738 39.676 138.342 39.676ZM138.174 40.432C136.354 40.432 134.772 41.062 133.428 42.322C132.084 43.582 131.034 45.318 130.278 47.53C129.55 49.742 129.186 52.304 129.186 55.216C129.186 58.184 129.592 60.774 130.404 62.986C131.244 65.17 132.364 66.864 133.764 68.068C135.192 69.244 136.76 69.832 138.468 69.832C140.288 69.832 141.87 69.202 143.214 67.942C144.558 66.682 145.594 64.946 146.322 62.734C147.078 60.494 147.456 57.932 147.456 55.048C147.456 52.052 147.036 49.462 146.196 47.278C145.384 45.094 144.278 43.414 142.878 42.238C141.478 41.034 139.91 40.432 138.174 40.432ZM166.793 40.264C171.805 40.264 175.529 41.524 177.965 44.044C180.401 46.536 181.619 50.12 181.619 54.796C181.619 57.848 181.017 60.522 179.812 62.818C178.637 65.086 176.915 66.85 174.647 68.11C172.379 69.37 169.635 70 166.415 70C165.799 70 164.889 69.986 163.685 69.958C162.481 69.902 161.431 69.874 160.535 69.874C159.555 69.874 158.589 69.888 157.637 69.916C156.685 69.916 155.915 69.944 155.327 70V69.16C156.279 69.104 156.993 68.992 157.469 68.824C157.973 68.656 158.309 68.32 158.477 67.816C158.645 67.312 158.729 66.556 158.729 65.548V44.716C158.729 43.68 158.645 42.924 158.477 42.448C158.309 41.944 157.973 41.608 157.469 41.44C156.993 41.244 156.279 41.132 155.327 41.104V40.264C155.915 40.292 156.685 40.334 157.637 40.39C158.589 40.418 159.527 40.418 160.451 40.39C161.431 40.362 162.537 40.334 163.769 40.306C165.001 40.278 166.009 40.264 166.793 40.264ZM165.743 41.02C164.455 41.02 163.615 41.258 163.223 41.734C162.831 42.21 162.635 43.176 162.635 44.632V65.632C162.635 67.088 162.831 68.054 163.223 68.53C163.643 69.006 164.497 69.244 165.785 69.244C168.837 69.244 171.203 68.698 172.883 67.606C174.563 66.486 175.739 64.862 176.411 62.734C177.083 60.606 177.419 58.016 177.419 54.964C177.419 50.26 176.551 46.76 174.815 44.464C173.107 42.168 170.083 41.02 165.743 41.02ZM196.019 40.264V41.104C195.067 41.132 194.339 41.244 193.835 41.44C193.359 41.608 193.037 41.944 192.869 42.448C192.701 42.924 192.617 43.68 192.617 44.716V65.548C192.617 66.556 192.701 67.312 192.869 67.816C193.037 68.32 193.359 68.656 193.835 68.824C194.339 68.992 195.067 69.104 196.019 69.16V70C195.375 69.944 194.563 69.916 193.583 69.916C192.631 69.888 191.665 69.874 190.685 69.874C189.593 69.874 188.571 69.888 187.619 69.916C186.667 69.916 185.897 69.944 185.309 70V69.16C186.261 69.104 186.975 68.992 187.451 68.824C187.955 68.656 188.291 68.32 188.459 67.816C188.627 67.312 188.711 66.556 188.711 65.548V44.716C188.711 43.68 188.627 42.924 188.459 42.448C188.291 41.944 187.955 41.608 187.451 41.44C186.975 41.244 186.261 41.132 185.309 41.104V40.264C185.897 40.292 186.667 40.32 187.619 40.348C188.571 40.376 189.593 40.39 190.685 40.39C191.665 40.39 192.631 40.376 193.583 40.348C194.563 40.32 195.375 40.292 196.019 40.264ZM213.031 39.676C214.879 39.676 216.391 39.956 217.567 40.516C218.771 41.048 219.835 41.678 220.759 42.406C221.319 42.826 221.739 42.882 222.019 42.574C222.327 42.238 222.537 41.468 222.649 40.264H223.615C223.559 41.3 223.517 42.56 223.489 44.044C223.461 45.528 223.447 47.488 223.447 49.924H222.481C222.285 48.72 222.103 47.768 221.935 47.068C221.767 46.34 221.557 45.724 221.305 45.22C221.081 44.716 220.773 44.212 220.381 43.708C219.513 42.56 218.421 41.734 217.105 41.23C215.789 40.698 214.403 40.432 212.947 40.432C211.575 40.432 210.329 40.782 209.209 41.482C208.117 42.154 207.165 43.134 206.353 44.422C205.569 45.71 204.953 47.264 204.505 49.084C204.085 50.904 203.875 52.948 203.875 55.216C203.875 57.568 204.113 59.654 204.589 61.474C205.065 63.266 205.723 64.778 206.563 66.01C207.431 67.242 208.439 68.18 209.587 68.824C210.763 69.44 212.023 69.748 213.367 69.748C214.627 69.748 215.943 69.496 217.315 68.992C218.687 68.488 219.765 67.676 220.549 66.556C221.165 65.744 221.585 64.862 221.809 63.91C222.061 62.958 222.285 61.628 222.481 59.92H223.447C223.447 62.468 223.461 64.526 223.489 66.094C223.517 67.634 223.559 68.936 223.615 70H222.649C222.537 68.796 222.341 68.04 222.061 67.732C221.809 67.424 221.375 67.466 220.759 67.858C219.723 68.586 218.617 69.23 217.441 69.79C216.293 70.322 214.809 70.588 212.989 70.588C210.329 70.588 207.991 69.986 205.975 68.782C203.987 67.578 202.433 65.842 201.313 63.574C200.221 61.306 199.675 58.576 199.675 55.384C199.675 52.248 200.249 49.504 201.397 47.152C202.545 44.8 204.113 42.966 206.101 41.65C208.117 40.334 210.427 39.676 213.031 39.676ZM68.2435 79.7667C68.9902 79.7667 69.348 79.8911 69.3169 80.14C69.3169 80.2022 69.2858 80.2489 69.2235 80.28C69.068 80.4356 68.8035 80.5133 68.4302 80.5133C68.088 80.5133 67.7302 80.4356 67.3569 80.28C67.0769 80.1867 66.7035 80.2022 66.2369 80.3267C65.8013 80.42 65.1324 80.8556 64.2302 81.6333C63.328 82.4111 62.3946 83.5 61.4302 84.9C61.2124 85.2422 60.6835 86.2222 59.8435 87.84C60.1858 87.84 60.6835 87.8244 61.3369 87.7933C61.9591 87.7311 62.4569 87.7 62.8302 87.7C63.048 87.7 63.1569 87.7778 63.1569 87.9333C63.1569 88.0578 63.048 88.12 62.8302 88.12C62.3946 88.12 61.9902 88.12 61.6169 88.12C61.5235 88.12 61.2591 88.12 60.8235 88.12C60.388 88.0889 60.0146 88.0733 59.7035 88.0733C58.1169 91.0911 56.7013 93.6422 55.4569 95.7267C56.608 95.6956 57.8213 95.5556 59.0969 95.3067C60.1235 95.12 61.2124 94.8244 62.3635 94.42V94.5133C60.8702 95.1978 59.4858 95.6644 58.2102 95.9133C58.148 95.9444 58.0702 95.96 57.9769 95.96C56.9813 96.1467 56.0169 96.2556 55.0835 96.2867C46.4658 110.442 37.7702 117.52 28.9969 117.52C26.6635 117.52 24.9213 116.991 23.7702 115.933C22.6191 114.907 22.0435 113.522 22.0435 111.78C22.0435 110.411 22.3858 108.933 23.0702 107.347C23.7546 105.76 24.7346 104.204 26.0102 102.68C27.3169 101.156 28.8102 99.7711 30.4902 98.5267C32.1702 97.2511 34.1302 96.2244 36.3702 95.4467C38.6102 94.6689 40.8969 94.28 43.2302 94.28C45.0346 94.28 46.388 94.6378 47.2902 95.3533C48.1924 96.0689 48.6435 97.0022 48.6435 98.1533C48.6435 99.2111 48.2391 100.378 47.4302 101.653C46.6524 102.929 45.6258 104.111 44.3502 105.2C43.1058 106.289 41.5969 107.191 39.8235 107.907C38.0502 108.622 36.2613 108.98 34.4569 108.98C33.368 108.98 32.4191 108.778 31.6102 108.373C30.8013 107.969 30.4902 107.393 30.6769 106.647L30.7702 106.6C30.8013 106.911 30.9258 107.176 31.1435 107.393C31.3613 107.58 31.6724 107.72 32.0769 107.813C32.5124 107.876 32.8702 107.922 33.1502 107.953C33.4302 107.953 33.8035 107.953 34.2702 107.953C34.3946 107.953 34.4724 107.953 34.5035 107.953C36.2769 107.953 38.0346 107.627 39.7769 106.973C41.5502 106.289 43.0435 105.449 44.2569 104.453C45.5013 103.458 46.5124 102.384 47.2902 101.233C48.068 100.082 48.4569 99.0089 48.4569 98.0133C48.4569 97.0178 48.0213 96.2244 47.1502 95.6333C46.2791 95.0111 44.9569 94.7 43.1835 94.7C40.4769 94.7 37.8324 95.2444 35.2502 96.3333C32.6991 97.3911 30.5369 98.7133 28.7635 100.3C27.0213 101.887 25.6213 103.598 24.5635 105.433C23.4746 107.269 22.9302 108.964 22.9302 110.52C22.9302 112.044 23.4746 113.258 24.5635 114.16C25.6524 115.062 27.3013 115.513 29.5102 115.513C37.9102 115.513 46.2169 109.104 54.4302 96.2867C51.3502 96.2867 48.9702 95.5089 47.2902 93.9533C45.6413 92.3667 44.8169 90.4533 44.8169 88.2133C44.8169 86.9689 45.0658 85.7711 45.5635 84.62C46.0613 83.4689 46.7769 82.4111 47.7102 81.4467C48.6746 80.4822 49.9035 79.72 51.3969 79.16C52.8902 78.5689 54.5546 78.2733 56.3902 78.2733C57.3858 78.2733 59.0502 78.5533 61.3835 79.1133C63.7169 79.6733 65.4902 79.9533 66.7035 79.9533C67.2946 79.8289 67.808 79.7667 68.2435 79.7667ZM61.2435 84.76C62.9546 82.3333 64.4013 80.8244 65.5835 80.2333C64.6502 80.2022 63.1569 80.14 61.1035 80.0467C59.0813 79.9533 57.5413 79.9067 56.4835 79.9067C52.968 79.9067 50.1835 80.7778 48.1302 82.52C46.108 84.2311 45.0969 86.2067 45.0969 88.4467C45.0969 90.4689 45.9369 92.1956 47.6169 93.6267C49.2969 95.0267 51.708 95.7267 54.8502 95.7267C56.1569 93.6422 57.6502 91.0911 59.3302 88.0733C59.0502 88.0733 58.8013 88.0733 58.5835 88.0733C58.1169 88.0733 57.4013 88.0889 56.4369 88.12C55.6591 88.1511 55.1613 88.1667 54.9435 88.1667C54.6946 88.1667 54.5702 88.1044 54.5702 87.98C54.5702 87.8244 54.6946 87.7467 54.9435 87.7467C55.2235 87.7467 55.7524 87.7622 56.5302 87.7933C57.4635 87.8244 58.148 87.84 58.5835 87.84C58.8946 87.84 59.1746 87.84 59.4235 87.84C60.388 86.0978 60.9946 85.0711 61.2435 84.76ZM76.6748 77.676C79.3348 77.676 81.6588 78.278 83.6468 79.482C85.6628 80.686 87.2168 82.422 88.3088 84.69C89.4288 86.93 89.9888 89.66 89.9888 92.88C89.9888 96.016 89.4148 98.76 88.2668 101.112C87.1468 103.464 85.5788 105.298 83.5628 106.614C81.5468 107.93 79.2368 108.588 76.6328 108.588C73.9728 108.588 71.6348 107.986 69.6188 106.782C67.6308 105.578 66.0768 103.842 64.9568 101.574C63.8648 99.306 63.3188 96.576 63.3188 93.384C63.3188 90.248 63.8928 87.504 65.0408 85.152C66.1888 82.8 67.7568 80.966 69.7448 79.65C71.7608 78.334 74.0708 77.676 76.6748 77.676ZM76.5068 78.432C74.6868 78.432 73.1048 79.062 71.7608 80.322C70.4168 81.582 69.3668 83.318 68.6108 85.53C67.8828 87.742 67.5188 90.304 67.5188 93.216C67.5188 96.184 67.9248 98.774 68.7368 100.986C69.5768 103.17 70.6968 104.864 72.0968 106.068C73.5248 107.244 75.0928 107.832 76.8008 107.832C78.6208 107.832 80.2028 107.202 81.5468 105.942C82.8908 104.682 83.9268 102.946 84.6548 100.734C85.4108 98.494 85.7888 95.932 85.7888 93.048C85.7888 90.052 85.3688 87.462 84.5288 85.278C83.7168 83.094 82.6108 81.414 81.2108 80.238C79.8108 79.034 78.2428 78.432 76.5068 78.432ZM119.488 78.264V79.104C118.536 79.132 117.808 79.272 117.304 79.524C116.828 79.776 116.506 80.182 116.338 80.742C116.17 81.302 116.086 82.1 116.086 83.136V95.778C116.086 97.738 115.96 99.446 115.708 100.902C115.456 102.358 115.008 103.618 114.364 104.682C113.664 105.858 112.642 106.81 111.298 107.538C109.954 108.238 108.414 108.588 106.678 108.588C105.334 108.588 104.046 108.42 102.814 108.084C101.61 107.776 100.546 107.188 99.6215 106.32C98.8095 105.536 98.1655 104.71 97.6895 103.842C97.2415 102.974 96.9335 101.91 96.7655 100.65C96.5975 99.39 96.5135 97.808 96.5135 95.904V82.716C96.5135 81.68 96.4295 80.924 96.2615 80.448C96.0935 79.944 95.7575 79.608 95.2535 79.44C94.7775 79.244 94.0635 79.132 93.1115 79.104V78.264C93.6995 78.292 94.4695 78.32 95.4215 78.348C96.3735 78.376 97.3955 78.39 98.4875 78.39C99.4675 78.39 100.434 78.376 101.386 78.348C102.366 78.32 103.178 78.292 103.822 78.264V79.104C102.87 79.132 102.142 79.244 101.638 79.44C101.162 79.608 100.84 79.944 100.672 80.448C100.504 80.924 100.42 81.68 100.42 82.716V96.618C100.42 98.522 100.56 100.272 100.84 101.868C101.12 103.464 101.722 104.738 102.646 105.69C103.598 106.642 105.068 107.118 107.056 107.118C109.184 107.118 110.822 106.656 111.97 105.732C113.146 104.78 113.958 103.478 114.406 101.826C114.882 100.174 115.12 98.312 115.12 96.24V83.136C115.12 82.1 114.994 81.302 114.742 80.742C114.518 80.182 114.126 79.776 113.566 79.524C113.006 79.272 112.25 79.132 111.298 79.104V78.264C111.802 78.292 112.46 78.32 113.272 78.348C114.112 78.376 114.882 78.39 115.582 78.39C116.31 78.39 117.024 78.376 117.724 78.348C118.452 78.32 119.04 78.292 119.488 78.264ZM122.37 78.264C122.958 78.292 123.728 78.32 124.68 78.348C125.632 78.376 126.57 78.39 127.494 78.39C128.81 78.39 130.07 78.376 131.274 78.348C132.478 78.32 133.332 78.306 133.836 78.306C137.224 78.306 139.758 79.006 141.438 80.406C143.118 81.806 143.958 83.542 143.958 85.614C143.958 86.454 143.79 87.35 143.454 88.302C143.118 89.254 142.53 90.15 141.69 90.99C140.878 91.83 139.758 92.53 138.33 93.09C136.902 93.622 135.096 93.888 132.912 93.888H128.88V93.048H132.492C134.48 93.048 135.992 92.74 137.028 92.124C138.092 91.48 138.806 90.64 139.17 89.604C139.562 88.54 139.758 87.364 139.758 86.076C139.758 83.864 139.226 82.156 138.162 80.952C137.126 79.72 135.334 79.104 132.786 79.104C131.498 79.104 130.658 79.342 130.266 79.818C129.874 80.294 129.678 81.26 129.678 82.716V103.548C129.678 104.556 129.762 105.312 129.93 105.816C130.098 106.32 130.42 106.656 130.896 106.824C131.4 106.992 132.128 107.104 133.08 107.16V108C132.436 107.944 131.624 107.916 130.644 107.916C129.692 107.888 128.726 107.874 127.746 107.874C126.654 107.874 125.632 107.888 124.68 107.916C123.728 107.916 122.958 107.944 122.37 108V107.16C123.322 107.104 124.036 106.992 124.512 106.824C125.016 106.656 125.352 106.32 125.52 105.816C125.688 105.312 125.772 104.556 125.772 103.548V82.716C125.772 81.68 125.688 80.924 125.52 80.448C125.352 79.944 125.016 79.608 124.512 79.44C124.036 79.244 123.322 79.132 122.37 79.104V78.264ZM129.048 93.174C130.56 93.23 131.75 93.3 132.618 93.384C133.486 93.44 134.186 93.496 134.718 93.552C135.278 93.608 135.81 93.678 136.314 93.762C138.19 94.07 139.534 94.644 140.346 95.484C141.186 96.296 141.802 97.57 142.194 99.306L143.244 103.59C143.524 104.822 143.804 105.718 144.084 106.278C144.392 106.81 144.854 107.062 145.47 107.034C145.946 107.006 146.338 106.852 146.646 106.572C146.982 106.292 147.332 105.914 147.696 105.438L148.326 105.9C147.738 106.768 147.122 107.44 146.478 107.916C145.862 108.364 144.98 108.588 143.832 108.588C142.796 108.588 141.886 108.28 141.102 107.664C140.318 107.048 139.73 105.844 139.338 104.052L138.414 99.852C138.162 98.648 137.868 97.612 137.532 96.744C137.224 95.848 136.776 95.148 136.188 94.644C135.628 94.14 134.788 93.888 133.668 93.888H129.132L129.048 93.174ZM175.981 78.264V79.104C175.029 79.132 174.301 79.272 173.797 79.524C173.321 79.776 172.999 80.182 172.831 80.742C172.663 81.302 172.579 82.1 172.579 83.136V108.21C172.411 108.21 172.243 108.21 172.075 108.21C171.935 108.21 171.781 108.21 171.613 108.21L153.973 80.952V103.128C153.973 104.136 154.057 104.934 154.225 105.522C154.421 106.082 154.785 106.488 155.317 106.74C155.877 106.964 156.703 107.104 157.795 107.16V108C157.291 107.944 156.633 107.916 155.821 107.916C155.009 107.888 154.239 107.874 153.511 107.874C152.811 107.874 152.097 107.888 151.369 107.916C150.669 107.916 150.081 107.944 149.605 108V107.16C150.557 107.104 151.271 106.964 151.747 106.74C152.251 106.488 152.587 106.082 152.755 105.522C152.923 104.934 153.007 104.136 153.007 103.128V82.716C153.007 81.68 152.923 80.924 152.755 80.448C152.587 79.944 152.251 79.608 151.747 79.44C151.271 79.244 150.557 79.132 149.605 79.104V78.264C150.081 78.292 150.669 78.32 151.369 78.348C152.097 78.376 152.811 78.39 153.511 78.39C154.127 78.39 154.715 78.376 155.275 78.348C155.835 78.32 156.339 78.292 156.787 78.264L171.613 101.112V83.136C171.613 82.1 171.515 81.302 171.319 80.742C171.151 80.182 170.787 79.776 170.227 79.524C169.695 79.272 168.883 79.132 167.791 79.104V78.264C168.295 78.292 168.953 78.32 169.765 78.348C170.605 78.376 171.375 78.39 172.075 78.39C172.803 78.39 173.517 78.376 174.217 78.348C174.945 78.32 175.533 78.292 175.981 78.264ZM200.217 78.264C200.105 79.244 200.021 80.196 199.965 81.12C199.937 82.044 199.923 82.744 199.923 83.22C199.923 83.724 199.937 84.214 199.965 84.69C199.993 85.138 200.021 85.516 200.049 85.824H199.083C198.915 84.172 198.677 82.87 198.369 81.918C198.061 80.938 197.529 80.252 196.773 79.86C196.045 79.44 194.939 79.23 193.455 79.23H189.969C189.017 79.23 188.289 79.314 187.785 79.482C187.309 79.622 186.987 79.944 186.819 80.448C186.651 80.924 186.567 81.68 186.567 82.716V103.548C186.567 104.556 186.651 105.312 186.819 105.816C186.987 106.32 187.309 106.656 187.785 106.824C188.289 106.964 189.017 107.034 189.969 107.034H193.035C194.799 107.034 196.129 106.796 197.025 106.32C197.949 105.844 198.607 105.074 198.999 104.01C199.419 102.918 199.727 101.448 199.923 99.6H200.889C200.805 100.356 200.763 101.364 200.763 102.624C200.763 103.156 200.777 103.926 200.805 104.934C200.861 105.914 200.945 106.936 201.057 108C199.629 107.944 198.019 107.916 196.227 107.916C194.435 107.888 192.839 107.874 191.439 107.874C190.599 107.874 189.479 107.874 188.079 107.874C186.707 107.874 185.237 107.888 183.669 107.916C182.101 107.916 180.631 107.944 179.259 108V107.16C180.211 107.104 180.925 106.992 181.401 106.824C181.905 106.656 182.241 106.32 182.409 105.816C182.577 105.312 182.661 104.556 182.661 103.548V82.716C182.661 81.68 182.577 80.924 182.409 80.448C182.241 79.944 181.905 79.608 181.401 79.44C180.925 79.244 180.211 79.132 179.259 79.104V78.264C180.631 78.292 182.101 78.32 183.669 78.348C185.237 78.376 186.707 78.39 188.079 78.39C189.479 78.39 190.599 78.39 191.439 78.39C192.727 78.39 194.183 78.39 195.807 78.39C197.459 78.362 198.929 78.32 200.217 78.264ZM192.993 92.628C192.993 92.628 192.993 92.768 192.993 93.048C192.993 93.328 192.993 93.468 192.993 93.468H185.307C185.307 93.468 185.307 93.328 185.307 93.048C185.307 92.768 185.307 92.628 185.307 92.628H192.993ZM194.211 87.084C194.099 88.68 194.043 89.898 194.043 90.738C194.071 91.578 194.085 92.348 194.085 93.048C194.085 93.748 194.099 94.518 194.127 95.358C194.155 96.198 194.225 97.416 194.337 99.012H193.371C193.259 98.116 193.119 97.248 192.951 96.408C192.811 95.54 192.475 94.84 191.943 94.308C191.439 93.748 190.571 93.468 189.339 93.468V92.628C190.571 92.628 191.425 92.306 191.901 91.662C192.405 91.018 192.727 90.262 192.867 89.394C193.007 88.526 193.133 87.756 193.245 87.084H194.211ZM227.785 78.264V79.104C227.253 79.216 226.721 79.566 226.189 80.154C225.657 80.714 225.069 81.61 224.425 82.842L215.941 99.642H215.227L205.399 81.498C204.839 80.462 204.363 79.818 203.971 79.566C203.607 79.286 203.271 79.146 202.963 79.146V78.264C203.523 78.292 204.097 78.32 204.685 78.348C205.301 78.376 205.959 78.39 206.659 78.39C207.583 78.39 208.563 78.39 209.599 78.39C210.663 78.362 211.643 78.32 212.539 78.264V79.146C211.839 79.146 211.223 79.23 210.691 79.398C210.159 79.566 209.809 79.874 209.641 80.322C209.473 80.77 209.599 81.4 210.019 82.212L217.117 95.82L216.781 96.072L222.367 84.942C223.151 83.402 223.529 82.212 223.501 81.372C223.501 80.532 223.179 79.958 222.535 79.65C221.891 79.314 220.981 79.132 219.805 79.104V78.264C220.617 78.292 221.443 78.32 222.283 78.348C223.123 78.376 223.907 78.39 224.635 78.39C225.363 78.39 225.965 78.376 226.441 78.348C226.917 78.32 227.365 78.292 227.785 78.264ZM217.831 95.232V103.548C217.831 104.556 217.915 105.312 218.083 105.816C218.251 106.32 218.573 106.656 219.049 106.824C219.553 106.992 220.281 107.104 221.233 107.16V108C220.589 107.944 219.777 107.916 218.797 107.916C217.845 107.888 216.879 107.874 215.899 107.874C214.807 107.874 213.785 107.888 212.833 107.916C211.881 107.916 211.111 107.944 210.523 108V107.16C211.475 107.104 212.189 106.992 212.665 106.824C213.169 106.656 213.505 106.32 213.673 105.816C213.841 105.312 213.925 104.556 213.925 103.548V94.938L216.193 97.542L217.831 95.232ZM85.6081 116.264C85.4961 117.328 85.4121 118.364 85.3561 119.372C85.3281 120.352 85.3141 121.108 85.3141 121.64C85.3141 122.312 85.3281 122.942 85.3561 123.53C85.3841 124.118 85.4121 124.636 85.4401 125.084H84.4741C84.2781 123.124 84.0121 121.584 83.6761 120.464C83.3401 119.316 82.7521 118.49 81.9121 117.986C81.0721 117.482 79.7701 117.23 78.0061 117.23H75.7381V141.128C75.7381 142.248 75.8361 143.088 76.0321 143.648C76.2561 144.208 76.6761 144.586 77.2921 144.782C77.9081 144.978 78.8041 145.104 79.9801 145.16V146C79.2521 145.944 78.3281 145.916 77.2081 145.916C76.0881 145.888 74.9541 145.874 73.8061 145.874C72.5461 145.874 71.3561 145.888 70.2361 145.916C69.1441 145.916 68.2621 145.944 67.5901 146V145.16C68.7661 145.104 69.6621 144.978 70.2781 144.782C70.8941 144.586 71.3001 144.208 71.4961 143.648C71.7201 143.088 71.8321 142.248 71.8321 141.128V117.23H69.5641C67.8281 117.23 66.5261 117.482 65.6581 117.986C64.8181 118.49 64.2301 119.316 63.8941 120.464C63.5581 121.584 63.2921 123.124 63.0961 125.084H62.1301C62.1861 124.636 62.2141 124.118 62.2141 123.53C62.2421 122.942 62.2561 122.312 62.2561 121.64C62.2561 121.108 62.2281 120.352 62.1721 119.372C62.1441 118.364 62.0741 117.328 61.9621 116.264C63.1381 116.292 64.4121 116.32 65.7841 116.348C67.1841 116.376 68.5841 116.39 69.9841 116.39C71.3841 116.39 72.6581 116.39 73.8061 116.39C74.9541 116.39 76.2141 116.39 77.5861 116.39C78.9861 116.39 80.3861 116.376 81.7861 116.348C83.1861 116.32 84.4601 116.292 85.6081 116.264ZM115.11 121.593C115.919 122.34 116.323 123.507 116.323 125.093C116.323 126.68 115.919 128.516 115.11 130.6C114.332 132.684 113.197 134.8 111.703 136.947C110.241 139.062 108.577 141.022 106.71 142.827C104.843 144.631 102.697 146.109 100.27 147.26C97.8745 148.411 95.4634 148.987 93.0367 148.987C90.9212 148.987 89.319 148.349 88.2301 147.073C87.1723 145.829 86.6434 144.118 86.6434 141.94C86.6434 140.042 87.0323 137.958 87.8101 135.687C88.619 133.416 89.7701 131.16 91.2634 128.92C92.7879 126.68 94.5145 124.642 96.4434 122.807C98.4034 120.94 100.659 119.447 103.21 118.327C105.792 117.176 108.421 116.6 111.097 116.6C112.497 116.6 113.555 116.927 114.27 117.58C115.017 118.233 115.39 119.073 115.39 120.1C115.39 120.598 115.297 121.096 115.11 121.593ZM93.0834 148.52C94.9501 148.52 96.8323 148.084 98.7301 147.213C100.659 146.342 102.417 145.207 104.003 143.807C105.59 142.407 107.083 140.82 108.483 139.047C109.883 137.273 111.05 135.484 111.983 133.68C112.948 131.876 113.71 130.149 114.27 128.5C114.83 126.82 115.11 125.373 115.11 124.16C115.11 123.444 115.001 122.838 114.783 122.34C114.192 123.553 113.212 124.564 111.843 125.373C110.475 126.151 108.857 126.54 106.99 126.54C105.715 126.54 104.626 126.338 103.723 125.933C102.043 127.613 100.659 129.433 99.5701 131.393C98.4812 133.322 97.9367 134.909 97.9367 136.153C97.9367 137.553 98.559 138.269 99.8034 138.3C100.612 138.3 101.375 137.942 102.09 137.227C102.806 136.48 103.21 135.718 103.303 134.94C103.335 134.847 103.35 134.769 103.35 134.707C103.35 134.489 103.397 134.396 103.49 134.427C103.552 134.427 103.599 134.458 103.63 134.52C103.63 134.613 103.583 134.707 103.49 134.8C103.428 134.893 103.397 134.94 103.397 134.94C103.335 135.78 102.946 136.558 102.23 137.273C101.515 137.989 100.706 138.362 99.8034 138.393H99.7567C98.7923 138.362 98.0612 138.067 97.5634 137.507C97.0967 136.947 96.8634 136.169 96.8634 135.173C96.8634 133.711 97.3612 132.031 98.3567 130.133C99.3834 128.204 100.721 126.493 102.37 125C101.655 124.284 101.343 123.351 101.437 122.2H101.483C101.39 123.351 101.701 124.269 102.417 124.953C103.443 124.051 104.517 123.304 105.637 122.713C108.126 121.407 110.443 120.753 112.59 120.753C113.43 120.753 114.146 120.94 114.737 121.313C114.861 120.847 114.923 120.396 114.923 119.96C114.923 119.058 114.597 118.311 113.943 117.72C113.29 117.129 112.326 116.833 111.05 116.833C108.717 116.833 106.368 117.44 104.003 118.653C101.67 119.867 99.5856 121.453 97.7501 123.413C95.9456 125.342 94.3123 127.458 92.8501 129.76C91.419 132.062 90.3145 134.364 89.5367 136.667C88.7901 138.969 88.4167 141.038 88.4167 142.873C88.4167 144.616 88.7901 145.984 89.5367 146.98C90.3145 148.007 91.4967 148.52 93.0834 148.52ZM114.503 121.873C114.099 121.282 113.508 120.987 112.73 120.987C109.961 120.987 106.975 122.604 103.77 125.84C104.579 126.182 105.543 126.353 106.663 126.353C108.561 126.353 110.21 125.918 111.61 125.047C113.01 124.176 113.975 123.118 114.503 121.873ZM125.859 116.264C130.871 116.264 134.595 117.524 137.031 120.044C139.467 122.536 140.685 126.12 140.685 130.796C140.685 133.848 140.083 136.522 138.879 138.818C137.703 141.086 135.981 142.85 133.713 144.11C131.445 145.37 128.701 146 125.481 146C124.865 146 123.955 145.986 122.751 145.958C121.547 145.902 120.497 145.874 119.601 145.874C118.621 145.874 117.655 145.888 116.703 145.916C115.751 145.916 114.981 145.944 114.393 146V145.16C115.345 145.104 116.059 144.992 116.535 144.824C117.039 144.656 117.375 144.32 117.543 143.816C117.711 143.312 117.795 142.556 117.795 141.548V120.716C117.795 119.68 117.711 118.924 117.543 118.448C117.375 117.944 117.039 117.608 116.535 117.44C116.059 117.244 115.345 117.132 114.393 117.104V116.264C114.981 116.292 115.751 116.334 116.703 116.39C117.655 116.418 118.593 116.418 119.517 116.39C120.497 116.362 121.603 116.334 122.835 116.306C124.067 116.278 125.075 116.264 125.859 116.264ZM124.809 117.02C123.521 117.02 122.681 117.258 122.289 117.734C121.897 118.21 121.701 119.176 121.701 120.632V141.632C121.701 143.088 121.897 144.054 122.289 144.53C122.709 145.006 123.563 145.244 124.851 145.244C127.903 145.244 130.269 144.698 131.949 143.606C133.629 142.486 134.805 140.862 135.477 138.734C136.149 136.606 136.485 134.016 136.485 130.964C136.485 126.26 135.617 122.76 133.881 120.464C132.173 118.168 129.149 117.02 124.809 117.02ZM155.644 116.054L165.892 142.472C166.312 143.536 166.788 144.25 167.32 144.614C167.852 144.95 168.342 145.132 168.79 145.16V146C168.23 145.944 167.544 145.916 166.732 145.916C165.92 145.888 165.108 145.874 164.296 145.874C163.204 145.874 162.182 145.888 161.23 145.916C160.278 145.916 159.508 145.944 158.92 146V145.16C160.348 145.104 161.258 144.866 161.65 144.446C162.042 143.998 161.958 143.06 161.398 141.632L153.586 120.758L154.258 120.212L146.95 139.196C146.362 140.708 146.082 141.898 146.11 142.766C146.138 143.606 146.46 144.208 147.076 144.572C147.692 144.936 148.588 145.132 149.764 145.16V146C148.98 145.944 148.154 145.916 147.286 145.916C146.446 145.888 145.662 145.874 144.934 145.874C144.234 145.874 143.632 145.888 143.128 145.916C142.652 145.916 142.204 145.944 141.784 146V145.16C142.344 145.02 142.918 144.698 143.506 144.194C144.094 143.662 144.626 142.766 145.102 141.506L154.972 116.054C155.084 116.054 155.196 116.054 155.308 116.054C155.42 116.054 155.532 116.054 155.644 116.054ZM160.768 133.904V134.744H148.252L148.672 133.904H160.768ZM191.137 116.264V117.104C190.605 117.216 190.073 117.566 189.541 118.154C189.009 118.714 188.421 119.61 187.777 120.842L179.293 137.642H178.579L168.751 119.498C168.191 118.462 167.715 117.818 167.323 117.566C166.959 117.286 166.623 117.146 166.315 117.146V116.264C166.875 116.292 167.449 116.32 168.037 116.348C168.653 116.376 169.311 116.39 170.011 116.39C170.935 116.39 171.915 116.39 172.951 116.39C174.015 116.362 174.995 116.32 175.891 116.264V117.146C175.191 117.146 174.575 117.23 174.043 117.398C173.511 117.566 173.161 117.874 172.993 118.322C172.825 118.77 172.951 119.4 173.371 120.212L180.469 133.82L180.133 134.072L185.719 122.942C186.503 121.402 186.881 120.212 186.853 119.372C186.853 118.532 186.531 117.958 185.887 117.65C185.243 117.314 184.333 117.132 183.157 117.104V116.264C183.969 116.292 184.795 116.32 185.635 116.348C186.475 116.376 187.259 116.39 187.987 116.39C188.715 116.39 189.317 116.376 189.793 116.348C190.269 116.32 190.717 116.292 191.137 116.264ZM181.183 133.232V141.548C181.183 142.556 181.267 143.312 181.435 143.816C181.603 144.32 181.925 144.656 182.401 144.824C182.905 144.992 183.633 145.104 184.585 145.16V146C183.941 145.944 183.129 145.916 182.149 145.916C181.197 145.888 180.231 145.874 179.251 145.874C178.159 145.874 177.137 145.888 176.185 145.916C175.233 145.916 174.463 145.944 173.875 146V145.16C174.827 145.104 175.541 144.992 176.017 144.824C176.521 144.656 176.857 144.32 177.025 143.816C177.193 143.312 177.277 142.556 177.277 141.548V132.938L179.545 135.542L181.183 133.232Z" fill="#A77E3D"/>
</svg>
