<svg viewBox="0 0 278 73" fill="none" xmlns="http://www.w3.org/2000/svg">
<path d="M38.4467 30.6267C38.3844 30.7511 38.3689 30.8756 38.4 31H29.9533C30.0156 30.8756 30.0311 30.7511 30 30.6267H33.8733C33.6244 30.3156 33.5311 29.9422 33.5933 29.5067C33.9356 27.2356 36.0978 23.2844 40.08 17.6533C39.7689 17.6533 39.3178 17.6533 38.7267 17.6533C37.8556 17.6533 36.9067 17.6378 35.88 17.6067C33.5778 20.0644 31.3689 22.2578 29.2533 24.1867C27.1378 26.0844 24.8511 27.9511 22.3933 29.7867C19.9356 31.5911 17.4622 32.9911 14.9733 33.9867C12.5156 34.9822 10.1822 35.48 7.97333 35.48C6.32444 35.48 4.92444 35.2 3.77333 34.64C2.65333 34.08 1.84444 33.3333 1.34667 32.4C0.848889 31.4978 0.6 30.4244 0.6 29.18C0.6 27.0333 1.33111 24.7622 2.79333 22.3667C4.25556 19.9711 6.23111 17.9178 8.72 16.2067C7.78667 15.0244 7.32 13.6556 7.32 12.1C7.32 10.9178 7.6 9.73556 8.16 8.55333C8.72 7.34 9.54444 6.18889 10.6333 5.1C11.7222 3.98 13.2156 3.07778 15.1133 2.39333C17.0422 1.70889 19.22 1.36667 21.6467 1.36667C23.3267 1.36667 25.1933 1.66222 27.2467 2.25333C29.3 2.84444 31.3222 3.43555 33.3133 4.02667C35.3044 4.61778 37.0778 4.91333 38.6333 4.91333C41.62 4.91333 44.7311 4.22889 47.9667 2.86L48.0133 2.95333C44.6844 4.35333 41.5578 5.05333 38.6333 5.05333C36.7667 5.05333 33.9511 4.63333 30.1867 3.79333C26.4533 2.95333 23.5756 2.53333 21.5533 2.53333C19.0956 2.53333 16.9178 2.84444 15.02 3.46667C13.1222 4.05778 11.6444 4.83555 10.5867 5.8C9.56 6.76444 8.78222 7.77555 8.25333 8.83333C7.72444 9.89111 7.46 10.9489 7.46 12.0067C7.46 13.5 8.00444 14.8067 9.09333 15.9267C12.6089 13.6244 16.4356 12.4733 20.5733 12.4733C22.4711 12.4733 23.8867 12.8311 24.82 13.5467C25.7533 14.2622 26.22 15.2267 26.22 16.44C26.22 17.4978 25.8622 18.6489 25.1467 19.8933C24.4311 21.1067 23.4822 22.2422 22.3 23.3C21.1178 24.3578 19.6711 25.2444 17.96 25.96C16.28 26.6444 14.5689 26.9867 12.8267 26.9867C11.8622 26.9867 10.9911 26.7378 10.2133 26.24C9.43556 25.7111 8.98444 25.0733 8.86 24.3267H8.95333C9.29556 25.3844 10.5867 25.9133 12.8267 25.9133C14.5689 25.9133 16.2644 25.6022 17.9133 24.98C19.5933 24.3267 21.0089 23.5178 22.16 22.5533C23.3422 21.5889 24.2756 20.5467 24.96 19.4267C25.6756 18.3067 26.0333 17.2489 26.0333 16.2533C26.0333 15.1644 25.5822 14.2933 24.68 13.64C23.7778 12.9867 22.4089 12.66 20.5733 12.66C16.5289 12.66 12.7644 13.8111 9.28 16.1133C10.8356 17.5756 13.0911 18.3067 16.0467 18.3067C17.0733 18.3067 18.1778 18.1978 19.36 17.98V18.0733C17.7422 18.5089 16.2489 18.7267 14.88 18.7267C12.2356 18.7267 10.2289 17.9489 8.86 16.3933C6.58889 17.9489 4.76889 19.8 3.4 21.9467C2.06222 24.0622 1.39333 26.0378 1.39333 27.8733C1.39333 29.5222 1.96889 30.8444 3.12 31.84C4.27111 32.8356 6.01333 33.3333 8.34667 33.3333C14.7867 33.3333 22.1911 29.6 30.56 22.1333C31.2133 21.1067 31.54 20.1422 31.54 19.24C31.54 18.4311 31.2444 17.9178 30.6533 17.7C30.4044 17.7 30.14 17.7 29.86 17.7C29.6111 17.7 29.4867 17.6378 29.4867 17.5133C29.4867 17.3578 29.6267 17.28 29.9067 17.28C30.4667 17.28 31.1356 17.2956 31.9133 17.3267C32.38 17.3578 33.1422 17.3733 34.2 17.3733C34.6356 17.3733 35.1022 17.3733 35.6 17.3733C37.5289 15.4133 39.7378 13.0489 42.2267 10.28C44.7156 7.51111 46.5978 5.47333 47.8733 4.16667C49.18 2.82889 50.0667 2.16 50.5333 2.16C50.72 2.16 50.8911 2.22222 51.0467 2.34667C51.2022 2.47111 51.28 2.68889 51.28 3C51.28 3.87111 50.4556 5.66 48.8067 8.36666C47.1889 11.0733 45.3844 13.8422 43.3933 16.6733C41.4333 19.5044 39.52 22.32 37.6533 25.12C35.8178 27.92 34.7289 29.7556 34.3867 30.6267H38.4467ZM39.4267 17.3267C39.4578 17.3267 39.5822 17.3267 39.8 17.3267C40.0489 17.2956 40.2356 17.28 40.36 17.28C41.48 15.7556 42.9889 13.7489 44.8867 11.26C46.7844 8.74 48.2156 6.79555 49.18 5.42667C50.1444 4.05778 50.6733 3.14 50.7667 2.67333C50.8289 2.42444 50.7511 2.3 50.5333 2.3C50.0978 2.3 49.2733 2.93778 48.06 4.21333C46.8467 5.45778 44.9956 7.49555 42.5067 10.3267C40.0178 13.1578 37.9022 15.5067 36.16 17.3733C37.3733 17.3422 38.4622 17.3267 39.4267 17.3267ZM30.7933 21.9467C32.2556 20.64 33.78 19.1933 35.3667 17.6067H34.9467C33.3911 17.6067 32.3178 17.6222 31.7267 17.6533C31.3533 17.6844 31.0578 17.7 30.84 17.7C31.3378 17.98 31.5867 18.4933 31.5867 19.24C31.5867 20.08 31.3222 20.9822 30.7933 21.9467ZM56.141 1.264C56.729 1.292 57.499 1.32 58.451 1.348C59.403 1.376 60.341 1.39 61.265 1.39C62.581 1.39 63.841 1.376 65.045 1.348C66.249 1.32 67.103 1.306 67.607 1.306C69.875 1.306 71.751 1.628 73.235 2.272C74.747 2.916 75.867 3.798 76.595 4.918C77.351 6.01 77.729 7.242 77.729 8.614C77.729 9.454 77.561 10.35 77.225 11.302C76.889 12.254 76.301 13.15 75.461 13.99C74.649 14.83 73.529 15.53 72.101 16.09C70.673 16.622 68.867 16.888 66.683 16.888H62.651V16.048H66.263C68.251 16.048 69.763 15.74 70.799 15.124C71.863 14.48 72.577 13.64 72.941 12.604C73.333 11.54 73.529 10.364 73.529 9.076C73.529 6.864 72.997 5.156 71.933 3.952C70.897 2.72 69.105 2.104 66.557 2.104C65.269 2.104 64.429 2.342 64.037 2.818C63.645 3.294 63.449 4.26 63.449 5.716V26.548C63.449 27.556 63.533 28.312 63.701 28.816C63.869 29.32 64.191 29.656 64.667 29.824C65.171 29.992 65.899 30.104 66.851 30.16V31C66.207 30.944 65.395 30.916 64.415 30.916C63.463 30.888 62.497 30.874 61.517 30.874C60.425 30.874 59.403 30.888 58.451 30.916C57.499 30.916 56.729 30.944 56.141 31V30.16C57.093 30.104 57.807 29.992 58.283 29.824C58.787 29.656 59.123 29.32 59.291 28.816C59.459 28.312 59.543 27.556 59.543 26.548V5.716C59.543 4.68 59.459 3.924 59.291 3.448C59.123 2.944 58.787 2.608 58.283 2.44C57.807 2.244 57.093 2.132 56.141 2.104V1.264ZM62.819 16.174C64.331 16.23 65.521 16.3 66.389 16.384C67.257 16.44 67.957 16.496 68.489 16.552C69.049 16.608 69.581 16.678 70.085 16.762C71.961 17.07 73.305 17.644 74.117 18.484C74.957 19.296 75.573 20.57 75.965 22.306L77.015 26.59C77.295 27.822 77.575 28.718 77.855 29.278C78.163 29.81 78.625 30.062 79.241 30.034C79.717 30.006 80.109 29.852 80.417 29.572C80.753 29.292 81.103 28.914 81.467 28.438L82.097 28.9C81.509 29.768 80.893 30.44 80.249 30.916C79.633 31.364 78.751 31.588 77.603 31.588C76.567 31.588 75.657 31.28 74.873 30.664C74.089 30.048 73.501 28.844 73.109 27.052L72.185 22.852C71.933 21.648 71.639 20.612 71.303 19.744C70.995 18.848 70.547 18.148 69.959 17.644C69.399 17.14 68.559 16.888 67.439 16.888H62.903L62.819 16.174ZM116.429 1.264V2.104C115.477 2.132 114.749 2.244 114.245 2.44C113.769 2.608 113.447 2.944 113.279 3.448C113.111 3.924 113.027 4.68 113.027 5.716V26.548C113.027 27.556 113.111 28.312 113.279 28.816C113.447 29.32 113.769 29.656 114.245 29.824C114.749 29.992 115.477 30.104 116.429 30.16V31C115.785 30.944 114.973 30.916 113.993 30.916C113.041 30.888 112.075 30.874 111.095 30.874C110.003 30.874 108.981 30.888 108.029 30.916C107.077 30.916 106.307 30.944 105.719 31V30.16C106.671 30.104 107.385 29.992 107.861 29.824C108.365 29.656 108.701 29.32 108.869 28.816C109.037 28.312 109.121 27.556 109.121 26.548V3.448L109.289 3.574L98.9993 31.21H98.3273L87.7433 3.952V26.128C87.7433 27.136 87.8273 27.934 87.9953 28.522C88.1913 29.082 88.5553 29.488 89.0873 29.74C89.6473 29.964 90.4733 30.104 91.5653 30.16V31C91.0613 30.944 90.4033 30.916 89.5913 30.916C88.7793 30.888 88.0093 30.874 87.2813 30.874C86.5813 30.874 85.8673 30.888 85.1393 30.916C84.4393 30.916 83.8513 30.944 83.3753 31V30.16C84.3273 30.104 85.0413 29.964 85.5173 29.74C86.0213 29.488 86.3573 29.082 86.5253 28.522C86.6933 27.934 86.7773 27.136 86.7773 26.128V5.716C86.7773 4.68 86.6933 3.924 86.5253 3.448C86.3573 2.944 86.0213 2.608 85.5173 2.44C85.0413 2.244 84.3273 2.132 83.3753 2.104V1.264C83.8513 1.292 84.4393 1.32 85.1393 1.348C85.8673 1.376 86.5813 1.39 87.2813 1.39C87.8973 1.39 88.5273 1.376 89.1713 1.348C89.8433 1.32 90.4033 1.292 90.8513 1.264L100.385 26.38L99.6713 26.716L109.121 1.39C109.457 1.39 109.779 1.39 110.087 1.39C110.423 1.39 110.759 1.39 111.095 1.39C112.075 1.39 113.041 1.376 113.993 1.348C114.973 1.32 115.785 1.292 116.429 1.264ZM128.949 0.801998C130.349 0.801998 131.413 0.969999 132.141 1.306C132.869 1.614 133.513 1.964 134.073 2.356C134.409 2.552 134.675 2.706 134.871 2.818C135.095 2.902 135.305 2.944 135.501 2.944C135.781 2.944 135.977 2.79 136.089 2.482C136.229 2.174 136.341 1.712 136.425 1.096H137.391C137.363 1.572 137.321 2.146 137.265 2.818C137.237 3.462 137.209 4.33 137.181 5.422C137.181 6.486 137.181 7.9 137.181 9.664H136.215C136.131 8.32 135.837 7.032 135.333 5.8C134.829 4.568 134.087 3.56 133.107 2.776C132.155 1.992 130.895 1.6 129.327 1.6C127.843 1.6 126.611 2.048 125.631 2.944C124.679 3.84 124.203 5.016 124.203 6.472C124.203 7.732 124.525 8.796 125.169 9.664C125.813 10.504 126.667 11.274 127.731 11.974C128.823 12.646 129.999 13.374 131.259 14.158C132.715 15.054 134.003 15.95 135.123 16.846C136.271 17.714 137.167 18.68 137.811 19.744C138.483 20.808 138.819 22.096 138.819 23.608C138.819 25.4 138.413 26.884 137.601 28.06C136.789 29.236 135.711 30.118 134.367 30.706C133.023 31.294 131.539 31.588 129.915 31.588C128.431 31.588 127.255 31.42 126.387 31.084C125.519 30.748 124.777 30.398 124.161 30.034C123.545 29.642 123.069 29.446 122.733 29.446C122.453 29.446 122.243 29.6 122.103 29.908C121.991 30.216 121.893 30.678 121.809 31.294H120.843C120.899 30.706 120.927 30.02 120.927 29.236C120.955 28.424 120.969 27.374 120.969 26.086C120.997 24.798 121.011 23.174 121.011 21.214H121.977C122.089 22.894 122.397 24.462 122.901 25.918C123.433 27.374 124.231 28.55 125.295 29.446C126.387 30.314 127.829 30.748 129.621 30.748C130.545 30.748 131.413 30.566 132.225 30.202C133.065 29.81 133.751 29.208 134.283 28.396C134.815 27.556 135.081 26.478 135.081 25.162C135.081 24.014 134.801 23.02 134.241 22.18C133.709 21.312 132.953 20.514 131.973 19.786C130.993 19.03 129.845 18.26 128.529 17.476C127.213 16.664 125.981 15.838 124.833 14.998C123.685 14.158 122.761 13.192 122.061 12.1C121.389 10.98 121.053 9.636 121.053 8.068C121.053 6.416 121.417 5.058 122.145 3.994C122.901 2.902 123.881 2.104 125.085 1.6C126.289 1.068 127.577 0.801998 128.949 0.801998ZM165.743 1.264C165.631 2.328 165.547 3.364 165.491 4.372C165.463 5.352 165.449 6.108 165.449 6.64C165.449 7.312 165.463 7.942 165.491 8.53C165.519 9.118 165.547 9.636 165.575 10.084H164.609C164.413 8.124 164.147 6.584 163.811 5.464C163.475 4.316 162.887 3.49 162.047 2.986C161.207 2.482 159.905 2.23 158.141 2.23H155.873V26.128C155.873 27.248 155.971 28.088 156.167 28.648C156.391 29.208 156.811 29.586 157.427 29.782C158.043 29.978 158.939 30.104 160.115 30.16V31C159.387 30.944 158.463 30.916 157.343 30.916C156.223 30.888 155.089 30.874 153.941 30.874C152.681 30.874 151.491 30.888 150.371 30.916C149.279 30.916 148.397 30.944 147.725 31V30.16C148.901 30.104 149.797 29.978 150.413 29.782C151.029 29.586 151.435 29.208 151.631 28.648C151.855 28.088 151.967 27.248 151.967 26.128V2.23H149.699C147.963 2.23 146.661 2.482 145.793 2.986C144.953 3.49 144.365 4.316 144.029 5.464C143.693 6.584 143.427 8.124 143.231 10.084H142.265C142.321 9.636 142.349 9.118 142.349 8.53C142.377 7.942 142.391 7.312 142.391 6.64C142.391 6.108 142.363 5.352 142.307 4.372C142.279 3.364 142.209 2.328 142.097 1.264C143.273 1.292 144.547 1.32 145.919 1.348C147.319 1.376 148.719 1.39 150.119 1.39C151.519 1.39 152.793 1.39 153.941 1.39C155.089 1.39 156.349 1.39 157.721 1.39C159.121 1.39 160.521 1.376 161.921 1.348C163.321 1.32 164.595 1.292 165.743 1.264ZM168.729 1.264C169.317 1.292 170.087 1.32 171.039 1.348C171.991 1.376 172.929 1.39 173.853 1.39C175.169 1.39 176.429 1.376 177.633 1.348C178.837 1.32 179.691 1.306 180.195 1.306C182.463 1.306 184.339 1.628 185.823 2.272C187.335 2.916 188.455 3.798 189.183 4.918C189.939 6.01 190.317 7.242 190.317 8.614C190.317 9.454 190.149 10.35 189.813 11.302C189.477 12.254 188.889 13.15 188.049 13.99C187.237 14.83 186.117 15.53 184.689 16.09C183.261 16.622 181.455 16.888 179.271 16.888H175.239V16.048H178.851C180.839 16.048 182.351 15.74 183.387 15.124C184.451 14.48 185.165 13.64 185.529 12.604C185.921 11.54 186.117 10.364 186.117 9.076C186.117 6.864 185.585 5.156 184.521 3.952C183.485 2.72 181.693 2.104 179.145 2.104C177.857 2.104 177.017 2.342 176.625 2.818C176.233 3.294 176.037 4.26 176.037 5.716V26.548C176.037 27.556 176.121 28.312 176.289 28.816C176.457 29.32 176.779 29.656 177.255 29.824C177.759 29.992 178.487 30.104 179.439 30.16V31C178.795 30.944 177.983 30.916 177.003 30.916C176.051 30.888 175.085 30.874 174.105 30.874C173.013 30.874 171.991 30.888 171.039 30.916C170.087 30.916 169.317 30.944 168.729 31V30.16C169.681 30.104 170.395 29.992 170.871 29.824C171.375 29.656 171.711 29.32 171.879 28.816C172.047 28.312 172.131 27.556 172.131 26.548V5.716C172.131 4.68 172.047 3.924 171.879 3.448C171.711 2.944 171.375 2.608 170.871 2.44C170.395 2.244 169.681 2.132 168.729 2.104V1.264ZM175.407 16.174C176.919 16.23 178.109 16.3 178.977 16.384C179.845 16.44 180.545 16.496 181.077 16.552C181.637 16.608 182.169 16.678 182.673 16.762C184.549 17.07 185.893 17.644 186.705 18.484C187.545 19.296 188.161 20.57 188.553 22.306L189.603 26.59C189.883 27.822 190.163 28.718 190.443 29.278C190.751 29.81 191.213 30.062 191.829 30.034C192.305 30.006 192.697 29.852 193.005 29.572C193.341 29.292 193.691 28.914 194.055 28.438L194.685 28.9C194.097 29.768 193.481 30.44 192.837 30.916C192.221 31.364 191.339 31.588 190.191 31.588C189.155 31.588 188.245 31.28 187.461 30.664C186.677 30.048 186.089 28.844 185.697 27.052L184.773 22.852C184.521 21.648 184.227 20.612 183.891 19.744C183.583 18.848 183.135 18.148 182.547 17.644C181.987 17.14 181.147 16.888 180.027 16.888H175.491L175.407 16.174ZM222.479 6.59333C223.288 7.34 223.693 8.50667 223.693 10.0933C223.693 11.68 223.288 13.5156 222.479 15.6C221.701 17.6844 220.566 19.8 219.073 21.9467C217.61 24.0622 215.946 26.0222 214.079 27.8267C212.213 29.6311 210.066 31.1089 207.639 32.26C205.244 33.4111 202.833 33.9867 200.406 33.9867C198.29 33.9867 196.688 33.3489 195.599 32.0733C194.541 30.8289 194.013 29.1178 194.013 26.94C194.013 25.0422 194.401 22.9578 195.179 20.6867C195.988 18.4156 197.139 16.16 198.633 13.92C200.157 11.68 201.884 9.64222 203.813 7.80667C205.773 5.94 208.028 4.44667 210.579 3.32667C213.161 2.17556 215.79 1.6 218.466 1.6C219.866 1.6 220.924 1.92667 221.639 2.58C222.386 3.23333 222.759 4.07333 222.759 5.1C222.759 5.59778 222.666 6.09556 222.479 6.59333ZM200.453 33.52C202.319 33.52 204.201 33.0844 206.099 32.2133C208.028 31.3422 209.786 30.2067 211.373 28.8067C212.959 27.4067 214.453 25.82 215.853 24.0467C217.253 22.2733 218.419 20.4844 219.353 18.68C220.317 16.8756 221.079 15.1489 221.639 13.5C222.199 11.82 222.479 10.3733 222.479 9.16C222.479 8.44444 222.37 7.83778 222.153 7.34C221.561 8.55333 220.581 9.56444 219.213 10.3733C217.844 11.1511 216.226 11.54 214.359 11.54C213.084 11.54 211.995 11.3378 211.093 10.9333C209.413 12.6133 208.028 14.4333 206.939 16.3933C205.85 18.3222 205.306 19.9089 205.306 21.1533C205.306 22.5533 205.928 23.2689 207.173 23.3C207.981 23.3 208.744 22.9422 209.459 22.2267C210.175 21.48 210.579 20.7178 210.673 19.94C210.704 19.8467 210.719 19.7689 210.719 19.7067C210.719 19.4889 210.766 19.3956 210.859 19.4267C210.921 19.4267 210.968 19.4578 210.999 19.52C210.999 19.6133 210.953 19.7067 210.859 19.8C210.797 19.8933 210.766 19.94 210.766 19.94C210.704 20.78 210.315 21.5578 209.599 22.2733C208.884 22.9889 208.075 23.3622 207.173 23.3933H207.126C206.161 23.3622 205.43 23.0667 204.933 22.5067C204.466 21.9467 204.233 21.1689 204.233 20.1733C204.233 18.7111 204.73 17.0311 205.726 15.1333C206.753 13.2044 208.09 11.4933 209.739 10C209.024 9.28444 208.713 8.35111 208.806 7.2H208.853C208.759 8.35111 209.07 9.26889 209.786 9.95333C210.813 9.05111 211.886 8.30444 213.006 7.71333C215.495 6.40667 217.813 5.75333 219.959 5.75333C220.799 5.75333 221.515 5.94 222.106 6.31333C222.23 5.84667 222.293 5.39556 222.293 4.96C222.293 4.05778 221.966 3.31111 221.313 2.72C220.659 2.12889 219.695 1.83333 218.419 1.83333C216.086 1.83333 213.737 2.44 211.373 3.65333C209.039 4.86667 206.955 6.45333 205.119 8.41333C203.315 10.3422 201.681 12.4578 200.219 14.76C198.788 17.0622 197.684 19.3644 196.906 21.6667C196.159 23.9689 195.786 26.0378 195.786 27.8733C195.786 29.6156 196.159 30.9844 196.906 31.98C197.684 33.0067 198.866 33.52 200.453 33.52ZM221.873 6.87333C221.468 6.28222 220.877 5.98667 220.099 5.98667C217.33 5.98667 214.344 7.60444 211.139 10.84C211.948 11.1822 212.913 11.3533 214.033 11.3533C215.93 11.3533 217.579 10.9178 218.979 10.0467C220.379 9.17555 221.344 8.11778 221.873 6.87333ZM248.138 1.264V2.104C247.186 2.132 246.458 2.272 245.954 2.524C245.478 2.776 245.156 3.182 244.988 3.742C244.82 4.302 244.736 5.1 244.736 6.136V31.21C244.568 31.21 244.4 31.21 244.232 31.21C244.092 31.21 243.938 31.21 243.77 31.21L226.13 3.952V26.128C226.13 27.136 226.214 27.934 226.382 28.522C226.578 29.082 226.942 29.488 227.474 29.74C228.034 29.964 228.86 30.104 229.952 30.16V31C229.448 30.944 228.79 30.916 227.978 30.916C227.166 30.888 226.396 30.874 225.668 30.874C224.968 30.874 224.254 30.888 223.526 30.916C222.826 30.916 222.238 30.944 221.762 31V30.16C222.714 30.104 223.428 29.964 223.904 29.74C224.408 29.488 224.744 29.082 224.912 28.522C225.08 27.934 225.164 27.136 225.164 26.128V5.716C225.164 4.68 225.08 3.924 224.912 3.448C224.744 2.944 224.408 2.608 223.904 2.44C223.428 2.244 222.714 2.132 221.762 2.104V1.264C222.238 1.292 222.826 1.32 223.526 1.348C224.254 1.376 224.968 1.39 225.668 1.39C226.284 1.39 226.872 1.376 227.432 1.348C227.992 1.32 228.496 1.292 228.944 1.264L243.77 24.112V6.136C243.77 5.1 243.672 4.302 243.476 3.742C243.308 3.182 242.944 2.776 242.384 2.524C241.852 2.272 241.04 2.132 239.948 2.104V1.264C240.452 1.292 241.11 1.32 241.922 1.348C242.762 1.376 243.532 1.39 244.232 1.39C244.96 1.39 245.674 1.376 246.374 1.348C247.102 1.32 247.69 1.292 248.138 1.264ZM265.157 0.675997C266.977 0.675997 268.447 0.955998 269.567 1.516C270.687 2.048 271.737 2.678 272.717 3.406C273.081 3.686 273.361 3.826 273.557 3.826C274.089 3.826 274.439 2.972 274.607 1.264H275.573C275.517 2.3 275.475 3.56 275.447 5.044C275.419 6.528 275.405 8.488 275.405 10.924H274.439C274.243 9.748 274.005 8.614 273.725 7.522C273.445 6.43 272.983 5.492 272.339 4.708C271.527 3.672 270.463 2.874 269.147 2.314C267.831 1.726 266.473 1.432 265.073 1.432C263.673 1.432 262.399 1.782 261.251 2.482C260.131 3.154 259.165 4.134 258.353 5.422C257.541 6.71 256.911 8.264 256.463 10.084C256.043 11.876 255.833 13.906 255.833 16.174C255.833 21.214 256.645 24.91 258.269 27.262C259.893 29.586 262.413 30.748 265.829 30.748C266.837 30.748 267.705 30.608 268.433 30.328C269.189 30.02 269.777 29.726 270.197 29.446C270.729 29.082 271.065 28.746 271.205 28.438C271.345 28.102 271.415 27.668 271.415 27.136V23.104C271.415 21.956 271.303 21.102 271.079 20.542C270.855 19.982 270.435 19.604 269.819 19.408C269.231 19.212 268.349 19.1 267.173 19.072V18.232C267.677 18.26 268.265 18.288 268.937 18.316C269.609 18.316 270.309 18.33 271.037 18.358C271.793 18.358 272.479 18.358 273.095 18.358C274.019 18.358 274.845 18.344 275.573 18.316C276.329 18.288 276.959 18.26 277.463 18.232V19.072C276.847 19.1 276.385 19.198 276.077 19.366C275.769 19.534 275.559 19.87 275.447 20.374C275.363 20.878 275.321 21.648 275.321 22.684V31H274.481C274.453 30.524 274.341 30.006 274.145 29.446C273.977 28.886 273.711 28.606 273.347 28.606C273.179 28.606 273.011 28.648 272.843 28.732C272.675 28.816 272.381 29.012 271.961 29.32C271.037 30.02 270.057 30.58 269.021 31C267.985 31.392 266.781 31.588 265.409 31.588C262.525 31.588 260.047 31 257.975 29.824C255.931 28.62 254.363 26.898 253.271 24.658C252.179 22.418 251.633 19.744 251.633 16.636C251.633 13.36 252.221 10.532 253.397 8.152C254.573 5.772 256.169 3.938 258.185 2.65C260.229 1.334 262.553 0.675997 265.157 0.675997ZM61.1733 40.3467C61.7644 40.3467 62.06 40.4711 62.06 40.72C62.06 40.9378 61.8733 41.0467 61.5 41.0467C61.4067 41.0467 61.2044 41 60.8933 40.9067C60.5822 40.7822 60.3489 40.72 60.1933 40.72C58.8244 40.8133 57.2067 41.4511 55.34 42.6333C53.4733 43.8156 51.6378 45.2311 49.8333 46.88C48.06 48.4978 46.0378 50.5356 43.7667 52.9933C41.5267 55.4511 39.5511 57.6911 37.84 59.7133C36.16 61.7044 34.2311 64.0067 32.0533 66.62C29.8756 69.2333 28.2111 71.1933 27.06 72.5L26.92 72.4067C28.6 69.6067 30.2489 66.5578 31.8667 63.26C33.5156 59.9622 34.6822 57.5511 35.3667 56.0267C36.0511 54.4711 37.0622 52.1378 38.4 49.0267C36.9067 50.6444 34.5733 53.1178 31.4 56.4467C28.2267 59.7756 25.38 62.8089 22.86 65.5467C20.34 68.2844 18.3333 70.6022 16.84 72.5L16.7 72.4067C20.4956 66.5267 23.7311 60.8956 26.4067 55.5133C29.0822 50.1 30.42 46.2422 30.42 43.94C30.42 42.1978 29.7978 40.8289 28.5533 39.8333C27.34 38.8378 25.7222 38.34 23.7 38.34C22.4867 38.34 21.1956 38.5733 19.8267 39.04C18.4578 39.4756 17.1044 40.1289 15.7667 41C14.46 41.84 13.2622 42.8356 12.1733 43.9867C11.1156 45.1378 10.2444 46.5067 9.56 48.0933C8.90667 49.68 8.58 51.3133 8.58 52.9933C8.58 54.3933 9 55.4511 9.84 56.1667C10.7111 56.8511 11.8467 57.1933 13.2467 57.1933C14.8022 57.1933 16.3111 56.8044 17.7733 56.0267C19.2667 55.2489 20.5111 54.2844 21.5067 53.1333C22.5022 51.9822 23.2956 50.7689 23.8867 49.4933C24.5089 48.1867 24.82 47.02 24.82 45.9933C24.82 45.1533 24.6022 44.4844 24.1667 43.9867C23.7311 43.4889 23.0622 43.24 22.16 43.24C20.8222 43.24 19.3756 43.7378 17.82 44.7333C16.2644 45.6978 14.9422 47.0511 13.8533 48.7933L13.7133 48.7C14.8022 46.9267 16.14 45.5422 17.7267 44.5467C19.3133 43.5511 20.7911 43.0533 22.16 43.0533C23.0933 43.0533 23.84 43.3178 24.4 43.8467C24.9911 44.3444 25.2867 45.1067 25.2867 46.1333C25.2867 48 24.9133 49.7733 24.1667 51.4533C23.42 53.1022 22.4556 54.4867 21.2733 55.6067C20.1222 56.6956 18.8467 57.5511 17.4467 58.1733C16.0778 58.7956 14.7556 59.1067 13.48 59.1067C11.8933 59.1067 10.6022 58.6089 9.60667 57.6133C8.61111 56.6178 8.11333 55.14 8.11333 53.18C8.11333 51.4689 8.45556 49.82 9.14 48.2333C9.82444 46.6156 10.7267 45.2156 11.8467 44.0333C12.9667 42.8511 14.2111 41.8089 15.58 40.9067C16.9489 40.0044 18.3333 39.32 19.7333 38.8533C21.1644 38.3867 22.4867 38.1533 23.7 38.1533C25.9089 38.1533 27.7911 38.7289 29.3467 39.88C30.9022 41 31.68 42.68 31.68 44.92C31.68 47.5022 30.9333 50.3178 29.44 53.3667C27.9778 56.4156 25.6133 60.5067 22.3467 65.64C22.1911 65.8889 21.9889 66.1689 21.74 66.48C23.6067 64.4267 26.5 61.3311 30.42 57.1933C34.3711 53.0556 37.0933 50.1778 38.5867 48.56C39.8622 45.6044 40.8578 43.4889 41.5733 42.2133C42.2889 40.9378 42.9733 40.3 43.6267 40.3C44.1244 40.3 44.3733 40.5178 44.3733 40.9533C44.3733 41.7 43.3622 43.2711 41.34 45.6667C41.0289 46.4444 40.4378 47.8911 39.5667 50.0067C38.6956 52.1222 37.98 53.8333 37.42 55.14C36.8911 56.4156 36.2689 57.8933 35.5533 59.5733C34.8378 61.2533 34.2 62.6378 33.64 63.7267C33.1111 64.7844 32.66 65.5622 32.2867 66.06C32.5044 65.8111 32.8156 65.4378 33.22 64.94C34.5889 63.2911 35.6311 62.0311 36.3467 61.16C37.0933 60.2889 38.1511 59.0444 39.52 57.4267C40.8889 55.8089 41.9933 54.5333 42.8333 53.6C43.7044 52.6667 44.7933 51.5311 46.1 50.1933C47.4067 48.8244 48.5111 47.7356 49.4133 46.9267C50.3467 46.1178 51.3889 45.2467 52.54 44.3133C53.7222 43.3489 54.7644 42.6178 55.6667 42.12C56.5689 41.6222 57.5022 41.2022 58.4667 40.86C59.4311 40.5178 60.3333 40.3467 61.1733 40.3467ZM43.7667 40.5333C43.58 40.5333 42.8489 42.0733 41.5733 45.1533C43.3156 43.0378 44.1867 41.6378 44.1867 40.9533C44.1867 40.6733 44.0467 40.5333 43.7667 40.5333ZM71.931 39.264C71.819 40.244 71.735 41.196 71.679 42.12C71.651 43.044 71.637 43.744 71.637 44.22C71.637 44.724 71.651 45.214 71.679 45.69C71.707 46.138 71.735 46.516 71.763 46.824H70.797C70.629 45.172 70.391 43.87 70.083 42.918C69.775 41.938 69.243 41.252 68.487 40.86C67.759 40.44 66.653 40.23 65.169 40.23H61.683C60.731 40.23 60.003 40.314 59.499 40.482C59.023 40.622 58.701 40.944 58.533 41.448C58.365 41.924 58.281 42.68 58.281 43.716V64.548C58.281 65.556 58.365 66.312 58.533 66.816C58.701 67.32 59.023 67.656 59.499 67.824C60.003 67.964 60.731 68.034 61.683 68.034H64.749C66.513 68.034 67.843 67.796 68.739 67.32C69.663 66.844 70.321 66.074 70.713 65.01C71.133 63.918 71.441 62.448 71.637 60.6H72.603C72.519 61.356 72.477 62.364 72.477 63.624C72.477 64.156 72.491 64.926 72.519 65.934C72.575 66.914 72.659 67.936 72.771 69C71.343 68.944 69.733 68.916 67.941 68.916C66.149 68.888 64.553 68.874 63.153 68.874C62.537 68.874 61.739 68.874 60.759 68.874C59.807 68.874 58.771 68.888 57.651 68.916C56.531 68.916 55.397 68.93 54.249 68.958C53.101 68.958 52.009 68.972 50.973 69V68.16C51.925 68.104 52.639 67.992 53.115 67.824C53.619 67.656 53.955 67.32 54.123 66.816C54.291 66.312 54.375 65.556 54.375 64.548V43.716C54.375 42.68 54.291 41.924 54.123 41.448C53.955 40.944 53.619 40.608 53.115 40.44C52.639 40.244 51.925 40.132 50.973 40.104V39.264C52.009 39.292 53.101 39.32 54.249 39.348C55.397 39.348 56.531 39.362 57.651 39.39C58.771 39.39 59.807 39.39 60.759 39.39C61.739 39.39 62.537 39.39 63.153 39.39C64.441 39.39 65.897 39.39 67.521 39.39C69.173 39.362 70.643 39.32 71.931 39.264ZM64.707 53.628C64.707 53.628 64.707 53.768 64.707 54.048C64.707 54.328 64.707 54.468 64.707 54.468H57.021C57.021 54.468 57.021 54.328 57.021 54.048C57.021 53.768 57.021 53.628 57.021 53.628H64.707ZM65.925 48.084C65.813 49.68 65.757 50.898 65.757 51.738C65.785 52.578 65.799 53.348 65.799 54.048C65.799 54.748 65.813 55.518 65.841 56.358C65.869 57.198 65.939 58.416 66.051 60.012H65.085C64.973 59.116 64.833 58.248 64.665 57.408C64.525 56.54 64.189 55.84 63.657 55.308C63.153 54.748 62.285 54.468 61.053 54.468V53.628C61.977 53.628 62.677 53.446 63.153 53.082C63.657 52.69 64.021 52.2 64.245 51.612C64.469 51.024 64.623 50.422 64.707 49.806C64.791 49.162 64.875 48.588 64.959 48.084H65.925ZM76.5667 39.264C77.1547 39.292 77.9247 39.32 78.8767 39.348C79.8287 39.376 80.7667 39.39 81.6907 39.39C83.0067 39.39 84.2667 39.376 85.4707 39.348C86.6747 39.32 87.5287 39.306 88.0327 39.306C90.3007 39.306 92.1767 39.628 93.6607 40.272C95.1727 40.916 96.2927 41.798 97.0207 42.918C97.7767 44.01 98.1547 45.242 98.1547 46.614C98.1547 47.454 97.9867 48.35 97.6507 49.302C97.3147 50.254 96.7267 51.15 95.8867 51.99C95.0747 52.83 93.9547 53.53 92.5267 54.09C91.0987 54.622 89.2927 54.888 87.1087 54.888H83.0767V54.048H86.6887C88.6767 54.048 90.1887 53.74 91.2247 53.124C92.2887 52.48 93.0027 51.64 93.3667 50.604C93.7587 49.54 93.9547 48.364 93.9547 47.076C93.9547 44.864 93.4227 43.156 92.3587 41.952C91.3227 40.72 89.5307 40.104 86.9827 40.104C85.6947 40.104 84.8547 40.342 84.4627 40.818C84.0707 41.294 83.8747 42.26 83.8747 43.716V64.548C83.8747 65.556 83.9587 66.312 84.1267 66.816C84.2947 67.32 84.6167 67.656 85.0927 67.824C85.5967 67.992 86.3247 68.104 87.2767 68.16V69C86.6327 68.944 85.8207 68.916 84.8407 68.916C83.8887 68.888 82.9227 68.874 81.9427 68.874C80.8507 68.874 79.8287 68.888 78.8767 68.916C77.9247 68.916 77.1547 68.944 76.5667 69V68.16C77.5187 68.104 78.2327 67.992 78.7087 67.824C79.2127 67.656 79.5487 67.32 79.7167 66.816C79.8847 66.312 79.9687 65.556 79.9687 64.548V43.716C79.9687 42.68 79.8847 41.924 79.7167 41.448C79.5487 40.944 79.2127 40.608 78.7087 40.44C78.2327 40.244 77.5187 40.132 76.5667 40.104V39.264ZM83.2447 54.174C84.7567 54.23 85.9467 54.3 86.8147 54.384C87.6827 54.44 88.3827 54.496 88.9147 54.552C89.4747 54.608 90.0067 54.678 90.5107 54.762C92.3867 55.07 93.7307 55.644 94.5427 56.484C95.3827 57.296 95.9987 58.57 96.3907 60.306L97.4407 64.59C97.7207 65.822 98.0007 66.718 98.2807 67.278C98.5887 67.81 99.0507 68.062 99.6667 68.034C100.143 68.006 100.535 67.852 100.843 67.572C101.179 67.292 101.529 66.914 101.893 66.438L102.523 66.9C101.935 67.768 101.319 68.44 100.675 68.916C100.059 69.364 99.1767 69.588 98.0287 69.588C96.9927 69.588 96.0827 69.28 95.2987 68.664C94.5147 68.048 93.9267 66.844 93.5347 65.052L92.6107 60.852C92.3587 59.648 92.0647 58.612 91.7287 57.744C91.4207 56.848 90.9727 56.148 90.3847 55.644C89.8247 55.14 88.9847 54.888 87.8647 54.888H83.3287L83.2447 54.174ZM126.614 39.264C126.502 40.328 126.418 41.364 126.362 42.372C126.334 43.352 126.32 44.108 126.32 44.64C126.32 45.312 126.334 45.942 126.362 46.53C126.39 47.118 126.418 47.636 126.446 48.084H125.48C125.284 46.124 125.018 44.584 124.682 43.464C124.346 42.316 123.758 41.49 122.918 40.986C122.078 40.482 120.776 40.23 119.012 40.23H116.744V64.128C116.744 65.248 116.842 66.088 117.038 66.648C117.262 67.208 117.682 67.586 118.298 67.782C118.914 67.978 119.81 68.104 120.986 68.16V69C120.258 68.944 119.334 68.916 118.214 68.916C117.094 68.888 115.96 68.874 114.812 68.874C113.552 68.874 112.362 68.888 111.242 68.916C110.15 68.916 109.268 68.944 108.596 69V68.16C109.772 68.104 110.668 67.978 111.284 67.782C111.9 67.586 112.306 67.208 112.502 66.648C112.726 66.088 112.838 65.248 112.838 64.128V40.23H110.57C108.834 40.23 107.532 40.482 106.664 40.986C105.824 41.49 105.236 42.316 104.9 43.464C104.564 44.584 104.298 46.124 104.102 48.084H103.136C103.192 47.636 103.22 47.118 103.22 46.53C103.248 45.942 103.262 45.312 103.262 44.64C103.262 44.108 103.234 43.352 103.178 42.372C103.15 41.364 103.08 40.328 102.968 39.264C104.144 39.292 105.418 39.32 106.79 39.348C108.19 39.376 109.59 39.39 110.99 39.39C112.39 39.39 113.664 39.39 114.812 39.39C115.96 39.39 117.22 39.39 118.592 39.39C119.992 39.39 121.392 39.376 122.792 39.348C124.192 39.32 125.466 39.292 126.614 39.264ZM147.156 69V68.16C148.108 68.104 148.822 67.992 149.298 67.824C149.802 67.656 150.138 67.32 150.306 66.816C150.474 66.312 150.558 65.556 150.558 64.548V43.716C150.558 42.68 150.474 41.924 150.306 41.448C150.138 40.944 149.802 40.608 149.298 40.44C148.822 40.244 148.108 40.132 147.156 40.104V39.264C147.8 39.292 148.612 39.32 149.592 39.348C150.572 39.376 151.538 39.39 152.49 39.39C153.582 39.39 154.604 39.376 155.556 39.348C156.508 39.32 157.278 39.292 157.866 39.264V40.104C156.914 40.132 156.186 40.244 155.682 40.44C155.206 40.608 154.884 40.944 154.716 41.448C154.548 41.924 154.464 42.68 154.464 43.716V64.548C154.464 65.556 154.548 66.312 154.716 66.816C154.884 67.32 155.206 67.656 155.682 67.824C156.186 67.992 156.914 68.104 157.866 68.16V69C157.278 68.944 156.508 68.916 155.556 68.916C154.604 68.888 153.582 68.874 152.49 68.874C151.538 68.874 150.572 68.888 149.592 68.916C148.612 68.916 147.8 68.944 147.156 69ZM129.6 69V68.16C130.552 68.104 131.266 67.992 131.742 67.824C132.246 67.656 132.582 67.32 132.75 66.816C132.918 66.312 133.002 65.556 133.002 64.548V43.716C133.002 42.68 132.918 41.924 132.75 41.448C132.582 40.944 132.246 40.608 131.742 40.44C131.266 40.244 130.552 40.132 129.6 40.104V39.264C130.188 39.292 130.958 39.32 131.91 39.348C132.862 39.376 133.884 39.39 134.976 39.39C135.956 39.39 136.922 39.376 137.874 39.348C138.854 39.32 139.666 39.292 140.31 39.264V40.104C139.358 40.132 138.63 40.244 138.126 40.44C137.65 40.608 137.328 40.944 137.16 41.448C136.992 41.924 136.908 42.68 136.908 43.716V64.548C136.908 65.556 136.992 66.312 137.16 66.816C137.328 67.32 137.65 67.656 138.126 67.824C138.63 67.992 139.358 68.104 140.31 68.16V69C139.666 68.944 138.854 68.916 137.874 68.916C136.922 68.888 135.956 68.874 134.976 68.874C133.884 68.874 132.862 68.888 131.91 68.916C130.958 68.916 130.188 68.944 129.6 69ZM135.438 54.468V53.628H152.028V54.468H135.438Z" fill="#161616"/>
</svg>
