<svg viewBox="0 0 249 107" fill="none" xmlns="http://www.w3.org/2000/svg">
<path d="M55.871 0.808889C56.4339 0.808889 56.8702 0.935556 57.1799 1.18889C57.4895 1.41407 57.6443 1.70963 57.6443 2.07555C57.6443 2.72296 57.1658 3.32815 56.2088 3.89111C55.2517 4.42593 53.8865 4.69333 52.1132 4.69333C50.2554 4.69333 48.1162 4.55259 45.6954 4.27111C44.1473 5.28444 42.7821 6.48074 41.5999 7.86C40.5302 9.09852 39.3339 10.703 38.011 12.6733C36.7162 14.6156 35.5621 16.417 34.5488 18.0778C33.5636 19.7104 32.3532 21.4415 30.9176 23.2711C29.4821 25.0726 28.0184 26.5926 26.5265 27.8311C25.0628 29.0696 23.2614 30.097 21.1221 30.9133C18.9828 31.7296 16.6747 32.1378 14.1976 32.1378C11.9739 32.1378 10.2991 31.603 9.1732 30.5333C8.07543 29.4637 7.52654 28.0704 7.52654 26.3533C7.52654 24.1296 8.38506 21.7793 10.1021 19.3022C11.8473 16.797 14.1414 14.8126 16.9843 13.3489C16.6465 12.5889 16.4776 11.7726 16.4776 10.9C16.4776 9.83037 16.7169 8.76074 17.1954 7.69111C17.7021 6.59333 18.448 5.55185 19.4332 4.56667C20.4184 3.55333 21.7695 2.73704 23.4865 2.11778C25.2317 1.49852 27.2021 1.18889 29.3976 1.18889C31.171 1.18889 34.2391 1.42815 38.6021 1.90667C42.9651 2.38519 45.7658 2.66667 47.0043 2.75111C49.7065 1.4563 52.6621 0.808889 55.871 0.808889ZM49.4954 2.87778C51.2688 2.87778 52.7325 2.80741 53.8865 2.66667C55.0406 2.52592 55.8147 2.38518 56.2088 2.24444C56.6028 2.07555 56.7999 1.90667 56.7999 1.73778C56.7999 1.4563 56.4621 1.31556 55.7865 1.31556C53.1969 1.31556 50.7339 1.82222 48.3976 2.83555C48.7917 2.8637 49.1577 2.87778 49.4954 2.87778ZM41.0932 7.35333C42.0784 6.14296 43.2465 5.07333 44.5976 4.14444C43.2465 3.97555 41.431 3.72222 39.151 3.38444C36.8991 3.01852 34.971 2.73704 33.3665 2.54C31.7902 2.34296 30.4391 2.24444 29.3132 2.24444C27.2021 2.24444 25.3162 2.49778 23.6554 3.00444C21.9947 3.51111 20.6717 4.18667 19.6865 5.03111C18.7295 5.87555 17.9976 6.79037 17.491 7.77556C16.9843 8.76074 16.731 9.77407 16.731 10.8156C16.731 11.66 16.9139 12.4481 17.2799 13.18C19.8976 11.8852 22.6702 11.2378 25.5976 11.2378C27.3147 11.2378 28.5954 11.5615 29.4399 12.2089C30.2843 12.8563 30.7065 13.7289 30.7065 14.8267C30.7065 15.7837 30.3828 16.8252 29.7354 17.9511C29.088 19.0489 28.2295 20.0763 27.1599 21.0333C26.0902 21.9904 24.7814 22.7926 23.2332 23.44C21.7132 24.0593 20.1651 24.3689 18.5888 24.3689C17.6036 24.3689 16.731 24.1859 15.971 23.82C15.211 23.4259 14.8873 22.8911 14.9999 22.2156L15.1265 22.1733C15.1547 22.483 15.2673 22.7222 15.4643 22.8911C15.6895 23.06 15.9851 23.1867 16.351 23.2711C16.7451 23.3274 17.0688 23.3696 17.3221 23.3978C17.5754 23.3978 17.9273 23.3978 18.3776 23.3978C18.4621 23.3978 18.5184 23.3978 18.5465 23.3978C20.1228 23.3978 21.671 23.1163 23.191 22.5533C24.711 21.9622 25.9917 21.2304 27.0332 20.3578C28.1028 19.4852 28.9473 18.5422 29.5665 17.5289C30.2139 16.5156 30.5376 15.5585 30.5376 14.6578C30.5376 13.6726 30.1295 12.8844 29.3132 12.2933C28.4969 11.7022 27.2584 11.4067 25.5976 11.4067C22.7265 11.4067 19.9962 12.0541 17.4065 13.3489C18.5888 15.46 20.8969 16.5156 24.331 16.5156C25.2599 16.5156 26.2591 16.4311 27.3288 16.2622V16.3044C25.9214 16.6704 24.6406 16.8674 23.4865 16.8956C23.4021 16.8956 23.3317 16.8956 23.2754 16.8956C20.1791 16.8956 18.1102 15.7837 17.0688 13.56C14.451 14.9393 12.3258 16.7548 10.6932 19.0067C9.06061 21.2304 8.24431 23.3274 8.24431 25.2978C8.24431 26.7896 8.76505 27.9859 9.80654 28.8867C10.848 29.8156 12.4243 30.28 14.5354 30.28C16.7028 30.28 18.7717 29.8859 20.7421 29.0978C22.7406 28.3378 24.4576 27.3807 25.8932 26.2267C27.3569 25.0726 28.8347 23.637 30.3265 21.92C31.8184 20.203 33.071 18.5844 34.0843 17.0644C35.0976 15.5444 36.2658 13.8274 37.5888 11.9133C38.9399 9.99926 40.108 8.47926 41.0932 7.35333ZM69.0796 28V27.24C69.9409 27.1893 70.5869 27.088 71.0176 26.936C71.4736 26.784 71.7776 26.48 71.9296 26.024C72.0816 25.568 72.1576 24.884 72.1576 23.972V5.124C72.1576 4.18666 72.0816 3.50266 71.9296 3.072C71.7776 2.616 71.4736 2.312 71.0176 2.16C70.5869 1.98267 69.9409 1.88133 69.0796 1.856V1.096C69.6623 1.12133 70.3969 1.14667 71.2836 1.172C72.1703 1.19733 73.0443 1.21 73.9056 1.21C74.8936 1.21 75.8183 1.19733 76.6796 1.172C77.5409 1.14667 78.2376 1.12133 78.7696 1.096V1.856C77.9083 1.88133 77.2496 1.98267 76.7936 2.16C76.3629 2.312 76.0716 2.616 75.9196 3.072C75.7676 3.50266 75.6916 4.18666 75.6916 5.124V23.972C75.6916 24.884 75.7676 25.568 75.9196 26.024C76.0716 26.48 76.3629 26.784 76.7936 26.936C77.2496 27.088 77.9083 27.1893 78.7696 27.24V28C78.2376 27.9493 77.5409 27.924 76.6796 27.924C75.8183 27.8987 74.8936 27.886 73.9056 27.886C73.0443 27.886 72.1703 27.8987 71.2836 27.924C70.3969 27.924 69.6623 27.9493 69.0796 28ZM53.1956 28V27.24C54.0569 27.1893 54.7029 27.088 55.1336 26.936C55.5896 26.784 55.8936 26.48 56.0456 26.024C56.1976 25.568 56.2736 24.884 56.2736 23.972V5.124C56.2736 4.18666 56.1976 3.50266 56.0456 3.072C55.8936 2.616 55.5896 2.312 55.1336 2.16C54.7029 1.98267 54.0569 1.88133 53.1956 1.856V1.096C53.7276 1.12133 54.4243 1.14667 55.2856 1.172C56.1469 1.19733 57.0716 1.21 58.0596 1.21C58.9463 1.21 59.8203 1.19733 60.6816 1.172C61.5683 1.14667 62.3029 1.12133 62.8856 1.096V1.856C62.0243 1.88133 61.3656 1.98267 60.9096 2.16C60.4789 2.312 60.1876 2.616 60.0356 3.072C59.8836 3.50266 59.8076 4.18666 59.8076 5.124V23.972C59.8076 24.884 59.8836 25.568 60.0356 26.024C60.1876 26.48 60.4789 26.784 60.9096 26.936C61.3656 27.088 62.0243 27.1893 62.8856 27.24V28C62.3029 27.9493 61.5683 27.924 60.6816 27.924C59.8203 27.8987 58.9463 27.886 58.0596 27.886C57.0716 27.886 56.1469 27.8987 55.2856 27.924C54.4243 27.924 53.7276 27.9493 53.1956 28ZM58.4776 14.852V14.092H73.4876V14.852H58.4776ZM100.917 1.096C100.816 1.98267 100.74 2.844 100.689 3.68C100.664 4.516 100.651 5.14933 100.651 5.58C100.651 6.036 100.664 6.47933 100.689 6.91C100.715 7.31533 100.74 7.65733 100.765 7.936H99.8914C99.7394 6.44133 99.524 5.26333 99.2454 4.402C98.9667 3.51533 98.4854 2.89467 97.8014 2.54C97.1427 2.16 96.142 1.97 94.7994 1.97H91.6454C90.784 1.97 90.1254 2.046 89.6694 2.198C89.2387 2.32467 88.9474 2.616 88.7954 3.072C88.6434 3.50266 88.5674 4.18666 88.5674 5.124V23.972C88.5674 24.884 88.6434 25.568 88.7954 26.024C88.9474 26.48 89.2387 26.784 89.6694 26.936C90.1254 27.0627 90.784 27.126 91.6454 27.126H94.4194C96.0154 27.126 97.2187 26.9107 98.0294 26.48C98.8654 26.0493 99.4607 25.3527 99.8154 24.39C100.195 23.402 100.474 22.072 100.651 20.4H101.525C101.449 21.084 101.411 21.996 101.411 23.136C101.411 23.6173 101.424 24.314 101.449 25.226C101.5 26.1127 101.576 27.0373 101.677 28C100.385 27.9493 98.9287 27.924 97.3074 27.924C95.686 27.8987 94.242 27.886 92.9754 27.886C92.418 27.886 91.696 27.886 90.8094 27.886C89.948 27.886 89.0107 27.8987 87.9974 27.924C86.984 27.924 85.958 27.9367 84.9194 27.962C83.8807 27.962 82.8927 27.9747 81.9554 28V27.24C82.8167 27.1893 83.4627 27.088 83.8934 26.936C84.3494 26.784 84.6534 26.48 84.8054 26.024C84.9574 25.568 85.0334 24.884 85.0334 23.972V5.124C85.0334 4.18666 84.9574 3.50266 84.8054 3.072C84.6534 2.616 84.3494 2.312 83.8934 2.16C83.4627 1.98267 82.8167 1.88133 81.9554 1.856V1.096C82.8927 1.12133 83.8807 1.14667 84.9194 1.172C85.958 1.172 86.984 1.18467 87.9974 1.21C89.0107 1.21 89.948 1.21 90.8094 1.21C91.696 1.21 92.418 1.21 92.9754 1.21C94.1407 1.21 95.458 1.21 96.9274 1.21C98.422 1.18467 99.752 1.14667 100.917 1.096ZM94.3814 14.092C94.3814 14.092 94.3814 14.2187 94.3814 14.472C94.3814 14.7253 94.3814 14.852 94.3814 14.852H87.4274C87.4274 14.852 87.4274 14.7253 87.4274 14.472C87.4274 14.2187 87.4274 14.092 87.4274 14.092H94.3814ZM95.4834 9.076C95.382 10.52 95.3314 11.622 95.3314 12.382C95.3567 13.142 95.3694 13.8387 95.3694 14.472C95.3694 15.1053 95.382 15.802 95.4074 16.562C95.4327 17.322 95.496 18.424 95.5974 19.868H94.7234C94.622 19.0573 94.4954 18.272 94.3434 17.512C94.2167 16.7267 93.9127 16.0933 93.4314 15.612C92.9754 15.1053 92.19 14.852 91.0754 14.852V14.092C91.9114 14.092 92.5447 13.9273 92.9754 13.598C93.4314 13.2433 93.7607 12.8 93.9634 12.268C94.166 11.736 94.3054 11.1913 94.3814 10.634C94.4574 10.0513 94.5334 9.532 94.6094 9.076H95.4834ZM123.954 0.905998L133.226 24.808C133.606 25.7707 134.036 26.4167 134.518 26.746C134.999 27.05 135.442 27.2147 135.848 27.24V28C135.341 27.9493 134.72 27.924 133.986 27.924C133.251 27.8987 132.516 27.886 131.782 27.886C130.794 27.886 129.869 27.8987 129.008 27.924C128.146 27.924 127.45 27.9493 126.918 28V27.24C128.21 27.1893 129.033 26.974 129.388 26.594C129.742 26.1887 129.666 25.34 129.16 24.048L122.092 5.162L122.7 4.668L116.088 21.844C115.682 22.8573 115.442 23.7187 115.366 24.428C115.29 25.112 115.353 25.6567 115.556 26.062C115.784 26.4673 116.151 26.7587 116.658 26.936C117.19 27.1133 117.848 27.2147 118.634 27.24V28C117.924 27.9493 117.177 27.924 116.392 27.924C115.632 27.8987 114.922 27.886 114.264 27.886C113.63 27.886 113.086 27.8987 112.63 27.924C112.199 27.924 111.794 27.9493 111.414 28V27.24C111.92 27.1133 112.44 26.822 112.972 26.366C113.504 25.8847 113.985 25.074 114.416 23.934L123.346 0.905998C123.447 0.905998 123.548 0.905998 123.65 0.905998C123.751 0.905998 123.852 0.905998 123.954 0.905998ZM128.59 17.056V17.816H117.266L117.646 17.056H128.59ZM136.469 1.096C137.001 1.12133 137.698 1.14667 138.559 1.172C139.42 1.19733 140.269 1.21 141.105 1.21C142.296 1.21 143.436 1.19733 144.525 1.172C145.614 1.14667 146.387 1.134 146.843 1.134C148.895 1.134 150.592 1.42533 151.935 2.008C153.303 2.59067 154.316 3.38867 154.975 4.402C155.659 5.39 156.001 6.50467 156.001 7.746C156.001 8.506 155.849 9.31667 155.545 10.178C155.241 11.0393 154.709 11.85 153.949 12.61C153.214 13.37 152.201 14.0033 150.909 14.51C149.617 14.9913 147.983 15.232 146.007 15.232H142.359V14.472H145.627C147.426 14.472 148.794 14.1933 149.731 13.636C150.694 13.0533 151.34 12.2933 151.669 11.356C152.024 10.3933 152.201 9.32933 152.201 8.164C152.201 6.16267 151.72 4.61733 150.757 3.528C149.82 2.41333 148.198 1.856 145.893 1.856C144.728 1.856 143.968 2.07133 143.613 2.502C143.258 2.93267 143.081 3.80666 143.081 5.124V23.972C143.081 24.884 143.157 25.568 143.309 26.024C143.461 26.48 143.752 26.784 144.183 26.936C144.639 27.088 145.298 27.1893 146.159 27.24V28C145.576 27.9493 144.842 27.924 143.955 27.924C143.094 27.8987 142.22 27.886 141.333 27.886C140.345 27.886 139.42 27.8987 138.559 27.924C137.698 27.924 137.001 27.9493 136.469 28V27.24C137.33 27.1893 137.976 27.088 138.407 26.936C138.863 26.784 139.167 26.48 139.319 26.024C139.471 25.568 139.547 24.884 139.547 23.972V5.124C139.547 4.18666 139.471 3.50266 139.319 3.072C139.167 2.616 138.863 2.312 138.407 2.16C137.976 1.98267 137.33 1.88133 136.469 1.856V1.096ZM142.511 14.586C143.879 14.6367 144.956 14.7 145.741 14.776C146.526 14.8267 147.16 14.8773 147.641 14.928C148.148 14.9787 148.629 15.042 149.085 15.118C150.782 15.3967 151.998 15.916 152.733 16.676C153.493 17.4107 154.05 18.5633 154.405 20.134L155.355 24.01C155.608 25.1247 155.862 25.9353 156.115 26.442C156.394 26.9233 156.812 27.1513 157.369 27.126C157.8 27.1007 158.154 26.9613 158.433 26.708C158.737 26.4547 159.054 26.1127 159.383 25.682L159.953 26.1C159.421 26.8853 158.864 27.4933 158.281 27.924C157.724 28.3293 156.926 28.532 155.887 28.532C154.95 28.532 154.126 28.2533 153.417 27.696C152.708 27.1387 152.176 26.0493 151.821 24.428L150.985 20.628C150.757 19.5387 150.491 18.6013 150.187 17.816C149.908 17.0053 149.503 16.372 148.971 15.916C148.464 15.46 147.704 15.232 146.691 15.232H142.587L142.511 14.586ZM181.75 1.096C181.649 2.05867 181.573 2.996 181.522 3.908C181.497 4.79467 181.484 5.47867 181.484 5.96C181.484 6.568 181.497 7.138 181.522 7.67C181.547 8.202 181.573 8.67067 181.598 9.076H180.724C180.547 7.30267 180.306 5.90933 180.002 4.896C179.698 3.85733 179.166 3.11 178.406 2.654C177.646 2.198 176.468 1.97 174.872 1.97H172.82V23.592C172.82 24.6053 172.909 25.3653 173.086 25.872C173.289 26.3787 173.669 26.7207 174.226 26.898C174.783 27.0753 175.594 27.1893 176.658 27.24V28C175.999 27.9493 175.163 27.924 174.15 27.924C173.137 27.8987 172.111 27.886 171.072 27.886C169.932 27.886 168.855 27.8987 167.842 27.924C166.854 27.924 166.056 27.9493 165.448 28V27.24C166.512 27.1893 167.323 27.0753 167.88 26.898C168.437 26.7207 168.805 26.3787 168.982 25.872C169.185 25.3653 169.286 24.6053 169.286 23.592V1.97H167.234C165.663 1.97 164.485 2.198 163.7 2.654C162.94 3.11 162.408 3.85733 162.104 4.896C161.8 5.90933 161.559 7.30267 161.382 9.076H160.508C160.559 8.67067 160.584 8.202 160.584 7.67C160.609 7.138 160.622 6.568 160.622 5.96C160.622 5.47867 160.597 4.79467 160.546 3.908C160.521 2.996 160.457 2.05867 160.356 1.096C161.42 1.12133 162.573 1.14667 163.814 1.172C165.081 1.19733 166.347 1.21 167.614 1.21C168.881 1.21 170.033 1.21 171.072 1.21C172.111 1.21 173.251 1.21 174.492 1.21C175.759 1.21 177.025 1.19733 178.292 1.172C179.559 1.14667 180.711 1.12133 181.75 1.096ZM205.489 0.563998C207.895 0.563998 209.998 1.10866 211.797 2.198C213.621 3.28733 215.027 4.858 216.015 6.91C217.028 8.93667 217.535 11.4067 217.535 14.32C217.535 17.1573 217.015 19.64 215.977 21.768C214.963 23.896 213.545 25.5553 211.721 26.746C209.897 27.9367 207.807 28.532 205.451 28.532C203.044 28.532 200.929 27.9873 199.105 26.898C197.306 25.8087 195.9 24.238 194.887 22.186C193.899 20.134 193.405 17.664 193.405 14.776C193.405 11.9387 193.924 9.456 194.963 7.328C196.001 5.2 197.42 3.54067 199.219 2.35C201.043 1.15933 203.133 0.563998 205.489 0.563998ZM205.337 1.248C203.69 1.248 202.259 1.818 201.043 2.958C199.827 4.098 198.877 5.66867 198.193 7.67C197.534 9.67133 197.205 11.9893 197.205 14.624C197.205 17.3093 197.572 19.6527 198.307 21.654C199.067 23.63 200.08 25.1627 201.347 26.252C202.639 27.316 204.057 27.848 205.603 27.848C207.249 27.848 208.681 27.278 209.897 26.138C211.113 24.998 212.05 23.4273 212.709 21.426C213.393 19.3993 213.735 17.0813 213.735 14.472C213.735 11.7613 213.355 9.418 212.595 7.442C211.86 5.466 210.859 3.946 209.593 2.882C208.326 1.79267 206.907 1.248 205.337 1.248ZM239.818 1.096C239.716 2.05867 239.64 2.996 239.59 3.908C239.564 4.79467 239.552 5.47867 239.552 5.96C239.552 6.568 239.564 7.138 239.59 7.67C239.615 8.202 239.64 8.67067 239.666 9.076H238.792C238.614 7.30267 238.374 5.90933 238.07 4.896C237.766 3.85733 237.234 3.11 236.474 2.654C235.714 2.198 234.536 1.97 232.94 1.97H230.546C229.684 1.97 229.026 2.046 228.57 2.198C228.139 2.32467 227.848 2.616 227.696 3.072C227.544 3.50266 227.468 4.18666 227.468 5.124V23.972C227.468 24.884 227.556 25.568 227.734 26.024C227.936 26.48 228.316 26.784 228.874 26.936C229.431 27.088 230.242 27.1893 231.306 27.24V28C230.647 27.9493 229.811 27.924 228.798 27.924C227.784 27.8987 226.758 27.886 225.72 27.886C224.732 27.886 223.807 27.8987 222.946 27.924C222.084 27.924 221.388 27.9493 220.856 28V27.24C221.717 27.1893 222.363 27.088 222.794 26.936C223.25 26.784 223.554 26.48 223.706 26.024C223.858 25.568 223.934 24.884 223.934 23.972V5.124C223.934 4.18666 223.858 3.50266 223.706 3.072C223.554 2.616 223.25 2.312 222.794 2.16C222.363 1.98267 221.717 1.88133 220.856 1.856V1.096C221.793 1.12133 222.781 1.14667 223.82 1.172C224.858 1.172 225.884 1.18467 226.898 1.21C227.911 1.21 228.848 1.21 229.71 1.21C230.596 1.21 231.318 1.21 231.876 1.21C233.041 1.21 234.358 1.21 235.828 1.21C237.322 1.18467 238.652 1.14667 239.818 1.096ZM233.928 14.472C233.928 14.472 233.928 14.5987 233.928 14.852C233.928 15.1053 233.928 15.232 233.928 15.232H226.328C226.328 15.232 226.328 15.1053 226.328 14.852C226.328 14.5987 226.328 14.472 226.328 14.472H233.928ZM234.65 9.456C234.548 10.9 234.498 12.002 234.498 12.762C234.523 13.522 234.536 14.2187 234.536 14.852C234.536 15.4853 234.548 16.182 234.574 16.942C234.599 17.702 234.662 18.804 234.764 20.248H233.89C233.788 19.4373 233.662 18.652 233.51 17.892C233.383 17.1067 233.079 16.4733 232.598 15.992C232.142 15.4853 231.356 15.232 230.242 15.232V14.472C231.078 14.472 231.711 14.3073 232.142 13.978C232.598 13.6233 232.927 13.18 233.13 12.648C233.332 12.116 233.472 11.5713 233.548 11.014C233.624 10.4313 233.7 9.912 233.776 9.456H234.65ZM10.246 39.096V39.856C9.38463 39.8813 8.72596 39.9827 8.26996 40.16C7.83929 40.312 7.54796 40.616 7.39596 41.072C7.24396 41.5027 7.16796 42.1867 7.16796 43.124V61.972C7.16796 62.884 7.24396 63.568 7.39596 64.024C7.54796 64.48 7.83929 64.784 8.26996 64.936C8.72596 65.088 9.38463 65.1893 10.246 65.24V66C9.6633 65.9493 8.92863 65.924 8.04196 65.924C7.18063 65.8987 6.30663 65.886 5.41996 65.886C4.43196 65.886 3.50729 65.8987 2.64596 65.924C1.78463 65.924 1.08796 65.9493 0.555961 66V65.24C1.41729 65.1893 2.06329 65.088 2.49396 64.936C2.94996 64.784 3.25396 64.48 3.40596 64.024C3.55796 63.568 3.63396 62.884 3.63396 61.972V43.124C3.63396 42.1867 3.55796 41.5027 3.40596 41.072C3.25396 40.616 2.94996 40.312 2.49396 40.16C2.06329 39.9827 1.41729 39.8813 0.555961 39.856V39.096C1.08796 39.1213 1.78463 39.1467 2.64596 39.172C3.50729 39.1973 4.43196 39.21 5.41996 39.21C6.30663 39.21 7.18063 39.1973 8.04196 39.172C8.92863 39.1467 9.6633 39.1213 10.246 39.096ZM37.2969 39.096V39.856C36.4356 39.8813 35.7769 40.008 35.3209 40.236C34.8902 40.464 34.5989 40.8313 34.4469 41.338C34.2949 41.8447 34.2189 42.5667 34.2189 43.504V66.19C34.0669 66.19 33.9149 66.19 33.7629 66.19C33.6362 66.19 33.4969 66.19 33.3449 66.19L17.3849 41.528V61.592C17.3849 62.504 17.4609 63.226 17.6129 63.758C17.7902 64.2647 18.1196 64.632 18.6009 64.86C19.1076 65.0627 19.8549 65.1893 20.8429 65.24V66C20.3869 65.9493 19.7916 65.924 19.0569 65.924C18.3222 65.8987 17.6256 65.886 16.9669 65.886C16.3336 65.886 15.6876 65.8987 15.0289 65.924C14.3956 65.924 13.8636 65.9493 13.4329 66V65.24C14.2942 65.1893 14.9402 65.0627 15.3709 64.86C15.8269 64.632 16.1309 64.2647 16.2829 63.758C16.4349 63.226 16.5109 62.504 16.5109 61.592V43.124C16.5109 42.1867 16.4349 41.5027 16.2829 41.072C16.1309 40.616 15.8269 40.312 15.3709 40.16C14.9402 39.9827 14.2942 39.8813 13.4329 39.856V39.096C13.8636 39.1213 14.3956 39.1467 15.0289 39.172C15.6876 39.1973 16.3336 39.21 16.9669 39.21C17.5242 39.21 18.0562 39.1973 18.5629 39.172C19.0696 39.1467 19.5256 39.1213 19.9309 39.096L33.3449 59.768V43.504C33.3449 42.5667 33.2562 41.8447 33.0789 41.338C32.9269 40.8313 32.5976 40.464 32.0909 40.236C31.6096 40.008 30.8749 39.8813 29.8869 39.856V39.096C30.3429 39.1213 30.9382 39.1467 31.6729 39.172C32.4329 39.1973 33.1296 39.21 33.7629 39.21C34.4216 39.21 35.0676 39.1973 35.7009 39.172C36.3596 39.1467 36.8916 39.1213 37.2969 39.096ZM48.395 38.678C49.6617 38.678 50.6243 38.83 51.283 39.134C51.9417 39.4127 52.5243 39.7293 53.031 40.084C53.335 40.2613 53.5757 40.4007 53.753 40.502C53.9557 40.578 54.1457 40.616 54.323 40.616C54.5763 40.616 54.7537 40.4767 54.855 40.198C54.9817 39.9193 55.083 39.5013 55.159 38.944H56.033C56.0077 39.3747 55.9697 39.894 55.919 40.502C55.8937 41.0847 55.8683 41.87 55.843 42.858C55.843 43.8207 55.843 45.1 55.843 46.696H54.969C54.893 45.48 54.627 44.3147 54.171 43.2C53.715 42.0853 53.0437 41.1733 52.157 40.464C51.2957 39.7547 50.1557 39.4 48.737 39.4C47.3943 39.4 46.2797 39.8053 45.393 40.616C44.5317 41.4267 44.101 42.4907 44.101 43.808C44.101 44.948 44.3923 45.9107 44.975 46.696C45.5577 47.456 46.3303 48.1527 47.293 48.786C48.281 49.394 49.345 50.0527 50.485 50.762C51.8023 51.5727 52.9677 52.3833 53.981 53.194C55.0197 53.9793 55.8303 54.8533 56.413 55.816C57.021 56.7787 57.325 57.944 57.325 59.312C57.325 60.9333 56.9577 62.276 56.223 63.34C55.4883 64.404 54.513 65.202 53.297 65.734C52.081 66.266 50.7383 66.532 49.269 66.532C47.9263 66.532 46.8623 66.38 46.077 66.076C45.2917 65.772 44.6203 65.4553 44.063 65.126C43.5057 64.7713 43.075 64.594 42.771 64.594C42.5177 64.594 42.3277 64.7333 42.201 65.012C42.0997 65.2907 42.011 65.7087 41.935 66.266H41.061C41.1117 65.734 41.137 65.1133 41.137 64.404C41.1623 63.6693 41.175 62.7193 41.175 61.554C41.2003 60.3887 41.213 58.9193 41.213 57.146H42.087C42.1883 58.666 42.467 60.0847 42.923 61.402C43.4043 62.7193 44.1263 63.7833 45.089 64.594C46.077 65.3793 47.3817 65.772 49.003 65.772C49.839 65.772 50.6243 65.6073 51.359 65.278C52.119 64.9233 52.7397 64.3787 53.221 63.644C53.7023 62.884 53.943 61.9087 53.943 60.718C53.943 59.6793 53.6897 58.78 53.183 58.02C52.7017 57.2347 52.0177 56.5127 51.131 55.854C50.2443 55.17 49.2057 54.4733 48.015 53.764C46.8243 53.0293 45.7097 52.282 44.671 51.522C43.6323 50.762 42.7963 49.888 42.163 48.9C41.555 47.8867 41.251 46.6707 41.251 45.252C41.251 43.7573 41.5803 42.5287 42.239 41.566C42.923 40.578 43.8097 39.856 44.899 39.4C45.9883 38.9187 47.1537 38.678 48.395 38.678ZM81.6845 39.096C81.5831 40.0587 81.5071 40.996 81.4565 41.908C81.4311 42.7947 81.4185 43.4787 81.4185 43.96C81.4185 44.568 81.4311 45.138 81.4565 45.67C81.4818 46.202 81.5071 46.6707 81.5325 47.076H80.6585C80.4811 45.3027 80.2405 43.9093 79.9365 42.896C79.6325 41.8573 79.1005 41.11 78.3405 40.654C77.5805 40.198 76.4025 39.97 74.8065 39.97H72.7545V61.592C72.7545 62.6053 72.8431 63.3653 73.0205 63.872C73.2231 64.3787 73.6031 64.7207 74.1605 64.898C74.7178 65.0753 75.5285 65.1893 76.5925 65.24V66C75.9338 65.9493 75.0978 65.924 74.0845 65.924C73.0711 65.8987 72.0451 65.886 71.0065 65.886C69.8665 65.886 68.7898 65.8987 67.7765 65.924C66.7885 65.924 65.9905 65.9493 65.3825 66V65.24C66.4465 65.1893 67.2571 65.0753 67.8145 64.898C68.3718 64.7207 68.7391 64.3787 68.9165 63.872C69.1191 63.3653 69.2205 62.6053 69.2205 61.592V39.97H67.1685C65.5978 39.97 64.4198 40.198 63.6345 40.654C62.8745 41.11 62.3425 41.8573 62.0385 42.896C61.7345 43.9093 61.4938 45.3027 61.3165 47.076H60.4425C60.4931 46.6707 60.5185 46.202 60.5185 45.67C60.5438 45.138 60.5565 44.568 60.5565 43.96C60.5565 43.4787 60.5311 42.7947 60.4805 41.908C60.4551 40.996 60.3918 40.0587 60.2905 39.096C61.3545 39.1213 62.5071 39.1467 63.7485 39.172C65.0151 39.1973 66.2818 39.21 67.5485 39.21C68.8151 39.21 69.9678 39.21 71.0065 39.21C72.0451 39.21 73.1851 39.21 74.4265 39.21C75.6931 39.21 76.9598 39.1973 78.2265 39.172C79.4931 39.1467 80.6458 39.1213 81.6845 39.096ZM84.386 39.096C84.918 39.1213 85.6147 39.1467 86.476 39.172C87.3374 39.1973 88.186 39.21 89.022 39.21C90.2127 39.21 91.3527 39.1973 92.442 39.172C93.5314 39.1467 94.304 39.134 94.76 39.134C96.812 39.134 98.5094 39.4253 99.852 40.008C101.22 40.5907 102.233 41.3887 102.892 42.402C103.576 43.39 103.918 44.5047 103.918 45.746C103.918 46.506 103.766 47.3167 103.462 48.178C103.158 49.0393 102.626 49.85 101.866 50.61C101.131 51.37 100.118 52.0033 98.826 52.51C97.534 52.9913 95.9 53.232 93.924 53.232H90.276V52.472H93.544C95.3427 52.472 96.7107 52.1933 97.648 51.636C98.6107 51.0533 99.2567 50.2933 99.586 49.356C99.9407 48.3933 100.118 47.3293 100.118 46.164C100.118 44.1627 99.6367 42.6173 98.674 41.528C97.7367 40.4133 96.1154 39.856 93.81 39.856C92.6447 39.856 91.8847 40.0713 91.53 40.502C91.1754 40.9327 90.998 41.8067 90.998 43.124V61.972C90.998 62.884 91.074 63.568 91.226 64.024C91.378 64.48 91.6694 64.784 92.1 64.936C92.556 65.088 93.2147 65.1893 94.076 65.24V66C93.4934 65.9493 92.7587 65.924 91.872 65.924C91.0107 65.8987 90.1367 65.886 89.25 65.886C88.262 65.886 87.3374 65.8987 86.476 65.924C85.6147 65.924 84.918 65.9493 84.386 66V65.24C85.2474 65.1893 85.8934 65.088 86.324 64.936C86.78 64.784 87.084 64.48 87.236 64.024C87.388 63.568 87.464 62.884 87.464 61.972V43.124C87.464 42.1867 87.388 41.5027 87.236 41.072C87.084 40.616 86.78 40.312 86.324 40.16C85.8934 39.9827 85.2474 39.8813 84.386 39.856V39.096ZM90.428 52.586C91.796 52.6367 92.8727 52.7 93.658 52.776C94.4434 52.8267 95.0767 52.8773 95.558 52.928C96.0647 52.9787 96.546 53.042 97.002 53.118C98.6994 53.3967 99.9154 53.916 100.65 54.676C101.41 55.4107 101.967 56.5633 102.322 58.134L103.272 62.01C103.525 63.1247 103.779 63.9353 104.032 64.442C104.311 64.9233 104.729 65.1513 105.286 65.126C105.717 65.1007 106.071 64.9613 106.35 64.708C106.654 64.4547 106.971 64.1127 107.3 63.682L107.87 64.1C107.338 64.8853 106.781 65.4933 106.198 65.924C105.641 66.3293 104.843 66.532 103.804 66.532C102.867 66.532 102.043 66.2533 101.334 65.696C100.625 65.1387 100.093 64.0493 99.738 62.428L98.902 58.628C98.674 57.5387 98.408 56.6013 98.104 55.816C97.8254 55.0053 97.42 54.372 96.888 53.916C96.3814 53.46 95.6214 53.232 94.608 53.232H90.504L90.428 52.586ZM135.34 69.8844C136.184 69.8844 137 69.617 137.788 69.0822C138.577 68.5756 139.196 67.8437 139.646 66.8867H139.731C138.971 68.9696 137.507 70.0111 135.34 70.0111C134.664 70.0111 134.073 69.8704 133.566 69.5889C133.088 69.3356 132.736 68.9696 132.511 68.4911C132.285 68.0407 132.117 67.5904 132.004 67.14C131.92 66.6896 131.877 66.2111 131.877 65.7044C131.877 64.1281 132.314 62.3407 133.186 60.3422C134.087 58.3156 135.424 55.9511 137.197 53.2489C135.677 55.2756 134.34 57.0207 133.186 58.4844C132.032 59.9481 130.765 61.4541 129.386 63.0022C128.007 64.5504 126.74 65.7326 125.586 66.5489C124.432 67.3933 123.447 67.8156 122.631 67.8156C121.843 67.8156 121.181 67.5904 120.646 67.14C120.14 66.7178 119.886 66.0563 119.886 65.1556C119.886 64.2267 120.21 63.1852 120.857 62.0311C121.533 60.877 122.363 59.7652 123.348 58.6956C124.362 57.6259 125.445 56.4296 126.6 55.1067C127.782 53.7837 128.865 52.517 129.851 51.3067C130.864 50.0681 131.708 48.717 132.384 47.2533C133.06 45.7615 133.397 44.34 133.397 42.9889C133.397 41.3563 132.848 39.963 131.751 38.8089C130.681 37.6548 129.034 37.0778 126.811 37.0778C125.178 37.0778 123.63 37.3593 122.166 37.9222C120.731 38.457 119.506 39.1607 118.493 40.0333C117.48 40.9059 116.593 41.9052 115.833 43.0311C115.073 44.1289 114.51 45.2548 114.144 46.4089C113.806 47.5348 113.637 48.6185 113.637 49.66C113.637 51.1237 114.031 52.3059 114.82 53.2067C115.608 54.1074 116.776 54.5578 118.324 54.5578C121.111 54.5578 123.32 53.7837 124.953 52.2356C126.614 50.6874 127.444 48.9422 127.444 47C127.444 45.9304 127.12 45.1141 126.473 44.5511C125.825 43.9881 124.995 43.7067 123.982 43.7067C122.518 43.7067 121.139 44.1852 119.844 45.1422L119.76 45.0156C121.083 44.0304 122.631 43.5378 124.404 43.5378C125.671 43.5378 126.726 43.8474 127.571 44.4667C128.443 45.0578 128.88 45.9022 128.88 47C128.88 48.8859 127.838 50.6452 125.755 52.2778C123.672 53.9104 121.195 54.7267 118.324 54.7267C116.241 54.7267 114.623 54.1496 113.468 52.9956C112.343 51.8415 111.78 50.3919 111.78 48.6467C111.78 47.2956 112.089 45.9585 112.708 44.6356C113.328 43.2844 114.228 42.0319 115.411 40.8778C116.593 39.6956 118.169 38.7385 120.14 38.0067C122.138 37.2748 124.362 36.9089 126.811 36.9089C129.147 36.9089 131.019 37.5563 132.426 38.8511C133.862 40.1459 134.58 41.5956 134.58 43.2C134.58 44.7763 134.228 46.4089 133.524 48.0978C132.848 49.7585 132.004 51.2785 130.991 52.6578C129.977 54.0089 128.865 55.3741 127.655 56.7533C126.473 58.1326 125.361 59.357 124.32 60.4267C123.306 61.4681 122.448 62.4674 121.744 63.4244C121.068 64.3815 120.731 65.1696 120.731 65.7889C120.731 66.4644 120.885 66.9289 121.195 67.1822C121.533 67.4356 122.025 67.5622 122.673 67.5622C123.264 67.5622 123.954 67.323 124.742 66.8444C125.558 66.3941 126.459 65.6763 127.444 64.6911C128.457 63.6778 129.386 62.7067 130.231 61.7778C131.075 60.8489 132.103 59.5963 133.313 58.02C134.551 56.4437 135.508 55.2052 136.184 54.3044C136.86 53.3756 137.803 52.0807 139.013 50.42C139.266 50.1104 139.449 49.8711 139.562 49.7022C140.575 48.2667 143.01 44.8748 146.866 39.5267C147.007 39.78 147.26 39.9067 147.626 39.9067C148.33 39.9067 149.02 39.5548 149.695 38.8511C149.667 38.9074 149.118 39.6393 148.048 41.0467C146.979 42.4541 145.881 43.9178 144.755 45.4378C143.657 46.9578 142.363 48.8015 140.871 50.9689C139.407 53.1081 138.112 55.1067 136.986 56.9644C135.86 58.8222 134.903 60.6378 134.115 62.4111C133.327 64.1844 132.933 65.5778 132.933 66.5911C132.933 68.7867 133.735 69.8844 135.34 69.8844ZM174.78 39.096V39.856C173.919 39.8813 173.26 39.9827 172.804 40.16C172.374 40.312 172.082 40.616 171.93 41.072C171.778 41.5027 171.702 42.1867 171.702 43.124V61.972C171.702 62.884 171.778 63.568 171.93 64.024C172.082 64.48 172.374 64.784 172.804 64.936C173.26 65.088 173.919 65.1893 174.78 65.24V66C174.198 65.9493 173.463 65.924 172.576 65.924C171.715 65.8987 170.841 65.886 169.954 65.886C168.966 65.886 168.042 65.8987 167.18 65.924C166.319 65.924 165.622 65.9493 165.09 66V65.24C165.952 65.1893 166.598 65.088 167.028 64.936C167.484 64.784 167.788 64.48 167.94 64.024C168.092 63.568 168.168 62.884 168.168 61.972V41.072L168.32 41.186L159.01 66.19H158.402L148.826 41.528V61.592C148.826 62.504 148.902 63.226 149.054 63.758C149.232 64.2647 149.561 64.632 150.042 64.86C150.549 65.0627 151.296 65.1893 152.284 65.24V66C151.828 65.9493 151.233 65.924 150.498 65.924C149.764 65.8987 149.067 65.886 148.408 65.886C147.775 65.886 147.129 65.8987 146.47 65.924C145.837 65.924 145.305 65.9493 144.874 66V65.24C145.736 65.1893 146.382 65.0627 146.812 64.86C147.268 64.632 147.572 64.2647 147.724 63.758C147.876 63.226 147.952 62.504 147.952 61.592V43.124C147.952 42.1867 147.876 41.5027 147.724 41.072C147.572 40.616 147.268 40.312 146.812 40.16C146.382 39.9827 145.736 39.8813 144.874 39.856V39.096C145.305 39.1213 145.837 39.1467 146.47 39.172C147.129 39.1973 147.775 39.21 148.408 39.21C148.966 39.21 149.536 39.1973 150.118 39.172C150.726 39.1467 151.233 39.1213 151.638 39.096L160.264 61.82L159.618 62.124L168.168 39.21C168.472 39.21 168.764 39.21 169.042 39.21C169.346 39.21 169.65 39.21 169.954 39.21C170.841 39.21 171.715 39.1973 172.576 39.172C173.463 39.1467 174.198 39.1213 174.78 39.096ZM196.938 39.096C196.837 39.9827 196.761 40.844 196.71 41.68C196.685 42.516 196.672 43.1493 196.672 43.58C196.672 44.036 196.685 44.4793 196.71 44.91C196.735 45.3153 196.761 45.6573 196.786 45.936H195.912C195.76 44.4413 195.545 43.2633 195.266 42.402C194.987 41.5153 194.506 40.8947 193.822 40.54C193.163 40.16 192.163 39.97 190.82 39.97H187.666C186.805 39.97 186.146 40.046 185.69 40.198C185.259 40.3247 184.968 40.616 184.816 41.072C184.664 41.5027 184.588 42.1867 184.588 43.124V61.972C184.588 62.884 184.664 63.568 184.816 64.024C184.968 64.48 185.259 64.784 185.69 64.936C186.146 65.0627 186.805 65.126 187.666 65.126H190.44C192.036 65.126 193.239 64.9107 194.05 64.48C194.886 64.0493 195.481 63.3527 195.836 62.39C196.216 61.402 196.495 60.072 196.672 58.4H197.546C197.47 59.084 197.432 59.996 197.432 61.136C197.432 61.6173 197.445 62.314 197.47 63.226C197.521 64.1127 197.597 65.0373 197.698 66C196.406 65.9493 194.949 65.924 193.328 65.924C191.707 65.8987 190.263 65.886 188.996 65.886C188.439 65.886 187.717 65.886 186.83 65.886C185.969 65.886 185.031 65.8987 184.018 65.924C183.005 65.924 181.979 65.9367 180.94 65.962C179.901 65.962 178.913 65.9747 177.976 66V65.24C178.837 65.1893 179.483 65.088 179.914 64.936C180.37 64.784 180.674 64.48 180.826 64.024C180.978 63.568 181.054 62.884 181.054 61.972V43.124C181.054 42.1867 180.978 41.5027 180.826 41.072C180.674 40.616 180.37 40.312 179.914 40.16C179.483 39.9827 178.837 39.8813 177.976 39.856V39.096C178.913 39.1213 179.901 39.1467 180.94 39.172C181.979 39.172 183.005 39.1847 184.018 39.21C185.031 39.21 185.969 39.21 186.83 39.21C187.717 39.21 188.439 39.21 188.996 39.21C190.161 39.21 191.479 39.21 192.948 39.21C194.443 39.1847 195.773 39.1467 196.938 39.096ZM190.402 52.092C190.402 52.092 190.402 52.2187 190.402 52.472C190.402 52.7253 190.402 52.852 190.402 52.852H183.448C183.448 52.852 183.448 52.7253 183.448 52.472C183.448 52.2187 183.448 52.092 183.448 52.092H190.402ZM191.504 47.076C191.403 48.52 191.352 49.622 191.352 50.382C191.377 51.142 191.39 51.8387 191.39 52.472C191.39 53.1053 191.403 53.802 191.428 54.562C191.453 55.322 191.517 56.424 191.618 57.868H190.744C190.643 57.0573 190.516 56.272 190.364 55.512C190.237 54.7267 189.933 54.0933 189.452 53.612C188.996 53.1053 188.211 52.852 187.096 52.852V52.092C187.932 52.092 188.565 51.9273 188.996 51.598C189.452 51.2433 189.781 50.8 189.984 50.268C190.187 49.736 190.326 49.1913 190.402 48.634C190.478 48.0513 190.554 47.532 190.63 47.076H191.504ZM224.996 39.096V39.856C224.135 39.8813 223.476 40.008 223.02 40.236C222.589 40.464 222.298 40.8313 222.146 41.338C221.994 41.8447 221.918 42.5667 221.918 43.504V66.19C221.766 66.19 221.614 66.19 221.462 66.19C221.335 66.19 221.196 66.19 221.044 66.19L205.084 41.528V61.592C205.084 62.504 205.16 63.226 205.312 63.758C205.489 64.2647 205.819 64.632 206.3 64.86C206.807 65.0627 207.554 65.1893 208.542 65.24V66C208.086 65.9493 207.491 65.924 206.756 65.924C206.021 65.8987 205.325 65.886 204.666 65.886C204.033 65.886 203.387 65.8987 202.728 65.924C202.095 65.924 201.563 65.9493 201.132 66V65.24C201.993 65.1893 202.639 65.0627 203.07 64.86C203.526 64.632 203.83 64.2647 203.982 63.758C204.134 63.226 204.21 62.504 204.21 61.592V43.124C204.21 42.1867 204.134 41.5027 203.982 41.072C203.83 40.616 203.526 40.312 203.07 40.16C202.639 39.9827 201.993 39.8813 201.132 39.856V39.096C201.563 39.1213 202.095 39.1467 202.728 39.172C203.387 39.1973 204.033 39.21 204.666 39.21C205.223 39.21 205.755 39.1973 206.262 39.172C206.769 39.1467 207.225 39.1213 207.63 39.096L221.044 59.768V43.504C221.044 42.5667 220.955 41.8447 220.778 41.338C220.626 40.8313 220.297 40.464 219.79 40.236C219.309 40.008 218.574 39.8813 217.586 39.856V39.096C218.042 39.1213 218.637 39.1467 219.372 39.172C220.132 39.1973 220.829 39.21 221.462 39.21C222.121 39.21 222.767 39.1973 223.4 39.172C224.059 39.1467 224.591 39.1213 224.996 39.096ZM248.862 39.096C248.761 40.0587 248.685 40.996 248.634 41.908C248.609 42.7947 248.596 43.4787 248.596 43.96C248.596 44.568 248.609 45.138 248.634 45.67C248.66 46.202 248.685 46.6707 248.71 47.076H247.836C247.659 45.3027 247.418 43.9093 247.114 42.896C246.81 41.8573 246.278 41.11 245.518 40.654C244.758 40.198 243.58 39.97 241.984 39.97H239.932V61.592C239.932 62.6053 240.021 63.3653 240.198 63.872C240.401 64.3787 240.781 64.7207 241.338 64.898C241.896 65.0753 242.706 65.1893 243.77 65.24V66C243.112 65.9493 242.276 65.924 241.262 65.924C240.249 65.8987 239.223 65.886 238.184 65.886C237.044 65.886 235.968 65.8987 234.954 65.924C233.966 65.924 233.168 65.9493 232.56 66V65.24C233.624 65.1893 234.435 65.0753 234.992 64.898C235.55 64.7207 235.917 64.3787 236.094 63.872C236.297 63.3653 236.398 62.6053 236.398 61.592V39.97H234.346C232.776 39.97 231.598 40.198 230.812 40.654C230.052 41.11 229.52 41.8573 229.216 42.896C228.912 43.9093 228.672 45.3027 228.494 47.076H227.62C227.671 46.6707 227.696 46.202 227.696 45.67C227.722 45.138 227.734 44.568 227.734 43.96C227.734 43.4787 227.709 42.7947 227.658 41.908C227.633 40.996 227.57 40.0587 227.468 39.096C228.532 39.1213 229.685 39.1467 230.926 39.172C232.193 39.1973 233.46 39.21 234.726 39.21C235.993 39.21 237.146 39.21 238.184 39.21C239.223 39.21 240.363 39.21 241.604 39.21C242.871 39.21 244.138 39.1973 245.404 39.172C246.671 39.1467 247.824 39.1213 248.862 39.096ZM5.52862 77.096C6.06062 77.1213 6.75728 77.1467 7.61862 77.172C8.47995 77.1973 9.32862 77.21 10.1646 77.21C11.3553 77.21 12.4953 77.1973 13.5846 77.172C14.674 77.1467 15.4466 77.134 15.9026 77.134C18.968 77.134 21.2606 77.8307 22.7806 79.224C24.3006 80.6173 25.0606 82.416 25.0606 84.62C25.0606 85.532 24.9086 86.4947 24.6046 87.508C24.3006 88.496 23.7686 89.4207 23.0086 90.282C22.274 91.118 21.2606 91.802 19.9686 92.334C18.6766 92.866 17.0426 93.132 15.0666 93.132H11.4186V92.372H14.6866C16.4853 92.372 17.8533 92.03 18.7906 91.346C19.7533 90.662 20.3993 89.7627 20.7286 88.648C21.0833 87.5333 21.2606 86.33 21.2606 85.038C21.2606 82.6313 20.7793 80.8327 19.8166 79.642C18.8793 78.4513 17.258 77.856 14.9526 77.856C13.7873 77.856 13.0273 78.0713 12.6726 78.502C12.318 78.9327 12.1406 79.8067 12.1406 81.124V99.972C12.1406 100.884 12.2293 101.568 12.4066 102.024C12.6093 102.48 12.9893 102.784 13.5466 102.936C14.104 103.088 14.9146 103.189 15.9786 103.24V104C15.32 103.949 14.484 103.924 13.4706 103.924C12.4573 103.899 11.4313 103.886 10.3926 103.886C9.40462 103.886 8.47995 103.899 7.61862 103.924C6.75728 103.924 6.06062 103.949 5.52862 104V103.24C6.38995 103.189 7.03595 103.088 7.46662 102.936C7.92262 102.784 8.22662 102.48 8.37862 102.024C8.53062 101.568 8.60662 100.884 8.60662 99.972V81.124C8.60662 80.1867 8.53062 79.5027 8.37862 79.072C8.22662 78.616 7.92262 78.312 7.46662 78.16C7.03595 77.9827 6.38995 77.8813 5.52862 77.856V77.096ZM27.7571 77.096C28.2891 77.1213 28.9858 77.1467 29.8471 77.172C30.7085 77.1973 31.5571 77.21 32.3931 77.21C33.5838 77.21 34.7238 77.1973 35.8131 77.172C36.9025 77.1467 37.6751 77.134 38.1311 77.134C40.1831 77.134 41.8805 77.4253 43.2231 78.008C44.5911 78.5907 45.6045 79.3887 46.2631 80.402C46.9471 81.39 47.2891 82.5047 47.2891 83.746C47.2891 84.506 47.1371 85.3167 46.8331 86.178C46.5291 87.0393 45.9971 87.85 45.2371 88.61C44.5025 89.37 43.4891 90.0033 42.1971 90.51C40.9051 90.9913 39.2711 91.232 37.2951 91.232H33.6471V90.472H36.9151C38.7138 90.472 40.0818 90.1933 41.0191 89.636C41.9818 89.0533 42.6278 88.2933 42.9571 87.356C43.3118 86.3933 43.4891 85.3293 43.4891 84.164C43.4891 82.1627 43.0078 80.6173 42.0451 79.528C41.1078 78.4133 39.4865 77.856 37.1811 77.856C36.0158 77.856 35.2558 78.0713 34.9011 78.502C34.5465 78.9327 34.3691 79.8067 34.3691 81.124V99.972C34.3691 100.884 34.4451 101.568 34.5971 102.024C34.7491 102.48 35.0405 102.784 35.4711 102.936C35.9271 103.088 36.5858 103.189 37.4471 103.24V104C36.8645 103.949 36.1298 103.924 35.2431 103.924C34.3818 103.899 33.5078 103.886 32.6211 103.886C31.6331 103.886 30.7085 103.899 29.8471 103.924C28.9858 103.924 28.2891 103.949 27.7571 104V103.24C28.6185 103.189 29.2645 103.088 29.6951 102.936C30.1511 102.784 30.4551 102.48 30.6071 102.024C30.7591 101.568 30.8351 100.884 30.8351 99.972V81.124C30.8351 80.1867 30.7591 79.5027 30.6071 79.072C30.4551 78.616 30.1511 78.312 29.6951 78.16C29.2645 77.9827 28.6185 77.8813 27.7571 77.856V77.096ZM33.7991 90.586C35.1671 90.6367 36.2438 90.7 37.0291 90.776C37.8145 90.8267 38.4478 90.8773 38.9291 90.928C39.4358 90.9787 39.9171 91.042 40.3731 91.118C42.0705 91.3967 43.2865 91.916 44.0211 92.676C44.7811 93.4107 45.3385 94.5633 45.6931 96.134L46.6431 100.01C46.8965 101.125 47.1498 101.935 47.4031 102.442C47.6818 102.923 48.0998 103.151 48.6571 103.126C49.0878 103.101 49.4425 102.961 49.7211 102.708C50.0251 102.455 50.3418 102.113 50.6711 101.682L51.2411 102.1C50.7091 102.885 50.1518 103.493 49.5691 103.924C49.0118 104.329 48.2138 104.532 47.1751 104.532C46.2378 104.532 45.4145 104.253 44.7051 103.696C43.9958 103.139 43.4638 102.049 43.1091 100.428L42.2731 96.628C42.0451 95.5387 41.7791 94.6013 41.4751 93.816C41.1965 93.0053 40.7911 92.372 40.2591 91.916C39.7525 91.46 38.9925 91.232 37.9791 91.232H33.8751L33.7991 90.586ZM76.3884 81.9178C77.1203 82.5933 77.4862 83.6489 77.4862 85.0844C77.4862 86.52 77.1203 88.1807 76.3884 90.0667C75.6847 91.9526 74.6573 93.8667 73.3062 95.8089C71.9832 97.723 70.4773 99.4963 68.7884 101.129C67.0995 102.761 65.1573 104.099 62.9618 105.14C60.7944 106.181 58.6129 106.702 56.4173 106.702C54.5032 106.702 53.0536 106.125 52.0684 104.971C51.1114 103.845 50.6329 102.297 50.6329 100.327C50.6329 98.6096 50.9847 96.7237 51.6884 94.6689C52.4203 92.6141 53.4618 90.5733 54.8129 88.5467C56.1921 86.52 57.7544 84.6763 59.4995 83.0156C61.2729 81.3267 63.3136 79.9756 65.6218 78.9622C67.9581 77.9207 70.3366 77.4 72.7573 77.4C74.024 77.4 74.981 77.6956 75.6284 78.2867C76.304 78.8778 76.6418 79.6378 76.6418 80.5667C76.6418 81.017 76.5573 81.4674 76.3884 81.9178ZM56.4595 106.28C58.1484 106.28 59.8514 105.886 61.5684 105.098C63.3136 104.31 64.904 103.282 66.3395 102.016C67.7751 100.749 69.1262 99.3133 70.3929 97.7089C71.6595 96.1044 72.7151 94.4859 73.5595 92.8533C74.4321 91.2207 75.1218 89.6585 75.6284 88.1667C76.1351 86.6467 76.3884 85.3378 76.3884 84.24C76.3884 83.5926 76.2899 83.0437 76.0929 82.5933C75.5581 83.6911 74.6714 84.6059 73.4329 85.3378C72.1944 86.0415 70.7306 86.3933 69.0418 86.3933C67.8877 86.3933 66.9025 86.2104 66.0862 85.8444C64.5662 87.3644 63.3136 89.0111 62.3284 90.7844C61.3432 92.5296 60.8506 93.9652 60.8506 95.0911C60.8506 96.3578 61.4136 97.0052 62.5395 97.0333C63.2714 97.0333 63.961 96.7096 64.6084 96.0622C65.2558 95.3867 65.6218 94.697 65.7062 93.9933C65.7344 93.9089 65.7484 93.8385 65.7484 93.7822C65.7484 93.5852 65.7906 93.5007 65.8751 93.5289C65.9314 93.5289 65.9736 93.557 66.0018 93.6133C66.0018 93.6978 65.9595 93.7822 65.8751 93.8667C65.8188 93.9511 65.7906 93.9933 65.7906 93.9933C65.7344 94.7533 65.3825 95.457 64.7351 96.1044C64.0877 96.7519 63.3558 97.0896 62.5395 97.1178H62.4973C61.6247 97.0896 60.9632 96.8222 60.5129 96.3156C60.0906 95.8089 59.8795 95.1052 59.8795 94.2044C59.8795 92.8815 60.3299 91.3615 61.2306 89.6444C62.1595 87.8993 63.3699 86.3511 64.8618 85C64.2144 84.3526 63.9329 83.5081 64.0173 82.4667H64.0595C63.9751 83.5081 64.2566 84.3385 64.904 84.9578C65.8329 84.1415 66.804 83.4659 67.8173 82.9311C70.0692 81.7489 72.1662 81.1578 74.1084 81.1578C74.8684 81.1578 75.5158 81.3267 76.0506 81.6644C76.1632 81.2422 76.2195 80.8341 76.2195 80.44C76.2195 79.6237 75.924 78.9481 75.3329 78.4133C74.7418 77.8785 73.8692 77.6111 72.7151 77.6111C70.604 77.6111 68.4788 78.16 66.3395 79.2578C64.2284 80.3556 62.3425 81.7911 60.6818 83.5644C59.0492 85.3096 57.5714 87.2237 56.2484 89.3067C54.9536 91.3896 53.9544 93.4726 53.2506 95.5556C52.5751 97.6385 52.2373 99.5104 52.2373 101.171C52.2373 102.747 52.5751 103.986 53.2506 104.887C53.9544 105.816 55.024 106.28 56.4595 106.28ZM75.8395 82.1711C75.4736 81.6363 74.9388 81.3689 74.2351 81.3689C71.7299 81.3689 69.0277 82.8326 66.1284 85.76C66.8603 86.0696 67.7329 86.2244 68.7462 86.2244C70.4632 86.2244 71.9551 85.8304 73.2218 85.0422C74.4884 84.2541 75.361 83.297 75.8395 82.1711ZM86.1136 77.096C90.6482 77.096 94.0176 78.236 96.2216 80.516C98.4256 82.7707 99.5276 86.0133 99.5276 90.244C99.5276 93.0053 98.9829 95.4247 97.8936 97.502C96.8296 99.554 95.2716 101.15 93.2196 102.29C91.1676 103.43 88.6849 104 85.7716 104C85.3916 104 84.8849 103.987 84.2516 103.962C83.6182 103.937 82.9596 103.924 82.2756 103.924C81.6169 103.899 81.0089 103.886 80.4516 103.886C79.5649 103.886 78.6909 103.899 77.8296 103.924C76.9682 103.924 76.2716 103.949 75.7396 104V103.24C76.6009 103.189 77.2469 103.088 77.6776 102.936C78.1336 102.784 78.4376 102.48 78.5896 102.024C78.7416 101.568 78.8176 100.884 78.8176 99.972V81.124C78.8176 80.1867 78.7416 79.5027 78.5896 79.072C78.4376 78.616 78.1336 78.312 77.6776 78.16C77.2469 77.9827 76.6009 77.8813 75.7396 77.856V77.096C76.2716 77.1213 76.9682 77.1593 77.8296 77.21C78.6909 77.2353 79.5396 77.2353 80.3756 77.21C81.2622 77.1847 82.2629 77.1593 83.3776 77.134C84.4922 77.1087 85.4042 77.096 86.1136 77.096ZM85.1636 77.78C83.9982 77.78 83.2382 77.9953 82.8836 78.426C82.5289 78.8567 82.3516 79.7307 82.3516 81.048V100.048C82.3516 101.365 82.5289 102.239 82.8836 102.67C83.2636 103.101 84.0362 103.316 85.2016 103.316C87.9629 103.316 90.1036 102.822 91.6236 101.834C93.1436 100.821 94.2076 99.3513 94.8156 97.426C95.4236 95.5007 95.7276 93.1573 95.7276 90.396C95.7276 87.5587 95.3856 85.2153 94.7016 83.366C94.0429 81.4913 92.9409 80.098 91.3956 79.186C89.8756 78.2487 87.7982 77.78 85.1636 77.78ZM126.235 77.096V77.856C125.373 77.8813 124.715 78.008 124.259 78.236C123.828 78.464 123.537 78.8313 123.385 79.338C123.233 79.8447 123.157 80.5667 123.157 81.504V92.942C123.157 94.7153 123.043 96.2607 122.815 97.578C122.587 98.8953 122.181 100.035 121.599 100.998C120.965 102.062 120.041 102.923 118.825 103.582C117.609 104.215 116.215 104.532 114.645 104.532C113.429 104.532 112.263 104.38 111.149 104.076C110.059 103.797 109.097 103.265 108.261 102.48C107.526 101.771 106.943 101.023 106.513 100.238C106.107 99.4527 105.829 98.49 105.677 97.35C105.525 96.21 105.449 94.7787 105.449 93.056V81.124C105.449 80.1867 105.373 79.5027 105.221 79.072C105.069 78.616 104.765 78.312 104.309 78.16C103.878 77.9827 103.232 77.8813 102.371 77.856V77.096C102.903 77.1213 103.599 77.1467 104.461 77.172C105.322 77.1973 106.247 77.21 107.235 77.21C108.121 77.21 108.995 77.1973 109.857 77.172C110.743 77.1467 111.478 77.1213 112.061 77.096V77.856C111.199 77.8813 110.541 77.9827 110.085 78.16C109.654 78.312 109.363 78.616 109.211 79.072C109.059 79.5027 108.983 80.1867 108.983 81.124V93.702C108.983 94.994 109.046 96.2227 109.173 97.388C109.299 98.528 109.553 99.5413 109.933 100.428C110.338 101.289 110.946 101.973 111.757 102.48C112.567 102.961 113.644 103.202 114.987 103.202C116.912 103.202 118.394 102.784 119.433 101.948C120.497 101.087 121.231 99.9087 121.637 98.414C122.067 96.9193 122.283 95.2347 122.283 93.36V81.504C122.283 80.5667 122.169 79.8447 121.941 79.338C121.738 78.8313 121.383 78.464 120.877 78.236C120.37 78.008 119.686 77.8813 118.825 77.856V77.096C119.281 77.1213 119.876 77.1467 120.611 77.172C121.371 77.1973 122.067 77.21 122.701 77.21C123.359 77.21 124.005 77.1973 124.639 77.172C125.297 77.1467 125.829 77.1213 126.235 77.096ZM141.122 76.564C142.794 76.564 144.162 76.8173 145.226 77.324C146.316 77.8053 147.278 78.3753 148.114 79.034C148.621 79.414 149.001 79.4647 149.254 79.186C149.533 78.882 149.723 78.1853 149.824 77.096H150.698C150.648 78.0333 150.61 79.1733 150.584 80.516C150.559 81.8587 150.546 83.632 150.546 85.836H149.672C149.495 84.7467 149.33 83.8853 149.178 83.252C149.026 82.5933 148.836 82.036 148.608 81.58C148.406 81.124 148.127 80.668 147.772 80.212C146.987 79.1733 145.999 78.426 144.808 77.97C143.618 77.4887 142.364 77.248 141.046 77.248C139.805 77.248 138.678 77.5647 137.664 78.198C136.676 78.806 135.815 79.6927 135.08 80.858C134.371 82.0233 133.814 83.4293 133.408 85.076C133.028 86.7227 132.838 88.572 132.838 90.624C132.838 92.752 133.054 94.6393 133.484 96.286C133.915 97.9073 134.51 99.2753 135.27 100.39C136.056 101.505 136.968 102.353 138.006 102.936C139.07 103.493 140.21 103.772 141.426 103.772C142.566 103.772 143.757 103.544 144.998 103.088C146.24 102.632 147.215 101.897 147.924 100.884C148.482 100.149 148.862 99.3513 149.064 98.49C149.292 97.6287 149.495 96.4253 149.672 94.88H150.546C150.546 97.1853 150.559 99.0473 150.584 100.466C150.61 101.859 150.648 103.037 150.698 104H149.824C149.723 102.911 149.546 102.227 149.292 101.948C149.064 101.669 148.672 101.707 148.114 102.062C147.177 102.721 146.176 103.303 145.112 103.81C144.074 104.291 142.731 104.532 141.084 104.532C138.678 104.532 136.562 103.987 134.738 102.898C132.94 101.809 131.534 100.238 130.52 98.186C129.532 96.134 129.038 93.664 129.038 90.776C129.038 87.9387 129.558 85.456 130.596 83.328C131.635 81.2 133.054 79.5407 134.852 78.35C136.676 77.1593 138.766 76.564 141.122 76.564ZM175.683 77.096C175.581 78.0587 175.505 78.996 175.455 79.908C175.429 80.7947 175.417 81.4787 175.417 81.96C175.417 82.568 175.429 83.138 175.455 83.67C175.48 84.202 175.505 84.6707 175.531 85.076H174.657C174.479 83.3027 174.239 81.9093 173.935 80.896C173.631 79.8573 173.099 79.11 172.339 78.654C171.579 78.198 170.401 77.97 168.805 77.97H166.753V99.592C166.753 100.605 166.841 101.365 167.019 101.872C167.221 102.379 167.601 102.721 168.159 102.898C168.716 103.075 169.527 103.189 170.591 103.24V104C169.932 103.949 169.096 103.924 168.083 103.924C167.069 103.899 166.043 103.886 165.005 103.886C163.865 103.886 162.788 103.899 161.775 103.924C160.787 103.924 159.989 103.949 159.381 104V103.24C160.445 103.189 161.255 103.075 161.813 102.898C162.37 102.721 162.737 102.379 162.915 101.872C163.117 101.365 163.219 100.605 163.219 99.592V77.97H161.167C159.596 77.97 158.418 78.198 157.633 78.654C156.873 79.11 156.341 79.8573 156.037 80.896C155.733 81.9093 155.492 83.3027 155.315 85.076H154.441C154.491 84.6707 154.517 84.202 154.517 83.67C154.542 83.138 154.555 82.568 154.555 81.96C154.555 81.4787 154.529 80.7947 154.479 79.908C154.453 78.996 154.39 78.0587 154.289 77.096C155.353 77.1213 156.505 77.1467 157.747 77.172C159.013 77.1973 160.28 77.21 161.547 77.21C162.813 77.21 163.966 77.21 165.005 77.21C166.043 77.21 167.183 77.21 168.425 77.21C169.691 77.21 170.958 77.1973 172.225 77.172C173.491 77.1467 174.644 77.1213 175.683 77.096ZM188.074 77.096V77.856C187.213 77.8813 186.554 77.9827 186.098 78.16C185.667 78.312 185.376 78.616 185.224 79.072C185.072 79.5027 184.996 80.1867 184.996 81.124V99.972C184.996 100.884 185.072 101.568 185.224 102.024C185.376 102.48 185.667 102.784 186.098 102.936C186.554 103.088 187.213 103.189 188.074 103.24V104C187.491 103.949 186.757 103.924 185.87 103.924C185.009 103.899 184.135 103.886 183.248 103.886C182.26 103.886 181.335 103.899 180.474 103.924C179.613 103.924 178.916 103.949 178.384 104V103.24C179.245 103.189 179.891 103.088 180.322 102.936C180.778 102.784 181.082 102.48 181.234 102.024C181.386 101.568 181.462 100.884 181.462 99.972V81.124C181.462 80.1867 181.386 79.5027 181.234 79.072C181.082 78.616 180.778 78.312 180.322 78.16C179.891 77.9827 179.245 77.8813 178.384 77.856V77.096C178.916 77.1213 179.613 77.1467 180.474 77.172C181.335 77.1973 182.26 77.21 183.248 77.21C184.135 77.21 185.009 77.1973 185.87 77.172C186.757 77.1467 187.491 77.1213 188.074 77.096ZM203.466 76.564C205.873 76.564 207.975 77.1087 209.774 78.198C211.598 79.2873 213.004 80.858 213.992 82.91C215.005 84.9367 215.512 87.4067 215.512 90.32C215.512 93.1573 214.993 95.64 213.954 97.768C212.941 99.896 211.522 101.555 209.698 102.746C207.874 103.937 205.784 104.532 203.428 104.532C201.021 104.532 198.906 103.987 197.082 102.898C195.283 101.809 193.877 100.238 192.864 98.186C191.876 96.134 191.382 93.664 191.382 90.776C191.382 87.9387 191.901 85.456 192.94 83.328C193.979 81.2 195.397 79.5407 197.196 78.35C199.02 77.1593 201.11 76.564 203.466 76.564ZM203.314 77.248C201.667 77.248 200.236 77.818 199.02 78.958C197.804 80.098 196.854 81.6687 196.17 83.67C195.511 85.6713 195.182 87.9893 195.182 90.624C195.182 93.3093 195.549 95.6527 196.284 97.654C197.044 99.63 198.057 101.163 199.324 102.252C200.616 103.316 202.035 103.848 203.58 103.848C205.227 103.848 206.658 103.278 207.874 102.138C209.09 100.998 210.027 99.4273 210.686 97.426C211.37 95.3993 211.712 93.0813 211.712 90.472C211.712 87.7613 211.332 85.418 210.572 83.442C209.837 81.466 208.837 79.946 207.57 78.882C206.303 77.7927 204.885 77.248 203.314 77.248ZM242.697 77.096V77.856C241.836 77.8813 241.177 78.008 240.721 78.236C240.291 78.464 239.999 78.8313 239.847 79.338C239.695 79.8447 239.619 80.5667 239.619 81.504V104.19C239.467 104.19 239.315 104.19 239.163 104.19C239.037 104.19 238.897 104.19 238.745 104.19L222.785 79.528V99.592C222.785 100.504 222.861 101.226 223.013 101.758C223.191 102.265 223.52 102.632 224.001 102.86C224.508 103.063 225.255 103.189 226.243 103.24V104C225.787 103.949 225.192 103.924 224.457 103.924C223.723 103.899 223.026 103.886 222.367 103.886C221.734 103.886 221.088 103.899 220.429 103.924C219.796 103.924 219.264 103.949 218.833 104V103.24C219.695 103.189 220.341 103.063 220.771 102.86C221.227 102.632 221.531 102.265 221.683 101.758C221.835 101.226 221.911 100.504 221.911 99.592V81.124C221.911 80.1867 221.835 79.5027 221.683 79.072C221.531 78.616 221.227 78.312 220.771 78.16C220.341 77.9827 219.695 77.8813 218.833 77.856V77.096C219.264 77.1213 219.796 77.1467 220.429 77.172C221.088 77.1973 221.734 77.21 222.367 77.21C222.925 77.21 223.457 77.1973 223.963 77.172C224.47 77.1467 224.926 77.1213 225.331 77.096L238.745 97.768V81.504C238.745 80.5667 238.657 79.8447 238.479 79.338C238.327 78.8313 237.998 78.464 237.491 78.236C237.01 78.008 236.275 77.8813 235.287 77.856V77.096C235.743 77.1213 236.339 77.1467 237.073 77.172C237.833 77.1973 238.53 77.21 239.163 77.21C239.822 77.21 240.468 77.1973 241.101 77.172C241.76 77.1467 242.292 77.1213 242.697 77.096Z" fill="#161616"/>
</svg>
