<svg viewBox="0 0 216 82" fill="none" xmlns="http://www.w3.org/2000/svg">
<path d="M26.5933 1.04C28.4289 1.04 29.9222 1.39778 31.0733 2.11333C32.2556 2.79778 32.8467 3.79333 32.8467 5.1C32.8467 6.68667 32.1311 8.14889 30.7 9.48667C29.3 10.7933 27.48 11.4467 25.24 11.4467V11.26C27.2933 11.2289 28.9422 10.56 30.1867 9.25333C31.4311 7.94667 32.0533 6.51555 32.0533 4.96C32.0533 3.74667 31.6178 2.84444 30.7467 2.25333C29.8756 1.63111 28.74 1.32 27.34 1.32C25.7533 1.32 24.1044 1.67778 22.3933 2.39333C20.7133 3.07778 19.1889 4.15111 17.82 5.61333C16.4511 7.04444 15.6111 8.66222 15.3 10.4667C15.2378 10.8711 15.2067 11.26 15.2067 11.6333C15.2067 13.3133 15.6889 14.5267 16.6533 15.2733C17.4311 15.18 18.24 15.1333 19.08 15.1333C19.7333 15.1333 20.06 15.2733 20.06 15.5533C20.06 15.8956 19.5311 16.0667 18.4733 16.0667C17.5711 16.0667 16.7778 15.9111 16.0933 15.6C14.1644 15.88 12.4222 16.4089 10.8667 17.1867C9.31111 17.9644 8.02 18.9133 6.99333 20.0333C5.96667 21.1222 5.14222 22.3044 4.52 23.58C3.89778 24.8556 3.46222 26.1778 3.21333 27.5467C3.12 28.1067 3.07333 28.6356 3.07333 29.1333C3.07333 30.5644 3.46222 31.7 4.24 32.54C5.01778 33.4111 6.16889 33.8467 7.69333 33.8467C8.19111 33.8467 8.68889 33.8311 9.18667 33.8C9.15556 33.4889 9.14 33.1622 9.14 32.82C9.14 31.0778 9.46667 29.3511 10.12 27.64C10.8044 25.9289 11.7222 24.4044 12.8733 23.0667C14.0556 21.6978 15.5178 20.5933 17.26 19.7533C19.0333 18.8822 20.9156 18.4467 22.9067 18.4467C23.6844 18.4467 24.2756 18.68 24.68 19.1467C25.0844 19.5822 25.2867 20.1889 25.2867 20.9667C25.2867 21.9933 24.9289 23.1756 24.2133 24.5133C23.5289 25.8511 22.5644 27.1733 21.32 28.48C20.1067 29.7867 18.5044 30.9378 16.5133 31.9333C14.5533 32.96 12.4689 33.6133 10.26 33.8933C10.2911 36.0089 10.82 37.8911 11.8467 39.54C12.8733 41.22 14.4289 42.4956 16.5133 43.3667V43.46C14.2733 42.5889 12.5467 41.3133 11.3333 39.6333C10.12 37.9844 9.42 36.1178 9.23333 34.0333C8.70444 34.0644 8.19111 34.08 7.69333 34.08C6.07556 34.08 4.72222 33.8311 3.63333 33.3333C2.57556 32.8667 1.81333 32.2444 1.34667 31.4667C0.848889 30.72 0.6 29.8178 0.6 28.76C0.6 28.3556 0.631111 27.9356 0.693333 27.5C1.19111 24.6067 2.76222 22.0089 5.40667 19.7067C8.05111 17.3733 11.4578 15.9267 15.6267 15.3667C14.1333 14.4956 13.3867 13.0644 13.3867 11.0733C13.3867 10.7311 13.4178 10.4044 13.48 10.0933C13.7911 8.19555 14.6778 6.54667 16.14 5.14667C17.6022 3.71555 19.2511 2.67333 21.0867 2.02C22.9222 1.36667 24.7578 1.04 26.5933 1.04ZM22.9067 18.68C20.6667 18.68 18.5511 19.4422 16.56 20.9667C14.5689 22.4911 13.0133 24.4044 11.8933 26.7067C10.8044 29.0089 10.26 31.3422 10.26 33.7067C12.4689 33.4267 14.5378 32.7889 16.4667 31.7933C18.4267 30.7978 19.9978 29.6622 21.18 28.3867C22.3933 27.1111 23.3422 25.82 24.0267 24.5133C24.7111 23.2067 25.0533 22.04 25.0533 21.0133C25.0533 20.2978 24.8667 19.7378 24.4933 19.3333C24.12 18.8978 23.5911 18.68 22.9067 18.68ZM36.6933 1.264V2.146C35.2933 2.146 34.4393 2.3 34.1313 2.608C33.8233 2.888 33.8653 3.35 34.2573 3.994L49.9653 28.018C50.4973 28.83 50.9453 29.376 51.3093 29.656C51.6733 29.908 52.1633 30.062 52.7793 30.118V31C52.4153 30.972 51.8973 30.944 51.2253 30.916C50.5813 30.86 49.8953 30.832 49.1673 30.832C48.0473 30.832 46.9133 30.86 45.7653 30.916C44.6453 30.944 43.8053 30.972 43.2453 31V30.118C44.6453 30.118 45.5413 30.034 45.9333 29.866C46.3253 29.698 46.3253 29.306 45.9333 28.69L29.9733 4.246C29.4413 3.434 28.9933 2.888 28.6293 2.608C28.2933 2.328 27.8033 2.174 27.1593 2.146V1.264C27.5233 1.292 28.0413 1.334 28.7133 1.39C29.3853 1.418 30.0713 1.432 30.7713 1.432C31.9193 1.432 32.9973 1.418 34.0053 1.39C35.0133 1.334 35.9093 1.292 36.6933 1.264ZM39.0033 15.67C39.0033 15.67 39.0313 15.768 39.0873 15.964C39.1433 16.132 39.1993 16.314 39.2553 16.51C39.3393 16.678 39.3813 16.762 39.3813 16.762L34.2153 24.448C33.2073 25.96 32.6753 27.122 32.6193 27.934C32.5913 28.746 32.9133 29.32 33.5853 29.656C34.2573 29.964 35.1813 30.132 36.3573 30.16V31C35.9653 30.972 35.5173 30.958 35.0133 30.958C34.5093 30.93 33.9913 30.916 33.4593 30.916C32.9553 30.888 32.4513 30.874 31.9473 30.874C31.4713 30.874 31.0513 30.874 30.6873 30.874C29.9873 30.874 29.3153 30.888 28.6713 30.916C28.0553 30.916 27.5373 30.944 27.1173 31V30.16C27.9853 30.02 28.7973 29.628 29.5533 28.984C30.3093 28.34 31.0793 27.444 31.8633 26.296L39.0033 15.67ZM51.8973 1.264V2.104C51.0293 2.216 50.2173 2.608 49.4613 3.28C48.7053 3.924 47.9353 4.82 47.1513 5.968L40.3893 16.048C40.3893 16.048 40.3473 15.866 40.2633 15.502C40.1793 15.138 40.1373 14.956 40.1373 14.956L44.9253 7.816C45.9333 6.304 46.5213 5.142 46.6893 4.33C46.8573 3.518 46.6613 2.958 46.1013 2.65C45.5413 2.314 44.6733 2.132 43.4973 2.104V1.264C44.0293 1.292 44.5753 1.32 45.1353 1.348C45.6953 1.348 46.2413 1.362 46.7733 1.39C47.3333 1.39 47.8513 1.39 48.3273 1.39C49.0553 1.39 49.7273 1.376 50.3433 1.348C50.9593 1.32 51.4773 1.292 51.8973 1.264ZM54.8285 1.264C55.4165 1.292 56.1865 1.32 57.1385 1.348C58.0905 1.376 59.0285 1.39 59.9525 1.39C61.2685 1.39 62.5285 1.376 63.7325 1.348C64.9365 1.32 65.7905 1.306 66.2945 1.306C69.6825 1.306 72.2165 2.076 73.8965 3.616C75.5765 5.156 76.4165 7.144 76.4165 9.58C76.4165 10.588 76.2485 11.652 75.9125 12.772C75.5765 13.864 74.9885 14.886 74.1485 15.838C73.3365 16.762 72.2165 17.518 70.7885 18.106C69.3605 18.694 67.5545 18.988 65.3705 18.988H61.3385V18.148H64.9505C66.9385 18.148 68.4505 17.77 69.4865 17.014C70.5505 16.258 71.2645 15.264 71.6285 14.032C72.0205 12.8 72.2165 11.47 72.2165 10.042C72.2165 7.382 71.6845 5.394 70.6205 4.078C69.5845 2.762 67.7925 2.104 65.2445 2.104C63.9565 2.104 63.1165 2.342 62.7245 2.818C62.3325 3.294 62.1365 4.26 62.1365 5.716V26.548C62.1365 27.556 62.2345 28.312 62.4305 28.816C62.6545 29.32 63.0745 29.656 63.6905 29.824C64.3065 29.992 65.2025 30.104 66.3785 30.16V31C65.6505 30.944 64.7265 30.916 63.6065 30.916C62.4865 30.888 61.3525 30.874 60.2045 30.874C59.1125 30.874 58.0905 30.888 57.1385 30.916C56.1865 30.916 55.4165 30.944 54.8285 31V30.16C55.7805 30.104 56.4945 29.992 56.9705 29.824C57.4745 29.656 57.8105 29.32 57.9785 28.816C58.1465 28.312 58.2305 27.556 58.2305 26.548V5.716C58.2305 4.68 58.1465 3.924 57.9785 3.448C57.8105 2.944 57.4745 2.608 56.9705 2.44C56.4945 2.244 55.7805 2.132 54.8285 2.104V1.264ZM90.1068 1.264V2.104C89.1548 2.132 88.4268 2.244 87.9228 2.44C87.4468 2.608 87.1248 2.944 86.9568 3.448C86.7888 3.924 86.7048 4.68 86.7048 5.716V26.548C86.7048 27.556 86.7888 28.312 86.9568 28.816C87.1248 29.32 87.4468 29.656 87.9228 29.824C88.4268 29.964 89.1548 30.034 90.1068 30.034H93.1728C94.4888 30.034 95.5528 29.894 96.3648 29.614C97.2048 29.334 97.8628 28.9 98.3388 28.312C98.8428 27.696 99.2208 26.884 99.4728 25.876C99.7248 24.868 99.9208 23.636 100.061 22.18H101.027C100.943 23.048 100.901 24.196 100.901 25.624C100.901 26.156 100.915 26.926 100.943 27.934C100.999 28.914 101.083 29.936 101.195 31C99.7668 30.944 98.1568 30.916 96.3648 30.916C94.5728 30.888 92.9768 30.874 91.5768 30.874C90.9608 30.874 90.1628 30.874 89.1828 30.874C88.2308 30.874 87.1948 30.888 86.0748 30.916C84.9548 30.916 83.8208 30.93 82.6728 30.958C81.5248 30.958 80.4328 30.972 79.3968 31V30.16C80.3488 30.104 81.0628 29.992 81.5388 29.824C82.0428 29.656 82.3788 29.32 82.5468 28.816C82.7148 28.312 82.7988 27.556 82.7988 26.548V5.716C82.7988 4.68 82.7148 3.924 82.5468 3.448C82.3788 2.944 82.0428 2.608 81.5388 2.44C81.0628 2.244 80.3488 2.132 79.3968 2.104V1.264C79.9848 1.292 80.7548 1.32 81.7068 1.348C82.6588 1.376 83.6808 1.39 84.7728 1.39C85.7528 1.39 86.7188 1.376 87.6708 1.348C88.6508 1.32 89.4628 1.292 90.1068 1.264ZM117.906 0.675997C120.566 0.675997 122.89 1.278 124.878 2.482C126.894 3.686 128.448 5.422 129.54 7.69C130.66 9.93 131.22 12.66 131.22 15.88C131.22 19.016 130.646 21.76 129.498 24.112C128.378 26.464 126.81 28.298 124.794 29.614C122.778 30.93 120.468 31.588 117.864 31.588C115.204 31.588 112.866 30.986 110.85 29.782C108.862 28.578 107.308 26.842 106.188 24.574C105.096 22.306 104.55 19.576 104.55 16.384C104.55 13.248 105.124 10.504 106.272 8.152C107.42 5.8 108.988 3.966 110.976 2.65C112.992 1.334 115.302 0.675997 117.906 0.675997ZM117.738 1.432C115.918 1.432 114.336 2.062 112.992 3.322C111.648 4.582 110.598 6.318 109.842 8.53C109.114 10.742 108.75 13.304 108.75 16.216C108.75 19.184 109.156 21.774 109.968 23.986C110.808 26.17 111.928 27.864 113.328 29.068C114.756 30.244 116.324 30.832 118.032 30.832C119.852 30.832 121.434 30.202 122.778 28.942C124.122 27.682 125.158 25.946 125.886 23.734C126.642 21.494 127.02 18.932 127.02 16.048C127.02 13.052 126.6 10.462 125.76 8.278C124.948 6.094 123.842 4.414 122.442 3.238C121.042 2.034 119.474 1.432 117.738 1.432ZM134.891 1.264C135.479 1.292 136.249 1.32 137.201 1.348C138.153 1.376 139.091 1.39 140.015 1.39C141.331 1.39 142.591 1.376 143.795 1.348C144.999 1.32 145.853 1.306 146.357 1.306C148.625 1.306 150.501 1.628 151.985 2.272C153.497 2.916 154.617 3.798 155.345 4.918C156.101 6.01 156.479 7.242 156.479 8.614C156.479 9.454 156.311 10.35 155.975 11.302C155.639 12.254 155.051 13.15 154.211 13.99C153.399 14.83 152.279 15.53 150.851 16.09C149.423 16.622 147.617 16.888 145.433 16.888H141.401V16.048H145.013C147.001 16.048 148.513 15.74 149.549 15.124C150.613 14.48 151.327 13.64 151.691 12.604C152.083 11.54 152.279 10.364 152.279 9.076C152.279 6.864 151.747 5.156 150.683 3.952C149.647 2.72 147.855 2.104 145.307 2.104C144.019 2.104 143.179 2.342 142.787 2.818C142.395 3.294 142.199 4.26 142.199 5.716V26.548C142.199 27.556 142.283 28.312 142.451 28.816C142.619 29.32 142.941 29.656 143.417 29.824C143.921 29.992 144.649 30.104 145.601 30.16V31C144.957 30.944 144.145 30.916 143.165 30.916C142.213 30.888 141.247 30.874 140.267 30.874C139.175 30.874 138.153 30.888 137.201 30.916C136.249 30.916 135.479 30.944 134.891 31V30.16C135.843 30.104 136.557 29.992 137.033 29.824C137.537 29.656 137.873 29.32 138.041 28.816C138.209 28.312 138.293 27.556 138.293 26.548V5.716C138.293 4.68 138.209 3.924 138.041 3.448C137.873 2.944 137.537 2.608 137.033 2.44C136.557 2.244 135.843 2.132 134.891 2.104V1.264ZM141.569 16.174C143.081 16.23 144.271 16.3 145.139 16.384C146.007 16.44 146.707 16.496 147.239 16.552C147.799 16.608 148.331 16.678 148.835 16.762C150.711 17.07 152.055 17.644 152.867 18.484C153.707 19.296 154.323 20.57 154.715 22.306L155.765 26.59C156.045 27.822 156.325 28.718 156.605 29.278C156.913 29.81 157.375 30.062 157.991 30.034C158.467 30.006 158.859 29.852 159.167 29.572C159.503 29.292 159.853 28.914 160.217 28.438L160.847 28.9C160.259 29.768 159.643 30.44 158.999 30.916C158.383 31.364 157.501 31.588 156.353 31.588C155.317 31.588 154.407 31.28 153.623 30.664C152.839 30.048 152.251 28.844 151.859 27.052L150.935 22.852C150.683 21.648 150.389 20.612 150.053 19.744C149.745 18.848 149.297 18.148 148.709 17.644C148.149 17.14 147.309 16.888 146.189 16.888H141.653L141.569 16.174ZM183.083 1.264C182.971 2.244 182.887 3.196 182.831 4.12C182.803 5.044 182.789 5.744 182.789 6.22C182.789 6.724 182.803 7.214 182.831 7.69C182.859 8.138 182.887 8.516 182.915 8.824H181.949C181.781 7.172 181.543 5.87 181.235 4.918C180.927 3.938 180.395 3.252 179.639 2.86C178.911 2.44 177.805 2.23 176.321 2.23H172.835C171.883 2.23 171.155 2.314 170.651 2.482C170.175 2.622 169.853 2.944 169.685 3.448C169.517 3.924 169.433 4.68 169.433 5.716V26.548C169.433 27.556 169.517 28.312 169.685 28.816C169.853 29.32 170.175 29.656 170.651 29.824C171.155 29.964 171.883 30.034 172.835 30.034H175.901C177.665 30.034 178.995 29.796 179.891 29.32C180.815 28.844 181.473 28.074 181.865 27.01C182.285 25.918 182.593 24.448 182.789 22.6H183.755C183.671 23.356 183.629 24.364 183.629 25.624C183.629 26.156 183.643 26.926 183.671 27.934C183.727 28.914 183.811 29.936 183.923 31C182.495 30.944 180.885 30.916 179.093 30.916C177.301 30.888 175.705 30.874 174.305 30.874C173.689 30.874 172.891 30.874 171.911 30.874C170.959 30.874 169.923 30.888 168.803 30.916C167.683 30.916 166.549 30.93 165.401 30.958C164.253 30.958 163.161 30.972 162.125 31V30.16C163.077 30.104 163.791 29.992 164.267 29.824C164.771 29.656 165.107 29.32 165.275 28.816C165.443 28.312 165.527 27.556 165.527 26.548V5.716C165.527 4.68 165.443 3.924 165.275 3.448C165.107 2.944 164.771 2.608 164.267 2.44C163.791 2.244 163.077 2.132 162.125 2.104V1.264C163.161 1.292 164.253 1.32 165.401 1.348C166.549 1.348 167.683 1.362 168.803 1.39C169.923 1.39 170.959 1.39 171.911 1.39C172.891 1.39 173.689 1.39 174.305 1.39C175.593 1.39 177.049 1.39 178.673 1.39C180.325 1.362 181.795 1.32 183.083 1.264ZM175.859 15.628C175.859 15.628 175.859 15.768 175.859 16.048C175.859 16.328 175.859 16.468 175.859 16.468H168.173C168.173 16.468 168.173 16.328 168.173 16.048C168.173 15.768 168.173 15.628 168.173 15.628H175.859ZM177.077 10.084C176.965 11.68 176.909 12.898 176.909 13.738C176.937 14.578 176.951 15.348 176.951 16.048C176.951 16.748 176.965 17.518 176.993 18.358C177.021 19.198 177.091 20.416 177.203 22.012H176.237C176.125 21.116 175.985 20.248 175.817 19.408C175.677 18.54 175.341 17.84 174.809 17.308C174.305 16.748 173.437 16.468 172.205 16.468V15.628C173.129 15.628 173.829 15.446 174.305 15.082C174.809 14.69 175.173 14.2 175.397 13.612C175.621 13.024 175.775 12.422 175.859 11.806C175.943 11.162 176.027 10.588 176.111 10.084H177.077ZM3.764 39.264C4.352 39.292 5.122 39.32 6.074 39.348C7.026 39.376 7.964 39.39 8.888 39.39C10.204 39.39 11.464 39.376 12.668 39.348C13.872 39.32 14.726 39.306 15.23 39.306C17.498 39.306 19.374 39.628 20.858 40.272C22.37 40.916 23.49 41.798 24.218 42.918C24.974 44.01 25.352 45.242 25.352 46.614C25.352 47.454 25.184 48.35 24.848 49.302C24.512 50.254 23.924 51.15 23.084 51.99C22.272 52.83 21.152 53.53 19.724 54.09C18.296 54.622 16.49 54.888 14.306 54.888H10.274V54.048H13.886C15.874 54.048 17.386 53.74 18.422 53.124C19.486 52.48 20.2 51.64 20.564 50.604C20.956 49.54 21.152 48.364 21.152 47.076C21.152 44.864 20.62 43.156 19.556 41.952C18.52 40.72 16.728 40.104 14.18 40.104C12.892 40.104 12.052 40.342 11.66 40.818C11.268 41.294 11.072 42.26 11.072 43.716V64.548C11.072 65.556 11.156 66.312 11.324 66.816C11.492 67.32 11.814 67.656 12.29 67.824C12.794 67.992 13.522 68.104 14.474 68.16V69C13.83 68.944 13.018 68.916 12.038 68.916C11.086 68.888 10.12 68.874 9.14 68.874C8.048 68.874 7.026 68.888 6.074 68.916C5.122 68.916 4.352 68.944 3.764 69V68.16C4.716 68.104 5.43 67.992 5.906 67.824C6.41 67.656 6.746 67.32 6.914 66.816C7.082 66.312 7.166 65.556 7.166 64.548V43.716C7.166 42.68 7.082 41.924 6.914 41.448C6.746 40.944 6.41 40.608 5.906 40.44C5.43 40.244 4.716 40.132 3.764 40.104V39.264ZM10.442 54.174C11.954 54.23 13.144 54.3 14.012 54.384C14.88 54.44 15.58 54.496 16.112 54.552C16.672 54.608 17.204 54.678 17.708 54.762C19.584 55.07 20.928 55.644 21.74 56.484C22.58 57.296 23.196 58.57 23.588 60.306L24.638 64.59C24.918 65.822 25.198 66.718 25.478 67.278C25.786 67.81 26.248 68.062 26.864 68.034C27.34 68.006 27.732 67.852 28.04 67.572C28.376 67.292 28.726 66.914 29.09 66.438L29.72 66.9C29.132 67.768 28.516 68.44 27.872 68.916C27.256 69.364 26.374 69.588 25.226 69.588C24.19 69.588 23.28 69.28 22.496 68.664C21.712 68.048 21.124 66.844 20.732 65.052L19.808 60.852C19.556 59.648 19.262 58.612 18.926 57.744C18.618 56.848 18.17 56.148 17.582 55.644C17.022 55.14 16.182 54.888 15.062 54.888H10.526L10.442 54.174ZM51.9564 39.264C51.8444 40.244 51.7604 41.196 51.7044 42.12C51.6764 43.044 51.6624 43.744 51.6624 44.22C51.6624 44.724 51.6764 45.214 51.7044 45.69C51.7324 46.138 51.7604 46.516 51.7884 46.824H50.8224C50.6544 45.172 50.4164 43.87 50.1084 42.918C49.8004 41.938 49.2684 41.252 48.5124 40.86C47.7844 40.44 46.6784 40.23 45.1944 40.23H41.7084C40.7564 40.23 40.0284 40.314 39.5244 40.482C39.0484 40.622 38.7264 40.944 38.5584 41.448C38.3904 41.924 38.3064 42.68 38.3064 43.716V64.548C38.3064 65.556 38.3904 66.312 38.5584 66.816C38.7264 67.32 39.0484 67.656 39.5244 67.824C40.0284 67.964 40.7564 68.034 41.7084 68.034H44.7744C46.5384 68.034 47.8684 67.796 48.7644 67.32C49.6884 66.844 50.3464 66.074 50.7384 65.01C51.1584 63.918 51.4664 62.448 51.6624 60.6H52.6284C52.5444 61.356 52.5024 62.364 52.5024 63.624C52.5024 64.156 52.5164 64.926 52.5444 65.934C52.6004 66.914 52.6844 67.936 52.7964 69C51.3684 68.944 49.7584 68.916 47.9664 68.916C46.1744 68.888 44.5784 68.874 43.1784 68.874C42.5624 68.874 41.7644 68.874 40.7844 68.874C39.8324 68.874 38.7964 68.888 37.6764 68.916C36.5564 68.916 35.4224 68.93 34.2744 68.958C33.1264 68.958 32.0344 68.972 30.9984 69V68.16C31.9504 68.104 32.6644 67.992 33.1404 67.824C33.6444 67.656 33.9804 67.32 34.1484 66.816C34.3164 66.312 34.4004 65.556 34.4004 64.548V43.716C34.4004 42.68 34.3164 41.924 34.1484 41.448C33.9804 40.944 33.6444 40.608 33.1404 40.44C32.6644 40.244 31.9504 40.132 30.9984 40.104V39.264C32.0344 39.292 33.1264 39.32 34.2744 39.348C35.4224 39.348 36.5564 39.362 37.6764 39.39C38.7964 39.39 39.8324 39.39 40.7844 39.39C41.7644 39.39 42.5624 39.39 43.1784 39.39C44.4664 39.39 45.9224 39.39 47.5464 39.39C49.1984 39.362 50.6684 39.32 51.9564 39.264ZM44.7324 53.628C44.7324 53.628 44.7324 53.768 44.7324 54.048C44.7324 54.328 44.7324 54.468 44.7324 54.468H37.0464C37.0464 54.468 37.0464 54.328 37.0464 54.048C37.0464 53.768 37.0464 53.628 37.0464 53.628H44.7324ZM45.9504 48.084C45.8384 49.68 45.7824 50.898 45.7824 51.738C45.8104 52.578 45.8244 53.348 45.8244 54.048C45.8244 54.748 45.8384 55.518 45.8664 56.358C45.8944 57.198 45.9644 58.416 46.0764 60.012H45.1104C44.9984 59.116 44.8584 58.248 44.6904 57.408C44.5504 56.54 44.2144 55.84 43.6824 55.308C43.1784 54.748 42.3104 54.468 41.0784 54.468V53.628C42.0024 53.628 42.7024 53.446 43.1784 53.082C43.6824 52.69 44.0464 52.2 44.2704 51.612C44.4944 51.024 44.6484 50.422 44.7324 49.806C44.8164 49.162 44.9004 48.588 44.9844 48.084H45.9504ZM79.6921 39.264C79.5801 40.328 79.4961 41.364 79.4401 42.372C79.4121 43.352 79.3981 44.108 79.3981 44.64C79.3981 45.312 79.4121 45.942 79.4401 46.53C79.4681 47.118 79.4961 47.636 79.5241 48.084H78.5581C78.3621 46.124 78.0961 44.584 77.7601 43.464C77.4241 42.316 76.8361 41.49 75.9961 40.986C75.1561 40.482 73.8541 40.23 72.0901 40.23H69.8221V64.128C69.8221 65.248 69.9201 66.088 70.1161 66.648C70.3401 67.208 70.7601 67.586 71.3761 67.782C71.9921 67.978 72.8881 68.104 74.0641 68.16V69C73.3361 68.944 72.4121 68.916 71.2921 68.916C70.1721 68.888 69.0381 68.874 67.8901 68.874C66.6301 68.874 65.4401 68.888 64.3201 68.916C63.2281 68.916 62.3461 68.944 61.6741 69V68.16C62.8501 68.104 63.7461 67.978 64.3621 67.782C64.9781 67.586 65.3841 67.208 65.5801 66.648C65.8041 66.088 65.9161 65.248 65.9161 64.128V40.23H63.6481C61.9121 40.23 60.6101 40.482 59.7421 40.986C58.9021 41.49 58.3141 42.316 57.9781 43.464C57.6421 44.584 57.3761 46.124 57.1801 48.084H56.2141C56.2701 47.636 56.2981 47.118 56.2981 46.53C56.3261 45.942 56.3401 45.312 56.3401 44.64C56.3401 44.108 56.3121 43.352 56.2561 42.372C56.2281 41.364 56.1581 40.328 56.0461 39.264C57.2221 39.292 58.4961 39.32 59.8681 39.348C61.2681 39.376 62.6681 39.39 64.0681 39.39C65.4681 39.39 66.7421 39.39 67.8901 39.39C69.0381 39.39 70.2981 39.39 71.6701 39.39C73.0701 39.39 74.4701 39.376 75.8701 39.348C77.2701 39.32 78.5441 39.292 79.6921 39.264ZM92.5113 39.054L102.759 65.472C103.179 66.536 103.655 67.25 104.187 67.614C104.719 67.95 105.209 68.132 105.657 68.16V69C105.097 68.944 104.411 68.916 103.599 68.916C102.787 68.888 101.975 68.874 101.163 68.874C100.071 68.874 99.0493 68.888 98.0973 68.916C97.1453 68.916 96.3753 68.944 95.7873 69V68.16C97.2153 68.104 98.1253 67.866 98.5173 67.446C98.9093 66.998 98.8253 66.06 98.2653 64.632L90.4533 43.758L91.1253 43.212L83.8173 62.196C83.3693 63.316 83.1033 64.268 83.0193 65.052C82.9353 65.808 83.0053 66.41 83.2293 66.858C83.4813 67.306 83.8873 67.628 84.4473 67.824C85.0353 68.02 85.7633 68.132 86.6313 68.16V69C85.8473 68.944 85.0213 68.916 84.1533 68.916C83.3133 68.888 82.5293 68.874 81.8013 68.874C81.1013 68.874 80.4993 68.888 79.9953 68.916C79.5193 68.916 79.0713 68.944 78.6513 69V68.16C79.2113 68.02 79.7853 67.698 80.3733 67.194C80.9613 66.662 81.4933 65.766 81.9693 64.506L91.8393 39.054C91.9513 39.054 92.0633 39.054 92.1753 39.054C92.2873 39.054 92.3993 39.054 92.5113 39.054ZM97.6353 56.904V57.744H85.1193L85.5393 56.904H97.6353ZM117.054 39.264V40.104C116.102 40.132 115.374 40.244 114.87 40.44C114.394 40.608 114.072 40.944 113.904 41.448C113.736 41.924 113.652 42.68 113.652 43.716V64.548C113.652 65.556 113.736 66.312 113.904 66.816C114.072 67.32 114.394 67.656 114.87 67.824C115.374 67.992 116.102 68.104 117.054 68.16V69C116.41 68.944 115.598 68.916 114.618 68.916C113.666 68.888 112.7 68.874 111.72 68.874C110.628 68.874 109.606 68.888 108.654 68.916C107.702 68.916 106.932 68.944 106.344 69V68.16C107.296 68.104 108.01 67.992 108.486 67.824C108.99 67.656 109.326 67.32 109.494 66.816C109.662 66.312 109.746 65.556 109.746 64.548V43.716C109.746 42.68 109.662 41.924 109.494 41.448C109.326 40.944 108.99 40.608 108.486 40.44C108.01 40.244 107.296 40.132 106.344 40.104V39.264C106.932 39.292 107.702 39.32 108.654 39.348C109.606 39.376 110.628 39.39 111.72 39.39C112.7 39.39 113.666 39.376 114.618 39.348C115.598 39.32 116.41 39.292 117.054 39.264ZM131.287 39.264V40.104C130.335 40.132 129.607 40.244 129.103 40.44C128.627 40.608 128.305 40.944 128.137 41.448C127.969 41.924 127.885 42.68 127.885 43.716V64.548C127.885 65.556 127.969 66.312 128.137 66.816C128.305 67.32 128.627 67.656 129.103 67.824C129.607 67.964 130.335 68.034 131.287 68.034H134.353C135.669 68.034 136.733 67.894 137.545 67.614C138.385 67.334 139.043 66.9 139.519 66.312C140.023 65.696 140.401 64.884 140.653 63.876C140.905 62.868 141.101 61.636 141.241 60.18H142.207C142.123 61.048 142.081 62.196 142.081 63.624C142.081 64.156 142.095 64.926 142.123 65.934C142.179 66.914 142.263 67.936 142.375 69C140.947 68.944 139.337 68.916 137.545 68.916C135.753 68.888 134.157 68.874 132.757 68.874C132.141 68.874 131.343 68.874 130.363 68.874C129.411 68.874 128.375 68.888 127.255 68.916C126.135 68.916 125.001 68.93 123.853 68.958C122.705 68.958 121.613 68.972 120.577 69V68.16C121.529 68.104 122.243 67.992 122.719 67.824C123.223 67.656 123.559 67.32 123.727 66.816C123.895 66.312 123.979 65.556 123.979 64.548V43.716C123.979 42.68 123.895 41.924 123.727 41.448C123.559 40.944 123.223 40.608 122.719 40.44C122.243 40.244 121.529 40.132 120.577 40.104V39.264C121.165 39.292 121.935 39.32 122.887 39.348C123.839 39.376 124.861 39.39 125.953 39.39C126.933 39.39 127.899 39.376 128.851 39.348C129.831 39.32 130.643 39.292 131.287 39.264ZM168.097 39.04C169.933 39.04 171.426 39.3978 172.577 40.1133C173.759 40.7978 174.351 41.7933 174.351 43.1C174.351 44.6867 173.635 46.1489 172.204 47.4867C170.804 48.7933 168.984 49.4467 166.744 49.4467V49.26C168.797 49.2289 170.446 48.56 171.691 47.2533C172.935 45.9467 173.557 44.5156 173.557 42.96C173.557 41.7467 173.122 40.8444 172.251 40.2533C171.379 39.6311 170.244 39.32 168.844 39.32C167.257 39.32 165.608 39.6778 163.897 40.3933C162.217 41.0778 160.693 42.1511 159.324 43.6133C157.955 45.0444 157.115 46.6622 156.804 48.4667C156.742 48.8711 156.711 49.26 156.711 49.6333C156.711 51.3133 157.193 52.5267 158.157 53.2733C158.935 53.18 159.744 53.1333 160.584 53.1333C161.237 53.1333 161.564 53.2733 161.564 53.5533C161.564 53.8956 161.035 54.0667 159.977 54.0667C159.075 54.0667 158.282 53.9111 157.597 53.6C155.668 53.88 153.926 54.4089 152.371 55.1867C150.815 55.9644 149.524 56.9133 148.497 58.0333C147.471 59.1222 146.646 60.3044 146.024 61.58C145.402 62.8556 144.966 64.1778 144.717 65.5467C144.624 66.1067 144.577 66.6356 144.577 67.1333C144.577 68.5644 144.966 69.7 145.744 70.54C146.522 71.4111 147.673 71.8467 149.197 71.8467C149.695 71.8467 150.193 71.8311 150.691 71.8C150.659 71.4889 150.644 71.1622 150.644 70.82C150.644 69.0778 150.971 67.3511 151.624 65.64C152.308 63.9289 153.226 62.4044 154.377 61.0667C155.559 59.6978 157.022 58.5933 158.764 57.7533C160.537 56.8822 162.419 56.4467 164.411 56.4467C165.188 56.4467 165.779 56.68 166.184 57.1467C166.588 57.5822 166.791 58.1889 166.791 58.9667C166.791 59.9933 166.433 61.1756 165.717 62.5133C165.033 63.8511 164.068 65.1733 162.824 66.48C161.611 67.7867 160.008 68.9378 158.017 69.9333C156.057 70.96 153.973 71.6133 151.764 71.8933C151.795 74.0089 152.324 75.8911 153.351 77.54C154.377 79.22 155.933 80.4956 158.017 81.3667V81.46C155.777 80.5889 154.051 79.3133 152.837 77.6333C151.624 75.9844 150.924 74.1178 150.737 72.0333C150.208 72.0644 149.695 72.08 149.197 72.08C147.579 72.08 146.226 71.8311 145.137 71.3333C144.079 70.8667 143.317 70.2444 142.851 69.4667C142.353 68.72 142.104 67.8178 142.104 66.76C142.104 66.3556 142.135 65.9356 142.197 65.5C142.695 62.6067 144.266 60.0089 146.911 57.7067C149.555 55.3733 152.962 53.9267 157.131 53.3667C155.637 52.4956 154.891 51.0644 154.891 49.0733C154.891 48.7311 154.922 48.4044 154.984 48.0933C155.295 46.1956 156.182 44.5467 157.644 43.1467C159.106 41.7156 160.755 40.6733 162.591 40.02C164.426 39.3667 166.262 39.04 168.097 39.04ZM164.411 56.68C162.171 56.68 160.055 57.4422 158.064 58.9667C156.073 60.4911 154.517 62.4044 153.397 64.7067C152.308 67.0089 151.764 69.3422 151.764 71.7067C153.973 71.4267 156.042 70.7889 157.971 69.7933C159.931 68.7978 161.502 67.6622 162.684 66.3867C163.897 65.1111 164.846 63.82 165.531 62.5133C166.215 61.2067 166.557 60.04 166.557 59.0133C166.557 58.2978 166.371 57.7378 165.997 57.3333C165.624 56.8978 165.095 56.68 164.411 56.68ZM169.713 39.264C170.301 39.292 171.071 39.32 172.023 39.348C172.975 39.376 173.913 39.39 174.837 39.39C176.153 39.39 177.413 39.376 178.617 39.348C179.821 39.32 180.675 39.306 181.179 39.306C183.447 39.306 185.323 39.628 186.807 40.272C188.319 40.916 189.439 41.798 190.167 42.918C190.923 44.01 191.301 45.242 191.301 46.614C191.301 47.454 191.133 48.35 190.797 49.302C190.461 50.254 189.873 51.15 189.033 51.99C188.221 52.83 187.101 53.53 185.673 54.09C184.245 54.622 182.439 54.888 180.255 54.888H176.223V54.048H179.835C181.823 54.048 183.335 53.74 184.371 53.124C185.435 52.48 186.149 51.64 186.513 50.604C186.905 49.54 187.101 48.364 187.101 47.076C187.101 44.864 186.569 43.156 185.505 41.952C184.469 40.72 182.677 40.104 180.129 40.104C178.841 40.104 178.001 40.342 177.609 40.818C177.217 41.294 177.021 42.26 177.021 43.716V64.548C177.021 65.556 177.105 66.312 177.273 66.816C177.441 67.32 177.763 67.656 178.239 67.824C178.743 67.992 179.471 68.104 180.423 68.16V69C179.779 68.944 178.967 68.916 177.987 68.916C177.035 68.888 176.069 68.874 175.089 68.874C173.997 68.874 172.975 68.888 172.023 68.916C171.071 68.916 170.301 68.944 169.713 69V68.16C170.665 68.104 171.379 67.992 171.855 67.824C172.359 67.656 172.695 67.32 172.863 66.816C173.031 66.312 173.115 65.556 173.115 64.548V43.716C173.115 42.68 173.031 41.924 172.863 41.448C172.695 40.944 172.359 40.608 171.855 40.44C171.379 40.244 170.665 40.132 169.713 40.104V39.264ZM176.391 54.174C177.903 54.23 179.093 54.3 179.961 54.384C180.829 54.44 181.529 54.496 182.061 54.552C182.621 54.608 183.153 54.678 183.657 54.762C185.533 55.07 186.877 55.644 187.689 56.484C188.529 57.296 189.145 58.57 189.537 60.306L190.587 64.59C190.867 65.822 191.147 66.718 191.427 67.278C191.735 67.81 192.197 68.062 192.813 68.034C193.289 68.006 193.681 67.852 193.989 67.572C194.325 67.292 194.675 66.914 195.039 66.438L195.669 66.9C195.081 67.768 194.465 68.44 193.821 68.916C193.205 69.364 192.323 69.588 191.175 69.588C190.139 69.588 189.229 69.28 188.445 68.664C187.661 68.048 187.073 66.844 186.681 65.052L185.757 60.852C185.505 59.648 185.211 58.612 184.875 57.744C184.567 56.848 184.119 56.148 183.531 55.644C182.971 55.14 182.131 54.888 181.011 54.888H176.475L176.391 54.174ZM205.936 38.802C207.336 38.802 208.4 38.97 209.128 39.306C209.856 39.614 210.5 39.964 211.06 40.356C211.396 40.552 211.662 40.706 211.858 40.818C212.082 40.902 212.292 40.944 212.488 40.944C212.768 40.944 212.964 40.79 213.076 40.482C213.216 40.174 213.328 39.712 213.412 39.096H214.378C214.35 39.572 214.308 40.146 214.252 40.818C214.224 41.462 214.196 42.33 214.168 43.422C214.168 44.486 214.168 45.9 214.168 47.664H213.202C213.118 46.32 212.824 45.032 212.32 43.8C211.816 42.568 211.074 41.56 210.094 40.776C209.142 39.992 207.882 39.6 206.314 39.6C204.83 39.6 203.598 40.048 202.618 40.944C201.666 41.84 201.19 43.016 201.19 44.472C201.19 45.732 201.512 46.796 202.156 47.664C202.8 48.504 203.654 49.274 204.718 49.974C205.81 50.646 206.986 51.374 208.246 52.158C209.702 53.054 210.99 53.95 212.11 54.846C213.258 55.714 214.154 56.68 214.798 57.744C215.47 58.808 215.806 60.096 215.806 61.608C215.806 63.4 215.4 64.884 214.588 66.06C213.776 67.236 212.698 68.118 211.354 68.706C210.01 69.294 208.526 69.588 206.902 69.588C205.418 69.588 204.242 69.42 203.374 69.084C202.506 68.748 201.764 68.398 201.148 68.034C200.532 67.642 200.056 67.446 199.72 67.446C199.44 67.446 199.23 67.6 199.09 67.908C198.978 68.216 198.88 68.678 198.796 69.294H197.83C197.886 68.706 197.914 68.02 197.914 67.236C197.942 66.424 197.956 65.374 197.956 64.086C197.984 62.798 197.998 61.174 197.998 59.214H198.964C199.076 60.894 199.384 62.462 199.888 63.918C200.42 65.374 201.218 66.55 202.282 67.446C203.374 68.314 204.816 68.748 206.608 68.748C207.532 68.748 208.4 68.566 209.212 68.202C210.052 67.81 210.738 67.208 211.27 66.396C211.802 65.556 212.068 64.478 212.068 63.162C212.068 62.014 211.788 61.02 211.228 60.18C210.696 59.312 209.94 58.514 208.96 57.786C207.98 57.03 206.832 56.26 205.516 55.476C204.2 54.664 202.968 53.838 201.82 52.998C200.672 52.158 199.748 51.192 199.048 50.1C198.376 48.98 198.04 47.636 198.04 46.068C198.04 44.416 198.404 43.058 199.132 41.994C199.888 40.902 200.868 40.104 202.072 39.6C203.276 39.068 204.564 38.802 205.936 38.802Z" fill="#161616"/>
</svg>
