<svg width="18" height="14" viewBox="0 0 18 14" xmlns="http://www.w3.org/2000/svg">
<path d="M17.5 6.58423L3.59264 6.58423C4.08586 6.29925 4.54005 5.94683 4.94226 5.53587C5.52542 4.94001 5.98789 4.23275 6.30339 3.45451C6.61887 2.67627 6.78123 1.84224 6.78123 0.999999L6.78123 0.899999L6.68123 0.899999L6.06311 0.899999L5.96311 0.899999L5.96311 0.999999C5.96311 1.73362 5.82168 2.46001 5.54697 3.13768C5.27225 3.81534 4.86964 4.43094 4.36224 4.94938C3.85484 5.46782 3.25259 5.87896 2.58993 6.15941C1.92728 6.43987 1.21712 6.58419 0.500001 6.58419L0.4 6.58419L0.4 6.68419L0.4 7.31576L0.4 7.41576L0.5 7.41576C1.21712 7.41576 1.92727 7.56013 2.58993 7.84058C3.25259 8.12104 3.85484 8.53217 4.36224 9.05062C4.86964 9.56906 5.27225 10.1847 5.54696 10.8623C5.82168 11.54 5.9631 12.2664 5.9631 13L5.9631 13.1L6.0631 13.1L6.68123 13.1L6.78123 13.1L6.78123 13C6.78123 12.1578 6.61887 11.3237 6.30338 10.5455C5.98789 9.76725 5.52542 9.05999 4.94226 8.46413C4.54006 8.05318 4.08589 7.70078 3.59269 7.4158L17.5 7.4158L17.6 7.4158L17.6 7.3158L17.6 6.68423L17.6 6.58423L17.5 6.58423Z" stroke-width="0.2"/>
<!-- fill="#121212" stroke="#121212" -->
</svg>
