<svg width="24" height="24" viewBox="0 0 24 24" fill="none" xmlns="http://www.w3.org/2000/svg">
<path fill-rule="evenodd" clip-rule="evenodd" d="M1.41468 10.9993C0.862391 10.9996 0.414469 11.4475 0.414214 11.9998C0.413958 12.5521 0.861466 12.9996 1.41375 12.9993L11.0396 12.9949L11.0352 22.6181C11.0349 23.1704 11.4824 23.6179 12.0347 23.6177C12.587 23.6174 13.0349 23.1695 13.0352 22.6172L13.0396 12.994L22.6601 12.9895C23.2124 12.9893 23.6603 12.5413 23.6605 11.9891C23.6608 11.4368 23.2133 10.9893 22.661 10.9895L13.0405 10.994L13.045 1.37089C13.0452 0.818605 12.5977 0.371097 12.0454 0.371353C11.4932 0.371608 11.0452 0.819531 11.045 1.37182L11.0405 10.9949L1.41468 10.9993Z" fill="#161616"/>
</svg>