<svg  viewBox="0 0 225 59" fill="none" xmlns="http://www.w3.org/2000/svg">
<path d="M18.1712 0.76V1.36C17.7913 1.44 17.4113 1.69 17.0313 2.11C16.6513 2.51 16.2313 3.15 15.7713 4.03L9.71125 16.03H9.20125L2.18125 3.07C1.78125 2.33 1.44125 1.87 1.16125 1.69C0.90125 1.49 0.66125 1.39 0.44125 1.39V0.76C0.84125 0.78 1.25125 0.799999 1.67125 0.819999C2.11125 0.839999 2.58125 0.849999 3.08125 0.849999C3.74125 0.849999 4.44125 0.849999 5.18125 0.849999C5.94125 0.829999 6.64125 0.799999 7.28125 0.76V1.39C6.78125 1.39 6.34125 1.45 5.96125 1.57C5.58125 1.69 5.33125 1.91 5.21125 2.23C5.09125 2.55 5.18125 3 5.48125 3.58L10.5513 13.3L10.3113 13.48L14.3013 5.53C14.8613 4.43 15.1313 3.58 15.1113 2.98C15.1113 2.38 14.8813 1.97 14.4213 1.75C13.9613 1.51 13.3113 1.38 12.4713 1.36V0.76C13.0513 0.78 13.6413 0.799999 14.2413 0.819999C14.8413 0.839999 15.4013 0.849999 15.9213 0.849999C16.4413 0.849999 16.8713 0.839999 17.2113 0.819999C17.5513 0.799999 17.8713 0.78 18.1712 0.76ZM11.0613 12.88V18.82C11.0613 19.54 11.1213 20.08 11.2413 20.44C11.3613 20.8 11.5913 21.04 11.9313 21.16C12.2913 21.28 12.8113 21.36 13.4913 21.4V22C13.0313 21.96 12.4513 21.94 11.7513 21.94C11.0713 21.92 10.3813 21.91 9.68125 21.91C8.90125 21.91 8.17125 21.92 7.49125 21.94C6.81125 21.94 6.26125 21.96 5.84125 22V21.4C6.52125 21.36 7.03125 21.28 7.37125 21.16C7.73125 21.04 7.97125 20.8 8.09125 20.44C8.21125 20.08 8.27125 19.54 8.27125 18.82V12.67L9.89125 14.53L11.0613 12.88ZM28.6827 0.339998C30.5827 0.339998 32.2427 0.769999 33.6627 1.63C35.1027 2.49 36.2127 3.73 36.9927 5.35C37.7927 6.95 38.1927 8.9 38.1927 11.2C38.1927 13.44 37.7827 15.4 36.9627 17.08C36.1627 18.76 35.0427 20.07 33.6027 21.01C32.1627 21.95 30.5127 22.42 28.6527 22.42C26.7527 22.42 25.0827 21.99 23.6427 21.13C22.2227 20.27 21.1127 19.03 20.3127 17.41C19.5327 15.79 19.1427 13.84 19.1427 11.56C19.1427 9.32 19.5527 7.36 20.3727 5.68C21.1927 4 22.3127 2.69 23.7327 1.75C25.1727 0.809999 26.8227 0.339998 28.6827 0.339998ZM28.5627 0.879998C27.2627 0.879998 26.1327 1.33 25.1727 2.23C24.2127 3.13 23.4627 4.37 22.9227 5.95C22.4027 7.53 22.1427 9.36 22.1427 11.44C22.1427 13.56 22.4327 15.41 23.0127 16.99C23.6127 18.55 24.4127 19.76 25.4127 20.62C26.4327 21.46 27.5527 21.88 28.7727 21.88C30.0727 21.88 31.2027 21.43 32.1627 20.53C33.1227 19.63 33.8627 18.39 34.3827 16.81C34.9227 15.21 35.1927 13.38 35.1927 11.32C35.1927 9.18 34.8927 7.33 34.2927 5.77C33.7127 4.21 32.9227 3.01 31.9227 2.17C30.9227 1.31 29.8027 0.879998 28.5627 0.879998ZM59.2633 0.76V1.36C58.5833 1.38 58.0633 1.48 57.7033 1.66C57.3633 1.84 57.1333 2.13 57.0133 2.53C56.8933 2.93 56.8333 3.5 56.8333 4.24V13.27C56.8333 14.67 56.7433 15.89 56.5633 16.93C56.3833 17.97 56.0633 18.87 55.6033 19.63C55.1033 20.47 54.3733 21.15 53.4133 21.67C52.4533 22.17 51.3533 22.42 50.1133 22.42C49.1533 22.42 48.2333 22.3 47.3533 22.06C46.4933 21.84 45.7333 21.42 45.0733 20.8C44.4933 20.24 44.0333 19.65 43.6933 19.03C43.3733 18.41 43.1533 17.65 43.0333 16.75C42.9133 15.85 42.8533 14.72 42.8533 13.36V3.94C42.8533 3.2 42.7933 2.66 42.6733 2.32C42.5533 1.96 42.3133 1.72 41.9533 1.6C41.6133 1.46 41.1033 1.38 40.4233 1.36V0.76C40.8433 0.78 41.3933 0.799999 42.0733 0.819999C42.7533 0.839999 43.4833 0.849999 44.2633 0.849999C44.9633 0.849999 45.6533 0.839999 46.3333 0.819999C47.0333 0.799999 47.6133 0.78 48.0733 0.76V1.36C47.3933 1.38 46.8733 1.46 46.5133 1.6C46.1733 1.72 45.9433 1.96 45.8233 2.32C45.7033 2.66 45.6433 3.2 45.6433 3.94V13.87C45.6433 14.89 45.6933 15.86 45.7933 16.78C45.8933 17.68 46.0933 18.48 46.3933 19.18C46.7133 19.86 47.1933 20.4 47.8333 20.8C48.4733 21.18 49.3233 21.37 50.3833 21.37C51.9033 21.37 53.0733 21.04 53.8933 20.38C54.7333 19.7 55.3133 18.77 55.6333 17.59C55.9733 16.41 56.1433 15.08 56.1433 13.6V4.24C56.1433 3.5 56.0533 2.93 55.8733 2.53C55.7133 2.13 55.4333 1.84 55.0333 1.66C54.6333 1.48 54.0933 1.38 53.4133 1.36V0.76C53.7733 0.78 54.2433 0.799999 54.8233 0.819999C55.4233 0.839999 55.9733 0.849999 56.4733 0.849999C56.9933 0.849999 57.5033 0.839999 58.0033 0.819999C58.5233 0.799999 58.9433 0.78 59.2633 0.76ZM61.3225 0.76C61.7425 0.78 62.2925 0.799999 62.9725 0.819999C63.6525 0.839999 64.3225 0.849999 64.9825 0.849999C65.9225 0.849999 66.8225 0.839999 67.6825 0.819999C68.5425 0.799999 69.1525 0.789999 69.5125 0.789999C71.1325 0.789999 72.4725 1.02 73.5325 1.48C74.6125 1.94 75.4125 2.57 75.9325 3.37C76.4725 4.15 76.7425 5.03 76.7425 6.01C76.7425 6.61 76.6225 7.25 76.3825 7.93C76.1425 8.61 75.7225 9.25 75.1225 9.85C74.5425 10.45 73.7425 10.95 72.7225 11.35C71.7025 11.73 70.4125 11.92 68.8525 11.92H65.9725V11.32H68.5525C69.9725 11.32 71.0525 11.1 71.7925 10.66C72.5525 10.2 73.0625 9.6 73.3225 8.86C73.6025 8.1 73.7425 7.26 73.7425 6.34C73.7425 4.76 73.3625 3.54 72.6025 2.68C71.8625 1.8 70.5825 1.36 68.7625 1.36C67.8425 1.36 67.2425 1.53 66.9625 1.87C66.6825 2.21 66.5425 2.9 66.5425 3.94V18.82C66.5425 19.54 66.6025 20.08 66.7225 20.44C66.8425 20.8 67.0725 21.04 67.4125 21.16C67.7725 21.28 68.2925 21.36 68.9725 21.4V22C68.5125 21.96 67.9325 21.94 67.2325 21.94C66.5525 21.92 65.8625 21.91 65.1625 21.91C64.3825 21.91 63.6525 21.92 62.9725 21.94C62.2925 21.94 61.7425 21.96 61.3225 22V21.4C62.0025 21.36 62.5125 21.28 62.8525 21.16C63.2125 21.04 63.4525 20.8 63.5725 20.44C63.6925 20.08 63.7525 19.54 63.7525 18.82V3.94C63.7525 3.2 63.6925 2.66 63.5725 2.32C63.4525 1.96 63.2125 1.72 62.8525 1.6C62.5125 1.46 62.0025 1.38 61.3225 1.36V0.76ZM66.0925 11.41C67.1725 11.45 68.0225 11.5 68.6425 11.56C69.2625 11.6 69.7625 11.64 70.1425 11.68C70.5425 11.72 70.9225 11.77 71.2825 11.83C72.6225 12.05 73.5825 12.46 74.1625 13.06C74.7625 13.64 75.2025 14.55 75.4825 15.79L76.2325 18.85C76.4325 19.73 76.6325 20.37 76.8325 20.77C77.0525 21.15 77.3825 21.33 77.8225 21.31C78.1625 21.29 78.4425 21.18 78.6625 20.98C78.9025 20.78 79.1525 20.51 79.4125 20.17L79.8625 20.5C79.4425 21.12 79.0025 21.6 78.5425 21.94C78.1025 22.26 77.4725 22.42 76.6525 22.42C75.9125 22.42 75.2625 22.2 74.7025 21.76C74.1425 21.32 73.7225 20.46 73.4425 19.18L72.7825 16.18C72.6025 15.32 72.3925 14.58 72.1525 13.96C71.9325 13.32 71.6125 12.82 71.1925 12.46C70.7925 12.1 70.1925 11.92 69.3925 11.92H66.1525L66.0925 11.41ZM96.0848 0.76C99.6648 0.76 102.325 1.66 104.065 3.46C105.805 5.24 106.675 7.8 106.675 11.14C106.675 13.32 106.245 15.23 105.385 16.87C104.545 18.49 103.315 19.75 101.695 20.65C100.075 21.55 98.1148 22 95.8148 22C95.5148 22 95.1148 21.99 94.6148 21.97C94.1148 21.95 93.5948 21.94 93.0548 21.94C92.5348 21.92 92.0548 21.91 91.6148 21.91C90.9148 21.91 90.2248 21.92 89.5448 21.94C88.8648 21.94 88.3148 21.96 87.8948 22V21.4C88.5748 21.36 89.0848 21.28 89.4248 21.16C89.7848 21.04 90.0248 20.8 90.1448 20.44C90.2648 20.08 90.3248 19.54 90.3248 18.82V3.94C90.3248 3.2 90.2648 2.66 90.1448 2.32C90.0248 1.96 89.7848 1.72 89.4248 1.6C89.0848 1.46 88.5748 1.38 87.8948 1.36V0.76C88.3148 0.78 88.8648 0.809999 89.5448 0.849999C90.2248 0.869998 90.8948 0.869998 91.5548 0.849999C92.2548 0.829999 93.0448 0.809999 93.9248 0.789999C94.8048 0.77 95.5248 0.76 96.0848 0.76ZM95.3348 1.3C94.4148 1.3 93.8148 1.47 93.5348 1.81C93.2548 2.15 93.1148 2.84 93.1148 3.88V18.88C93.1148 19.92 93.2548 20.61 93.5348 20.95C93.8348 21.29 94.4448 21.46 95.3648 21.46C97.5448 21.46 99.2348 21.07 100.435 20.29C101.635 19.49 102.475 18.33 102.955 16.81C103.435 15.29 103.675 13.44 103.675 11.26C103.675 9.02 103.405 7.17 102.865 5.71C102.345 4.23 101.475 3.13 100.255 2.41C99.0548 1.67 97.4148 1.3 95.3348 1.3ZM117.36 0.609998L124.68 19.48C124.98 20.24 125.32 20.75 125.7 21.01C126.08 21.25 126.43 21.38 126.75 21.4V22C126.35 21.96 125.86 21.94 125.28 21.94C124.7 21.92 124.12 21.91 123.54 21.91C122.76 21.91 122.03 21.92 121.35 21.94C120.67 21.94 120.12 21.96 119.7 22V21.4C120.72 21.36 121.37 21.19 121.65 20.89C121.93 20.57 121.87 19.9 121.47 18.88L115.89 3.97L116.37 3.58L111.15 17.14C110.83 17.94 110.64 18.62 110.58 19.18C110.52 19.72 110.57 20.15 110.73 20.47C110.91 20.79 111.2 21.02 111.6 21.16C112.02 21.3 112.54 21.38 113.16 21.4V22C112.6 21.96 112.01 21.94 111.39 21.94C110.79 21.92 110.23 21.91 109.71 21.91C109.21 21.91 108.78 21.92 108.42 21.94C108.08 21.94 107.76 21.96 107.46 22V21.4C107.86 21.3 108.27 21.07 108.69 20.71C109.11 20.33 109.49 19.69 109.83 18.79L116.88 0.609998C116.96 0.609998 117.04 0.609998 117.12 0.609998C117.2 0.609998 117.28 0.609998 117.36 0.609998ZM121.02 13.36V13.96H112.08L112.38 13.36H121.02ZM142.832 0.76C142.752 1.52 142.692 2.26 142.652 2.98C142.632 3.68 142.622 4.22 142.622 4.6C142.622 5.08 142.632 5.53 142.652 5.95C142.672 6.37 142.692 6.74 142.712 7.06H142.022C141.882 5.66 141.692 4.56 141.452 3.76C141.212 2.94 140.792 2.35 140.192 1.99C139.592 1.63 138.662 1.45 137.402 1.45H135.782V18.52C135.782 19.32 135.852 19.92 135.992 20.32C136.152 20.72 136.452 20.99 136.892 21.13C137.332 21.27 137.972 21.36 138.812 21.4V22C138.292 21.96 137.632 21.94 136.832 21.94C136.032 21.92 135.222 21.91 134.402 21.91C133.502 21.91 132.652 21.92 131.852 21.94C131.072 21.94 130.442 21.96 129.962 22V21.4C130.802 21.36 131.442 21.27 131.882 21.13C132.322 20.99 132.612 20.72 132.752 20.32C132.912 19.92 132.992 19.32 132.992 18.52V1.45H131.372C130.132 1.45 129.202 1.63 128.582 1.99C127.982 2.35 127.562 2.94 127.322 3.76C127.082 4.56 126.892 5.66 126.752 7.06H126.062C126.102 6.74 126.122 6.37 126.122 5.95C126.142 5.53 126.152 5.08 126.152 4.6C126.152 4.22 126.132 3.68 126.092 2.98C126.072 2.26 126.022 1.52 125.942 0.76C126.782 0.78 127.692 0.799999 128.672 0.819999C129.672 0.839999 130.672 0.849999 131.672 0.849999C132.672 0.849999 133.582 0.849999 134.402 0.849999C135.222 0.849999 136.122 0.849999 137.102 0.849999C138.102 0.849999 139.102 0.839999 140.102 0.819999C141.102 0.799999 142.012 0.78 142.832 0.76ZM151.989 0.609998L159.309 19.48C159.609 20.24 159.949 20.75 160.329 21.01C160.709 21.25 161.059 21.38 161.379 21.4V22C160.979 21.96 160.489 21.94 159.909 21.94C159.329 21.92 158.749 21.91 158.169 21.91C157.389 21.91 156.659 21.92 155.979 21.94C155.299 21.94 154.749 21.96 154.329 22V21.4C155.349 21.36 155.999 21.19 156.279 20.89C156.559 20.57 156.499 19.9 156.099 18.88L150.519 3.97L150.999 3.58L145.779 17.14C145.459 17.94 145.269 18.62 145.209 19.18C145.149 19.72 145.199 20.15 145.359 20.47C145.539 20.79 145.829 21.02 146.229 21.16C146.649 21.3 147.169 21.38 147.789 21.4V22C147.229 21.96 146.639 21.94 146.019 21.94C145.419 21.92 144.859 21.91 144.339 21.91C143.839 21.91 143.409 21.92 143.049 21.94C142.709 21.94 142.389 21.96 142.089 22V21.4C142.489 21.3 142.899 21.07 143.319 20.71C143.739 20.33 144.119 19.69 144.459 18.79L151.509 0.609998C151.589 0.609998 151.669 0.609998 151.749 0.609998C151.829 0.609998 151.909 0.609998 151.989 0.609998ZM155.649 13.36V13.96H146.709L147.009 13.36H155.649ZM182.466 22V21.4C183.146 21.36 183.656 21.28 183.996 21.16C184.356 21.04 184.596 20.8 184.716 20.44C184.836 20.08 184.896 19.54 184.896 18.82V3.94C184.896 3.2 184.836 2.66 184.716 2.32C184.596 1.96 184.356 1.72 183.996 1.6C183.656 1.46 183.146 1.38 182.466 1.36V0.76C182.926 0.78 183.506 0.799999 184.206 0.819999C184.906 0.839999 185.596 0.849999 186.276 0.849999C187.056 0.849999 187.786 0.839999 188.466 0.819999C189.146 0.799999 189.696 0.78 190.116 0.76V1.36C189.436 1.38 188.916 1.46 188.556 1.6C188.216 1.72 187.986 1.96 187.866 2.32C187.746 2.66 187.686 3.2 187.686 3.94V18.82C187.686 19.54 187.746 20.08 187.866 20.44C187.986 20.8 188.216 21.04 188.556 21.16C188.916 21.28 189.436 21.36 190.116 21.4V22C189.696 21.96 189.146 21.94 188.466 21.94C187.786 21.92 187.056 21.91 186.276 21.91C185.596 21.91 184.906 21.92 184.206 21.94C183.506 21.94 182.926 21.96 182.466 22ZM169.926 22V21.4C170.606 21.36 171.116 21.28 171.456 21.16C171.816 21.04 172.056 20.8 172.176 20.44C172.296 20.08 172.356 19.54 172.356 18.82V3.94C172.356 3.2 172.296 2.66 172.176 2.32C172.056 1.96 171.816 1.72 171.456 1.6C171.116 1.46 170.606 1.38 169.926 1.36V0.76C170.346 0.78 170.896 0.799999 171.576 0.819999C172.256 0.839999 172.986 0.849999 173.766 0.849999C174.466 0.849999 175.156 0.839999 175.836 0.819999C176.536 0.799999 177.116 0.78 177.576 0.76V1.36C176.896 1.38 176.376 1.46 176.016 1.6C175.676 1.72 175.446 1.96 175.326 2.32C175.206 2.66 175.146 3.2 175.146 3.94V18.82C175.146 19.54 175.206 20.08 175.326 20.44C175.446 20.8 175.676 21.04 176.016 21.16C176.376 21.28 176.896 21.36 177.576 21.4V22C177.116 21.96 176.536 21.94 175.836 21.94C175.156 21.92 174.466 21.91 173.766 21.91C172.986 21.91 172.256 21.92 171.576 21.94C170.896 21.94 170.346 21.96 169.926 22ZM174.096 11.62V11.02H185.946V11.62H174.096ZM201.061 0.609998L208.381 19.48C208.681 20.24 209.021 20.75 209.401 21.01C209.781 21.25 210.131 21.38 210.451 21.4V22C210.051 21.96 209.561 21.94 208.981 21.94C208.401 21.92 207.821 21.91 207.241 21.91C206.461 21.91 205.731 21.92 205.051 21.94C204.371 21.94 203.821 21.96 203.401 22V21.4C204.421 21.36 205.071 21.19 205.351 20.89C205.631 20.57 205.571 19.9 205.171 18.88L199.591 3.97L200.071 3.58L194.851 17.14C194.531 17.94 194.341 18.62 194.281 19.18C194.221 19.72 194.271 20.15 194.431 20.47C194.611 20.79 194.901 21.02 195.301 21.16C195.721 21.3 196.241 21.38 196.861 21.4V22C196.301 21.96 195.711 21.94 195.091 21.94C194.491 21.92 193.931 21.91 193.411 21.91C192.911 21.91 192.481 21.92 192.121 21.94C191.781 21.94 191.461 21.96 191.161 22V21.4C191.561 21.3 191.971 21.07 192.391 20.71C192.811 20.33 193.191 19.69 193.531 18.79L200.581 0.609998C200.661 0.609998 200.741 0.609998 200.821 0.609998C200.901 0.609998 200.981 0.609998 201.061 0.609998ZM204.721 13.36V13.96H195.781L196.081 13.36H204.721ZM217.948 0.429999C218.948 0.429999 219.708 0.549999 220.228 0.789999C220.748 1.01 221.208 1.26 221.608 1.54C221.848 1.68 222.038 1.79 222.178 1.87C222.338 1.93 222.488 1.96 222.628 1.96C222.828 1.96 222.968 1.85 223.048 1.63C223.148 1.41 223.228 1.08 223.288 0.64H223.978C223.958 0.979999 223.928 1.39 223.888 1.87C223.868 2.33 223.848 2.95 223.828 3.73C223.828 4.49 223.828 5.5 223.828 6.76H223.138C223.078 5.8 222.868 4.88 222.508 4C222.148 3.12 221.618 2.4 220.918 1.84C220.238 1.28 219.338 0.999999 218.218 0.999999C217.158 0.999999 216.278 1.32 215.578 1.96C214.898 2.6 214.558 3.44 214.558 4.48C214.558 5.38 214.788 6.14 215.248 6.76C215.708 7.36 216.318 7.91 217.078 8.41C217.858 8.89 218.698 9.41 219.598 9.97C220.638 10.61 221.558 11.25 222.358 11.89C223.178 12.51 223.818 13.2 224.278 13.96C224.758 14.72 224.998 15.64 224.998 16.72C224.998 18 224.708 19.06 224.128 19.9C223.548 20.74 222.778 21.37 221.818 21.79C220.858 22.21 219.798 22.42 218.638 22.42C217.578 22.42 216.738 22.3 216.118 22.06C215.498 21.82 214.968 21.57 214.528 21.31C214.088 21.03 213.748 20.89 213.508 20.89C213.308 20.89 213.158 21 213.058 21.22C212.978 21.44 212.908 21.77 212.848 22.21H212.158C212.198 21.79 212.218 21.3 212.218 20.74C212.238 20.16 212.248 19.41 212.248 18.49C212.268 17.57 212.278 16.41 212.278 15.01H212.968C213.048 16.21 213.268 17.33 213.628 18.37C214.008 19.41 214.578 20.25 215.338 20.89C216.118 21.51 217.148 21.82 218.428 21.82C219.088 21.82 219.708 21.69 220.288 21.43C220.888 21.15 221.378 20.72 221.758 20.14C222.138 19.54 222.328 18.77 222.328 17.83C222.328 17.01 222.128 16.3 221.728 15.7C221.348 15.08 220.808 14.51 220.108 13.99C219.408 13.45 218.588 12.9 217.648 12.34C216.708 11.76 215.828 11.17 215.008 10.57C214.188 9.97 213.528 9.28 213.028 8.5C212.548 7.7 212.308 6.74 212.308 5.62C212.308 4.44 212.568 3.47 213.088 2.71C213.628 1.93 214.328 1.36 215.188 0.999999C216.048 0.619999 216.968 0.429999 217.948 0.429999ZM35.761 36.76C36.181 36.78 36.731 36.8 37.411 36.82C38.091 36.84 38.761 36.85 39.421 36.85C40.361 36.85 41.261 36.84 42.121 36.82C42.981 36.8 43.591 36.79 43.951 36.79C46.051 36.79 47.631 37.23 48.691 38.11C49.751 38.99 50.281 40.12 50.281 41.5C50.281 42.2 50.131 42.89 49.831 43.57C49.551 44.23 49.071 44.84 48.391 45.4C47.731 45.94 46.841 46.38 45.721 46.72V46.78C47.301 46.98 48.531 47.36 49.411 47.92C50.311 48.46 50.941 49.1 51.301 49.84C51.661 50.58 51.841 51.36 51.841 52.18C51.841 53.32 51.551 54.33 50.971 55.21C50.411 56.07 49.591 56.75 48.511 57.25C47.431 57.75 46.141 58 44.641 58C44.201 58 43.541 57.99 42.661 57.97C41.781 57.93 40.721 57.91 39.481 57.91C38.781 57.91 38.091 57.92 37.411 57.94C36.731 57.94 36.181 57.96 35.761 58V57.4C36.441 57.36 36.951 57.28 37.291 57.16C37.651 57.04 37.891 56.8 38.011 56.44C38.131 56.08 38.191 55.54 38.191 54.82V39.94C38.191 39.2 38.131 38.66 38.011 38.32C37.891 37.96 37.651 37.72 37.291 37.6C36.951 37.46 36.441 37.38 35.761 37.36V36.76ZM43.201 37.36C42.281 37.36 41.681 37.53 41.401 37.87C41.121 38.21 40.981 38.9 40.981 39.94V54.82C40.981 55.52 41.041 56.05 41.161 56.41C41.281 56.77 41.501 57.01 41.821 57.13C42.141 57.25 42.611 57.31 43.231 57.31C45.191 57.31 46.611 56.86 47.491 55.96C48.391 55.04 48.841 53.74 48.841 52.06C48.841 50.52 48.421 49.33 47.581 48.49C46.761 47.65 45.401 47.23 43.501 47.23H40.411C40.411 47.23 40.411 47.15 40.411 46.99C40.411 46.81 40.411 46.72 40.411 46.72H42.991C44.171 46.72 45.081 46.5 45.721 46.06C46.361 45.6 46.801 45 47.041 44.26C47.281 43.5 47.401 42.69 47.401 41.83C47.401 40.35 47.071 39.24 46.411 38.5C45.771 37.74 44.701 37.36 43.201 37.36ZM69.2173 36.76C69.1373 37.46 69.0773 38.14 69.0373 38.8C69.0173 39.46 69.0073 39.96 69.0073 40.3C69.0073 40.66 69.0173 41.01 69.0373 41.35C69.0573 41.67 69.0773 41.94 69.0973 42.16H68.4073C68.2873 40.98 68.1173 40.05 67.8973 39.37C67.6773 38.67 67.2973 38.18 66.7573 37.9C66.2373 37.6 65.4473 37.45 64.3873 37.45H61.8973C61.2173 37.45 60.6973 37.51 60.3373 37.63C59.9973 37.73 59.7673 37.96 59.6473 38.32C59.5273 38.66 59.4673 39.2 59.4673 39.94V54.82C59.4673 55.54 59.5273 56.08 59.6473 56.44C59.7673 56.8 59.9973 57.04 60.3373 57.16C60.6973 57.26 61.2173 57.31 61.8973 57.31H64.0873C65.3473 57.31 66.2973 57.14 66.9373 56.8C67.5973 56.46 68.0673 55.91 68.3473 55.15C68.6473 54.37 68.8673 53.32 69.0073 52H69.6973C69.6373 52.54 69.6073 53.26 69.6073 54.16C69.6073 54.54 69.6173 55.09 69.6373 55.81C69.6773 56.51 69.7373 57.24 69.8173 58C68.7973 57.96 67.6473 57.94 66.3673 57.94C65.0873 57.92 63.9473 57.91 62.9473 57.91C62.5073 57.91 61.9373 57.91 61.2373 57.91C60.5573 57.91 59.8173 57.92 59.0173 57.94C58.2173 57.94 57.4073 57.95 56.5873 57.97C55.7673 57.97 54.9873 57.98 54.2473 58V57.4C54.9273 57.36 55.4373 57.28 55.7773 57.16C56.1373 57.04 56.3773 56.8 56.4973 56.44C56.6173 56.08 56.6773 55.54 56.6773 54.82V39.94C56.6773 39.2 56.6173 38.66 56.4973 38.32C56.3773 37.96 56.1373 37.72 55.7773 37.6C55.4373 37.46 54.9273 37.38 54.2473 37.36V36.76C54.9873 36.78 55.7673 36.8 56.5873 36.82C57.4073 36.82 58.2173 36.83 59.0173 36.85C59.8173 36.85 60.5573 36.85 61.2373 36.85C61.9373 36.85 62.5073 36.85 62.9473 36.85C63.8673 36.85 64.9073 36.85 66.0673 36.85C67.2473 36.83 68.2973 36.8 69.2173 36.76ZM64.0573 47.02C64.0573 47.02 64.0573 47.12 64.0573 47.32C64.0573 47.52 64.0573 47.62 64.0573 47.62H58.5673C58.5673 47.62 58.5673 47.52 58.5673 47.32C58.5673 47.12 58.5673 47.02 58.5673 47.02H64.0573ZM64.9273 43.06C64.8473 44.2 64.8073 45.07 64.8073 45.67C64.8273 46.27 64.8373 46.82 64.8373 47.32C64.8373 47.82 64.8473 48.37 64.8673 48.97C64.8873 49.57 64.9373 50.44 65.0173 51.58H64.3273C64.2473 50.94 64.1473 50.32 64.0273 49.72C63.9273 49.1 63.6873 48.6 63.3073 48.22C62.9473 47.82 62.3273 47.62 61.4473 47.62V47.02C62.1073 47.02 62.6073 46.89 62.9473 46.63C63.3073 46.35 63.5673 46 63.7273 45.58C63.8873 45.16 63.9973 44.73 64.0573 44.29C64.1173 43.83 64.1773 43.42 64.2373 43.06H64.9273ZM87.4986 36.76C87.4186 37.46 87.3586 38.14 87.3186 38.8C87.2986 39.46 87.2886 39.96 87.2886 40.3C87.2886 40.66 87.2986 41.01 87.3186 41.35C87.3386 41.67 87.3586 41.94 87.3786 42.16H86.6886C86.5686 40.98 86.3986 40.05 86.1786 39.37C85.9586 38.67 85.5786 38.18 85.0386 37.9C84.5186 37.6 83.7286 37.45 82.6686 37.45H80.1786C79.4986 37.45 78.9786 37.51 78.6186 37.63C78.2786 37.73 78.0486 37.96 77.9286 38.32C77.8086 38.66 77.7486 39.2 77.7486 39.94V54.82C77.7486 55.54 77.8086 56.08 77.9286 56.44C78.0486 56.8 78.2786 57.04 78.6186 57.16C78.9786 57.26 79.4986 57.31 80.1786 57.31H82.3686C83.6286 57.31 84.5786 57.14 85.2186 56.8C85.8786 56.46 86.3486 55.91 86.6286 55.15C86.9286 54.37 87.1486 53.32 87.2886 52H87.9786C87.9186 52.54 87.8886 53.26 87.8886 54.16C87.8886 54.54 87.8986 55.09 87.9186 55.81C87.9586 56.51 88.0186 57.24 88.0986 58C87.0786 57.96 85.9286 57.94 84.6486 57.94C83.3686 57.92 82.2286 57.91 81.2286 57.91C80.7886 57.91 80.2186 57.91 79.5186 57.91C78.8386 57.91 78.0986 57.92 77.2986 57.94C76.4986 57.94 75.6886 57.95 74.8686 57.97C74.0486 57.97 73.2686 57.98 72.5286 58V57.4C73.2086 57.36 73.7186 57.28 74.0586 57.16C74.4186 57.04 74.6586 56.8 74.7786 56.44C74.8986 56.08 74.9586 55.54 74.9586 54.82V39.94C74.9586 39.2 74.8986 38.66 74.7786 38.32C74.6586 37.96 74.4186 37.72 74.0586 37.6C73.7186 37.46 73.2086 37.38 72.5286 37.36V36.76C73.2686 36.78 74.0486 36.8 74.8686 36.82C75.6886 36.82 76.4986 36.83 77.2986 36.85C78.0986 36.85 78.8386 36.85 79.5186 36.85C80.2186 36.85 80.7886 36.85 81.2286 36.85C82.1486 36.85 83.1886 36.85 84.3486 36.85C85.5286 36.83 86.5786 36.8 87.4986 36.76ZM82.3386 47.02C82.3386 47.02 82.3386 47.12 82.3386 47.32C82.3386 47.52 82.3386 47.62 82.3386 47.62H76.8486C76.8486 47.62 76.8486 47.52 76.8486 47.32C76.8486 47.12 76.8486 47.02 76.8486 47.02H82.3386ZM83.2086 43.06C83.1286 44.2 83.0886 45.07 83.0886 45.67C83.1086 46.27 83.1186 46.82 83.1186 47.32C83.1186 47.82 83.1286 48.37 83.1486 48.97C83.1686 49.57 83.2186 50.44 83.2986 51.58H82.6086C82.5286 50.94 82.4286 50.32 82.3086 49.72C82.2086 49.1 81.9686 48.6 81.5886 48.22C81.2286 47.82 80.6086 47.62 79.7286 47.62V47.02C80.3886 47.02 80.8886 46.89 81.2286 46.63C81.5886 46.35 81.8486 46 82.0086 45.58C82.1686 45.16 82.2786 44.73 82.3386 44.29C82.3986 43.83 82.4586 43.42 82.5186 43.06H83.2086ZM109.65 36.76V37.36C108.97 37.38 108.45 37.48 108.09 37.66C107.75 37.84 107.52 38.13 107.4 38.53C107.28 38.93 107.22 39.5 107.22 40.24V58.15C107.1 58.15 106.98 58.15 106.86 58.15C106.76 58.15 106.65 58.15 106.53 58.15L93.9298 38.68V54.52C93.9298 55.24 93.9898 55.81 94.1098 56.23C94.2498 56.63 94.5098 56.92 94.8898 57.1C95.2898 57.26 95.8798 57.36 96.6598 57.4V58C96.2998 57.96 95.8298 57.94 95.2498 57.94C94.6698 57.92 94.1198 57.91 93.5998 57.91C93.0998 57.91 92.5898 57.92 92.0698 57.94C91.5698 57.94 91.1498 57.96 90.8098 58V57.4C91.4898 57.36 91.9998 57.26 92.3398 57.1C92.6998 56.92 92.9398 56.63 93.0598 56.23C93.1798 55.81 93.2398 55.24 93.2398 54.52V39.94C93.2398 39.2 93.1798 38.66 93.0598 38.32C92.9398 37.96 92.6998 37.72 92.3398 37.6C91.9998 37.46 91.4898 37.38 90.8098 37.36V36.76C91.1498 36.78 91.5698 36.8 92.0698 36.82C92.5898 36.84 93.0998 36.85 93.5998 36.85C94.0398 36.85 94.4598 36.84 94.8598 36.82C95.2598 36.8 95.6198 36.78 95.9398 36.76L106.53 53.08V40.24C106.53 39.5 106.46 38.93 106.32 38.53C106.2 38.13 105.94 37.84 105.54 37.66C105.16 37.48 104.58 37.38 103.8 37.36V36.76C104.16 36.78 104.63 36.8 105.21 36.82C105.81 36.84 106.36 36.85 106.86 36.85C107.38 36.85 107.89 36.84 108.39 36.82C108.91 36.8 109.33 36.78 109.65 36.76ZM125.882 36.43C126.882 36.43 127.642 36.55 128.162 36.79C128.682 37.01 129.142 37.26 129.542 37.54C129.782 37.68 129.972 37.79 130.112 37.87C130.272 37.93 130.422 37.96 130.562 37.96C130.762 37.96 130.902 37.85 130.982 37.63C131.082 37.41 131.162 37.08 131.222 36.64H131.912C131.892 36.98 131.862 37.39 131.822 37.87C131.802 38.33 131.782 38.95 131.762 39.73C131.762 40.49 131.762 41.5 131.762 42.76H131.072C131.012 41.8 130.802 40.88 130.442 40C130.082 39.12 129.552 38.4 128.852 37.84C128.172 37.28 127.272 37 126.152 37C125.092 37 124.212 37.32 123.512 37.96C122.832 38.6 122.492 39.44 122.492 40.48C122.492 41.38 122.722 42.14 123.182 42.76C123.642 43.36 124.252 43.91 125.012 44.41C125.792 44.89 126.632 45.41 127.532 45.97C128.572 46.61 129.492 47.25 130.292 47.89C131.112 48.51 131.752 49.2 132.212 49.96C132.692 50.72 132.932 51.64 132.932 52.72C132.932 54 132.642 55.06 132.062 55.9C131.482 56.74 130.712 57.37 129.752 57.79C128.792 58.21 127.732 58.42 126.572 58.42C125.512 58.42 124.672 58.3 124.052 58.06C123.432 57.82 122.902 57.57 122.462 57.31C122.022 57.03 121.682 56.89 121.442 56.89C121.242 56.89 121.092 57 120.992 57.22C120.912 57.44 120.842 57.77 120.782 58.21H120.092C120.132 57.79 120.152 57.3 120.152 56.74C120.172 56.16 120.182 55.41 120.182 54.49C120.202 53.57 120.212 52.41 120.212 51.01H120.902C120.982 52.21 121.202 53.33 121.562 54.37C121.942 55.41 122.512 56.25 123.272 56.89C124.052 57.51 125.082 57.82 126.362 57.82C127.022 57.82 127.642 57.69 128.222 57.43C128.822 57.15 129.312 56.72 129.692 56.14C130.072 55.54 130.262 54.77 130.262 53.83C130.262 53.01 130.062 52.3 129.662 51.7C129.282 51.08 128.742 50.51 128.042 49.99C127.342 49.45 126.522 48.9 125.582 48.34C124.642 47.76 123.762 47.17 122.942 46.57C122.122 45.97 121.462 45.28 120.962 44.5C120.482 43.7 120.242 42.74 120.242 41.62C120.242 40.44 120.502 39.47 121.022 38.71C121.562 37.93 122.262 37.36 123.122 37C123.982 36.62 124.902 36.43 125.882 36.43ZM150.633 36.76C150.553 37.46 150.493 38.14 150.453 38.8C150.433 39.46 150.423 39.96 150.423 40.3C150.423 40.66 150.433 41.01 150.453 41.35C150.473 41.67 150.493 41.94 150.513 42.16H149.823C149.703 40.98 149.533 40.05 149.313 39.37C149.093 38.67 148.713 38.18 148.173 37.9C147.653 37.6 146.863 37.45 145.803 37.45H143.313C142.633 37.45 142.113 37.51 141.753 37.63C141.413 37.73 141.183 37.96 141.063 38.32C140.943 38.66 140.883 39.2 140.883 39.94V54.82C140.883 55.54 140.943 56.08 141.063 56.44C141.183 56.8 141.413 57.04 141.753 57.16C142.113 57.26 142.633 57.31 143.313 57.31H145.503C146.763 57.31 147.713 57.14 148.353 56.8C149.013 56.46 149.483 55.91 149.763 55.15C150.063 54.37 150.283 53.32 150.423 52H151.113C151.053 52.54 151.023 53.26 151.023 54.16C151.023 54.54 151.033 55.09 151.053 55.81C151.093 56.51 151.153 57.24 151.233 58C150.213 57.96 149.063 57.94 147.783 57.94C146.503 57.92 145.363 57.91 144.363 57.91C143.923 57.91 143.353 57.91 142.653 57.91C141.973 57.91 141.233 57.92 140.433 57.94C139.633 57.94 138.823 57.95 138.003 57.97C137.183 57.97 136.403 57.98 135.663 58V57.4C136.343 57.36 136.853 57.28 137.193 57.16C137.553 57.04 137.793 56.8 137.913 56.44C138.033 56.08 138.093 55.54 138.093 54.82V39.94C138.093 39.2 138.033 38.66 137.913 38.32C137.793 37.96 137.553 37.72 137.193 37.6C136.853 37.46 136.343 37.38 135.663 37.36V36.76C136.403 36.78 137.183 36.8 138.003 36.82C138.823 36.82 139.633 36.83 140.433 36.85C141.233 36.85 141.973 36.85 142.653 36.85C143.353 36.85 143.923 36.85 144.363 36.85C145.283 36.85 146.323 36.85 147.483 36.85C148.663 36.83 149.713 36.8 150.633 36.76ZM145.473 47.02C145.473 47.02 145.473 47.12 145.473 47.32C145.473 47.52 145.473 47.62 145.473 47.62H139.983C139.983 47.62 139.983 47.52 139.983 47.32C139.983 47.12 139.983 47.02 139.983 47.02H145.473ZM146.343 43.06C146.263 44.2 146.223 45.07 146.223 45.67C146.243 46.27 146.253 46.82 146.253 47.32C146.253 47.82 146.263 48.37 146.283 48.97C146.303 49.57 146.353 50.44 146.433 51.58H145.743C145.663 50.94 145.563 50.32 145.443 49.72C145.343 49.1 145.103 48.6 144.723 48.22C144.363 47.82 143.743 47.62 142.863 47.62V47.02C143.523 47.02 144.023 46.89 144.363 46.63C144.723 46.35 144.983 46 145.143 45.58C145.303 45.16 145.413 44.73 145.473 44.29C145.533 43.83 145.593 43.42 145.653 43.06H146.343ZM172.785 36.76V37.36C172.105 37.38 171.585 37.48 171.225 37.66C170.885 37.84 170.655 38.13 170.535 38.53C170.415 38.93 170.355 39.5 170.355 40.24V58.15C170.235 58.15 170.115 58.15 169.995 58.15C169.895 58.15 169.785 58.15 169.665 58.15L157.065 38.68V54.52C157.065 55.24 157.125 55.81 157.245 56.23C157.385 56.63 157.645 56.92 158.025 57.1C158.425 57.26 159.015 57.36 159.795 57.4V58C159.435 57.96 158.965 57.94 158.385 57.94C157.805 57.92 157.255 57.91 156.735 57.91C156.235 57.91 155.725 57.92 155.205 57.94C154.705 57.94 154.285 57.96 153.945 58V57.4C154.625 57.36 155.135 57.26 155.475 57.1C155.835 56.92 156.075 56.63 156.195 56.23C156.315 55.81 156.375 55.24 156.375 54.52V39.94C156.375 39.2 156.315 38.66 156.195 38.32C156.075 37.96 155.835 37.72 155.475 37.6C155.135 37.46 154.625 37.38 153.945 37.36V36.76C154.285 36.78 154.705 36.8 155.205 36.82C155.725 36.84 156.235 36.85 156.735 36.85C157.175 36.85 157.595 36.84 157.995 36.82C158.395 36.8 158.755 36.78 159.075 36.76L169.665 53.08V40.24C169.665 39.5 169.595 38.93 169.455 38.53C169.335 38.13 169.075 37.84 168.675 37.66C168.295 37.48 167.715 37.38 166.935 37.36V36.76C167.295 36.78 167.765 36.8 168.345 36.82C168.945 36.84 169.495 36.85 169.995 36.85C170.515 36.85 171.025 36.84 171.525 36.82C172.045 36.8 172.465 36.78 172.785 36.76ZM191.626 36.76C191.546 37.52 191.486 38.26 191.446 38.98C191.426 39.68 191.416 40.22 191.416 40.6C191.416 41.08 191.426 41.53 191.446 41.95C191.466 42.37 191.486 42.74 191.506 43.06H190.816C190.676 41.66 190.486 40.56 190.246 39.76C190.006 38.94 189.586 38.35 188.986 37.99C188.386 37.63 187.456 37.45 186.196 37.45H184.576V54.52C184.576 55.32 184.646 55.92 184.786 56.32C184.946 56.72 185.246 56.99 185.686 57.13C186.126 57.27 186.766 57.36 187.606 57.4V58C187.086 57.96 186.426 57.94 185.626 57.94C184.826 57.92 184.016 57.91 183.196 57.91C182.296 57.91 181.446 57.92 180.646 57.94C179.866 57.94 179.236 57.96 178.756 58V57.4C179.596 57.36 180.236 57.27 180.676 57.13C181.116 56.99 181.406 56.72 181.546 56.32C181.706 55.92 181.786 55.32 181.786 54.52V37.45H180.166C178.926 37.45 177.996 37.63 177.376 37.99C176.776 38.35 176.356 38.94 176.116 39.76C175.876 40.56 175.686 41.66 175.546 43.06H174.856C174.896 42.74 174.916 42.37 174.916 41.95C174.936 41.53 174.946 41.08 174.946 40.6C174.946 40.22 174.926 39.68 174.886 38.98C174.866 38.26 174.816 37.52 174.736 36.76C175.576 36.78 176.486 36.8 177.466 36.82C178.466 36.84 179.466 36.85 180.466 36.85C181.466 36.85 182.376 36.85 183.196 36.85C184.016 36.85 184.916 36.85 185.896 36.85C186.896 36.85 187.896 36.84 188.896 36.82C189.896 36.8 190.806 36.78 191.626 36.76Z" fill="#A77E3D"/>
</svg>
