<svg xmlns="http://www.w3.org/2000/svg" width="82" height="87" viewBox="0 0 82 87" fill="none">
<path d="M36.5781 9.9395L36.4477 76.4965" stroke="#FAFAFA" stroke-width="2.34286" stroke-miterlimit="10"/>
<path d="M41.375 10.4924V76.6853" stroke="#FAFAFA" stroke-width="2.34286" stroke-miterlimit="10"/>
<path d="M36.4453 10.6679C26.1381 13.0229 17.9122 20.5526 13.9941 27.39C10.0759 34.2274 8.75081 41.1721 9.12241 49.0383C9.70916 61.4421 17.1087 69.7504 23.1701 75.2502" stroke="#FAFAFA" stroke-width="2.34286" stroke-miterlimit="10"/>
<path d="M56.218 76.4934C64.8334 69.9144 72.6909 58.6775 73.7846 47.6339C74.8782 36.5904 72.3764 19.6603 54.4219 10.6678" stroke="#FAFAFA" stroke-width="2.34286" stroke-miterlimit="10"/>
<path d="M9.79688 38.5569C30.7503 45.339 41.3998 61.1754 48.8857 76.295C50.3526 72.9487 51.1822 59.8216 50.6346 53.9707C56.1891 63.4101 56.6129 75.7067 56.7873 76.3292" stroke="#FAFAFA" stroke-width="2.34286" stroke-miterlimit="10"/>
</svg>