<svg xmlns="http://www.w3.org/2000/svg" viewBox="0 0 1000 1000"><defs><style>.cls-1{fill:#fbfbfb;}</style></defs><g id="Mark_white" data-name="Mark white"><path class="cls-1" d="M740.42,259.58A340,340,0,1,0,840,500,337.83,337.83,0,0,0,740.42,259.58ZM500,823.51c-178.52,0-323.78-145.25-323.78-323.77S321.48,176,500,176,823.78,321.21,823.78,499.74,678.53,823.51,500,823.51Z"/><path class="cls-1" d="M780.82,496.69C780.63,394.43,723,294.46,633,245.31a225.9,225.9,0,0,0,7.29,25h0l0,0c44.7,29.11,80.12,72,100.87,121.08h0a279.72,279.72,0,0,1,22.08,112.16l0,0C763,586.27,723.64,667.9,658,718.42c2.45-67.69-24.73-135.45-73.15-182.75,31.68,63.5,30.82,141.48-1.74,204.45a350.43,350.43,0,0,0-48.14-98.87V213.07q-8.7-1.12-17.57-1.68v406.8a352.73,352.73,0,0,0-52.69-51.47V213.07c-275.31,40.35-336.07,409.82-95.05,543.27a240,240,0,0,1-9.25-24.63C285.67,684,238.61,598,236.48,509.59c5.29-.19,12.06-.15,17.42-.15v.09a332.85,332.85,0,0,1,193.22,67V784.09q8.69,1.71,17.56,2.84V590.72a336.59,336.59,0,0,1,52.69,57.5V788.61q8.88-.55,17.57-1.68V675.16a333.2,333.2,0,0,1,40.58,109.92,246.9,246.9,0,0,0,50.24-154.76,229.69,229.69,0,0,1,10.72,122.41C718.34,706.31,773.06,617.62,779.89,524,780.61,514.93,780.93,505.78,780.82,496.69Zm-333.7,57A346.86,346.86,0,0,0,324.28,500l-.13.05V500a349.4,349.4,0,0,0-87.68-7.87c.18-6,.53-11.93,1.09-17.8s1.27-11.76,2.19-17.55v0C255.37,349.43,340,255.28,447.12,233.85Z"/></g></svg>