<svg width="570" height="35" viewBox="0 0 570 35" fill="none" xmlns="http://www.w3.org/2000/svg">
<path opacity="0.5" d="M1.773 18C1.773 17.28 1.773 16.587 1.773 15.921C1.773 15.255 1.773 14.529 1.773 13.743V9.45C1.773 8.652 1.773 7.92 1.773 7.254C1.773 6.582 1.773 5.886 1.773 5.166H2.943C3.753 6.3 4.533 7.398 5.283 8.46C6.039 9.522 6.786 10.569 7.524 11.601L10.494 15.768H10.602V9.45C10.602 8.652 10.602 7.92 10.602 7.254C10.602 6.582 10.602 5.886 10.602 5.166H11.817C11.817 5.886 11.817 6.582 11.817 7.254C11.817 7.92 11.817 8.652 11.817 9.45V13.743C11.817 14.529 11.817 15.255 11.817 15.921C11.817 16.587 11.817 17.28 11.817 18H10.674C10.002 17.052 9.291 16.053 8.541 15.003C7.797 13.953 6.975 12.798 6.075 11.538L3.096 7.344H2.988V13.743C2.988 14.529 2.988 15.255 2.988 15.921C2.988 16.587 2.988 17.28 2.988 18H1.773ZM14.1549 18C14.4129 17.304 14.6829 16.578 14.9649 15.822C15.2469 15.06 15.5169 14.334 15.7749 13.644L17.4039 9.243C17.6979 8.457 17.9619 7.743 18.1959 7.101C18.4359 6.459 18.6759 5.814 18.9159 5.166H20.6079C20.8479 5.826 21.0849 6.474 21.3189 7.11C21.5529 7.746 21.8139 8.46 22.1019 9.252L23.7219 13.671C23.9799 14.379 24.2469 15.108 24.5229 15.858C24.7989 16.602 25.0599 17.316 25.3059 18H23.9919C23.7159 17.232 23.4309 16.443 23.1369 15.633C22.8489 14.817 22.5759 14.046 22.3179 13.32L19.8249 6.354H19.6809L17.1699 13.257C16.8999 14.007 16.6149 14.793 16.3149 15.615C16.0209 16.431 15.7329 17.226 15.4509 18H14.1549ZM16.3419 14.625L16.4319 13.599H23.1459L23.2179 14.625H16.3419ZM27.162 18C27.252 17.298 27.339 16.608 27.423 15.93C27.507 15.246 27.597 14.505 27.693 13.707L28.224 9.486C28.326 8.7 28.416 7.971 28.494 7.299C28.578 6.627 28.668 5.916 28.764 5.166H30.033C30.435 6.126 30.819 7.056 31.185 7.956C31.557 8.856 31.926 9.75 32.292 10.638L34.461 15.912H34.569L36.729 10.638C37.095 9.744 37.461 8.85 37.827 7.956C38.193 7.062 38.574 6.132 38.97 5.166H40.239C40.329 5.904 40.413 6.612 40.491 7.29C40.575 7.962 40.665 8.694 40.761 9.486L41.283 13.743C41.379 14.523 41.466 15.249 41.544 15.921C41.628 16.587 41.712 17.28 41.796 18H40.59C40.44 16.794 40.299 15.651 40.167 14.571C40.041 13.485 39.921 12.471 39.807 11.529L39.312 7.479H39.213L37.449 11.844C37.017 12.906 36.585 13.968 36.153 15.03C35.727 16.092 35.328 17.082 34.956 18H34.083C33.849 17.424 33.591 16.794 33.309 16.11C33.027 15.42 32.736 14.712 32.436 13.986C32.142 13.26 31.851 12.555 31.563 11.871L29.763 7.479H29.664L29.178 11.529C29.064 12.465 28.941 13.479 28.809 14.571C28.677 15.657 28.539 16.8 28.395 18H27.162ZM44.857 18C44.857 17.28 44.857 16.587 44.857 15.921C44.857 15.255 44.857 14.529 44.857 13.743V9.45C44.857 8.652 44.857 7.92 44.857 7.254C44.857 6.582 44.857 5.886 44.857 5.166H52.678V6.273C52.066 6.273 51.409 6.273 50.707 6.273C50.005 6.273 49.18 6.273 48.232 6.273H45.415L46.099 5.337C46.099 6.057 46.099 6.753 46.099 7.425C46.099 8.097 46.099 8.829 46.099 9.621V13.563C46.099 14.343 46.099 15.066 46.099 15.732C46.099 16.398 46.099 17.091 46.099 17.811L45.469 16.893H48.34C49.15 16.893 49.912 16.893 50.626 16.893C51.34 16.893 52.027 16.893 52.687 16.893V18H44.857ZM45.829 12.024V10.953H48.367C49.207 10.953 49.93 10.953 50.536 10.953C51.148 10.953 51.736 10.953 52.3 10.953V12.024C51.706 12.024 51.103 12.024 50.491 12.024C49.885 12.024 49.171 12.024 48.349 12.024H45.829Z" fill="#F20D0D"/>
<rect opacity="0.4" y="34" width="570" height="1" fill="#FAFAFA"/>
</svg>
