<svg width="52" height="35" viewBox="0 0 52 35" fill="none" xmlns="http://www.w3.org/2000/svg">
<rect x="0.5" y="0.5" width="51" height="34" rx="17" stroke="#121212"/>
<path d="M33.5133 17.8947C32.71 18.2787 31.9764 18.7932 31.3437 19.4176C30.6009 20.1507 30.0117 21.021 29.6097 21.9788C29.2077 22.9367 29.0008 23.9633 29.0008 25H29.8007C29.8007 24.0669 29.9869 23.143 30.3487 22.2809C30.7105 21.4189 31.2408 20.6356 31.9093 19.9758C32.5778 19.3161 33.3715 18.7927 34.2449 18.4356C35.1184 18.0785 36.0546 17.8948 37 17.8948V17.1053C36.0546 17.1053 35.1184 16.9215 34.2449 16.5644C33.3715 16.2073 32.5778 15.6839 31.9093 15.0242C31.2408 14.3644 30.7105 13.5811 30.3487 12.7191C29.9869 11.857 29.8007 10.9331 29.8007 10H29.0008C29.0008 11.0367 29.2077 12.0633 29.6097 13.0212C30.0117 13.979 30.6009 14.8493 31.3437 15.5824C31.9764 16.2068 32.7099 16.7213 33.5132 17.1052H15V17.8947H33.5133Z" fill="#121212"/>
</svg>
