<svg width="61" height="102" viewBox="0 0 61 102" fill="none" xmlns="http://www.w3.org/2000/svg">
<g clip-path="url(#clip0_312_1213)">
<path d="M1.85 20C1.85 19.2067 1.85 18.4433 1.85 17.71C1.85 16.9767 1.85 16.17 1.85 15.29V10.5C1.85 9.61333 1.85 8.79667 1.85 8.05C1.85 7.30333 1.85 6.53333 1.85 5.74H10.71V7.29C10.0433 7.29 9.32667 7.29 8.56 7.29C7.8 7.29 6.9 7.29 5.86 7.29H2.62L3.62 6C3.62 6.8 3.62 7.57333 3.62 8.32C3.62 9.06 3.62 9.87333 3.62 10.76V15.02C3.62 15.8933 3.62 16.7 3.62 17.44C3.62 18.1733 3.62 18.9367 3.62 19.73L2.72 18.45H6.02C6.89333 18.45 7.71667 18.45 8.49 18.45C9.27 18.45 10.0167 18.45 10.73 18.45V20H1.85ZM3.23 13.53V12.02H6C6.92 12.02 7.71333 12.02 8.38 12.02C9.04667 12.02 9.69 12.02 10.31 12.02V13.53C9.65667 13.53 8.99667 13.53 8.33 13.53C7.67 13.53 6.89 13.53 5.99 13.53H3.23ZM14.725 20C14.725 19.2067 14.725 18.4433 14.725 17.71C14.725 16.9767 14.725 16.17 14.725 15.29V10.51C14.725 9.61 14.725 8.79 14.725 8.05C14.725 7.30333 14.725 6.53333 14.725 5.74H16.355C17.2083 6.94 18.0283 8.09667 18.815 9.21C19.6017 10.3233 20.3783 11.42 21.145 12.5L24.235 16.86H24.385V10.51C24.385 9.61 24.385 8.79 24.385 8.05C24.385 7.30333 24.385 6.53333 24.385 5.74H26.105C26.105 6.53333 26.105 7.30333 26.105 8.05C26.105 8.79 26.105 9.61 26.105 10.51V15.29C26.105 16.17 26.105 16.9767 26.105 17.71C26.105 18.4433 26.105 19.2067 26.105 20H24.495C23.7883 19 23.045 17.95 22.265 16.85C21.485 15.7433 20.6283 14.53 19.695 13.21L16.585 8.82H16.445V15.29C16.445 16.17 16.445 16.9767 16.445 17.71C16.445 18.4433 16.445 19.2067 16.445 20H14.725Z" fill="white"/>
<path d="M33.8992 14.8603C33.6935 15.0465 33.36 15.0465 33.1543 14.8603C32.9486 14.674 32.9486 14.3721 33.1543 14.1859L37.6236 10.1397C37.8293 9.95344 38.1628 9.95344 38.3685 10.1397C38.5742 10.3259 38.5742 10.6278 38.3685 10.814L33.8992 14.8603Z" fill="#FAFAFA"/>
<path d="M42.8457 14.186C43.0514 14.3722 43.0514 14.6741 42.8457 14.8603C42.64 15.0466 42.3065 15.0466 42.1008 14.8603L37.6315 10.8141C37.4258 10.6279 37.4258 10.326 37.6315 10.1397C37.8372 9.95352 38.1707 9.95352 38.3764 10.1397L42.8457 14.186Z" fill="#FAFAFA"/>
<path d="M1.85 64C1.85 63.2067 1.85 62.4433 1.85 61.71C1.85 60.9767 1.85 60.17 1.85 59.29V54.5C1.85 53.6133 1.85 52.7967 1.85 52.05C1.85 51.3033 1.85 50.5333 1.85 49.74C2.23 49.74 2.66667 49.74 3.16 49.74C3.66 49.74 4.20333 49.74 4.79 49.74C5.38333 49.74 6.01 49.74 6.67 49.74C7.75667 49.74 8.66 49.87 9.38 50.13C10.1067 50.3833 10.65 50.7933 11.01 51.36C11.3767 51.9267 11.56 52.6733 11.56 53.6C11.56 54.38 11.4067 55.0933 11.1 55.74C10.8 56.3867 10.2967 56.9067 9.59 57.3C8.88333 57.6867 7.92667 57.8833 6.72 57.89L7.29 57.1L9.54 59.91C9.89333 60.3433 10.2667 60.8067 10.66 61.3C11.0533 61.7933 11.4367 62.2767 11.81 62.75C12.1833 63.2167 12.5167 63.6333 12.81 64H10.69C10.2167 63.4 9.76 62.82 9.32 62.26C8.88667 61.7 8.45667 61.1533 8.03 60.62L5.47 57.32L6.58 58.21H3.31V56.72H6.02C6.85333 56.72 7.54 56.6233 8.08 56.43C8.62 56.2367 9.02333 55.9267 9.29 55.5C9.55667 55.0667 9.69 54.4933 9.69 53.78C9.69 53.1867 9.59333 52.72 9.4 52.38C9.21333 52.0333 8.96333 51.78 8.65 51.62C8.34333 51.46 8.01 51.3567 7.65 51.31C7.29 51.2633 6.94333 51.24 6.61 51.24H2.41L3.62 50C3.62 50.82 3.62 51.6 3.62 52.34C3.62 53.08 3.62 53.8867 3.62 54.76V59.29C3.62 60.17 3.62 60.9767 3.62 61.71C3.62 62.4433 3.62 63.2067 3.62 64H1.85ZM21.3178 64.22C19.9911 64.22 18.9111 63.9933 18.0778 63.54C17.2511 63.08 16.6411 62.4367 16.2478 61.61C15.8611 60.7767 15.6678 59.8067 15.6678 58.7C15.6678 58.42 15.6678 58.06 15.6678 57.62C15.6678 57.1733 15.6678 56.68 15.6678 56.14C15.6678 55.6 15.6678 55.0567 15.6678 54.51C15.6678 53.61 15.6678 52.79 15.6678 52.05C15.6678 51.3033 15.6678 50.5333 15.6678 49.74H17.4678C17.4678 50.5333 17.4678 51.3033 17.4678 52.05C17.4678 52.79 17.4678 53.61 17.4678 54.51V58.52C17.4678 59.38 17.5945 60.12 17.8478 60.74C18.1011 61.36 18.5078 61.8367 19.0678 62.17C19.6345 62.4967 20.3845 62.66 21.3178 62.66C22.2578 62.66 23.0045 62.4967 23.5578 62.17C24.1178 61.8367 24.5211 61.36 24.7678 60.74C25.0145 60.12 25.1378 59.3733 25.1378 58.5V54.51C25.1378 53.61 25.1378 52.79 25.1378 52.05C25.1378 51.3033 25.1378 50.5333 25.1378 49.74H26.9378C26.9378 50.5333 26.9378 51.3033 26.9378 52.05C26.9378 52.79 26.9378 53.61 26.9378 54.51C26.9378 55.0567 26.9378 55.6033 26.9378 56.15C26.9378 56.69 26.9378 57.1833 26.9378 57.63C26.9378 58.0767 26.9378 58.4333 26.9378 58.7C26.9378 59.8067 26.7411 60.7767 26.3478 61.61C25.9545 62.4367 25.3445 63.08 24.5178 63.54C23.6911 63.9933 22.6245 64.22 21.3178 64.22Z" fill="white" fill-opacity="0.6"/>
<path d="M1.92 84.78H18.04V94.2H16.48V86.26H3.42V94.3H1.92V84.78ZM2.72 91.58H17.38V93.04H2.72V91.58ZM9.16 81.2H10.72V99.58H9.16V81.2ZM21.59 98C21.9033 97.2533 22.2067 96.5333 22.5 95.84C22.8 95.1467 23.1467 94.3467 23.54 93.44L25.65 88.48C26.0567 87.5333 26.4133 86.7 26.72 85.98C27.0333 85.2533 27.3533 84.5067 27.68 83.74H29.32C29.1 84.2533 28.8867 84.7533 28.68 85.24C28.4733 85.7267 28.2567 86.2333 28.03 86.76C27.8033 87.2867 27.55 87.8733 27.27 88.52L25.17 93.44C24.7833 94.3467 24.44 95.15 24.14 95.85C23.8467 96.55 23.5433 97.2667 23.23 98H21.59ZM31.8663 98V96.96C32.2396 96.4667 32.6596 95.9133 33.1263 95.3C33.5996 94.6867 34.0729 94.07 34.5463 93.45C35.0263 92.83 35.4663 92.26 35.8663 91.74L41.2963 84.65L41.7163 85.29H37.6463C36.8063 85.29 35.9129 85.29 34.9663 85.29C34.0263 85.29 33.0463 85.29 32.0263 85.29V83.74H43.2163V85.04C42.5896 85.8467 41.9763 86.64 41.3763 87.42C40.7829 88.2 40.1863 88.98 39.5863 89.76L33.8563 97.21L33.5863 96.45H37.3063C37.8996 96.45 38.5596 96.45 39.2863 96.45C40.0129 96.45 40.7263 96.45 41.4263 96.45C42.1329 96.45 42.7563 96.45 43.2963 96.45V98H31.8663ZM56.6738 98C56.6738 97.2067 56.6738 96.4433 56.6738 95.71C56.6738 94.9767 56.6738 94.17 56.6738 93.29V88.51C56.6738 87.61 56.6738 86.79 56.6738 86.05C56.6738 85.3033 56.6738 84.5333 56.6738 83.74H58.4838C58.4838 84.5333 58.4838 85.3033 58.4838 86.05C58.4838 86.79 58.4838 87.61 58.4838 88.51V93.29C58.4838 94.17 58.4838 94.9767 58.4838 95.71C58.4838 96.4433 58.4838 97.2067 58.4838 98H56.6738ZM47.1938 98C47.1938 97.2067 47.1938 96.4433 47.1938 95.71C47.1938 94.9767 47.1938 94.17 47.1938 93.29V88.51C47.1938 87.61 47.1938 86.79 47.1938 86.05C47.1938 85.3033 47.1938 84.5333 47.1938 83.74H49.0038C49.0038 84.5333 49.0038 85.3033 49.0038 86.05C49.0038 86.79 49.0038 87.61 49.0038 88.51V93.29C49.0038 94.17 49.0038 94.9767 49.0038 95.71C49.0038 96.4433 49.0038 97.2067 49.0038 98H47.1938ZM48.3738 91.56V90H57.3638V91.56H48.3738Z" fill="white" fill-opacity="0.6"/>
</g>
<defs>
<clipPath id="clip0_312_1213">
<rect width="61" height="102" fill="white"/>
</clipPath>
</defs>
</svg>
