<svg width="35" height="24" viewBox="0 0 35 24" fill="none" xmlns="http://www.w3.org/2000/svg">
<g opacity="0.5">
<path d="M29.453 12.6315C28.175 13.2459 27.0079 14.0691 26.0013 15.0682C24.8196 16.2411 23.8822 17.6336 23.2427 19.1661C22.6031 20.6987 22.2739 22.3412 22.2739 24H23.5465C23.5465 22.5071 23.8428 21.0288 24.4184 19.6495C24.994 18.2702 25.8376 17.017 26.9012 15.9613C27.9647 14.9057 29.2274 14.0683 30.617 13.497C32.0065 12.9257 33.4959 12.6316 35 12.6316V11.3685C33.4959 11.3685 32.0065 11.0743 30.617 10.503C29.2274 9.9317 27.9647 9.09431 26.9012 8.03866C25.8376 6.98301 24.994 5.72977 24.4184 4.35049C23.8428 2.97122 23.5465 1.49292 23.5465 0L22.2739 0C22.2739 1.6588 22.6031 3.30135 23.2427 4.83388C23.8822 6.36641 24.8196 7.7589 26.0013 8.93184C27.0079 9.93091 28.1749 10.754 29.4529 11.3684L0 11.3684L0 12.6315L29.453 12.6315Z" fill="#121212"/>
</g>
</svg>
