<svg width="61" height="102" viewBox="0 0 61 102" fill="none" xmlns="http://www.w3.org/2000/svg">
<g clip-path="url(#clip0_327_2555)">
<path d="M1.92 6.78H18.04V16.2H16.48V8.26H3.42V16.3H1.92V6.78ZM2.72 13.58H17.38V15.04H2.72V13.58ZM9.16 3.2H10.72V21.58H9.16V3.2ZM21.59 20C21.9033 19.2533 22.2067 18.5333 22.5 17.84C22.8 17.1467 23.1467 16.3467 23.54 15.44L25.65 10.48C26.0567 9.53333 26.4133 8.7 26.72 7.98C27.0333 7.25333 27.3533 6.50667 27.68 5.74H29.32C29.1 6.25333 28.8867 6.75333 28.68 7.24C28.4733 7.72667 28.2567 8.23333 28.03 8.76C27.8033 9.28667 27.55 9.87333 27.27 10.52L25.17 15.44C24.7833 16.3467 24.44 17.15 24.14 17.85C23.8467 18.55 23.5433 19.2667 23.23 20H21.59ZM31.8663 20V18.96C32.2396 18.4667 32.6596 17.9133 33.1263 17.3C33.5996 16.6867 34.0729 16.07 34.5463 15.45C35.0263 14.83 35.4663 14.26 35.8663 13.74L41.2963 6.65L41.7163 7.29H37.6463C36.8063 7.29 35.9129 7.29 34.9663 7.29C34.0263 7.29 33.0463 7.29 32.0263 7.29V5.74H43.2163V7.04C42.5896 7.84667 41.9763 8.64 41.3763 9.42C40.7829 10.2 40.1863 10.98 39.5863 11.76L33.8563 19.21L33.5863 18.45H37.3063C37.8996 18.45 38.5596 18.45 39.2863 18.45C40.0129 18.45 40.7263 18.45 41.4263 18.45C42.1329 18.45 42.7563 18.45 43.2963 18.45V20H31.8663ZM56.6738 20C56.6738 19.2067 56.6738 18.4433 56.6738 17.71C56.6738 16.9767 56.6738 16.17 56.6738 15.29V10.51C56.6738 9.61 56.6738 8.79 56.6738 8.05C56.6738 7.30333 56.6738 6.53333 56.6738 5.74H58.4838C58.4838 6.53333 58.4838 7.30333 58.4838 8.05C58.4838 8.79 58.4838 9.61 58.4838 10.51V15.29C58.4838 16.17 58.4838 16.9767 58.4838 17.71C58.4838 18.4433 58.4838 19.2067 58.4838 20H56.6738ZM47.1938 20C47.1938 19.2067 47.1938 18.4433 47.1938 17.71C47.1938 16.9767 47.1938 16.17 47.1938 15.29V10.51C47.1938 9.61 47.1938 8.79 47.1938 8.05C47.1938 7.30333 47.1938 6.53333 47.1938 5.74H49.0038C49.0038 6.53333 49.0038 7.30333 49.0038 8.05C49.0038 8.79 49.0038 9.61 49.0038 10.51V15.29C49.0038 16.17 49.0038 16.9767 49.0038 17.71C49.0038 18.4433 49.0038 19.2067 49.0038 20H47.1938ZM48.3738 13.56V12H57.3638V13.56H48.3738Z" fill="white" fill-opacity="0.6"/>
<path d="M1.85 54C1.85 53.2067 1.85 52.4433 1.85 51.71C1.85 50.9767 1.85 50.17 1.85 49.29V44.5C1.85 43.6133 1.85 42.7967 1.85 42.05C1.85 41.3033 1.85 40.5333 1.85 39.74C2.23 39.74 2.66667 39.74 3.16 39.74C3.66 39.74 4.20333 39.74 4.79 39.74C5.38333 39.74 6.01 39.74 6.67 39.74C7.75667 39.74 8.66 39.87 9.38 40.13C10.1067 40.3833 10.65 40.7933 11.01 41.36C11.3767 41.9267 11.56 42.6733 11.56 43.6C11.56 44.38 11.4067 45.0933 11.1 45.74C10.8 46.3867 10.2967 46.9067 9.59 47.3C8.88333 47.6867 7.92667 47.8833 6.72 47.89L7.29 47.1L9.54 49.91C9.89333 50.3433 10.2667 50.8067 10.66 51.3C11.0533 51.7933 11.4367 52.2767 11.81 52.75C12.1833 53.2167 12.5167 53.6333 12.81 54H10.69C10.2167 53.4 9.76 52.82 9.32 52.26C8.88667 51.7 8.45667 51.1533 8.03 50.62L5.47 47.32L6.58 48.21H3.31V46.72H6.02C6.85333 46.72 7.54 46.6233 8.08 46.43C8.62 46.2367 9.02333 45.9267 9.29 45.5C9.55667 45.0667 9.69 44.4933 9.69 43.78C9.69 43.1867 9.59333 42.72 9.4 42.38C9.21333 42.0333 8.96333 41.78 8.65 41.62C8.34333 41.46 8.01 41.3567 7.65 41.31C7.29 41.2633 6.94333 41.24 6.61 41.24H2.41L3.62 40C3.62 40.82 3.62 41.6 3.62 42.34C3.62 43.08 3.62 43.8867 3.62 44.76V49.29C3.62 50.17 3.62 50.9767 3.62 51.71C3.62 52.4433 3.62 53.2067 3.62 54H1.85ZM21.3178 54.22C19.9911 54.22 18.9111 53.9933 18.0778 53.54C17.2511 53.08 16.6411 52.4367 16.2478 51.61C15.8611 50.7767 15.6678 49.8067 15.6678 48.7C15.6678 48.42 15.6678 48.06 15.6678 47.62C15.6678 47.1733 15.6678 46.68 15.6678 46.14C15.6678 45.6 15.6678 45.0567 15.6678 44.51C15.6678 43.61 15.6678 42.79 15.6678 42.05C15.6678 41.3033 15.6678 40.5333 15.6678 39.74H17.4678C17.4678 40.5333 17.4678 41.3033 17.4678 42.05C17.4678 42.79 17.4678 43.61 17.4678 44.51V48.52C17.4678 49.38 17.5945 50.12 17.8478 50.74C18.1011 51.36 18.5078 51.8367 19.0678 52.17C19.6345 52.4967 20.3845 52.66 21.3178 52.66C22.2578 52.66 23.0045 52.4967 23.5578 52.17C24.1178 51.8367 24.5211 51.36 24.7678 50.74C25.0145 50.12 25.1378 49.3733 25.1378 48.5V44.51C25.1378 43.61 25.1378 42.79 25.1378 42.05C25.1378 41.3033 25.1378 40.5333 25.1378 39.74H26.9378C26.9378 40.5333 26.9378 41.3033 26.9378 42.05C26.9378 42.79 26.9378 43.61 26.9378 44.51C26.9378 45.0567 26.9378 45.6033 26.9378 46.15C26.9378 46.69 26.9378 47.1833 26.9378 47.63C26.9378 48.0767 26.9378 48.4333 26.9378 48.7C26.9378 49.8067 26.7411 50.7767 26.3478 51.61C25.9545 52.4367 25.3445 53.08 24.5178 53.54C23.6911 53.9933 22.6245 54.22 21.3178 54.22Z" fill="white" fill-opacity="0.6"/>
<path d="M1.85 98C1.85 97.2067 1.85 96.4433 1.85 95.71C1.85 94.9767 1.85 94.17 1.85 93.29V88.5C1.85 87.6133 1.85 86.7967 1.85 86.05C1.85 85.3033 1.85 84.5333 1.85 83.74H10.71V85.29C10.0433 85.29 9.32667 85.29 8.56 85.29C7.8 85.29 6.9 85.29 5.86 85.29H2.62L3.62 84C3.62 84.8 3.62 85.5733 3.62 86.32C3.62 87.06 3.62 87.8733 3.62 88.76V93.02C3.62 93.8933 3.62 94.7 3.62 95.44C3.62 96.1733 3.62 96.9367 3.62 97.73L2.72 96.45H6.02C6.89333 96.45 7.71667 96.45 8.49 96.45C9.27 96.45 10.0167 96.45 10.73 96.45V98H1.85ZM3.23 91.53V90.02H6C6.92 90.02 7.71333 90.02 8.38 90.02C9.04667 90.02 9.69 90.02 10.31 90.02V91.53C9.65667 91.53 8.99667 91.53 8.33 91.53C7.67 91.53 6.89 91.53 5.99 91.53H3.23ZM14.725 98C14.725 97.2067 14.725 96.4433 14.725 95.71C14.725 94.9767 14.725 94.17 14.725 93.29V88.51C14.725 87.61 14.725 86.79 14.725 86.05C14.725 85.3033 14.725 84.5333 14.725 83.74H16.355C17.2083 84.94 18.0283 86.0967 18.815 87.21C19.6017 88.3233 20.3783 89.42 21.145 90.5L24.235 94.86H24.385V88.51C24.385 87.61 24.385 86.79 24.385 86.05C24.385 85.3033 24.385 84.5333 24.385 83.74H26.105C26.105 84.5333 26.105 85.3033 26.105 86.05C26.105 86.79 26.105 87.61 26.105 88.51V93.29C26.105 94.17 26.105 94.9767 26.105 95.71C26.105 96.4433 26.105 97.2067 26.105 98H24.495C23.7883 97 23.045 95.95 22.265 94.85C21.485 93.7433 20.6283 92.53 19.695 91.21L16.585 86.82H16.445V93.29C16.445 94.17 16.445 94.9767 16.445 95.71C16.445 96.4433 16.445 97.2067 16.445 98H14.725Z" fill="white"/>
<path d="M33.8992 92.8603C33.6935 93.0465 33.36 93.0465 33.1543 92.8603C32.9486 92.674 32.9486 92.3721 33.1543 92.1859L37.6236 88.1397C37.8293 87.9534 38.1628 87.9534 38.3685 88.1397C38.5742 88.3259 38.5742 88.6278 38.3685 88.814L33.8992 92.8603Z" fill="#FAFAFA"/>
<path d="M42.8457 92.186C43.0514 92.3722 43.0514 92.6741 42.8457 92.8603C42.64 93.0466 42.3065 93.0466 42.1008 92.8603L37.6315 88.8141C37.4258 88.6279 37.4258 88.326 37.6315 88.1397C37.8372 87.9535 38.1707 87.9535 38.3764 88.1397L42.8457 92.186Z" fill="#FAFAFA"/>
</g>
<defs>
<clipPath id="clip0_327_2555">
<rect width="61" height="102" fill="white"/>
</clipPath>
</defs>
</svg>
