<svg width="244" height="44" viewBox="0 0 244 44" fill="none" xmlns="http://www.w3.org/2000/svg">
<rect x="0.5" y="0.5" width="243" height="43" rx="21.5" stroke="#121212"/>
<g clip-path="url(#clip0_290_1004)">
<path d="M26.85 30C26.85 29.2067 26.85 28.4433 26.85 27.71C26.85 26.9767 26.85 26.17 26.85 25.29V20.51C26.85 19.61 26.85 18.79 26.85 18.05C26.85 17.3033 26.85 16.5333 26.85 15.74H28.66C28.66 16.5333 28.66 17.3033 28.66 18.05C28.66 18.79 28.66 19.61 28.66 20.51V25.01C28.66 25.89 28.66 26.6967 28.66 27.43C28.66 28.1633 28.66 28.9267 28.66 29.72L27.98 28.39H30.6C31.36 28.39 32.03 28.39 32.61 28.39C33.1967 28.39 33.7367 28.39 34.23 28.39C34.73 28.39 35.24 28.39 35.76 28.39V30H26.85ZM39.2953 30C39.2953 29.2067 39.2953 28.4433 39.2953 27.71C39.2953 26.9767 39.2953 26.17 39.2953 25.29V20.5C39.2953 19.6133 39.2953 18.7967 39.2953 18.05C39.2953 17.3033 39.2953 16.5333 39.2953 15.74H48.1553V17.29C47.4886 17.29 46.772 17.29 46.0053 17.29C45.2453 17.29 44.3453 17.29 43.3053 17.29H40.0653L41.0653 16C41.0653 16.8 41.0653 17.5733 41.0653 18.32C41.0653 19.06 41.0653 19.8733 41.0653 20.76V25.02C41.0653 25.8933 41.0653 26.7 41.0653 27.44C41.0653 28.1733 41.0653 28.9367 41.0653 29.73L40.1653 28.45H43.4653C44.3386 28.45 45.162 28.45 45.9353 28.45C46.7153 28.45 47.462 28.45 48.1753 28.45V30H39.2953ZM40.6753 23.53V22.02H43.4453C44.3653 22.02 45.1586 22.02 45.8253 22.02C46.492 22.02 47.1353 22.02 47.7553 22.02V23.53C47.102 23.53 46.442 23.53 45.7753 23.53C45.1153 23.53 44.3353 23.53 43.4353 23.53H40.6753ZM50.9103 30C51.1903 29.2333 51.4803 28.4267 51.7803 27.58C52.087 26.7333 52.3803 25.93 52.6603 25.17L54.4303 20.27C54.7436 19.39 55.0303 18.5967 55.2903 17.89C55.5503 17.1767 55.8103 16.46 56.0703 15.74H58.4503C58.7103 16.4733 58.967 17.1933 59.2203 17.9C59.4736 18.6067 59.757 19.4 60.0703 20.28L61.8303 25.19C62.1103 25.9767 62.397 26.7867 62.6903 27.62C62.9903 28.4467 63.277 29.24 63.5503 30H61.6703C61.3836 29.1667 61.087 28.31 60.7803 27.43C60.4803 26.5433 60.197 25.71 59.9303 24.93L57.3303 17.37H57.1603L54.5403 24.86C54.2536 25.6733 53.957 26.5267 53.6503 27.42C53.3436 28.3067 53.0403 29.1667 52.7403 30H50.9103ZM53.5503 26.42L53.7103 25H60.9303L61.0603 26.42H53.5503ZM66.9789 30C66.9789 29.2067 66.9789 28.4433 66.9789 27.71C66.9789 26.9767 66.9789 26.17 66.9789 25.29V20.5C66.9789 19.6133 66.9789 18.7967 66.9789 18.05C66.9789 17.3033 66.9789 16.5333 66.9789 15.74C67.3589 15.74 67.7956 15.74 68.2889 15.74C68.7889 15.74 69.3322 15.74 69.9189 15.74C70.5122 15.74 71.1389 15.74 71.7989 15.74C72.8856 15.74 73.7889 15.87 74.5089 16.13C75.2356 16.3833 75.7789 16.7933 76.1389 17.36C76.5056 17.9267 76.6889 18.6733 76.6889 19.6C76.6889 20.38 76.5356 21.0933 76.2289 21.74C75.9289 22.3867 75.4256 22.9067 74.7189 23.3C74.0122 23.6867 73.0556 23.8833 71.8489 23.89L72.4189 23.1L74.6689 25.91C75.0222 26.3433 75.3956 26.8067 75.7889 27.3C76.1822 27.7933 76.5656 28.2767 76.9389 28.75C77.3122 29.2167 77.6456 29.6333 77.9389 30H75.8189C75.3456 29.4 74.8889 28.82 74.4489 28.26C74.0156 27.7 73.5856 27.1533 73.1589 26.62L70.5989 23.32L71.7089 24.21H68.4389V22.72H71.1489C71.9822 22.72 72.6689 22.6233 73.2089 22.43C73.7489 22.2367 74.1522 21.9267 74.4189 21.5C74.6856 21.0667 74.8189 20.4933 74.8189 19.78C74.8189 19.1867 74.7222 18.72 74.5289 18.38C74.3422 18.0333 74.0922 17.78 73.7789 17.62C73.4722 17.46 73.1389 17.3567 72.7789 17.31C72.4189 17.2633 72.0722 17.24 71.7389 17.24H67.5389L68.7489 16C68.7489 16.82 68.7489 17.6 68.7489 18.34C68.7489 19.08 68.7489 19.8867 68.7489 20.76V25.29C68.7489 26.17 68.7489 26.9767 68.7489 27.71C68.7489 28.4433 68.7489 29.2067 68.7489 30H66.9789ZM81.3773 30C81.3773 29.2067 81.3773 28.4433 81.3773 27.71C81.3773 26.9767 81.3773 26.17 81.3773 25.29V20.51C81.3773 19.61 81.3773 18.79 81.3773 18.05C81.3773 17.3033 81.3773 16.5333 81.3773 15.74H83.0073C83.8607 16.94 84.6807 18.0967 85.4673 19.21C86.254 20.3233 87.0307 21.42 87.7973 22.5L90.8873 26.86H91.0373V20.51C91.0373 19.61 91.0373 18.79 91.0373 18.05C91.0373 17.3033 91.0373 16.5333 91.0373 15.74H92.7573C92.7573 16.5333 92.7573 17.3033 92.7573 18.05C92.7573 18.79 92.7573 19.61 92.7573 20.51V25.29C92.7573 26.17 92.7573 26.9767 92.7573 27.71C92.7573 28.4433 92.7573 29.2067 92.7573 30H91.1473C90.4407 29 89.6973 27.95 88.9173 26.85C88.1373 25.7433 87.2807 24.53 86.3473 23.21L83.2373 18.82H83.0973V25.29C83.0973 26.17 83.0973 26.9767 83.0973 27.71C83.0973 28.4433 83.0973 29.2067 83.0973 30H81.3773ZM101.774 30C101.867 29.2267 101.96 28.4633 102.054 27.71C102.154 26.9567 102.257 26.1367 102.364 25.25L102.954 20.55C103.06 19.6767 103.16 18.8633 103.254 18.11C103.347 17.3567 103.447 16.5667 103.554 15.74H105.374C105.787 16.7533 106.187 17.7333 106.574 18.68C106.96 19.62 107.344 20.5567 107.724 21.49L109.984 27.03H110.124L112.364 21.5C112.744 20.5533 113.124 19.6133 113.504 18.68C113.884 17.7467 114.277 16.7667 114.684 15.74H116.504C116.604 16.5533 116.697 17.3367 116.784 18.09C116.877 18.8433 116.98 19.66 117.094 20.54L117.674 25.29C117.78 26.1567 117.88 26.9633 117.974 27.71C118.067 28.45 118.16 29.2133 118.254 30H116.524C116.37 28.7333 116.224 27.53 116.084 26.39C115.944 25.25 115.814 24.1867 115.694 23.2L115.174 18.94H115.044L113.234 23.53C112.794 24.6433 112.354 25.76 111.914 26.88C111.474 27.9933 111.064 29.0333 110.684 30H109.454C109.214 29.3933 108.947 28.7267 108.654 28C108.36 27.2733 108.057 26.53 107.744 25.77C107.437 25.01 107.137 24.2733 106.844 23.56L104.974 18.94H104.844L104.324 23.19C104.204 24.1833 104.074 25.25 103.934 26.39C103.8 27.53 103.657 28.7333 103.504 30H101.774ZM128.443 30.22C127.236 30.22 126.18 30.0267 125.273 29.64C124.366 29.2467 123.61 28.71 123.003 28.03C122.403 27.3433 121.953 26.5567 121.653 25.67C121.353 24.7833 121.203 23.8467 121.203 22.86C121.203 21.4733 121.483 20.2233 122.043 19.11C122.61 17.9967 123.426 17.1133 124.493 16.46C125.56 15.8067 126.856 15.48 128.383 15.48C129.543 15.48 130.566 15.67 131.453 16.05C132.346 16.43 133.096 16.9567 133.703 17.63C134.31 18.3033 134.766 19.0867 135.073 19.98C135.38 20.8733 135.533 21.83 135.533 22.85C135.533 24.2567 135.253 25.5167 134.693 26.63C134.133 27.7367 133.323 28.6133 132.263 29.26C131.203 29.9 129.93 30.22 128.443 30.22ZM128.393 28.66C129.306 28.66 130.093 28.5033 130.753 28.19C131.413 27.87 131.956 27.4367 132.383 26.89C132.816 26.3433 133.136 25.7233 133.343 25.03C133.55 24.33 133.653 23.6033 133.653 22.85C133.653 22.0367 133.54 21.28 133.313 20.58C133.093 19.8733 132.76 19.2567 132.313 18.73C131.873 18.1967 131.326 17.7833 130.673 17.49C130.02 17.19 129.26 17.04 128.393 17.04C127.5 17.04 126.72 17.1967 126.053 17.51C125.393 17.8233 124.843 18.2533 124.403 18.8C123.963 19.34 123.633 19.96 123.413 20.66C123.193 21.3533 123.083 22.0833 123.083 22.85C123.083 23.6233 123.19 24.3567 123.403 25.05C123.616 25.7433 123.94 26.3633 124.373 26.91C124.813 27.45 125.366 27.8767 126.033 28.19C126.7 28.5033 127.486 28.66 128.393 28.66ZM139.401 30C139.401 29.2067 139.401 28.4433 139.401 27.71C139.401 26.9767 139.401 26.17 139.401 25.29V20.5C139.401 19.6133 139.401 18.7967 139.401 18.05C139.401 17.3033 139.401 16.5333 139.401 15.74C139.781 15.74 140.217 15.74 140.711 15.74C141.211 15.74 141.754 15.74 142.341 15.74C142.934 15.74 143.561 15.74 144.221 15.74C145.307 15.74 146.211 15.87 146.931 16.13C147.657 16.3833 148.201 16.7933 148.561 17.36C148.927 17.9267 149.111 18.6733 149.111 19.6C149.111 20.38 148.957 21.0933 148.651 21.74C148.351 22.3867 147.847 22.9067 147.141 23.3C146.434 23.6867 145.477 23.8833 144.271 23.89L144.841 23.1L147.091 25.91C147.444 26.3433 147.817 26.8067 148.211 27.3C148.604 27.7933 148.987 28.2767 149.361 28.75C149.734 29.2167 150.067 29.6333 150.361 30H148.241C147.767 29.4 147.311 28.82 146.871 28.26C146.437 27.7 146.007 27.1533 145.581 26.62L143.021 23.32L144.131 24.21H140.861V22.72H143.571C144.404 22.72 145.091 22.6233 145.631 22.43C146.171 22.2367 146.574 21.9267 146.841 21.5C147.107 21.0667 147.241 20.4933 147.241 19.78C147.241 19.1867 147.144 18.72 146.951 18.38C146.764 18.0333 146.514 17.78 146.201 17.62C145.894 17.46 145.561 17.3567 145.201 17.31C144.841 17.2633 144.494 17.24 144.161 17.24H139.961L141.171 16C141.171 16.82 141.171 17.6 141.171 18.34C141.171 19.08 141.171 19.8867 141.171 20.76V25.29C141.171 26.17 141.171 26.9767 141.171 27.71C141.171 28.4433 141.171 29.2067 141.171 30H139.401ZM153.799 30C153.799 29.2067 153.799 28.4433 153.799 27.71C153.799 26.9767 153.799 26.17 153.799 25.29V20.5C153.799 19.6133 153.799 18.7967 153.799 18.05C153.799 17.3033 153.799 16.5333 153.799 15.74H162.659V17.29C161.993 17.29 161.276 17.29 160.509 17.29C159.749 17.29 158.849 17.29 157.809 17.29H154.569L155.569 16C155.569 16.8 155.569 17.5733 155.569 18.32C155.569 19.06 155.569 19.8733 155.569 20.76V25.02C155.569 25.8933 155.569 26.7 155.569 27.44C155.569 28.1733 155.569 28.9367 155.569 29.73L154.669 28.45H157.969C158.843 28.45 159.666 28.45 160.439 28.45C161.219 28.45 161.966 28.45 162.679 28.45V30H153.799ZM155.179 23.53V22.02H157.949C158.869 22.02 159.663 22.02 160.329 22.02C160.996 22.02 161.639 22.02 162.259 22.02V23.53C161.606 23.53 160.946 23.53 160.279 23.53C159.619 23.53 158.839 23.53 157.939 23.53H155.179Z" fill="#161616"/>
<path d="M213.452 22.6316C212.174 23.2459 211.007 24.0691 210 25.0681C208.818 26.2411 207.881 27.6336 207.241 29.1661C206.601 30.6986 206.272 32.3412 206.272 34H207.545C207.545 32.5071 207.841 31.0288 208.417 29.6495C208.993 28.2702 209.836 27.017 210.9 25.9613C211.964 24.9057 213.227 24.0683 214.616 23.497C216.006 22.9256 217.496 22.6316 219 22.6316V21.3684C217.496 21.3684 216.006 21.0744 214.616 20.5031C213.227 19.9317 211.964 19.0943 210.9 18.0387C209.836 16.983 208.993 15.7298 208.417 14.3505C207.841 12.9712 207.545 11.4929 207.545 10H206.272C206.272 11.6588 206.601 13.3014 207.241 14.8339C207.881 16.3664 208.818 17.7589 210 18.9319C211.007 19.9309 212.174 20.7541 213.452 21.3684H184V22.6316H213.452Z" fill="#121212"/>
</g>
<defs>
<clipPath id="clip0_290_1004">
<rect width="194" height="24" fill="white" transform="translate(25 10)"/>
</clipPath>
</defs>
</svg>
