<svg width="160" height="24" viewBox="0 0 160 24" fill="none" xmlns="http://www.w3.org/2000/svg">
<g opacity="0.4">
<rect x="34.5" y="23.5" width="34" height="23" rx="11.5" transform="rotate(-180 34.5 23.5)" stroke="#121212"/>
<path d="M26 11.5842L12.0926 11.5842C12.5859 11.2992 13.04 10.9468 13.4423 10.5359C14.0254 9.94001 14.4879 9.23275 14.8034 8.45451C15.1189 7.67627 15.2812 6.84224 15.2812 6L15.2812 5.9L15.1812 5.9L14.5631 5.9L14.4631 5.9L14.4631 6C14.4631 6.73362 14.3217 7.46001 14.047 8.13768C13.7722 8.81534 13.3696 9.43094 12.8622 9.94938C12.3548 10.4678 11.7526 10.879 11.0899 11.1594C10.4273 11.4399 9.71712 11.5842 9 11.5842L8.9 11.5842L8.9 11.6842L8.9 12.3158L8.9 12.4158L9 12.4158C9.71712 12.4158 10.4273 12.5601 11.0899 12.8406C11.7526 13.121 12.3548 13.5322 12.8622 14.0506C13.3696 14.5691 13.7722 15.1847 14.047 15.8623C14.3217 16.54 14.4631 17.2664 14.4631 18L14.4631 18.1L14.5631 18.1L15.1812 18.1L15.2812 18.1L15.2812 18C15.2812 17.1578 15.1189 16.3237 14.8034 15.5455C14.4879 14.7673 14.0254 14.06 13.4423 13.4641C13.0401 13.0532 12.5859 12.7008 12.0927 12.4158L26 12.4158L26.1 12.4158L26.1 12.3158L26.1 11.6842L26.1 11.5842L26 11.5842Z" fill="#121212" stroke="#121212" stroke-width="0.2"/>
</g>
<path d="M55.618 10.988L55.414 10.322C55.898 10.058 56.378 9.796 56.854 9.536C57.334 9.272 57.814 9.008 58.294 8.744L58.276 9.512C57.832 9.76 57.388 10.006 56.944 10.25C56.504 10.494 56.062 10.74 55.618 10.988ZM57.898 17C57.898 16.556 57.898 16.128 57.898 15.716C57.898 15.304 57.898 14.854 57.898 14.366V11.738C57.898 11.306 57.898 10.874 57.898 10.442C57.898 10.006 57.898 9.57 57.898 9.134L58.294 8.744L58.69 8.78C58.69 9.224 58.69 9.684 58.69 10.16C58.69 10.636 58.69 11.126 58.69 11.63V14.366C58.69 14.854 58.69 15.304 58.69 15.716C58.69 16.128 58.69 16.556 58.69 17H57.898Z" fill="black"/>
<path opacity="0.5" d="M76.6 17V16.412C76.852 16.188 77.104 15.966 77.356 15.746C77.612 15.522 77.866 15.3 78.118 15.08C78.71 14.56 79.218 14.074 79.642 13.622C80.066 13.166 80.39 12.726 80.614 12.302C80.838 11.878 80.95 11.452 80.95 11.024C80.95 10.468 80.8 10.05 80.5 9.77C80.2 9.49 79.744 9.35 79.132 9.35C78.94 9.35 78.742 9.368 78.538 9.404C78.334 9.44 78.126 9.492 77.914 9.56C77.706 9.624 77.496 9.708 77.284 9.812C77.076 9.916 76.868 10.038 76.66 10.178L76.564 9.362C76.74 9.262 76.932 9.168 77.14 9.08C77.352 8.988 77.574 8.91 77.806 8.846C78.042 8.778 78.28 8.724 78.52 8.684C78.76 8.644 79 8.624 79.24 8.624C79.78 8.624 80.238 8.72 80.614 8.912C80.99 9.1 81.276 9.368 81.472 9.716C81.668 10.06 81.766 10.47 81.766 10.946C81.766 11.41 81.656 11.872 81.436 12.332C81.22 12.788 80.9 13.258 80.476 13.742C80.056 14.222 79.536 14.73 78.916 15.266L77.542 16.46L77.404 16.286H79.126C79.594 16.286 80.062 16.286 80.53 16.286C81.002 16.286 81.472 16.286 81.94 16.286V17H76.6Z" fill="black"/>
<path opacity="0.3" d="M101.306 17.12C101.058 17.12 100.808 17.102 100.556 17.066C100.308 17.034 100.064 16.988 99.824 16.928C99.584 16.868 99.356 16.798 99.14 16.718C98.928 16.634 98.734 16.546 98.558 16.454L98.648 15.674C98.868 15.794 99.088 15.9 99.308 15.992C99.532 16.084 99.754 16.16 99.974 16.22C100.194 16.28 100.41 16.326 100.622 16.358C100.838 16.386 101.046 16.4 101.246 16.4C101.982 16.4 102.516 16.248 102.848 15.944C103.18 15.636 103.346 15.246 103.346 14.774C103.346 14.21 103.118 13.778 102.662 13.478C102.206 13.178 101.574 13.028 100.766 13.028C100.646 13.028 100.528 13.028 100.412 13.028C100.296 13.028 100.178 13.028 100.058 13.028V12.35C100.17 12.35 100.282 12.35 100.394 12.35C100.506 12.35 100.618 12.35 100.73 12.35C101.278 12.35 101.722 12.278 102.062 12.134C102.406 11.99 102.658 11.796 102.818 11.552C102.978 11.304 103.058 11.026 103.058 10.718C103.058 10.25 102.89 9.906 102.554 9.686C102.218 9.462 101.794 9.35 101.282 9.35C101.094 9.35 100.898 9.37 100.694 9.41C100.494 9.446 100.29 9.5 100.082 9.572C99.874 9.64 99.666 9.728 99.458 9.836C99.25 9.94 99.046 10.062 98.846 10.202L98.744 9.404C98.916 9.296 99.104 9.196 99.308 9.104C99.516 9.008 99.734 8.924 99.962 8.852C100.19 8.78 100.422 8.724 100.658 8.684C100.894 8.644 101.13 8.624 101.366 8.624C101.854 8.624 102.286 8.706 102.662 8.87C103.042 9.03 103.338 9.258 103.55 9.554C103.762 9.85 103.868 10.202 103.868 10.61C103.868 10.954 103.794 11.262 103.646 11.534C103.502 11.806 103.308 12.032 103.064 12.212C102.824 12.388 102.56 12.51 102.272 12.578V12.668C102.488 12.704 102.706 12.774 102.926 12.878C103.15 12.982 103.354 13.122 103.538 13.298C103.726 13.474 103.876 13.688 103.988 13.94C104.1 14.192 104.156 14.486 104.156 14.822C104.156 15.25 104.052 15.638 103.844 15.986C103.636 16.334 103.32 16.61 102.896 16.814C102.476 17.018 101.946 17.12 101.306 17.12Z" fill="black"/>
<rect x="125.5" y="0.5" width="34" height="23" rx="11.5" stroke="#121212"/>
<path d="M134 12.4158H147.907C147.414 12.7008 146.96 13.0532 146.558 13.4641C145.975 14.06 145.512 14.7673 145.197 15.5455C144.881 16.3237 144.719 17.1578 144.719 18V18.1H144.819H145.437H145.537V18C145.537 17.2664 145.678 16.54 145.953 15.8623C146.228 15.1847 146.63 14.5691 147.138 14.0506C147.645 13.5322 148.247 13.121 148.91 12.8406C149.573 12.5601 150.283 12.4158 151 12.4158H151.1V12.3158V11.6842V11.5842H151C150.283 11.5842 149.573 11.4399 148.91 11.1594C148.247 10.879 147.645 10.4678 147.138 9.94938C146.63 9.43094 146.228 8.81534 145.953 8.13768C145.678 7.46001 145.537 6.73362 145.537 6V5.9H145.437H144.819H144.719V6C144.719 6.84224 144.881 7.67627 145.197 8.45451C145.512 9.23275 145.975 9.94001 146.558 10.5359C146.96 10.9468 147.414 11.2992 147.907 11.5842H134H133.9V11.6842V12.3158V12.4158H134Z" fill="#121212" stroke="#121212" stroke-width="0.2"/>
</svg>
