<svg width="233" height="35" viewBox="0 0 233 35" fill="none" xmlns="http://www.w3.org/2000/svg">
<g opacity="0.4">
<rect x="51.5" y="34.5" width="51" height="34" rx="17" transform="rotate(-180 51.5 34.5)" stroke="#121212"/>
<path d="M18.4867 17.1053C19.29 16.7213 20.0236 16.2068 20.6563 15.5824C21.3991 14.8493 21.9883 13.979 22.3903 13.0212C22.7923 12.0633 22.9992 11.0367 22.9992 10L22.1993 10C22.1993 10.9331 22.0131 11.857 21.6513 12.7191C21.2895 13.5811 20.7592 14.3644 20.0907 15.0242C19.4222 15.6839 18.6285 16.2073 17.7551 16.5644C16.8816 16.9215 15.9454 17.1052 15 17.1052L15 17.8947C15.9454 17.8947 16.8816 18.0785 17.7551 18.4356C18.6285 18.7927 19.4222 19.3161 20.0907 19.9758C20.7592 20.6356 21.2895 21.4189 21.6513 22.2809C22.0131 23.143 22.1993 24.0669 22.1993 25L22.9992 25C22.9992 23.9633 22.7923 22.9367 22.3903 21.9788C21.9883 21.021 21.3991 20.1507 20.6563 19.4176C20.0236 18.7932 19.2901 18.2787 18.4868 17.8948L37 17.8948L37 17.1053L18.4867 17.1053Z" fill="#121212"/>
</g>
<path d="M82.927 15.482L82.621 14.483C83.347 14.087 84.067 13.694 84.781 13.304C85.501 12.908 86.221 12.512 86.941 12.116L86.914 13.268C86.248 13.64 85.582 14.009 84.916 14.375C84.256 14.741 83.593 15.11 82.927 15.482ZM86.347 24.5C86.347 23.834 86.347 23.192 86.347 22.574C86.347 21.956 86.347 21.281 86.347 20.549V16.607C86.347 15.959 86.347 15.311 86.347 14.663C86.347 14.009 86.347 13.355 86.347 12.701L86.941 12.116L87.535 12.17C87.535 12.836 87.535 13.526 87.535 14.24C87.535 14.954 87.535 15.689 87.535 16.445V20.549C87.535 21.281 87.535 21.956 87.535 22.574C87.535 23.192 87.535 23.834 87.535 24.5H86.347Z" fill="black"/>
<path opacity="0.5" d="M110.9 24.5V23.618C111.278 23.282 111.656 22.949 112.034 22.619C112.418 22.283 112.799 21.95 113.177 21.62C114.065 20.84 114.827 20.111 115.463 19.433C116.099 18.749 116.585 18.089 116.921 17.453C117.257 16.817 117.425 16.178 117.425 15.536C117.425 14.702 117.2 14.075 116.75 13.655C116.3 13.235 115.616 13.025 114.698 13.025C114.41 13.025 114.113 13.052 113.807 13.106C113.501 13.16 113.189 13.238 112.871 13.34C112.559 13.436 112.244 13.562 111.926 13.718C111.614 13.874 111.302 14.057 110.99 14.267L110.846 13.043C111.11 12.893 111.398 12.752 111.71 12.62C112.028 12.482 112.361 12.365 112.709 12.269C113.063 12.167 113.42 12.086 113.78 12.026C114.14 11.966 114.5 11.936 114.86 11.936C115.67 11.936 116.357 12.08 116.921 12.368C117.485 12.65 117.914 13.052 118.208 13.574C118.502 14.09 118.649 14.705 118.649 15.419C118.649 16.115 118.484 16.808 118.154 17.498C117.83 18.182 117.35 18.887 116.714 19.613C116.084 20.333 115.304 21.095 114.374 21.899L112.313 23.69L112.106 23.429H114.689C115.391 23.429 116.093 23.429 116.795 23.429C117.503 23.429 118.208 23.429 118.91 23.429V24.5H110.9Z" fill="black"/>
<path opacity="0.3" d="M144.959 24.68C144.587 24.68 144.212 24.653 143.834 24.599C143.462 24.551 143.096 24.482 142.736 24.392C142.376 24.302 142.034 24.197 141.71 24.077C141.392 23.951 141.101 23.819 140.837 23.681L140.972 22.511C141.302 22.691 141.632 22.85 141.962 22.988C142.298 23.126 142.631 23.24 142.961 23.33C143.291 23.42 143.615 23.489 143.933 23.537C144.257 23.579 144.569 23.6 144.869 23.6C145.973 23.6 146.774 23.372 147.272 22.916C147.77 22.454 148.019 21.869 148.019 21.161C148.019 20.315 147.677 19.667 146.993 19.217C146.309 18.767 145.361 18.542 144.149 18.542C143.969 18.542 143.792 18.542 143.618 18.542C143.444 18.542 143.267 18.542 143.087 18.542V17.525C143.255 17.525 143.423 17.525 143.591 17.525C143.759 17.525 143.927 17.525 144.095 17.525C144.917 17.525 145.583 17.417 146.093 17.201C146.609 16.985 146.987 16.694 147.227 16.328C147.467 15.956 147.587 15.539 147.587 15.077C147.587 14.375 147.335 13.859 146.831 13.529C146.327 13.193 145.691 13.025 144.923 13.025C144.641 13.025 144.347 13.055 144.041 13.115C143.741 13.169 143.435 13.25 143.123 13.358C142.811 13.46 142.499 13.592 142.187 13.754C141.875 13.91 141.569 14.093 141.269 14.303L141.116 13.106C141.374 12.944 141.656 12.794 141.962 12.656C142.274 12.512 142.601 12.386 142.943 12.278C143.285 12.17 143.633 12.086 143.987 12.026C144.341 11.966 144.695 11.936 145.049 11.936C145.781 11.936 146.429 12.059 146.993 12.305C147.563 12.545 148.007 12.887 148.325 13.331C148.643 13.775 148.802 14.303 148.802 14.915C148.802 15.431 148.691 15.893 148.469 16.301C148.253 16.709 147.962 17.048 147.596 17.318C147.236 17.582 146.84 17.765 146.408 17.867V18.002C146.732 18.056 147.059 18.161 147.389 18.317C147.725 18.473 148.031 18.683 148.307 18.947C148.589 19.211 148.814 19.532 148.982 19.91C149.15 20.288 149.234 20.729 149.234 21.233C149.234 21.875 149.078 22.457 148.766 22.979C148.454 23.501 147.98 23.915 147.344 24.221C146.714 24.527 145.919 24.68 144.959 24.68Z" fill="black"/>
<rect x="181.5" y="0.5" width="51" height="34" rx="17" stroke="#121212"/>
<path d="M214.513 17.8947C213.71 18.2787 212.976 18.7932 212.344 19.4176C211.601 20.1507 211.012 21.021 210.61 21.9788C210.208 22.9367 210.001 23.9633 210.001 25H210.801C210.801 24.0669 210.987 23.143 211.349 22.2809C211.711 21.4189 212.241 20.6356 212.909 19.9758C213.578 19.3161 214.371 18.7927 215.245 18.4356C216.118 18.0785 217.055 17.8948 218 17.8948V17.1053C217.055 17.1053 216.118 16.9215 215.245 16.5644C214.371 16.2073 213.578 15.6839 212.909 15.0242C212.241 14.3644 211.711 13.5811 211.349 12.7191C210.987 11.857 210.801 10.9331 210.801 10H210.001C210.001 11.0367 210.208 12.0633 210.61 13.0212C211.012 13.979 211.601 14.8493 212.344 15.5824C212.976 16.2068 213.71 16.7213 214.513 17.1052H196V17.8947H214.513Z" fill="#121212"/>
</svg>
