<svg width="52" height="44" viewBox="0 0 52 44" fill="none" xmlns="http://www.w3.org/2000/svg">
<rect width="52" height="44" rx="22" fill="#121212"/>
<path d="M33.5133 22.3947C32.71 22.7787 31.9764 23.2932 31.3437 23.9176C30.6009 24.6507 30.0117 25.521 29.6097 26.4788C29.2077 27.4367 29.0008 28.4633 29.0008 29.5H29.8007C29.8007 28.5669 29.9869 27.643 30.3487 26.7809C30.7105 25.9189 31.2408 25.1356 31.9093 24.4758C32.5778 23.8161 33.3715 23.2927 34.2449 22.9356C35.1184 22.5785 36.0546 22.3948 37 22.3948V21.6053C36.0546 21.6053 35.1184 21.4215 34.2449 21.0644C33.3715 20.7073 32.5778 20.1839 31.9093 19.5242C31.2408 18.8644 30.7105 18.0811 30.3487 17.2191C29.9869 16.357 29.8007 15.4331 29.8007 14.5H29.0008C29.0008 15.5367 29.2077 16.5633 29.6097 17.5212C30.0117 18.479 30.6009 19.3493 31.3437 20.0824C31.9764 20.7068 32.7099 21.2213 33.5132 21.6052H15V22.3947H33.5133Z" fill="#FAFAFA"/>
</svg>
