<svg width="570" height="35" viewBox="0 0 570 35" fill="none" xmlns="http://www.w3.org/2000/svg">
<path d="M1.773 18.0005C1.773 17.2805 1.773 16.5875 1.773 15.9215C1.773 15.2555 1.773 14.5295 1.773 13.7435V9.45049C1.773 8.65249 1.773 7.92049 1.773 7.25449C1.773 6.58249 1.773 5.88649 1.773 5.16649H2.943C3.753 6.30049 4.533 7.39849 5.283 8.46049C6.039 9.52249 6.786 10.5695 7.524 11.6015L10.494 15.7685H10.602V9.45049C10.602 8.65249 10.602 7.92049 10.602 7.25449C10.602 6.58249 10.602 5.88649 10.602 5.16649H11.817C11.817 5.88649 11.817 6.58249 11.817 7.25449C11.817 7.92049 11.817 8.65249 11.817 9.45049V13.7435C11.817 14.5295 11.817 15.2555 11.817 15.9215C11.817 16.5875 11.817 17.2805 11.817 18.0005H10.674C10.002 17.0525 9.291 16.0535 8.541 15.0035C7.797 13.9535 6.975 12.7985 6.075 11.5385L3.096 7.34449H2.988V13.7435C2.988 14.5295 2.988 15.2555 2.988 15.9215C2.988 16.5875 2.988 17.2805 2.988 18.0005H1.773ZM14.1549 18.0005C14.4129 17.3045 14.6829 16.5785 14.9649 15.8225C15.2469 15.0605 15.5169 14.3345 15.7749 13.6445L17.4039 9.24349C17.6979 8.45749 17.9619 7.74349 18.1959 7.10149C18.4359 6.45949 18.6759 5.81449 18.9159 5.16649H20.6079C20.8479 5.82649 21.0849 6.47449 21.3189 7.11049C21.5529 7.74649 21.8139 8.46049 22.1019 9.25249L23.7219 13.6715C23.9799 14.3795 24.2469 15.1085 24.5229 15.8585C24.7989 16.6025 25.0599 17.3165 25.3059 18.0005H23.9919C23.7159 17.2325 23.4309 16.4435 23.1369 15.6335C22.8489 14.8175 22.5759 14.0465 22.3179 13.3205L19.8249 6.35449H19.6809L17.1699 13.2575C16.8999 14.0075 16.6149 14.7935 16.3149 15.6155C16.0209 16.4315 15.7329 17.2265 15.4509 18.0005H14.1549ZM16.3419 14.6255L16.4319 13.5995H23.1459L23.2179 14.6255H16.3419ZM27.162 18.0005C27.252 17.2985 27.339 16.6085 27.423 15.9305C27.507 15.2465 27.597 14.5055 27.693 13.7075L28.224 9.48649C28.326 8.70049 28.416 7.97149 28.494 7.29949C28.578 6.62749 28.668 5.91649 28.764 5.16649H30.033C30.435 6.12649 30.819 7.05649 31.185 7.95649C31.557 8.85649 31.926 9.75049 32.292 10.6385L34.461 15.9125H34.569L36.729 10.6385C37.095 9.74449 37.461 8.85049 37.827 7.95649C38.193 7.06249 38.574 6.13249 38.97 5.16649H40.239C40.329 5.90449 40.413 6.61249 40.491 7.29049C40.575 7.96249 40.665 8.69449 40.761 9.48649L41.283 13.7435C41.379 14.5235 41.466 15.2495 41.544 15.9215C41.628 16.5875 41.712 17.2805 41.796 18.0005H40.59C40.44 16.7945 40.299 15.6515 40.167 14.5715C40.041 13.4855 39.921 12.4715 39.807 11.5295L39.312 7.47949H39.213L37.449 11.8445C37.017 12.9065 36.585 13.9685 36.153 15.0305C35.727 16.0925 35.328 17.0825 34.956 18.0005H34.083C33.849 17.4245 33.591 16.7945 33.309 16.1105C33.027 15.4205 32.736 14.7125 32.436 13.9865C32.142 13.2605 31.851 12.5555 31.563 11.8715L29.763 7.47949H29.664L29.178 11.5295C29.064 12.4655 28.941 13.4795 28.809 14.5715C28.677 15.6575 28.539 16.8005 28.395 18.0005H27.162ZM44.857 18.0005C44.857 17.2805 44.857 16.5875 44.857 15.9215C44.857 15.2555 44.857 14.5295 44.857 13.7435V9.45049C44.857 8.65249 44.857 7.92049 44.857 7.25449C44.857 6.58249 44.857 5.88649 44.857 5.16649H52.678V6.27349C52.066 6.27349 51.409 6.27349 50.707 6.27349C50.005 6.27349 49.18 6.27349 48.232 6.27349H45.415L46.099 5.33749C46.099 6.05749 46.099 6.75349 46.099 7.42549C46.099 8.09749 46.099 8.82949 46.099 9.62149V13.5635C46.099 14.3435 46.099 15.0665 46.099 15.7325C46.099 16.3985 46.099 17.0915 46.099 17.8115L45.469 16.8935H48.34C49.15 16.8935 49.912 16.8935 50.626 16.8935C51.34 16.8935 52.027 16.8935 52.687 16.8935V18.0005H44.857ZM45.829 12.0245V10.9535H48.367C49.207 10.9535 49.93 10.9535 50.536 10.9535C51.148 10.9535 51.736 10.9535 52.3 10.9535V12.0245C51.706 12.0245 51.103 12.0245 50.491 12.0245C49.885 12.0245 49.171 12.0245 48.349 12.0245H45.829Z" fill="white"/>
<rect opacity="0.6" y="34.0005" width="570" height="1" fill="#FAFAFA"/>
</svg>
