<svg width="43" height="24" viewBox="0 0 43 24" fill="none" xmlns="http://www.w3.org/2000/svg">
<g clip-path="url(#clip0_312_1209)">
<path d="M1.85 20C1.85 19.2067 1.85 18.4433 1.85 17.71C1.85 16.9767 1.85 16.17 1.85 15.29V10.5C1.85 9.61333 1.85 8.79667 1.85 8.05C1.85 7.30333 1.85 6.53333 1.85 5.74H10.71V7.29C10.0433 7.29 9.32667 7.29 8.56 7.29C7.8 7.29 6.9 7.29 5.86 7.29H2.62L3.62 6C3.62 6.8 3.62 7.57333 3.62 8.32C3.62 9.06 3.62 9.87333 3.62 10.76V15.02C3.62 15.8933 3.62 16.7 3.62 17.44C3.62 18.1733 3.62 18.9367 3.62 19.73L2.72 18.45H6.02C6.89333 18.45 7.71667 18.45 8.49 18.45C9.27 18.45 10.0167 18.45 10.73 18.45V20H1.85ZM3.23 13.53V12.02H6C6.92 12.02 7.71333 12.02 8.38 12.02C9.04667 12.02 9.69 12.02 10.31 12.02V13.53C9.65667 13.53 8.99667 13.53 8.33 13.53C7.67 13.53 6.89 13.53 5.99 13.53H3.23ZM14.725 20C14.725 19.2067 14.725 18.4433 14.725 17.71C14.725 16.9767 14.725 16.17 14.725 15.29V10.51C14.725 9.61 14.725 8.79 14.725 8.05C14.725 7.30333 14.725 6.53333 14.725 5.74H16.355C17.2083 6.94 18.0283 8.09667 18.815 9.21C19.6017 10.3233 20.3783 11.42 21.145 12.5L24.235 16.86H24.385V10.51C24.385 9.61 24.385 8.79 24.385 8.05C24.385 7.30333 24.385 6.53333 24.385 5.74H26.105C26.105 6.53333 26.105 7.30333 26.105 8.05C26.105 8.79 26.105 9.61 26.105 10.51V15.29C26.105 16.17 26.105 16.9767 26.105 17.71C26.105 18.4433 26.105 19.2067 26.105 20H24.495C23.7883 19 23.045 17.95 22.265 16.85C21.485 15.7433 20.6283 14.53 19.695 13.21L16.585 8.82H16.445V15.29C16.445 16.17 16.445 16.9767 16.445 17.71C16.445 18.4433 16.445 19.2067 16.445 20H14.725Z" fill="white"/>
<path d="M42.1008 9.13974C42.3065 8.95352 42.64 8.95352 42.8457 9.13974C43.0514 9.32596 43.0514 9.62789 42.8457 9.81411L38.3764 13.8603C38.1707 14.0466 37.8372 14.0466 37.6315 13.8603C37.4258 13.6741 37.4258 13.3722 37.6315 13.186L42.1008 9.13974Z" fill="#FAFAFA"/>
<path d="M33.1543 9.81404C32.9486 9.62782 32.9486 9.32589 33.1543 9.13967C33.36 8.95344 33.6935 8.95344 33.8992 9.13967L38.3685 13.1859C38.5742 13.3721 38.5742 13.674 38.3685 13.8603C38.1628 14.0465 37.8293 14.0465 37.6236 13.8603L33.1543 9.81404Z" fill="#FAFAFA"/>
</g>
<defs>
<clipPath id="clip0_312_1209">
<rect width="43" height="24" fill="white"/>
</clipPath>
</defs>
</svg>
