<svg width="40" height="40" viewBox="0 0 40 40" fill="none" xmlns="http://www.w3.org/2000/svg">
<path fill-rule="evenodd" clip-rule="evenodd" d="M8.56059 6.43935C7.97482 5.85355 7.0251 5.85355 6.43933 6.43935C5.85356 7.02515 5.85356 7.97493 6.43933 8.56073L17.8821 20.0041L6.44592 31.4409C5.86015 32.0267 5.86015 32.9764 6.44592 33.5622C7.03169 34.148 7.98141 34.148 8.56718 33.5622L20.0033 22.1255L31.436 33.5587C32.0218 34.1445 32.9715 34.1445 33.5573 33.5587C34.143 32.9729 34.143 32.0232 33.5573 31.4374L22.1246 20.0041L33.5638 8.56422C34.1496 7.97842 34.1496 7.02865 33.5638 6.44284C32.9781 5.85704 32.0284 5.85704 31.4426 6.44284L20.0033 17.8827L8.56059 6.43935Z" fill="#FAFAFA"/>
</svg>
