<svg width="35" height="36" viewBox="0 0 35 36" fill="none" xmlns="http://www.w3.org/2000/svg">
<rect width="35" height="36" rx="17.5" fill="#121212"/>
<path d="M9 18.4158H22.9074C22.4141 18.7008 21.96 19.0532 21.5577 19.4641C20.9746 20.06 20.5121 20.7673 20.1966 21.5455C19.8811 22.3237 19.7188 23.1578 19.7188 24V24.1H19.8188H20.4369H20.5369V24C20.5369 23.2664 20.6783 22.54 20.953 21.8623C21.2278 21.1847 21.6304 20.5691 22.1378 20.0506C22.6452 19.5322 23.2474 19.121 23.9101 18.8406C24.5727 18.5601 25.2829 18.4158 26 18.4158H26.1V18.3158V17.6842V17.5842H26C25.2829 17.5842 24.5727 17.4399 23.9101 17.1594C23.2474 16.879 22.6452 16.4678 22.1378 15.9494C21.6304 15.4309 21.2278 14.8153 20.953 14.1377C20.6783 13.46 20.5369 12.7336 20.5369 12V11.9H20.4369H19.8188H19.7188V12C19.7188 12.8422 19.8811 13.6763 20.1966 14.4545C20.5121 15.2327 20.9746 15.94 21.5577 16.5359C21.9599 16.9468 22.4141 17.2992 22.9073 17.5842H9H8.9V17.6842V18.3158V18.4158H9Z" fill="#FAFAFA" stroke="#121212" stroke-width="0.2"/>
</svg>
