<svg width="300" height="35" viewBox="0 0 300 35" fill="none" xmlns="http://www.w3.org/2000/svg">
<path d="M1.379 26C1.379 25.44 1.379 24.901 1.379 24.383C1.379 23.865 1.379 23.3003 1.379 22.689V19.35C1.379 18.7293 1.379 18.16 1.379 17.642C1.379 17.1193 1.379 16.578 1.379 16.018H2.289C2.919 16.9 3.52567 17.754 4.109 18.58C4.697 19.406 5.278 20.2203 5.852 21.023L8.162 24.264H8.246V19.35C8.246 18.7293 8.246 18.16 8.246 17.642C8.246 17.1193 8.246 16.578 8.246 16.018H9.191C9.191 16.578 9.191 17.1193 9.191 17.642C9.191 18.16 9.191 18.7293 9.191 19.35V22.689C9.191 23.3003 9.191 23.865 9.191 24.383C9.191 24.901 9.191 25.44 9.191 26H8.302C7.77933 25.2627 7.22633 24.4857 6.643 23.669C6.06433 22.8523 5.425 21.954 4.725 20.974L2.408 17.712H2.324V22.689C2.324 23.3003 2.324 23.865 2.324 24.383C2.324 24.901 2.324 25.44 2.324 26H1.379ZM11.0094 26C11.21 25.4587 11.42 24.894 11.6394 24.306C11.8587 23.7133 12.0687 23.1487 12.2694 22.612L13.5364 19.189C13.765 18.5777 13.9704 18.0223 14.1524 17.523C14.339 17.0237 14.5257 16.522 14.7124 16.018H16.0284C16.215 16.5313 16.3994 17.0353 16.5814 17.53C16.7634 18.0247 16.9664 18.58 17.1904 19.196L18.4504 22.633C18.651 23.1837 18.8587 23.7507 19.0734 24.334C19.288 24.9127 19.491 25.468 19.6824 26H18.6604C18.4457 25.4027 18.224 24.789 17.9954 24.159C17.7714 23.5243 17.559 22.9247 17.3584 22.36L15.4194 16.942H15.3074L13.3544 22.311C13.1444 22.8943 12.9227 23.5057 12.6894 24.145C12.4607 24.7797 12.2367 25.398 12.0174 26H11.0094ZM12.7104 23.375L12.7804 22.577H18.0024L18.0584 23.375H12.7104ZM21.126 26C21.196 25.454 21.2637 24.9173 21.329 24.39C21.3943 23.858 21.4643 23.2817 21.539 22.661L21.952 19.378C22.0313 18.7667 22.1013 18.1997 22.162 17.677C22.2273 17.1543 22.2973 16.6013 22.372 16.018H23.359C23.6717 16.7647 23.9703 17.488 24.255 18.188C24.5443 18.888 24.8313 19.5833 25.116 20.274L26.803 24.376H26.887L28.567 20.274C28.8517 19.5787 29.1363 18.8833 29.421 18.188C29.7057 17.4927 30.002 16.7693 30.31 16.018H31.297C31.367 16.592 31.4323 17.1427 31.493 17.67C31.5583 18.1927 31.6283 18.762 31.703 19.378L32.109 22.689C32.1837 23.2957 32.2513 23.8603 32.312 24.383C32.3773 24.901 32.4427 25.44 32.508 26H31.57C31.4533 25.062 31.3437 24.173 31.241 23.333C31.143 22.4883 31.0497 21.6997 30.961 20.967L30.576 17.817H30.499L29.127 21.212C28.791 22.038 28.455 22.864 28.119 23.69C27.7877 24.516 27.4773 25.286 27.188 26H26.509C26.327 25.552 26.1263 25.062 25.907 24.53C25.6877 23.9933 25.4613 23.4427 25.228 22.878C24.9993 22.3133 24.773 21.765 24.549 21.233L23.149 17.817H23.072L22.694 20.967C22.6053 21.695 22.5097 22.4837 22.407 23.333C22.3043 24.1777 22.197 25.0667 22.085 26H21.126ZM34.8888 26C34.8888 25.44 34.8888 24.901 34.8888 24.383C34.8888 23.865 34.8888 23.3003 34.8888 22.689V19.35C34.8888 18.7293 34.8888 18.16 34.8888 17.642C34.8888 17.1193 34.8888 16.578 34.8888 16.018H40.9718V16.879C40.4958 16.879 39.9848 16.879 39.4388 16.879C38.8928 16.879 38.2511 16.879 37.5138 16.879H35.3228L35.8548 16.151C35.8548 16.711 35.8548 17.2523 35.8548 17.775C35.8548 18.2977 35.8548 18.867 35.8548 19.483V22.549C35.8548 23.1557 35.8548 23.718 35.8548 24.236C35.8548 24.754 35.8548 25.293 35.8548 25.853L35.3648 25.139H37.5978C38.2278 25.139 38.8204 25.139 39.3758 25.139C39.9311 25.139 40.4654 25.139 40.9788 25.139V26H34.8888ZM35.6448 21.352V20.519H37.6188C38.2721 20.519 38.8344 20.519 39.3058 20.519C39.7818 20.519 40.2391 20.519 40.6778 20.519V21.352C40.2158 21.352 39.7468 21.352 39.2708 21.352C38.7994 21.352 38.2441 21.352 37.6048 21.352H35.6448Z" fill="white" fill-opacity="0.6"/>
<rect opacity="0.6" y="34" width="300" height="1" fill="#FAFAFA"/>
</svg>
