<svg width="187" height="44" viewBox="0 0 187 44" fill="none" xmlns="http://www.w3.org/2000/svg">
<rect x="0.5" y="0.500488" width="186" height="43" rx="21.5" stroke="#121212"/>
<g clip-path="url(#clip0_290_994)">
<path d="M30.99 30.2205C30.3967 30.2205 29.7967 30.1638 29.19 30.0505C28.59 29.9438 28.0333 29.8105 27.52 29.6505C27.0133 29.4838 26.6033 29.3172 26.29 29.1505L26.46 27.4405C26.9067 27.6872 27.37 27.9038 27.85 28.0905C28.3367 28.2705 28.83 28.4105 29.33 28.5105C29.8367 28.6105 30.3533 28.6605 30.88 28.6605C31.4733 28.6605 32.0067 28.5805 32.48 28.4205C32.96 28.2538 33.3367 27.9938 33.61 27.6405C33.89 27.2805 34.03 26.8105 34.03 26.2305C34.03 25.7238 33.8867 25.3072 33.6 24.9805C33.3133 24.6472 32.8967 24.3605 32.35 24.1205C31.81 23.8805 31.1533 23.6405 30.38 23.4005C29.4733 23.1138 28.7 22.8038 28.06 22.4705C27.42 22.1372 26.93 21.7272 26.59 21.2405C26.2567 20.7472 26.09 20.1205 26.09 19.3605C26.09 18.6205 26.2633 17.9572 26.61 17.3705C26.9633 16.7838 27.4867 16.3238 28.18 15.9905C28.8733 15.6505 29.7333 15.4805 30.76 15.4805C31.1867 15.4805 31.6067 15.5105 32.02 15.5705C32.44 15.6305 32.84 15.7138 33.22 15.8205C33.6 15.9205 33.9467 16.0338 34.26 16.1605C34.5733 16.2872 34.84 16.4172 35.06 16.5505L34.88 18.2705C34.4733 17.9972 34.0433 17.7705 33.59 17.5905C33.1367 17.4038 32.6867 17.2672 32.24 17.1805C31.7933 17.0872 31.38 17.0405 31 17.0405C30.46 17.0405 29.9633 17.1205 29.51 17.2805C29.0567 17.4405 28.69 17.6872 28.41 18.0205C28.1367 18.3472 28 18.7705 28 19.2905C28 19.7438 28.1167 20.1205 28.35 20.4205C28.5833 20.7205 28.95 20.9905 29.45 21.2305C29.9567 21.4638 30.6067 21.7072 31.4 21.9605C32.5467 22.3205 33.4467 22.6872 34.1 23.0605C34.76 23.4272 35.2267 23.8538 35.5 24.3405C35.78 24.8272 35.92 25.4238 35.92 26.1305C35.92 26.9105 35.7467 27.6072 35.4 28.2205C35.06 28.8338 34.5267 29.3205 33.8 29.6805C33.0733 30.0405 32.1367 30.2205 30.99 30.2205ZM45.0483 30.2205C43.7216 30.2205 42.6416 29.9938 41.8083 29.5405C40.9816 29.0805 40.3716 28.4372 39.9783 27.6105C39.5916 26.7772 39.3983 25.8072 39.3983 24.7005C39.3983 24.4205 39.3983 24.0605 39.3983 23.6205C39.3983 23.1738 39.3983 22.6805 39.3983 22.1405C39.3983 21.6005 39.3983 21.0572 39.3983 20.5105C39.3983 19.6105 39.3983 18.7905 39.3983 18.0505C39.3983 17.3038 39.3983 16.5338 39.3983 15.7405H41.1983C41.1983 16.5338 41.1983 17.3038 41.1983 18.0505C41.1983 18.7905 41.1983 19.6105 41.1983 20.5105V24.5205C41.1983 25.3805 41.3249 26.1205 41.5783 26.7405C41.8316 27.3605 42.2383 27.8372 42.7983 28.1705C43.3649 28.4972 44.1149 28.6605 45.0483 28.6605C45.9883 28.6605 46.7349 28.4972 47.2883 28.1705C47.8483 27.8372 48.2516 27.3605 48.4983 26.7405C48.7449 26.1205 48.8683 25.3738 48.8683 24.5005V20.5105C48.8683 19.6105 48.8683 18.7905 48.8683 18.0505C48.8683 17.3038 48.8683 16.5338 48.8683 15.7405H50.6683C50.6683 16.5338 50.6683 17.3038 50.6683 18.0505C50.6683 18.7905 50.6683 19.6105 50.6683 20.5105C50.6683 21.0572 50.6683 21.6038 50.6683 22.1505C50.6683 22.6905 50.6683 23.1838 50.6683 23.6305C50.6683 24.0772 50.6683 24.4338 50.6683 24.7005C50.6683 25.8072 50.4716 26.7772 50.0783 27.6105C49.6849 28.4372 49.0749 29.0805 48.2483 29.5405C47.4216 29.9938 46.3549 30.2205 45.0483 30.2205ZM59.6377 30.0005C58.971 30.0005 58.3543 30.0005 57.7877 30.0005C57.221 30.0005 56.7177 30.0005 56.2777 30.0005C55.8377 30.0005 55.4777 30.0005 55.1977 30.0005C55.1977 29.2072 55.1977 28.4438 55.1977 27.7105C55.1977 26.9772 55.1977 26.1705 55.1977 25.2905V20.5005C55.1977 19.6138 55.1977 18.7972 55.1977 18.0505C55.1977 17.3038 55.1977 16.5338 55.1977 15.7405C55.951 15.7405 56.7743 15.7405 57.6677 15.7405C58.5677 15.7405 59.491 15.7405 60.4377 15.7405C61.271 15.7405 61.9777 15.8205 62.5577 15.9805C63.1443 16.1338 63.621 16.3572 63.9877 16.6505C64.3543 16.9372 64.6243 17.2872 64.7977 17.7005C64.971 18.1138 65.0577 18.5805 65.0577 19.1005C65.0577 19.7072 64.9477 20.2372 64.7277 20.6905C64.5077 21.1438 64.2077 21.5205 63.8277 21.8205C63.4543 22.1205 63.0277 22.3438 62.5477 22.4905V22.6705C63.041 22.7638 63.5077 22.9372 63.9477 23.1905C64.3877 23.4438 64.7443 23.8072 65.0177 24.2805C65.291 24.7472 65.4277 25.3472 65.4277 26.0805C65.4277 26.6405 65.331 27.1605 65.1377 27.6405C64.951 28.1138 64.6377 28.5272 64.1977 28.8805C63.7643 29.2338 63.1743 29.5105 62.4277 29.7105C61.6877 29.9038 60.7577 30.0005 59.6377 30.0005ZM56.9677 28.5005H59.7777C60.6843 28.5005 61.4143 28.3972 61.9677 28.1905C62.5277 27.9838 62.931 27.6905 63.1777 27.3105C63.431 26.9305 63.5577 26.4772 63.5577 25.9505C63.5577 25.0772 63.251 24.4538 62.6377 24.0805C62.0243 23.7005 61.1643 23.5105 60.0577 23.5105H56.5677V22.0605H60.0577C60.791 22.0605 61.3877 21.9405 61.8477 21.7005C62.3143 21.4605 62.6543 21.1472 62.8677 20.7605C63.081 20.3738 63.1877 19.9505 63.1877 19.4905C63.1877 18.7105 62.9443 18.1405 62.4577 17.7805C61.9777 17.4205 61.261 17.2405 60.3077 17.2405H56.9677C56.9677 17.8205 56.9677 18.3972 56.9677 18.9705C56.9677 19.5438 56.9677 20.1738 56.9677 20.8605V24.9505C56.9677 25.6238 56.9677 26.2405 56.9677 26.8005C56.9677 27.3605 56.9677 27.9272 56.9677 28.5005ZM68.5978 30.0005C68.6911 29.2272 68.7845 28.4638 68.8778 27.7105C68.9778 26.9572 69.0811 26.1372 69.1878 25.2505L69.7778 20.5505C69.8845 19.6772 69.9845 18.8638 70.0778 18.1105C70.1711 17.3572 70.2711 16.5672 70.3778 15.7405H72.1978C72.6111 16.7538 73.0111 17.7338 73.3978 18.6805C73.7845 19.6205 74.1678 20.5572 74.5478 21.4905L76.8078 27.0305H76.9478L79.1878 21.5005C79.5678 20.5538 79.9478 19.6138 80.3278 18.6805C80.7078 17.7472 81.1011 16.7672 81.5078 15.7405H83.3278C83.4278 16.5538 83.5211 17.3372 83.6078 18.0905C83.7011 18.8438 83.8045 19.6605 83.9178 20.5405L84.4978 25.2905C84.6045 26.1572 84.7045 26.9638 84.7978 27.7105C84.8911 28.4505 84.9845 29.2138 85.0778 30.0005H83.3478C83.1945 28.7338 83.0478 27.5305 82.9078 26.3905C82.7678 25.2505 82.6378 24.1872 82.5178 23.2005L81.9978 18.9405H81.8678L80.0578 23.5305C79.6178 24.6438 79.1778 25.7605 78.7378 26.8805C78.2978 27.9938 77.8878 29.0338 77.5078 30.0005H76.2778C76.0378 29.3938 75.7711 28.7272 75.4778 28.0005C75.1845 27.2738 74.8811 26.5305 74.5678 25.7705C74.2611 25.0105 73.9611 24.2738 73.6678 23.5605L71.7978 18.9405H71.6678L71.1478 23.1905C71.0278 24.1838 70.8978 25.2505 70.7578 26.3905C70.6245 27.5305 70.4811 28.7338 70.3278 30.0005H68.5978ZM89.2784 30.0005C89.2784 29.2072 89.2784 28.4438 89.2784 27.7105C89.2784 26.9772 89.2784 26.1705 89.2784 25.2905V20.5105C89.2784 19.6105 89.2784 18.7905 89.2784 18.0505C89.2784 17.3038 89.2784 16.5338 89.2784 15.7405H91.1184C91.1184 16.5338 91.1184 17.3038 91.1184 18.0505C91.1184 18.7905 91.1184 19.6105 91.1184 20.5105V25.2905C91.1184 26.1705 91.1184 26.9772 91.1184 27.7105C91.1184 28.4438 91.1184 29.2072 91.1184 30.0005H89.2784ZM99.4944 30.0005C99.4944 29.2072 99.4944 28.4438 99.4944 27.7105C99.4944 26.9772 99.4944 26.1705 99.4944 25.2905V20.7705C99.4944 19.8772 99.4944 19.0605 99.4944 18.3205C99.4944 17.5738 99.4944 16.8005 99.4944 16.0005L100.214 17.3505H98.5244C97.7177 17.3505 97.001 17.3505 96.3744 17.3505C95.7544 17.3505 95.1644 17.3505 94.6044 17.3505V15.7405H106.184V17.3505C105.624 17.3505 105.034 17.3505 104.414 17.3505C103.794 17.3505 103.078 17.3505 102.264 17.3505H100.574L101.304 16.0005C101.304 16.8005 101.304 17.5738 101.304 18.3205C101.304 19.0605 101.304 19.8772 101.304 20.7705V25.2905C101.304 26.1705 101.304 26.9772 101.304 27.7105C101.304 28.4438 101.304 29.2072 101.304 30.0005H99.4944Z" fill="#161616"/>
<path d="M156.452 22.6321C155.174 23.2464 154.007 24.0695 153 25.0686C151.818 26.2416 150.881 27.6341 150.241 29.1666C149.601 30.6991 149.272 32.3417 149.272 34.0005H150.545C150.545 32.5076 150.841 31.0293 151.417 29.65C151.993 28.2707 152.836 27.0175 153.9 25.9618C154.964 24.9061 156.227 24.0688 157.616 23.4974C159.006 22.9261 160.496 22.6321 162 22.6321V21.3689C160.496 21.3689 159.006 21.0749 157.616 20.5035C156.227 19.9322 154.964 19.0948 153.9 18.0392C152.836 16.9835 151.993 15.7303 151.417 14.351C150.841 12.9717 150.545 11.4934 150.545 10.0005H149.272C149.272 11.6593 149.601 13.3018 150.241 14.8344C150.881 16.3669 151.818 17.7594 153 18.9324C154.007 19.9314 155.174 20.7546 156.452 21.3689H127V22.6321H156.452Z" fill="#121212"/>
</g>
<defs>
<clipPath id="clip0_290_994">
<rect width="137" height="24" fill="white" transform="translate(25 10.0005)"/>
</clipPath>
</defs>
</svg>
