<svg width="35" height="24" viewBox="0 0 35 24" fill="none" xmlns="http://www.w3.org/2000/svg">
<g opacity="0.4">
<rect x="0.5" y="0.5" width="34" height="23" rx="11.5" stroke="#121212"/>
<path d="M9 12.4158H22.9074C22.4141 12.7008 21.96 13.0532 21.5577 13.4641C20.9746 14.06 20.5121 14.7673 20.1966 15.5455C19.8811 16.3237 19.7188 17.1578 19.7188 18V18.1H19.8188H20.4369H20.5369V18C20.5369 17.2664 20.6783 16.54 20.953 15.8623C21.2278 15.1847 21.6304 14.5691 22.1378 14.0506C22.6452 13.5322 23.2474 13.121 23.9101 12.8406C24.5727 12.5601 25.2829 12.4158 26 12.4158H26.1V12.3158V11.6842V11.5842H26C25.2829 11.5842 24.5727 11.4399 23.9101 11.1594C23.2474 10.879 22.6452 10.4678 22.1378 9.94938C21.6304 9.43094 21.2278 8.81534 20.953 8.13768C20.6783 7.46001 20.5369 6.73362 20.5369 6V5.9H20.4369H19.8188H19.7188V6C19.7188 6.84224 19.8811 7.67627 20.1966 8.45451C20.5121 9.23275 20.9746 9.94001 21.5577 10.5359C21.9599 10.9468 22.4141 11.2992 22.9073 11.5842H9H8.9V11.6842V12.3158V12.4158H9Z" fill="#121212" stroke="#121212" stroke-width="0.2"/>
</g>
</svg>
