<svg width="30" height="30" viewBox="0 0 30 30" fill="none" xmlns="http://www.w3.org/2000/svg">
<path fill-rule="evenodd" clip-rule="evenodd" d="M7.20707 5.79291C6.81655 5.40238 6.1834 5.40238 5.79288 5.79291C5.40236 6.18344 5.40236 6.81661 5.79288 7.20714L13.5881 15.0026L5.79728 22.7937C5.40676 23.1842 5.40676 23.8174 5.79728 24.2079C6.18779 24.5985 6.82095 24.5985 7.21147 24.2079L15.0023 16.4168L22.7908 24.2056C23.1813 24.5961 23.8145 24.5961 24.205 24.2056C24.5955 23.815 24.5955 23.1819 24.205 22.7913L16.4165 15.0026L24.2094 7.2095C24.5999 6.81897 24.5999 6.1858 24.2094 5.79527C23.8189 5.40474 23.1857 5.40474 22.7952 5.79527L15.0023 13.5884L7.20707 5.79291Z" fill="#FAFAFA"/>
</svg>
