<svg width="189" height="44" viewBox="0 0 189 44" fill="none" xmlns="http://www.w3.org/2000/svg">
<g opacity="0.5">
<rect x="0.5" y="0.500488" width="188" height="43" rx="21.5" stroke="#121212"/>
<path d="M26.85 30.0005C26.85 29.2072 26.85 28.4438 26.85 27.7105C26.85 26.9772 26.85 26.1705 26.85 25.2905V20.5105C26.85 19.6105 26.85 18.7905 26.85 18.0505C26.85 17.3038 26.85 16.5338 26.85 15.7405H28.66C28.66 16.5338 28.66 17.3038 28.66 18.0505C28.66 18.7905 28.66 19.6105 28.66 20.5105V25.0105C28.66 25.8905 28.66 26.6972 28.66 27.4305C28.66 28.1638 28.66 28.9272 28.66 29.7205L27.98 28.3905H30.6C31.36 28.3905 32.03 28.3905 32.61 28.3905C33.1967 28.3905 33.7367 28.3905 34.23 28.3905C34.73 28.3905 35.24 28.3905 35.76 28.3905V30.0005H26.85ZM39.2953 30.0005C39.2953 29.2072 39.2953 28.4438 39.2953 27.7105C39.2953 26.9772 39.2953 26.1705 39.2953 25.2905V20.5005C39.2953 19.6138 39.2953 18.7972 39.2953 18.0505C39.2953 17.3038 39.2953 16.5338 39.2953 15.7405H48.1553V17.2905C47.4886 17.2905 46.772 17.2905 46.0053 17.2905C45.2453 17.2905 44.3453 17.2905 43.3053 17.2905H40.0653L41.0653 16.0005C41.0653 16.8005 41.0653 17.5738 41.0653 18.3205C41.0653 19.0605 41.0653 19.8738 41.0653 20.7605V25.0205C41.0653 25.8938 41.0653 26.7005 41.0653 27.4405C41.0653 28.1738 41.0653 28.9372 41.0653 29.7305L40.1653 28.4505H43.4653C44.3386 28.4505 45.162 28.4505 45.9353 28.4505C46.7153 28.4505 47.462 28.4505 48.1753 28.4505V30.0005H39.2953ZM40.6753 23.5305V22.0205H43.4453C44.3653 22.0205 45.1586 22.0205 45.8253 22.0205C46.492 22.0205 47.1353 22.0205 47.7553 22.0205V23.5305C47.102 23.5305 46.442 23.5305 45.7753 23.5305C45.1153 23.5305 44.3353 23.5305 43.4353 23.5305H40.6753ZM50.9103 30.0005C51.1903 29.2338 51.4803 28.4272 51.7803 27.5805C52.087 26.7338 52.3803 25.9305 52.6603 25.1705L54.4303 20.2705C54.7436 19.3905 55.0303 18.5972 55.2903 17.8905C55.5503 17.1772 55.8103 16.4605 56.0703 15.7405H58.4503C58.7103 16.4738 58.967 17.1938 59.2203 17.9005C59.4736 18.6072 59.757 19.4005 60.0703 20.2805L61.8303 25.1905C62.1103 25.9772 62.397 26.7872 62.6903 27.6205C62.9903 28.4472 63.277 29.2405 63.5503 30.0005H61.6703C61.3836 29.1672 61.087 28.3105 60.7803 27.4305C60.4803 26.5438 60.197 25.7105 59.9303 24.9305L57.3303 17.3705H57.1603L54.5403 24.8605C54.2536 25.6738 53.957 26.5272 53.6503 27.4205C53.3436 28.3072 53.0403 29.1672 52.7403 30.0005H50.9103ZM53.5503 26.4205L53.7103 25.0005H60.9303L61.0603 26.4205H53.5503ZM66.9789 30.0005C66.9789 29.2072 66.9789 28.4438 66.9789 27.7105C66.9789 26.9772 66.9789 26.1705 66.9789 25.2905V20.5005C66.9789 19.6138 66.9789 18.7972 66.9789 18.0505C66.9789 17.3038 66.9789 16.5338 66.9789 15.7405C67.3589 15.7405 67.7956 15.7405 68.2889 15.7405C68.7889 15.7405 69.3322 15.7405 69.9189 15.7405C70.5122 15.7405 71.1389 15.7405 71.7989 15.7405C72.8856 15.7405 73.7889 15.8705 74.5089 16.1305C75.2356 16.3838 75.7789 16.7938 76.1389 17.3605C76.5056 17.9272 76.6889 18.6738 76.6889 19.6005C76.6889 20.3805 76.5356 21.0938 76.2289 21.7405C75.9289 22.3872 75.4256 22.9072 74.7189 23.3005C74.0122 23.6872 73.0556 23.8838 71.8489 23.8905L72.4189 23.1005L74.6689 25.9105C75.0222 26.3438 75.3956 26.8072 75.7889 27.3005C76.1822 27.7938 76.5656 28.2772 76.9389 28.7505C77.3122 29.2172 77.6456 29.6338 77.9389 30.0005H75.8189C75.3456 29.4005 74.8889 28.8205 74.4489 28.2605C74.0156 27.7005 73.5856 27.1538 73.1589 26.6205L70.5989 23.3205L71.7089 24.2105H68.4389V22.7205H71.1489C71.9822 22.7205 72.6689 22.6238 73.2089 22.4305C73.7489 22.2372 74.1522 21.9272 74.4189 21.5005C74.6856 21.0672 74.8189 20.4938 74.8189 19.7805C74.8189 19.1872 74.7222 18.7205 74.5289 18.3805C74.3422 18.0338 74.0922 17.7805 73.7789 17.6205C73.4722 17.4605 73.1389 17.3572 72.7789 17.3105C72.4189 17.2638 72.0722 17.2405 71.7389 17.2405H67.5389L68.7489 16.0005C68.7489 16.8205 68.7489 17.6005 68.7489 18.3405C68.7489 19.0805 68.7489 19.8872 68.7489 20.7605V25.2905C68.7489 26.1705 68.7489 26.9772 68.7489 27.7105C68.7489 28.4438 68.7489 29.2072 68.7489 30.0005H66.9789ZM81.3773 30.0005C81.3773 29.2072 81.3773 28.4438 81.3773 27.7105C81.3773 26.9772 81.3773 26.1705 81.3773 25.2905V20.5105C81.3773 19.6105 81.3773 18.7905 81.3773 18.0505C81.3773 17.3038 81.3773 16.5338 81.3773 15.7405H83.0073C83.8607 16.9405 84.6807 18.0972 85.4673 19.2105C86.254 20.3238 87.0307 21.4205 87.7973 22.5005L90.8873 26.8605H91.0373V20.5105C91.0373 19.6105 91.0373 18.7905 91.0373 18.0505C91.0373 17.3038 91.0373 16.5338 91.0373 15.7405H92.7573C92.7573 16.5338 92.7573 17.3038 92.7573 18.0505C92.7573 18.7905 92.7573 19.6105 92.7573 20.5105V25.2905C92.7573 26.1705 92.7573 26.9772 92.7573 27.7105C92.7573 28.4438 92.7573 29.2072 92.7573 30.0005H91.1473C90.4407 29.0005 89.6973 27.9505 88.9173 26.8505C88.1373 25.7438 87.2807 24.5305 86.3473 23.2105L83.2373 18.8205H83.0973V25.2905C83.0973 26.1705 83.0973 26.9772 83.0973 27.7105C83.0973 28.4438 83.0973 29.2072 83.0973 30.0005H81.3773ZM101.774 30.0005C101.867 29.2272 101.96 28.4638 102.054 27.7105C102.154 26.9572 102.257 26.1372 102.364 25.2505L102.954 20.5505C103.06 19.6772 103.16 18.8638 103.254 18.1105C103.347 17.3572 103.447 16.5672 103.554 15.7405H105.374C105.787 16.7538 106.187 17.7338 106.574 18.6805C106.96 19.6205 107.344 20.5572 107.724 21.4905L109.984 27.0305H110.124L112.364 21.5005C112.744 20.5538 113.124 19.6138 113.504 18.6805C113.884 17.7472 114.277 16.7672 114.684 15.7405H116.504C116.604 16.5538 116.697 17.3372 116.784 18.0905C116.877 18.8438 116.98 19.6605 117.094 20.5405L117.674 25.2905C117.78 26.1572 117.88 26.9638 117.974 27.7105C118.067 28.4505 118.16 29.2138 118.254 30.0005H116.524C116.37 28.7338 116.224 27.5305 116.084 26.3905C115.944 25.2505 115.814 24.1872 115.694 23.2005L115.174 18.9405H115.044L113.234 23.5305C112.794 24.6438 112.354 25.7605 111.914 26.8805C111.474 27.9938 111.064 29.0338 110.684 30.0005H109.454C109.214 29.3938 108.947 28.7272 108.654 28.0005C108.36 27.2738 108.057 26.5305 107.744 25.7705C107.437 25.0105 107.137 24.2738 106.844 23.5605L104.974 18.9405H104.844L104.324 23.1905C104.204 24.1838 104.074 25.2505 103.934 26.3905C103.8 27.5305 103.657 28.7338 103.504 30.0005H101.774ZM128.443 30.2205C127.236 30.2205 126.18 30.0272 125.273 29.6405C124.366 29.2472 123.61 28.7105 123.003 28.0305C122.403 27.3438 121.953 26.5572 121.653 25.6705C121.353 24.7838 121.203 23.8472 121.203 22.8605C121.203 21.4738 121.483 20.2238 122.043 19.1105C122.61 17.9972 123.426 17.1138 124.493 16.4605C125.56 15.8072 126.856 15.4805 128.383 15.4805C129.543 15.4805 130.566 15.6705 131.453 16.0505C132.346 16.4305 133.096 16.9572 133.703 17.6305C134.31 18.3038 134.766 19.0872 135.073 19.9805C135.38 20.8738 135.533 21.8305 135.533 22.8505C135.533 24.2572 135.253 25.5172 134.693 26.6305C134.133 27.7372 133.323 28.6138 132.263 29.2605C131.203 29.9005 129.93 30.2205 128.443 30.2205ZM128.393 28.6605C129.306 28.6605 130.093 28.5038 130.753 28.1905C131.413 27.8705 131.956 27.4372 132.383 26.8905C132.816 26.3438 133.136 25.7238 133.343 25.0305C133.55 24.3305 133.653 23.6038 133.653 22.8505C133.653 22.0372 133.54 21.2805 133.313 20.5805C133.093 19.8738 132.76 19.2572 132.313 18.7305C131.873 18.1972 131.326 17.7838 130.673 17.4905C130.02 17.1905 129.26 17.0405 128.393 17.0405C127.5 17.0405 126.72 17.1972 126.053 17.5105C125.393 17.8238 124.843 18.2538 124.403 18.8005C123.963 19.3405 123.633 19.9605 123.413 20.6605C123.193 21.3538 123.083 22.0838 123.083 22.8505C123.083 23.6238 123.19 24.3572 123.403 25.0505C123.616 25.7438 123.94 26.3638 124.373 26.9105C124.813 27.4505 125.366 27.8772 126.033 28.1905C126.7 28.5038 127.486 28.6605 128.393 28.6605ZM139.401 30.0005C139.401 29.2072 139.401 28.4438 139.401 27.7105C139.401 26.9772 139.401 26.1705 139.401 25.2905V20.5005C139.401 19.6138 139.401 18.7972 139.401 18.0505C139.401 17.3038 139.401 16.5338 139.401 15.7405C139.781 15.7405 140.217 15.7405 140.711 15.7405C141.211 15.7405 141.754 15.7405 142.341 15.7405C142.934 15.7405 143.561 15.7405 144.221 15.7405C145.307 15.7405 146.211 15.8705 146.931 16.1305C147.657 16.3838 148.201 16.7938 148.561 17.3605C148.927 17.9272 149.111 18.6738 149.111 19.6005C149.111 20.3805 148.957 21.0938 148.651 21.7405C148.351 22.3872 147.847 22.9072 147.141 23.3005C146.434 23.6872 145.477 23.8838 144.271 23.8905L144.841 23.1005L147.091 25.9105C147.444 26.3438 147.817 26.8072 148.211 27.3005C148.604 27.7938 148.987 28.2772 149.361 28.7505C149.734 29.2172 150.067 29.6338 150.361 30.0005H148.241C147.767 29.4005 147.311 28.8205 146.871 28.2605C146.437 27.7005 146.007 27.1538 145.581 26.6205L143.021 23.3205L144.131 24.2105H140.861V22.7205H143.571C144.404 22.7205 145.091 22.6238 145.631 22.4305C146.171 22.2372 146.574 21.9272 146.841 21.5005C147.107 21.0672 147.241 20.4938 147.241 19.7805C147.241 19.1872 147.144 18.7205 146.951 18.3805C146.764 18.0338 146.514 17.7805 146.201 17.6205C145.894 17.4605 145.561 17.3572 145.201 17.3105C144.841 17.2638 144.494 17.2405 144.161 17.2405H139.961L141.171 16.0005C141.171 16.8205 141.171 17.6005 141.171 18.3405C141.171 19.0805 141.171 19.8872 141.171 20.7605V25.2905C141.171 26.1705 141.171 26.9772 141.171 27.7105C141.171 28.4438 141.171 29.2072 141.171 30.0005H139.401ZM153.799 30.0005C153.799 29.2072 153.799 28.4438 153.799 27.7105C153.799 26.9772 153.799 26.1705 153.799 25.2905V20.5005C153.799 19.6138 153.799 18.7972 153.799 18.0505C153.799 17.3038 153.799 16.5338 153.799 15.7405H162.659V17.2905C161.993 17.2905 161.276 17.2905 160.509 17.2905C159.749 17.2905 158.849 17.2905 157.809 17.2905H154.569L155.569 16.0005C155.569 16.8005 155.569 17.5738 155.569 18.3205C155.569 19.0605 155.569 19.8738 155.569 20.7605V25.0205C155.569 25.8938 155.569 26.7005 155.569 27.4405C155.569 28.1738 155.569 28.9372 155.569 29.7305L154.669 28.4505H157.969C158.843 28.4505 159.666 28.4505 160.439 28.4505C161.219 28.4505 161.966 28.4505 162.679 28.4505V30.0005H153.799ZM155.179 23.5305V22.0205H157.949C158.869 22.0205 159.663 22.0205 160.329 22.0205C160.996 22.0205 161.639 22.0205 162.259 22.0205V23.5305C161.606 23.5305 160.946 23.5305 160.279 23.5305C159.619 23.5305 158.839 23.5305 157.939 23.5305H155.179Z" fill="#161616"/>
</g>
</svg>
