<svg width="300" height="36" viewBox="0 0 300 36" fill="none" xmlns="http://www.w3.org/2000/svg">
<g opacity="0.5">
<rect x="0.5" y="0.500488" width="299" height="35" rx="17.5" stroke="#121212"/>
<path d="M102.295 23.5005C102.295 22.9452 102.295 22.4108 102.295 21.8975C102.295 21.3842 102.295 20.8195 102.295 20.2035V16.8575C102.295 16.2275 102.295 15.6535 102.295 15.1355C102.295 14.6128 102.295 14.0738 102.295 13.5185H103.562C103.562 14.0738 103.562 14.6128 103.562 15.1355C103.562 15.6535 103.562 16.2275 103.562 16.8575V20.0075C103.562 20.6235 103.562 21.1882 103.562 21.7015C103.562 22.2148 103.562 22.7492 103.562 23.3045L103.086 22.3735H104.92C105.452 22.3735 105.921 22.3735 106.327 22.3735C106.738 22.3735 107.116 22.3735 107.461 22.3735C107.811 22.3735 108.168 22.3735 108.532 22.3735V23.5005H102.295ZM111.007 23.5005C111.007 22.9452 111.007 22.4108 111.007 21.8975C111.007 21.3842 111.007 20.8195 111.007 20.2035V16.8505C111.007 16.2298 111.007 15.6582 111.007 15.1355C111.007 14.6128 111.007 14.0738 111.007 13.5185H117.209V14.6035C116.742 14.6035 116.24 14.6035 115.704 14.6035C115.172 14.6035 114.542 14.6035 113.814 14.6035H111.546L112.246 13.7005C112.246 14.2605 112.246 14.8018 112.246 15.3245C112.246 15.8425 112.246 16.4118 112.246 17.0325V20.0145C112.246 20.6258 112.246 21.1905 112.246 21.7085C112.246 22.2218 112.246 22.7562 112.246 23.3115L111.616 22.4155H113.926C114.537 22.4155 115.113 22.4155 115.655 22.4155C116.201 22.4155 116.723 22.4155 117.223 22.4155V23.5005H111.007ZM111.973 18.9715V17.9145H113.912C114.556 17.9145 115.111 17.9145 115.578 17.9145C116.044 17.9145 116.495 17.9145 116.929 17.9145V18.9715C116.471 18.9715 116.009 18.9715 115.543 18.9715C115.081 18.9715 114.535 18.9715 113.905 18.9715H111.973ZM119.137 23.5005C119.333 22.9638 119.536 22.3992 119.746 21.8065C119.961 21.2138 120.166 20.6515 120.362 20.1195L121.601 16.6895C121.821 16.0735 122.021 15.5182 122.203 15.0235C122.385 14.5242 122.567 14.0225 122.749 13.5185H124.415C124.597 14.0318 124.777 14.5358 124.954 15.0305C125.132 15.5252 125.33 16.0805 125.549 16.6965L126.781 20.1335C126.977 20.6842 127.178 21.2512 127.383 21.8345C127.593 22.4132 127.794 22.9685 127.985 23.5005H126.669C126.469 22.9172 126.261 22.3175 126.046 21.7015C125.836 21.0808 125.638 20.4975 125.451 19.9515L123.631 14.6595H123.512L121.678 19.9025C121.478 20.4718 121.27 21.0692 121.055 21.6945C120.841 22.3152 120.628 22.9172 120.418 23.5005H119.137ZM120.985 20.9945L121.097 20.0005H126.151L126.242 20.9945H120.985ZM130.385 23.5005C130.385 22.9452 130.385 22.4108 130.385 21.8975C130.385 21.3842 130.385 20.8195 130.385 20.2035V16.8505C130.385 16.2298 130.385 15.6582 130.385 15.1355C130.385 14.6128 130.385 14.0738 130.385 13.5185C130.651 13.5185 130.957 13.5185 131.302 13.5185C131.652 13.5185 132.033 13.5185 132.443 13.5185C132.859 13.5185 133.297 13.5185 133.759 13.5185C134.52 13.5185 135.152 13.6095 135.656 13.7915C136.165 13.9688 136.545 14.2558 136.797 14.6525C137.054 15.0492 137.182 15.5718 137.182 16.2205C137.182 16.7665 137.075 17.2658 136.86 17.7185C136.65 18.1712 136.298 18.5352 135.803 18.8105C135.309 19.0812 134.639 19.2188 133.794 19.2235L134.193 18.6705L135.768 20.6375C136.016 20.9408 136.277 21.2652 136.552 21.6105C136.828 21.9558 137.096 22.2942 137.357 22.6255C137.619 22.9522 137.852 23.2438 138.057 23.5005H136.573C136.242 23.0805 135.922 22.6745 135.614 22.2825C135.311 21.8905 135.01 21.5078 134.711 21.1345L132.919 18.8245L133.696 19.4475H131.407V18.4045H133.304C133.888 18.4045 134.368 18.3368 134.746 18.2015C135.124 18.0662 135.407 17.8492 135.593 17.5505C135.78 17.2472 135.873 16.8458 135.873 16.3465C135.873 15.9312 135.806 15.6045 135.67 15.3665C135.54 15.1238 135.365 14.9465 135.145 14.8345C134.931 14.7225 134.697 14.6502 134.445 14.6175C134.193 14.5848 133.951 14.5685 133.717 14.5685H130.777L131.624 13.7005C131.624 14.2745 131.624 14.8205 131.624 15.3385C131.624 15.8565 131.624 16.4212 131.624 17.0325V20.2035C131.624 20.8195 131.624 21.3842 131.624 21.8975C131.624 22.4108 131.624 22.9452 131.624 23.5005H130.385ZM140.464 23.5005C140.464 22.9452 140.464 22.4108 140.464 21.8975C140.464 21.3842 140.464 20.8195 140.464 20.2035V16.8575C140.464 16.2275 140.464 15.6535 140.464 15.1355C140.464 14.6128 140.464 14.0738 140.464 13.5185H141.605C142.202 14.3585 142.776 15.1682 143.327 15.9475C143.878 16.7268 144.421 17.4945 144.958 18.2505L147.121 21.3025H147.226V16.8575C147.226 16.2275 147.226 15.6535 147.226 15.1355C147.226 14.6128 147.226 14.0738 147.226 13.5185H148.43C148.43 14.0738 148.43 14.6128 148.43 15.1355C148.43 15.6535 148.43 16.2275 148.43 16.8575V20.2035C148.43 20.8195 148.43 21.3842 148.43 21.8975C148.43 22.4108 148.43 22.9452 148.43 23.5005H147.303C146.808 22.8005 146.288 22.0655 145.742 21.2955C145.196 20.5208 144.596 19.6715 143.943 18.7475L141.766 15.6745H141.668V20.2035C141.668 20.8195 141.668 21.3842 141.668 21.8975C141.668 22.4108 141.668 22.9452 141.668 23.5005H140.464ZM154.742 23.5005C154.807 22.9592 154.872 22.4248 154.938 21.8975C155.008 21.3702 155.08 20.7962 155.155 20.1755L155.568 16.8855C155.642 16.2742 155.712 15.7048 155.778 15.1775C155.843 14.6502 155.913 14.0972 155.988 13.5185H157.262C157.551 14.2278 157.831 14.9138 158.102 15.5765C158.372 16.2345 158.641 16.8902 158.907 17.5435L160.489 21.4215H160.587L162.155 17.5505C162.421 16.8878 162.687 16.2298 162.953 15.5765C163.219 14.9232 163.494 14.2372 163.779 13.5185H165.053C165.123 14.0878 165.188 14.6362 165.249 15.1635C165.314 15.6908 165.386 16.2625 165.466 16.8785L165.872 20.2035C165.946 20.8102 166.016 21.3748 166.082 21.8975C166.147 22.4155 166.212 22.9498 166.278 23.5005H165.067C164.959 22.6138 164.857 21.7715 164.759 20.9735C164.661 20.1755 164.57 19.4312 164.486 18.7405L164.122 15.7585H164.031L162.764 18.9715C162.456 19.7508 162.148 20.5325 161.84 21.3165C161.532 22.0958 161.245 22.8238 160.979 23.5005H160.118C159.95 23.0758 159.763 22.6092 159.558 22.1005C159.352 21.5918 159.14 21.0715 158.921 20.5395C158.706 20.0075 158.496 19.4918 158.291 18.9925L156.982 15.7585H156.891L156.527 18.7335C156.443 19.4288 156.352 20.1755 156.254 20.9735C156.16 21.7715 156.06 22.6138 155.953 23.5005H154.742ZM173.41 23.6545C172.566 23.6545 171.826 23.5192 171.191 23.2485C170.557 22.9732 170.027 22.5975 169.602 22.1215C169.182 21.6408 168.867 21.0902 168.657 20.4695C168.447 19.8488 168.342 19.1932 168.342 18.5025C168.342 17.5318 168.538 16.6568 168.93 15.8775C169.327 15.0982 169.899 14.4798 170.645 14.0225C171.392 13.5652 172.3 13.3365 173.368 13.3365C174.18 13.3365 174.897 13.4695 175.517 13.7355C176.143 14.0015 176.668 14.3702 177.092 14.8415C177.517 15.3128 177.837 15.8612 178.051 16.4865C178.266 17.1118 178.373 17.7815 178.373 18.4955C178.373 19.4802 178.177 20.3622 177.785 21.1415C177.393 21.9162 176.826 22.5298 176.084 22.9825C175.342 23.4305 174.451 23.6545 173.41 23.6545ZM173.375 22.5625C174.015 22.5625 174.565 22.4528 175.027 22.2335C175.489 22.0095 175.87 21.7062 176.168 21.3235C176.472 20.9408 176.696 20.5068 176.84 20.0215C176.985 19.5315 177.057 19.0228 177.057 18.4955C177.057 17.9262 176.978 17.3965 176.819 16.9065C176.665 16.4118 176.432 15.9802 176.119 15.6115C175.811 15.2382 175.429 14.9488 174.971 14.7435C174.514 14.5335 173.982 14.4285 173.375 14.4285C172.75 14.4285 172.204 14.5382 171.737 14.7575C171.275 14.9768 170.89 15.2778 170.582 15.6605C170.274 16.0385 170.043 16.4725 169.889 16.9625C169.735 17.4478 169.658 17.9588 169.658 18.4955C169.658 19.0368 169.733 19.5502 169.882 20.0355C170.032 20.5208 170.258 20.9548 170.561 21.3375C170.869 21.7155 171.257 22.0142 171.723 22.2335C172.19 22.4528 172.741 22.5625 173.375 22.5625ZM181.081 23.5005C181.081 22.9452 181.081 22.4108 181.081 21.8975C181.081 21.3842 181.081 20.8195 181.081 20.2035V16.8505C181.081 16.2298 181.081 15.6582 181.081 15.1355C181.081 14.6128 181.081 14.0738 181.081 13.5185C181.347 13.5185 181.652 13.5185 181.998 13.5185C182.348 13.5185 182.728 13.5185 183.139 13.5185C183.554 13.5185 183.993 13.5185 184.455 13.5185C185.215 13.5185 185.848 13.6095 186.352 13.7915C186.86 13.9688 187.241 14.2558 187.493 14.6525C187.749 15.0492 187.878 15.5718 187.878 16.2205C187.878 16.7665 187.77 17.2658 187.556 17.7185C187.346 18.1712 186.993 18.5352 186.499 18.8105C186.004 19.0812 185.334 19.2188 184.49 19.2235L184.889 18.6705L186.464 20.6375C186.711 20.9408 186.972 21.2652 187.248 21.6105C187.523 21.9558 187.791 22.2942 188.053 22.6255C188.314 22.9522 188.547 23.2438 188.753 23.5005H187.269C186.937 23.0805 186.618 22.6745 186.31 22.2825C186.006 21.8905 185.705 21.5078 185.407 21.1345L183.615 18.8245L184.392 19.4475H182.103V18.4045H184C184.583 18.4045 185.064 18.3368 185.442 18.2015C185.82 18.0662 186.102 17.8492 186.289 17.5505C186.475 17.2472 186.569 16.8458 186.569 16.3465C186.569 15.9312 186.501 15.6045 186.366 15.3665C186.235 15.1238 186.06 14.9465 185.841 14.8345C185.626 14.7225 185.393 14.6502 185.141 14.6175C184.889 14.5848 184.646 14.5685 184.413 14.5685H181.473L182.32 13.7005C182.32 14.2745 182.32 14.8205 182.32 15.3385C182.32 15.8565 182.32 16.4212 182.32 17.0325V20.2035C182.32 20.8195 182.32 21.3842 182.32 21.8975C182.32 22.4108 182.32 22.9452 182.32 23.5005H181.081ZM191.159 23.5005C191.159 22.9452 191.159 22.4108 191.159 21.8975C191.159 21.3842 191.159 20.8195 191.159 20.2035V16.8505C191.159 16.2298 191.159 15.6582 191.159 15.1355C191.159 14.6128 191.159 14.0738 191.159 13.5185H197.361V14.6035C196.895 14.6035 196.393 14.6035 195.856 14.6035C195.324 14.6035 194.694 14.6035 193.966 14.6035H191.698L192.398 13.7005C192.398 14.2605 192.398 14.8018 192.398 15.3245C192.398 15.8425 192.398 16.4118 192.398 17.0325V20.0145C192.398 20.6258 192.398 21.1905 192.398 21.7085C192.398 22.2218 192.398 22.7562 192.398 23.3115L191.768 22.4155H194.078C194.69 22.4155 195.266 22.4155 195.807 22.4155C196.353 22.4155 196.876 22.4155 197.375 22.4155V23.5005H191.159ZM192.125 18.9715V17.9145H194.064C194.708 17.9145 195.264 17.9145 195.73 17.9145C196.197 17.9145 196.647 17.9145 197.081 17.9145V18.9715C196.624 18.9715 196.162 18.9715 195.695 18.9715C195.233 18.9715 194.687 18.9715 194.057 18.9715H192.125Z" fill="#161616"/>
</g>
</svg>
