<svg width="45" height="120" viewBox="0 0 45 120" fill="none" xmlns="http://www.w3.org/2000/svg">
<g clip-path="url(#clip0_290_924)">
<rect y="120" width="120" height="45" rx="22.5" transform="rotate(-90 0 120)" fill="#121212"/>
<path d="M23.1315 48.047C23.7459 49.325 24.5691 50.4921 25.5682 51.4987C26.7411 52.6804 28.1336 53.6178 29.6661 54.2573C31.1986 54.8969 32.8412 55.2261 34.5 55.2261L34.5 53.9535C33.0071 53.9535 31.5288 53.6572 30.1495 53.0816C28.7702 52.506 27.517 51.6624 26.4613 50.5988C25.4057 49.5353 24.5683 48.2726 23.997 46.883C23.4257 45.4934 23.1316 44.0041 23.1316 42.5L21.8685 42.5C21.8685 44.0041 21.5743 45.4934 21.003 46.883C20.4317 48.2726 19.5943 49.5353 18.5387 50.5988C17.483 51.6624 16.2298 52.506 14.8505 53.0816C13.4712 53.6572 11.9929 53.9535 10.5 53.9535L10.5 55.2261C12.1588 55.2261 13.8013 54.8969 15.3339 54.2573C16.8664 53.6178 18.2589 52.6804 19.4318 51.4987C20.4309 50.4921 21.254 49.3251 21.8684 48.0471L21.8684 77.5L23.1315 77.5L23.1315 48.047Z" fill="#FAFAFA"/>
</g>
<defs>
<clipPath id="clip0_290_924">
<rect y="120" width="120" height="45" rx="22.5" transform="rotate(-90 0 120)" fill="white"/>
</clipPath>
</defs>
</svg>
