<svg width="27" height="18" viewBox="0 0 27 18" fill="none" xmlns="http://www.w3.org/2000/svg">
<path d="M1.379 14C1.379 13.44 1.379 12.901 1.379 12.383C1.379 11.865 1.379 11.3003 1.379 10.689V7.35C1.379 6.72933 1.379 6.16 1.379 5.642C1.379 5.11933 1.379 4.578 1.379 4.018H2.366C2.366 4.578 2.366 5.11933 2.366 5.642C2.366 6.16 2.366 6.72933 2.366 7.35V10.542C2.366 11.1533 2.366 11.718 2.366 12.236C2.366 12.754 2.366 13.293 2.366 13.853L1.974 13.111H3.773C4.319 13.111 4.802 13.111 5.222 13.111C5.642 13.111 6.02933 13.111 6.384 13.111C6.74333 13.111 7.10967 13.111 7.483 13.111V14H1.379ZM9.29338 14C9.29338 13.482 9.29338 12.9827 9.29338 12.502C9.29338 12.0213 9.29338 11.4963 9.29338 10.927V10.227C9.29338 9.82567 9.29338 9.45 9.29338 9.1C9.29338 8.75 9.29338 8.40933 9.29338 8.078C9.29338 7.74667 9.29338 7.40833 9.29338 7.063L10.1894 7.035C10.1894 7.38033 10.1894 7.721 10.1894 8.057C10.1894 8.38833 10.1894 8.73133 10.1894 9.086C10.1894 9.436 10.1894 9.81633 10.1894 10.227V10.927C10.1894 11.4963 10.1894 12.0213 10.1894 12.502C10.1894 12.9827 10.1894 13.482 10.1894 14H9.29338ZM9.71338 5.32C9.49871 5.32 9.32138 5.257 9.18138 5.131C9.04604 5.005 8.97838 4.81133 8.97838 4.55C8.97838 4.29333 9.04604 4.102 9.18138 3.976C9.32138 3.84533 9.50338 3.78 9.72738 3.78C9.95138 3.78 10.131 3.84767 10.2664 3.983C10.4017 4.11367 10.4694 4.30267 10.4694 4.55C10.4694 4.81133 10.4017 5.005 10.2664 5.131C10.131 5.257 9.94671 5.32 9.71338 5.32ZM12.793 14C12.793 13.482 12.793 12.9827 12.793 12.502C12.793 12.0213 12.793 11.4963 12.793 10.927V10.227C12.793 9.71833 12.793 9.19567 12.793 8.659C12.793 8.12233 12.793 7.59033 12.793 7.063L13.598 7.007L13.626 8.309H13.738C13.8827 8.10367 14.0717 7.89367 14.305 7.679C14.543 7.46433 14.823 7.28233 15.145 7.133C15.4717 6.98367 15.845 6.909 16.265 6.909C17.0164 6.909 17.5577 7.12367 17.889 7.553C18.225 7.97767 18.393 8.59133 18.393 9.394C18.393 9.69733 18.393 9.961 18.393 10.185C18.393 10.409 18.393 10.6563 18.393 10.927C18.393 11.473 18.393 11.9933 18.393 12.488C18.393 12.978 18.393 13.482 18.393 14H17.49C17.49 13.482 17.49 12.978 17.49 12.488C17.49 11.998 17.49 11.4893 17.49 10.962V9.59C17.49 8.99267 17.3827 8.54233 17.168 8.239C16.9534 7.931 16.5637 7.777 15.999 7.777C15.6537 7.777 15.341 7.847 15.061 7.987C14.781 8.12233 14.529 8.30667 14.305 8.54C14.081 8.76867 13.878 9.023 13.696 9.303V10.962C13.696 11.5127 13.696 12.0283 13.696 12.509C13.696 12.985 13.696 13.482 13.696 14H12.793ZM25.4321 14C25.0914 13.6733 24.7461 13.349 24.3961 13.027C24.0508 12.7003 23.7054 12.376 23.3601 12.054L22.0511 10.822H21.5681V10.143H22.1281L23.2201 9.065C23.5608 8.729 23.8991 8.39533 24.2351 8.064C24.5758 7.728 24.9118 7.39433 25.2431 7.063H26.3981C25.9781 7.469 25.5604 7.875 25.1451 8.281C24.7298 8.68233 24.3168 9.08367 23.9061 9.485L22.6811 10.675L22.6531 10.22L24.0671 11.578C24.4964 11.9793 24.9281 12.383 25.3621 12.789C25.7961 13.195 26.2278 13.5987 26.6571 14H25.4321ZM20.7911 14C20.7911 13.482 20.7911 12.9827 20.7911 12.502C20.7911 12.0213 20.7911 11.4963 20.7911 10.927V7.084C20.7911 6.496 20.7911 5.92667 20.7911 5.376C20.7911 4.82067 20.7911 4.28167 20.7911 3.759L21.6941 3.626C21.6941 4.186 21.6941 4.75067 21.6941 5.32C21.6941 5.88467 21.6941 6.47267 21.6941 7.084V11.046C21.6941 11.5827 21.6941 12.0843 21.6941 12.551C21.6941 13.013 21.6941 13.496 21.6941 14H20.7911Z" fill="white" fill-opacity="0.6"/>
<rect y="17" width="27" height="1" fill="white" fill-opacity="0.6"/>
</svg>
