<svg width="130" height="63" viewBox="0 0 130 63" fill="none" xmlns="http://www.w3.org/2000/svg">
<rect x="0.5" y="0.5" width="129" height="62" rx="4.5" stroke="#9747FF" stroke-dasharray="10 5"/>
<path fill-rule="evenodd" clip-rule="evenodd" d="M14.4147 29.9993C13.8624 29.9996 13.4145 30.4475 13.4142 30.9998C13.414 31.5521 13.8615 31.9996 14.4138 31.9993L24.0396 31.9949L24.0352 41.6181C24.0349 42.1704 24.4824 42.6179 25.0347 42.6177C25.587 42.6174 26.0349 42.1695 26.0352 41.6172L26.0396 31.994L35.6601 31.9895C36.2124 31.9893 36.6603 31.5413 36.6605 30.9891C36.6608 30.4368 36.2133 29.9893 35.661 29.9895L26.0405 29.994L26.045 20.3709C26.0452 19.8186 25.5977 19.3711 25.0454 19.3714C24.4932 19.3716 24.0452 19.8195 24.045 20.3718L24.0405 29.9949L14.4147 29.9993Z" fill="#0C0C0E" fill-opacity="0.3"/>
<path fill-rule="evenodd" clip-rule="evenodd" d="M52.4147 29.9993C51.8624 29.9996 51.4145 30.4475 51.4142 30.9998C51.414 31.5521 51.8615 31.9996 52.4138 31.9993L62.0396 31.9949L62.0352 41.6181C62.0349 42.1704 62.4824 42.6179 63.0347 42.6177C63.587 42.6174 64.0349 42.1695 64.0352 41.6172L64.0396 31.994L73.6601 31.9895C74.2124 31.9893 74.6603 31.5413 74.6605 30.9891C74.6608 30.4368 74.2133 29.9893 73.661 29.9895L64.0405 29.994L64.045 20.3709C64.0452 19.8186 63.5977 19.3711 63.0454 19.3714C62.4932 19.3716 62.0452 19.8195 62.045 20.3718L62.0405 29.9949L52.4147 29.9993Z" fill="#121212"/>
<path fill-rule="evenodd" clip-rule="evenodd" d="M93.7074 22.2928C93.3167 21.9024 92.6832 21.9024 92.2925 22.2928C91.9018 22.6831 91.9018 23.316 92.2925 23.7063L99.1033 30.5108L92.2964 37.3113C91.9057 37.7017 91.9057 38.3345 92.2964 38.7249C92.6872 39.1152 93.3206 39.1152 93.7113 38.7249L100.518 31.9243L107.323 38.7228C107.714 39.1131 108.347 39.1131 108.738 38.7228C109.128 38.3324 109.128 37.6996 108.738 37.3092L101.933 30.5108L108.742 23.7084C109.132 23.3181 109.132 22.6852 108.742 22.2948C108.351 21.9045 107.718 21.9045 107.327 22.2948L100.518 29.0972L93.7074 22.2928Z" fill="#121212"/>
</svg>
