<svg viewBox="0 0 649 67" fill="none" xmlns="http://www.w3.org/2000/svg">
<path d="M35.1893 3.44C35.0027 5.07333 34.8627 6.66 34.7693 8.2C34.7227 9.74 34.6993 10.9067 34.6993 11.7C34.6993 12.54 34.7227 13.3567 34.7693 14.15C34.816 14.8967 34.8627 15.5267 34.9093 16.04H33.2993C33.0193 13.2867 32.6227 11.1167 32.1093 9.53C31.596 7.89666 30.7093 6.75333 29.4493 6.1C28.236 5.4 26.3927 5.05 23.9193 5.05H18.1093C16.5227 5.05 15.3093 5.19 14.4693 5.47C13.676 5.70333 13.1393 6.24 12.8593 7.08C12.5793 7.87333 12.4393 9.13333 12.4393 10.86V45.58C12.4393 47.26 12.5793 48.52 12.8593 49.36C13.1393 50.2 13.676 50.76 14.4693 51.04C15.3093 51.2733 16.5227 51.39 18.1093 51.39H23.2193C26.1593 51.39 28.376 50.9933 29.8693 50.2C31.4093 49.4067 32.506 48.1233 33.1593 46.35C33.8593 44.53 34.3727 42.08 34.6993 39H36.3093C36.1693 40.26 36.0993 41.94 36.0993 44.04C36.0993 44.9267 36.1227 46.21 36.1693 47.89C36.2627 49.5233 36.4027 51.2267 36.5893 53C34.2093 52.9067 31.526 52.86 28.5393 52.86C25.5527 52.8133 22.8927 52.79 20.5593 52.79C19.1593 52.79 17.2927 52.79 14.9593 52.79C12.6727 52.79 10.2227 52.8133 7.60934 52.86C4.996 52.86 2.546 52.9067 0.259336 53V51.6C1.846 51.5067 3.036 51.32 3.82934 51.04C4.66934 50.76 5.22934 50.2 5.50934 49.36C5.78934 48.52 5.92934 47.26 5.92934 45.58V10.86C5.92934 9.13333 5.78934 7.87333 5.50934 7.08C5.22934 6.24 4.66934 5.68 3.82934 5.4C3.036 5.07333 1.846 4.88666 0.259336 4.84V3.44C2.546 3.48667 4.996 3.53333 7.60934 3.58C10.2227 3.62666 12.6727 3.65 14.9593 3.65C17.2927 3.65 19.1593 3.65 20.5593 3.65C22.706 3.65 25.1327 3.65 27.8393 3.65C30.5927 3.60333 33.0427 3.53333 35.1893 3.44ZM23.1493 27.38C23.1493 27.38 23.1493 27.6133 23.1493 28.08C23.1493 28.5467 23.1493 28.78 23.1493 28.78H10.3393C10.3393 28.78 10.3393 28.5467 10.3393 28.08C10.3393 27.6133 10.3393 27.38 10.3393 27.38H23.1493ZM25.1793 18.14C24.9927 20.8 24.8993 22.83 24.8993 24.23C24.946 25.63 24.9693 26.9133 24.9693 28.08C24.9693 29.2467 24.9927 30.53 25.0393 31.93C25.086 33.33 25.2027 35.36 25.3893 38.02H23.7793C23.5927 36.5267 23.3593 35.08 23.0793 33.68C22.846 32.2333 22.286 31.0667 21.3993 30.18C20.5593 29.2467 19.1127 28.78 17.0593 28.78V27.38C19.1127 27.38 20.536 26.8433 21.3293 25.77C22.1693 24.6967 22.706 23.4367 22.9393 21.99C23.1727 20.5433 23.3827 19.26 23.5693 18.14H25.1793ZM86.8756 3.44V4.84C85.2889 4.88666 84.0756 5.12 83.2356 5.54C82.4423 5.96 81.9056 6.63666 81.6256 7.57C81.3456 8.50333 81.2056 9.83333 81.2056 11.56V53.35C80.9256 53.35 80.6456 53.35 80.3656 53.35C80.1323 53.35 79.8756 53.35 79.5956 53.35L50.1956 7.92V44.88C50.1956 46.56 50.3356 47.89 50.6156 48.87C50.9423 49.8033 51.5489 50.48 52.4356 50.9C53.3689 51.2733 54.7456 51.5067 56.5656 51.6V53C55.7256 52.9067 54.6289 52.86 53.2756 52.86C51.9223 52.8133 50.6389 52.79 49.4256 52.79C48.2589 52.79 47.0689 52.8133 45.8556 52.86C44.6889 52.86 43.7089 52.9067 42.9156 53V51.6C44.5023 51.5067 45.6923 51.2733 46.4856 50.9C47.3256 50.48 47.8856 49.8033 48.1656 48.87C48.4456 47.89 48.5856 46.56 48.5856 44.88V10.86C48.5856 9.13333 48.4456 7.87333 48.1656 7.08C47.8856 6.24 47.3256 5.68 46.4856 5.4C45.6923 5.07333 44.5023 4.88666 42.9156 4.84V3.44C43.7089 3.48667 44.6889 3.53333 45.8556 3.58C47.0689 3.62666 48.2589 3.65 49.4256 3.65C50.4523 3.65 51.4323 3.62666 52.3656 3.58C53.2989 3.53333 54.1389 3.48667 54.8856 3.44L79.5956 41.52V11.56C79.5956 9.83333 79.4323 8.50333 79.1056 7.57C78.8256 6.63666 78.2189 5.96 77.2856 5.54C76.3989 5.12 75.0456 4.88666 73.2256 4.84V3.44C74.0656 3.48667 75.1623 3.53333 76.5156 3.58C77.9156 3.62666 79.1989 3.65 80.3656 3.65C81.5789 3.65 82.7689 3.62666 83.9356 3.58C85.1489 3.53333 86.1289 3.48667 86.8756 3.44ZM87.9994 66.16V64.83C90.0994 64.7833 91.8494 64.27 93.2494 63.29C94.6961 62.31 95.7694 60.6767 96.4694 58.39C97.2161 56.15 97.5894 53.14 97.5894 49.36V10.86C97.5894 9.13333 97.4494 7.87333 97.1694 7.08C96.8894 6.24 96.3294 5.68 95.4894 5.4C94.6961 5.07333 93.5061 4.88666 91.9194 4.84V3.44C92.8994 3.48667 94.1827 3.53333 95.7694 3.58C97.3561 3.62666 99.0127 3.65 100.739 3.65C102.466 3.65 104.123 3.62666 105.709 3.58C107.343 3.53333 108.696 3.48667 109.769 3.44V4.84C108.183 4.88666 106.969 5.07333 106.129 5.4C105.336 5.68 104.799 6.24 104.519 7.08C104.239 7.87333 104.099 9.13333 104.099 10.86V36.48C104.099 38.3933 104.076 40.47 104.029 42.71C103.983 44.95 103.866 47.12 103.679 49.22C103.539 51.32 103.283 53.1633 102.909 54.75C102.116 58.0167 100.436 60.7233 97.8694 62.87C95.3494 65.0633 92.0594 66.16 87.9994 66.16ZM159.365 12.3222C160.713 13.5667 161.387 15.5111 161.387 18.1556C161.387 20.8 160.713 23.8593 159.365 27.3333C158.068 30.8074 156.176 34.3333 153.687 37.9111C151.25 41.437 148.476 44.7037 145.365 47.7111C142.254 50.7185 138.676 53.1815 134.631 55.1C130.639 57.0185 126.62 57.9778 122.576 57.9778C119.05 57.9778 116.38 56.9148 114.565 54.7889C112.802 52.7148 111.92 49.863 111.92 46.2333C111.92 43.0704 112.568 39.5963 113.865 35.8111C115.213 32.0259 117.131 28.2667 119.62 24.5333C122.161 20.8 125.039 17.4037 128.254 14.3444C131.52 11.2333 135.28 8.74444 139.531 6.87778C143.835 4.95926 148.217 4 152.676 4C155.009 4 156.772 4.54444 157.965 5.63333C159.209 6.72222 159.831 8.12222 159.831 9.83333C159.831 10.663 159.676 11.4926 159.365 12.3222ZM122.654 57.2C125.765 57.2 128.902 56.4741 132.065 55.0222C135.28 53.5704 138.209 51.6778 140.854 49.3444C143.498 47.0111 145.987 44.3667 148.32 41.4111C150.654 38.4556 152.598 35.4741 154.154 32.4667C155.761 29.4593 157.031 26.5815 157.965 23.8333C158.898 21.0333 159.365 18.6222 159.365 16.6C159.365 15.4074 159.183 14.3963 158.82 13.5667C157.835 15.5889 156.202 17.2741 153.92 18.6222C151.639 19.9185 148.943 20.5667 145.831 20.5667C143.706 20.5667 141.891 20.2296 140.387 19.5556C137.587 22.3556 135.28 25.3889 133.465 28.6556C131.65 31.8704 130.743 34.5148 130.743 36.5889C130.743 38.9222 131.78 40.1148 133.854 40.1667C135.202 40.1667 136.472 39.5704 137.665 38.3778C138.857 37.1333 139.531 35.863 139.687 34.5667C139.739 34.4111 139.765 34.2815 139.765 34.1778C139.765 33.8148 139.843 33.6593 139.998 33.7111C140.102 33.7111 140.18 33.763 140.231 33.8667C140.231 34.0222 140.154 34.1778 139.998 34.3333C139.894 34.4889 139.843 34.5667 139.843 34.5667C139.739 35.9667 139.091 37.263 137.898 38.4556C136.706 39.6481 135.357 40.2704 133.854 40.3222H133.776C132.168 40.2704 130.95 39.7778 130.12 38.8444C129.343 37.9111 128.954 36.6148 128.954 34.9556C128.954 32.5185 129.783 29.7185 131.443 26.5556C133.154 23.3407 135.383 20.4889 138.131 18C136.939 16.8074 136.42 15.2519 136.576 13.3333H136.654C136.498 15.2519 137.017 16.7815 138.209 17.9222C139.92 16.4185 141.709 15.1741 143.576 14.1889C147.724 12.0111 151.587 10.9222 155.165 10.9222C156.565 10.9222 157.757 11.2333 158.743 11.8556C158.95 11.0778 159.054 10.3259 159.054 9.6C159.054 8.0963 158.509 6.85185 157.42 5.86667C156.331 4.88148 154.724 4.38889 152.598 4.38889C148.709 4.38889 144.794 5.4 140.854 7.42222C136.965 9.44444 133.491 12.0889 130.431 15.3556C127.424 18.5704 124.702 22.0963 122.265 25.9333C119.88 29.7704 118.039 33.6074 116.743 37.4444C115.498 41.2815 114.876 44.7296 114.876 47.7889C114.876 50.6926 115.498 52.9741 116.743 54.6333C118.039 56.3444 120.009 57.2 122.654 57.2ZM158.354 12.7889C157.68 11.8037 156.694 11.3111 155.398 11.3111C150.783 11.3111 145.806 14.0074 140.465 19.4C141.813 19.9704 143.42 20.2556 145.287 20.2556C148.45 20.2556 151.198 19.5296 153.531 18.0778C155.865 16.6259 157.472 14.863 158.354 12.7889ZM196.389 3.44V4.84C195.503 5.02667 194.616 5.61 193.729 6.59C192.843 7.52333 191.863 9.01667 190.789 11.07L176.649 39.07H175.459L159.079 8.83C158.146 7.10333 157.353 6.03 156.699 5.61C156.093 5.14333 155.533 4.91 155.019 4.91V3.44C155.953 3.48667 156.909 3.53333 157.889 3.58C158.916 3.62666 160.013 3.65 161.179 3.65C162.719 3.65 164.353 3.65 166.079 3.65C167.853 3.60333 169.486 3.53333 170.979 3.44V4.91C169.813 4.91 168.786 5.05 167.899 5.33C167.013 5.61 166.429 6.12333 166.149 6.87C165.869 7.61667 166.079 8.66667 166.779 10.02L178.609 32.7L178.049 33.12L187.359 14.57C188.666 12.0033 189.296 10.02 189.249 8.62C189.249 7.22 188.713 6.26333 187.639 5.75C186.566 5.19 185.049 4.88666 183.089 4.84V3.44C184.443 3.48667 185.819 3.53333 187.219 3.58C188.619 3.62666 189.926 3.65 191.139 3.65C192.353 3.65 193.356 3.62666 194.149 3.58C194.943 3.53333 195.689 3.48667 196.389 3.44ZM179.799 31.72V45.58C179.799 47.26 179.939 48.52 180.219 49.36C180.499 50.2 181.036 50.76 181.829 51.04C182.669 51.32 183.883 51.5067 185.469 51.6V53C184.396 52.9067 183.043 52.86 181.409 52.86C179.823 52.8133 178.213 52.79 176.579 52.79C174.759 52.79 173.056 52.8133 171.469 52.86C169.883 52.86 168.599 52.9067 167.619 53V51.6C169.206 51.5067 170.396 51.32 171.189 51.04C172.029 50.76 172.589 50.2 172.869 49.36C173.149 48.52 173.289 47.26 173.289 45.58V31.23L177.069 35.57L179.799 31.72ZM251.494 3.44C251.307 5.21333 251.167 6.94 251.074 8.62C251.027 10.2533 251.004 11.5133 251.004 12.4C251.004 13.52 251.027 14.57 251.074 15.55C251.12 16.53 251.167 17.3933 251.214 18.14H249.604C249.277 14.8733 248.834 12.3067 248.274 10.44C247.714 8.52666 246.734 7.15 245.334 6.31C243.934 5.47 241.764 5.05 238.824 5.05H235.044V44.88C235.044 46.7467 235.207 48.1467 235.534 49.08C235.907 50.0133 236.607 50.6433 237.634 50.97C238.66 51.2967 240.154 51.5067 242.114 51.6V53C240.9 52.9067 239.36 52.86 237.494 52.86C235.627 52.8133 233.737 52.79 231.824 52.79C229.724 52.79 227.74 52.8133 225.874 52.86C224.054 52.86 222.584 52.9067 221.464 53V51.6C223.424 51.5067 224.917 51.2967 225.944 50.97C226.97 50.6433 227.647 50.0133 227.974 49.08C228.347 48.1467 228.534 46.7467 228.534 44.88V5.05H224.754C221.86 5.05 219.69 5.47 218.244 6.31C216.844 7.15 215.864 8.52666 215.304 10.44C214.744 12.3067 214.3 14.8733 213.974 18.14H212.364C212.457 17.3933 212.504 16.53 212.504 15.55C212.55 14.57 212.574 13.52 212.574 12.4C212.574 11.5133 212.527 10.2533 212.434 8.62C212.387 6.94 212.27 5.21333 212.084 3.44C214.044 3.48667 216.167 3.53333 218.454 3.58C220.787 3.62666 223.12 3.65 225.454 3.65C227.787 3.65 229.91 3.65 231.824 3.65C233.737 3.65 235.837 3.65 238.124 3.65C240.457 3.65 242.79 3.62666 245.124 3.58C247.457 3.53333 249.58 3.48667 251.494 3.44ZM285.73 53V51.6C287.317 51.5067 288.507 51.32 289.3 51.04C290.14 50.76 290.7 50.2 290.98 49.36C291.26 48.52 291.4 47.26 291.4 45.58V10.86C291.4 9.13333 291.26 7.87333 290.98 7.08C290.7 6.24 290.14 5.68 289.3 5.4C288.507 5.07333 287.317 4.88666 285.73 4.84V3.44C286.804 3.48667 288.157 3.53333 289.79 3.58C291.424 3.62666 293.034 3.65 294.62 3.65C296.44 3.65 298.144 3.62666 299.73 3.58C301.317 3.53333 302.6 3.48667 303.58 3.44V4.84C301.994 4.88666 300.78 5.07333 299.94 5.4C299.147 5.68 298.61 6.24 298.33 7.08C298.05 7.87333 297.91 9.13333 297.91 10.86V45.58C297.91 47.26 298.05 48.52 298.33 49.36C298.61 50.2 299.147 50.76 299.94 51.04C300.78 51.32 301.994 51.5067 303.58 51.6V53C302.6 52.9067 301.317 52.86 299.73 52.86C298.144 52.8133 296.44 52.79 294.62 52.79C293.034 52.79 291.424 52.8133 289.79 52.86C288.157 52.86 286.804 52.9067 285.73 53ZM256.47 53V51.6C258.057 51.5067 259.247 51.32 260.04 51.04C260.88 50.76 261.44 50.2 261.72 49.36C262 48.52 262.14 47.26 262.14 45.58V10.86C262.14 9.13333 262 7.87333 261.72 7.08C261.44 6.24 260.88 5.68 260.04 5.4C259.247 5.07333 258.057 4.88666 256.47 4.84V3.44C257.45 3.48667 258.734 3.53333 260.32 3.58C261.907 3.62666 263.61 3.65 265.43 3.65C267.064 3.65 268.674 3.62666 270.26 3.58C271.894 3.53333 273.247 3.48667 274.32 3.44V4.84C272.734 4.88666 271.52 5.07333 270.68 5.4C269.887 5.68 269.35 6.24 269.07 7.08C268.79 7.87333 268.65 9.13333 268.65 10.86V45.58C268.65 47.26 268.79 48.52 269.07 49.36C269.35 50.2 269.887 50.76 270.68 51.04C271.52 51.32 272.734 51.5067 274.32 51.6V53C273.247 52.9067 271.894 52.86 270.26 52.86C268.674 52.8133 267.064 52.79 265.43 52.79C263.61 52.79 261.907 52.8133 260.32 52.86C258.734 52.86 257.45 52.9067 256.47 53ZM266.2 28.78V27.38H293.85V28.78H266.2ZM344.379 3.44C344.192 5.07333 344.052 6.66 343.959 8.2C343.912 9.74 343.889 10.9067 343.889 11.7C343.889 12.54 343.912 13.3567 343.959 14.15C344.005 14.8967 344.052 15.5267 344.099 16.04H342.489C342.209 13.2867 341.812 11.1167 341.299 9.53C340.785 7.89666 339.899 6.75333 338.639 6.1C337.425 5.4 335.582 5.05 333.109 5.05H327.299C325.712 5.05 324.499 5.19 323.659 5.47C322.865 5.70333 322.329 6.24 322.049 7.08C321.769 7.87333 321.629 9.13333 321.629 10.86V45.58C321.629 47.26 321.769 48.52 322.049 49.36C322.329 50.2 322.865 50.76 323.659 51.04C324.499 51.2733 325.712 51.39 327.299 51.39H332.409C335.349 51.39 337.565 50.9933 339.059 50.2C340.599 49.4067 341.695 48.1233 342.349 46.35C343.049 44.53 343.562 42.08 343.889 39H345.499C345.359 40.26 345.289 41.94 345.289 44.04C345.289 44.9267 345.312 46.21 345.359 47.89C345.452 49.5233 345.592 51.2267 345.779 53C343.399 52.9067 340.715 52.86 337.729 52.86C334.742 52.8133 332.082 52.79 329.749 52.79C328.349 52.79 326.482 52.79 324.149 52.79C321.862 52.79 319.412 52.8133 316.799 52.86C314.185 52.86 311.735 52.9067 309.449 53V51.6C311.035 51.5067 312.225 51.32 313.019 51.04C313.859 50.76 314.419 50.2 314.699 49.36C314.979 48.52 315.119 47.26 315.119 45.58V10.86C315.119 9.13333 314.979 7.87333 314.699 7.08C314.419 6.24 313.859 5.68 313.019 5.4C312.225 5.07333 311.035 4.88666 309.449 4.84V3.44C311.735 3.48667 314.185 3.53333 316.799 3.58C319.412 3.62666 321.862 3.65 324.149 3.65C326.482 3.65 328.349 3.65 329.749 3.65C331.895 3.65 334.322 3.65 337.029 3.65C339.782 3.60333 342.232 3.53333 344.379 3.44ZM332.339 27.38C332.339 27.38 332.339 27.6133 332.339 28.08C332.339 28.5467 332.339 28.78 332.339 28.78H319.529C319.529 28.78 319.529 28.5467 319.529 28.08C319.529 27.6133 319.529 27.38 319.529 27.38H332.339ZM334.369 18.14C334.182 20.8 334.089 22.83 334.089 24.23C334.135 25.63 334.159 26.9133 334.159 28.08C334.159 29.2467 334.182 30.53 334.229 31.93C334.275 33.33 334.392 35.36 334.579 38.02H332.969C332.782 36.5267 332.549 35.08 332.269 33.68C332.035 32.2333 331.475 31.0667 330.589 30.18C329.749 29.2467 328.302 28.78 326.249 28.78V27.38C328.302 27.38 329.725 26.8433 330.519 25.77C331.359 24.6967 331.895 23.4367 332.129 21.99C332.362 20.5433 332.572 19.26 332.759 18.14H334.369ZM424.23 0.655553C426.771 0.655553 428.741 1.14815 430.141 2.13333C431.593 3.11852 432.319 4.49259 432.319 6.25556C432.319 8.17407 431.411 10.4037 429.597 12.9444C427.782 15.4333 425.086 18.0519 421.508 20.8C417.36 23.963 412.537 26.5037 407.041 28.4222C401.597 30.3407 395.711 31.3 389.386 31.3C387.311 31.3 385.393 31.1185 383.63 30.7556C380.623 36.7185 379.119 42.2148 379.119 47.2444C379.119 50.0444 379.741 52.2222 380.986 53.7778C382.23 55.3852 384.123 56.1889 386.663 56.1889C388.997 56.1889 391.174 55.7741 393.197 54.9444C395.271 54.1667 396.982 53.1296 398.33 51.8333C399.73 50.537 400.923 49.1111 401.908 47.5556C402.893 45.9481 403.619 44.3926 404.086 42.8889C404.552 41.3852 404.786 39.9852 404.786 38.6889C404.786 37.4444 404.526 36.5111 404.008 35.8889C403.489 35.2667 402.789 34.9556 401.908 34.9556C400.663 34.9556 399.419 35.5259 398.174 36.6667C396.93 37.7556 396.1 39.1556 395.686 40.8667H395.452C395.815 38.9481 396.774 37.3926 398.33 36.2C399.886 35.0074 401.519 34.4111 403.23 34.4111C404.786 34.4111 405.952 34.8259 406.73 35.6556C407.56 36.4333 407.974 37.5222 407.974 38.9222C407.974 40.5296 407.43 42.3444 406.341 44.3667C405.252 46.3889 403.8 48.3074 401.986 50.1222C400.171 51.937 397.889 53.4667 395.141 54.7111C392.393 55.9556 389.541 56.5778 386.586 56.5778C382.697 56.5778 379.793 55.5926 377.874 53.6222C375.956 51.6519 374.997 48.9815 374.997 45.6111C374.997 40.6333 376.708 35.2926 380.13 29.5889C376.708 27.9296 374.997 25.5963 374.997 22.5889C374.997 19.8926 376.423 17.5074 379.274 15.4333C382.178 13.3593 386.041 12.3222 390.863 12.3222C392.367 12.3222 393.897 12.4259 395.452 12.6333C399.808 9.26296 404.397 6.51481 409.219 4.38889C412.849 2.83333 416.193 1.77037 419.252 1.2C421.067 0.837035 422.726 0.655553 424.23 0.655553ZM429.83 7.65555C430.297 6.61852 430.53 5.68518 430.53 4.85555C430.53 2.36667 428.637 1.12222 424.852 1.12222C421.378 1.12222 417.256 2.02963 412.486 3.84444C407.197 5.91852 402.219 8.97778 397.552 13.0222C400.871 13.7481 403.878 14.9148 406.574 16.5222C409.323 18.1296 411.474 20.0741 413.03 22.3556L412.952 22.4333C411.345 20.1519 409.167 18.2333 406.419 16.6778C403.671 15.0704 400.611 13.9296 397.241 13.2556C391.641 18.2333 387.156 23.963 383.786 30.4444C385.497 30.8593 387.389 31.0667 389.463 31.0667C394.752 31.0667 400.015 29.9519 405.252 27.7222C410.541 25.4926 415.311 22.6667 419.563 19.2444C424.956 14.8889 428.378 11.0259 429.83 7.65555ZM375.463 23.0556C375.463 25.7 377.071 27.7741 380.286 29.2778C383.915 23.2111 388.815 17.7667 394.986 12.9444C393.689 12.7889 392.419 12.7111 391.174 12.7111C386.404 12.7111 382.593 13.8 379.741 15.9778C376.889 18.1556 375.463 20.5148 375.463 23.0556ZM441.254 3.44V4.84C439.667 4.88666 438.454 5.07333 437.614 5.4C436.821 5.68 436.284 6.24 436.004 7.08C435.724 7.87333 435.584 9.13333 435.584 10.86V45.58C435.584 47.26 435.724 48.52 436.004 49.36C436.284 50.2 436.821 50.76 437.614 51.04C438.454 51.2733 439.667 51.39 441.254 51.39H446.364C449.304 51.39 451.521 50.97 453.014 50.13C454.554 49.29 455.651 47.9133 456.304 46C457.004 44.0867 457.517 41.52 457.844 38.3H459.454C459.314 39.7467 459.244 41.66 459.244 44.04C459.244 44.9267 459.267 46.21 459.314 47.89C459.407 49.5233 459.547 51.2267 459.734 53C457.354 52.9067 454.671 52.86 451.684 52.86C448.697 52.8133 446.037 52.79 443.704 52.79C442.304 52.79 440.437 52.79 438.104 52.79C435.817 52.79 433.367 52.8133 430.754 52.86C428.141 52.86 425.691 52.9067 423.404 53V51.6C424.991 51.5067 426.181 51.32 426.974 51.04C427.814 50.76 428.374 50.2 428.654 49.36C428.934 48.52 429.074 47.26 429.074 45.58V10.86C429.074 9.13333 428.934 7.87333 428.654 7.08C428.374 6.24 427.814 5.68 426.974 5.4C426.181 5.07333 424.991 4.88666 423.404 4.84V3.44C424.384 3.48667 425.667 3.53333 427.254 3.58C428.841 3.62666 430.544 3.65 432.364 3.65C433.997 3.65 435.607 3.62666 437.194 3.58C438.827 3.53333 440.181 3.48667 441.254 3.44ZM484.226 3.09L501.306 47.12C502.006 48.8933 502.8 50.0833 503.686 50.69C504.573 51.25 505.39 51.5533 506.136 51.6V53C505.203 52.9067 504.06 52.86 502.706 52.86C501.353 52.8133 500 52.79 498.646 52.79C496.826 52.79 495.123 52.8133 493.536 52.86C491.95 52.86 490.666 52.9067 489.686 53V51.6C492.066 51.5067 493.583 51.11 494.236 50.41C494.89 49.6633 494.75 48.1 493.816 45.72L480.796 10.93L481.916 10.02L469.736 41.66C468.756 44.18 468.29 46.1633 468.336 47.61C468.383 49.01 468.92 50.0133 469.946 50.62C470.973 51.2267 472.466 51.5533 474.426 51.6V53C473.12 52.9067 471.743 52.86 470.296 52.86C468.896 52.8133 467.59 52.79 466.376 52.79C465.21 52.79 464.206 52.8133 463.366 52.86C462.573 52.86 461.826 52.9067 461.126 53V51.6C462.06 51.3667 463.016 50.83 463.996 49.99C464.976 49.1033 465.863 47.61 466.656 45.51L483.106 3.09C483.293 3.09 483.48 3.09 483.666 3.09C483.853 3.09 484.04 3.09 484.226 3.09ZM492.766 32.84V34.24H471.906L472.606 32.84H492.766ZM523.628 2.67C525.961 2.67 527.735 2.95 528.948 3.51C530.161 4.02333 531.235 4.60666 532.168 5.26C532.728 5.58667 533.171 5.84333 533.498 6.03C533.871 6.17 534.221 6.24 534.548 6.24C535.295 6.24 535.808 5.21333 536.088 3.16H537.698C537.651 3.95333 537.581 4.91 537.488 6.03C537.441 7.10333 537.395 8.55 537.348 10.37C537.348 12.1433 537.348 14.5 537.348 17.44H535.738C535.598 15.2 535.108 13.0533 534.268 11C533.428 8.94666 532.191 7.26666 530.558 5.96C528.971 4.65333 526.871 4 524.258 4C521.785 4 519.731 4.74666 518.098 6.24C516.511 7.73333 515.718 9.69333 515.718 12.12C515.718 14.22 516.255 15.9933 517.328 17.44C518.401 18.84 519.825 20.1233 521.598 21.29C523.418 22.41 525.378 23.6233 527.478 24.93C529.905 26.4233 532.051 27.9167 533.918 29.41C535.831 30.8567 537.325 32.4667 538.398 34.24C539.518 36.0133 540.078 38.16 540.078 40.68C540.078 43.6667 539.401 46.14 538.048 48.1C536.695 50.06 534.898 51.53 532.658 52.51C530.418 53.49 527.945 53.98 525.238 53.98C522.765 53.98 520.805 53.7 519.358 53.14C517.911 52.58 516.675 51.9967 515.648 51.39C514.621 50.7367 513.828 50.41 513.268 50.41C512.521 50.41 512.008 51.4367 511.728 53.49H510.118C510.211 52.51 510.258 51.3667 510.258 50.06C510.305 48.7067 510.328 46.9567 510.328 44.81C510.375 42.6633 510.398 39.9567 510.398 36.69H512.008C512.195 39.49 512.708 42.1033 513.548 44.53C514.435 46.9567 515.765 48.9167 517.538 50.41C519.358 51.8567 521.761 52.58 524.748 52.58C527.035 52.58 529.111 51.8567 530.978 50.41C532.891 48.9167 533.848 46.5367 533.848 43.27C533.848 40.4233 532.845 38.0667 530.838 36.2C528.831 34.3333 526.195 32.42 522.928 30.46C520.735 29.1067 518.681 27.73 516.768 26.33C514.855 24.93 513.315 23.32 512.148 21.5C511.028 19.6333 510.468 17.3933 510.468 14.78C510.468 12.0267 511.075 9.76333 512.288 7.99C513.548 6.17 515.181 4.84 517.188 4C519.195 3.11333 521.341 2.67 523.628 2.67ZM561.431 2.67C563.764 2.67 565.537 2.95 566.751 3.51C567.964 4.02333 569.037 4.60666 569.971 5.26C570.531 5.58667 570.974 5.84333 571.301 6.03C571.674 6.17 572.024 6.24 572.351 6.24C573.097 6.24 573.611 5.21333 573.891 3.16H575.501C575.454 3.95333 575.384 4.91 575.291 6.03C575.244 7.10333 575.197 8.55 575.151 10.37C575.151 12.1433 575.151 14.5 575.151 17.44H573.541C573.401 15.2 572.911 13.0533 572.071 11C571.231 8.94666 569.994 7.26666 568.361 5.96C566.774 4.65333 564.674 4 562.061 4C559.587 4 557.534 4.74666 555.901 6.24C554.314 7.73333 553.521 9.69333 553.521 12.12C553.521 14.22 554.057 15.9933 555.131 17.44C556.204 18.84 557.627 20.1233 559.401 21.29C561.221 22.41 563.181 23.6233 565.281 24.93C567.707 26.4233 569.854 27.9167 571.721 29.41C573.634 30.8567 575.127 32.4667 576.201 34.24C577.321 36.0133 577.881 38.16 577.881 40.68C577.881 43.6667 577.204 46.14 575.851 48.1C574.497 50.06 572.701 51.53 570.461 52.51C568.221 53.49 565.747 53.98 563.041 53.98C560.567 53.98 558.607 53.7 557.161 53.14C555.714 52.58 554.477 51.9967 553.451 51.39C552.424 50.7367 551.631 50.41 551.071 50.41C550.324 50.41 549.811 51.4367 549.531 53.49H547.921C548.014 52.51 548.061 51.3667 548.061 50.06C548.107 48.7067 548.131 46.9567 548.131 44.81C548.177 42.6633 548.201 39.9567 548.201 36.69H549.811C549.997 39.49 550.511 42.1033 551.351 44.53C552.237 46.9567 553.567 48.9167 555.341 50.41C557.161 51.8567 559.564 52.58 562.551 52.58C564.837 52.58 566.914 51.8567 568.781 50.41C570.694 48.9167 571.651 46.5367 571.651 43.27C571.651 40.4233 570.647 38.0667 568.641 36.2C566.634 34.3333 563.997 32.42 560.731 30.46C558.537 29.1067 556.484 27.73 554.571 26.33C552.657 24.93 551.117 23.32 549.951 21.5C548.831 19.6333 548.271 17.3933 548.271 14.78C548.271 12.0267 548.877 9.76333 550.091 7.99C551.351 6.17 552.984 4.84 554.991 4C556.997 3.11333 559.144 2.67 561.431 2.67ZM602.103 3.44V4.84C600.517 4.88666 599.303 5.07333 598.463 5.4C597.67 5.68 597.133 6.24 596.853 7.08C596.573 7.87333 596.433 9.13333 596.433 10.86V45.58C596.433 47.26 596.573 48.52 596.853 49.36C597.133 50.2 597.67 50.76 598.463 51.04C599.303 51.32 600.517 51.5067 602.103 51.6V53C601.03 52.9067 599.677 52.86 598.043 52.86C596.457 52.8133 594.847 52.79 593.213 52.79C591.393 52.79 589.69 52.8133 588.103 52.86C586.517 52.86 585.233 52.9067 584.253 53V51.6C585.84 51.5067 587.03 51.32 587.823 51.04C588.663 50.76 589.223 50.2 589.503 49.36C589.783 48.52 589.923 47.26 589.923 45.58V10.86C589.923 9.13333 589.783 7.87333 589.503 7.08C589.223 6.24 588.663 5.68 587.823 5.4C587.03 5.07333 585.84 4.88666 584.253 4.84V3.44C585.233 3.48667 586.517 3.53333 588.103 3.58C589.69 3.62666 591.393 3.65 593.213 3.65C594.847 3.65 596.457 3.62666 598.043 3.58C599.677 3.53333 601.03 3.48667 602.103 3.44ZM630.457 2.46C633.537 2.46 636.057 2.92666 638.017 3.86C640.024 4.74666 641.797 5.79667 643.337 7.01C644.271 7.71 644.971 7.80333 645.437 7.29C645.951 6.73 646.301 5.44667 646.487 3.44H648.097C648.004 5.16667 647.934 7.26667 647.887 9.74C647.841 12.2133 647.817 15.48 647.817 19.54H646.207C645.881 17.5333 645.577 15.9467 645.297 14.78C645.017 13.5667 644.667 12.54 644.247 11.7C643.874 10.86 643.361 10.02 642.707 9.18C641.261 7.26666 639.441 5.89 637.247 5.05C635.054 4.16333 632.744 3.72 630.317 3.72C628.031 3.72 625.954 4.30333 624.087 5.47C622.267 6.59 620.681 8.22333 619.327 10.37C618.021 12.5167 616.994 15.1067 616.247 18.14C615.547 21.1733 615.197 24.58 615.197 28.36C615.197 32.28 615.594 35.7567 616.387 38.79C617.181 41.7767 618.277 44.2967 619.677 46.35C621.124 48.4033 622.804 49.9667 624.717 51.04C626.677 52.0667 628.777 52.58 631.017 52.58C633.117 52.58 635.311 52.16 637.597 51.32C639.884 50.48 641.681 49.1267 642.987 47.26C644.014 45.9067 644.714 44.4367 645.087 42.85C645.507 41.2633 645.881 39.0467 646.207 36.2H647.817C647.817 40.4467 647.841 43.8767 647.887 46.49C647.934 49.0567 648.004 51.2267 648.097 53H646.487C646.301 50.9933 645.974 49.7333 645.507 49.22C645.087 48.7067 644.364 48.7767 643.337 49.43C641.611 50.6433 639.767 51.7167 637.807 52.65C635.894 53.5367 633.421 53.98 630.387 53.98C625.954 53.98 622.057 52.9767 618.697 50.97C615.384 48.9633 612.794 46.07 610.927 42.29C609.107 38.51 608.197 33.96 608.197 28.64C608.197 23.4133 609.154 18.84 611.067 14.92C612.981 11 615.594 7.94333 618.907 5.75C622.267 3.55666 626.117 2.46 630.457 2.46Z" fill="#161616"/>
</svg>
