<svg viewBox="0 0 989 125" fill="none" xmlns="http://www.w3.org/2000/svg">
<path d="M135.209 107.667C134.986 108.111 134.931 108.556 135.042 109H104.875C105.098 108.556 105.153 108.111 105.042 107.667H118.875C117.986 106.556 117.653 105.222 117.875 103.667C119.098 95.5556 126.82 81.4444 141.042 61.3333C139.931 61.3333 138.32 61.3333 136.209 61.3333C133.098 61.3333 129.709 61.2778 126.042 61.1667C117.82 69.9444 109.931 77.7778 102.375 84.6667C94.8198 91.4444 86.6531 98.1111 77.8753 104.667C69.0975 111.111 60.2642 116.111 51.3753 119.667C42.5975 123.222 34.2642 125 26.3753 125C20.4864 125 15.4864 124 11.3753 122C7.37533 120 4.48644 117.333 2.70866 114C0.930881 110.778 0.0419919 106.944 0.0419919 102.5C0.0419919 94.8333 2.6531 86.7222 7.87533 78.1667C13.0975 69.6111 20.1531 62.2778 29.042 56.1667C25.7087 51.9444 24.042 47.0556 24.042 41.5C24.042 37.2778 25.042 33.0556 27.042 28.8333C29.042 24.5 31.9864 20.3889 35.8753 16.5C39.7642 12.5 45.0975 9.27777 51.8753 6.83333C58.7642 4.38889 66.542 3.16667 75.2087 3.16667C81.2087 3.16667 87.8753 4.22222 95.2087 6.33333C102.542 8.44444 109.764 10.5556 116.875 12.6667C123.986 14.7778 130.32 15.8333 135.875 15.8333C146.542 15.8333 157.653 13.3889 169.209 8.5L169.375 8.83333C157.486 13.8333 146.32 16.3333 135.875 16.3333C129.209 16.3333 119.153 14.8333 105.709 11.8333C92.3753 8.83333 82.0975 7.33333 74.8753 7.33333C66.0975 7.33333 58.3198 8.44445 51.542 10.6667C44.7642 12.7778 39.4864 15.5556 35.7087 19C32.042 22.4444 29.2642 26.0556 27.3753 29.8333C25.4864 33.6111 24.542 37.3889 24.542 41.1667C24.542 46.5 26.4864 51.1667 30.3753 55.1667C42.9309 46.9444 56.5975 42.8333 71.3753 42.8333C78.1531 42.8333 83.2087 44.1111 86.542 46.6667C89.8753 49.2222 91.542 52.6667 91.542 57C91.542 60.7778 90.2642 64.8889 87.7087 69.3333C85.1531 73.6667 81.7642 77.7222 77.542 81.5C73.3198 85.2778 68.1531 88.4444 62.042 91C56.042 93.4444 49.9309 94.6667 43.7087 94.6667C40.2642 94.6667 37.1531 93.7778 34.3753 92C31.5975 90.1111 29.9864 87.8333 29.542 85.1667H29.8753C31.0975 88.9444 35.7087 90.8333 43.7087 90.8333C49.9309 90.8333 55.9864 89.7222 61.8753 87.5C67.8753 85.1667 72.9309 82.2778 77.042 78.8333C81.2642 75.3889 84.5975 71.6667 87.042 67.6667C89.5975 63.6667 90.8753 59.8889 90.8753 56.3333C90.8753 52.4444 89.2642 49.3333 86.042 47C82.8198 44.6667 77.9309 43.5 71.3753 43.5C56.9309 43.5 43.4864 47.6111 31.042 55.8333C36.5975 61.0556 44.6531 63.6667 55.2087 63.6667C58.8753 63.6667 62.8198 63.2778 67.042 62.5V62.8333C61.2642 64.3889 55.9309 65.1667 51.042 65.1667C41.5975 65.1667 34.4309 62.3889 29.542 56.8333C21.4309 62.3889 14.9309 69 10.042 76.6667C5.26421 84.2222 2.87533 91.2778 2.87533 97.8333C2.87533 103.722 4.93088 108.444 9.04199 112C13.1531 115.556 19.3753 117.333 27.7087 117.333C50.7087 117.333 77.1531 104 107.042 77.3333C109.375 73.6667 110.542 70.2222 110.542 67C110.542 64.1111 109.486 62.2778 107.375 61.5C106.486 61.5 105.542 61.5 104.542 61.5C103.653 61.5 103.209 61.2778 103.209 60.8333C103.209 60.2778 103.709 60 104.709 60C106.709 60 109.098 60.0556 111.875 60.1667C113.542 60.2778 116.264 60.3333 120.042 60.3333C121.598 60.3333 123.264 60.3333 125.042 60.3333C131.931 53.3333 139.82 44.8889 148.709 35C157.598 25.1111 164.32 17.8333 168.875 13.1667C173.542 8.38889 176.709 6 178.375 6C179.042 6 179.653 6.22222 180.209 6.66666C180.764 7.11111 181.042 7.88889 181.042 9C181.042 12.1111 178.098 18.5 172.209 28.1667C166.431 37.8333 159.986 47.7222 152.875 57.8333C145.875 67.9444 139.042 78 132.375 88C125.82 98 121.931 104.556 120.709 107.667H135.209ZM138.709 60.1667C138.82 60.1667 139.264 60.1667 140.042 60.1667C140.931 60.0556 141.598 60 142.042 60C146.042 54.5556 151.431 47.3889 158.209 38.5C164.986 29.5 170.098 22.5556 173.542 17.6667C176.986 12.7778 178.875 9.5 179.209 7.83333C179.431 6.94444 179.153 6.5 178.375 6.5C176.82 6.5 173.875 8.77778 169.542 13.3333C165.209 17.7778 158.598 25.0556 149.709 35.1667C140.82 45.2778 133.264 53.6667 127.042 60.3333C131.375 60.2222 135.264 60.1667 138.709 60.1667ZM107.875 76.6667C113.098 72 118.542 66.8333 124.209 61.1667H122.709C117.153 61.1667 113.32 61.2222 111.209 61.3333C109.875 61.4444 108.82 61.5 108.042 61.5C109.82 62.5 110.709 64.3333 110.709 67C110.709 70 109.764 73.2222 107.875 76.6667ZM198.403 2.8C200.503 2.9 203.253 3 206.653 3.1C210.053 3.19999 213.403 3.24999 216.703 3.24999C221.403 3.24999 225.903 3.19999 230.203 3.1C234.503 3 237.553 2.95 239.353 2.95C251.453 2.95 260.503 5.45 266.503 10.45C272.503 15.45 275.503 21.65 275.503 29.05C275.503 32.05 274.903 35.25 273.703 38.65C272.503 42.05 270.403 45.25 267.403 48.25C264.503 51.25 260.503 53.75 255.403 55.75C250.303 57.65 243.853 58.6 236.053 58.6H221.653V55.6H234.553C241.653 55.6 247.053 54.5 250.753 52.3C254.553 50 257.103 47 258.403 43.3C259.803 39.5 260.503 35.3 260.503 30.7C260.503 22.8 258.603 16.7 254.803 12.4C251.103 7.99999 244.703 5.8 235.603 5.8C231.003 5.8 228.003 6.65 226.603 8.35C225.203 10.05 224.503 13.5 224.503 18.7V93.1C224.503 96.7 224.803 99.4 225.403 101.2C226.003 103 227.153 104.2 228.853 104.8C230.653 105.4 233.253 105.8 236.653 106V109C234.353 108.8 231.453 108.7 227.953 108.7C224.553 108.6 221.103 108.55 217.603 108.55C213.703 108.55 210.053 108.6 206.653 108.7C203.253 108.7 200.503 108.8 198.403 109V106C201.803 105.8 204.353 105.4 206.053 104.8C207.853 104.2 209.053 103 209.653 101.2C210.253 99.4 210.553 96.7 210.553 93.1V18.7C210.553 15 210.253 12.3 209.653 10.6C209.053 8.8 207.853 7.6 206.053 7C204.353 6.3 201.803 5.9 198.403 5.8V2.8ZM222.253 56.05C227.653 56.25 231.903 56.5 235.003 56.8C238.103 57 240.603 57.2 242.503 57.4C244.503 57.6 246.403 57.85 248.203 58.15C254.903 59.25 259.703 61.3 262.603 64.3C265.603 67.2 267.803 71.75 269.203 77.95L272.953 93.25C273.953 97.65 274.953 100.85 275.953 102.85C277.053 104.75 278.703 105.65 280.903 105.55C282.603 105.45 284.003 104.9 285.103 103.9C286.303 102.9 287.553 101.55 288.853 99.85L291.103 101.5C289.003 104.6 286.803 107 284.503 108.7C282.303 110.3 279.153 111.1 275.053 111.1C271.353 111.1 268.103 110 265.303 107.8C262.503 105.6 260.403 101.3 259.003 94.9L255.703 79.9C254.803 75.6 253.753 71.9 252.553 68.8C251.453 65.6 249.853 63.1 247.753 61.3C245.753 59.5 242.753 58.6 238.753 58.6H222.553L222.253 56.05ZM413.718 2.8V5.8C410.318 5.9 407.718 6.3 405.918 7C404.218 7.6 403.068 8.8 402.468 10.6C401.868 12.3 401.568 15 401.568 18.7V93.1C401.568 96.7 401.868 99.4 402.468 101.2C403.068 103 404.218 104.2 405.918 104.8C407.718 105.4 410.318 105.8 413.718 106V109C411.418 108.8 408.518 108.7 405.018 108.7C401.618 108.6 398.168 108.55 394.668 108.55C390.768 108.55 387.118 108.6 383.718 108.7C380.318 108.7 377.568 108.8 375.468 109V106C378.868 105.8 381.418 105.4 383.118 104.8C384.918 104.2 386.118 103 386.718 101.2C387.318 99.4 387.618 96.7 387.618 93.1V10.6L388.218 11.05L351.468 109.75H349.068L311.268 12.4V91.6C311.268 95.2 311.568 98.05 312.168 100.15C312.868 102.15 314.168 103.6 316.068 104.5C318.068 105.3 321.018 105.8 324.918 106V109C323.118 108.8 320.768 108.7 317.868 108.7C314.968 108.6 312.218 108.55 309.618 108.55C307.118 108.55 304.568 108.6 301.968 108.7C299.468 108.7 297.368 108.8 295.668 109V106C299.068 105.8 301.618 105.3 303.318 104.5C305.118 103.6 306.318 102.15 306.918 100.15C307.518 98.05 307.818 95.2 307.818 91.6V18.7C307.818 15 307.518 12.3 306.918 10.6C306.318 8.8 305.118 7.6 303.318 7C301.618 6.3 299.068 5.9 295.668 5.8V2.8C297.368 2.9 299.468 3 301.968 3.1C304.568 3.19999 307.118 3.24999 309.618 3.24999C311.818 3.24999 314.068 3.19999 316.368 3.1C318.768 3 320.768 2.9 322.368 2.8L356.418 92.5L353.868 93.7L387.618 3.24999C388.818 3.24999 389.968 3.24999 391.068 3.24999C392.268 3.24999 393.468 3.24999 394.668 3.24999C398.168 3.24999 401.618 3.19999 405.018 3.1C408.518 3 411.418 2.9 413.718 2.8ZM458.432 1.14999C463.432 1.14999 467.232 1.74999 469.832 2.95C472.432 4.05 474.732 5.29999 476.732 6.69999C477.932 7.4 478.882 7.95 479.582 8.35C480.382 8.65 481.132 8.79999 481.832 8.79999C483.432 8.79999 484.532 6.6 485.132 2.2H488.582C488.482 3.89999 488.332 5.94999 488.132 8.35C488.032 10.65 487.932 13.75 487.832 17.65C487.832 21.45 487.832 26.5 487.832 32.8H484.382C484.082 28 483.032 23.4 481.232 19C479.432 14.6 476.782 11 473.282 8.19999C469.882 5.39999 465.382 3.99999 459.782 3.99999C454.482 3.99999 450.082 5.59999 446.582 8.79999C443.182 12 441.482 16.2 441.482 21.4C441.482 25.9 442.632 29.7 444.932 32.8C447.232 35.8 450.282 38.55 454.082 41.05C457.982 43.45 462.182 46.05 466.682 48.85C471.882 52.05 476.482 55.25 480.482 58.45C484.582 61.55 487.782 65 490.082 68.8C492.482 72.6 493.682 77.2 493.682 82.6C493.682 89 492.232 94.3 489.332 98.5C486.432 102.7 482.582 105.85 477.782 107.95C472.982 110.05 467.682 111.1 461.882 111.1C456.582 111.1 452.382 110.5 449.282 109.3C446.182 108.1 443.532 106.85 441.332 105.55C439.132 104.15 437.432 103.45 436.232 103.45C434.632 103.45 433.532 105.65 432.932 110.05H429.482C429.682 107.95 429.782 105.5 429.782 102.7C429.882 99.8 429.932 96.05 429.932 91.45C430.032 86.85 430.082 81.05 430.082 74.05H433.532C433.932 80.05 435.032 85.65 436.832 90.85C438.732 96.05 441.582 100.25 445.382 103.45C449.282 106.55 454.432 108.1 460.832 108.1C465.732 108.1 470.182 106.55 474.182 103.45C478.282 100.25 480.332 95.15 480.332 88.15C480.332 82.05 478.182 77 473.882 73C469.582 69 463.932 64.9 456.932 60.7C452.232 57.8 447.832 54.85 443.732 51.85C439.632 48.85 436.332 45.4 433.832 41.5C431.432 37.5 430.232 32.7 430.232 27.1C430.232 21.2 431.532 16.35 434.132 12.55C436.832 8.65 440.332 5.79999 444.632 3.99999C448.932 2.09999 453.532 1.14999 458.432 1.14999ZM589.838 2.8C589.438 6.6 589.138 10.3 588.938 13.9C588.838 17.4 588.788 20.1 588.788 22C588.788 24.4 588.838 26.65 588.938 28.75C589.038 30.85 589.138 32.7 589.238 34.3H585.788C585.088 27.3 584.138 21.8 582.938 17.8C581.738 13.7 579.638 10.75 576.638 8.94999C573.638 7.14999 568.988 6.24999 562.688 6.24999H554.588V91.6C554.588 95.6 554.938 98.6 555.638 100.6C556.438 102.6 557.938 103.95 560.138 104.65C562.338 105.35 565.538 105.8 569.738 106V109C567.138 108.8 563.838 108.7 559.838 108.7C555.838 108.6 551.788 108.55 547.688 108.55C543.188 108.55 538.938 108.6 534.938 108.7C531.038 108.7 527.888 108.8 525.488 109V106C529.688 105.8 532.888 105.35 535.088 104.65C537.288 103.95 538.738 102.6 539.438 100.6C540.238 98.6 540.638 95.6 540.638 91.6V6.24999H532.538C526.338 6.24999 521.688 7.14999 518.588 8.94999C515.588 10.75 513.488 13.7 512.288 17.8C511.088 21.8 510.138 27.3 509.438 34.3H505.988C506.188 32.7 506.288 30.85 506.288 28.75C506.388 26.65 506.438 24.4 506.438 22C506.438 20.1 506.338 17.4 506.138 13.9C506.038 10.3 505.788 6.6 505.388 2.8C509.588 2.9 514.138 3 519.038 3.1C524.038 3.19999 529.038 3.24999 534.038 3.24999C539.038 3.24999 543.588 3.24999 547.688 3.24999C551.788 3.24999 556.288 3.24999 561.188 3.24999C566.188 3.24999 571.188 3.19999 576.188 3.1C581.188 3 585.738 2.9 589.838 2.8ZM600.502 2.8C602.602 2.9 605.352 3 608.752 3.1C612.152 3.19999 615.502 3.24999 618.802 3.24999C623.502 3.24999 628.002 3.19999 632.302 3.1C636.602 3 639.652 2.95 641.452 2.95C653.552 2.95 662.602 5.45 668.602 10.45C674.602 15.45 677.602 21.65 677.602 29.05C677.602 32.05 677.002 35.25 675.802 38.65C674.602 42.05 672.502 45.25 669.502 48.25C666.602 51.25 662.602 53.75 657.502 55.75C652.402 57.65 645.952 58.6 638.152 58.6H623.752V55.6H636.652C643.752 55.6 649.152 54.5 652.852 52.3C656.652 50 659.202 47 660.502 43.3C661.902 39.5 662.602 35.3 662.602 30.7C662.602 22.8 660.702 16.7 656.902 12.4C653.202 7.99999 646.802 5.8 637.702 5.8C633.102 5.8 630.102 6.65 628.702 8.35C627.302 10.05 626.602 13.5 626.602 18.7V93.1C626.602 96.7 626.902 99.4 627.502 101.2C628.102 103 629.252 104.2 630.952 104.8C632.752 105.4 635.352 105.8 638.752 106V109C636.452 108.8 633.552 108.7 630.052 108.7C626.652 108.6 623.202 108.55 619.702 108.55C615.802 108.55 612.152 108.6 608.752 108.7C605.352 108.7 602.602 108.8 600.502 109V106C603.902 105.8 606.452 105.4 608.152 104.8C609.952 104.2 611.152 103 611.752 101.2C612.352 99.4 612.652 96.7 612.652 93.1V18.7C612.652 15 612.352 12.3 611.752 10.6C611.152 8.8 609.952 7.6 608.152 7C606.452 6.3 603.902 5.9 600.502 5.8V2.8ZM624.352 56.05C629.752 56.25 634.002 56.5 637.102 56.8C640.202 57 642.702 57.2 644.602 57.4C646.602 57.6 648.502 57.85 650.302 58.15C657.002 59.25 661.802 61.3 664.702 64.3C667.702 67.2 669.902 71.75 671.302 77.95L675.052 93.25C676.052 97.65 677.052 100.85 678.052 102.85C679.152 104.75 680.802 105.65 683.002 105.55C684.702 105.45 686.102 104.9 687.202 103.9C688.402 102.9 689.652 101.55 690.952 99.85L693.202 101.5C691.102 104.6 688.902 107 686.602 108.7C684.402 110.3 681.252 111.1 677.152 111.1C673.452 111.1 670.202 110 667.402 107.8C664.602 105.6 662.502 101.3 661.102 94.9L657.802 79.9C656.902 75.6 655.852 71.9 654.652 68.8C653.552 65.6 651.952 63.1 649.852 61.3C647.852 59.5 644.852 58.6 640.852 58.6H624.652L624.352 56.05ZM792.468 21.8333C795.357 24.5 796.801 28.6667 796.801 34.3333C796.801 40 795.357 46.5556 792.468 54C789.69 61.4444 785.634 69 780.301 76.6667C775.079 84.2222 769.134 91.2222 762.468 97.6667C755.801 104.111 748.134 109.389 739.468 113.5C730.912 117.611 722.301 119.667 713.634 119.667C706.079 119.667 700.357 117.389 696.468 112.833C692.69 108.389 690.801 102.278 690.801 94.5C690.801 87.7222 692.19 80.2778 694.968 72.1667C697.857 64.0556 701.968 56 707.301 48C712.746 40 718.912 32.7222 725.801 26.1667C732.801 19.5 740.857 14.1667 749.968 10.1667C759.19 6.05556 768.579 4 778.134 4C783.134 4 786.912 5.16667 789.468 7.5C792.134 9.83333 793.468 12.8333 793.468 16.5C793.468 18.2778 793.134 20.0556 792.468 21.8333ZM713.801 118C720.468 118 727.19 116.444 733.968 113.333C740.857 110.222 747.134 106.167 752.801 101.167C758.468 96.1667 763.801 90.5 768.801 84.1667C773.801 77.8333 777.968 71.4444 781.301 65C784.746 58.5556 787.468 52.3889 789.468 46.5C791.468 40.5 792.468 35.3333 792.468 31C792.468 28.4444 792.079 26.2778 791.301 24.5C789.19 28.8333 785.69 32.4444 780.801 35.3333C775.912 38.1111 770.134 39.5 763.468 39.5C758.912 39.5 755.023 38.7778 751.801 37.3333C745.801 43.3333 740.857 49.8333 736.968 56.8333C733.079 63.7222 731.134 69.3889 731.134 73.8333C731.134 78.8333 733.357 81.3889 737.801 81.5C740.69 81.5 743.412 80.2222 745.968 77.6667C748.523 75 749.968 72.2778 750.301 69.5C750.412 69.1667 750.468 68.8889 750.468 68.6667C750.468 67.8889 750.634 67.5556 750.968 67.6667C751.19 67.6667 751.357 67.7778 751.468 68C751.468 68.3333 751.301 68.6667 750.968 69C750.746 69.3333 750.634 69.5 750.634 69.5C750.412 72.5 749.023 75.2778 746.468 77.8333C743.912 80.3889 741.023 81.7222 737.801 81.8333H737.634C734.19 81.7222 731.579 80.6667 729.801 78.6667C728.134 76.6667 727.301 73.8889 727.301 70.3333C727.301 65.1111 729.079 59.1111 732.634 52.3333C736.301 45.4444 741.079 39.3333 746.968 34C744.412 31.4444 743.301 28.1111 743.634 24H743.801C743.468 28.1111 744.579 31.3889 747.134 33.8333C750.801 30.6111 754.634 27.9444 758.634 25.8333C767.523 21.1667 775.801 18.8333 783.468 18.8333C786.468 18.8333 789.023 19.5 791.134 20.8333C791.579 19.1667 791.801 17.5556 791.801 16C791.801 12.7778 790.634 10.1111 788.301 8C785.968 5.88888 782.523 4.83333 777.968 4.83333C769.634 4.83333 761.246 7 752.801 11.3333C744.468 15.6667 737.023 21.3333 730.468 28.3333C724.023 35.2222 718.19 42.7778 712.968 51C707.857 59.2222 703.912 67.4444 701.134 75.6667C698.468 83.8889 697.134 91.2778 697.134 97.8333C697.134 104.056 698.468 108.944 701.134 112.5C703.912 116.167 708.134 118 713.801 118ZM790.301 22.8333C788.857 20.7222 786.746 19.6667 783.968 19.6667C774.079 19.6667 763.412 25.4444 751.968 37C754.857 38.2222 758.301 38.8333 762.301 38.8333C769.079 38.8333 774.968 37.2778 779.968 34.1667C784.968 31.0556 788.412 27.2778 790.301 22.8333ZM884.106 2.8V5.8C880.706 5.9 878.106 6.39999 876.306 7.3C874.606 8.2 873.456 9.64999 872.856 11.65C872.256 13.65 871.956 16.5 871.956 20.2V109.75C871.356 109.75 870.756 109.75 870.156 109.75C869.656 109.75 869.106 109.75 868.506 109.75L805.506 12.4V91.6C805.506 95.2 805.806 98.05 806.406 100.15C807.106 102.15 808.406 103.6 810.306 104.5C812.306 105.3 815.256 105.8 819.156 106V109C817.356 108.8 815.006 108.7 812.106 108.7C809.206 108.6 806.456 108.55 803.856 108.55C801.356 108.55 798.806 108.6 796.206 108.7C793.706 108.7 791.606 108.8 789.906 109V106C793.306 105.8 795.856 105.3 797.556 104.5C799.356 103.6 800.556 102.15 801.156 100.15C801.756 98.05 802.056 95.2 802.056 91.6V18.7C802.056 15 801.756 12.3 801.156 10.6C800.556 8.8 799.356 7.6 797.556 7C795.856 6.3 793.306 5.9 789.906 5.8V2.8C791.606 2.9 793.706 3 796.206 3.1C798.806 3.19999 801.356 3.24999 803.856 3.24999C806.056 3.24999 808.156 3.19999 810.156 3.1C812.156 3 813.956 2.9 815.556 2.8L868.506 84.4V20.2C868.506 16.5 868.156 13.65 867.456 11.65C866.856 9.64999 865.556 8.2 863.556 7.3C861.656 6.39999 858.756 5.9 854.856 5.8V2.8C856.656 2.9 859.006 3 861.906 3.1C864.906 3.19999 867.656 3.24999 870.156 3.24999C872.756 3.24999 875.306 3.19999 877.806 3.1C880.406 3 882.506 2.9 884.106 2.8ZM944.889 0.699991C951.389 0.699991 956.639 1.69999 960.639 3.7C964.639 5.6 968.389 7.85 971.889 10.45C973.189 11.45 974.189 11.95 974.889 11.95C976.789 11.95 978.039 8.9 978.639 2.8H982.089C981.889 6.5 981.739 11 981.639 16.3C981.539 21.6 981.489 28.6 981.489 37.3H978.039C977.339 33.1 976.489 29.05 975.489 25.15C974.489 21.25 972.839 17.9 970.539 15.1C967.639 11.4 963.839 8.54999 959.139 6.55C954.439 4.44999 949.589 3.39999 944.589 3.39999C939.589 3.39999 935.039 4.64999 930.939 7.15C926.939 9.55 923.489 13.05 920.589 17.65C917.689 22.25 915.439 27.8 913.839 34.3C912.339 40.7 911.589 47.95 911.589 56.05C911.589 74.05 914.489 87.25 920.289 95.65C926.089 103.95 935.089 108.1 947.289 108.1C950.889 108.1 953.989 107.6 956.589 106.6C959.289 105.5 961.389 104.45 962.889 103.45C964.789 102.15 965.989 100.95 966.489 99.85C966.989 98.65 967.239 97.1 967.239 95.2V80.8C967.239 76.7 966.839 73.65 966.039 71.65C965.239 69.65 963.739 68.3 961.539 67.6C959.439 66.9 956.289 66.5 952.089 66.4V63.4C953.889 63.5 955.989 63.6 958.389 63.7C960.789 63.7 963.289 63.75 965.889 63.85C968.589 63.85 971.039 63.85 973.239 63.85C976.539 63.85 979.489 63.8 982.089 63.7C984.789 63.6 987.039 63.5 988.839 63.4V66.4C985.539 66.6 983.439 67.4 982.539 68.8C981.639 70.2 981.189 73.7 981.189 79.3V109H978.189C978.089 107.3 977.689 105.45 976.989 103.45C976.389 101.45 975.439 100.45 974.139 100.45C973.539 100.45 972.939 100.6 972.339 100.9C971.739 101.2 970.689 101.9 969.189 103C965.889 105.5 962.389 107.5 958.689 109C954.989 110.4 950.689 111.1 945.789 111.1C930.289 111.1 918.189 106.4 909.489 97C900.889 87.5 896.589 74.4 896.589 57.7C896.589 46 898.689 35.9 902.889 27.4C907.089 18.9 912.789 12.35 919.989 7.75C927.289 3.04999 935.589 0.699991 944.889 0.699991Z" fill="#A77E3D"/>
</svg>
