<svg viewBox="0 0 1500 259" fill="none" xmlns="http://www.w3.org/2000/svg">
<path d="M98.0778 4.35555C103.181 4.35555 107.419 5.99259 110.789 9.26666C114.256 12.4444 115.989 17.0667 115.989 23.1333C115.989 30.3556 113.726 36.8074 109.2 42.4889C104.77 48.0741 98.9444 50.8667 91.7222 50.8667C87.5815 50.8667 84.3074 49.6148 81.9 47.1111C79.4926 44.6074 78.2889 41.8148 78.2889 38.7333C78.2889 36.037 79.1556 33.7741 80.8889 31.9444C82.7185 30.1148 85.2222 29.2 88.4 29.2C90.037 29.2 91.2407 29.5852 92.0111 30.3556C92.8778 31.0296 93.3111 31.8963 93.3111 32.9556C93.3111 33.7259 93.0222 34.4481 92.4444 35.1222C91.8667 35.7 91.0482 35.9889 89.9889 35.9889C91.0482 35.6037 91.5778 34.6889 91.5778 33.2444C91.5778 32.1852 91.2407 31.3185 90.5667 30.6444C89.8926 29.9704 88.8333 29.6333 87.3889 29.6333C84.8852 29.6333 82.863 30.4519 81.3222 32.0889C79.7815 33.7259 79.0111 35.6519 79.0111 37.8667C79.0111 40.563 79.9741 42.5852 81.9 43.9333C83.8259 45.2815 86.3296 45.9556 89.4111 45.9556C95.9593 45.9556 101.93 43.837 107.322 39.6C112.715 35.363 115.411 29.9704 115.411 23.4222C115.411 18.3185 113.87 14.6111 110.789 12.3C107.804 9.98889 103.904 8.83333 99.0889 8.83333C94.7556 8.83333 90.5185 9.7 86.3778 11.4333C82.3333 13.1667 78.8667 15.863 75.9778 19.5222C73.1852 23.0852 71.7889 27.2259 71.7889 31.9444C71.7889 38.2037 72.8963 45.763 75.1111 54.6222C77.3259 63.4815 78.4333 71.2333 78.4333 77.8778C78.4333 85.3889 76.4111 92.4667 72.3667 99.1111C68.4185 105.756 63.0741 111.052 56.3333 115C49.5926 119.044 42.3222 121.067 34.5222 121.067C25.0852 121.067 17.8148 118.37 12.7111 112.978C7.7037 107.681 5.2 101.181 5.2 93.4778C5.2 89.2407 6.01852 85.0519 7.65556 80.9111C9.29259 76.7704 11.6037 73.0148 14.5889 69.6444C17.6704 66.1778 21.6185 63.4333 26.4333 61.4111C31.3444 59.2926 36.737 58.2333 42.6111 58.2333C48.1963 58.2333 52.4815 59.437 55.4667 61.8444C58.4519 64.2519 60.0889 67.2852 60.3778 70.9444C60.3778 71.2333 60.3778 71.5222 60.3778 71.8111C60.3778 76.9148 58.0185 81.5852 53.3 85.8222C48.5815 89.963 42.4667 92.0333 34.9556 92.0333C33.8 92.0333 32.6444 91.9852 31.4889 91.8889V91.4556C32.5481 91.5519 33.6556 91.6 34.8111 91.6C41.937 91.6 47.6185 89.4815 51.8556 85.2444C56.0926 80.9111 58.0667 76.1926 57.7778 71.0889C57.5852 67.5259 56.1889 64.5889 53.5889 62.2778C50.9889 59.9667 47.3296 58.8111 42.6111 58.8111C37.2185 58.8111 32.2593 59.7741 27.7333 61.7C23.3037 63.6259 19.6926 66.1296 16.9 69.2111C14.1074 72.2926 11.9407 75.7111 10.4 79.4667C8.85926 83.1259 8.08889 86.8815 8.08889 90.7333C8.08889 97.3778 10.2556 102.915 14.5889 107.344C18.9222 111.87 25.1815 114.133 33.3667 114.133C38.2778 114.133 43.237 113.267 48.2444 111.533C53.2519 109.8 57.8259 107.344 61.9667 104.167C66.2037 101.085 69.6222 97.0407 72.2222 92.0333C74.8222 87.0259 76.1222 81.537 76.1222 75.5667C76.1222 70.8481 75.2074 63.5778 73.3778 53.7556C71.6444 43.9333 70.7778 36.8074 70.7778 32.3778C70.7778 26.6963 72.1741 21.6889 74.9667 17.3556C77.8556 12.9259 81.3222 9.65185 85.3667 7.53333C89.5074 5.41481 93.7444 4.35555 98.0778 4.35555ZM192.868 9.96C192.522 13.2533 192.262 16.46 192.088 19.58C192.002 22.6133 191.958 24.9533 191.958 26.6C191.958 28.68 192.002 30.63 192.088 32.45C192.175 34.27 192.262 35.8733 192.348 37.26H189.358C188.752 31.1933 187.928 26.4267 186.888 22.96C185.848 19.4067 184.028 16.85 181.428 15.29C178.828 13.73 174.798 12.95 169.338 12.95H162.318V86.92C162.318 90.3867 162.622 92.9867 163.228 94.72C163.922 96.4533 165.222 97.6233 167.128 98.23C169.035 98.8367 171.808 99.2267 175.448 99.4V102C173.195 101.827 170.335 101.74 166.868 101.74C163.402 101.653 159.892 101.61 156.338 101.61C152.438 101.61 148.755 101.653 145.288 101.74C141.908 101.74 139.178 101.827 137.098 102V99.4C140.738 99.2267 143.512 98.8367 145.418 98.23C147.325 97.6233 148.582 96.4533 149.188 94.72C149.882 92.9867 150.228 90.3867 150.228 86.92V12.95H143.208C137.835 12.95 133.805 13.73 131.118 15.29C128.518 16.85 126.698 19.4067 125.658 22.96C124.618 26.4267 123.795 31.1933 123.188 37.26H120.198C120.372 35.8733 120.458 34.27 120.458 32.45C120.545 30.63 120.588 28.68 120.588 26.6C120.588 24.9533 120.502 22.6133 120.328 19.58C120.242 16.46 120.025 13.2533 119.678 9.96C123.318 10.0467 127.262 10.1333 131.508 10.22C135.842 10.3067 140.175 10.35 144.508 10.35C148.842 10.35 152.785 10.35 156.338 10.35C159.892 10.35 163.792 10.35 168.038 10.35C172.372 10.35 176.705 10.3067 181.038 10.22C185.372 10.1333 189.315 10.0467 192.868 9.96ZM232.547 9.30999L264.267 91.08C265.567 94.3733 267.04 96.5833 268.687 97.71C270.333 98.75 271.85 99.3133 273.237 99.4V102C271.503 101.827 269.38 101.74 266.867 101.74C264.353 101.653 261.84 101.61 259.327 101.61C255.947 101.61 252.783 101.653 249.837 101.74C246.89 101.74 244.507 101.827 242.687 102V99.4C247.107 99.2267 249.923 98.49 251.137 97.19C252.35 95.8033 252.09 92.9 250.357 88.48L226.177 23.87L228.257 22.18L205.637 80.94C203.817 85.62 202.95 89.3033 203.037 91.99C203.123 94.59 204.12 96.4533 206.027 97.58C207.933 98.7067 210.707 99.3133 214.347 99.4V102C211.92 101.827 209.363 101.74 206.677 101.74C204.077 101.653 201.65 101.61 199.397 101.61C197.23 101.61 195.367 101.653 193.807 101.74C192.333 101.74 190.947 101.827 189.647 102V99.4C191.38 98.9667 193.157 97.97 194.977 96.41C196.797 94.7633 198.443 91.99 199.917 88.09L230.467 9.30999C230.813 9.30999 231.16 9.30999 231.507 9.30999C231.853 9.30999 232.2 9.30999 232.547 9.30999ZM248.407 64.56V67.16H209.667L210.967 64.56H248.407ZM275.362 9.96C277.182 10.0467 279.566 10.1333 282.512 10.22C285.459 10.3067 288.362 10.35 291.222 10.35C295.296 10.35 299.196 10.3067 302.922 10.22C306.649 10.1333 309.292 10.09 310.852 10.09C321.339 10.09 329.182 12.2567 334.382 16.59C339.582 20.9233 342.182 26.2967 342.182 32.71C342.182 35.31 341.662 38.0833 340.622 41.03C339.582 43.9767 337.762 46.75 335.162 49.35C332.649 51.95 329.182 54.1167 324.762 55.85C320.342 57.4967 314.752 58.32 307.992 58.32H295.512V55.72H306.692C312.846 55.72 317.526 54.7667 320.732 52.86C324.026 50.8667 326.236 48.2667 327.362 45.06C328.576 41.7667 329.182 38.1267 329.182 34.14C329.182 27.2933 327.536 22.0067 324.242 18.28C321.036 14.4667 315.489 12.56 307.602 12.56C303.616 12.56 301.016 13.2967 299.802 14.77C298.589 16.2433 297.982 19.2333 297.982 23.74V88.22C297.982 91.34 298.242 93.68 298.762 95.24C299.282 96.8 300.279 97.84 301.752 98.36C303.312 98.88 305.566 99.2267 308.512 99.4V102C306.519 101.827 304.006 101.74 300.972 101.74C298.026 101.653 295.036 101.61 292.002 101.61C288.622 101.61 285.459 101.653 282.512 101.74C279.566 101.74 277.182 101.827 275.362 102V99.4C278.309 99.2267 280.519 98.88 281.992 98.36C283.552 97.84 284.592 96.8 285.112 95.24C285.632 93.68 285.892 91.34 285.892 88.22V23.74C285.892 20.5333 285.632 18.1933 285.112 16.72C284.592 15.16 283.552 14.12 281.992 13.6C280.519 12.9933 278.309 12.6467 275.362 12.56V9.96ZM296.032 56.11C300.712 56.2833 304.396 56.5 307.082 56.76C309.769 56.9333 311.936 57.1067 313.582 57.28C315.316 57.4533 316.962 57.67 318.522 57.93C324.329 58.8833 328.489 60.66 331.002 63.26C333.602 65.7733 335.509 69.7167 336.722 75.09L339.972 88.35C340.839 92.1633 341.706 94.9367 342.572 96.67C343.526 98.3167 344.956 99.0967 346.862 99.01C348.336 98.9233 349.549 98.4467 350.502 97.58C351.542 96.7133 352.626 95.5433 353.752 94.07L355.702 95.5C353.882 98.1867 351.976 100.267 349.982 101.74C348.076 103.127 345.346 103.82 341.792 103.82C338.586 103.82 335.769 102.867 333.342 100.96C330.916 99.0533 329.096 95.3267 327.882 89.78L325.022 76.78C324.242 73.0533 323.332 69.8467 322.292 67.16C321.339 64.3867 319.952 62.22 318.132 60.66C316.399 59.1 313.799 58.32 310.332 58.32H296.292L296.032 56.11ZM430.271 9.96C429.924 13.2533 429.664 16.46 429.491 19.58C429.404 22.6133 429.361 24.9533 429.361 26.6C429.361 28.68 429.404 30.63 429.491 32.45C429.577 34.27 429.664 35.8733 429.751 37.26H426.761C426.154 31.1933 425.331 26.4267 424.291 22.96C423.251 19.4067 421.431 16.85 418.831 15.29C416.231 13.73 412.201 12.95 406.741 12.95H399.721V86.92C399.721 90.3867 400.024 92.9867 400.631 94.72C401.324 96.4533 402.624 97.6233 404.531 98.23C406.437 98.8367 409.211 99.2267 412.851 99.4V102C410.597 101.827 407.737 101.74 404.271 101.74C400.804 101.653 397.294 101.61 393.741 101.61C389.841 101.61 386.157 101.653 382.691 101.74C379.311 101.74 376.581 101.827 374.501 102V99.4C378.141 99.2267 380.914 98.8367 382.821 98.23C384.727 97.6233 385.984 96.4533 386.591 94.72C387.284 92.9867 387.631 90.3867 387.631 86.92V12.95H380.611C375.237 12.95 371.207 13.73 368.521 15.29C365.921 16.85 364.101 19.4067 363.061 22.96C362.021 26.4267 361.197 31.1933 360.591 37.26H357.601C357.774 35.8733 357.861 34.27 357.861 32.45C357.947 30.63 357.991 28.68 357.991 26.6C357.991 24.9533 357.904 22.6133 357.731 19.58C357.644 16.46 357.427 13.2533 357.081 9.96C360.721 10.0467 364.664 10.1333 368.911 10.22C373.244 10.3067 377.577 10.35 381.911 10.35C386.244 10.35 390.187 10.35 393.741 10.35C397.294 10.35 401.194 10.35 405.441 10.35C409.774 10.35 414.107 10.3067 418.441 10.22C422.774 10.1333 426.717 10.0467 430.271 9.96ZM535.376 9.96V12.56C533.729 12.9067 532.082 13.99 530.436 15.81C528.789 17.5433 526.969 20.3167 524.976 24.13L498.716 76.13H496.506L466.086 19.97C464.352 16.7633 462.879 14.77 461.666 13.99C460.539 13.1233 459.499 12.69 458.546 12.69V9.96C460.279 10.0467 462.056 10.1333 463.876 10.22C465.782 10.3067 467.819 10.35 469.986 10.35C472.846 10.35 475.879 10.35 479.086 10.35C482.379 10.2633 485.412 10.1333 488.186 9.96V12.69C486.019 12.69 484.112 12.95 482.466 13.47C480.819 13.99 479.736 14.9433 479.216 16.33C478.696 17.7167 479.086 19.6667 480.386 22.18L502.356 64.3L501.316 65.08L518.606 30.63C521.032 25.8633 522.202 22.18 522.116 19.58C522.116 16.98 521.119 15.2033 519.126 14.25C517.132 13.21 514.316 12.6467 510.676 12.56V9.96C513.189 10.0467 515.746 10.1333 518.346 10.22C520.946 10.3067 523.372 10.35 525.626 10.35C527.879 10.35 529.742 10.3067 531.216 10.22C532.689 10.1333 534.076 10.0467 535.376 9.96ZM504.566 62.48V88.22C504.566 91.34 504.826 93.68 505.346 95.24C505.866 96.8 506.862 97.84 508.336 98.36C509.896 98.88 512.149 99.2267 515.096 99.4V102C513.102 101.827 510.589 101.74 507.556 101.74C504.609 101.653 501.619 101.61 498.586 101.61C495.206 101.61 492.042 101.653 489.096 101.74C486.149 101.74 483.766 101.827 481.946 102V99.4C484.892 99.2267 487.102 98.88 488.576 98.36C490.136 97.84 491.176 96.8 491.696 95.24C492.216 93.68 492.476 91.34 492.476 88.22V61.57L499.496 69.63L504.566 62.48ZM623.276 26.4556C625.779 28.7667 627.031 32.3778 627.031 37.2889C627.031 42.2 625.779 47.8815 623.276 54.3333C620.868 60.7852 617.353 67.3333 612.731 73.9778C608.205 80.5259 603.053 86.5926 597.276 92.1778C591.498 97.763 584.853 102.337 577.342 105.9C569.927 109.463 562.464 111.244 554.953 111.244C548.405 111.244 543.446 109.27 540.076 105.322C536.801 101.47 535.164 96.1741 535.164 89.4333C535.164 83.5593 536.368 77.1074 538.776 70.0778C541.279 63.0481 544.842 56.0667 549.464 49.1333C554.183 42.2 559.527 35.8926 565.498 30.2111C571.564 24.4333 578.546 19.8111 586.442 16.3444C594.435 12.7815 602.572 11 610.853 11C615.187 11 618.461 12.0111 620.676 14.0333C622.987 16.0556 624.142 18.6556 624.142 21.8333C624.142 23.3741 623.853 24.9148 623.276 26.4556ZM555.098 109.8C560.876 109.8 566.701 108.452 572.576 105.756C578.546 103.059 583.987 99.5444 588.898 95.2111C593.809 90.8778 598.431 85.9667 602.764 80.4778C607.098 74.9889 610.709 69.4519 613.598 63.8667C616.583 58.2815 618.942 52.937 620.676 47.8333C622.409 42.6333 623.276 38.1556 623.276 34.4C623.276 32.1852 622.938 30.3074 622.264 28.7667C620.435 32.5222 617.401 35.6518 613.164 38.1556C608.927 40.563 603.92 41.7667 598.142 41.7667C594.194 41.7667 590.824 41.1407 588.031 39.8889C582.831 45.0889 578.546 50.7222 575.176 56.7889C571.805 62.7593 570.12 67.6704 570.12 71.5222C570.12 75.8556 572.046 78.0704 575.898 78.1667C578.401 78.1667 580.761 77.0593 582.976 74.8444C585.19 72.5333 586.442 70.1741 586.731 67.7667C586.827 67.4778 586.876 67.237 586.876 67.0444C586.876 66.3704 587.02 66.0815 587.309 66.1778C587.501 66.1778 587.646 66.2741 587.742 66.4667C587.742 66.7556 587.598 67.0444 587.309 67.3333C587.116 67.6222 587.02 67.7667 587.02 67.7667C586.827 70.3667 585.624 72.7741 583.409 74.9889C581.194 77.2037 578.69 78.3593 575.898 78.4556H575.753C572.768 78.3593 570.505 77.4444 568.964 75.7111C567.52 73.9778 566.798 71.5704 566.798 68.4889C566.798 63.963 568.338 58.763 571.42 52.8889C574.598 46.9185 578.738 41.6222 583.842 37C581.627 34.7852 580.664 31.8963 580.953 28.3333H581.098C580.809 31.8963 581.772 34.737 583.987 36.8556C587.164 34.063 590.487 31.7518 593.953 29.9222C601.657 25.8778 608.831 23.8556 615.476 23.8556C618.076 23.8556 620.29 24.4333 622.12 25.5889C622.505 24.1444 622.698 22.7481 622.698 21.4C622.698 18.6074 621.687 16.2963 619.664 14.4667C617.642 12.637 614.657 11.7222 610.709 11.7222C603.487 11.7222 596.216 13.6 588.898 17.3556C581.676 21.1111 575.224 26.0222 569.542 32.0889C563.957 38.0593 558.901 44.6074 554.376 51.7333C549.946 58.8593 546.527 65.9852 544.12 73.1111C541.809 80.237 540.653 86.6407 540.653 92.3222C540.653 97.7148 541.809 101.952 544.12 105.033C546.527 108.211 550.187 109.8 555.098 109.8ZM621.398 27.3222C620.146 25.4926 618.316 24.5778 615.909 24.5778C607.338 24.5778 598.094 29.5852 588.176 39.6C590.679 40.6593 593.664 41.1889 597.131 41.1889C603.005 41.1889 608.109 39.8407 612.442 37.1444C616.776 34.4481 619.761 31.1741 621.398 27.3222ZM700.746 9.96V12.56C697.799 12.6467 695.546 13.08 693.986 13.86C692.512 14.64 691.516 15.8967 690.996 17.63C690.476 19.3633 690.216 21.8333 690.216 25.04V64.17C690.216 70.2367 689.826 75.5233 689.046 80.03C688.266 84.5367 686.879 88.4367 684.886 91.73C682.719 95.37 679.556 98.3167 675.396 100.57C671.236 102.737 666.469 103.82 661.096 103.82C656.936 103.82 652.949 103.3 649.136 102.26C645.409 101.307 642.116 99.4867 639.256 96.8C636.742 94.3733 634.749 91.8167 633.276 89.13C631.889 86.4433 630.936 83.15 630.416 79.25C629.896 75.35 629.636 70.4533 629.636 64.56V23.74C629.636 20.5333 629.376 18.1933 628.856 16.72C628.336 15.16 627.296 14.12 625.736 13.6C624.262 12.9933 622.052 12.6467 619.106 12.56V9.96C620.926 10.0467 623.309 10.1333 626.256 10.22C629.202 10.3067 632.366 10.35 635.746 10.35C638.779 10.35 641.769 10.3067 644.716 10.22C647.749 10.1333 650.262 10.0467 652.256 9.96V12.56C649.309 12.6467 647.056 12.9933 645.496 13.6C644.022 14.12 643.026 15.16 642.506 16.72C641.986 18.1933 641.726 20.5333 641.726 23.74V66.77C641.726 72.6633 642.159 78.08 643.026 83.02C643.892 87.96 645.756 91.9033 648.616 94.85C651.562 97.7967 656.112 99.27 662.266 99.27C668.852 99.27 673.922 97.84 677.476 94.98C681.116 92.0333 683.629 88.0033 685.016 82.89C686.489 77.7767 687.226 72.0133 687.226 65.6V25.04C687.226 21.8333 686.836 19.3633 686.056 17.63C685.362 15.8967 684.149 14.64 682.416 13.86C680.682 13.08 678.342 12.6467 675.396 12.56V9.96C676.956 10.0467 678.992 10.1333 681.506 10.22C684.106 10.3067 686.489 10.35 688.656 10.35C690.909 10.35 693.119 10.3067 695.286 10.22C697.539 10.1333 699.359 10.0467 700.746 9.96ZM709.669 9.96C711.489 10.0467 713.872 10.1333 716.819 10.22C719.766 10.3067 722.669 10.35 725.529 10.35C729.602 10.35 733.502 10.3067 737.229 10.22C740.956 10.1333 743.599 10.09 745.159 10.09C755.646 10.09 763.489 12.2567 768.689 16.59C773.889 20.9233 776.489 26.2967 776.489 32.71C776.489 35.31 775.969 38.0833 774.929 41.03C773.889 43.9767 772.069 46.75 769.469 49.35C766.956 51.95 763.489 54.1167 759.069 55.85C754.649 57.4967 749.059 58.32 742.299 58.32H729.819V55.72H740.999C747.152 55.72 751.832 54.7667 755.039 52.86C758.332 50.8667 760.542 48.2667 761.669 45.06C762.882 41.7667 763.489 38.1267 763.489 34.14C763.489 27.2933 761.842 22.0067 758.549 18.28C755.342 14.4667 749.796 12.56 741.909 12.56C737.922 12.56 735.322 13.2967 734.109 14.77C732.896 16.2433 732.289 19.2333 732.289 23.74V88.22C732.289 91.34 732.549 93.68 733.069 95.24C733.589 96.8 734.586 97.84 736.059 98.36C737.619 98.88 739.872 99.2267 742.819 99.4V102C740.826 101.827 738.312 101.74 735.279 101.74C732.332 101.653 729.342 101.61 726.309 101.61C722.929 101.61 719.766 101.653 716.819 101.74C713.872 101.74 711.489 101.827 709.669 102V99.4C712.616 99.2267 714.826 98.88 716.299 98.36C717.859 97.84 718.899 96.8 719.419 95.24C719.939 93.68 720.199 91.34 720.199 88.22V23.74C720.199 20.5333 719.939 18.1933 719.419 16.72C718.899 15.16 717.859 14.12 716.299 13.6C714.826 12.9933 712.616 12.6467 709.669 12.56V9.96ZM730.339 56.11C735.019 56.2833 738.702 56.5 741.389 56.76C744.076 56.9333 746.242 57.1067 747.889 57.28C749.622 57.4533 751.269 57.67 752.829 57.93C758.636 58.8833 762.796 60.66 765.309 63.26C767.909 65.7733 769.816 69.7167 771.029 75.09L774.279 88.35C775.146 92.1633 776.012 94.9367 776.879 96.67C777.832 98.3167 779.262 99.0967 781.169 99.01C782.642 98.9233 783.856 98.4467 784.809 97.58C785.849 96.7133 786.932 95.5433 788.059 94.07L790.009 95.5C788.189 98.1867 786.282 100.267 784.289 101.74C782.382 103.127 779.652 103.82 776.099 103.82C772.892 103.82 770.076 102.867 767.649 100.96C765.222 99.0533 763.402 95.3267 762.189 89.78L759.329 76.78C758.549 73.0533 757.639 69.8467 756.599 67.16C755.646 64.3867 754.259 62.22 752.439 60.66C750.706 59.1 748.106 58.32 744.639 58.32H730.599L730.339 56.11ZM996.878 9.55555C998.033 9.55555 998.948 9.94074 999.622 10.7111C1000.3 11.4815 1000.54 12.7333 1000.34 14.4667C1000.15 16.2963 998.322 19.763 994.855 24.8667C991.389 29.9704 987.248 35.7963 982.433 42.3444C977.618 48.7963 972.804 55.4407 967.989 62.2778C963.174 69.1148 958.937 75.9037 955.278 82.6444C951.618 89.2889 949.548 94.6333 949.067 98.6778C948.874 100.315 948.778 101.856 948.778 103.3C948.778 110.811 951.474 114.567 956.867 114.567C959.852 114.567 962.693 113.652 965.389 111.822C968.085 110.089 970.204 107.537 971.744 104.167H971.889C969.289 111.293 964.281 114.856 956.867 114.856C954.459 114.856 952.341 114.278 950.511 113.122C948.778 112.063 947.478 110.619 946.611 108.789C945.744 107.056 945.118 105.322 944.733 103.589C944.348 101.856 944.155 100.122 944.155 98.3889C944.155 97.5222 944.204 96.7037 944.3 95.9333C944.878 90.8296 947.093 84.7148 950.944 77.5889C954.796 70.463 959.226 63.4815 964.233 56.6444C969.241 49.8074 974.248 43.2593 979.255 37C984.263 30.7407 988.5 25.2519 991.967 20.5333C995.53 15.8148 997.407 12.637 997.6 11C997.696 10.3259 997.455 9.98889 996.878 9.98889C994.567 9.98889 989.078 14.7556 980.411 24.2889C971.841 33.8222 962.981 44.3185 953.833 55.7778C944.781 67.1407 936.211 77.5889 928.122 87.1222C920.033 96.5593 915.315 101.278 913.967 101.278C913.389 101.278 912.811 100.893 912.233 100.122C911.752 99.3519 911.511 98.3407 911.511 97.0889C911.511 94.1037 913.581 89.4333 917.722 83.0778C921.863 76.6259 926.918 69.7889 932.889 62.5667C938.859 55.3444 944.83 48.2667 950.8 41.3333C956.77 34.3037 961.922 27.9963 966.255 22.4111C970.589 16.8259 972.852 13.0704 973.044 11.1444C973.141 10.3741 972.852 9.98889 972.178 9.98889C970.637 9.98889 968.23 11.5296 964.955 14.6111C961.778 17.5963 958.118 21.5926 953.978 26.6C949.837 31.6074 945.022 37.2889 939.533 43.6444C934.141 49.9037 928.555 56.3556 922.778 63C917 69.6444 910.693 76.1444 903.855 82.5C897.115 88.7593 890.422 94.3926 883.778 99.4C877.23 104.311 870.296 108.259 862.978 111.244C855.755 114.326 848.918 115.867 842.467 115.867C834.57 115.867 828.648 113.989 824.7 110.233C820.848 106.478 818.922 101.567 818.922 95.5C818.922 91.263 819.789 86.8333 821.522 82.2111C823.352 77.4926 826.048 72.9185 829.611 68.4889C833.27 64.0593 837.459 60.063 842.178 56.5C846.896 52.937 852.433 50.0963 858.789 47.9778C865.241 45.763 871.933 44.6556 878.867 44.6556C884.933 44.6556 889.459 45.8111 892.444 48.1222C895.43 50.4333 896.922 53.5148 896.922 57.3667C896.922 60.737 895.815 64.3 893.6 68.0556C891.481 71.8111 888.641 75.2778 885.078 78.4556C881.611 81.6333 877.326 84.2815 872.222 86.4C867.118 88.5185 861.87 89.5778 856.478 89.5778C853.107 89.5778 850.122 88.9519 847.522 87.7C844.922 86.3519 843.767 84.5222 844.055 82.2111L844.344 82.0667C844.537 83.1259 845.018 83.9444 845.789 84.5222C846.559 85.1 847.57 85.5333 848.822 85.8222C850.17 86.0148 851.278 86.1593 852.144 86.2556C853.011 86.2556 854.167 86.2556 855.611 86.2556C855.9 86.2556 856.141 86.2556 856.333 86.2556C861.63 86.2556 866.781 85.2926 871.789 83.3667C876.893 81.4407 881.178 79.0333 884.644 76.1444C888.207 73.1593 891.048 69.9815 893.167 66.6111C895.285 63.1444 896.344 59.8704 896.344 56.7889C896.344 53.3222 894.9 50.5296 892.011 48.4111C889.122 46.2926 884.741 45.2333 878.867 45.2333C870.874 45.2333 863.17 46.7741 855.755 49.8556C848.341 52.937 842.178 56.837 837.267 61.5556C832.355 66.1778 828.455 71.1852 825.567 76.5778C822.678 81.9704 821.233 87.1222 821.233 92.0333C821.233 97.3296 823.063 101.615 826.722 104.889C830.381 108.163 835.918 109.8 843.333 109.8C851.23 109.8 859.415 107.922 867.889 104.167C876.459 100.507 884.452 95.7407 891.867 89.8667C899.378 83.9926 906.744 77.4926 913.967 70.3667C921.285 63.2407 927.978 56.1148 934.044 48.9889C940.207 41.863 945.744 35.363 950.655 29.4889C955.663 23.5185 960.044 18.7037 963.8 15.0444C967.555 11.3852 970.348 9.55555 972.178 9.55555C972.755 9.55555 973.285 9.79629 973.767 10.2778C974.344 10.663 974.633 11.337 974.633 12.3C974.633 14.7074 972.611 19.0407 968.567 25.3C964.522 31.463 959.563 38.3481 953.689 45.9556C947.911 53.4667 942.085 60.9296 936.211 68.3444C930.337 75.7593 925.185 82.4037 920.755 88.2778C916.326 94.1519 913.87 97.9556 913.389 99.6889C913.293 100.363 913.485 100.7 913.967 100.7C915.218 100.7 919.841 95.9815 927.833 86.5444C935.922 77.0111 944.493 66.563 953.544 55.2C962.693 43.7407 971.6 33.2926 980.267 23.8556C988.933 14.3222 994.47 9.55555 996.878 9.55555ZM1067.04 9.96C1066.69 12.9933 1066.43 15.94 1066.26 18.8C1066.17 21.66 1066.13 23.8267 1066.13 25.3C1066.13 26.86 1066.17 28.3767 1066.26 29.85C1066.35 31.2367 1066.43 32.4067 1066.52 33.36H1063.53C1063.01 28.2467 1062.27 24.2167 1061.32 21.27C1060.37 18.2367 1058.72 16.1133 1056.38 14.9C1054.13 13.6 1050.7 12.95 1046.11 12.95H1035.32C1032.37 12.95 1030.12 13.21 1028.56 13.73C1027.09 14.1633 1026.09 15.16 1025.57 16.72C1025.05 18.1933 1024.79 20.5333 1024.79 23.74V88.22C1024.79 91.34 1025.05 93.68 1025.57 95.24C1026.09 96.8 1027.09 97.84 1028.56 98.36C1030.12 98.7933 1032.37 99.01 1035.32 99.01H1044.81C1050.27 99.01 1054.39 98.2733 1057.16 96.8C1060.02 95.3267 1062.06 92.9433 1063.27 89.65C1064.57 86.27 1065.52 81.72 1066.13 76H1069.12C1068.86 78.34 1068.73 81.46 1068.73 85.36C1068.73 87.0067 1068.77 89.39 1068.86 92.51C1069.03 95.5433 1069.29 98.7067 1069.64 102C1065.22 101.827 1060.24 101.74 1054.69 101.74C1049.14 101.653 1044.2 101.61 1039.87 101.61C1037.27 101.61 1033.8 101.61 1029.47 101.61C1025.22 101.61 1020.67 101.653 1015.82 101.74C1010.97 101.74 1006.42 101.827 1002.17 102V99.4C1005.12 99.2267 1007.33 98.88 1008.8 98.36C1010.36 97.84 1011.4 96.8 1011.92 95.24C1012.44 93.68 1012.7 91.34 1012.7 88.22V23.74C1012.7 20.5333 1012.44 18.1933 1011.92 16.72C1011.4 15.16 1010.36 14.12 1008.8 13.6C1007.33 12.9933 1005.12 12.6467 1002.17 12.56V9.96C1006.42 10.0467 1010.97 10.1333 1015.82 10.22C1020.67 10.3067 1025.22 10.35 1029.47 10.35C1033.8 10.35 1037.27 10.35 1039.87 10.35C1043.86 10.35 1048.36 10.35 1053.39 10.35C1058.5 10.2633 1063.05 10.1333 1067.04 9.96ZM1044.68 54.42C1044.68 54.42 1044.68 54.8533 1044.68 55.72C1044.68 56.5867 1044.68 57.02 1044.68 57.02H1020.89C1020.89 57.02 1020.89 56.5867 1020.89 55.72C1020.89 54.8533 1020.89 54.42 1020.89 54.42H1044.68ZM1048.45 37.26C1048.1 42.2 1047.93 45.97 1047.93 48.57C1048.02 51.17 1048.06 53.5533 1048.06 55.72C1048.06 57.8867 1048.1 60.27 1048.19 62.87C1048.28 65.47 1048.49 69.24 1048.84 74.18H1045.85C1045.5 71.4067 1045.07 68.72 1044.55 66.12C1044.12 63.4333 1043.08 61.2667 1041.43 59.62C1039.87 57.8867 1037.18 57.02 1033.37 57.02V54.42C1037.18 54.42 1039.83 53.4233 1041.3 51.43C1042.86 49.4367 1043.86 47.0967 1044.29 44.41C1044.72 41.7233 1045.11 39.34 1045.46 37.26H1048.45ZM1114.54 9.96V12.56C1111.59 12.6467 1109.34 12.9933 1107.78 13.6C1106.3 14.12 1105.31 15.16 1104.79 16.72C1104.27 18.1933 1104.01 20.5333 1104.01 23.74V88.22C1104.01 91.34 1104.27 93.68 1104.79 95.24C1105.31 96.8 1106.3 97.84 1107.78 98.36C1109.34 98.7933 1111.59 99.01 1114.54 99.01H1124.03C1129.49 99.01 1133.6 98.23 1136.38 96.67C1139.24 95.11 1141.27 92.5533 1142.49 89C1143.79 85.4467 1144.74 80.68 1145.35 74.7H1148.34C1148.08 77.3867 1147.95 80.94 1147.95 85.36C1147.95 87.0067 1147.99 89.39 1148.08 92.51C1148.25 95.5433 1148.51 98.7067 1148.86 102C1144.44 101.827 1139.45 101.74 1133.91 101.74C1128.36 101.653 1123.42 101.61 1119.09 101.61C1116.49 101.61 1113.02 101.61 1108.69 101.61C1104.44 101.61 1099.89 101.653 1095.04 101.74C1090.18 101.74 1085.63 101.827 1081.39 102V99.4C1084.33 99.2267 1086.54 98.88 1088.02 98.36C1089.58 97.84 1090.62 96.8 1091.14 95.24C1091.66 93.68 1091.92 91.34 1091.92 88.22V23.74C1091.92 20.5333 1091.66 18.1933 1091.14 16.72C1090.62 15.16 1089.58 14.12 1088.02 13.6C1086.54 12.9933 1084.33 12.6467 1081.39 12.56V9.96C1083.21 10.0467 1085.59 10.1333 1088.54 10.22C1091.48 10.3067 1094.65 10.35 1098.03 10.35C1101.06 10.35 1104.05 10.3067 1107 10.22C1110.03 10.1333 1112.54 10.0467 1114.54 9.96ZM1200.58 8.13999C1208.82 8.13999 1216.01 10.0033 1222.16 13.73C1228.4 17.4567 1233.21 22.83 1236.59 29.85C1240.06 36.7833 1241.79 45.2333 1241.79 55.2C1241.79 64.9067 1240.02 73.4 1236.46 80.68C1233 87.96 1228.14 93.6367 1221.9 97.71C1215.66 101.783 1208.51 103.82 1200.45 103.82C1192.22 103.82 1184.98 101.957 1178.74 98.23C1172.59 94.5033 1167.78 89.13 1164.31 82.11C1160.93 75.09 1159.24 66.64 1159.24 56.76C1159.24 47.0533 1161.02 38.56 1164.57 31.28C1168.13 24 1172.98 18.3233 1179.13 14.25C1185.37 10.1767 1192.52 8.13999 1200.58 8.13999ZM1200.06 10.48C1194.43 10.48 1189.53 12.43 1185.37 16.33C1181.21 20.23 1177.96 25.6033 1175.62 32.45C1173.37 39.2967 1172.24 47.2267 1172.24 56.24C1172.24 65.4267 1173.5 73.4433 1176.01 80.29C1178.61 87.05 1182.08 92.2933 1186.41 96.02C1190.83 99.66 1195.69 101.48 1200.97 101.48C1206.61 101.48 1211.5 99.53 1215.66 95.63C1219.82 91.73 1223.03 86.3567 1225.28 79.51C1227.62 72.5767 1228.79 64.6467 1228.79 55.72C1228.79 46.4467 1227.49 38.43 1224.89 31.67C1222.38 24.91 1218.96 19.71 1214.62 16.07C1210.29 12.3433 1205.44 10.48 1200.06 10.48ZM1288.65 9.96C1304.16 9.96 1315.69 13.86 1323.23 21.66C1330.77 29.3733 1334.54 40.4667 1334.54 54.94C1334.54 64.3867 1332.67 72.6633 1328.95 79.77C1325.31 86.79 1319.98 92.25 1312.96 96.15C1305.94 100.05 1297.44 102 1287.48 102C1285.57 102 1282.75 101.957 1279.03 101.87C1275.3 101.697 1272.05 101.61 1269.28 101.61C1266.24 101.61 1263.25 101.653 1260.31 101.74C1257.36 101.74 1254.98 101.827 1253.16 102V99.4C1256.1 99.2267 1258.31 98.88 1259.79 98.36C1261.35 97.84 1262.39 96.8 1262.91 95.24C1263.43 93.68 1263.69 91.34 1263.69 88.22V23.74C1263.69 20.5333 1263.43 18.1933 1262.91 16.72C1262.39 15.16 1261.35 14.12 1259.79 13.6C1258.31 12.9933 1256.1 12.6467 1253.16 12.56V9.96C1254.98 10.0467 1257.36 10.1767 1260.31 10.35C1263.25 10.4367 1266.16 10.4367 1269.02 10.35C1272.05 10.2633 1275.47 10.1767 1279.29 10.09C1283.1 10.0033 1286.22 9.96 1288.65 9.96ZM1285.4 12.3C1281.41 12.3 1278.81 13.0367 1277.6 14.51C1276.38 15.9833 1275.78 18.9733 1275.78 23.48V88.48C1275.78 92.9867 1276.38 95.9767 1277.6 97.45C1278.9 98.9233 1281.54 99.66 1285.53 99.66C1294.97 99.66 1302.3 97.97 1307.5 94.59C1312.7 91.1233 1316.34 86.0967 1318.42 79.51C1320.5 72.9233 1321.54 64.9067 1321.54 55.46C1321.54 40.9 1318.85 30.0667 1313.48 22.96C1308.19 15.8533 1298.83 12.3 1285.4 12.3ZM1379.11 9.96V12.56C1376.16 12.6467 1373.91 12.9933 1372.35 13.6C1370.87 14.12 1369.88 15.16 1369.36 16.72C1368.84 18.1933 1368.58 20.5333 1368.58 23.74V88.22C1368.58 91.34 1368.84 93.68 1369.36 95.24C1369.88 96.8 1370.87 97.84 1372.35 98.36C1373.91 98.88 1376.16 99.2267 1379.11 99.4V102C1377.11 101.827 1374.6 101.74 1371.57 101.74C1368.62 101.653 1365.63 101.61 1362.6 101.61C1359.22 101.61 1356.05 101.653 1353.11 101.74C1350.16 101.74 1347.78 101.827 1345.96 102V99.4C1348.9 99.2267 1351.11 98.88 1352.59 98.36C1354.15 97.84 1355.19 96.8 1355.71 95.24C1356.23 93.68 1356.49 91.34 1356.49 88.22V23.74C1356.49 20.5333 1356.23 18.1933 1355.71 16.72C1355.19 15.16 1354.15 14.12 1352.59 13.6C1351.11 12.9933 1348.9 12.6467 1345.96 12.56V9.96C1347.78 10.0467 1350.16 10.1333 1353.11 10.22C1356.05 10.3067 1359.22 10.35 1362.6 10.35C1365.63 10.35 1368.62 10.3067 1371.57 10.22C1374.6 10.1333 1377.11 10.0467 1379.11 9.96ZM1431.77 8.13999C1437.49 8.13999 1442.17 9.00666 1445.81 10.74C1449.53 12.3867 1452.83 14.3367 1455.69 16.59C1457.42 17.89 1458.72 18.0633 1459.59 17.11C1460.54 16.07 1461.19 13.6867 1461.54 9.96H1464.53C1464.35 13.1667 1464.22 17.0667 1464.14 21.66C1464.05 26.2533 1464.01 32.32 1464.01 39.86H1461.02C1460.41 36.1333 1459.85 33.1867 1459.33 31.02C1458.81 28.7667 1458.16 26.86 1457.38 25.3C1456.68 23.74 1455.73 22.18 1454.52 20.62C1451.83 17.0667 1448.45 14.51 1444.38 12.95C1440.3 11.3033 1436.01 10.48 1431.51 10.48C1427.26 10.48 1423.4 11.5633 1419.94 13.73C1416.56 15.81 1413.61 18.8433 1411.1 22.83C1408.67 26.8167 1406.76 31.6267 1405.38 37.26C1404.08 42.8933 1403.43 49.22 1403.43 56.24C1403.43 63.52 1404.16 69.9767 1405.64 75.61C1407.11 81.1567 1409.15 85.8367 1411.75 89.65C1414.43 93.4633 1417.55 96.3667 1421.11 98.36C1424.75 100.267 1428.65 101.22 1432.81 101.22C1436.71 101.22 1440.78 100.44 1445.03 98.88C1449.27 97.32 1452.61 94.8067 1455.04 91.34C1456.94 88.8267 1458.24 86.0967 1458.94 83.15C1459.72 80.2033 1460.41 76.0867 1461.02 70.8H1464.01C1464.01 78.6867 1464.05 85.0567 1464.14 89.91C1464.22 94.6767 1464.35 98.7067 1464.53 102H1461.54C1461.19 98.2733 1460.58 95.9333 1459.72 94.98C1458.94 94.0267 1457.59 94.1567 1455.69 95.37C1452.48 97.6233 1449.06 99.6167 1445.42 101.35C1441.86 102.997 1437.27 103.82 1431.64 103.82C1423.4 103.82 1416.17 101.957 1409.93 98.23C1403.77 94.5033 1398.96 89.13 1395.5 82.11C1392.12 75.09 1390.43 66.64 1390.43 56.76C1390.43 47.0533 1392.2 38.56 1395.76 31.28C1399.31 24 1404.16 18.3233 1410.32 14.25C1416.56 10.1767 1423.71 8.13999 1431.77 8.13999Z" fill="#A77E3D"/>
<path d="M519.158 141.611C521.47 141.611 522.577 141.996 522.481 142.767C522.481 142.959 522.384 143.104 522.192 143.2C521.71 143.681 520.892 143.922 519.736 143.922C518.677 143.922 517.57 143.681 516.414 143.2C515.547 142.911 514.392 142.959 512.947 143.344C511.599 143.633 509.529 144.981 506.736 147.389C503.944 149.796 501.055 153.167 498.07 157.5C497.395 158.559 495.758 161.593 493.158 166.6C494.218 166.6 495.758 166.552 497.781 166.456C499.707 166.263 501.247 166.167 502.403 166.167C503.077 166.167 503.414 166.407 503.414 166.889C503.414 167.274 503.077 167.467 502.403 167.467C501.055 167.467 499.803 167.467 498.647 167.467C498.358 167.467 497.54 167.467 496.192 167.467C494.844 167.37 493.688 167.322 492.725 167.322C487.814 176.663 483.433 184.559 479.581 191.011C483.144 190.915 486.899 190.481 490.847 189.711C494.025 189.133 497.395 188.219 500.958 186.967V187.256C496.336 189.374 492.051 190.819 488.103 191.589C487.91 191.685 487.67 191.733 487.381 191.733C484.299 192.311 481.314 192.648 478.425 192.744C451.751 236.559 424.836 258.467 397.681 258.467C390.458 258.467 385.066 256.83 381.503 253.556C377.94 250.378 376.158 246.093 376.158 240.7C376.158 236.463 377.218 231.889 379.336 226.978C381.455 222.067 384.488 217.252 388.436 212.533C392.481 207.815 397.103 203.53 402.303 199.678C407.503 195.73 413.57 192.552 420.503 190.144C427.436 187.737 434.514 186.533 441.736 186.533C447.321 186.533 451.51 187.641 454.303 189.856C457.095 192.07 458.492 194.959 458.492 198.522C458.492 201.796 457.24 205.407 454.736 209.356C452.329 213.304 449.151 216.963 445.203 220.333C441.351 223.704 436.681 226.496 431.192 228.711C425.703 230.926 420.166 232.033 414.581 232.033C411.21 232.033 408.273 231.407 405.77 230.156C403.266 228.904 402.303 227.122 402.881 224.811L403.17 224.667C403.266 225.63 403.651 226.448 404.325 227.122C404.999 227.7 405.962 228.133 407.214 228.422C408.562 228.615 409.67 228.759 410.536 228.856C411.403 228.856 412.558 228.856 414.003 228.856C414.388 228.856 414.629 228.856 414.725 228.856C420.214 228.856 425.655 227.844 431.047 225.822C436.536 223.704 441.158 221.104 444.914 218.022C448.766 214.941 451.895 211.619 454.303 208.056C456.71 204.493 457.914 201.17 457.914 198.089C457.914 195.007 456.566 192.552 453.87 190.722C451.173 188.796 447.081 187.833 441.592 187.833C433.214 187.833 425.029 189.519 417.036 192.889C409.14 196.163 402.447 200.256 396.958 205.167C391.566 210.078 387.233 215.374 383.958 221.056C380.588 226.737 378.903 231.985 378.903 236.8C378.903 241.519 380.588 245.274 383.958 248.067C387.329 250.859 392.433 252.256 399.27 252.256C425.27 252.256 450.981 232.419 476.403 192.744C466.87 192.744 459.503 190.337 454.303 185.522C449.199 180.611 446.647 174.689 446.647 167.756C446.647 163.904 447.418 160.196 448.958 156.633C450.499 153.07 452.714 149.796 455.603 146.811C458.588 143.826 462.392 141.467 467.014 139.733C471.636 137.904 476.788 136.989 482.47 136.989C485.551 136.989 490.703 137.856 497.925 139.589C505.147 141.322 510.636 142.189 514.392 142.189C516.221 141.804 517.81 141.611 519.158 141.611ZM497.492 157.067C502.788 149.556 507.266 144.885 510.925 143.056C508.036 142.959 503.414 142.767 497.058 142.478C490.799 142.189 486.033 142.044 482.758 142.044C471.877 142.044 463.258 144.741 456.903 150.133C450.644 155.43 447.514 161.544 447.514 168.478C447.514 174.737 450.114 180.081 455.314 184.511C460.514 188.844 467.977 191.011 477.703 191.011C481.747 184.559 486.37 176.663 491.57 167.322C490.703 167.322 489.933 167.322 489.258 167.322C487.814 167.322 485.599 167.37 482.614 167.467C480.207 167.563 478.666 167.611 477.992 167.611C477.221 167.611 476.836 167.419 476.836 167.033C476.836 166.552 477.221 166.311 477.992 166.311C478.858 166.311 480.495 166.359 482.903 166.456C485.792 166.552 487.91 166.6 489.258 166.6C490.221 166.6 491.088 166.6 491.858 166.6C494.844 161.207 496.721 158.03 497.492 157.067ZM577.628 135.14C585.862 135.14 593.055 137.003 599.208 140.73C605.448 144.457 610.258 149.83 613.638 156.85C617.105 163.783 618.838 172.233 618.838 182.2C618.838 191.907 617.062 200.4 613.508 207.68C610.042 214.96 605.188 220.637 598.948 224.71C592.708 228.783 585.558 230.82 577.498 230.82C569.265 230.82 562.028 228.957 555.788 225.23C549.635 221.503 544.825 216.13 541.358 209.11C537.978 202.09 536.288 193.64 536.288 183.76C536.288 174.053 538.065 165.56 541.618 158.28C545.172 151 550.025 145.323 556.178 141.25C562.418 137.177 569.568 135.14 577.628 135.14ZM577.108 137.48C571.475 137.48 566.578 139.43 562.418 143.33C558.258 147.23 555.008 152.603 552.668 159.45C550.415 166.297 549.288 174.227 549.288 183.24C549.288 192.427 550.545 200.443 553.058 207.29C555.658 214.05 559.125 219.293 563.458 223.02C567.878 226.66 572.732 228.48 578.018 228.48C583.652 228.48 588.548 226.53 592.708 222.63C596.868 218.73 600.075 213.357 602.328 206.51C604.668 199.577 605.838 191.647 605.838 182.72C605.838 173.447 604.538 165.43 601.938 158.67C599.425 151.91 596.002 146.71 591.668 143.07C587.335 139.343 582.482 137.48 577.108 137.48ZM710.144 136.96V139.56C707.197 139.647 704.944 140.08 703.384 140.86C701.911 141.64 700.914 142.897 700.394 144.63C699.874 146.363 699.614 148.833 699.614 152.04V191.17C699.614 197.237 699.224 202.523 698.444 207.03C697.664 211.537 696.277 215.437 694.284 218.73C692.117 222.37 688.954 225.317 684.794 227.57C680.634 229.737 675.867 230.82 670.494 230.82C666.334 230.82 662.347 230.3 658.534 229.26C654.807 228.307 651.514 226.487 648.654 223.8C646.141 221.373 644.147 218.817 642.674 216.13C641.287 213.443 640.334 210.15 639.814 206.25C639.294 202.35 639.034 197.453 639.034 191.56V150.74C639.034 147.533 638.774 145.193 638.254 143.72C637.734 142.16 636.694 141.12 635.134 140.6C633.661 139.993 631.451 139.647 628.504 139.56V136.96C630.324 137.047 632.707 137.133 635.654 137.22C638.601 137.307 641.764 137.35 645.144 137.35C648.177 137.35 651.167 137.307 654.114 137.22C657.147 137.133 659.661 137.047 661.654 136.96V139.56C658.707 139.647 656.454 139.993 654.894 140.6C653.421 141.12 652.424 142.16 651.904 143.72C651.384 145.193 651.124 147.533 651.124 150.74V193.77C651.124 199.663 651.557 205.08 652.424 210.02C653.291 214.96 655.154 218.903 658.014 221.85C660.961 224.797 665.511 226.27 671.664 226.27C678.251 226.27 683.321 224.84 686.874 221.98C690.514 219.033 693.027 215.003 694.414 209.89C695.887 204.777 696.624 199.013 696.624 192.6V152.04C696.624 148.833 696.234 146.363 695.454 144.63C694.761 142.897 693.547 141.64 691.814 140.86C690.081 140.08 687.741 139.647 684.794 139.56V136.96C686.354 137.047 688.391 137.133 690.904 137.22C693.504 137.307 695.887 137.35 698.054 137.35C700.307 137.35 702.517 137.307 704.684 137.22C706.937 137.133 708.757 137.047 710.144 136.96ZM719.067 136.96C720.887 137.047 723.271 137.133 726.217 137.22C729.164 137.307 732.067 137.35 734.927 137.35C739.001 137.35 742.901 137.307 746.627 137.22C750.354 137.133 752.997 137.09 754.557 137.09C765.044 137.09 772.887 139.257 778.087 143.59C783.287 147.923 785.887 153.297 785.887 159.71C785.887 162.31 785.367 165.083 784.327 168.03C783.287 170.977 781.467 173.75 778.867 176.35C776.354 178.95 772.887 181.117 768.467 182.85C764.047 184.497 758.457 185.32 751.697 185.32H739.217V182.72H750.397C756.551 182.72 761.231 181.767 764.437 179.86C767.731 177.867 769.941 175.267 771.067 172.06C772.281 168.767 772.887 165.127 772.887 161.14C772.887 154.293 771.241 149.007 767.947 145.28C764.741 141.467 759.194 139.56 751.307 139.56C747.321 139.56 744.721 140.297 743.507 141.77C742.294 143.243 741.687 146.233 741.687 150.74V215.22C741.687 218.34 741.947 220.68 742.467 222.24C742.987 223.8 743.984 224.84 745.457 225.36C747.017 225.88 749.271 226.227 752.217 226.4V229C750.224 228.827 747.711 228.74 744.677 228.74C741.731 228.653 738.741 228.61 735.707 228.61C732.327 228.61 729.164 228.653 726.217 228.74C723.271 228.74 720.887 228.827 719.067 229V226.4C722.014 226.227 724.224 225.88 725.697 225.36C727.257 224.84 728.297 223.8 728.817 222.24C729.337 220.68 729.597 218.34 729.597 215.22V150.74C729.597 147.533 729.337 145.193 728.817 143.72C728.297 142.16 727.257 141.12 725.697 140.6C724.224 139.993 722.014 139.647 719.067 139.56V136.96ZM739.737 183.11C744.417 183.283 748.101 183.5 750.787 183.76C753.474 183.933 755.641 184.107 757.287 184.28C759.021 184.453 760.667 184.67 762.227 184.93C768.034 185.883 772.194 187.66 774.707 190.26C777.307 192.773 779.214 196.717 780.427 202.09L783.677 215.35C784.544 219.163 785.411 221.937 786.277 223.67C787.231 225.317 788.661 226.097 790.567 226.01C792.041 225.923 793.254 225.447 794.207 224.58C795.247 223.713 796.331 222.543 797.457 221.07L799.407 222.5C797.587 225.187 795.681 227.267 793.687 228.74C791.781 230.127 789.051 230.82 785.497 230.82C782.291 230.82 779.474 229.867 777.047 227.96C774.621 226.053 772.801 222.327 771.587 216.78L768.727 203.78C767.947 200.053 767.037 196.847 765.997 194.16C765.044 191.387 763.657 189.22 761.837 187.66C760.104 186.1 757.504 185.32 754.037 185.32H739.997L739.737 183.11ZM885.004 136.96V139.56C882.057 139.647 879.804 140.08 878.244 140.86C876.771 141.64 875.774 142.897 875.254 144.63C874.734 146.363 874.474 148.833 874.474 152.04V229.65C873.954 229.65 873.434 229.65 872.914 229.65C872.481 229.65 872.004 229.65 871.484 229.65L816.884 145.28V213.92C816.884 217.04 817.144 219.51 817.664 221.33C818.271 223.063 819.397 224.32 821.044 225.1C822.777 225.793 825.334 226.227 828.714 226.4V229C827.154 228.827 825.117 228.74 822.604 228.74C820.091 228.653 817.707 228.61 815.454 228.61C813.287 228.61 811.077 228.653 808.824 228.74C806.657 228.74 804.837 228.827 803.364 229V226.4C806.311 226.227 808.521 225.793 809.994 225.1C811.554 224.32 812.594 223.063 813.114 221.33C813.634 219.51 813.894 217.04 813.894 213.92V150.74C813.894 147.533 813.634 145.193 813.114 143.72C812.594 142.16 811.554 141.12 809.994 140.6C808.521 139.993 806.311 139.647 803.364 139.56V136.96C804.837 137.047 806.657 137.133 808.824 137.22C811.077 137.307 813.287 137.35 815.454 137.35C817.361 137.35 819.181 137.307 820.914 137.22C822.647 137.133 824.207 137.047 825.594 136.96L871.484 207.68V152.04C871.484 148.833 871.181 146.363 870.574 144.63C870.054 142.897 868.927 141.64 867.194 140.86C865.547 140.08 863.034 139.647 859.654 139.56V136.96C861.214 137.047 863.251 137.133 865.764 137.22C868.364 137.307 870.747 137.35 872.914 137.35C875.167 137.35 877.377 137.307 879.544 137.22C881.797 137.133 883.617 137.047 885.004 136.96ZM960.021 136.96C959.674 139.993 959.414 142.94 959.241 145.8C959.154 148.66 959.111 150.827 959.111 152.3C959.111 153.86 959.154 155.377 959.241 156.85C959.328 158.237 959.414 159.407 959.501 160.36H956.511C955.991 155.247 955.254 151.217 954.301 148.27C953.348 145.237 951.701 143.113 949.361 141.9C947.108 140.6 943.684 139.95 939.091 139.95H928.301C925.354 139.95 923.101 140.21 921.541 140.73C920.068 141.163 919.071 142.16 918.551 143.72C918.031 145.193 917.771 147.533 917.771 150.74V215.22C917.771 218.34 918.031 220.68 918.551 222.24C919.071 223.8 920.068 224.84 921.541 225.36C923.101 225.793 925.354 226.01 928.301 226.01H937.791C943.251 226.01 947.368 225.273 950.141 223.8C953.001 222.327 955.038 219.943 956.251 216.65C957.551 213.27 958.504 208.72 959.111 203H962.101C961.841 205.34 961.711 208.46 961.711 212.36C961.711 214.007 961.754 216.39 961.841 219.51C962.014 222.543 962.275 225.707 962.621 229C958.201 228.827 953.218 228.74 947.671 228.74C942.124 228.653 937.184 228.61 932.851 228.61C930.251 228.61 926.784 228.61 922.451 228.61C918.204 228.61 913.654 228.653 908.801 228.74C903.948 228.74 899.398 228.827 895.151 229V226.4C898.098 226.227 900.308 225.88 901.781 225.36C903.341 224.84 904.381 223.8 904.901 222.24C905.421 220.68 905.681 218.34 905.681 215.22V150.74C905.681 147.533 905.421 145.193 904.901 143.72C904.381 142.16 903.341 141.12 901.781 140.6C900.308 139.993 898.098 139.647 895.151 139.56V136.96C899.398 137.047 903.948 137.133 908.801 137.22C913.654 137.307 918.204 137.35 922.451 137.35C926.784 137.35 930.251 137.35 932.851 137.35C936.838 137.35 941.344 137.35 946.371 137.35C951.484 137.263 956.034 137.133 960.021 136.96ZM937.661 181.42C937.661 181.42 937.661 181.853 937.661 182.72C937.661 183.587 937.661 184.02 937.661 184.02H913.871C913.871 184.02 913.871 183.587 913.871 182.72C913.871 181.853 913.871 181.42 913.871 181.42H937.661ZM941.431 164.26C941.084 169.2 940.911 172.97 940.911 175.57C940.998 178.17 941.041 180.553 941.041 182.72C941.041 184.887 941.084 187.27 941.171 189.87C941.258 192.47 941.474 196.24 941.821 201.18H938.831C938.484 198.407 938.051 195.72 937.531 193.12C937.098 190.433 936.058 188.267 934.411 186.62C932.851 184.887 930.164 184.02 926.351 184.02V181.42C930.164 181.42 932.808 180.423 934.281 178.43C935.841 176.437 936.838 174.097 937.271 171.41C937.704 168.723 938.094 166.34 938.441 164.26H941.431ZM1045.35 136.96V139.56C1043.7 139.907 1042.06 140.99 1040.41 142.81C1038.76 144.543 1036.94 147.317 1034.95 151.13L1008.69 203.13H1006.48L976.06 146.97C974.327 143.763 972.853 141.77 971.64 140.99C970.513 140.123 969.473 139.69 968.52 139.69V136.96C970.253 137.047 972.03 137.133 973.85 137.22C975.757 137.307 977.793 137.35 979.96 137.35C982.82 137.35 985.853 137.35 989.06 137.35C992.353 137.263 995.387 137.133 998.16 136.96V139.69C995.993 139.69 994.087 139.95 992.44 140.47C990.793 140.99 989.71 141.943 989.19 143.33C988.67 144.717 989.06 146.667 990.36 149.18L1012.33 191.3L1011.29 192.08L1028.58 157.63C1031.01 152.863 1032.18 149.18 1032.09 146.58C1032.09 143.98 1031.09 142.203 1029.1 141.25C1027.11 140.21 1024.29 139.647 1020.65 139.56V136.96C1023.16 137.047 1025.72 137.133 1028.32 137.22C1030.92 137.307 1033.35 137.35 1035.6 137.35C1037.85 137.35 1039.72 137.307 1041.19 137.22C1042.66 137.133 1044.05 137.047 1045.35 136.96ZM1014.54 189.48V215.22C1014.54 218.34 1014.8 220.68 1015.32 222.24C1015.84 223.8 1016.84 224.84 1018.31 225.36C1019.87 225.88 1022.12 226.227 1025.07 226.4V229C1023.08 228.827 1020.56 228.74 1017.53 228.74C1014.58 228.653 1011.59 228.61 1008.56 228.61C1005.18 228.61 1002.02 228.653 999.07 228.74C996.123 228.74 993.74 228.827 991.92 229V226.4C994.867 226.227 997.077 225.88 998.55 225.36C1000.11 224.84 1001.15 223.8 1001.67 222.24C1002.19 220.68 1002.45 218.34 1002.45 215.22V188.57L1009.47 196.63L1014.54 189.48ZM1147.69 136.96C1147.34 140.253 1147.08 143.46 1146.91 146.58C1146.82 149.613 1146.78 151.953 1146.78 153.6C1146.78 155.68 1146.82 157.63 1146.91 159.45C1146.99 161.27 1147.08 162.873 1147.17 164.26H1144.18C1143.57 158.193 1142.75 153.427 1141.71 149.96C1140.67 146.407 1138.85 143.85 1136.25 142.29C1133.65 140.73 1129.62 139.95 1124.16 139.95H1117.14V213.92C1117.14 217.387 1117.44 219.987 1118.05 221.72C1118.74 223.453 1120.04 224.623 1121.95 225.23C1123.85 225.837 1126.63 226.227 1130.27 226.4V229C1128.01 228.827 1125.15 228.74 1121.69 228.74C1118.22 228.653 1114.71 228.61 1111.16 228.61C1107.26 228.61 1103.57 228.653 1100.11 228.74C1096.73 228.74 1094 228.827 1091.92 229V226.4C1095.56 226.227 1098.33 225.837 1100.24 225.23C1102.14 224.623 1103.4 223.453 1104.01 221.72C1104.7 219.987 1105.05 217.387 1105.05 213.92V139.95H1098.03C1092.65 139.95 1088.62 140.73 1085.94 142.29C1083.34 143.85 1081.52 146.407 1080.48 149.96C1079.44 153.427 1078.61 158.193 1078.01 164.26H1075.02C1075.19 162.873 1075.28 161.27 1075.28 159.45C1075.36 157.63 1075.41 155.68 1075.41 153.6C1075.41 151.953 1075.32 149.613 1075.15 146.58C1075.06 143.46 1074.84 140.253 1074.5 136.96C1078.14 137.047 1082.08 137.133 1086.33 137.22C1090.66 137.307 1094.99 137.35 1099.33 137.35C1103.66 137.35 1107.6 137.35 1111.16 137.35C1114.71 137.35 1118.61 137.35 1122.86 137.35C1127.19 137.35 1131.52 137.307 1135.86 137.22C1140.19 137.133 1144.13 137.047 1147.69 136.96ZM1239 153.456C1241.51 155.767 1242.76 159.378 1242.76 164.289C1242.76 169.2 1241.51 174.881 1239 181.333C1236.59 187.785 1233.08 194.333 1228.46 200.978C1223.93 207.526 1218.78 213.593 1213 219.178C1207.22 224.763 1200.58 229.337 1193.07 232.9C1185.65 236.463 1178.19 238.244 1170.68 238.244C1164.13 238.244 1159.17 236.27 1155.8 232.322C1152.53 228.47 1150.89 223.174 1150.89 216.433C1150.89 210.559 1152.09 204.107 1154.5 197.078C1157.01 190.048 1160.57 183.067 1165.19 176.133C1169.91 169.2 1175.25 162.893 1181.22 157.211C1187.29 151.433 1194.27 146.811 1202.17 143.344C1210.16 139.781 1218.3 138 1226.58 138C1230.91 138 1234.19 139.011 1236.4 141.033C1238.71 143.056 1239.87 145.656 1239.87 148.833C1239.87 150.374 1239.58 151.915 1239 153.456ZM1170.82 236.8C1176.6 236.8 1182.43 235.452 1188.3 232.756C1194.27 230.059 1199.71 226.544 1204.62 222.211C1209.54 217.878 1214.16 212.967 1218.49 207.478C1222.82 201.989 1226.44 196.452 1229.32 190.867C1232.31 185.281 1234.67 179.937 1236.4 174.833C1238.14 169.633 1239 165.156 1239 161.4C1239 159.185 1238.66 157.307 1237.99 155.767C1236.16 159.522 1233.13 162.652 1228.89 165.156C1224.65 167.563 1219.65 168.767 1213.87 168.767C1209.92 168.767 1206.55 168.141 1203.76 166.889C1198.56 172.089 1194.27 177.722 1190.9 183.789C1187.53 189.759 1185.85 194.67 1185.85 198.522C1185.85 202.856 1187.77 205.07 1191.62 205.167C1194.13 205.167 1196.49 204.059 1198.7 201.844C1200.92 199.533 1202.17 197.174 1202.46 194.767C1202.55 194.478 1202.6 194.237 1202.6 194.044C1202.6 193.37 1202.75 193.081 1203.04 193.178C1203.23 193.178 1203.37 193.274 1203.47 193.467C1203.47 193.756 1203.32 194.044 1203.04 194.333C1202.84 194.622 1202.75 194.767 1202.75 194.767C1202.55 197.367 1201.35 199.774 1199.14 201.989C1196.92 204.204 1194.42 205.359 1191.62 205.456H1191.48C1188.49 205.359 1186.23 204.444 1184.69 202.711C1183.25 200.978 1182.52 198.57 1182.52 195.489C1182.52 190.963 1184.06 185.763 1187.15 179.889C1190.32 173.919 1194.46 168.622 1199.57 164C1197.35 161.785 1196.39 158.896 1196.68 155.333H1196.82C1196.54 158.896 1197.5 161.737 1199.71 163.856C1202.89 161.063 1206.21 158.752 1209.68 156.922C1217.38 152.878 1224.56 150.856 1231.2 150.856C1233.8 150.856 1236.02 151.433 1237.85 152.589C1238.23 151.144 1238.42 149.748 1238.42 148.4C1238.42 145.607 1237.41 143.296 1235.39 141.467C1233.37 139.637 1230.38 138.722 1226.44 138.722C1219.21 138.722 1211.94 140.6 1204.62 144.356C1197.4 148.111 1190.95 153.022 1185.27 159.089C1179.68 165.059 1174.63 171.607 1170.1 178.733C1165.67 185.859 1162.25 192.985 1159.85 200.111C1157.54 207.237 1156.38 213.641 1156.38 219.322C1156.38 224.715 1157.54 228.952 1159.85 232.033C1162.25 235.211 1165.91 236.8 1170.82 236.8ZM1237.12 154.322C1235.87 152.493 1234.04 151.578 1231.64 151.578C1223.06 151.578 1213.82 156.585 1203.9 166.6C1206.41 167.659 1209.39 168.189 1212.86 168.189C1218.73 168.189 1223.84 166.841 1228.17 164.144C1232.5 161.448 1235.49 158.174 1237.12 154.322ZM1272.27 136.96C1287.79 136.96 1299.31 140.86 1306.85 148.66C1314.39 156.373 1318.16 167.467 1318.16 181.94C1318.16 191.387 1316.3 199.663 1312.57 206.77C1308.93 213.79 1303.6 219.25 1296.58 223.15C1289.56 227.05 1281.07 229 1271.1 229C1269.2 229 1266.38 228.957 1262.65 228.87C1258.93 228.697 1255.68 228.61 1252.9 228.61C1249.87 228.61 1246.88 228.653 1243.93 228.74C1240.99 228.74 1238.6 228.827 1236.78 229V226.4C1239.73 226.227 1241.94 225.88 1243.41 225.36C1244.97 224.84 1246.01 223.8 1246.53 222.24C1247.05 220.68 1247.31 218.34 1247.31 215.22V150.74C1247.31 147.533 1247.05 145.193 1246.53 143.72C1246.01 142.16 1244.97 141.12 1243.41 140.6C1241.94 139.993 1239.73 139.647 1236.78 139.56V136.96C1238.6 137.047 1240.99 137.177 1243.93 137.35C1246.88 137.437 1249.78 137.437 1252.64 137.35C1255.68 137.263 1259.1 137.177 1262.91 137.09C1266.73 137.003 1269.85 136.96 1272.27 136.96ZM1269.02 139.3C1265.04 139.3 1262.44 140.037 1261.22 141.51C1260.01 142.983 1259.4 145.973 1259.4 150.48V215.48C1259.4 219.987 1260.01 222.977 1261.22 224.45C1262.52 225.923 1265.17 226.66 1269.15 226.66C1278.6 226.66 1285.92 224.97 1291.12 221.59C1296.32 218.123 1299.96 213.097 1302.04 206.51C1304.12 199.923 1305.16 191.907 1305.16 182.46C1305.16 167.9 1302.48 157.067 1297.1 149.96C1291.82 142.853 1282.46 139.3 1269.02 139.3ZM1364.46 136.31L1396.18 218.08C1397.48 221.373 1398.96 223.583 1400.6 224.71C1402.25 225.75 1403.77 226.313 1405.15 226.4V229C1403.42 228.827 1401.3 228.74 1398.78 228.74C1396.27 228.653 1393.76 228.61 1391.24 228.61C1387.86 228.61 1384.7 228.653 1381.75 228.74C1378.81 228.74 1376.42 228.827 1374.6 229V226.4C1379.02 226.227 1381.84 225.49 1383.05 224.19C1384.27 222.803 1384.01 219.9 1382.27 215.48L1358.09 150.87L1360.17 149.18L1337.55 207.94C1335.73 212.62 1334.87 216.303 1334.95 218.99C1335.04 221.59 1336.04 223.453 1337.94 224.58C1339.85 225.707 1342.62 226.313 1346.26 226.4V229C1343.84 228.827 1341.28 228.74 1338.59 228.74C1335.99 228.653 1333.57 228.61 1331.31 228.61C1329.15 228.61 1327.28 228.653 1325.72 228.74C1324.25 228.74 1322.86 228.827 1321.56 229V226.4C1323.3 225.967 1325.07 224.97 1326.89 223.41C1328.71 221.763 1330.36 218.99 1331.83 215.09L1362.38 136.31C1362.73 136.31 1363.08 136.31 1363.42 136.31C1363.77 136.31 1364.12 136.31 1364.46 136.31ZM1380.32 191.56V194.16H1341.58L1342.88 191.56H1380.32ZM1474.32 136.96V139.56C1472.68 139.907 1471.03 140.99 1469.38 142.81C1467.74 144.543 1465.92 147.317 1463.92 151.13L1437.66 203.13H1435.45L1405.03 146.97C1403.3 143.763 1401.83 141.77 1400.61 140.99C1399.49 140.123 1398.45 139.69 1397.49 139.69V136.96C1399.23 137.047 1401 137.133 1402.82 137.22C1404.73 137.307 1406.77 137.35 1408.93 137.35C1411.79 137.35 1414.83 137.35 1418.03 137.35C1421.33 137.263 1424.36 137.133 1427.13 136.96V139.69C1424.97 139.69 1423.06 139.95 1421.41 140.47C1419.77 140.99 1418.68 141.943 1418.16 143.33C1417.64 144.717 1418.03 146.667 1419.33 149.18L1441.3 191.3L1440.26 192.08L1457.55 157.63C1459.98 152.863 1461.15 149.18 1461.06 146.58C1461.06 143.98 1460.07 142.203 1458.07 141.25C1456.08 140.21 1453.26 139.647 1449.62 139.56V136.96C1452.14 137.047 1454.69 137.133 1457.29 137.22C1459.89 137.307 1462.32 137.35 1464.57 137.35C1466.83 137.35 1468.69 137.307 1470.16 137.22C1471.64 137.133 1473.02 137.047 1474.32 136.96ZM1443.51 189.48V215.22C1443.51 218.34 1443.77 220.68 1444.29 222.24C1444.81 223.8 1445.81 224.84 1447.28 225.36C1448.84 225.88 1451.1 226.227 1454.04 226.4V229C1452.05 228.827 1449.54 228.74 1446.5 228.74C1443.56 228.653 1440.57 228.61 1437.53 228.61C1434.15 228.61 1430.99 228.653 1428.04 228.74C1425.1 228.74 1422.71 228.827 1420.89 229V226.4C1423.84 226.227 1426.05 225.88 1427.52 225.36C1429.08 224.84 1430.12 223.8 1430.64 222.24C1431.16 220.68 1431.42 218.34 1431.42 215.22V188.57L1438.44 196.63L1443.51 189.48Z" fill="#A77E3D"/>
</svg>
