<svg viewBox="0 0 462 182" fill="none" xmlns="http://www.w3.org/2000/svg">
<path d="M89.1222 0.911112C90.1593 0.911112 90.963 1.14444 91.5333 1.61111C92.1037 2.02593 92.3889 2.57037 92.3889 3.24444C92.3889 4.43704 91.5074 5.55185 89.7444 6.58889C87.9815 7.57407 85.4667 8.06667 82.2 8.06667C78.7778 8.06667 74.837 7.80741 70.3778 7.28889C67.5259 9.15555 65.0111 11.3593 62.8333 13.9C60.863 16.1815 58.6593 19.137 56.2222 22.7667C53.837 26.3444 51.7111 29.663 49.8444 32.7222C48.0296 35.7296 45.8 38.9185 43.1556 42.2889C40.5111 45.6074 37.8148 48.4074 35.0667 50.6889C32.3704 52.9704 29.0519 54.863 25.1111 56.3667C21.1704 57.8704 16.9185 58.6222 12.3556 58.6222C8.25926 58.6222 5.17407 57.637 3.1 55.6667C1.07778 53.6963 0.0666666 51.1296 0.0666666 47.9667C0.0666666 43.8704 1.64815 39.5407 4.81111 34.9778C8.02593 30.363 12.2519 26.7074 17.4889 24.0111C16.8667 22.6111 16.5556 21.1074 16.5556 19.5C16.5556 17.5296 16.9963 15.5593 17.8778 13.5889C18.8111 11.5667 20.1852 9.64815 22 7.83333C23.8148 5.96667 26.3037 4.46296 29.4667 3.32222C32.6815 2.18148 36.3111 1.61111 40.3556 1.61111C43.6222 1.61111 49.2741 2.05185 57.3111 2.93333C65.3482 3.81481 70.5074 4.33333 72.7889 4.48889C77.7667 2.1037 83.2111 0.911112 89.1222 0.911112ZM77.3778 4.72222C80.6444 4.72222 83.3407 4.59259 85.4667 4.33333C87.5926 4.07407 89.0185 3.81481 89.7444 3.55556C90.4704 3.24444 90.8333 2.93333 90.8333 2.62222C90.8333 2.1037 90.2111 1.84444 88.9667 1.84444C84.1963 1.84444 79.6593 2.77778 75.3556 4.64444C76.0815 4.6963 76.7556 4.72222 77.3778 4.72222ZM61.9 12.9667C63.7148 10.737 65.8667 8.76667 68.3556 7.05555C65.8667 6.74444 62.5222 6.27778 58.3222 5.65555C54.1741 4.98148 50.6222 4.46296 47.6667 4.1C44.763 3.73704 42.2741 3.55556 40.2 3.55556C36.3111 3.55556 32.837 4.02222 29.7778 4.95555C26.7185 5.88889 24.2815 7.13333 22.4667 8.68889C20.7037 10.2444 19.3556 11.9296 18.4222 13.7444C17.4889 15.5593 17.0222 17.4259 17.0222 19.3444C17.0222 20.9 17.3593 22.3519 18.0333 23.7C22.8556 21.3148 27.963 20.1222 33.3556 20.1222C36.5185 20.1222 38.8778 20.7185 40.4333 21.9111C41.9889 23.1037 42.7667 24.7111 42.7667 26.7333C42.7667 28.4963 42.1704 30.4148 40.9778 32.4889C39.7852 34.5111 38.2037 36.4037 36.2333 38.1667C34.263 39.9296 31.8519 41.4074 29 42.6C26.2 43.7407 23.3481 44.3111 20.4444 44.3111C18.6296 44.3111 17.0222 43.9741 15.6222 43.3C14.2222 42.5741 13.6259 41.5889 13.8333 40.3444L14.0667 40.2667C14.1185 40.837 14.3259 41.2778 14.6889 41.5889C15.1037 41.9 15.6481 42.1333 16.3222 42.2889C17.0481 42.3926 17.6444 42.4704 18.1111 42.5222C18.5778 42.5222 19.2259 42.5222 20.0556 42.5222C20.2111 42.5222 20.3148 42.5222 20.3667 42.5222C23.2704 42.5222 26.1222 42.0037 28.9222 40.9667C31.7222 39.8778 34.0815 38.5296 36 36.9222C37.9704 35.3148 39.5259 33.5778 40.6667 31.7111C41.8593 29.8444 42.4556 28.0815 42.4556 26.4222C42.4556 24.6074 41.7037 23.1556 40.2 22.0667C38.6963 20.9778 36.4148 20.4333 33.3556 20.4333C28.0667 20.4333 23.037 21.6259 18.2667 24.0111C20.4444 27.9 24.6963 29.8444 31.0222 29.8444C32.7333 29.8444 34.5741 29.6889 36.5444 29.3778V29.4556C33.9519 30.1296 31.5926 30.4926 29.4667 30.5444C29.3111 30.5444 29.1815 30.5444 29.0778 30.5444C23.3741 30.5444 19.563 28.4963 17.6444 24.4C12.8222 26.9407 8.90741 30.2852 5.9 34.4333C2.89259 38.5296 1.38889 42.3926 1.38889 46.0222C1.38889 48.7704 2.34815 50.9741 4.26667 52.6333C6.18519 54.3444 9.08889 55.2 12.9778 55.2C16.9704 55.2 20.7815 54.4741 24.4111 53.0222C28.0926 51.6222 31.2556 49.8593 33.9 47.7333C36.5963 45.6074 39.3185 42.963 42.0667 39.8C44.8148 36.637 47.1222 33.6556 48.9889 30.8556C50.8556 28.0556 53.0074 24.8926 55.4444 21.3667C57.9333 17.8407 60.0852 15.0407 61.9 12.9667ZM113.454 51V49.6C115.041 49.5067 116.231 49.32 117.024 49.04C117.864 48.76 118.424 48.2 118.704 47.36C118.984 46.52 119.124 45.26 119.124 43.58V8.86C119.124 7.13333 118.984 5.87333 118.704 5.08C118.424 4.24 117.864 3.68 117.024 3.4C116.231 3.07333 115.041 2.88666 113.454 2.84V1.44C114.527 1.48667 115.881 1.53333 117.514 1.58C119.147 1.62666 120.757 1.65 122.344 1.65C124.164 1.65 125.867 1.62666 127.454 1.58C129.041 1.53333 130.324 1.48667 131.304 1.44V2.84C129.717 2.88666 128.504 3.07333 127.664 3.4C126.871 3.68 126.334 4.24 126.054 5.08C125.774 5.87333 125.634 7.13333 125.634 8.86V43.58C125.634 45.26 125.774 46.52 126.054 47.36C126.334 48.2 126.871 48.76 127.664 49.04C128.504 49.32 129.717 49.5067 131.304 49.6V51C130.324 50.9067 129.041 50.86 127.454 50.86C125.867 50.8133 124.164 50.79 122.344 50.79C120.757 50.79 119.147 50.8133 117.514 50.86C115.881 50.86 114.527 50.9067 113.454 51ZM84.1939 51V49.6C85.7806 49.5067 86.9706 49.32 87.7639 49.04C88.6039 48.76 89.1639 48.2 89.4439 47.36C89.7239 46.52 89.8639 45.26 89.8639 43.58V8.86C89.8639 7.13333 89.7239 5.87333 89.4439 5.08C89.1639 4.24 88.6039 3.68 87.7639 3.4C86.9706 3.07333 85.7806 2.88666 84.1939 2.84V1.44C85.1739 1.48667 86.4572 1.53333 88.0439 1.58C89.6306 1.62666 91.3339 1.65 93.1539 1.65C94.7872 1.65 96.3972 1.62666 97.9839 1.58C99.6172 1.53333 100.971 1.48667 102.044 1.44V2.84C100.457 2.88666 99.2439 3.07333 98.4039 3.4C97.6106 3.68 97.0739 4.24 96.7939 5.08C96.5139 5.87333 96.3739 7.13333 96.3739 8.86V43.58C96.3739 45.26 96.5139 46.52 96.7939 47.36C97.0739 48.2 97.6106 48.76 98.4039 49.04C99.2439 49.32 100.457 49.5067 102.044 49.6V51C100.971 50.9067 99.6172 50.86 97.9839 50.86C96.3972 50.8133 94.7872 50.79 93.1539 50.79C91.3339 50.79 89.6306 50.8133 88.0439 50.86C86.4572 50.86 85.1739 50.9067 84.1939 51ZM93.9239 26.78V25.38H121.574V26.78H93.9239ZM172.102 1.44C171.916 3.07333 171.776 4.66 171.682 6.2C171.636 7.74 171.612 8.90666 171.612 9.7C171.612 10.54 171.636 11.3567 171.682 12.15C171.729 12.8967 171.776 13.5267 171.822 14.04H170.212C169.932 11.2867 169.536 9.11666 169.022 7.53C168.509 5.89666 167.622 4.75333 166.362 4.1C165.149 3.4 163.306 3.05 160.832 3.05H155.022C153.436 3.05 152.222 3.19 151.382 3.47C150.589 3.70333 150.052 4.24 149.772 5.08C149.492 5.87333 149.352 7.13333 149.352 8.86V43.58C149.352 45.26 149.492 46.52 149.772 47.36C150.052 48.2 150.589 48.76 151.382 49.04C152.222 49.2733 153.436 49.39 155.022 49.39H160.132C163.072 49.39 165.289 48.9933 166.782 48.2C168.322 47.4067 169.419 46.1233 170.072 44.35C170.772 42.53 171.286 40.08 171.612 37H173.222C173.082 38.26 173.012 39.94 173.012 42.04C173.012 42.9267 173.036 44.21 173.082 45.89C173.176 47.5233 173.316 49.2267 173.502 51C171.122 50.9067 168.439 50.86 165.452 50.86C162.466 50.8133 159.806 50.79 157.472 50.79C156.446 50.79 155.116 50.79 153.482 50.79C151.896 50.79 150.169 50.8133 148.302 50.86C146.436 50.86 144.546 50.8833 142.632 50.93C140.719 50.93 138.899 50.9533 137.172 51V49.6C138.759 49.5067 139.949 49.32 140.742 49.04C141.582 48.76 142.142 48.2 142.422 47.36C142.702 46.52 142.842 45.26 142.842 43.58V8.86C142.842 7.13333 142.702 5.87333 142.422 5.08C142.142 4.24 141.582 3.68 140.742 3.4C139.949 3.07333 138.759 2.88666 137.172 2.84V1.44C138.899 1.48667 140.719 1.53333 142.632 1.58C144.546 1.58 146.436 1.60333 148.302 1.65C150.169 1.65 151.896 1.65 153.482 1.65C155.116 1.65 156.446 1.65 157.472 1.65C159.619 1.65 162.046 1.65 164.752 1.65C167.506 1.60333 169.956 1.53333 172.102 1.44ZM160.062 25.38C160.062 25.38 160.062 25.6133 160.062 26.08C160.062 26.5467 160.062 26.78 160.062 26.78H147.252C147.252 26.78 147.252 26.5467 147.252 26.08C147.252 25.6133 147.252 25.38 147.252 25.38H160.062ZM162.092 16.14C161.906 18.8 161.812 20.83 161.812 22.23C161.859 23.63 161.882 24.9133 161.882 26.08C161.882 27.2467 161.906 28.53 161.952 29.93C161.999 31.33 162.116 33.36 162.302 36.02H160.692C160.506 34.5267 160.272 33.08 159.992 31.68C159.759 30.2333 159.199 29.0667 158.312 28.18C157.472 27.2467 156.026 26.78 153.972 26.78V25.38C155.512 25.38 156.679 25.0767 157.472 24.47C158.312 23.8167 158.919 23 159.292 22.02C159.666 21.04 159.922 20.0367 160.062 19.01C160.202 17.9367 160.342 16.98 160.482 16.14H162.092ZM214.538 1.09L231.618 45.12C232.318 46.8933 233.111 48.0833 233.998 48.69C234.884 49.25 235.701 49.5533 236.448 49.6V51C235.514 50.9067 234.371 50.86 233.018 50.86C231.664 50.8133 230.311 50.79 228.958 50.79C227.138 50.79 225.434 50.8133 223.848 50.86C222.261 50.86 220.978 50.9067 219.998 51V49.6C222.378 49.5067 223.894 49.11 224.548 48.41C225.201 47.6633 225.061 46.1 224.128 43.72L211.108 8.93L212.228 8.02L200.048 39.66C199.301 41.5267 198.858 43.1133 198.718 44.42C198.578 45.68 198.694 46.6833 199.068 47.43C199.488 48.1767 200.164 48.7133 201.098 49.04C202.078 49.3667 203.291 49.5533 204.738 49.6V51C203.431 50.9067 202.054 50.86 200.608 50.86C199.208 50.8133 197.901 50.79 196.688 50.79C195.521 50.79 194.518 50.8133 193.678 50.86C192.884 50.86 192.138 50.9067 191.438 51V49.6C192.371 49.3667 193.328 48.83 194.308 47.99C195.288 47.1033 196.174 45.61 196.968 43.51L213.418 1.09C213.604 1.09 213.791 1.09 213.978 1.09C214.164 1.09 214.351 1.09 214.538 1.09ZM223.078 30.84V32.24H202.218L202.918 30.84H223.078ZM237.592 1.44C238.572 1.48667 239.856 1.53333 241.442 1.58C243.029 1.62666 244.592 1.65 246.132 1.65C248.326 1.65 250.426 1.62666 252.432 1.58C254.439 1.53333 255.862 1.51 256.702 1.51C260.482 1.51 263.609 2.04667 266.082 3.12C268.602 4.19333 270.469 5.66333 271.682 7.53C272.942 9.35 273.572 11.4033 273.572 13.69C273.572 15.09 273.292 16.5833 272.732 18.17C272.172 19.7567 271.192 21.25 269.792 22.65C268.439 24.05 266.572 25.2167 264.192 26.15C261.812 27.0367 258.802 27.48 255.162 27.48H248.442V26.08H254.462C257.776 26.08 260.296 25.5667 262.022 24.54C263.796 23.4667 264.986 22.0667 265.592 20.34C266.246 18.5667 266.572 16.6067 266.572 14.46C266.572 10.7733 265.686 7.92666 263.912 5.92C262.186 3.86666 259.199 2.84 254.952 2.84C252.806 2.84 251.406 3.23667 250.752 4.03C250.099 4.82333 249.772 6.43333 249.772 8.86V43.58C249.772 45.26 249.912 46.52 250.192 47.36C250.472 48.2 251.009 48.76 251.802 49.04C252.642 49.32 253.856 49.5067 255.442 49.6V51C254.369 50.9067 253.016 50.86 251.382 50.86C249.796 50.8133 248.186 50.79 246.552 50.79C244.732 50.79 243.029 50.8133 241.442 50.86C239.856 50.86 238.572 50.9067 237.592 51V49.6C239.179 49.5067 240.369 49.32 241.162 49.04C242.002 48.76 242.562 48.2 242.842 47.36C243.122 46.52 243.262 45.26 243.262 43.58V8.86C243.262 7.13333 243.122 5.87333 242.842 5.08C242.562 4.24 242.002 3.68 241.162 3.4C240.369 3.07333 239.179 2.88666 237.592 2.84V1.44ZM248.722 26.29C251.242 26.3833 253.226 26.5 254.672 26.64C256.119 26.7333 257.286 26.8267 258.172 26.92C259.106 27.0133 259.992 27.13 260.832 27.27C263.959 27.7833 266.199 28.74 267.552 30.14C268.952 31.4933 269.979 33.6167 270.632 36.51L272.382 43.65C272.849 45.7033 273.316 47.1967 273.782 48.13C274.296 49.0167 275.066 49.4367 276.092 49.39C276.886 49.3433 277.539 49.0867 278.052 48.62C278.612 48.1533 279.196 47.5233 279.802 46.73L280.852 47.5C279.872 48.9467 278.846 50.0667 277.772 50.86C276.746 51.6067 275.276 51.98 273.362 51.98C271.636 51.98 270.119 51.4667 268.812 50.44C267.506 49.4133 266.526 47.4067 265.872 44.42L264.332 37.42C263.912 35.4133 263.422 33.6867 262.862 32.24C262.349 30.7467 261.602 29.58 260.622 28.74C259.689 27.9 258.289 27.48 256.422 27.48H248.862L248.722 26.29ZM321.004 1.44C320.818 3.21333 320.678 4.94 320.584 6.62C320.538 8.25333 320.514 9.51333 320.514 10.4C320.514 11.52 320.538 12.57 320.584 13.55C320.631 14.53 320.678 15.3933 320.724 16.14H319.114C318.788 12.8733 318.344 10.3067 317.784 8.44C317.224 6.52666 316.244 5.15 314.844 4.31C313.444 3.47 311.274 3.05 308.334 3.05H304.554V42.88C304.554 44.7467 304.718 46.1467 305.044 47.08C305.418 48.0133 306.118 48.6433 307.144 48.97C308.171 49.2967 309.664 49.5067 311.624 49.6V51C310.411 50.9067 308.871 50.86 307.004 50.86C305.138 50.8133 303.248 50.79 301.334 50.79C299.234 50.79 297.251 50.8133 295.384 50.86C293.564 50.86 292.094 50.9067 290.974 51V49.6C292.934 49.5067 294.428 49.2967 295.454 48.97C296.481 48.6433 297.158 48.0133 297.484 47.08C297.858 46.1467 298.044 44.7467 298.044 42.88V3.05H294.264C291.371 3.05 289.201 3.47 287.754 4.31C286.354 5.15 285.374 6.52666 284.814 8.44C284.254 10.3067 283.811 12.8733 283.484 16.14H281.874C281.968 15.3933 282.014 14.53 282.014 13.55C282.061 12.57 282.084 11.52 282.084 10.4C282.084 9.51333 282.038 8.25333 281.944 6.62C281.898 4.94 281.781 3.21333 281.594 1.44C283.554 1.48667 285.678 1.53333 287.964 1.58C290.298 1.62666 292.631 1.65 294.964 1.65C297.298 1.65 299.421 1.65 301.334 1.65C303.248 1.65 305.348 1.65 307.634 1.65C309.968 1.65 312.301 1.62666 314.634 1.58C316.968 1.53333 319.091 1.48667 321.004 1.44ZM364.734 0.459996C369.167 0.459996 373.04 1.46333 376.354 3.47C379.714 5.47666 382.304 8.37 384.124 12.15C385.99 15.8833 386.924 20.4333 386.924 25.8C386.924 31.0267 385.967 35.6 384.054 39.52C382.187 43.44 379.574 46.4967 376.214 48.69C372.854 50.8833 369.004 51.98 364.664 51.98C360.23 51.98 356.334 50.9767 352.974 48.97C349.66 46.9633 347.07 44.07 345.204 40.29C343.384 36.51 342.474 31.96 342.474 26.64C342.474 21.4133 343.43 16.84 345.344 12.92C347.257 9 349.87 5.94333 353.184 3.75C356.544 1.55666 360.394 0.459996 364.734 0.459996ZM364.454 1.72C361.42 1.72 358.784 2.77 356.544 4.87C354.304 6.97 352.554 9.86333 351.294 13.55C350.08 17.2367 349.474 21.5067 349.474 26.36C349.474 31.3067 350.15 35.6233 351.504 39.31C352.904 42.95 354.77 45.7733 357.104 47.78C359.484 49.74 362.097 50.72 364.944 50.72C367.977 50.72 370.614 49.67 372.854 47.57C375.094 45.47 376.82 42.5767 378.034 38.89C379.294 35.1567 379.924 30.8867 379.924 26.08C379.924 21.0867 379.224 16.77 377.824 13.13C376.47 9.49 374.627 6.69 372.294 4.73C369.96 2.72333 367.347 1.72 364.454 1.72ZM427.972 1.44C427.785 3.21333 427.645 4.94 427.552 6.62C427.505 8.25333 427.482 9.51333 427.482 10.4C427.482 11.52 427.505 12.57 427.552 13.55C427.598 14.53 427.645 15.3933 427.692 16.14H426.082C425.755 12.8733 425.312 10.3067 424.752 8.44C424.192 6.52666 423.212 5.15 421.812 4.31C420.412 3.47 418.242 3.05 415.302 3.05H410.892C409.305 3.05 408.092 3.19 407.252 3.47C406.458 3.70333 405.922 4.24 405.642 5.08C405.362 5.87333 405.222 7.13333 405.222 8.86V43.58C405.222 45.26 405.385 46.52 405.712 47.36C406.085 48.2 406.785 48.76 407.812 49.04C408.838 49.32 410.332 49.5067 412.292 49.6V51C411.078 50.9067 409.538 50.86 407.672 50.86C405.805 50.8133 403.915 50.79 402.002 50.79C400.182 50.79 398.478 50.8133 396.892 50.86C395.305 50.86 394.022 50.9067 393.042 51V49.6C394.628 49.5067 395.818 49.32 396.612 49.04C397.452 48.76 398.012 48.2 398.292 47.36C398.572 46.52 398.712 45.26 398.712 43.58V8.86C398.712 7.13333 398.572 5.87333 398.292 5.08C398.012 4.24 397.452 3.68 396.612 3.4C395.818 3.07333 394.628 2.88666 393.042 2.84V1.44C394.768 1.48667 396.588 1.53333 398.502 1.58C400.415 1.58 402.305 1.60333 404.172 1.65C406.038 1.65 407.765 1.65 409.352 1.65C410.985 1.65 412.315 1.65 413.342 1.65C415.488 1.65 417.915 1.65 420.622 1.65C423.375 1.60333 425.825 1.53333 427.972 1.44ZM417.122 26.08C417.122 26.08 417.122 26.3133 417.122 26.78C417.122 27.2467 417.122 27.48 417.122 27.48H403.122C403.122 27.48 403.122 27.2467 403.122 26.78C403.122 26.3133 403.122 26.08 403.122 26.08H417.122ZM418.452 16.84C418.265 19.5 418.172 21.53 418.172 22.93C418.218 24.33 418.242 25.6133 418.242 26.78C418.242 27.9467 418.265 29.23 418.312 30.63C418.358 32.03 418.475 34.06 418.662 36.72H417.052C416.865 35.2267 416.632 33.78 416.352 32.38C416.118 30.9333 415.558 29.7667 414.672 28.88C413.832 27.9467 412.385 27.48 410.332 27.48V26.08C411.872 26.08 413.038 25.7767 413.832 25.17C414.672 24.5167 415.278 23.7 415.652 22.72C416.025 21.74 416.282 20.7367 416.422 19.71C416.562 18.6367 416.702 17.68 416.842 16.84H418.452ZM21.79 64.44V65.84C20.2033 65.8867 18.99 66.0733 18.15 66.4C17.3567 66.68 16.82 67.24 16.54 68.08C16.26 68.8733 16.12 70.1333 16.12 71.86V106.58C16.12 108.26 16.26 109.52 16.54 110.36C16.82 111.2 17.3567 111.76 18.15 112.04C18.99 112.32 20.2033 112.507 21.79 112.6V114C20.7167 113.907 19.3633 113.86 17.73 113.86C16.1433 113.813 14.5333 113.79 12.9 113.79C11.08 113.79 9.37667 113.813 7.79 113.86C6.20333 113.86 4.92 113.907 3.94 114V112.6C5.52667 112.507 6.71667 112.32 7.51 112.04C8.35 111.76 8.91 111.2 9.19 110.36C9.47 109.52 9.61 108.26 9.61 106.58V71.86C9.61 70.1333 9.47 68.8733 9.19 68.08C8.91 67.24 8.35 66.68 7.51 66.4C6.71667 66.0733 5.52667 65.8867 3.94 65.84V64.44C4.92 64.4867 6.20333 64.5333 7.79 64.58C9.37667 64.6267 11.08 64.65 12.9 64.65C14.5333 64.65 16.1433 64.6267 17.73 64.58C19.3633 64.5333 20.7167 64.4867 21.79 64.44ZM71.6207 64.44V65.84C70.034 65.8867 68.8207 66.12 67.9807 66.54C67.1874 66.96 66.6507 67.6367 66.3707 68.57C66.0907 69.5033 65.9507 70.8333 65.9507 72.56V114.35C65.6707 114.35 65.3907 114.35 65.1107 114.35C64.8774 114.35 64.6207 114.35 64.3407 114.35L34.9407 68.92V105.88C34.9407 107.56 35.0807 108.89 35.3607 109.87C35.6874 110.803 36.294 111.48 37.1807 111.9C38.114 112.273 39.4907 112.507 41.3107 112.6V114C40.4707 113.907 39.374 113.86 38.0207 113.86C36.6674 113.813 35.384 113.79 34.1707 113.79C33.004 113.79 31.814 113.813 30.6007 113.86C29.434 113.86 28.454 113.907 27.6607 114V112.6C29.2474 112.507 30.4374 112.273 31.2307 111.9C32.0707 111.48 32.6307 110.803 32.9107 109.87C33.1907 108.89 33.3307 107.56 33.3307 105.88V71.86C33.3307 70.1333 33.1907 68.8733 32.9107 68.08C32.6307 67.24 32.0707 66.68 31.2307 66.4C30.4374 66.0733 29.2474 65.8867 27.6607 65.84V64.44C28.454 64.4867 29.434 64.5333 30.6007 64.58C31.814 64.6267 33.004 64.65 34.1707 64.65C35.1974 64.65 36.1774 64.6267 37.1107 64.58C38.044 64.5333 38.884 64.4867 39.6307 64.44L64.3407 102.52V72.56C64.3407 70.8333 64.1774 69.5033 63.8507 68.57C63.5707 67.6367 62.964 66.96 62.0307 66.54C61.144 66.12 59.7907 65.8867 57.9707 65.84V64.44C58.8107 64.4867 59.9074 64.5333 61.2607 64.58C62.6607 64.6267 63.944 64.65 65.1107 64.65C66.324 64.65 67.514 64.6267 68.6807 64.58C69.894 64.5333 70.874 64.4867 71.6207 64.44ZM92.0645 63.67C94.3979 63.67 96.1712 63.95 97.3845 64.51C98.5979 65.0233 99.6712 65.6067 100.605 66.26C101.165 66.5867 101.608 66.8433 101.935 67.03C102.308 67.17 102.658 67.24 102.985 67.24C103.451 67.24 103.778 66.9833 103.965 66.47C104.198 65.9567 104.385 65.1867 104.525 64.16H106.135C106.088 64.9533 106.018 65.91 105.925 67.03C105.878 68.1033 105.831 69.55 105.785 71.37C105.785 73.1433 105.785 75.5 105.785 78.44H104.175C104.035 76.2 103.545 74.0533 102.705 72C101.865 69.9467 100.628 68.2667 98.9945 66.96C97.4079 65.6533 95.3079 65 92.6945 65C90.2212 65 88.1679 65.7467 86.5345 67.24C84.9479 68.7333 84.1545 70.6933 84.1545 73.12C84.1545 75.22 84.6912 76.9933 85.7645 78.44C86.8379 79.84 88.2612 81.1233 90.0345 82.29C91.8545 83.41 93.8145 84.6233 95.9145 85.93C98.3412 87.4233 100.488 88.9167 102.355 90.41C104.268 91.8567 105.761 93.4667 106.835 95.24C107.955 97.0133 108.515 99.16 108.515 101.68C108.515 104.667 107.838 107.14 106.485 109.1C105.131 111.06 103.335 112.53 101.095 113.51C98.8545 114.49 96.3812 114.98 93.6745 114.98C91.2012 114.98 89.2412 114.7 87.7945 114.14C86.3479 113.58 85.1112 112.997 84.0845 112.39C83.0579 111.737 82.2645 111.41 81.7045 111.41C81.2379 111.41 80.8879 111.667 80.6545 112.18C80.4679 112.693 80.3045 113.463 80.1645 114.49H78.5545C78.6479 113.51 78.6945 112.367 78.6945 111.06C78.7412 109.707 78.7645 107.957 78.7645 105.81C78.8112 103.663 78.8345 100.957 78.8345 97.69H80.4445C80.6312 100.49 81.1445 103.103 81.9845 105.53C82.8712 107.957 84.2012 109.917 85.9745 111.41C87.7945 112.857 90.1979 113.58 93.1845 113.58C94.7245 113.58 96.1712 113.277 97.5245 112.67C98.9245 112.017 100.068 111.013 100.955 109.66C101.841 108.26 102.285 106.463 102.285 104.27C102.285 102.357 101.818 100.7 100.885 99.3C99.9979 97.8533 98.7379 96.5233 97.1045 95.31C95.4712 94.05 93.5579 92.7667 91.3645 91.46C89.1712 90.1067 87.1179 88.73 85.2045 87.33C83.2912 85.93 81.7512 84.32 80.5845 82.5C79.4645 80.6333 78.9045 78.3933 78.9045 75.78C78.9045 73.0267 79.5112 70.7633 80.7245 68.99C81.9845 67.17 83.6179 65.84 85.6245 65C87.6312 64.1133 89.7779 63.67 92.0645 63.67ZM153.387 64.44C153.201 66.2133 153.061 67.94 152.967 69.62C152.921 71.2533 152.897 72.5133 152.897 73.4C152.897 74.52 152.921 75.57 152.967 76.55C153.014 77.53 153.061 78.3933 153.107 79.14H151.497C151.171 75.8733 150.727 73.3067 150.167 71.44C149.607 69.5267 148.627 68.15 147.227 67.31C145.827 66.47 143.657 66.05 140.717 66.05H136.937V105.88C136.937 107.747 137.101 109.147 137.427 110.08C137.801 111.013 138.501 111.643 139.527 111.97C140.554 112.297 142.047 112.507 144.007 112.6V114C142.794 113.907 141.254 113.86 139.387 113.86C137.521 113.813 135.631 113.79 133.717 113.79C131.617 113.79 129.634 113.813 127.767 113.86C125.947 113.86 124.477 113.907 123.357 114V112.6C125.317 112.507 126.811 112.297 127.837 111.97C128.864 111.643 129.541 111.013 129.867 110.08C130.241 109.147 130.427 107.747 130.427 105.88V66.05H126.647C123.754 66.05 121.584 66.47 120.137 67.31C118.737 68.15 117.757 69.5267 117.197 71.44C116.637 73.3067 116.194 75.8733 115.867 79.14H114.257C114.351 78.3933 114.397 77.53 114.397 76.55C114.444 75.57 114.467 74.52 114.467 73.4C114.467 72.5133 114.421 71.2533 114.327 69.62C114.281 67.94 114.164 66.2133 113.977 64.44C115.937 64.4867 118.061 64.5333 120.347 64.58C122.681 64.6267 125.014 64.65 127.347 64.65C129.681 64.65 131.804 64.65 133.717 64.65C135.631 64.65 137.731 64.65 140.017 64.65C142.351 64.65 144.684 64.6267 147.017 64.58C149.351 64.5333 151.474 64.4867 153.387 64.44ZM158.364 64.44C159.344 64.4867 160.627 64.5333 162.214 64.58C163.8 64.6267 165.364 64.65 166.904 64.65C169.097 64.65 171.197 64.6267 173.204 64.58C175.21 64.5333 176.634 64.51 177.474 64.51C181.254 64.51 184.38 65.0467 186.854 66.12C189.374 67.1933 191.24 68.6633 192.454 70.53C193.714 72.35 194.344 74.4033 194.344 76.69C194.344 78.09 194.064 79.5833 193.504 81.17C192.944 82.7567 191.964 84.25 190.564 85.65C189.21 87.05 187.344 88.2167 184.964 89.15C182.584 90.0367 179.574 90.48 175.934 90.48H169.214V89.08H175.234C178.547 89.08 181.067 88.5667 182.794 87.54C184.567 86.4667 185.757 85.0667 186.364 83.34C187.017 81.5667 187.344 79.6067 187.344 77.46C187.344 73.7733 186.457 70.9267 184.684 68.92C182.957 66.8667 179.97 65.84 175.724 65.84C173.577 65.84 172.177 66.2367 171.524 67.03C170.87 67.8233 170.544 69.4333 170.544 71.86V106.58C170.544 108.26 170.684 109.52 170.964 110.36C171.244 111.2 171.78 111.76 172.574 112.04C173.414 112.32 174.627 112.507 176.214 112.6V114C175.14 113.907 173.787 113.86 172.154 113.86C170.567 113.813 168.957 113.79 167.324 113.79C165.504 113.79 163.8 113.813 162.214 113.86C160.627 113.86 159.344 113.907 158.364 114V112.6C159.95 112.507 161.14 112.32 161.934 112.04C162.774 111.76 163.334 111.2 163.614 110.36C163.894 109.52 164.034 108.26 164.034 106.58V71.86C164.034 70.1333 163.894 68.8733 163.614 68.08C163.334 67.24 162.774 66.68 161.934 66.4C161.14 66.0733 159.95 65.8867 158.364 65.84V64.44ZM169.494 89.29C172.014 89.3833 173.997 89.5 175.444 89.64C176.89 89.7333 178.057 89.8267 178.944 89.92C179.877 90.0133 180.764 90.13 181.604 90.27C184.73 90.7833 186.97 91.74 188.324 93.14C189.724 94.4933 190.75 96.6167 191.404 99.51L193.154 106.65C193.62 108.703 194.087 110.197 194.554 111.13C195.067 112.017 195.837 112.437 196.864 112.39C197.657 112.343 198.31 112.087 198.824 111.62C199.384 111.153 199.967 110.523 200.574 109.73L201.624 110.5C200.644 111.947 199.617 113.067 198.544 113.86C197.517 114.607 196.047 114.98 194.134 114.98C192.407 114.98 190.89 114.467 189.584 113.44C188.277 112.413 187.297 110.407 186.644 107.42L185.104 100.42C184.684 98.4133 184.194 96.6867 183.634 95.24C183.12 93.7467 182.374 92.58 181.394 91.74C180.46 90.9 179.06 90.48 177.194 90.48H169.634L169.494 89.29ZM252.226 121.156C253.781 121.156 255.285 120.663 256.737 119.678C258.189 118.744 259.329 117.396 260.159 115.633H260.314C258.914 119.47 256.218 121.389 252.226 121.389C250.981 121.389 249.892 121.13 248.959 120.611C248.077 120.144 247.429 119.47 247.014 118.589C246.6 117.759 246.289 116.93 246.081 116.1C245.926 115.27 245.848 114.389 245.848 113.456C245.848 110.552 246.651 107.259 248.259 103.578C249.918 99.8444 252.381 95.4889 255.648 90.5111C252.848 94.2444 250.385 97.4593 248.259 100.156C246.133 102.852 243.8 105.626 241.259 108.478C238.718 111.33 236.385 113.507 234.259 115.011C232.133 116.567 230.318 117.344 228.814 117.344C227.363 117.344 226.144 116.93 225.159 116.1C224.226 115.322 223.759 114.104 223.759 112.444C223.759 110.733 224.355 108.815 225.548 106.689C226.792 104.563 228.322 102.515 230.137 100.544C232.003 98.5741 234 96.3704 236.126 93.9333C238.303 91.4963 240.3 89.163 242.114 86.9333C243.981 84.6519 245.537 82.163 246.781 79.4667C248.026 76.7185 248.648 74.1 248.648 71.6111C248.648 68.6037 247.637 66.037 245.614 63.9111C243.644 61.7852 240.611 60.7222 236.514 60.7222C233.507 60.7222 230.655 61.2407 227.959 62.2778C225.314 63.263 223.059 64.5593 221.192 66.1667C219.326 67.7741 217.692 69.6148 216.292 71.6889C214.892 73.7111 213.855 75.7852 213.181 77.9111C212.559 79.9852 212.248 81.9815 212.248 83.9C212.248 86.5963 212.974 88.7741 214.426 90.4333C215.877 92.0926 218.029 92.9222 220.881 92.9222C226.014 92.9222 230.085 91.4963 233.092 88.6444C236.151 85.7926 237.681 82.5778 237.681 79C237.681 77.0296 237.085 75.5259 235.892 74.4889C234.7 73.4518 233.17 72.9333 231.303 72.9333C228.607 72.9333 226.066 73.8148 223.681 75.5778L223.526 75.3444C225.963 73.5296 228.814 72.6222 232.081 72.6222C234.414 72.6222 236.359 73.1926 237.914 74.3333C239.522 75.4222 240.326 76.9778 240.326 79C240.326 82.4741 238.407 85.7148 234.57 88.7222C230.733 91.7296 226.17 93.2333 220.881 93.2333C217.044 93.2333 214.063 92.1704 211.937 90.0444C209.863 87.9185 208.826 85.2481 208.826 82.0333C208.826 79.5444 209.396 77.0815 210.537 74.6444C211.677 72.1556 213.337 69.8481 215.514 67.7222C217.692 65.5444 220.596 63.7815 224.226 62.4333C227.907 61.0852 232.003 60.4111 236.514 60.4111C240.818 60.4111 244.266 61.6037 246.859 63.9889C249.503 66.3741 250.826 69.0444 250.826 72C250.826 74.9037 250.177 77.9111 248.881 81.0222C247.637 84.0815 246.081 86.8815 244.214 89.4222C242.348 91.9111 240.3 94.4259 238.07 96.9667C235.892 99.5074 233.844 101.763 231.926 103.733C230.059 105.652 228.477 107.493 227.181 109.256C225.937 111.019 225.314 112.47 225.314 113.611C225.314 114.856 225.6 115.711 226.17 116.178C226.792 116.644 227.7 116.878 228.892 116.878C229.981 116.878 231.251 116.437 232.703 115.556C234.207 114.726 235.866 113.404 237.681 111.589C239.548 109.722 241.259 107.933 242.814 106.222C244.37 104.511 246.263 102.204 248.492 99.3C250.774 96.3963 252.537 94.1148 253.781 92.4556C255.026 90.7444 256.763 88.3593 258.992 85.3C259.459 84.7296 259.796 84.2889 260.003 83.9778C261.87 81.3333 266.355 75.0852 273.459 65.2333C273.718 65.7 274.185 65.9333 274.859 65.9333C276.155 65.9333 277.426 65.2852 278.67 63.9889C278.618 64.0926 277.607 65.4407 275.637 68.0333C273.666 70.6259 271.644 73.3222 269.57 76.1222C267.548 78.9222 265.163 82.3185 262.414 86.3111C259.718 90.2519 257.333 93.9333 255.259 97.3556C253.185 100.778 251.422 104.122 249.97 107.389C248.518 110.656 247.792 113.222 247.792 115.089C247.792 119.133 249.27 121.156 252.226 121.156ZM324.88 64.44V65.84C323.293 65.8867 322.08 66.0733 321.24 66.4C320.446 66.68 319.91 67.24 319.63 68.08C319.35 68.8733 319.21 70.1333 319.21 71.86V106.58C319.21 108.26 319.35 109.52 319.63 110.36C319.91 111.2 320.446 111.76 321.24 112.04C322.08 112.32 323.293 112.507 324.88 112.6V114C323.806 113.907 322.453 113.86 320.82 113.86C319.233 113.813 317.623 113.79 315.99 113.79C314.17 113.79 312.466 113.813 310.88 113.86C309.293 113.86 308.01 113.907 307.03 114V112.6C308.616 112.507 309.806 112.32 310.6 112.04C311.44 111.76 312 111.2 312.28 110.36C312.56 109.52 312.7 108.26 312.7 106.58V68.08L312.98 68.29L295.83 114.35H294.71L277.07 68.92V105.88C277.07 107.56 277.21 108.89 277.49 109.87C277.816 110.803 278.423 111.48 279.31 111.9C280.243 112.273 281.62 112.507 283.44 112.6V114C282.6 113.907 281.503 113.86 280.15 113.86C278.796 113.813 277.513 113.79 276.3 113.79C275.133 113.79 273.943 113.813 272.73 113.86C271.563 113.86 270.583 113.907 269.79 114V112.6C271.376 112.507 272.566 112.273 273.36 111.9C274.2 111.48 274.76 110.803 275.04 109.87C275.32 108.89 275.46 107.56 275.46 105.88V71.86C275.46 70.1333 275.32 68.8733 275.04 68.08C274.76 67.24 274.2 66.68 273.36 66.4C272.566 66.0733 271.376 65.8867 269.79 65.84V64.44C270.583 64.4867 271.563 64.5333 272.73 64.58C273.943 64.6267 275.133 64.65 276.3 64.65C277.326 64.65 278.376 64.6267 279.45 64.58C280.57 64.5333 281.503 64.4867 282.25 64.44L298.14 106.3L296.95 106.86L312.7 64.65C313.26 64.65 313.796 64.65 314.31 64.65C314.87 64.65 315.43 64.65 315.99 64.65C317.623 64.65 319.233 64.6267 320.82 64.58C322.453 64.5333 323.806 64.4867 324.88 64.44ZM365.696 64.44C365.51 66.0733 365.37 67.66 365.276 69.2C365.23 70.74 365.206 71.9067 365.206 72.7C365.206 73.54 365.23 74.3567 365.276 75.15C365.323 75.8967 365.37 76.5267 365.416 77.04H363.806C363.526 74.2867 363.13 72.1167 362.616 70.53C362.103 68.8967 361.216 67.7533 359.956 67.1C358.743 66.4 356.9 66.05 354.426 66.05H348.616C347.03 66.05 345.816 66.19 344.976 66.47C344.183 66.7033 343.646 67.24 343.366 68.08C343.086 68.8733 342.946 70.1333 342.946 71.86V106.58C342.946 108.26 343.086 109.52 343.366 110.36C343.646 111.2 344.183 111.76 344.976 112.04C345.816 112.273 347.03 112.39 348.616 112.39H353.726C356.666 112.39 358.883 111.993 360.376 111.2C361.916 110.407 363.013 109.123 363.666 107.35C364.366 105.53 364.88 103.08 365.206 100H366.816C366.676 101.26 366.606 102.94 366.606 105.04C366.606 105.927 366.63 107.21 366.676 108.89C366.77 110.523 366.91 112.227 367.096 114C364.716 113.907 362.033 113.86 359.046 113.86C356.06 113.813 353.4 113.79 351.066 113.79C350.04 113.79 348.71 113.79 347.076 113.79C345.49 113.79 343.763 113.813 341.896 113.86C340.03 113.86 338.14 113.883 336.226 113.93C334.313 113.93 332.493 113.953 330.766 114V112.6C332.353 112.507 333.543 112.32 334.336 112.04C335.176 111.76 335.736 111.2 336.016 110.36C336.296 109.52 336.436 108.26 336.436 106.58V71.86C336.436 70.1333 336.296 68.8733 336.016 68.08C335.736 67.24 335.176 66.68 334.336 66.4C333.543 66.0733 332.353 65.8867 330.766 65.84V64.44C332.493 64.4867 334.313 64.5333 336.226 64.58C338.14 64.58 340.03 64.6033 341.896 64.65C343.763 64.65 345.49 64.65 347.076 64.65C348.71 64.65 350.04 64.65 351.066 64.65C353.213 64.65 355.64 64.65 358.346 64.65C361.1 64.6033 363.55 64.5333 365.696 64.44ZM353.656 88.38C353.656 88.38 353.656 88.6133 353.656 89.08C353.656 89.5467 353.656 89.78 353.656 89.78H340.846C340.846 89.78 340.846 89.5467 340.846 89.08C340.846 88.6133 340.846 88.38 340.846 88.38H353.656ZM355.686 79.14C355.5 81.8 355.406 83.83 355.406 85.23C355.453 86.63 355.476 87.9133 355.476 89.08C355.476 90.2467 355.5 91.53 355.546 92.93C355.593 94.33 355.71 96.36 355.896 99.02H354.286C354.1 97.5267 353.866 96.08 353.586 94.68C353.353 93.2333 352.793 92.0667 351.906 91.18C351.066 90.2467 349.62 89.78 347.566 89.78V88.38C349.106 88.38 350.273 88.0767 351.066 87.47C351.906 86.8167 352.513 86 352.886 85.02C353.26 84.04 353.516 83.0367 353.656 82.01C353.796 80.9367 353.936 79.98 354.076 79.14H355.686ZM417.382 64.44V65.84C415.796 65.8867 414.582 66.12 413.742 66.54C412.949 66.96 412.412 67.6367 412.132 68.57C411.852 69.5033 411.712 70.8333 411.712 72.56V114.35C411.432 114.35 411.152 114.35 410.872 114.35C410.639 114.35 410.382 114.35 410.102 114.35L380.702 68.92V105.88C380.702 107.56 380.842 108.89 381.122 109.87C381.449 110.803 382.056 111.48 382.942 111.9C383.876 112.273 385.252 112.507 387.072 112.6V114C386.232 113.907 385.136 113.86 383.782 113.86C382.429 113.813 381.146 113.79 379.932 113.79C378.766 113.79 377.576 113.813 376.362 113.86C375.196 113.86 374.216 113.907 373.422 114V112.6C375.009 112.507 376.199 112.273 376.992 111.9C377.832 111.48 378.392 110.803 378.672 109.87C378.952 108.89 379.092 107.56 379.092 105.88V71.86C379.092 70.1333 378.952 68.8733 378.672 68.08C378.392 67.24 377.832 66.68 376.992 66.4C376.199 66.0733 375.009 65.8867 373.422 65.84V64.44C374.216 64.4867 375.196 64.5333 376.362 64.58C377.576 64.6267 378.766 64.65 379.932 64.65C380.959 64.65 381.939 64.6267 382.872 64.58C383.806 64.5333 384.646 64.4867 385.392 64.44L410.102 102.52V72.56C410.102 70.8333 409.939 69.5033 409.612 68.57C409.332 67.6367 408.726 66.96 407.792 66.54C406.906 66.12 405.552 65.8867 403.732 65.84V64.44C404.572 64.4867 405.669 64.5333 407.022 64.58C408.422 64.6267 409.706 64.65 410.872 64.65C412.086 64.65 413.276 64.6267 414.442 64.58C415.656 64.5333 416.636 64.4867 417.382 64.44ZM461.346 64.44C461.16 66.2133 461.02 67.94 460.926 69.62C460.88 71.2533 460.856 72.5133 460.856 73.4C460.856 74.52 460.88 75.57 460.926 76.55C460.973 77.53 461.02 78.3933 461.066 79.14H459.456C459.13 75.8733 458.686 73.3067 458.126 71.44C457.566 69.5267 456.586 68.15 455.186 67.31C453.786 66.47 451.616 66.05 448.676 66.05H444.896V105.88C444.896 107.747 445.06 109.147 445.386 110.08C445.76 111.013 446.46 111.643 447.486 111.97C448.513 112.297 450.006 112.507 451.966 112.6V114C450.753 113.907 449.213 113.86 447.346 113.86C445.48 113.813 443.59 113.79 441.676 113.79C439.576 113.79 437.593 113.813 435.726 113.86C433.906 113.86 432.436 113.907 431.316 114V112.6C433.276 112.507 434.77 112.297 435.796 111.97C436.823 111.643 437.5 111.013 437.826 110.08C438.2 109.147 438.386 107.747 438.386 105.88V66.05H434.606C431.713 66.05 429.543 66.47 428.096 67.31C426.696 68.15 425.716 69.5267 425.156 71.44C424.596 73.3067 424.153 75.8733 423.826 79.14H422.216C422.31 78.3933 422.356 77.53 422.356 76.55C422.403 75.57 422.426 74.52 422.426 73.4C422.426 72.5133 422.38 71.2533 422.286 69.62C422.24 67.94 422.123 66.2133 421.936 64.44C423.896 64.4867 426.02 64.5333 428.306 64.58C430.64 64.6267 432.973 64.65 435.306 64.65C437.64 64.65 439.763 64.65 441.676 64.65C443.59 64.65 445.69 64.65 447.976 64.65C450.31 64.65 452.643 64.6267 454.976 64.58C457.31 64.5333 459.433 64.4867 461.346 64.44ZM3.94 127.44C4.92 127.487 6.20333 127.533 7.79 127.58C9.37667 127.627 10.94 127.65 12.48 127.65C14.6733 127.65 16.7733 127.627 18.78 127.58C20.7867 127.533 22.21 127.51 23.05 127.51C28.6967 127.51 32.92 128.793 35.72 131.36C38.52 133.927 39.92 137.24 39.92 141.3C39.92 142.98 39.64 144.753 39.08 146.62C38.52 148.44 37.54 150.143 36.14 151.73C34.7867 153.27 32.92 154.53 30.54 155.51C28.16 156.49 25.15 156.98 21.51 156.98H14.79V155.58H20.81C24.1233 155.58 26.6433 154.95 28.37 153.69C30.1433 152.43 31.3333 150.773 31.94 148.72C32.5933 146.667 32.92 144.45 32.92 142.07C32.92 137.637 32.0333 134.323 30.26 132.13C28.5333 129.937 25.5467 128.84 21.3 128.84C19.1533 128.84 17.7533 129.237 17.1 130.03C16.4467 130.823 16.12 132.433 16.12 134.86V169.58C16.12 171.26 16.2833 172.52 16.61 173.36C16.9833 174.2 17.6833 174.76 18.71 175.04C19.7367 175.32 21.23 175.507 23.19 175.6V177C21.9767 176.907 20.4367 176.86 18.57 176.86C16.7033 176.813 14.8133 176.79 12.9 176.79C11.08 176.79 9.37667 176.813 7.79 176.86C6.20333 176.86 4.92 176.907 3.94 177V175.6C5.52667 175.507 6.71667 175.32 7.51 175.04C8.35 174.76 8.91 174.2 9.19 173.36C9.47 172.52 9.61 171.26 9.61 169.58V134.86C9.61 133.133 9.47 131.873 9.19 131.08C8.91 130.24 8.35 129.68 7.51 129.4C6.71667 129.073 5.52667 128.887 3.94 128.84V127.44ZM44.8873 127.44C45.8673 127.487 47.1506 127.533 48.7373 127.58C50.3239 127.627 51.8873 127.65 53.4273 127.65C55.6206 127.65 57.7206 127.627 59.7273 127.58C61.7339 127.533 63.1573 127.51 63.9973 127.51C67.7773 127.51 70.9039 128.047 73.3773 129.12C75.8973 130.193 77.7639 131.663 78.9773 133.53C80.2373 135.35 80.8673 137.403 80.8673 139.69C80.8673 141.09 80.5873 142.583 80.0273 144.17C79.4673 145.757 78.4873 147.25 77.0873 148.65C75.7339 150.05 73.8673 151.217 71.4873 152.15C69.1073 153.037 66.0973 153.48 62.4573 153.48H55.7373V152.08H61.7573C65.0706 152.08 67.5906 151.567 69.3173 150.54C71.0906 149.467 72.2806 148.067 72.8873 146.34C73.5406 144.567 73.8673 142.607 73.8673 140.46C73.8673 136.773 72.9806 133.927 71.2073 131.92C69.4806 129.867 66.4939 128.84 62.2473 128.84C60.1006 128.84 58.7006 129.237 58.0473 130.03C57.3939 130.823 57.0673 132.433 57.0673 134.86V169.58C57.0673 171.26 57.2073 172.52 57.4873 173.36C57.7673 174.2 58.3039 174.76 59.0973 175.04C59.9373 175.32 61.1506 175.507 62.7373 175.6V177C61.6639 176.907 60.3106 176.86 58.6773 176.86C57.0906 176.813 55.4806 176.79 53.8473 176.79C52.0273 176.79 50.3239 176.813 48.7373 176.86C47.1506 176.86 45.8673 176.907 44.8873 177V175.6C46.4739 175.507 47.6639 175.32 48.4573 175.04C49.2973 174.76 49.8573 174.2 50.1373 173.36C50.4173 172.52 50.5573 171.26 50.5573 169.58V134.86C50.5573 133.133 50.4173 131.873 50.1373 131.08C49.8573 130.24 49.2973 129.68 48.4573 129.4C47.6639 129.073 46.4739 128.887 44.8873 128.84V127.44ZM56.0173 152.29C58.5373 152.383 60.5206 152.5 61.9673 152.64C63.4139 152.733 64.5806 152.827 65.4673 152.92C66.4006 153.013 67.2873 153.13 68.1273 153.27C71.2539 153.783 73.4939 154.74 74.8473 156.14C76.2473 157.493 77.2739 159.617 77.9273 162.51L79.6773 169.65C80.1439 171.703 80.6106 173.197 81.0773 174.13C81.5906 175.017 82.3606 175.437 83.3873 175.39C84.1806 175.343 84.8339 175.087 85.3473 174.62C85.9073 174.153 86.4906 173.523 87.0973 172.73L88.1473 173.5C87.1673 174.947 86.1406 176.067 85.0673 176.86C84.0406 177.607 82.5706 177.98 80.6573 177.98C78.9306 177.98 77.4139 177.467 76.1073 176.44C74.8006 175.413 73.8206 173.407 73.1673 170.42L71.6273 163.42C71.2073 161.413 70.7173 159.687 70.1573 158.24C69.6439 156.747 68.8973 155.58 67.9173 154.74C66.9839 153.9 65.5839 153.48 63.7173 153.48H56.1573L56.0173 152.29ZM134.471 136.322C135.819 137.567 136.493 139.511 136.493 142.156C136.493 144.8 135.819 147.859 134.471 151.333C133.175 154.807 131.282 158.333 128.793 161.911C126.356 165.437 123.582 168.704 120.471 171.711C117.36 174.719 113.782 177.181 109.738 179.1C105.745 181.019 101.727 181.978 97.6823 181.978C94.1564 181.978 91.486 180.915 89.6712 178.789C87.9083 176.715 87.0268 173.863 87.0268 170.233C87.0268 167.07 87.6749 163.596 88.9712 159.811C90.3194 156.026 92.2379 152.267 94.7268 148.533C97.2675 144.8 100.145 141.404 103.36 138.344C106.627 135.233 110.386 132.744 114.638 130.878C118.942 128.959 123.323 128 127.782 128C130.116 128 131.879 128.544 133.071 129.633C134.316 130.722 134.938 132.122 134.938 133.833C134.938 134.663 134.782 135.493 134.471 136.322ZM97.7601 181.2C100.871 181.2 104.008 180.474 107.171 179.022C110.386 177.57 113.316 175.678 115.96 173.344C118.605 171.011 121.093 168.367 123.427 165.411C125.76 162.456 127.705 159.474 129.26 156.467C130.868 153.459 132.138 150.581 133.071 147.833C134.005 145.033 134.471 142.622 134.471 140.6C134.471 139.407 134.29 138.396 133.927 137.567C132.942 139.589 131.308 141.274 129.027 142.622C126.745 143.919 124.049 144.567 120.938 144.567C118.812 144.567 116.997 144.23 115.493 143.556C112.693 146.356 110.386 149.389 108.571 152.656C106.756 155.87 105.849 158.515 105.849 160.589C105.849 162.922 106.886 164.115 108.96 164.167C110.308 164.167 111.579 163.57 112.771 162.378C113.964 161.133 114.638 159.863 114.793 158.567C114.845 158.411 114.871 158.281 114.871 158.178C114.871 157.815 114.949 157.659 115.105 157.711C115.208 157.711 115.286 157.763 115.338 157.867C115.338 158.022 115.26 158.178 115.105 158.333C115.001 158.489 114.949 158.567 114.949 158.567C114.845 159.967 114.197 161.263 113.005 162.456C111.812 163.648 110.464 164.27 108.96 164.322H108.882C107.275 164.27 106.056 163.778 105.227 162.844C104.449 161.911 104.06 160.615 104.06 158.956C104.06 156.519 104.89 153.719 106.549 150.556C108.26 147.341 110.49 144.489 113.238 142C112.045 140.807 111.527 139.252 111.682 137.333H111.76C111.605 139.252 112.123 140.781 113.316 141.922C115.027 140.419 116.816 139.174 118.682 138.189C122.83 136.011 126.693 134.922 130.271 134.922C131.671 134.922 132.864 135.233 133.849 135.856C134.056 135.078 134.16 134.326 134.16 133.6C134.16 132.096 133.616 130.852 132.527 129.867C131.438 128.881 129.83 128.389 127.705 128.389C123.816 128.389 119.901 129.4 115.96 131.422C112.071 133.444 108.597 136.089 105.538 139.356C102.53 142.57 99.8083 146.096 97.3712 149.933C94.986 153.77 93.1453 157.607 91.849 161.444C90.6046 165.281 89.9823 168.73 89.9823 171.789C89.9823 174.693 90.6046 176.974 91.849 178.633C93.1453 180.344 95.1157 181.2 97.7601 181.2ZM133.46 136.789C132.786 135.804 131.801 135.311 130.505 135.311C125.89 135.311 120.912 138.007 115.571 143.4C116.919 143.97 118.527 144.256 120.393 144.256C123.556 144.256 126.305 143.53 128.638 142.078C130.971 140.626 132.579 138.863 133.46 136.789ZM152.386 127.44C160.739 127.44 166.946 129.54 171.006 133.74C175.066 137.893 177.096 143.867 177.096 151.66C177.096 156.747 176.093 161.203 174.086 165.03C172.126 168.81 169.256 171.75 165.476 173.85C161.696 175.95 157.123 177 151.756 177C151.056 177 150.123 176.977 148.956 176.93C147.789 176.883 146.576 176.86 145.316 176.86C144.103 176.813 142.983 176.79 141.956 176.79C140.323 176.79 138.713 176.813 137.126 176.86C135.539 176.86 134.256 176.907 133.276 177V175.6C134.863 175.507 136.053 175.32 136.846 175.04C137.686 174.76 138.246 174.2 138.526 173.36C138.806 172.52 138.946 171.26 138.946 169.58V134.86C138.946 133.133 138.806 131.873 138.526 131.08C138.246 130.24 137.686 129.68 136.846 129.4C136.053 129.073 134.863 128.887 133.276 128.84V127.44C134.256 127.487 135.539 127.557 137.126 127.65C138.713 127.697 140.276 127.697 141.816 127.65C143.449 127.603 145.293 127.557 147.346 127.51C149.399 127.463 151.079 127.44 152.386 127.44ZM150.636 128.7C148.489 128.7 147.089 129.097 146.436 129.89C145.783 130.683 145.456 132.293 145.456 134.72V169.72C145.456 172.147 145.783 173.757 146.436 174.55C147.136 175.343 148.559 175.74 150.706 175.74C155.793 175.74 159.736 174.83 162.536 173.01C165.336 171.143 167.296 168.437 168.416 164.89C169.536 161.343 170.096 157.027 170.096 151.94C170.096 146.713 169.466 142.397 168.206 138.99C166.993 135.537 164.963 132.97 162.116 131.29C159.316 129.563 155.489 128.7 150.636 128.7ZM226.293 127.44V128.84C224.707 128.887 223.493 129.12 222.653 129.54C221.86 129.96 221.323 130.637 221.043 131.57C220.763 132.503 220.623 133.833 220.623 135.56V156.63C220.623 159.897 220.413 162.743 219.993 165.17C219.573 167.597 218.827 169.697 217.753 171.47C216.587 173.43 214.883 175.017 212.643 176.23C210.403 177.397 207.837 177.98 204.943 177.98C202.703 177.98 200.557 177.7 198.503 177.14C196.497 176.627 194.723 175.647 193.183 174.2C191.83 172.893 190.757 171.517 189.963 170.07C189.217 168.623 188.703 166.85 188.423 164.75C188.143 162.65 188.003 160.013 188.003 156.84V134.86C188.003 133.133 187.863 131.873 187.583 131.08C187.303 130.24 186.743 129.68 185.903 129.4C185.11 129.073 183.92 128.887 182.333 128.84V127.44C183.313 127.487 184.597 127.533 186.183 127.58C187.77 127.627 189.473 127.65 191.293 127.65C192.927 127.65 194.537 127.627 196.123 127.58C197.757 127.533 199.11 127.487 200.183 127.44V128.84C198.597 128.887 197.383 129.073 196.543 129.4C195.75 129.68 195.213 130.24 194.933 131.08C194.653 131.873 194.513 133.133 194.513 134.86V158.03C194.513 160.41 194.63 162.673 194.863 164.82C195.097 166.92 195.563 168.787 196.263 170.42C197.01 172.007 198.13 173.267 199.623 174.2C201.117 175.087 203.1 175.53 205.573 175.53C209.12 175.53 211.85 174.76 213.763 173.22C215.723 171.633 217.077 169.463 217.823 166.71C218.617 163.957 219.013 160.853 219.013 157.4V135.56C219.013 133.833 218.803 132.503 218.383 131.57C218.01 130.637 217.357 129.96 216.423 129.54C215.49 129.12 214.23 128.887 212.643 128.84V127.44C213.483 127.487 214.58 127.533 215.933 127.58C217.333 127.627 218.617 127.65 219.783 127.65C220.997 127.65 222.187 127.627 223.353 127.58C224.567 127.533 225.547 127.487 226.293 127.44ZM253.718 126.46C256.798 126.46 259.318 126.927 261.278 127.86C263.285 128.747 265.058 129.797 266.598 131.01C267.531 131.71 268.231 131.803 268.698 131.29C269.211 130.73 269.561 129.447 269.748 127.44H271.358C271.265 129.167 271.195 131.267 271.148 133.74C271.101 136.213 271.078 139.48 271.078 143.54H269.468C269.141 141.533 268.838 139.947 268.558 138.78C268.278 137.567 267.928 136.54 267.508 135.7C267.135 134.86 266.621 134.02 265.968 133.18C264.521 131.267 262.701 129.89 260.508 129.05C258.315 128.163 256.005 127.72 253.578 127.72C251.291 127.72 249.215 128.303 247.348 129.47C245.528 130.59 243.941 132.223 242.588 134.37C241.281 136.517 240.255 139.107 239.508 142.14C238.808 145.173 238.458 148.58 238.458 152.36C238.458 156.28 238.855 159.757 239.648 162.79C240.441 165.777 241.538 168.297 242.938 170.35C244.385 172.403 246.065 173.967 247.978 175.04C249.938 176.067 252.038 176.58 254.278 176.58C256.378 176.58 258.571 176.16 260.858 175.32C263.145 174.48 264.941 173.127 266.248 171.26C267.275 169.907 267.975 168.437 268.348 166.85C268.768 165.263 269.141 163.047 269.468 160.2H271.078C271.078 164.447 271.101 167.877 271.148 170.49C271.195 173.057 271.265 175.227 271.358 177H269.748C269.561 174.993 269.235 173.733 268.768 173.22C268.348 172.707 267.625 172.777 266.598 173.43C264.871 174.643 263.028 175.717 261.068 176.65C259.155 177.537 256.681 177.98 253.648 177.98C249.215 177.98 245.318 176.977 241.958 174.97C238.645 172.963 236.055 170.07 234.188 166.29C232.368 162.51 231.458 157.96 231.458 152.64C231.458 147.413 232.415 142.84 234.328 138.92C236.241 135 238.855 131.943 242.168 129.75C245.528 127.557 249.378 126.46 253.718 126.46ZM317.381 127.44C317.195 129.213 317.055 130.94 316.961 132.62C316.915 134.253 316.891 135.513 316.891 136.4C316.891 137.52 316.915 138.57 316.961 139.55C317.008 140.53 317.055 141.393 317.101 142.14H315.491C315.165 138.873 314.721 136.307 314.161 134.44C313.601 132.527 312.621 131.15 311.221 130.31C309.821 129.47 307.651 129.05 304.711 129.05H300.931V168.88C300.931 170.747 301.095 172.147 301.421 173.08C301.795 174.013 302.495 174.643 303.521 174.97C304.548 175.297 306.041 175.507 308.001 175.6V177C306.788 176.907 305.248 176.86 303.381 176.86C301.515 176.813 299.625 176.79 297.711 176.79C295.611 176.79 293.628 176.813 291.761 176.86C289.941 176.86 288.471 176.907 287.351 177V175.6C289.311 175.507 290.805 175.297 291.831 174.97C292.858 174.643 293.535 174.013 293.861 173.08C294.235 172.147 294.421 170.747 294.421 168.88V129.05H290.641C287.748 129.05 285.578 129.47 284.131 130.31C282.731 131.15 281.751 132.527 281.191 134.44C280.631 136.307 280.188 138.873 279.861 142.14H278.251C278.345 141.393 278.391 140.53 278.391 139.55C278.438 138.57 278.461 137.52 278.461 136.4C278.461 135.513 278.415 134.253 278.321 132.62C278.275 130.94 278.158 129.213 277.971 127.44C279.931 127.487 282.055 127.533 284.341 127.58C286.675 127.627 289.008 127.65 291.341 127.65C293.675 127.65 295.798 127.65 297.711 127.65C299.625 127.65 301.725 127.65 304.011 127.65C306.345 127.65 308.678 127.627 311.011 127.58C313.345 127.533 315.468 127.487 317.381 127.44ZM340.208 127.44V128.84C338.621 128.887 337.408 129.073 336.568 129.4C335.775 129.68 335.238 130.24 334.958 131.08C334.678 131.873 334.538 133.133 334.538 134.86V169.58C334.538 171.26 334.678 172.52 334.958 173.36C335.238 174.2 335.775 174.76 336.568 175.04C337.408 175.32 338.621 175.507 340.208 175.6V177C339.135 176.907 337.781 176.86 336.148 176.86C334.561 176.813 332.951 176.79 331.318 176.79C329.498 176.79 327.795 176.813 326.208 176.86C324.621 176.86 323.338 176.907 322.358 177V175.6C323.945 175.507 325.135 175.32 325.928 175.04C326.768 174.76 327.328 174.2 327.608 173.36C327.888 172.52 328.028 171.26 328.028 169.58V134.86C328.028 133.133 327.888 131.873 327.608 131.08C327.328 130.24 326.768 129.68 325.928 129.4C325.135 129.073 323.945 128.887 322.358 128.84V127.44C323.338 127.487 324.621 127.533 326.208 127.58C327.795 127.627 329.498 127.65 331.318 127.65C332.951 127.65 334.561 127.627 336.148 127.58C337.781 127.533 339.135 127.487 340.208 127.44ZM368.562 126.46C372.995 126.46 376.868 127.463 380.182 129.47C383.542 131.477 386.132 134.37 387.952 138.15C389.818 141.883 390.752 146.433 390.752 151.8C390.752 157.027 389.795 161.6 387.882 165.52C386.015 169.44 383.402 172.497 380.042 174.69C376.682 176.883 372.832 177.98 368.492 177.98C364.058 177.98 360.162 176.977 356.802 174.97C353.488 172.963 350.898 170.07 349.032 166.29C347.212 162.51 346.302 157.96 346.302 152.64C346.302 147.413 347.258 142.84 349.172 138.92C351.085 135 353.698 131.943 357.012 129.75C360.372 127.557 364.222 126.46 368.562 126.46ZM368.282 127.72C365.248 127.72 362.612 128.77 360.372 130.87C358.132 132.97 356.382 135.863 355.122 139.55C353.908 143.237 353.302 147.507 353.302 152.36C353.302 157.307 353.978 161.623 355.332 165.31C356.732 168.95 358.598 171.773 360.932 173.78C363.312 175.74 365.925 176.72 368.772 176.72C371.805 176.72 374.442 175.67 376.682 173.57C378.922 171.47 380.648 168.577 381.862 164.89C383.122 161.157 383.752 156.887 383.752 152.08C383.752 147.087 383.052 142.77 381.652 139.13C380.298 135.49 378.455 132.69 376.122 130.73C373.788 128.723 371.175 127.72 368.282 127.72ZM440.83 127.44V128.84C439.243 128.887 438.03 129.12 437.19 129.54C436.396 129.96 435.86 130.637 435.58 131.57C435.3 132.503 435.16 133.833 435.16 135.56V177.35C434.88 177.35 434.6 177.35 434.32 177.35C434.086 177.35 433.83 177.35 433.55 177.35L404.15 131.92V168.88C404.15 170.56 404.29 171.89 404.57 172.87C404.896 173.803 405.503 174.48 406.39 174.9C407.323 175.273 408.7 175.507 410.52 175.6V177C409.68 176.907 408.583 176.86 407.23 176.86C405.876 176.813 404.593 176.79 403.38 176.79C402.213 176.79 401.023 176.813 399.81 176.86C398.643 176.86 397.663 176.907 396.87 177V175.6C398.456 175.507 399.646 175.273 400.44 174.9C401.28 174.48 401.84 173.803 402.12 172.87C402.4 171.89 402.54 170.56 402.54 168.88V134.86C402.54 133.133 402.4 131.873 402.12 131.08C401.84 130.24 401.28 129.68 400.44 129.4C399.646 129.073 398.456 128.887 396.87 128.84V127.44C397.663 127.487 398.643 127.533 399.81 127.58C401.023 127.627 402.213 127.65 403.38 127.65C404.406 127.65 405.386 127.627 406.32 127.58C407.253 127.533 408.093 127.487 408.84 127.44L433.55 165.52V135.56C433.55 133.833 433.386 132.503 433.06 131.57C432.78 130.637 432.173 129.96 431.24 129.54C430.353 129.12 429 128.887 427.18 128.84V127.44C428.02 127.487 429.116 127.533 430.47 127.58C431.87 127.627 433.153 127.65 434.32 127.65C435.533 127.65 436.723 127.627 437.89 127.58C439.103 127.533 440.083 127.487 440.83 127.44Z" fill="#161616"/>
</svg>
