<svg viewBox="0 0 1820 259" fill="none" xmlns="http://www.w3.org/2000/svg">
<path d="M98.0778 4.35555C103.181 4.35555 107.419 5.99259 110.789 9.26666C114.256 12.4444 115.989 17.0667 115.989 23.1333C115.989 30.3556 113.726 36.8074 109.2 42.4889C104.77 48.0741 98.9444 50.8667 91.7222 50.8667C87.5815 50.8667 84.3074 49.6148 81.9 47.1111C79.4926 44.6074 78.2889 41.8148 78.2889 38.7333C78.2889 36.037 79.1556 33.7741 80.8889 31.9444C82.7185 30.1148 85.2222 29.2 88.4 29.2C90.037 29.2 91.2407 29.5852 92.0111 30.3556C92.8778 31.0296 93.3111 31.8963 93.3111 32.9556C93.3111 33.7259 93.0222 34.4481 92.4444 35.1222C91.8667 35.7 91.0482 35.9889 89.9889 35.9889C91.0482 35.6037 91.5778 34.6889 91.5778 33.2444C91.5778 32.1852 91.2407 31.3185 90.5667 30.6444C89.8926 29.9704 88.8333 29.6333 87.3889 29.6333C84.8852 29.6333 82.863 30.4519 81.3222 32.0889C79.7815 33.7259 79.0111 35.6519 79.0111 37.8667C79.0111 40.563 79.9741 42.5852 81.9 43.9333C83.8259 45.2815 86.3296 45.9556 89.4111 45.9556C95.9593 45.9556 101.93 43.837 107.322 39.6C112.715 35.363 115.411 29.9704 115.411 23.4222C115.411 18.3185 113.87 14.6111 110.789 12.3C107.804 9.98889 103.904 8.83333 99.0889 8.83333C94.7556 8.83333 90.5185 9.7 86.3778 11.4333C82.3333 13.1667 78.8667 15.863 75.9778 19.5222C73.1852 23.0852 71.7889 27.2259 71.7889 31.9444C71.7889 38.2037 72.8963 45.763 75.1111 54.6222C77.3259 63.4815 78.4333 71.2333 78.4333 77.8778C78.4333 85.3889 76.4111 92.4667 72.3667 99.1111C68.4185 105.756 63.0741 111.052 56.3333 115C49.5926 119.044 42.3222 121.067 34.5222 121.067C25.0852 121.067 17.8148 118.37 12.7111 112.978C7.7037 107.681 5.2 101.181 5.2 93.4778C5.2 89.2407 6.01852 85.0519 7.65556 80.9111C9.29259 76.7704 11.6037 73.0148 14.5889 69.6444C17.6704 66.1778 21.6185 63.4333 26.4333 61.4111C31.3444 59.2926 36.737 58.2333 42.6111 58.2333C48.1963 58.2333 52.4815 59.437 55.4667 61.8444C58.4519 64.2519 60.0889 67.2852 60.3778 70.9444C60.3778 71.2333 60.3778 71.5222 60.3778 71.8111C60.3778 76.9148 58.0185 81.5852 53.3 85.8222C48.5815 89.963 42.4667 92.0333 34.9556 92.0333C33.8 92.0333 32.6444 91.9852 31.4889 91.8889V91.4556C32.5481 91.5519 33.6556 91.6 34.8111 91.6C41.937 91.6 47.6185 89.4815 51.8556 85.2444C56.0926 80.9111 58.0667 76.1926 57.7778 71.0889C57.5852 67.5259 56.1889 64.5889 53.5889 62.2778C50.9889 59.9667 47.3296 58.8111 42.6111 58.8111C37.2185 58.8111 32.2593 59.7741 27.7333 61.7C23.3037 63.6259 19.6926 66.1296 16.9 69.2111C14.1074 72.2926 11.9407 75.7111 10.4 79.4667C8.85926 83.1259 8.08889 86.8815 8.08889 90.7333C8.08889 97.3778 10.2556 102.915 14.5889 107.344C18.9222 111.87 25.1815 114.133 33.3667 114.133C38.2778 114.133 43.237 113.267 48.2444 111.533C53.2519 109.8 57.8259 107.344 61.9667 104.167C66.2037 101.085 69.6222 97.0407 72.2222 92.0333C74.8222 87.0259 76.1222 81.537 76.1222 75.5667C76.1222 70.8481 75.2074 63.5778 73.3778 53.7556C71.6444 43.9333 70.7778 36.8074 70.7778 32.3778C70.7778 26.6963 72.1741 21.6889 74.9667 17.3556C77.8556 12.9259 81.3222 9.65185 85.3667 7.53333C89.5074 5.41481 93.7444 4.35555 98.0778 4.35555ZM192.868 9.96C192.522 13.2533 192.262 16.46 192.088 19.58C192.002 22.6133 191.958 24.9533 191.958 26.6C191.958 28.68 192.002 30.63 192.088 32.45C192.175 34.27 192.262 35.8733 192.348 37.26H189.358C188.752 31.1933 187.928 26.4267 186.888 22.96C185.848 19.4067 184.028 16.85 181.428 15.29C178.828 13.73 174.798 12.95 169.338 12.95H162.318V86.92C162.318 90.3867 162.622 92.9867 163.228 94.72C163.922 96.4533 165.222 97.6233 167.128 98.23C169.035 98.8367 171.808 99.2267 175.448 99.4V102C173.195 101.827 170.335 101.74 166.868 101.74C163.402 101.653 159.892 101.61 156.338 101.61C152.438 101.61 148.755 101.653 145.288 101.74C141.908 101.74 139.178 101.827 137.098 102V99.4C140.738 99.2267 143.512 98.8367 145.418 98.23C147.325 97.6233 148.582 96.4533 149.188 94.72C149.882 92.9867 150.228 90.3867 150.228 86.92V12.95H143.208C137.835 12.95 133.805 13.73 131.118 15.29C128.518 16.85 126.698 19.4067 125.658 22.96C124.618 26.4267 123.795 31.1933 123.188 37.26H120.198C120.372 35.8733 120.458 34.27 120.458 32.45C120.545 30.63 120.588 28.68 120.588 26.6C120.588 24.9533 120.502 22.6133 120.328 19.58C120.242 16.46 120.025 13.2533 119.678 9.96C123.318 10.0467 127.262 10.1333 131.508 10.22C135.842 10.3067 140.175 10.35 144.508 10.35C148.842 10.35 152.785 10.35 156.338 10.35C159.892 10.35 163.792 10.35 168.038 10.35C172.372 10.35 176.705 10.3067 181.038 10.22C185.372 10.1333 189.315 10.0467 192.868 9.96ZM232.547 9.30999L264.267 91.08C265.567 94.3733 267.04 96.5833 268.687 97.71C270.333 98.75 271.85 99.3133 273.237 99.4V102C271.503 101.827 269.38 101.74 266.867 101.74C264.353 101.653 261.84 101.61 259.327 101.61C255.947 101.61 252.783 101.653 249.837 101.74C246.89 101.74 244.507 101.827 242.687 102V99.4C247.107 99.2267 249.923 98.49 251.137 97.19C252.35 95.8033 252.09 92.9 250.357 88.48L226.177 23.87L228.257 22.18L205.637 80.94C203.817 85.62 202.95 89.3033 203.037 91.99C203.123 94.59 204.12 96.4533 206.027 97.58C207.933 98.7067 210.707 99.3133 214.347 99.4V102C211.92 101.827 209.363 101.74 206.677 101.74C204.077 101.653 201.65 101.61 199.397 101.61C197.23 101.61 195.367 101.653 193.807 101.74C192.333 101.74 190.947 101.827 189.647 102V99.4C191.38 98.9667 193.157 97.97 194.977 96.41C196.797 94.7633 198.443 91.99 199.917 88.09L230.467 9.30999C230.813 9.30999 231.16 9.30999 231.507 9.30999C231.853 9.30999 232.2 9.30999 232.547 9.30999ZM248.407 64.56V67.16H209.667L210.967 64.56H248.407ZM275.362 9.96C277.182 10.0467 279.566 10.1333 282.512 10.22C285.459 10.3067 288.362 10.35 291.222 10.35C295.296 10.35 299.196 10.3067 302.922 10.22C306.649 10.1333 309.292 10.09 310.852 10.09C321.339 10.09 329.182 12.2567 334.382 16.59C339.582 20.9233 342.182 26.2967 342.182 32.71C342.182 35.31 341.662 38.0833 340.622 41.03C339.582 43.9767 337.762 46.75 335.162 49.35C332.649 51.95 329.182 54.1167 324.762 55.85C320.342 57.4967 314.752 58.32 307.992 58.32H295.512V55.72H306.692C312.846 55.72 317.526 54.7667 320.732 52.86C324.026 50.8667 326.236 48.2667 327.362 45.06C328.576 41.7667 329.182 38.1267 329.182 34.14C329.182 27.2933 327.536 22.0067 324.242 18.28C321.036 14.4667 315.489 12.56 307.602 12.56C303.616 12.56 301.016 13.2967 299.802 14.77C298.589 16.2433 297.982 19.2333 297.982 23.74V88.22C297.982 91.34 298.242 93.68 298.762 95.24C299.282 96.8 300.279 97.84 301.752 98.36C303.312 98.88 305.566 99.2267 308.512 99.4V102C306.519 101.827 304.006 101.74 300.972 101.74C298.026 101.653 295.036 101.61 292.002 101.61C288.622 101.61 285.459 101.653 282.512 101.74C279.566 101.74 277.182 101.827 275.362 102V99.4C278.309 99.2267 280.519 98.88 281.992 98.36C283.552 97.84 284.592 96.8 285.112 95.24C285.632 93.68 285.892 91.34 285.892 88.22V23.74C285.892 20.5333 285.632 18.1933 285.112 16.72C284.592 15.16 283.552 14.12 281.992 13.6C280.519 12.9933 278.309 12.6467 275.362 12.56V9.96ZM296.032 56.11C300.712 56.2833 304.396 56.5 307.082 56.76C309.769 56.9333 311.936 57.1067 313.582 57.28C315.316 57.4533 316.962 57.67 318.522 57.93C324.329 58.8833 328.489 60.66 331.002 63.26C333.602 65.7733 335.509 69.7167 336.722 75.09L339.972 88.35C340.839 92.1633 341.706 94.9367 342.572 96.67C343.526 98.3167 344.956 99.0967 346.862 99.01C348.336 98.9233 349.549 98.4467 350.502 97.58C351.542 96.7133 352.626 95.5433 353.752 94.07L355.702 95.5C353.882 98.1867 351.976 100.267 349.982 101.74C348.076 103.127 345.346 103.82 341.792 103.82C338.586 103.82 335.769 102.867 333.342 100.96C330.916 99.0533 329.096 95.3267 327.882 89.78L325.022 76.78C324.242 73.0533 323.332 69.8467 322.292 67.16C321.339 64.3867 319.952 62.22 318.132 60.66C316.399 59.1 313.799 58.32 310.332 58.32H296.292L296.032 56.11ZM430.271 9.96C429.924 13.2533 429.664 16.46 429.491 19.58C429.404 22.6133 429.361 24.9533 429.361 26.6C429.361 28.68 429.404 30.63 429.491 32.45C429.577 34.27 429.664 35.8733 429.751 37.26H426.761C426.154 31.1933 425.331 26.4267 424.291 22.96C423.251 19.4067 421.431 16.85 418.831 15.29C416.231 13.73 412.201 12.95 406.741 12.95H399.721V86.92C399.721 90.3867 400.024 92.9867 400.631 94.72C401.324 96.4533 402.624 97.6233 404.531 98.23C406.437 98.8367 409.211 99.2267 412.851 99.4V102C410.597 101.827 407.737 101.74 404.271 101.74C400.804 101.653 397.294 101.61 393.741 101.61C389.841 101.61 386.157 101.653 382.691 101.74C379.311 101.74 376.581 101.827 374.501 102V99.4C378.141 99.2267 380.914 98.8367 382.821 98.23C384.727 97.6233 385.984 96.4533 386.591 94.72C387.284 92.9867 387.631 90.3867 387.631 86.92V12.95H380.611C375.237 12.95 371.207 13.73 368.521 15.29C365.921 16.85 364.101 19.4067 363.061 22.96C362.021 26.4267 361.197 31.1933 360.591 37.26H357.601C357.774 35.8733 357.861 34.27 357.861 32.45C357.947 30.63 357.991 28.68 357.991 26.6C357.991 24.9533 357.904 22.6133 357.731 19.58C357.644 16.46 357.427 13.2533 357.081 9.96C360.721 10.0467 364.664 10.1333 368.911 10.22C373.244 10.3067 377.577 10.35 381.911 10.35C386.244 10.35 390.187 10.35 393.741 10.35C397.294 10.35 401.194 10.35 405.441 10.35C409.774 10.35 414.107 10.3067 418.441 10.22C422.774 10.1333 426.717 10.0467 430.271 9.96ZM535.376 9.96V12.56C533.729 12.9067 532.082 13.99 530.436 15.81C528.789 17.5433 526.969 20.3167 524.976 24.13L498.716 76.13H496.506L466.086 19.97C464.352 16.7633 462.879 14.77 461.666 13.99C460.539 13.1233 459.499 12.69 458.546 12.69V9.96C460.279 10.0467 462.056 10.1333 463.876 10.22C465.782 10.3067 467.819 10.35 469.986 10.35C472.846 10.35 475.879 10.35 479.086 10.35C482.379 10.2633 485.412 10.1333 488.186 9.96V12.69C486.019 12.69 484.112 12.95 482.466 13.47C480.819 13.99 479.736 14.9433 479.216 16.33C478.696 17.7167 479.086 19.6667 480.386 22.18L502.356 64.3L501.316 65.08L518.606 30.63C521.032 25.8633 522.202 22.18 522.116 19.58C522.116 16.98 521.119 15.2033 519.126 14.25C517.132 13.21 514.316 12.6467 510.676 12.56V9.96C513.189 10.0467 515.746 10.1333 518.346 10.22C520.946 10.3067 523.372 10.35 525.626 10.35C527.879 10.35 529.742 10.3067 531.216 10.22C532.689 10.1333 534.076 10.0467 535.376 9.96ZM504.566 62.48V88.22C504.566 91.34 504.826 93.68 505.346 95.24C505.866 96.8 506.862 97.84 508.336 98.36C509.896 98.88 512.149 99.2267 515.096 99.4V102C513.102 101.827 510.589 101.74 507.556 101.74C504.609 101.653 501.619 101.61 498.586 101.61C495.206 101.61 492.042 101.653 489.096 101.74C486.149 101.74 483.766 101.827 481.946 102V99.4C484.892 99.2267 487.102 98.88 488.576 98.36C490.136 97.84 491.176 96.8 491.696 95.24C492.216 93.68 492.476 91.34 492.476 88.22V61.57L499.496 69.63L504.566 62.48ZM623.276 26.4556C625.779 28.7667 627.031 32.3778 627.031 37.2889C627.031 42.2 625.779 47.8815 623.276 54.3333C620.868 60.7852 617.353 67.3333 612.731 73.9778C608.205 80.5259 603.053 86.5926 597.276 92.1778C591.498 97.763 584.853 102.337 577.342 105.9C569.927 109.463 562.464 111.244 554.953 111.244C548.405 111.244 543.446 109.27 540.076 105.322C536.801 101.47 535.164 96.1741 535.164 89.4333C535.164 83.5593 536.368 77.1074 538.776 70.0778C541.279 63.0481 544.842 56.0667 549.464 49.1333C554.183 42.2 559.527 35.8926 565.498 30.2111C571.564 24.4333 578.546 19.8111 586.442 16.3444C594.435 12.7815 602.572 11 610.853 11C615.187 11 618.461 12.0111 620.676 14.0333C622.987 16.0556 624.142 18.6556 624.142 21.8333C624.142 23.3741 623.853 24.9148 623.276 26.4556ZM555.098 109.8C560.876 109.8 566.701 108.452 572.576 105.756C578.546 103.059 583.987 99.5444 588.898 95.2111C593.809 90.8778 598.431 85.9667 602.764 80.4778C607.098 74.9889 610.709 69.4519 613.598 63.8667C616.583 58.2815 618.942 52.937 620.676 47.8333C622.409 42.6333 623.276 38.1556 623.276 34.4C623.276 32.1852 622.938 30.3074 622.264 28.7667C620.435 32.5222 617.401 35.6518 613.164 38.1556C608.927 40.563 603.92 41.7667 598.142 41.7667C594.194 41.7667 590.824 41.1407 588.031 39.8889C582.831 45.0889 578.546 50.7222 575.176 56.7889C571.805 62.7593 570.12 67.6704 570.12 71.5222C570.12 75.8556 572.046 78.0704 575.898 78.1667C578.401 78.1667 580.761 77.0593 582.976 74.8444C585.19 72.5333 586.442 70.1741 586.731 67.7667C586.827 67.4778 586.876 67.237 586.876 67.0444C586.876 66.3704 587.02 66.0815 587.309 66.1778C587.501 66.1778 587.646 66.2741 587.742 66.4667C587.742 66.7556 587.598 67.0444 587.309 67.3333C587.116 67.6222 587.02 67.7667 587.02 67.7667C586.827 70.3667 585.624 72.7741 583.409 74.9889C581.194 77.2037 578.69 78.3593 575.898 78.4556H575.753C572.768 78.3593 570.505 77.4444 568.964 75.7111C567.52 73.9778 566.798 71.5704 566.798 68.4889C566.798 63.963 568.338 58.763 571.42 52.8889C574.598 46.9185 578.738 41.6222 583.842 37C581.627 34.7852 580.664 31.8963 580.953 28.3333H581.098C580.809 31.8963 581.772 34.737 583.987 36.8556C587.164 34.063 590.487 31.7518 593.953 29.9222C601.657 25.8778 608.831 23.8556 615.476 23.8556C618.076 23.8556 620.29 24.4333 622.12 25.5889C622.505 24.1444 622.698 22.7481 622.698 21.4C622.698 18.6074 621.687 16.2963 619.664 14.4667C617.642 12.637 614.657 11.7222 610.709 11.7222C603.487 11.7222 596.216 13.6 588.898 17.3556C581.676 21.1111 575.224 26.0222 569.542 32.0889C563.957 38.0593 558.901 44.6074 554.376 51.7333C549.946 58.8593 546.527 65.9852 544.12 73.1111C541.809 80.237 540.653 86.6407 540.653 92.3222C540.653 97.7148 541.809 101.952 544.12 105.033C546.527 108.211 550.187 109.8 555.098 109.8ZM621.398 27.3222C620.146 25.4926 618.316 24.5778 615.909 24.5778C607.338 24.5778 598.094 29.5852 588.176 39.6C590.679 40.6593 593.664 41.1889 597.131 41.1889C603.005 41.1889 608.109 39.8407 612.442 37.1444C616.776 34.4481 619.761 31.1741 621.398 27.3222ZM700.746 9.96V12.56C697.799 12.6467 695.546 13.08 693.986 13.86C692.512 14.64 691.516 15.8967 690.996 17.63C690.476 19.3633 690.216 21.8333 690.216 25.04V64.17C690.216 70.2367 689.826 75.5233 689.046 80.03C688.266 84.5367 686.879 88.4367 684.886 91.73C682.719 95.37 679.556 98.3167 675.396 100.57C671.236 102.737 666.469 103.82 661.096 103.82C656.936 103.82 652.949 103.3 649.136 102.26C645.409 101.307 642.116 99.4867 639.256 96.8C636.742 94.3733 634.749 91.8167 633.276 89.13C631.889 86.4433 630.936 83.15 630.416 79.25C629.896 75.35 629.636 70.4533 629.636 64.56V23.74C629.636 20.5333 629.376 18.1933 628.856 16.72C628.336 15.16 627.296 14.12 625.736 13.6C624.262 12.9933 622.052 12.6467 619.106 12.56V9.96C620.926 10.0467 623.309 10.1333 626.256 10.22C629.202 10.3067 632.366 10.35 635.746 10.35C638.779 10.35 641.769 10.3067 644.716 10.22C647.749 10.1333 650.262 10.0467 652.256 9.96V12.56C649.309 12.6467 647.056 12.9933 645.496 13.6C644.022 14.12 643.026 15.16 642.506 16.72C641.986 18.1933 641.726 20.5333 641.726 23.74V66.77C641.726 72.6633 642.159 78.08 643.026 83.02C643.892 87.96 645.756 91.9033 648.616 94.85C651.562 97.7967 656.112 99.27 662.266 99.27C668.852 99.27 673.922 97.84 677.476 94.98C681.116 92.0333 683.629 88.0033 685.016 82.89C686.489 77.7767 687.226 72.0133 687.226 65.6V25.04C687.226 21.8333 686.836 19.3633 686.056 17.63C685.362 15.8967 684.149 14.64 682.416 13.86C680.682 13.08 678.342 12.6467 675.396 12.56V9.96C676.956 10.0467 678.992 10.1333 681.506 10.22C684.106 10.3067 686.489 10.35 688.656 10.35C690.909 10.35 693.119 10.3067 695.286 10.22C697.539 10.1333 699.359 10.0467 700.746 9.96ZM709.669 9.96C711.489 10.0467 713.872 10.1333 716.819 10.22C719.766 10.3067 722.669 10.35 725.529 10.35C729.602 10.35 733.502 10.3067 737.229 10.22C740.956 10.1333 743.599 10.09 745.159 10.09C755.646 10.09 763.489 12.2567 768.689 16.59C773.889 20.9233 776.489 26.2967 776.489 32.71C776.489 35.31 775.969 38.0833 774.929 41.03C773.889 43.9767 772.069 46.75 769.469 49.35C766.956 51.95 763.489 54.1167 759.069 55.85C754.649 57.4967 749.059 58.32 742.299 58.32H729.819V55.72H740.999C747.152 55.72 751.832 54.7667 755.039 52.86C758.332 50.8667 760.542 48.2667 761.669 45.06C762.882 41.7667 763.489 38.1267 763.489 34.14C763.489 27.2933 761.842 22.0067 758.549 18.28C755.342 14.4667 749.796 12.56 741.909 12.56C737.922 12.56 735.322 13.2967 734.109 14.77C732.896 16.2433 732.289 19.2333 732.289 23.74V88.22C732.289 91.34 732.549 93.68 733.069 95.24C733.589 96.8 734.586 97.84 736.059 98.36C737.619 98.88 739.872 99.2267 742.819 99.4V102C740.826 101.827 738.312 101.74 735.279 101.74C732.332 101.653 729.342 101.61 726.309 101.61C722.929 101.61 719.766 101.653 716.819 101.74C713.872 101.74 711.489 101.827 709.669 102V99.4C712.616 99.2267 714.826 98.88 716.299 98.36C717.859 97.84 718.899 96.8 719.419 95.24C719.939 93.68 720.199 91.34 720.199 88.22V23.74C720.199 20.5333 719.939 18.1933 719.419 16.72C718.899 15.16 717.859 14.12 716.299 13.6C714.826 12.9933 712.616 12.6467 709.669 12.56V9.96ZM730.339 56.11C735.019 56.2833 738.702 56.5 741.389 56.76C744.076 56.9333 746.242 57.1067 747.889 57.28C749.622 57.4533 751.269 57.67 752.829 57.93C758.636 58.8833 762.796 60.66 765.309 63.26C767.909 65.7733 769.816 69.7167 771.029 75.09L774.279 88.35C775.146 92.1633 776.012 94.9367 776.879 96.67C777.832 98.3167 779.262 99.0967 781.169 99.01C782.642 98.9233 783.856 98.4467 784.809 97.58C785.849 96.7133 786.932 95.5433 788.059 94.07L790.009 95.5C788.189 98.1867 786.282 100.267 784.289 101.74C782.382 103.127 779.652 103.82 776.099 103.82C772.892 103.82 770.076 102.867 767.649 100.96C765.222 99.0533 763.402 95.3267 762.189 89.78L759.329 76.78C758.549 73.0533 757.639 69.8467 756.599 67.16C755.646 64.3867 754.259 62.22 752.439 60.66C750.706 59.1 748.106 58.32 744.639 58.32H730.599L730.339 56.11ZM996.878 9.55555C998.033 9.55555 998.948 9.94074 999.622 10.7111C1000.3 11.4815 1000.54 12.7333 1000.34 14.4667C1000.15 16.2963 998.322 19.763 994.855 24.8667C991.389 29.9704 987.248 35.7963 982.433 42.3444C977.618 48.7963 972.804 55.4407 967.989 62.2778C963.174 69.1148 958.937 75.9037 955.278 82.6444C951.618 89.2889 949.548 94.6333 949.067 98.6778C948.874 100.315 948.778 101.856 948.778 103.3C948.778 110.811 951.474 114.567 956.867 114.567C959.852 114.567 962.693 113.652 965.389 111.822C968.085 110.089 970.204 107.537 971.744 104.167H971.889C969.289 111.293 964.281 114.856 956.867 114.856C954.459 114.856 952.341 114.278 950.511 113.122C948.778 112.063 947.478 110.619 946.611 108.789C945.744 107.056 945.118 105.322 944.733 103.589C944.348 101.856 944.155 100.122 944.155 98.3889C944.155 97.5222 944.204 96.7037 944.3 95.9333C944.878 90.8296 947.093 84.7148 950.944 77.5889C954.796 70.463 959.226 63.4815 964.233 56.6444C969.241 49.8074 974.248 43.2593 979.255 37C984.263 30.7407 988.5 25.2519 991.967 20.5333C995.53 15.8148 997.407 12.637 997.6 11C997.696 10.3259 997.455 9.98889 996.878 9.98889C994.567 9.98889 989.078 14.7556 980.411 24.2889C971.841 33.8222 962.981 44.3185 953.833 55.7778C944.781 67.1407 936.211 77.5889 928.122 87.1222C920.033 96.5593 915.315 101.278 913.967 101.278C913.389 101.278 912.811 100.893 912.233 100.122C911.752 99.3519 911.511 98.3407 911.511 97.0889C911.511 94.1037 913.581 89.4333 917.722 83.0778C921.863 76.6259 926.918 69.7889 932.889 62.5667C938.859 55.3444 944.83 48.2667 950.8 41.3333C956.77 34.3037 961.922 27.9963 966.255 22.4111C970.589 16.8259 972.852 13.0704 973.044 11.1444C973.141 10.3741 972.852 9.98889 972.178 9.98889C970.637 9.98889 968.23 11.5296 964.955 14.6111C961.778 17.5963 958.118 21.5926 953.978 26.6C949.837 31.6074 945.022 37.2889 939.533 43.6444C934.141 49.9037 928.555 56.3556 922.778 63C917 69.6444 910.693 76.1444 903.855 82.5C897.115 88.7593 890.422 94.3926 883.778 99.4C877.23 104.311 870.296 108.259 862.978 111.244C855.755 114.326 848.918 115.867 842.467 115.867C834.57 115.867 828.648 113.989 824.7 110.233C820.848 106.478 818.922 101.567 818.922 95.5C818.922 91.263 819.789 86.8333 821.522 82.2111C823.352 77.4926 826.048 72.9185 829.611 68.4889C833.27 64.0593 837.459 60.063 842.178 56.5C846.896 52.937 852.433 50.0963 858.789 47.9778C865.241 45.763 871.933 44.6556 878.867 44.6556C884.933 44.6556 889.459 45.8111 892.444 48.1222C895.43 50.4333 896.922 53.5148 896.922 57.3667C896.922 60.737 895.815 64.3 893.6 68.0556C891.481 71.8111 888.641 75.2778 885.078 78.4556C881.611 81.6333 877.326 84.2815 872.222 86.4C867.118 88.5185 861.87 89.5778 856.478 89.5778C853.107 89.5778 850.122 88.9519 847.522 87.7C844.922 86.3519 843.767 84.5222 844.055 82.2111L844.344 82.0667C844.537 83.1259 845.018 83.9444 845.789 84.5222C846.559 85.1 847.57 85.5333 848.822 85.8222C850.17 86.0148 851.278 86.1593 852.144 86.2556C853.011 86.2556 854.167 86.2556 855.611 86.2556C855.9 86.2556 856.141 86.2556 856.333 86.2556C861.63 86.2556 866.781 85.2926 871.789 83.3667C876.893 81.4407 881.178 79.0333 884.644 76.1444C888.207 73.1593 891.048 69.9815 893.167 66.6111C895.285 63.1444 896.344 59.8704 896.344 56.7889C896.344 53.3222 894.9 50.5296 892.011 48.4111C889.122 46.2926 884.741 45.2333 878.867 45.2333C870.874 45.2333 863.17 46.7741 855.755 49.8556C848.341 52.937 842.178 56.837 837.267 61.5556C832.355 66.1778 828.455 71.1852 825.567 76.5778C822.678 81.9704 821.233 87.1222 821.233 92.0333C821.233 97.3296 823.063 101.615 826.722 104.889C830.381 108.163 835.918 109.8 843.333 109.8C851.23 109.8 859.415 107.922 867.889 104.167C876.459 100.507 884.452 95.7407 891.867 89.8667C899.378 83.9926 906.744 77.4926 913.967 70.3667C921.285 63.2407 927.978 56.1148 934.044 48.9889C940.207 41.863 945.744 35.363 950.655 29.4889C955.663 23.5185 960.044 18.7037 963.8 15.0444C967.555 11.3852 970.348 9.55555 972.178 9.55555C972.755 9.55555 973.285 9.79629 973.767 10.2778C974.344 10.663 974.633 11.337 974.633 12.3C974.633 14.7074 972.611 19.0407 968.567 25.3C964.522 31.463 959.563 38.3481 953.689 45.9556C947.911 53.4667 942.085 60.9296 936.211 68.3444C930.337 75.7593 925.185 82.4037 920.755 88.2778C916.326 94.1519 913.87 97.9556 913.389 99.6889C913.293 100.363 913.485 100.7 913.967 100.7C915.218 100.7 919.841 95.9815 927.833 86.5444C935.922 77.0111 944.493 66.563 953.544 55.2C962.693 43.7407 971.6 33.2926 980.267 23.8556C988.933 14.3222 994.47 9.55555 996.878 9.55555ZM1067.04 9.96C1066.69 12.9933 1066.43 15.94 1066.26 18.8C1066.17 21.66 1066.13 23.8267 1066.13 25.3C1066.13 26.86 1066.17 28.3767 1066.26 29.85C1066.35 31.2367 1066.43 32.4067 1066.52 33.36H1063.53C1063.01 28.2467 1062.27 24.2167 1061.32 21.27C1060.37 18.2367 1058.72 16.1133 1056.38 14.9C1054.13 13.6 1050.7 12.95 1046.11 12.95H1035.32C1032.37 12.95 1030.12 13.21 1028.56 13.73C1027.09 14.1633 1026.09 15.16 1025.57 16.72C1025.05 18.1933 1024.79 20.5333 1024.79 23.74V88.22C1024.79 91.34 1025.05 93.68 1025.57 95.24C1026.09 96.8 1027.09 97.84 1028.56 98.36C1030.12 98.7933 1032.37 99.01 1035.32 99.01H1044.81C1050.27 99.01 1054.39 98.2733 1057.16 96.8C1060.02 95.3267 1062.06 92.9433 1063.27 89.65C1064.57 86.27 1065.52 81.72 1066.13 76H1069.12C1068.86 78.34 1068.73 81.46 1068.73 85.36C1068.73 87.0067 1068.77 89.39 1068.86 92.51C1069.03 95.5433 1069.29 98.7067 1069.64 102C1065.22 101.827 1060.24 101.74 1054.69 101.74C1049.14 101.653 1044.2 101.61 1039.87 101.61C1037.27 101.61 1033.8 101.61 1029.47 101.61C1025.22 101.61 1020.67 101.653 1015.82 101.74C1010.97 101.74 1006.42 101.827 1002.17 102V99.4C1005.12 99.2267 1007.33 98.88 1008.8 98.36C1010.36 97.84 1011.4 96.8 1011.92 95.24C1012.44 93.68 1012.7 91.34 1012.7 88.22V23.74C1012.7 20.5333 1012.44 18.1933 1011.92 16.72C1011.4 15.16 1010.36 14.12 1008.8 13.6C1007.33 12.9933 1005.12 12.6467 1002.17 12.56V9.96C1006.42 10.0467 1010.97 10.1333 1015.82 10.22C1020.67 10.3067 1025.22 10.35 1029.47 10.35C1033.8 10.35 1037.27 10.35 1039.87 10.35C1043.86 10.35 1048.36 10.35 1053.39 10.35C1058.5 10.2633 1063.05 10.1333 1067.04 9.96ZM1044.68 54.42C1044.68 54.42 1044.68 54.8533 1044.68 55.72C1044.68 56.5867 1044.68 57.02 1044.68 57.02H1020.89C1020.89 57.02 1020.89 56.5867 1020.89 55.72C1020.89 54.8533 1020.89 54.42 1020.89 54.42H1044.68ZM1048.45 37.26C1048.1 42.2 1047.93 45.97 1047.93 48.57C1048.02 51.17 1048.06 53.5533 1048.06 55.72C1048.06 57.8867 1048.1 60.27 1048.19 62.87C1048.28 65.47 1048.49 69.24 1048.84 74.18H1045.85C1045.5 71.4067 1045.07 68.72 1044.55 66.12C1044.12 63.4333 1043.08 61.2667 1041.43 59.62C1039.87 57.8867 1037.18 57.02 1033.37 57.02V54.42C1037.18 54.42 1039.83 53.4233 1041.3 51.43C1042.86 49.4367 1043.86 47.0967 1044.29 44.41C1044.72 41.7233 1045.11 39.34 1045.46 37.26H1048.45ZM1114.54 9.96V12.56C1111.59 12.6467 1109.34 12.9933 1107.78 13.6C1106.3 14.12 1105.31 15.16 1104.79 16.72C1104.27 18.1933 1104.01 20.5333 1104.01 23.74V88.22C1104.01 91.34 1104.27 93.68 1104.79 95.24C1105.31 96.8 1106.3 97.84 1107.78 98.36C1109.34 98.7933 1111.59 99.01 1114.54 99.01H1124.03C1129.49 99.01 1133.6 98.23 1136.38 96.67C1139.24 95.11 1141.27 92.5533 1142.49 89C1143.79 85.4467 1144.74 80.68 1145.35 74.7H1148.34C1148.08 77.3867 1147.95 80.94 1147.95 85.36C1147.95 87.0067 1147.99 89.39 1148.08 92.51C1148.25 95.5433 1148.51 98.7067 1148.86 102C1144.44 101.827 1139.45 101.74 1133.91 101.74C1128.36 101.653 1123.42 101.61 1119.09 101.61C1116.49 101.61 1113.02 101.61 1108.69 101.61C1104.44 101.61 1099.89 101.653 1095.04 101.74C1090.18 101.74 1085.63 101.827 1081.39 102V99.4C1084.33 99.2267 1086.54 98.88 1088.02 98.36C1089.58 97.84 1090.62 96.8 1091.14 95.24C1091.66 93.68 1091.92 91.34 1091.92 88.22V23.74C1091.92 20.5333 1091.66 18.1933 1091.14 16.72C1090.62 15.16 1089.58 14.12 1088.02 13.6C1086.54 12.9933 1084.33 12.6467 1081.39 12.56V9.96C1083.21 10.0467 1085.59 10.1333 1088.54 10.22C1091.48 10.3067 1094.65 10.35 1098.03 10.35C1101.06 10.35 1104.05 10.3067 1107 10.22C1110.03 10.1333 1112.54 10.0467 1114.54 9.96ZM1200.58 8.13999C1208.82 8.13999 1216.01 10.0033 1222.16 13.73C1228.4 17.4567 1233.21 22.83 1236.59 29.85C1240.06 36.7833 1241.79 45.2333 1241.79 55.2C1241.79 64.9067 1240.02 73.4 1236.46 80.68C1233 87.96 1228.14 93.6367 1221.9 97.71C1215.66 101.783 1208.51 103.82 1200.45 103.82C1192.22 103.82 1184.98 101.957 1178.74 98.23C1172.59 94.5033 1167.78 89.13 1164.31 82.11C1160.93 75.09 1159.24 66.64 1159.24 56.76C1159.24 47.0533 1161.02 38.56 1164.57 31.28C1168.13 24 1172.98 18.3233 1179.13 14.25C1185.37 10.1767 1192.52 8.13999 1200.58 8.13999ZM1200.06 10.48C1194.43 10.48 1189.53 12.43 1185.37 16.33C1181.21 20.23 1177.96 25.6033 1175.62 32.45C1173.37 39.2967 1172.24 47.2267 1172.24 56.24C1172.24 65.4267 1173.5 73.4433 1176.01 80.29C1178.61 87.05 1182.08 92.2933 1186.41 96.02C1190.83 99.66 1195.69 101.48 1200.97 101.48C1206.61 101.48 1211.5 99.53 1215.66 95.63C1219.82 91.73 1223.03 86.3567 1225.28 79.51C1227.62 72.5767 1228.79 64.6467 1228.79 55.72C1228.79 46.4467 1227.49 38.43 1224.89 31.67C1222.38 24.91 1218.96 19.71 1214.62 16.07C1210.29 12.3433 1205.44 10.48 1200.06 10.48ZM1288.65 9.96C1304.16 9.96 1315.69 13.86 1323.23 21.66C1330.77 29.3733 1334.54 40.4667 1334.54 54.94C1334.54 64.3867 1332.67 72.6633 1328.95 79.77C1325.31 86.79 1319.98 92.25 1312.96 96.15C1305.94 100.05 1297.44 102 1287.48 102C1285.57 102 1282.75 101.957 1279.03 101.87C1275.3 101.697 1272.05 101.61 1269.28 101.61C1266.24 101.61 1263.25 101.653 1260.31 101.74C1257.36 101.74 1254.98 101.827 1253.16 102V99.4C1256.1 99.2267 1258.31 98.88 1259.79 98.36C1261.35 97.84 1262.39 96.8 1262.91 95.24C1263.43 93.68 1263.69 91.34 1263.69 88.22V23.74C1263.69 20.5333 1263.43 18.1933 1262.91 16.72C1262.39 15.16 1261.35 14.12 1259.79 13.6C1258.31 12.9933 1256.1 12.6467 1253.16 12.56V9.96C1254.98 10.0467 1257.36 10.1767 1260.31 10.35C1263.25 10.4367 1266.16 10.4367 1269.02 10.35C1272.05 10.2633 1275.47 10.1767 1279.29 10.09C1283.1 10.0033 1286.22 9.96 1288.65 9.96ZM1285.4 12.3C1281.41 12.3 1278.81 13.0367 1277.6 14.51C1276.38 15.9833 1275.78 18.9733 1275.78 23.48V88.48C1275.78 92.9867 1276.38 95.9767 1277.6 97.45C1278.9 98.9233 1281.54 99.66 1285.53 99.66C1294.97 99.66 1302.3 97.97 1307.5 94.59C1312.7 91.1233 1316.34 86.0967 1318.42 79.51C1320.5 72.9233 1321.54 64.9067 1321.54 55.46C1321.54 40.9 1318.85 30.0667 1313.48 22.96C1308.19 15.8533 1298.83 12.3 1285.4 12.3ZM1379.11 9.96V12.56C1376.16 12.6467 1373.91 12.9933 1372.35 13.6C1370.87 14.12 1369.88 15.16 1369.36 16.72C1368.84 18.1933 1368.58 20.5333 1368.58 23.74V88.22C1368.58 91.34 1368.84 93.68 1369.36 95.24C1369.88 96.8 1370.87 97.84 1372.35 98.36C1373.91 98.88 1376.16 99.2267 1379.11 99.4V102C1377.11 101.827 1374.6 101.74 1371.57 101.74C1368.62 101.653 1365.63 101.61 1362.6 101.61C1359.22 101.61 1356.05 101.653 1353.11 101.74C1350.16 101.74 1347.78 101.827 1345.96 102V99.4C1348.9 99.2267 1351.11 98.88 1352.59 98.36C1354.15 97.84 1355.19 96.8 1355.71 95.24C1356.23 93.68 1356.49 91.34 1356.49 88.22V23.74C1356.49 20.5333 1356.23 18.1933 1355.71 16.72C1355.19 15.16 1354.15 14.12 1352.59 13.6C1351.11 12.9933 1348.9 12.6467 1345.96 12.56V9.96C1347.78 10.0467 1350.16 10.1333 1353.11 10.22C1356.05 10.3067 1359.22 10.35 1362.6 10.35C1365.63 10.35 1368.62 10.3067 1371.57 10.22C1374.6 10.1333 1377.11 10.0467 1379.11 9.96ZM1431.77 8.13999C1437.49 8.13999 1442.17 9.00666 1445.81 10.74C1449.53 12.3867 1452.83 14.3367 1455.69 16.59C1457.42 17.89 1458.72 18.0633 1459.59 17.11C1460.54 16.07 1461.19 13.6867 1461.54 9.96H1464.53C1464.35 13.1667 1464.22 17.0667 1464.14 21.66C1464.05 26.2533 1464.01 32.32 1464.01 39.86H1461.02C1460.41 36.1333 1459.85 33.1867 1459.33 31.02C1458.81 28.7667 1458.16 26.86 1457.38 25.3C1456.68 23.74 1455.73 22.18 1454.52 20.62C1451.83 17.0667 1448.45 14.51 1444.38 12.95C1440.3 11.3033 1436.01 10.48 1431.51 10.48C1427.26 10.48 1423.4 11.5633 1419.94 13.73C1416.56 15.81 1413.61 18.8433 1411.1 22.83C1408.67 26.8167 1406.76 31.6267 1405.38 37.26C1404.08 42.8933 1403.43 49.22 1403.43 56.24C1403.43 63.52 1404.16 69.9767 1405.64 75.61C1407.11 81.1567 1409.15 85.8367 1411.75 89.65C1414.43 93.4633 1417.55 96.3667 1421.11 98.36C1424.75 100.267 1428.65 101.22 1432.81 101.22C1436.71 101.22 1440.78 100.44 1445.03 98.88C1449.27 97.32 1452.61 94.8067 1455.04 91.34C1456.94 88.8267 1458.24 86.0967 1458.94 83.15C1459.72 80.2033 1460.41 76.0867 1461.02 70.8H1464.01C1464.01 78.6867 1464.05 85.0567 1464.14 89.91C1464.22 94.6767 1464.35 98.7067 1464.53 102H1461.54C1461.19 98.2733 1460.58 95.9333 1459.72 94.98C1458.94 94.0267 1457.59 94.1567 1455.69 95.37C1452.48 97.6233 1449.06 99.6167 1445.42 101.35C1441.86 102.997 1437.27 103.82 1431.64 103.82C1423.4 103.82 1416.17 101.957 1409.93 98.23C1403.77 94.5033 1398.96 89.13 1395.5 82.11C1392.12 75.09 1390.43 66.64 1390.43 56.76C1390.43 47.0533 1392.2 38.56 1395.76 31.28C1399.31 24 1404.16 18.3233 1410.32 14.25C1416.56 10.1767 1423.71 8.13999 1431.77 8.13999Z" fill="#A77E3D"/>
<path d="M826.085 141.611C828.396 141.611 829.503 141.996 829.407 142.767C829.407 142.959 829.311 143.104 829.118 143.2C828.637 143.681 827.818 143.922 826.662 143.922C825.603 143.922 824.496 143.681 823.34 143.2C822.474 142.911 821.318 142.959 819.874 143.344C818.525 143.633 816.455 144.981 813.662 147.389C810.87 149.796 807.981 153.167 804.996 157.5C804.322 158.559 802.685 161.593 800.085 166.6C801.144 166.6 802.685 166.552 804.707 166.456C806.633 166.263 808.174 166.167 809.329 166.167C810.003 166.167 810.34 166.407 810.34 166.889C810.34 167.274 810.003 167.467 809.329 167.467C807.981 167.467 806.729 167.467 805.574 167.467C805.285 167.467 804.466 167.467 803.118 167.467C801.77 167.37 800.614 167.322 799.651 167.322C794.74 176.663 790.359 184.559 786.507 191.011C790.07 190.915 793.825 190.481 797.774 189.711C800.951 189.133 804.322 188.219 807.885 186.967V187.256C803.262 189.374 798.977 190.819 795.029 191.589C794.837 191.685 794.596 191.733 794.307 191.733C791.225 192.311 788.24 192.648 785.351 192.744C758.677 236.559 731.762 258.467 704.607 258.467C697.385 258.467 691.992 256.83 688.429 253.556C684.866 250.378 683.085 246.093 683.085 240.7C683.085 236.463 684.144 231.889 686.262 226.978C688.381 222.067 691.414 217.252 695.362 212.533C699.407 207.815 704.029 203.53 709.229 199.678C714.429 195.73 720.496 192.552 727.429 190.144C734.362 187.737 741.44 186.533 748.662 186.533C754.248 186.533 758.437 187.641 761.229 189.856C764.022 192.07 765.418 194.959 765.418 198.522C765.418 201.796 764.166 205.407 761.662 209.356C759.255 213.304 756.077 216.963 752.129 220.333C748.277 223.704 743.607 226.496 738.118 228.711C732.629 230.926 727.092 232.033 721.507 232.033C718.137 232.033 715.2 231.407 712.696 230.156C710.192 228.904 709.229 227.122 709.807 224.811L710.096 224.667C710.192 225.63 710.577 226.448 711.251 227.122C711.925 227.7 712.888 228.133 714.14 228.422C715.488 228.615 716.596 228.759 717.462 228.856C718.329 228.856 719.485 228.856 720.929 228.856C721.314 228.856 721.555 228.856 721.651 228.856C727.14 228.856 732.581 227.844 737.974 225.822C743.462 223.704 748.085 221.104 751.84 218.022C755.692 214.941 758.822 211.619 761.229 208.056C763.637 204.493 764.84 201.17 764.84 198.089C764.84 195.007 763.492 192.552 760.796 190.722C758.1 188.796 754.007 187.833 748.518 187.833C740.14 187.833 731.955 189.519 723.962 192.889C716.066 196.163 709.374 200.256 703.885 205.167C698.492 210.078 694.159 215.374 690.885 221.056C687.514 226.737 685.829 231.985 685.829 236.8C685.829 241.519 687.514 245.274 690.885 248.067C694.255 250.859 699.359 252.256 706.196 252.256C732.196 252.256 757.907 232.419 783.329 192.744C773.796 192.744 766.429 190.337 761.229 185.522C756.125 180.611 753.574 174.689 753.574 167.756C753.574 163.904 754.344 160.196 755.885 156.633C757.425 153.07 759.64 149.796 762.529 146.811C765.514 143.826 769.318 141.467 773.94 139.733C778.562 137.904 783.714 136.989 789.396 136.989C792.477 136.989 797.629 137.856 804.851 139.589C812.074 141.322 817.562 142.189 821.318 142.189C823.148 141.804 824.737 141.611 826.085 141.611ZM804.418 157.067C809.714 149.556 814.192 144.885 817.851 143.056C814.962 142.959 810.34 142.767 803.985 142.478C797.725 142.189 792.959 142.044 789.685 142.044C778.803 142.044 770.185 144.741 763.829 150.133C757.57 155.43 754.44 161.544 754.44 168.478C754.44 174.737 757.04 180.081 762.24 184.511C767.44 188.844 774.903 191.011 784.629 191.011C788.674 184.559 793.296 176.663 798.496 167.322C797.629 167.322 796.859 167.322 796.185 167.322C794.74 167.322 792.525 167.37 789.54 167.467C787.133 167.563 785.592 167.611 784.918 167.611C784.148 167.611 783.762 167.419 783.762 167.033C783.762 166.552 784.148 166.311 784.918 166.311C785.785 166.311 787.422 166.359 789.829 166.456C792.718 166.552 794.837 166.6 796.185 166.6C797.148 166.6 798.014 166.6 798.785 166.6C801.77 161.207 803.648 158.03 804.418 157.067ZM884.554 135.14C892.788 135.14 899.981 137.003 906.134 140.73C912.374 144.457 917.184 149.83 920.564 156.85C924.031 163.783 925.764 172.233 925.764 182.2C925.764 191.907 923.988 200.4 920.434 207.68C916.968 214.96 912.114 220.637 905.874 224.71C899.634 228.783 892.484 230.82 884.424 230.82C876.191 230.82 868.954 228.957 862.714 225.23C856.561 221.503 851.751 216.13 848.284 209.11C844.904 202.09 843.214 193.64 843.214 183.76C843.214 174.053 844.991 165.56 848.544 158.28C852.098 151 856.951 145.323 863.104 141.25C869.344 137.177 876.494 135.14 884.554 135.14ZM884.034 137.48C878.401 137.48 873.504 139.43 869.344 143.33C865.184 147.23 861.934 152.603 859.594 159.45C857.341 166.297 856.214 174.227 856.214 183.24C856.214 192.427 857.471 200.443 859.984 207.29C862.584 214.05 866.051 219.293 870.384 223.02C874.804 226.66 879.658 228.48 884.944 228.48C890.578 228.48 895.474 226.53 899.634 222.63C903.794 218.73 907.001 213.357 909.254 206.51C911.594 199.577 912.764 191.647 912.764 182.72C912.764 173.447 911.464 165.43 908.864 158.67C906.351 151.91 902.928 146.71 898.594 143.07C894.261 139.343 889.408 137.48 884.034 137.48ZM1017.07 136.96V139.56C1014.12 139.647 1011.87 140.08 1010.31 140.86C1008.84 141.64 1007.84 142.897 1007.32 144.63C1006.8 146.363 1006.54 148.833 1006.54 152.04V191.17C1006.54 197.237 1006.15 202.523 1005.37 207.03C1004.59 211.537 1003.2 215.437 1001.21 218.73C999.044 222.37 995.88 225.317 991.72 227.57C987.56 229.737 982.794 230.82 977.42 230.82C973.26 230.82 969.274 230.3 965.46 229.26C961.734 228.307 958.44 226.487 955.58 223.8C953.067 221.373 951.074 218.817 949.6 216.13C948.214 213.443 947.26 210.15 946.74 206.25C946.22 202.35 945.96 197.453 945.96 191.56V150.74C945.96 147.533 945.7 145.193 945.18 143.72C944.66 142.16 943.62 141.12 942.06 140.6C940.587 139.993 938.377 139.647 935.43 139.56V136.96C937.25 137.047 939.633 137.133 942.58 137.22C945.527 137.307 948.69 137.35 952.07 137.35C955.104 137.35 958.094 137.307 961.04 137.22C964.073 137.133 966.587 137.047 968.58 136.96V139.56C965.634 139.647 963.38 139.993 961.82 140.6C960.347 141.12 959.35 142.16 958.83 143.72C958.31 145.193 958.05 147.533 958.05 150.74V193.77C958.05 199.663 958.484 205.08 959.35 210.02C960.217 214.96 962.08 218.903 964.94 221.85C967.887 224.797 972.437 226.27 978.59 226.27C985.177 226.27 990.247 224.84 993.8 221.98C997.44 219.033 999.954 215.003 1001.34 209.89C1002.81 204.777 1003.55 199.013 1003.55 192.6V152.04C1003.55 148.833 1003.16 146.363 1002.38 144.63C1001.69 142.897 1000.47 141.64 998.74 140.86C997.007 140.08 994.667 139.647 991.72 139.56V136.96C993.28 137.047 995.317 137.133 997.83 137.22C1000.43 137.307 1002.81 137.35 1004.98 137.35C1007.23 137.35 1009.44 137.307 1011.61 137.22C1013.86 137.133 1015.68 137.047 1017.07 136.96ZM1025.99 136.96C1027.81 137.047 1030.2 137.133 1033.14 137.22C1036.09 137.307 1038.99 137.35 1041.85 137.35C1045.93 137.35 1049.83 137.307 1053.55 137.22C1057.28 137.133 1059.92 137.09 1061.48 137.09C1071.97 137.09 1079.81 139.257 1085.01 143.59C1090.21 147.923 1092.81 153.297 1092.81 159.71C1092.81 162.31 1092.29 165.083 1091.25 168.03C1090.21 170.977 1088.39 173.75 1085.79 176.35C1083.28 178.95 1079.81 181.117 1075.39 182.85C1070.97 184.497 1065.38 185.32 1058.62 185.32H1046.14V182.72H1057.32C1063.48 182.72 1068.16 181.767 1071.36 179.86C1074.66 177.867 1076.87 175.267 1077.99 172.06C1079.21 168.767 1079.81 165.127 1079.81 161.14C1079.81 154.293 1078.17 149.007 1074.87 145.28C1071.67 141.467 1066.12 139.56 1058.23 139.56C1054.25 139.56 1051.65 140.297 1050.43 141.77C1049.22 143.243 1048.61 146.233 1048.61 150.74V215.22C1048.61 218.34 1048.87 220.68 1049.39 222.24C1049.91 223.8 1050.91 224.84 1052.38 225.36C1053.94 225.88 1056.2 226.227 1059.14 226.4V229C1057.15 228.827 1054.64 228.74 1051.6 228.74C1048.66 228.653 1045.67 228.61 1042.63 228.61C1039.25 228.61 1036.09 228.653 1033.14 228.74C1030.2 228.74 1027.81 228.827 1025.99 229V226.4C1028.94 226.227 1031.15 225.88 1032.62 225.36C1034.18 224.84 1035.22 223.8 1035.74 222.24C1036.26 220.68 1036.52 218.34 1036.52 215.22V150.74C1036.52 147.533 1036.26 145.193 1035.74 143.72C1035.22 142.16 1034.18 141.12 1032.62 140.6C1031.15 139.993 1028.94 139.647 1025.99 139.56V136.96ZM1046.66 183.11C1051.34 183.283 1055.03 183.5 1057.71 183.76C1060.4 183.933 1062.57 184.107 1064.21 184.28C1065.95 184.453 1067.59 184.67 1069.15 184.93C1074.96 185.883 1079.12 187.66 1081.63 190.26C1084.23 192.773 1086.14 196.717 1087.35 202.09L1090.6 215.35C1091.47 219.163 1092.34 221.937 1093.2 223.67C1094.16 225.317 1095.59 226.097 1097.49 226.01C1098.97 225.923 1100.18 225.447 1101.13 224.58C1102.17 223.713 1103.26 222.543 1104.38 221.07L1106.33 222.5C1104.51 225.187 1102.61 227.267 1100.61 228.74C1098.71 230.127 1095.98 230.82 1092.42 230.82C1089.22 230.82 1086.4 229.867 1083.97 227.96C1081.55 226.053 1079.73 222.327 1078.51 216.78L1075.65 203.78C1074.87 200.053 1073.96 196.847 1072.92 194.16C1071.97 191.387 1070.58 189.22 1068.76 187.66C1067.03 186.1 1064.43 185.32 1060.96 185.32H1046.92L1046.66 183.11ZM1191.93 136.96V139.56C1188.98 139.647 1186.73 140.08 1185.17 140.86C1183.7 141.64 1182.7 142.897 1182.18 144.63C1181.66 146.363 1181.4 148.833 1181.4 152.04V229.65C1180.88 229.65 1180.36 229.65 1179.84 229.65C1179.41 229.65 1178.93 229.65 1178.41 229.65L1123.81 145.28V213.92C1123.81 217.04 1124.07 219.51 1124.59 221.33C1125.2 223.063 1126.32 224.32 1127.97 225.1C1129.7 225.793 1132.26 226.227 1135.64 226.4V229C1134.08 228.827 1132.04 228.74 1129.53 228.74C1127.02 228.653 1124.63 228.61 1122.38 228.61C1120.21 228.61 1118 228.653 1115.75 228.74C1113.58 228.74 1111.76 228.827 1110.29 229V226.4C1113.24 226.227 1115.45 225.793 1116.92 225.1C1118.48 224.32 1119.52 223.063 1120.04 221.33C1120.56 219.51 1120.82 217.04 1120.82 213.92V150.74C1120.82 147.533 1120.56 145.193 1120.04 143.72C1119.52 142.16 1118.48 141.12 1116.92 140.6C1115.45 139.993 1113.24 139.647 1110.29 139.56V136.96C1111.76 137.047 1113.58 137.133 1115.75 137.22C1118 137.307 1120.21 137.35 1122.38 137.35C1124.29 137.35 1126.11 137.307 1127.84 137.22C1129.57 137.133 1131.13 137.047 1132.52 136.96L1178.41 207.68V152.04C1178.41 148.833 1178.11 146.363 1177.5 144.63C1176.98 142.897 1175.85 141.64 1174.12 140.86C1172.47 140.08 1169.96 139.647 1166.58 139.56V136.96C1168.14 137.047 1170.18 137.133 1172.69 137.22C1175.29 137.307 1177.67 137.35 1179.84 137.35C1182.09 137.35 1184.3 137.307 1186.47 137.22C1188.72 137.133 1190.54 137.047 1191.93 136.96ZM1266.95 136.96C1266.6 139.993 1266.34 142.94 1266.17 145.8C1266.08 148.66 1266.04 150.827 1266.04 152.3C1266.04 153.86 1266.08 155.377 1266.17 156.85C1266.25 158.237 1266.34 159.407 1266.43 160.36H1263.44C1262.92 155.247 1262.18 151.217 1261.23 148.27C1260.27 145.237 1258.63 143.113 1256.29 141.9C1254.03 140.6 1250.61 139.95 1246.02 139.95H1235.23C1232.28 139.95 1230.03 140.21 1228.47 140.73C1226.99 141.163 1226 142.16 1225.48 143.72C1224.96 145.193 1224.7 147.533 1224.7 150.74V215.22C1224.7 218.34 1224.96 220.68 1225.48 222.24C1226 223.8 1226.99 224.84 1228.47 225.36C1230.03 225.793 1232.28 226.01 1235.23 226.01H1244.72C1250.18 226.01 1254.29 225.273 1257.07 223.8C1259.93 222.327 1261.96 219.943 1263.18 216.65C1264.48 213.27 1265.43 208.72 1266.04 203H1269.03C1268.77 205.34 1268.64 208.46 1268.64 212.36C1268.64 214.007 1268.68 216.39 1268.77 219.51C1268.94 222.543 1269.2 225.707 1269.55 229C1265.13 228.827 1260.14 228.74 1254.6 228.74C1249.05 228.653 1244.11 228.61 1239.78 228.61C1237.18 228.61 1233.71 228.61 1229.38 228.61C1225.13 228.61 1220.58 228.653 1215.73 228.74C1210.87 228.74 1206.32 228.827 1202.08 229V226.4C1205.02 226.227 1207.23 225.88 1208.71 225.36C1210.27 224.84 1211.31 223.8 1211.83 222.24C1212.35 220.68 1212.61 218.34 1212.61 215.22V150.74C1212.61 147.533 1212.35 145.193 1211.83 143.72C1211.31 142.16 1210.27 141.12 1208.71 140.6C1207.23 139.993 1205.02 139.647 1202.08 139.56V136.96C1206.32 137.047 1210.87 137.133 1215.73 137.22C1220.58 137.307 1225.13 137.35 1229.38 137.35C1233.71 137.35 1237.18 137.35 1239.78 137.35C1243.76 137.35 1248.27 137.35 1253.3 137.35C1258.41 137.263 1262.96 137.133 1266.95 136.96ZM1244.59 181.42C1244.59 181.42 1244.59 181.853 1244.59 182.72C1244.59 183.587 1244.59 184.02 1244.59 184.02H1220.8C1220.8 184.02 1220.8 183.587 1220.8 182.72C1220.8 181.853 1220.8 181.42 1220.8 181.42H1244.59ZM1248.36 164.26C1248.01 169.2 1247.84 172.97 1247.84 175.57C1247.92 178.17 1247.97 180.553 1247.97 182.72C1247.97 184.887 1248.01 187.27 1248.1 189.87C1248.18 192.47 1248.4 196.24 1248.75 201.18H1245.76C1245.41 198.407 1244.98 195.72 1244.46 193.12C1244.02 190.433 1242.98 188.267 1241.34 186.62C1239.78 184.887 1237.09 184.02 1233.28 184.02V181.42C1237.09 181.42 1239.73 180.423 1241.21 178.43C1242.77 176.437 1243.76 174.097 1244.2 171.41C1244.63 168.723 1245.02 166.34 1245.37 164.26H1248.36ZM1352.28 136.96V139.56C1350.63 139.907 1348.98 140.99 1347.34 142.81C1345.69 144.543 1343.87 147.317 1341.88 151.13L1315.62 203.13H1313.41L1282.99 146.97C1281.25 143.763 1279.78 141.77 1278.57 140.99C1277.44 140.123 1276.4 139.69 1275.45 139.69V136.96C1277.18 137.047 1278.96 137.133 1280.78 137.22C1282.68 137.307 1284.72 137.35 1286.89 137.35C1289.75 137.35 1292.78 137.35 1295.99 137.35C1299.28 137.263 1302.31 137.133 1305.09 136.96V139.69C1302.92 139.69 1301.01 139.95 1299.37 140.47C1297.72 140.99 1296.64 141.943 1296.12 143.33C1295.6 144.717 1295.99 146.667 1297.29 149.18L1319.26 191.3L1318.22 192.08L1335.51 157.63C1337.93 152.863 1339.1 149.18 1339.02 146.58C1339.02 143.98 1338.02 142.203 1336.03 141.25C1334.03 140.21 1331.22 139.647 1327.58 139.56V136.96C1330.09 137.047 1332.65 137.133 1335.25 137.22C1337.85 137.307 1340.27 137.35 1342.53 137.35C1344.78 137.35 1346.64 137.307 1348.12 137.22C1349.59 137.133 1350.98 137.047 1352.28 136.96ZM1321.47 189.48V215.22C1321.47 218.34 1321.73 220.68 1322.25 222.24C1322.77 223.8 1323.76 224.84 1325.24 225.36C1326.8 225.88 1329.05 226.227 1332 226.4V229C1330 228.827 1327.49 228.74 1324.46 228.74C1321.51 228.653 1318.52 228.61 1315.49 228.61C1312.11 228.61 1308.94 228.653 1306 228.74C1303.05 228.74 1300.67 228.827 1298.85 229V226.4C1301.79 226.227 1304 225.88 1305.48 225.36C1307.04 224.84 1308.08 223.8 1308.6 222.24C1309.12 220.68 1309.38 218.34 1309.38 215.22V188.57L1316.4 196.63L1321.47 189.48ZM1454.61 136.96C1454.27 140.253 1454.01 143.46 1453.83 146.58C1453.75 149.613 1453.7 151.953 1453.7 153.6C1453.7 155.68 1453.75 157.63 1453.83 159.45C1453.92 161.27 1454.01 162.873 1454.09 164.26H1451.1C1450.5 158.193 1449.67 153.427 1448.63 149.96C1447.59 146.407 1445.77 143.85 1443.17 142.29C1440.57 140.73 1436.54 139.95 1431.08 139.95H1424.06V213.92C1424.06 217.387 1424.37 219.987 1424.97 221.72C1425.67 223.453 1426.97 224.623 1428.87 225.23C1430.78 225.837 1433.55 226.227 1437.19 226.4V229C1434.94 228.827 1432.08 228.74 1428.61 228.74C1425.15 228.653 1421.64 228.61 1418.08 228.61C1414.18 228.61 1410.5 228.653 1407.03 228.74C1403.65 228.74 1400.92 228.827 1398.84 229V226.4C1402.48 226.227 1405.26 225.837 1407.16 225.23C1409.07 224.623 1410.33 223.453 1410.93 221.72C1411.63 219.987 1411.97 217.387 1411.97 213.92V139.95H1404.95C1399.58 139.95 1395.55 140.73 1392.86 142.29C1390.26 143.85 1388.44 146.407 1387.4 149.96C1386.36 153.427 1385.54 158.193 1384.93 164.26H1381.94C1382.12 162.873 1382.2 161.27 1382.2 159.45C1382.29 157.63 1382.33 155.68 1382.33 153.6C1382.33 151.953 1382.25 149.613 1382.07 146.58C1381.99 143.46 1381.77 140.253 1381.42 136.96C1385.06 137.047 1389.01 137.133 1393.25 137.22C1397.59 137.307 1401.92 137.35 1406.25 137.35C1410.59 137.35 1414.53 137.35 1418.08 137.35C1421.64 137.35 1425.54 137.35 1429.78 137.35C1434.12 137.35 1438.45 137.307 1442.78 137.22C1447.12 137.133 1451.06 137.047 1454.61 136.96ZM1545.93 153.456C1548.43 155.767 1549.68 159.378 1549.68 164.289C1549.68 169.2 1548.43 174.881 1545.93 181.333C1543.52 187.785 1540.01 194.333 1535.38 200.978C1530.86 207.526 1525.71 213.593 1519.93 219.178C1514.15 224.763 1507.51 229.337 1499.99 232.9C1492.58 236.463 1485.12 238.244 1477.61 238.244C1471.06 238.244 1466.1 236.27 1462.73 232.322C1459.45 228.47 1457.82 223.174 1457.82 216.433C1457.82 210.559 1459.02 204.107 1461.43 197.078C1463.93 190.048 1467.49 183.067 1472.12 176.133C1476.84 169.2 1482.18 162.893 1488.15 157.211C1494.22 151.433 1501.2 146.811 1509.09 143.344C1517.09 139.781 1525.22 138 1533.51 138C1537.84 138 1541.11 139.011 1543.33 141.033C1545.64 143.056 1546.79 145.656 1546.79 148.833C1546.79 150.374 1546.51 151.915 1545.93 153.456ZM1477.75 236.8C1483.53 236.8 1489.35 235.452 1495.23 232.756C1501.2 230.059 1506.64 226.544 1511.55 222.211C1516.46 217.878 1521.08 212.967 1525.42 207.478C1529.75 201.989 1533.36 196.452 1536.25 190.867C1539.24 185.281 1541.59 179.937 1543.33 174.833C1545.06 169.633 1545.93 165.156 1545.93 161.4C1545.93 159.185 1545.59 157.307 1544.92 155.767C1543.09 159.522 1540.05 162.652 1535.82 165.156C1531.58 167.563 1526.57 168.767 1520.79 168.767C1516.85 168.767 1513.48 168.141 1510.68 166.889C1505.48 172.089 1501.2 177.722 1497.83 183.789C1494.46 189.759 1492.77 194.67 1492.77 198.522C1492.77 202.856 1494.7 205.07 1498.55 205.167C1501.05 205.167 1503.41 204.059 1505.63 201.844C1507.84 199.533 1509.09 197.174 1509.38 194.767C1509.48 194.478 1509.53 194.237 1509.53 194.044C1509.53 193.37 1509.67 193.081 1509.96 193.178C1510.15 193.178 1510.3 193.274 1510.39 193.467C1510.39 193.756 1510.25 194.044 1509.96 194.333C1509.77 194.622 1509.67 194.767 1509.67 194.767C1509.48 197.367 1508.28 199.774 1506.06 201.989C1503.85 204.204 1501.34 205.359 1498.55 205.456H1498.41C1495.42 205.359 1493.16 204.444 1491.62 202.711C1490.17 200.978 1489.45 198.57 1489.45 195.489C1489.45 190.963 1490.99 185.763 1494.07 179.889C1497.25 173.919 1501.39 168.622 1506.49 164C1504.28 161.785 1503.32 158.896 1503.61 155.333H1503.75C1503.46 158.896 1504.42 161.737 1506.64 163.856C1509.82 161.063 1513.14 158.752 1516.61 156.922C1524.31 152.878 1531.48 150.856 1538.13 150.856C1540.73 150.856 1542.94 151.433 1544.77 152.589C1545.16 151.144 1545.35 149.748 1545.35 148.4C1545.35 145.607 1544.34 143.296 1542.32 141.467C1540.29 139.637 1537.31 138.722 1533.36 138.722C1526.14 138.722 1518.87 140.6 1511.55 144.356C1504.33 148.111 1497.88 153.022 1492.19 159.089C1486.61 165.059 1481.55 171.607 1477.03 178.733C1472.6 185.859 1469.18 192.985 1466.77 200.111C1464.46 207.237 1463.31 213.641 1463.31 219.322C1463.31 224.715 1464.46 228.952 1466.77 232.033C1469.18 235.211 1472.84 236.8 1477.75 236.8ZM1544.05 154.322C1542.8 152.493 1540.97 151.578 1538.56 151.578C1529.99 151.578 1520.75 156.585 1510.83 166.6C1513.33 167.659 1516.32 168.189 1519.78 168.189C1525.66 168.189 1530.76 166.841 1535.09 164.144C1539.43 161.448 1542.41 158.174 1544.05 154.322ZM1579.2 136.96C1594.71 136.96 1606.24 140.86 1613.78 148.66C1621.32 156.373 1625.09 167.467 1625.09 181.94C1625.09 191.387 1623.22 199.663 1619.5 206.77C1615.86 213.79 1610.53 219.25 1603.51 223.15C1596.49 227.05 1587.99 229 1578.03 229C1576.12 229 1573.3 228.957 1569.58 228.87C1565.85 228.697 1562.6 228.61 1559.83 228.61C1556.79 228.61 1553.8 228.653 1550.86 228.74C1547.91 228.74 1545.53 228.827 1543.71 229V226.4C1546.65 226.227 1548.86 225.88 1550.34 225.36C1551.9 224.84 1552.94 223.8 1553.46 222.24C1553.98 220.68 1554.24 218.34 1554.24 215.22V150.74C1554.24 147.533 1553.98 145.193 1553.46 143.72C1552.94 142.16 1551.9 141.12 1550.34 140.6C1548.86 139.993 1546.65 139.647 1543.71 139.56V136.96C1545.53 137.047 1547.91 137.177 1550.86 137.35C1553.8 137.437 1556.71 137.437 1559.57 137.35C1562.6 137.263 1566.02 137.177 1569.84 137.09C1573.65 137.003 1576.77 136.96 1579.2 136.96ZM1575.95 139.3C1571.96 139.3 1569.36 140.037 1568.15 141.51C1566.93 142.983 1566.33 145.973 1566.33 150.48V215.48C1566.33 219.987 1566.93 222.977 1568.15 224.45C1569.45 225.923 1572.09 226.66 1576.08 226.66C1585.52 226.66 1592.85 224.97 1598.05 221.59C1603.25 218.123 1606.89 213.097 1608.97 206.51C1611.05 199.923 1612.09 191.907 1612.09 182.46C1612.09 167.9 1609.4 157.067 1604.03 149.96C1598.74 142.853 1589.38 139.3 1575.95 139.3ZM1671.39 136.31L1703.11 218.08C1704.41 221.373 1705.88 223.583 1707.53 224.71C1709.18 225.75 1710.69 226.313 1712.08 226.4V229C1710.35 228.827 1708.22 228.74 1705.71 228.74C1703.2 228.653 1700.68 228.61 1698.17 228.61C1694.79 228.61 1691.63 228.653 1688.68 228.74C1685.73 228.74 1683.35 228.827 1681.53 229V226.4C1685.95 226.227 1688.77 225.49 1689.98 224.19C1691.19 222.803 1690.93 219.9 1689.2 215.48L1665.02 150.87L1667.1 149.18L1644.48 207.94C1642.66 212.62 1641.79 216.303 1641.88 218.99C1641.97 221.59 1642.96 223.453 1644.87 224.58C1646.78 225.707 1649.55 226.313 1653.19 226.4V229C1650.76 228.827 1648.21 228.74 1645.52 228.74C1642.92 228.653 1640.49 228.61 1638.24 228.61C1636.07 228.61 1634.21 228.653 1632.65 228.74C1631.18 228.74 1629.79 228.827 1628.49 229V226.4C1630.22 225.967 1632 224.97 1633.82 223.41C1635.64 221.763 1637.29 218.99 1638.76 215.09L1669.31 136.31C1669.66 136.31 1670 136.31 1670.35 136.31C1670.7 136.31 1671.04 136.31 1671.39 136.31ZM1687.25 191.56V194.16H1648.51L1649.81 191.56H1687.25ZM1781.25 136.96V139.56C1779.6 139.907 1777.96 140.99 1776.31 142.81C1774.66 144.543 1772.84 147.317 1770.85 151.13L1744.59 203.13H1742.38L1711.96 146.97C1710.23 143.763 1708.75 141.77 1707.54 140.99C1706.41 140.123 1705.37 139.69 1704.42 139.69V136.96C1706.15 137.047 1707.93 137.133 1709.75 137.22C1711.66 137.307 1713.69 137.35 1715.86 137.35C1718.72 137.35 1721.75 137.35 1724.96 137.35C1728.25 137.263 1731.29 137.133 1734.06 136.96V139.69C1731.89 139.69 1729.99 139.95 1728.34 140.47C1726.69 140.99 1725.61 141.943 1725.09 143.33C1724.57 144.717 1724.96 146.667 1726.26 149.18L1748.23 191.3L1747.19 192.08L1764.48 157.63C1766.91 152.863 1768.08 149.18 1767.99 146.58C1767.99 143.98 1766.99 142.203 1765 141.25C1763.01 140.21 1760.19 139.647 1756.55 139.56V136.96C1759.06 137.047 1761.62 137.133 1764.22 137.22C1766.82 137.307 1769.25 137.35 1771.5 137.35C1773.75 137.35 1775.62 137.307 1777.09 137.22C1778.56 137.133 1779.95 137.047 1781.25 136.96ZM1750.44 189.48V215.22C1750.44 218.34 1750.7 220.68 1751.22 222.24C1751.74 223.8 1752.74 224.84 1754.21 225.36C1755.77 225.88 1758.02 226.227 1760.97 226.4V229C1758.98 228.827 1756.46 228.74 1753.43 228.74C1750.48 228.653 1747.49 228.61 1744.46 228.61C1741.08 228.61 1737.92 228.653 1734.97 228.74C1732.02 228.74 1729.64 228.827 1727.82 229V226.4C1730.77 226.227 1732.98 225.88 1734.45 225.36C1736.01 224.84 1737.05 223.8 1737.57 222.24C1738.09 220.68 1738.35 218.34 1738.35 215.22V188.57L1745.37 196.63L1750.44 189.48Z" fill="#A77E3D"/>
</svg>
