<svg viewBox="0 0 964 120" fill="none" xmlns="http://www.w3.org/2000/svg">
<path d="M137.101 2.8V5.8C135.201 6.2 133.101 7.35 130.801 9.25C128.501 11.05 126.651 14.25 125.251 18.85L96.9008 109.75C96.7008 109.75 96.5008 109.75 96.3008 109.75C96.1008 109.75 95.9008 109.75 95.7008 109.75C95.5008 109.75 95.3008 109.75 95.1008 109.75C94.9008 109.75 94.7008 109.75 94.5008 109.75L62.7008 15.4C61.4008 11.5 59.9508 8.94999 58.3508 7.75C56.7508 6.55 55.2508 5.9 53.8508 5.8V2.8C55.6508 2.9 57.9008 3 60.6008 3.1C63.3008 3.19999 65.9008 3.24999 68.4008 3.24999C72.3008 3.24999 75.9508 3.19999 79.3508 3.1C82.7508 3 85.5008 2.9 87.6008 2.8V5.8C84.6008 5.9 82.2008 6.19999 80.4008 6.69999C78.7008 7.19999 77.7008 8.29999 77.4008 10C77.2008 11.7 77.7008 14.5 78.9008 18.4L101.251 87.55L99.1508 89.35L118.951 27.1C120.751 21.6 121.551 17.35 121.351 14.35C121.251 11.25 120.151 9.09999 118.051 7.9C115.951 6.6 112.801 5.9 108.601 5.8V2.8C111.501 2.9 114.451 3 117.451 3.1C120.451 3.19999 123.251 3.24999 125.851 3.24999C128.451 3.24999 130.601 3.19999 132.301 3.1C134.001 3 135.601 2.9 137.101 2.8ZM32.2508 2.8V5.8C29.6508 5.99999 27.7508 6.49999 26.5508 7.3C25.4508 8.1 24.9008 9.4 24.9008 11.2C25.0008 12.9 25.5508 15.3 26.5508 18.4L49.8008 89.35L46.0508 93.1L67.0508 26.05L69.3008 29.65L44.5508 109.75C44.3508 109.75 44.1508 109.75 43.9508 109.75C43.7508 109.75 43.5508 109.75 43.3508 109.75C43.1508 109.75 42.9508 109.75 42.7508 109.75C42.5508 109.75 42.3508 109.75 42.1508 109.75L10.3508 15.4C9.05078 11.5 7.40078 8.94999 5.40078 7.75C3.40078 6.55 1.60078 5.9 0.000781218 5.8V2.8C2.00078 2.9 4.45078 3 7.35078 3.1C10.3508 3.19999 13.2508 3.24999 16.0508 3.24999C19.3508 3.24999 22.4008 3.19999 25.2008 3.1C28.1008 3 30.4508 2.9 32.2508 2.8ZM217.992 2.8C217.592 6.3 217.292 9.69999 217.092 13C216.992 16.3 216.942 18.8 216.942 20.5C216.942 22.3 216.992 24.05 217.092 25.75C217.192 27.35 217.292 28.7 217.392 29.8H213.942C213.342 23.9 212.492 19.25 211.392 15.85C210.292 12.35 208.392 9.9 205.692 8.5C203.092 6.99999 199.142 6.24999 193.842 6.24999H181.392C177.992 6.24999 175.392 6.54999 173.592 7.15C171.892 7.65 170.742 8.8 170.142 10.6C169.542 12.3 169.242 15 169.242 18.7V93.1C169.242 96.7 169.542 99.4 170.142 101.2C170.742 103 171.892 104.2 173.592 104.8C175.392 105.3 177.992 105.55 181.392 105.55H192.342C198.642 105.55 203.392 104.7 206.592 103C209.892 101.3 212.242 98.55 213.642 94.75C215.142 90.85 216.242 85.6 216.942 79H220.392C220.092 81.7 219.942 85.3 219.942 89.8C219.942 91.7 219.992 94.45 220.092 98.05C220.292 101.55 220.592 105.2 220.992 109C215.892 108.8 210.142 108.7 203.742 108.7C197.342 108.6 191.642 108.55 186.642 108.55C183.642 108.55 179.642 108.55 174.642 108.55C169.742 108.55 164.492 108.6 158.892 108.7C153.292 108.7 148.042 108.8 143.142 109V106C146.542 105.8 149.092 105.4 150.792 104.8C152.592 104.2 153.792 103 154.392 101.2C154.992 99.4 155.292 96.7 155.292 93.1V18.7C155.292 15 154.992 12.3 154.392 10.6C153.792 8.8 152.592 7.6 150.792 7C149.092 6.3 146.542 5.9 143.142 5.8V2.8C148.042 2.9 153.292 3 158.892 3.1C164.492 3.19999 169.742 3.24999 174.642 3.24999C179.642 3.24999 183.642 3.24999 186.642 3.24999C191.242 3.24999 196.442 3.24999 202.242 3.24999C208.142 3.14999 213.392 3 217.992 2.8ZM192.192 54.1C192.192 54.1 192.192 54.6 192.192 55.6C192.192 56.6 192.192 57.1 192.192 57.1H164.742C164.742 57.1 164.742 56.6 164.742 55.6C164.742 54.6 164.742 54.1 164.742 54.1H192.192ZM196.542 34.3C196.142 40 195.942 44.35 195.942 47.35C196.042 50.35 196.092 53.1 196.092 55.6C196.092 58.1 196.142 60.85 196.242 63.85C196.342 66.85 196.592 71.2 196.992 76.9H193.542C193.142 73.7 192.642 70.6 192.042 67.6C191.542 64.5 190.342 62 188.442 60.1C186.642 58.1 183.542 57.1 179.142 57.1V54.1C183.542 54.1 186.592 52.95 188.292 50.65C190.092 48.35 191.242 45.65 191.742 42.55C192.242 39.45 192.692 36.7 193.092 34.3H196.542ZM272.798 2.8V5.8C269.398 5.9 266.798 6.3 264.998 7C263.298 7.6 262.148 8.8 261.548 10.6C260.948 12.3 260.648 15 260.648 18.7V93.1C260.648 96.7 260.948 99.4 261.548 101.2C262.148 103 263.298 104.2 264.998 104.8C266.798 105.3 269.398 105.55 272.798 105.55H283.748C290.048 105.55 294.798 104.65 297.998 102.85C301.298 101.05 303.648 98.1 305.048 94C306.548 89.9 307.648 84.4 308.348 77.5H311.798C311.498 80.6 311.348 84.7 311.348 89.8C311.348 91.7 311.398 94.45 311.498 98.05C311.698 101.55 311.998 105.2 312.398 109C307.298 108.8 301.548 108.7 295.148 108.7C288.748 108.6 283.048 108.55 278.048 108.55C275.048 108.55 271.048 108.55 266.048 108.55C261.148 108.55 255.898 108.6 250.298 108.7C244.698 108.7 239.448 108.8 234.548 109V106C237.948 105.8 240.498 105.4 242.198 104.8C243.998 104.2 245.198 103 245.798 101.2C246.398 99.4 246.698 96.7 246.698 93.1V18.7C246.698 15 246.398 12.3 245.798 10.6C245.198 8.8 243.998 7.6 242.198 7C240.498 6.3 237.948 5.9 234.548 5.8V2.8C236.648 2.9 239.398 3 242.798 3.1C246.198 3.19999 249.848 3.24999 253.748 3.24999C257.248 3.24999 260.698 3.19999 264.098 3.1C267.598 3 270.498 2.9 272.798 2.8ZM372.082 0.699991C378.682 0.699991 384.082 1.69999 388.282 3.7C392.582 5.6 396.382 7.85 399.682 10.45C401.682 11.95 403.182 12.15 404.182 11.05C405.282 9.85 406.032 7.1 406.432 2.8H409.882C409.682 6.5 409.532 11 409.432 16.3C409.332 21.6 409.282 28.6 409.282 37.3H405.832C405.132 33 404.482 29.6 403.882 27.1C403.282 24.5 402.532 22.3 401.632 20.5C400.832 18.7 399.732 16.9 398.332 15.1C395.232 11 391.332 8.04999 386.632 6.24999C381.932 4.34999 376.982 3.39999 371.782 3.39999C366.882 3.39999 362.432 4.64999 358.432 7.15C354.532 9.55 351.132 13.05 348.232 17.65C345.432 22.25 343.232 27.8 341.632 34.3C340.132 40.8 339.382 48.1 339.382 56.2C339.382 64.6 340.232 72.05 341.932 78.55C343.632 84.95 345.982 90.35 348.982 94.75C352.082 99.15 355.682 102.5 359.782 104.8C363.982 107 368.482 108.1 373.282 108.1C377.782 108.1 382.482 107.2 387.382 105.4C392.282 103.6 396.132 100.7 398.932 96.7C401.132 93.8 402.632 90.65 403.432 87.25C404.332 83.85 405.132 79.1 405.832 73H409.282C409.282 82.1 409.332 89.45 409.432 95.05C409.532 100.55 409.682 105.2 409.882 109H406.432C406.032 104.7 405.332 102 404.332 100.9C403.432 99.8 401.882 99.95 399.682 101.35C395.982 103.95 392.032 106.25 387.832 108.25C383.732 110.15 378.432 111.1 371.932 111.1C362.432 111.1 354.082 108.95 346.882 104.65C339.782 100.35 334.232 94.15 330.232 86.05C326.332 77.95 324.382 68.2 324.382 56.8C324.382 45.6 326.432 35.8 330.532 27.4C334.632 19 340.232 12.45 347.332 7.75C354.532 3.04999 362.782 0.699991 372.082 0.699991ZM520.703 21.8333C523.592 24.5 525.036 28.6667 525.036 34.3333C525.036 40 523.592 46.5556 520.703 54C517.925 61.4444 513.87 69 508.536 76.6667C503.314 84.2222 497.37 91.2222 490.703 97.6667C484.036 104.111 476.37 109.389 467.703 113.5C459.148 117.611 450.536 119.667 441.87 119.667C434.314 119.667 428.592 117.389 424.703 112.833C420.925 108.389 419.036 102.278 419.036 94.5C419.036 87.7222 420.425 80.2778 423.203 72.1667C426.092 64.0556 430.203 56 435.536 48C440.981 40 447.148 32.7222 454.036 26.1667C461.036 19.5 469.092 14.1667 478.203 10.1667C487.425 6.05556 496.814 4 506.37 4C511.37 4 515.148 5.16667 517.703 7.5C520.37 9.83333 521.703 12.8333 521.703 16.5C521.703 18.2778 521.37 20.0556 520.703 21.8333ZM442.036 118C448.703 118 455.425 116.444 462.203 113.333C469.092 110.222 475.37 106.167 481.036 101.167C486.703 96.1667 492.036 90.5 497.036 84.1667C502.036 77.8333 506.203 71.4444 509.536 65C512.981 58.5556 515.703 52.3889 517.703 46.5C519.703 40.5 520.703 35.3333 520.703 31C520.703 28.4444 520.314 26.2778 519.536 24.5C517.425 28.8333 513.925 32.4444 509.036 35.3333C504.148 38.1111 498.37 39.5 491.703 39.5C487.148 39.5 483.259 38.7778 480.036 37.3333C474.036 43.3333 469.092 49.8333 465.203 56.8333C461.314 63.7222 459.37 69.3889 459.37 73.8333C459.37 78.8333 461.592 81.3889 466.036 81.5C468.925 81.5 471.648 80.2222 474.203 77.6667C476.759 75 478.203 72.2778 478.536 69.5C478.648 69.1667 478.703 68.8889 478.703 68.6667C478.703 67.8889 478.87 67.5556 479.203 67.6667C479.425 67.6667 479.592 67.7778 479.703 68C479.703 68.3333 479.536 68.6667 479.203 69C478.981 69.3333 478.87 69.5 478.87 69.5C478.648 72.5 477.259 75.2778 474.703 77.8333C472.148 80.3889 469.259 81.7222 466.036 81.8333H465.87C462.425 81.7222 459.814 80.6667 458.036 78.6667C456.37 76.6667 455.536 73.8889 455.536 70.3333C455.536 65.1111 457.314 59.1111 460.87 52.3333C464.536 45.4444 469.314 39.3333 475.203 34C472.648 31.4444 471.536 28.1111 471.87 24H472.036C471.703 28.1111 472.814 31.3889 475.37 33.8333C479.036 30.6111 482.87 27.9444 486.87 25.8333C495.759 21.1667 504.036 18.8333 511.703 18.8333C514.703 18.8333 517.259 19.5 519.37 20.8333C519.814 19.1667 520.036 17.5556 520.036 16C520.036 12.7778 518.87 10.1111 516.536 8C514.203 5.88888 510.759 4.83333 506.203 4.83333C497.87 4.83333 489.481 7 481.036 11.3333C472.703 15.6667 465.259 21.3333 458.703 28.3333C452.259 35.2222 446.425 42.7778 441.203 51C436.092 59.2222 432.148 67.4444 429.37 75.6667C426.703 83.8889 425.37 91.2778 425.37 97.8333C425.37 104.056 426.703 108.944 429.37 112.5C432.148 116.167 436.37 118 442.036 118ZM518.536 22.8333C517.092 20.7222 514.981 19.6667 512.203 19.6667C502.314 19.6667 491.648 25.4444 480.203 37C483.092 38.2222 486.536 38.8333 490.536 38.8333C497.314 38.8333 503.203 37.2778 508.203 34.1667C513.203 31.0556 516.648 27.2778 518.536 22.8333ZM636.192 2.8V5.8C632.792 5.9 630.192 6.3 628.392 7C626.692 7.6 625.542 8.8 624.942 10.6C624.342 12.3 624.042 15 624.042 18.7V93.1C624.042 96.7 624.342 99.4 624.942 101.2C625.542 103 626.692 104.2 628.392 104.8C630.192 105.4 632.792 105.8 636.192 106V109C633.892 108.8 630.992 108.7 627.492 108.7C624.092 108.6 620.642 108.55 617.142 108.55C613.242 108.55 609.592 108.6 606.192 108.7C602.792 108.7 600.042 108.8 597.942 109V106C601.342 105.8 603.892 105.4 605.592 104.8C607.392 104.2 608.592 103 609.192 101.2C609.792 99.4 610.092 96.7 610.092 93.1V10.6L610.692 11.05L573.942 109.75H571.542L533.742 12.4V91.6C533.742 95.2 534.042 98.05 534.642 100.15C535.342 102.15 536.642 103.6 538.542 104.5C540.542 105.3 543.492 105.8 547.392 106V109C545.592 108.8 543.242 108.7 540.342 108.7C537.442 108.6 534.692 108.55 532.092 108.55C529.592 108.55 527.042 108.6 524.442 108.7C521.942 108.7 519.842 108.8 518.142 109V106C521.542 105.8 524.092 105.3 525.792 104.5C527.592 103.6 528.792 102.15 529.392 100.15C529.992 98.05 530.292 95.2 530.292 91.6V18.7C530.292 15 529.992 12.3 529.392 10.6C528.792 8.8 527.592 7.6 525.792 7C524.092 6.3 521.542 5.9 518.142 5.8V2.8C519.842 2.9 521.942 3 524.442 3.1C527.042 3.19999 529.592 3.24999 532.092 3.24999C534.292 3.24999 536.542 3.19999 538.842 3.1C541.242 3 543.242 2.9 544.842 2.8L578.892 92.5L576.342 93.7L610.092 3.24999C611.292 3.24999 612.442 3.24999 613.542 3.24999C614.742 3.24999 615.942 3.24999 617.142 3.24999C620.642 3.24999 624.092 3.19999 627.492 3.1C630.992 3 633.892 2.9 636.192 2.8ZM723.656 2.8C723.256 6.3 722.956 9.69999 722.756 13C722.656 16.3 722.606 18.8 722.606 20.5C722.606 22.3 722.656 24.05 722.756 25.75C722.856 27.35 722.956 28.7 723.056 29.8H719.606C719.006 23.9 718.156 19.25 717.056 15.85C715.956 12.35 714.056 9.9 711.356 8.5C708.756 6.99999 704.806 6.24999 699.506 6.24999H687.056C683.656 6.24999 681.056 6.54999 679.256 7.15C677.556 7.65 676.406 8.8 675.806 10.6C675.206 12.3 674.906 15 674.906 18.7V93.1C674.906 96.7 675.206 99.4 675.806 101.2C676.406 103 677.556 104.2 679.256 104.8C681.056 105.3 683.656 105.55 687.056 105.55H698.006C704.306 105.55 709.056 104.7 712.256 103C715.556 101.3 717.906 98.55 719.306 94.75C720.806 90.85 721.906 85.6 722.606 79H726.056C725.756 81.7 725.606 85.3 725.606 89.8C725.606 91.7 725.656 94.45 725.756 98.05C725.956 101.55 726.256 105.2 726.656 109C721.556 108.8 715.806 108.7 709.406 108.7C703.006 108.6 697.306 108.55 692.306 108.55C689.306 108.55 685.306 108.55 680.306 108.55C675.406 108.55 670.156 108.6 664.556 108.7C658.956 108.7 653.706 108.8 648.806 109V106C652.206 105.8 654.756 105.4 656.456 104.8C658.256 104.2 659.456 103 660.056 101.2C660.656 99.4 660.956 96.7 660.956 93.1V18.7C660.956 15 660.656 12.3 660.056 10.6C659.456 8.8 658.256 7.6 656.456 7C654.756 6.3 652.206 5.9 648.806 5.8V2.8C653.706 2.9 658.956 3 664.556 3.1C670.156 3.19999 675.406 3.24999 680.306 3.24999C685.306 3.24999 689.306 3.24999 692.306 3.24999C696.906 3.24999 702.106 3.24999 707.906 3.24999C713.806 3.14999 719.056 3 723.656 2.8ZM697.856 54.1C697.856 54.1 697.856 54.6 697.856 55.6C697.856 56.6 697.856 57.1 697.856 57.1H670.406C670.406 57.1 670.406 56.6 670.406 55.6C670.406 54.6 670.406 54.1 670.406 54.1H697.856ZM702.206 34.3C701.806 40 701.606 44.35 701.606 47.35C701.706 50.35 701.756 53.1 701.756 55.6C701.756 58.1 701.806 60.85 701.906 63.85C702.006 66.85 702.256 71.2 702.656 76.9H699.206C698.806 73.7 698.306 70.6 697.706 67.6C697.206 64.5 696.006 62 694.106 60.1C692.306 58.1 689.206 57.1 684.806 57.1V54.1C689.206 54.1 692.256 52.95 693.956 50.65C695.756 48.35 696.906 45.65 697.406 42.55C697.906 39.45 698.356 36.7 698.756 34.3H702.206ZM856.404 2.8C856.004 6.6 855.704 10.3 855.504 13.9C855.404 17.4 855.354 20.1 855.354 22C855.354 24.4 855.404 26.65 855.504 28.75C855.604 30.85 855.704 32.7 855.804 34.3H852.354C851.654 27.3 850.704 21.8 849.504 17.8C848.304 13.7 846.204 10.75 843.204 8.94999C840.204 7.14999 835.554 6.24999 829.254 6.24999H821.154V91.6C821.154 95.6 821.504 98.6 822.204 100.6C823.004 102.6 824.504 103.95 826.704 104.65C828.904 105.35 832.104 105.8 836.304 106V109C833.704 108.8 830.404 108.7 826.404 108.7C822.404 108.6 818.354 108.55 814.254 108.55C809.754 108.55 805.504 108.6 801.504 108.7C797.604 108.7 794.454 108.8 792.054 109V106C796.254 105.8 799.454 105.35 801.654 104.65C803.854 103.95 805.304 102.6 806.004 100.6C806.804 98.6 807.204 95.6 807.204 91.6V6.24999H799.104C792.904 6.24999 788.254 7.14999 785.154 8.94999C782.154 10.75 780.054 13.7 778.854 17.8C777.654 21.8 776.704 27.3 776.004 34.3H772.554C772.754 32.7 772.854 30.85 772.854 28.75C772.954 26.65 773.004 24.4 773.004 22C773.004 20.1 772.904 17.4 772.704 13.9C772.604 10.3 772.354 6.6 771.954 2.8C776.154 2.9 780.704 3 785.604 3.1C790.604 3.19999 795.604 3.24999 800.604 3.24999C805.604 3.24999 810.154 3.24999 814.254 3.24999C818.354 3.24999 822.854 3.24999 827.754 3.24999C832.754 3.24999 837.754 3.19999 842.754 3.1C847.754 3 852.304 2.9 856.404 2.8ZM916.418 0.699991C925.918 0.699991 934.218 2.84999 941.318 7.15C948.518 11.45 954.068 17.65 957.968 25.75C961.968 33.75 963.968 43.5 963.968 55C963.968 66.2 961.918 76 957.818 84.4C953.818 92.8 948.218 99.35 941.018 104.05C933.818 108.75 925.568 111.1 916.268 111.1C906.768 111.1 898.418 108.95 891.218 104.65C884.118 100.35 878.568 94.15 874.568 86.05C870.668 77.95 868.718 68.2 868.718 56.8C868.718 45.6 870.768 35.8 874.868 27.4C878.968 19 884.568 12.45 891.668 7.75C898.868 3.04999 907.118 0.699991 916.418 0.699991ZM915.818 3.39999C909.318 3.39999 903.668 5.64999 898.868 10.15C894.068 14.65 890.318 20.85 887.618 28.75C885.018 36.65 883.718 45.8 883.718 56.2C883.718 66.8 885.168 76.05 888.068 83.95C891.068 91.75 895.068 97.8 900.068 102.1C905.168 106.3 910.768 108.4 916.868 108.4C923.368 108.4 929.018 106.15 933.818 101.65C938.618 97.15 942.318 90.95 944.918 83.05C947.618 75.05 948.968 65.9 948.968 55.6C948.968 44.9 947.468 35.65 944.468 27.85C941.568 20.05 937.618 14.05 932.618 9.85C927.618 5.54999 922.018 3.39999 915.818 3.39999Z" fill="#A77E3D"/>
</svg>
