<svg viewBox="0 0 536 124" fill="none" xmlns="http://www.w3.org/2000/svg">
<path d="M190.364 8.66666C192.475 8.66666 193.53 9.11111 193.53 10C193.53 10.7778 192.864 11.1667 191.53 11.1667C191.197 11.1667 190.475 11 189.364 10.6667C188.253 10.2222 187.419 10 186.864 10C181.975 10.3333 176.197 12.6111 169.53 16.8333C162.864 21.0556 156.308 26.1111 149.864 32C143.53 37.7778 136.308 45.0556 128.197 53.8333C120.197 62.6111 113.141 70.6111 107.03 77.8333C101.03 84.9444 94.1414 93.1667 86.3636 102.5C78.5858 111.833 72.6414 118.833 68.5303 123.5L68.0303 123.167C74.0303 113.167 79.9192 102.278 85.6969 90.5C91.5858 78.7222 95.7525 70.1111 98.1969 64.6667C100.641 59.1111 104.252 50.7778 109.03 39.6667C103.697 45.4444 95.3636 54.2778 84.0303 66.1667C72.6969 78.0556 62.5303 88.8889 53.5303 98.6667C44.5303 108.444 37.3636 116.722 32.0303 123.5L31.5303 123.167C45.0858 102.167 56.6414 82.0556 66.1969 62.8333C75.7525 43.5 80.5303 29.7222 80.5303 21.5C80.5303 15.2778 78.3081 10.3889 73.8636 6.83333C69.5303 3.27777 63.7525 1.5 56.5303 1.5C52.1969 1.5 47.5858 2.33333 42.6969 3.99999C37.8081 5.55555 32.9747 7.88888 28.1969 11C23.5303 14 19.2525 17.5556 15.3636 21.6667C11.5858 25.7778 8.47472 30.6667 6.03027 36.3333C3.69694 42 2.53027 47.8333 2.53027 53.8333C2.53027 58.8333 4.03027 62.6111 7.03027 65.1667C10.1414 67.6111 14.1969 68.8333 19.1969 68.8333C24.7525 68.8333 30.1414 67.4444 35.3636 64.6667C40.6969 61.8889 45.1414 58.4444 48.6969 54.3333C52.2525 50.2222 55.0858 45.8889 57.1969 41.3333C59.4192 36.6667 60.5303 32.5 60.5303 28.8333C60.5303 25.8333 59.7525 23.4444 58.1969 21.6667C56.6414 19.8889 54.2525 19 51.0303 19C46.2525 19 41.0858 20.7778 35.5303 24.3333C29.9747 27.7778 25.2525 32.6111 21.3636 38.8333L20.8636 38.5C24.7525 32.1667 29.5303 27.2222 35.1969 23.6667C40.8636 20.1111 46.1414 18.3333 51.0303 18.3333C54.3636 18.3333 57.0303 19.2778 59.0303 21.1667C61.1414 22.9444 62.1969 25.6667 62.1969 29.3333C62.1969 36 60.8636 42.3333 58.1969 48.3333C55.5303 54.2222 52.0858 59.1667 47.8636 63.1667C43.7525 67.0556 39.1969 70.1111 34.1969 72.3333C29.3081 74.5556 24.5858 75.6667 20.0303 75.6667C14.3636 75.6667 9.7525 73.8889 6.19694 70.3333C2.64138 66.7778 0.863607 61.5 0.863607 54.5C0.863607 48.3889 2.08583 42.5 4.53027 36.8333C6.97472 31.0556 10.1969 26.0556 14.1969 21.8333C18.1969 17.6111 22.6414 13.8889 27.5303 10.6667C32.4192 7.44444 37.3636 5 42.3636 3.33333C47.4747 1.66667 52.1969 0.833334 56.5303 0.833334C64.4192 0.833334 71.1414 2.88889 76.6969 7C82.2525 11 85.0303 17 85.0303 25C85.0303 34.2222 82.3636 44.2778 77.0303 55.1667C71.8081 66.0556 63.3636 80.6667 51.6969 99C51.1414 99.8889 50.4192 100.889 49.5303 102C56.1969 94.6667 66.5303 83.6111 80.5303 68.8333C94.6414 54.0556 104.364 43.7778 109.697 38C114.252 27.4444 117.808 19.8889 120.364 15.3333C122.919 10.7778 125.364 8.5 127.697 8.5C129.475 8.5 130.364 9.27778 130.364 10.8333C130.364 13.5 126.753 19.1111 119.53 27.6667C118.419 30.4444 116.308 35.6111 113.197 43.1667C110.086 50.7222 107.53 56.8333 105.53 61.5C103.641 66.0556 101.419 71.3333 98.8636 77.3333C96.3081 83.3333 94.0303 88.2778 92.0303 92.1667C90.1414 95.9444 88.5303 98.7222 87.1969 100.5C87.9747 99.6111 89.0858 98.2778 90.5303 96.5C95.4192 90.6111 99.1414 86.1111 101.697 83C104.364 79.8889 108.141 75.4444 113.03 69.6667C117.919 63.8889 121.864 59.3333 124.864 56C127.975 52.6667 131.864 48.6111 136.53 43.8333C141.197 38.9444 145.141 35.0556 148.364 32.1667C151.697 29.2778 155.419 26.1667 159.53 22.8333C163.753 19.3889 167.475 16.7778 170.697 15C173.919 13.2222 177.253 11.7222 180.697 10.5C184.141 9.27777 187.364 8.66666 190.364 8.66666ZM128.197 9.33333C127.53 9.33333 124.919 14.8333 120.364 25.8333C126.586 18.2778 129.697 13.2778 129.697 10.8333C129.697 9.83333 129.197 9.33333 128.197 9.33333ZM228.784 4.8C228.384 8.3 228.084 11.7 227.884 15C227.784 18.3 227.734 20.8 227.734 22.5C227.734 24.3 227.784 26.05 227.884 27.75C227.984 29.35 228.084 30.7 228.184 31.8H224.734C224.134 25.9 223.284 21.25 222.184 17.85C221.084 14.35 219.184 11.9 216.484 10.5C213.884 8.99999 209.934 8.24999 204.634 8.24999H192.184C188.784 8.24999 186.184 8.54999 184.384 9.15C182.684 9.65 181.534 10.8 180.934 12.6C180.334 14.3 180.034 17 180.034 20.7V95.1C180.034 98.7 180.334 101.4 180.934 103.2C181.534 105 182.684 106.2 184.384 106.8C186.184 107.3 188.784 107.55 192.184 107.55H203.134C209.434 107.55 214.184 106.7 217.384 105C220.684 103.3 223.034 100.55 224.434 96.75C225.934 92.85 227.034 87.6 227.734 81H231.184C230.884 83.7 230.734 87.3 230.734 91.8C230.734 93.7 230.784 96.45 230.884 100.05C231.084 103.55 231.384 107.2 231.784 111C226.684 110.8 220.934 110.7 214.534 110.7C208.134 110.6 202.434 110.55 197.434 110.55C194.434 110.55 190.434 110.55 185.434 110.55C180.534 110.55 175.284 110.6 169.684 110.7C164.084 110.7 158.834 110.8 153.934 111V108C157.334 107.8 159.884 107.4 161.584 106.8C163.384 106.2 164.584 105 165.184 103.2C165.784 101.4 166.084 98.7 166.084 95.1V20.7C166.084 17 165.784 14.3 165.184 12.6C164.584 10.8 163.384 9.6 161.584 9C159.884 8.3 157.334 7.9 153.934 7.8V4.8C158.834 4.9 164.084 5 169.684 5.1C175.284 5.19999 180.534 5.24999 185.434 5.24999C190.434 5.24999 194.434 5.24999 197.434 5.24999C202.034 5.24999 207.234 5.24999 213.034 5.24999C218.934 5.14999 224.184 5 228.784 4.8ZM202.984 56.1C202.984 56.1 202.984 56.6 202.984 57.6C202.984 58.6 202.984 59.1 202.984 59.1H175.534C175.534 59.1 175.534 58.6 175.534 57.6C175.534 56.6 175.534 56.1 175.534 56.1H202.984ZM207.334 36.3C206.934 42 206.734 46.35 206.734 49.35C206.834 52.35 206.884 55.1 206.884 57.6C206.884 60.1 206.934 62.85 207.034 65.85C207.134 68.85 207.384 73.2 207.784 78.9H204.334C203.934 75.7 203.434 72.6 202.834 69.6C202.334 66.5 201.134 64 199.234 62.1C197.434 60.1 194.334 59.1 189.934 59.1V56.1C194.334 56.1 197.384 54.95 199.084 52.65C200.884 50.35 202.034 47.65 202.534 44.55C203.034 41.45 203.484 38.7 203.884 36.3H207.334ZM245.34 4.8C247.44 4.9 250.19 5 253.59 5.1C256.99 5.19999 260.34 5.24999 263.64 5.24999C268.34 5.24999 272.84 5.19999 277.14 5.1C281.44 5 284.49 4.95 286.29 4.95C298.39 4.95 307.44 7.45 313.44 12.45C319.44 17.45 322.44 23.65 322.44 31.05C322.44 34.05 321.84 37.25 320.64 40.65C319.44 44.05 317.34 47.25 314.34 50.25C311.44 53.25 307.44 55.75 302.34 57.75C297.24 59.65 290.79 60.6 282.99 60.6H268.59V57.6H281.49C288.59 57.6 293.99 56.5 297.69 54.3C301.49 52 304.04 49 305.34 45.3C306.74 41.5 307.44 37.3 307.44 32.7C307.44 24.8 305.54 18.7 301.74 14.4C298.04 9.99999 291.64 7.8 282.54 7.8C277.94 7.8 274.94 8.65 273.54 10.35C272.14 12.05 271.44 15.5 271.44 20.7V95.1C271.44 98.7 271.74 101.4 272.34 103.2C272.94 105 274.09 106.2 275.79 106.8C277.59 107.4 280.19 107.8 283.59 108V111C281.29 110.8 278.39 110.7 274.89 110.7C271.49 110.6 268.04 110.55 264.54 110.55C260.64 110.55 256.99 110.6 253.59 110.7C250.19 110.7 247.44 110.8 245.34 111V108C248.74 107.8 251.29 107.4 252.99 106.8C254.79 106.2 255.99 105 256.59 103.2C257.19 101.4 257.49 98.7 257.49 95.1V20.7C257.49 17 257.19 14.3 256.59 12.6C255.99 10.8 254.79 9.6 252.99 9C251.29 8.3 248.74 7.9 245.34 7.8V4.8ZM269.19 58.05C274.59 58.25 278.84 58.5 281.94 58.8C285.04 59 287.54 59.2 289.44 59.4C291.44 59.6 293.34 59.85 295.14 60.15C301.84 61.25 306.64 63.3 309.54 66.3C312.54 69.2 314.74 73.75 316.14 79.95L319.89 95.25C320.89 99.65 321.89 102.85 322.89 104.85C323.99 106.75 325.64 107.65 327.84 107.55C329.54 107.45 330.94 106.9 332.04 105.9C333.24 104.9 334.49 103.55 335.79 101.85L338.04 103.5C335.94 106.6 333.74 109 331.44 110.7C329.24 112.3 326.09 113.1 321.99 113.1C318.29 113.1 315.04 112 312.24 109.8C309.44 107.6 307.34 103.3 305.94 96.9L302.64 81.9C301.74 77.6 300.69 73.9 299.49 70.8C298.39 67.6 296.79 65.1 294.69 63.3C292.69 61.5 289.69 60.6 285.69 60.6H269.49L269.19 58.05ZM424.08 4.8C423.68 8.6 423.38 12.3 423.18 15.9C423.08 19.4 423.03 22.1 423.03 24C423.03 26.4 423.08 28.65 423.18 30.75C423.28 32.85 423.38 34.7 423.48 36.3H420.03C419.33 29.3 418.38 23.8 417.18 19.8C415.98 15.7 413.88 12.75 410.88 10.95C407.88 9.14999 403.23 8.24999 396.93 8.24999H388.83V93.6C388.83 97.6 389.18 100.6 389.88 102.6C390.68 104.6 392.18 105.95 394.38 106.65C396.58 107.35 399.78 107.8 403.98 108V111C401.38 110.8 398.08 110.7 394.08 110.7C390.08 110.6 386.03 110.55 381.93 110.55C377.43 110.55 373.18 110.6 369.18 110.7C365.28 110.7 362.13 110.8 359.73 111V108C363.93 107.8 367.13 107.35 369.33 106.65C371.53 105.95 372.98 104.6 373.68 102.6C374.48 100.6 374.88 97.6 374.88 93.6V8.24999H366.78C360.58 8.24999 355.93 9.14999 352.83 10.95C349.83 12.75 347.73 15.7 346.53 19.8C345.33 23.8 344.38 29.3 343.68 36.3H340.23C340.43 34.7 340.53 32.85 340.53 30.75C340.63 28.65 340.68 26.4 340.68 24C340.68 22.1 340.58 19.4 340.38 15.9C340.28 12.3 340.03 8.6 339.63 4.8C343.83 4.9 348.38 5 353.28 5.1C358.28 5.19999 363.28 5.24999 368.28 5.24999C373.28 5.24999 377.83 5.24999 381.93 5.24999C386.03 5.24999 390.53 5.24999 395.43 5.24999C400.43 5.24999 405.43 5.19999 410.43 5.1C415.43 5 419.98 4.9 424.08 4.8ZM497.444 111V108C500.844 107.8 503.394 107.4 505.094 106.8C506.894 106.2 508.094 105 508.694 103.2C509.294 101.4 509.594 98.7 509.594 95.1V20.7C509.594 17 509.294 14.3 508.694 12.6C508.094 10.8 506.894 9.6 505.094 9C503.394 8.3 500.844 7.9 497.444 7.8V4.8C499.744 4.9 502.644 5 506.144 5.1C509.644 5.19999 513.094 5.24999 516.494 5.24999C520.394 5.24999 524.044 5.19999 527.444 5.1C530.844 5 533.594 4.9 535.694 4.8V7.8C532.294 7.9 529.694 8.3 527.894 9C526.194 9.6 525.044 10.8 524.444 12.6C523.844 14.3 523.544 17 523.544 20.7V95.1C523.544 98.7 523.844 101.4 524.444 103.2C525.044 105 526.194 106.2 527.894 106.8C529.694 107.4 532.294 107.8 535.694 108V111C533.594 110.8 530.844 110.7 527.444 110.7C524.044 110.6 520.394 110.55 516.494 110.55C513.094 110.55 509.644 110.6 506.144 110.7C502.644 110.7 499.744 110.8 497.444 111ZM434.744 111V108C438.144 107.8 440.694 107.4 442.394 106.8C444.194 106.2 445.394 105 445.994 103.2C446.594 101.4 446.894 98.7 446.894 95.1V20.7C446.894 17 446.594 14.3 445.994 12.6C445.394 10.8 444.194 9.6 442.394 9C440.694 8.3 438.144 7.9 434.744 7.8V4.8C436.844 4.9 439.594 5 442.994 5.1C446.394 5.19999 450.044 5.24999 453.944 5.24999C457.444 5.24999 460.894 5.19999 464.294 5.1C467.794 5 470.694 4.9 472.994 4.8V7.8C469.594 7.9 466.994 8.3 465.194 9C463.494 9.6 462.344 10.8 461.744 12.6C461.144 14.3 460.844 17 460.844 20.7V95.1C460.844 98.7 461.144 101.4 461.744 103.2C462.344 105 463.494 106.2 465.194 106.8C466.994 107.4 469.594 107.8 472.994 108V111C470.694 110.8 467.794 110.7 464.294 110.7C460.894 110.6 457.444 110.55 453.944 110.55C450.044 110.55 446.394 110.6 442.994 110.7C439.594 110.7 436.844 110.8 434.744 111ZM455.594 59.1V56.1H514.844V59.1H455.594Z" fill="#A77E3D"/>
</svg>
