<svg width="35" height="24" viewBox="0 0 35 24" fill="none" xmlns="http://www.w3.org/2000/svg">
<path d="M29.4521 12.6316C28.1739 13.2459 27.0068 14.0691 26.0001 15.0681C24.8182 16.2411 23.8807 17.6336 23.241 19.1661C22.6014 20.6986 22.2722 22.3412 22.2722 24H23.545C23.545 22.5071 23.8413 21.0288 24.4169 19.6495C24.9926 18.2702 25.8364 17.017 26.9001 15.9613C27.9638 14.9057 29.2266 14.0683 30.6164 13.497C32.0061 12.9256 33.4957 12.6316 35 12.6316V11.3684C33.4957 11.3684 32.0061 11.0744 30.6164 10.5031C29.2266 9.93173 27.9638 9.09434 26.9001 8.03869C25.8364 6.98303 24.9926 5.72979 24.4169 4.35051C23.8413 2.97122 23.545 1.49292 23.545 0H22.2722C22.2722 1.6588 22.6014 3.30136 23.241 4.83389C23.8807 6.36643 24.8182 7.75892 26.0001 8.93187C27.0068 9.93094 28.1739 10.7541 29.4521 11.3684H0V12.6316H29.4521Z" fill="#121212"/>
</svg>
