<svg xmlns="http://www.w3.org/2000/svg" viewBox="0 0 1000 1000"><defs><style>.cls-1{fill:#0c0c0e;}</style></defs><g id="Logo_circle" data-name="Logo circle"><path class="cls-1" d="M528.24,875.18a9.71,9.71,0,0,1,5,.87,8,8,0,0,1,4.61,6.92,7.38,7.38,0,0,1-1.42,5,5.8,5.8,0,0,1-4.51,2.34,6.27,6.27,0,0,1-4.34-1.22,5.09,5.09,0,0,1-2-4,6.17,6.17,0,0,1,.9-3.82,9.16,9.16,0,0,1,2.49-2.61,3.31,3.31,0,0,0-2.44-.54,9.54,9.54,0,0,0-6.15,3.35,20,20,0,0,0-3.9,6.92,19,19,0,0,0-1.13,7.28l1.5,22.94c.22,3.26,1.25,5.38,3.12,6.36a14.48,14.48,0,0,0,7.59,1.16l.14,2.09c-1.54,0-3.72.09-6.55.18s-5.82.23-8.94.43c-2.39.16-4.79.37-7.17.62s-4.22.46-5.47.61l-.14-2.09c2.59-.17,4.41-.79,5.44-1.86s1.45-3,1.27-5.8l-2-31.31q-.28-4.49-1.93-6.54t-5.82-1.77l-.14-2.09q3.21.09,6.2-.11a54.73,54.73,0,0,0,6.32-.76,36.82,36.82,0,0,0,5.37-1.4l.75,11.47a26.28,26.28,0,0,1,2.82-5.8,17.72,17.72,0,0,1,4.5-4.75A11.54,11.54,0,0,1,528.24,875.18Z"/><path class="cls-1" d="M559.79,855.42l2.8,16.36,13.6-2.33.33,2-13.6,2.33,6.62,38.72c.47,2.69,1.28,4.51,2.46,5.46a5.43,5.43,0,0,0,4.52,1,6.36,6.36,0,0,0,4.23-2.85q1.66-2.41,2.31-7.6l2,.37a21,21,0,0,1-2.68,9.54q-2.4,4.11-8.21,5.1a16.6,16.6,0,0,1-5.76.12,11.69,11.69,0,0,1-4.36-1.74,12.07,12.07,0,0,1-3.88-4.91,36.79,36.79,0,0,1-2.22-8.24l-5.66-33.1-9.07,1.55-.33-2,9.06-1.55-2.46-14.39a43.34,43.34,0,0,0,5.63-1.52A20.73,20.73,0,0,0,559.79,855.42Z"/><path class="cls-1" d="M591.43,837.56l11.05,34.66q.49-6.66,4.09-10.37a20,20,0,0,1,8.45-5.26,17.37,17.37,0,0,1,6.56-1,12.17,12.17,0,0,1,4.91,1.42,11.17,11.17,0,0,1,4,3.88,32.43,32.43,0,0,1,3.22,7.47l8.14,25.52q1.28,4,3.3,4.93c1.35.62,3.27.54,5.74-.25l.64,2c-1.16.3-2.9.76-5.22,1.4s-4.56,1.29-6.71,2-4.39,1.45-6.48,2.22-3.65,1.35-4.64,1.74l-.64-2q3.24-1,4.12-2.89t-.4-5.85l-9-28.19a25.61,25.61,0,0,0-2.07-4.84,6.84,6.84,0,0,0-3.2-3,7.14,7.14,0,0,0-5.07.09,11.13,11.13,0,0,0-7.22,7q-2.07,5.32,0,12l7.34,23c.85,2.67,1.87,4.33,3.06,5s2.87.66,5,0l.64,2q-1.65.42-4.79,1.26c-2.1.56-4.22,1.19-6.38,1.87s-4.48,1.48-6.77,2.32-4,1.46-5.11,1.89l-.64-2q3.72-1.19,4.83-3.11c.75-1.29.69-3.27-.16-5.93l-17.3-54.29c-.91-2.85-2.07-4.81-3.49-5.86s-3.43-1.16-6-.33l-.63-2q3.14-.69,6-1.6a52.13,52.13,0,0,0,5.9-2.24A35.84,35.84,0,0,0,591.43,837.56Z"/><path class="cls-1" d="M382,843.23l-.49,1.93a5.65,5.65,0,0,0-3.59.27,3.36,3.36,0,0,0-1.59,2.37,16.67,16.67,0,0,0-.2,4.63L379.75,901l-3.24,2.16A66.76,66.76,0,0,0,400,866.84l.42,5.24a103.74,103.74,0,0,1-28,42l-.78-.2-.87-.22-.83-.21-.83-.21-5.47-66q-.33-4-1.86-5.67a7.46,7.46,0,0,0-3.07-2.18l.49-1.93q2.31.69,5.49,1.61t6.2,1.69q3.49.88,6.39,1.52C379.26,842.67,380.82,843,382,843.23Zm68.15,16.44-.49,1.93a10.33,10.33,0,0,0-4.83,1.5q-2.77,1.5-5.56,5.94l-32.54,52.82-.83-.21-.82-.21-.88-.23-.78-.19-5-66.23q-.26-3.87-1.47-5.37a5.8,5.8,0,0,0-2.56-1.94l.49-1.93c1.35.41,3,.91,5,1.48s3.92,1.11,5.8,1.59c2.66.68,5.14,1.28,7.46,1.8s4.16.93,5.54,1.21l-.5,1.93a18.9,18.9,0,0,0-4.77-.55,2.65,2.65,0,0,0-2.5,1.68,14,14,0,0,0-.44,5.55l3.12,47.32-2.19,1.7,22-35.23q3.48-5.49,4.18-8.86t-1-5.31a11.82,11.82,0,0,0-5.69-3.05l.49-1.93,5.78,1.68c1.93.56,3.8,1.08,5.61,1.54,1.62.41,3,.73,4.16,1Z"/><path class="cls-1" d="M471.87,876.69q8.7,1.42,12.79,7.46t2.22,17.35a33.73,33.73,0,0,0-21.65-.8A33,33,0,0,0,452,908.58l.14-2.19a31.16,31.16,0,0,1,13.32-7.57c4.61-1.26,8.71-1.79,11.33-1.52a34.06,34.06,0,0,0,.58-8.44,16.8,16.8,0,0,0-1.69-7,6,6,0,0,0-4.54-3.27q-4.26-.71-8.11,3.26c-2.57,2.64-4.14,6.76-5.68,13.25l-.28,1q-.33,1.36-.69,3t-.63,3.18A28,28,0,0,0,456,914a16.3,16.3,0,0,0,4.29,7.84,12.11,12.11,0,0,0,6.45,3.43,16.24,16.24,0,0,0,8-.7q4-1.35,7.58-6.23l1.85,1.12a24.54,24.54,0,0,1-4.75,6,18.82,18.82,0,0,1-7.2,4.23,19.48,19.48,0,0,1-9.33.53,23.21,23.21,0,0,1-11.56-5.09,20.6,20.6,0,0,1-6.45-10.21,32.2,32.2,0,0,1-.5-14.23,36,36,0,0,1,5.34-14.48,21.38,21.38,0,0,1,22.2-9.48Z"/><path class="cls-1" d="M731.42,266.36A324.71,324.71,0,1,0,825.6,496.43,322.89,322.89,0,0,0,731.42,266.36Zm-232,537.73C328.77,803.36,190.56,664,191.29,493.47S331.42,184.76,502,185.49,810.83,325.57,810.1,496.12,670,804.82,499.37,804.09Z"/><path class="cls-1" d="M769.06,493c.23-97.69-54.42-193.42-140.24-240.74a215,215,0,0,0,6.86,23.89h0l0,0a259,259,0,0,1,95.9,116.08h0a267.06,267.06,0,0,1,20.64,107.23l0,0c-.63,79-38.53,156.84-101.5,204.84,2.62-64.66-23.08-129.5-69.15-174.88,30,60.79,28.87,135.27-2.5,195.3a334.54,334.54,0,0,0-45.6-94.64l1.76-409q-8.32-1.11-16.79-1.68L516.81,608a337.44,337.44,0,0,0-50.15-49.39l1.45-337.84c-263.25,37.42-322.83,390.12-93.05,518.59a228.86,228.86,0,0,1-8.74-23.57C295.13,670,250.5,587.57,248.83,503.13c5-.16,11.53-.09,16.65-.07v.08A318.25,318.25,0,0,1,449.84,568L449,766.22q8.31,1.66,16.77,2.78l.8-187.43a321.09,321.09,0,0,1,50.12,55.14l-.57,134.11q8.48-.5,16.8-1.53l.46-106.77a318.17,318.17,0,0,1,38.32,105.16,235.71,235.71,0,0,0,48.64-147.62,219.23,219.23,0,0,1,9.75,117c78.41-44,131.07-128.51,138-217.95C768.78,510.46,769.12,501.72,769.06,493ZM449.93,546.14a331.17,331.17,0,0,0-117.15-51.8l-.13.05v-.08a333.83,333.83,0,0,0-83.76-7.87c.2-5.72.56-11.4,1.12-17s1.26-11.22,2.16-16.76h0c15.37-102.45,96.63-192,199.07-212.08Z"/><path class="cls-1" d="M302.69,131.64a9.58,9.58,0,0,1,4.88-1.44,8,8,0,0,1,7.2,4.14,7.38,7.38,0,0,1,1,5.16,5.8,5.8,0,0,1-3,4.1,6.27,6.27,0,0,1-4.42.83,5.09,5.09,0,0,1-3.57-2.66,6.12,6.12,0,0,1-.89-3.82,9.17,9.17,0,0,1,1.06-3.45,3.27,3.27,0,0,0-2.42.6,9.53,9.53,0,0,0-4,5.73,20.15,20.15,0,0,0-.43,7.93,19.08,19.08,0,0,0,2.23,7l11.53,19.89q2.46,4.23,5.62,4.31a14.43,14.43,0,0,0,7.32-2.33l1.05,1.81L320,182.54q-3.75,2-7.82,4.36c-2.07,1.2-4.13,2.44-6.15,3.73s-3.57,2.29-4.63,3l-1.06-1.82q3.38-1.95,4-4.08c.45-1.41,0-3.33-1.43-5.75L287.23,154.8c-1.51-2.59-3.05-4.26-4.63-5s-3.59-.41-6,1L275.53,149q2.93-1.35,5.52-2.85a55.12,55.12,0,0,0,5.32-3.49,34.75,34.75,0,0,0,4.18-3.64l5.77,10a26.21,26.21,0,0,1,0-6.45,17.37,17.37,0,0,1,1.92-6.25A11.46,11.46,0,0,1,302.69,131.64Z"/><path class="cls-1" d="M355.5,107.88a17.21,17.21,0,0,1,6.39-1.11,11,11,0,0,1,4.9,1.31,10.45,10.45,0,0,1,4,4,37.49,37.49,0,0,1,3.27,7.27l8.81,25.3q1.38,4,3.39,4.85t5.59-.35l.69,2c-1.09.31-2.77.8-5,1.49s-4.47,1.39-6.61,2.14-4.22,1.52-6.23,2.33-3.55,1.42-4.59,1.86l-.7-2q3.12-1.08,3.9-2.94t-.6-5.82L363,120.21a31.34,31.34,0,0,0-2.11-4.83,6.82,6.82,0,0,0-3-3,6.25,6.25,0,0,0-4.78.13,10,10,0,0,0-5.21,4,14.62,14.62,0,0,0-2.26,6.87,19.44,19.44,0,0,0,1.12,8.23l7.92,22.75q1.38,4,3.19,4.92c1.21.64,2.83.61,4.84-.09l.69,2c-1,.29-2.57.73-4.61,1.34s-4.15,1.28-6.28,2-4.36,1.57-6.66,2.47l-5.11,2-.69-2c2.45-.85,4-1.93,4.75-3.24s.6-3.28-.32-5.92l-10.32-29.64q-1.47-4.25-3.6-5.78t-6.09-.16l-.69-2c2.08-.51,4.07-1.1,5.95-1.76a52.4,52.4,0,0,0,5.88-2.41,38.06,38.06,0,0,0,4.81-2.78L344,123.75q.48-6.52,3.73-10.41A17.65,17.65,0,0,1,355.5,107.88ZM383.92,98a17.21,17.21,0,0,1,6.39-1.11,11,11,0,0,1,4.9,1.31,10.45,10.45,0,0,1,4,4,37.45,37.45,0,0,1,3.28,7.27l8.8,25.3c.92,2.64,2.07,4.26,3.44,4.84s3.27.45,5.73-.41l.69,2q-1.64.47-5.09,1.51t-6.75,2.19q-3.21,1.11-6.23,2.33T398.51,149l-.69-2q3.1-1.09,3.89-2.95t-.59-5.82l-9.73-27.94a32.82,32.82,0,0,0-2.1-4.83,6.74,6.74,0,0,0-3.05-3,6.58,6.58,0,0,0-4.91.18,10.66,10.66,0,0,0-6.74,7.26,18.42,18.42,0,0,0,.41,12l-3.1-7.71q.38-7.11,3.89-10.88A20.1,20.1,0,0,1,383.92,98Z"/><path class="cls-1" d="M437.31,86.91a17.87,17.87,0,0,1,7.06.21,20.85,20.85,0,0,1,4.53,1.6q3.64,2.09,3.56-4l2.17-.32c.14,1.86.38,4.1.7,6.71s.8,6.07,1.43,10.35l-2.17.32A32.41,32.41,0,0,0,451.5,95a14.92,14.92,0,0,0-5-5.11,10.76,10.76,0,0,0-7.41-1.23,8.31,8.31,0,0,0-5.17,2.64A6.69,6.69,0,0,0,432.55,97a7.93,7.93,0,0,0,2.54,4.88,21,21,0,0,0,5.2,3.37l6.69,3.15a62.39,62.39,0,0,1,10.29,6,13.39,13.39,0,0,1,5.22,9.23,12.46,12.46,0,0,1-1.28,8.07,15.22,15.22,0,0,1-5.67,5.74,22.77,22.77,0,0,1-8.46,2.92,21.13,21.13,0,0,1-4.51.22,26.1,26.1,0,0,1-4-.56c-.78-.29-1.55-.6-2.31-.92s-1.49-.64-2.21-.94a1.22,1.22,0,0,0-1.75.46,6.7,6.7,0,0,0-.72,3.34l-2.17.33q-.28-3.19-.85-7.76t-1.7-12.07l2.18-.33a51.43,51.43,0,0,0,3.5,9.28,14.35,14.35,0,0,0,5.07,5.87,11.24,11.24,0,0,0,7.81,1.21,9.29,9.29,0,0,0,5.15-2.73q2.38-2.32,1.68-7.07a9.48,9.48,0,0,0-4.08-6.72,61.69,61.69,0,0,0-8.65-4.83q-3.72-1.87-7.08-3.75a21.1,21.1,0,0,1-5.67-4.51,12.75,12.75,0,0,1-2.92-6.69,12.1,12.1,0,0,1,1-7.63,13.07,13.07,0,0,1,5.05-5.15A20.35,20.35,0,0,1,437.31,86.91Z"/><path class="cls-1" d="M504.58,82.05a9.66,9.66,0,0,1,5,1.11,8,8,0,0,1,4.27,7.12,7.37,7.37,0,0,1-1.66,5,5.78,5.78,0,0,1-4.61,2.13A6.35,6.35,0,0,1,503.27,96a5.13,5.13,0,0,1-1.82-4.07,6.1,6.1,0,0,1,1.08-3.77,9.18,9.18,0,0,1,2.61-2.49,3.35,3.35,0,0,0-2.41-.66,9.55,9.55,0,0,0-6.3,3.06,20.12,20.12,0,0,0-4.23,6.72,19.1,19.1,0,0,0-1.47,7.23l.4,23q.09,4.89,2.82,6.5a14.44,14.44,0,0,0,7.53,1.51l0,2.1L495,135c-2.83,0-5.82,0-8.95,0q-3.6.06-7.19.27l-5.5.35,0-2.1c2.6,0,4.44-.58,5.53-1.6s1.59-2.92,1.55-5.72l-.56-31.38c-.05-3-.59-5.2-1.61-6.62s-2.94-2.1-5.74-2l0-2.09q3.21.24,6.21.19a53.71,53.71,0,0,0,6.34-.47,35.8,35.8,0,0,0,5.43-1.14l.2,11.49a26.59,26.59,0,0,1,3.1-5.65,17.38,17.38,0,0,1,4.72-4.53A11.44,11.44,0,0,1,504.58,82.05Z"/><path class="cls-1" d="M607.62,104.79a7.38,7.38,0,0,1-2.78,4.46,5.79,5.79,0,0,1-5,1,6.28,6.28,0,0,1-3.83-2.38,5.13,5.13,0,0,1-.82-4.38,6.2,6.2,0,0,1,1.94-3.41,9.38,9.38,0,0,1,3.12-1.82,3.35,3.35,0,0,0-2.19-1.2,9.53,9.53,0,0,0-6.84,1.5,20.12,20.12,0,0,0-5.69,5.55,19.23,19.23,0,0,0-3.12,6.68l-5,22.44c-.72,3.19-.31,5.51,1.21,7a14.53,14.53,0,0,0,7,3.24l-.46,2-6.33-1.66q-4.12-1.06-8.71-2.09-3.51-.78-7-1.41t-5.43-.95l.46-2.05c2.54.56,4.45.48,5.74-.26s2.24-2.47,2.84-5.21l6.81-30.63q1-4.39,0-6.81c-.66-1.62-6.16-3.44-10.51-4.19S542.89,88,542.89,88L539,127.09q-.41,4.07.91,5.92a5.45,5.45,0,0,0,4.1,2.11,6.3,6.3,0,0,0,4.84-1.62c1.51-1.26,2.91-3.49,4.25-6.7l1.81.88a20.85,20.85,0,0,1-5.12,8.48c-2.27,2.22-5.35,3.12-9.27,2.73a16.28,16.28,0,0,1-5.58-1.42,11.6,11.6,0,0,1-3.74-2.83,12.06,12.06,0,0,1-2.43-5.77,36.25,36.25,0,0,1,0-8.53l3.37-33.42L523,86l.2-2,9.15.92,1.46-14.52a45.62,45.62,0,0,0,5.83,0,21.23,21.23,0,0,0,5.11-1L543.08,86s15.18,1.41,20.32,2.15a115.93,115.93,0,0,1,11.42,2.49,52,52,0,0,0,6.27,1,35,35,0,0,0,5.54.16l-2.49,11.22a26.21,26.21,0,0,1,4.34-4.77,17.41,17.41,0,0,1,5.65-3.3,11.51,11.51,0,0,1,6.43-.36,9.63,9.63,0,0,1,4.58,2.24,8,8,0,0,1,2.48,7.92Z"/><path class="cls-1" d="M643.63,108.3a24.77,24.77,0,0,1,10.16,6.79,20.14,20.14,0,0,1,4.69,11.15q.79,6.71-2.61,15.78t-8.39,13.56a19.86,19.86,0,0,1-10.82,5.24,27.12,27.12,0,0,1-22.28-8.35,19.31,19.31,0,0,1-4.77-11.07q-.76-6.63,2.63-15.71t8.36-13.63a19.67,19.67,0,0,1,10.91-5.31A25.08,25.08,0,0,1,643.63,108.3Zm-.7,1.87q-4.87-1.82-10,2.59t-9.87,17q-4.69,12.54-3.66,19.17t5.91,8.46q4.77,1.78,10-2.52T645.11,138q4.7-12.54,3.64-19.29T642.93,110.17Z"/><path class="cls-1" d="M711.2,140.78a17.38,17.38,0,0,1,5.15,4.17,12.08,12.08,0,0,1,2.26,4.59,10.79,10.79,0,0,1-.23,5.52,34.46,34.46,0,0,1-3.39,7.39l-13.36,23.22q-2.08,3.63-1.41,5.76c.46,1.41,1.81,2.77,4.06,4.06l-1,1.82q-1.43-.93-4.47-2.86t-6.08-3.66c-2-1.13-3.94-2.21-5.93-3.24s-3.48-1.79-4.5-2.3l1-1.82c2,1.13,3.6,1.5,4.91,1.09s2.66-1.81,4-4.24L707,154.64a25.62,25.62,0,0,0,2.18-4.8,6.2,6.2,0,0,0-3.36-8,11,11,0,0,0-10.22-.57,18,18,0,0,0-8.76,8.11l-12,20.88q-2.08,3.63-1.58,5.66t3.37,3.67l-1,1.81-4.08-2.63c-1.83-1.16-3.75-2.33-5.77-3.49s-4-2.27-6.23-3.41-3.82-2-4.89-2.52l1-1.82q3.39,1.94,5.56,1.46c1.45-.32,2.88-1.69,4.27-4.11l15.65-27.21q2.25-3.9,2-6.51t-3.87-4.7l1.05-1.82c1.75,1.24,3.49,2.35,5.22,3.35a55,55,0,0,0,5.68,2.86,36,36,0,0,0,5.25,1.81l-5.44,9.44q5.34-4.08,10.54-4A19.64,19.64,0,0,1,711.2,140.78Z"/><path class="cls-1" d="M709.72,226.71a45.73,45.73,0,0,1-7.36-7.37,19.15,19.15,0,0,1-3.8-7.38A7,7,0,0,1,700,205.7a7.55,7.55,0,0,1,5.82-2.74,18.55,18.55,0,0,1,8.53,2l-.46,1.68a6.76,6.76,0,0,0-4.35.21,8.68,8.68,0,0,0-3.66,2.7,7.48,7.48,0,0,0-1.09,7.86q1.66,4.44,6.88,8.66a31.28,31.28,0,0,0,7.37,4.48,14.62,14.62,0,0,0,7.49,1.23,9.1,9.1,0,0,0,6.19-3.6,7,7,0,0,0,1.58-5.6q-.43-3.12-5.72-7.39l-5.44-4.4a33.23,33.23,0,0,1-4.67-4.56,9.58,9.58,0,0,1-2.3-4.87,6.52,6.52,0,0,1,1.68-5,9.81,9.81,0,0,1,6.61-3.4q4.34-.6,11.81,1.46l.37,1.45a47.41,47.41,0,0,0-6.05-.71,4.9,4.9,0,0,0-4.3,1.73q-2,2.49,1.57,5.38l9.25,7.48a23.64,23.64,0,0,1,7.45,9.7q2.1,5.36-2.06,10.48a14.62,14.62,0,0,1-7.93,5,21.08,21.08,0,0,1-11.33-.55Q716.87,232.5,709.72,226.71Zm25.68-30.78a21.71,21.71,0,0,1-7.71-11.13q-1.73-6.28,3.43-12.65t11.73-6.07a24.2,24.2,0,0,1,20.24,16.38q1.7,6.25-3.53,12.7t-11.62,6A21.67,21.67,0,0,1,735.4,195.93Zm1.14-1.4a6,6,0,0,0,6.08,1.06q3.36-1.12,8.39-7.35t5.48-9.78a6.22,6.22,0,0,0-8.32-6.73q-3.46,1.13-8.5,7.33c-3.36,4.15-5.15,7.41-5.37,9.81A6.1,6.1,0,0,0,736.54,194.53Zm25-7.4-1-1.68a14.55,14.55,0,0,1,7.57-1.72,11.53,11.53,0,0,1,7.15,2.45,6.24,6.24,0,0,1,2.49,4,5.69,5.69,0,0,1-1.46,4.42c-1.3,1.6-2.65,2.4-4.05,2.38a5.56,5.56,0,0,1-3.5-1.16,4.59,4.59,0,0,1-1.6-2.71,4.75,4.75,0,0,1,1-3.66,12.69,12.69,0,0,1,5-3.75l.6,1a18.76,18.76,0,0,0-6.65-1.08A17.3,17.3,0,0,0,761.56,187.13Z"/><path class="cls-1" d="M228.89,159.73l58.71,32.69c2.28,1.3,4.18,1.89,5.68,1.77a7,7,0,0,0,3.56-1.13l1.27,1.54c-1.33.92-2.83,2.06-4.53,3.42s-3.39,2.75-5.09,4.15c-2.17,1.8-4.16,3.47-6,5s-3.27,2.87-4.32,3.91l-1.27-1.54q3.81-3.42,3.87-5.47c0-1.38-1.53-2.94-4.72-4.7L231.3,173.53l.09-2.41,14.72,44q1.95,6.15,4.12,8.62a5.17,5.17,0,0,0,4.77,2.08,13.36,13.36,0,0,0,5.91-3l1.26,1.54q-2.44,1.77-4.83,3.68t-4.47,3.64c-1.24,1-2.32,2-3.26,2.76s-1.74,1.6-2.43,2.34l-1.26-1.54a9.38,9.38,0,0,0,1.65-4.61,19.24,19.24,0,0,0-1.22-7.79L226.26,161.9l1.31-1.08Zm47.42,38.84,3.87,2.55a50.88,50.88,0,0,0-38,5.11l-.49-2.17a48.83,48.83,0,0,1,16.11-5.66C267,196.88,272.24,197.6,276.31,198.57Z"/><path class="cls-1" d="M228.45,229.52c-1.62-1.52-3.25-2.48-4.87-3.93-60.9,61.46-98.88,139.64-109.66,224.15h6.32A382.66,382.66,0,0,1,228.45,229.52Z"/><path class="cls-1" d="M125.2,578.47h-6.56a391.62,391.62,0,0,0,211,271.86c1.28-2.15,2.35-4,3.45-5.86C228.1,793.3,149.83,695.63,125.2,578.47Z"/><path class="cls-1" d="M66.5,530.7c1.32,37.79,62.57,41.6,82.42,16.81,6.64-7.7,8-21.68,3.16-30.46-4.45-8.59-14.33-14.16-22.83-16.35,18.22-7.25,19.42-27.13-.06-33-7.25-2-17.75-2.07-23.91,2.36-8.13,5.25-8.67,16.91,2.42,17.62,10.72,0,10.29-14.15.41-15.47,1.64-2.82,6-3.61,9.7-3.64a16.35,16.35,0,0,1,11.51,4.17c6.81,6.52,5.81,20.35-1.81,27.18-3.93-.51-13.11-2.89-13.34,2.42.9,5.35,10.58,1,13.2-.54,10.21,3.67,16.59,10.27,16.43,21.92.11,12.19-7,20.59-18.05,24.88-13.52,5-31,4.57-44.1-3.16-4.83-3.06-8.57-7-10.16-12.12a20.07,20.07,0,0,1-.81-5.7,21.16,21.16,0,0,1,8.54-17.52,21.25,21.25,0,0,1,6.09-2.36,21.71,21.71,0,0,1,12.24.85c7.78,3.12,14.19,12.24,12.56,20.71a14.62,14.62,0,0,1-6.17,9.46,14.26,14.26,0,0,1-9,2.09c1.87-2,2.43-4.11,1.64-5.84a5.35,5.35,0,0,0-9.37-.94,7.13,7.13,0,0,0-.33,7.43c2.75,4.53,10.32,3.24,10.88,3.14a19.35,19.35,0,0,0,14.89-14.73c1.81-9.92-6.43-19.47-14.78-22.53-9.56-2.83-14.67-1.2-19.33.92C70.05,512.51,66.57,521.54,66.5,530.7ZM125.29,501c-1.31,1.38-6.79,3.11-8.52,2.33a1.36,1.36,0,0,1-.18-2.28C118,500.19,123.4,500,125.29,501Z"/><path class="cls-1" d="M771.55,229.52c1.62-1.52,3.25-2.48,4.87-3.93,60.9,61.46,98.88,139.64,109.66,224.15h-6.32A382.66,382.66,0,0,0,771.55,229.52Z"/><path class="cls-1" d="M874.8,578.47h6.56a391.62,391.62,0,0,1-211,271.86c-1.28-2.15-2.35-4-3.45-5.86C771.9,793.3,850.17,695.63,874.8,578.47Z"/><path class="cls-1" d="M921.5,508.28c-4.66-2.12-9.77-3.75-19.33-.92-8.35,3.06-16.59,12.61-14.78,22.53a19.35,19.35,0,0,0,14.89,14.73c.56.1,8.13,1.39,10.88-3.14a7.13,7.13,0,0,0-.33-7.43,5.35,5.35,0,0,0-9.37.94c-.79,1.73-.23,3.86,1.64,5.84a14.26,14.26,0,0,1-9-2.09,14.62,14.62,0,0,1-6.17-9.46c-1.63-8.47,4.78-17.59,12.56-20.71a21.71,21.71,0,0,1,12.24-.85,18.15,18.15,0,0,1,14.63,19.88,20.07,20.07,0,0,1-.81,5.7c-1.59,5.07-5.33,9.06-10.16,12.12-13.13,7.73-30.58,8.14-44.1,3.16-11-4.29-18.16-12.69-18-24.88-.16-11.65,6.22-18.25,16.43-21.92,2.62,1.53,12.3,5.89,13.2.54-.23-5.31-9.41-2.93-13.34-2.42-7.62-6.83-8.62-20.66-1.81-27.18a16.35,16.35,0,0,1,11.51-4.17c3.7,0,8.06.82,9.7,3.64-9.88,1.32-10.31,15.49.41,15.47,11.09-.71,10.55-12.37,2.42-17.62-6.16-4.43-16.66-4.36-23.91-2.36-19.48,5.89-18.28,25.77-.06,33-8.5,2.19-18.38,7.76-22.83,16.35-4.88,8.78-3.48,22.76,3.16,30.46,19.85,24.79,81.1,21,82.42-16.81C933.43,521.54,930,512.51,921.5,508.28Zm-38.09-7.21a1.36,1.36,0,0,1-.18,2.28c-1.73.78-7.21-1-8.52-2.33C876.6,500,882.05,500.19,883.41,501.07Z"/></g></svg>